%
M48
M72
T01C0.0197
T02C0.0236
T03C0.0276
T04C0.0315
T05C0.0320
T06C0.0400
T07C0.0433
T08C0.0472
T09C0.0512
T10C0.0610
T11C0.0787
T12C0.1260
T13C0.1300
%
T01
X20300Y12050
X19700Y12750
X20150Y14150
X20600Y14250
X21700Y14550
X22300Y15350
X22800Y15850
X18800Y16450
X18800Y16900
X18300Y18450
X19100Y18650
X18700Y20250
X18600Y21350
X21900Y20850
X22500Y20450
X22350Y21250
X22800Y21650
X24800Y21150
X25300Y21450
X21400Y23850
X18500Y15150
X17900Y15050
X17800Y14050
X17900Y12950
X27900Y13650
X28900Y13650
X33800Y13650
X44400Y21250
X45900Y21450
X45800Y22750
X41500Y22650
X37600Y22850
X37600Y22350
X37600Y21850
X37100Y23350
T02
X40600Y24150
X46600Y25200
X46600Y26200
X34600Y20100
X33600Y20100
X32600Y20100
X31600Y20100
X30600Y20100
X29600Y20100
X29600Y18100
X30600Y18100
X31600Y18100
X32600Y18100
X33600Y18100
X34600Y18100
X38600Y15200
X40600Y18150
X32100Y22700
X31100Y22700
X30100Y22700
X29100Y22700
X28600Y26100
X30600Y26100
X32600Y26100
X22100Y25600
X16100Y25600
X20500Y19850
X18800Y18000
X17000Y18650
X14500Y17100
X13800Y17100
X13100Y17100
X12400Y17100
X15400Y14900
X15900Y15400
X16400Y15800
X16600Y13800
X16100Y13400
X15600Y13000
X19500Y13500
X32600Y12700
X34500Y12700
X34600Y10600
X32600Y10600
X16600Y4200
X4800Y24700
X4800Y25750
T03
X5935Y14481
X6722Y14481
X7509Y14481
X8297Y14481
X9084Y14481
X9872Y14481
X10659Y14481
X11446Y14481
X12234Y14481
X13021Y14481
X13021Y5819
X12234Y5819
X11446Y5819
X10659Y5819
X9872Y5819
X9084Y5819
X8297Y5819
X7509Y5819
X6722Y5819
X5935Y5819
T04
X21600Y6150
T05
X5900Y4250
X6900Y4250
X16600Y10150
X16600Y11150
X22600Y10150
X23600Y10150
X25600Y10650
X25600Y11650
X23100Y12450
X23100Y13450
X19400Y15750
X18400Y15750
X20600Y17050
X21600Y17050
X21500Y18750
X21500Y19750
X21900Y22150
X21900Y23150
X18600Y22550
X17600Y22550
X11600Y22650
X11600Y23650
X9100Y21650
X9100Y20650
X11600Y20650
X11600Y19650
X14500Y18250
X15500Y18250
X7500Y19150
X4500Y19150
X28600Y11650
X28600Y10650
X42300Y17550
X43700Y17550
X43700Y18550
X42300Y18550
X42300Y20150
X43700Y20150
X43700Y21150
X42300Y21150
X39300Y21150
X38100Y21150
X38100Y20150
X39300Y20150
X42300Y23550
X43700Y23550
X43700Y24550
X42300Y24550
X42300Y26150
X43700Y26150
X43700Y27150
X42300Y27150
X39300Y27150
X38200Y27150
X38200Y26150
X39300Y26150
X43100Y15150
X46100Y15150
X43600Y13150
X42850Y12650
X43600Y12150
X43100Y9650
X43100Y8150
X46100Y8150
X46100Y9650
X43600Y5650
X42850Y5150
X43600Y4650
T06
X45600Y4150
X45600Y5150
X45600Y6150
X39600Y5650
X39600Y7650
X45600Y11650
X45600Y12650
X45600Y13650
X49100Y21650
X49100Y22650
X49100Y23650
X23600Y23150
X23600Y22150
X23600Y21150
X23600Y20150
X23600Y19150
X23600Y18150
X23600Y17150
X23600Y16150
T07
X15900Y20950
X15900Y21950
T08
X47100Y21650
X48100Y21650
X48100Y22650
X47100Y22650
X47100Y23650
X48100Y23650
T09
X48600Y19619
X48600Y17650
X48600Y12619
X48600Y10650
X48600Y7219
X48600Y5250
T10
X35450Y23223
X25899Y23223
T11
X24200Y6150
X19000Y6150
T12
X2100Y4650
T13
X32100Y4650
X48100Y26650
X12100Y26650
M30
