%
M48
M72
T01C0.01969
T02C0.02362
T03C0.02756
T04C0.03150
T05C0.03200
T06C0.04000
T07C0.04331
T08C0.04724
T09C0.05118
T10C0.06102
T11C0.07874
T12C0.12598
T13C0.13000
%
T01
X203000Y120500
X197000Y127500
X201500Y141500
X206200Y142300
X217000Y145700
X223000Y153500
X228000Y158500
X188000Y164500
X188200Y169000
X183000Y184500
X191000Y186500
X187000Y202500
X186000Y213300
X219000Y208500
X225000Y204500
X223500Y212500
X228000Y216500
X248300Y211700
X253300Y214900
X214000Y238500
X185000Y151500
X179000Y150500
X178000Y140700
X179000Y129500
X279000Y136500
X289000Y136500
X338000Y136500
X444000Y212500
X459000Y214500
X458000Y227500
X415000Y226800
X376100Y228500
X376000Y223500
X376000Y218500
X371000Y233500
T02
X406000Y241500
X466000Y252000
X466000Y262000
X346000Y201000
X336000Y201000
X326000Y201000
X316000Y201000
X306000Y201000
X296000Y201000
X296000Y181000
X306000Y181000
X316000Y181000
X326000Y181000
X336000Y181000
X346000Y181000
X386000Y152000
X406000Y181500
X321000Y227000
X311000Y227000
X301000Y227000
X291000Y227000
X286000Y261000
X306000Y261000
X326000Y261000
X221000Y256000
X216000Y221500
X202000Y220500
X205000Y198500
X182000Y199500
X175600Y199500
X170000Y186500
X188000Y180000
X209000Y181500
X164000Y158000
X159000Y154000
X154000Y149000
X166000Y138000
X161000Y134000
X156000Y130000
X195000Y135000
X145000Y171000
X138000Y171000
X131000Y171000
X124000Y171000
X48000Y247000
X48000Y257500
X161000Y256000
X277000Y165500
X326000Y127000
X345000Y127000
X346000Y106000
X326000Y106000
X166000Y42000
T03
X130213Y58193
X122339Y58193
X114465Y58193
X106591Y58193
X98717Y58193
X90843Y58193
X82969Y58193
X75094Y58193
X67220Y58193
X59346Y58193
X59346Y144807
X67220Y144807
X75094Y144807
X82969Y144807
X90843Y144807
X98717Y144807
X106591Y144807
X114465Y144807
X122339Y144807
X130213Y144807
T04
X216000Y61500
T05
X59000Y42500
X69000Y42500
X166000Y101500
X166000Y111500
X226000Y101500
X236000Y101500
X256000Y106500
X256000Y116500
X231000Y124500
X231000Y134500
X194000Y157500
X184000Y157500
X206000Y170500
X216000Y170500
X215000Y187500
X215000Y197500
X223000Y221500
X223000Y231500
X186000Y225500
X176000Y225500
X116000Y226500
X116000Y236500
X91000Y216500
X91000Y206500
X116000Y206500
X116000Y196500
X145000Y183500
X155000Y183500
X75000Y191500
X45000Y191500
X286000Y116500
X286000Y106500
X423000Y175500
X437000Y175500
X437000Y185500
X423000Y185500
X423000Y201500
X437000Y201500
X437000Y211500
X423000Y211500
X393000Y211500
X382000Y211500
X382000Y201500
X393000Y201500
X423000Y235500
X437000Y235500
X437000Y245500
X423000Y245500
X423000Y261500
X437000Y261500
X437000Y271500
X423000Y271500
X393000Y271500
X382000Y271500
X382000Y261500
X393000Y261500
X431000Y151500
X461000Y151500
X436000Y131500
X428500Y126500
X436000Y121500
X431000Y96500
X431000Y81500
X461000Y81500
X461000Y96500
X436000Y56500
X428500Y51500
X436000Y46500
T06
X456000Y41500
X456000Y51500
X456000Y61500
X396000Y56500
X396000Y76500
X456000Y116500
X456000Y126500
X456000Y136500
X491000Y216500
X491000Y226500
X491000Y236500
X236000Y231500
X236000Y221500
X236000Y211500
X236000Y201500
X236000Y191500
X236000Y181500
X236000Y171500
X236000Y161500
T07
X159000Y209500
X159000Y219500
T08
X471000Y216500
X481000Y216500
X481000Y226500
X471000Y226500
X471000Y236500
X481000Y236500
T09
X486000Y196185
X486000Y176500
X486000Y126185
X486000Y106500
X486000Y72185
X486000Y52500
T10
X354504Y232232
X258992Y232232
T11
X242000Y61500
X190000Y61500
T12
X21000Y46500
T13
X321000Y46500
X481000Y266500
X121000Y266500
M30
