G75*
%MOIN*%
%OFA0B0*%
%FSLAX24Y24*%
%IPPOS*%
%LPD*%
%AMOC8*
5,1,8,0,0,1.08239X$1,22.5*
%
%ADD10OC8,0.0560*%
%ADD11C,0.1000*%
%ADD12OC8,0.1000*%
%ADD13OC8,0.0700*%
%ADD14C,0.0700*%
%ADD15C,0.0520*%
%ADD16R,0.0800X0.0800*%
%ADD17C,0.0800*%
%ADD18OC8,0.0660*%
%ADD19C,0.0560*%
%ADD20R,0.0560X0.0560*%
%ADD21R,0.1560X0.1560*%
%ADD22C,0.1250*%
%ADD23C,0.0709*%
%ADD24C,0.0600*%
%ADD25OC8,0.0520*%
%ADD26C,0.0660*%
%ADD27C,0.0396*%
%ADD28C,0.0160*%
%ADD29C,0.0100*%
%ADD30C,0.2000*%
%ADD31C,0.0660*%
%ADD32C,0.0560*%
%ADD33C,0.0400*%
%ADD34C,0.0357*%
%ADD35C,0.0120*%
D10*
X005900Y004250D03*
X006900Y004250D03*
X016600Y010150D03*
X016600Y011150D03*
X023100Y012450D03*
X023100Y013450D03*
X019400Y015750D03*
X018400Y015750D03*
X015500Y018250D03*
X014500Y018250D03*
X011600Y019650D03*
X011600Y020650D03*
X009100Y020650D03*
X009100Y021650D03*
X011600Y022650D03*
X011600Y023650D03*
X017600Y022550D03*
X018600Y022550D03*
X021900Y022150D03*
X021900Y023150D03*
X021500Y019750D03*
X021500Y018750D03*
X038100Y020150D03*
X038100Y021150D03*
X042300Y023550D03*
X043700Y023550D03*
X043700Y024550D03*
X042300Y024550D03*
X043700Y026150D03*
X043700Y027150D03*
X038200Y027150D03*
X038200Y026150D03*
X043700Y021150D03*
X043700Y020150D03*
X043700Y018550D03*
X042300Y018550D03*
X042300Y017550D03*
X043700Y017550D03*
D11*
X039600Y007650D03*
D12*
X039600Y005650D03*
D13*
X022600Y010150D03*
X023600Y016150D03*
X023600Y017150D03*
X023600Y018150D03*
X023600Y019150D03*
X023600Y020150D03*
X023600Y021150D03*
X023600Y022150D03*
X023600Y023150D03*
X021600Y017050D03*
D14*
X020600Y017050D03*
X015900Y020950D03*
X015900Y021950D03*
X023600Y010150D03*
D15*
X025340Y010650D02*
X025860Y010650D01*
X025860Y011650D02*
X025340Y011650D01*
X028340Y011650D02*
X028860Y011650D01*
X028860Y010650D02*
X028340Y010650D01*
D16*
X048600Y010650D03*
X048600Y005250D03*
X048600Y017650D03*
D17*
X048600Y019619D03*
X048600Y012619D03*
X048600Y007219D03*
D18*
X046100Y008150D03*
X046100Y009650D03*
X043100Y009650D03*
X043100Y008150D03*
X043100Y015150D03*
X046100Y015150D03*
X042300Y020150D03*
X042300Y021150D03*
X039300Y021150D03*
X039300Y020150D03*
X039300Y026150D03*
X039300Y027150D03*
X042300Y027150D03*
X042300Y026150D03*
X007500Y019150D03*
X004500Y019150D03*
D19*
X005935Y014481D03*
X006722Y014481D03*
X007509Y014481D03*
X008297Y014481D03*
X009084Y014481D03*
X009872Y014481D03*
X010659Y014481D03*
X011446Y014481D03*
X012234Y014481D03*
X013021Y014481D03*
X013021Y005819D03*
X012234Y005819D03*
X011446Y005819D03*
X010659Y005819D03*
X009872Y005819D03*
X009084Y005819D03*
X008297Y005819D03*
X007509Y005819D03*
X006722Y005819D03*
D20*
X005935Y005819D03*
D21*
X021600Y006150D03*
D22*
X019000Y006150D03*
X024200Y006150D03*
D23*
X047100Y021650D03*
X048100Y021650D03*
X048100Y022650D03*
X047100Y022650D03*
X047100Y023650D03*
X048100Y023650D03*
D24*
X045900Y013650D02*
X045300Y013650D01*
X045300Y012650D02*
X045900Y012650D01*
X045900Y011650D02*
X045300Y011650D01*
X045300Y006150D02*
X045900Y006150D01*
X045900Y005150D02*
X045300Y005150D01*
X045300Y004150D02*
X045900Y004150D01*
D25*
X043600Y004650D03*
X042850Y005150D03*
X043600Y005650D03*
X043600Y012150D03*
X042850Y012650D03*
X043600Y013150D03*
D26*
X049100Y021650D03*
X049100Y022650D03*
X049100Y023650D03*
D27*
X046600Y025200D03*
X046600Y026200D03*
X040600Y024150D03*
X034600Y020100D03*
X033600Y020100D03*
X032600Y020100D03*
X031600Y020100D03*
X030600Y020100D03*
X029600Y020100D03*
X029600Y018100D03*
X030600Y018100D03*
X031600Y018100D03*
X032600Y018100D03*
X033600Y018100D03*
X034600Y018100D03*
X038600Y015200D03*
X040600Y018150D03*
X032100Y022700D03*
X031100Y022700D03*
X030100Y022700D03*
X029100Y022700D03*
X028600Y026100D03*
X030600Y026100D03*
X032600Y026100D03*
X022100Y025600D03*
X016100Y025600D03*
X020500Y019850D03*
X018800Y018000D03*
X017000Y018650D03*
X014500Y017100D03*
X013800Y017100D03*
X013100Y017100D03*
X012400Y017100D03*
X015400Y014900D03*
X015900Y015400D03*
X016400Y015800D03*
X016600Y013800D03*
X016100Y013400D03*
X015600Y013000D03*
X019500Y013500D03*
X032600Y012700D03*
X034500Y012700D03*
X034600Y010600D03*
X032600Y010600D03*
X016600Y004200D03*
X004800Y024700D03*
X004800Y025750D03*
D28*
X005000Y025791D02*
X003400Y025791D01*
X003400Y025633D02*
X005000Y025633D01*
X005000Y025474D02*
X003400Y025474D01*
X003400Y025316D02*
X005000Y025316D01*
X005000Y025157D02*
X003400Y025157D01*
X003400Y024999D02*
X005000Y024999D01*
X005000Y024840D02*
X003400Y024840D01*
X003400Y024682D02*
X005000Y024682D01*
X005000Y024523D02*
X003400Y024523D01*
X003400Y024365D02*
X005000Y024365D01*
X005000Y024350D02*
X003400Y024350D01*
X003400Y025950D01*
X005000Y025950D01*
X005000Y024350D01*
X005000Y025950D02*
X003400Y025950D01*
X022700Y012050D02*
X023100Y012450D01*
X022700Y012050D02*
X020300Y012050D01*
D29*
X020518Y011860D02*
X022779Y011860D01*
X022979Y012060D01*
X023072Y012060D01*
X022772Y011760D01*
X016838Y011760D01*
X016724Y011713D01*
X016552Y011540D01*
X016438Y011540D01*
X016210Y011312D01*
X016210Y010988D01*
X016438Y010760D01*
X016762Y010760D01*
X016990Y010988D01*
X016990Y011102D01*
X017028Y011140D01*
X022962Y011140D01*
X023076Y011187D01*
X023163Y011274D01*
X023163Y011274D01*
X024028Y012140D01*
X025972Y012140D01*
X026724Y011387D01*
X026838Y011340D01*
X028127Y011340D01*
X028130Y011336D01*
X028266Y011280D01*
X028934Y011280D01*
X029070Y011336D01*
X029174Y011440D01*
X029230Y011576D01*
X029230Y011724D01*
X029174Y011860D01*
X029070Y011964D01*
X028934Y012020D01*
X028266Y012020D01*
X028130Y011964D01*
X028127Y011960D01*
X027028Y011960D01*
X026276Y012713D01*
X026162Y012760D01*
X023838Y012760D01*
X023724Y012713D01*
X023490Y012478D01*
X023490Y012612D01*
X023262Y012840D01*
X022938Y012840D01*
X022710Y012612D01*
X022710Y012329D01*
X022621Y012240D01*
X020518Y012240D01*
X020463Y012295D01*
X020357Y012338D01*
X020243Y012338D01*
X020137Y012295D01*
X020055Y012213D01*
X020012Y012107D01*
X020012Y011993D01*
X020055Y011887D01*
X020137Y011805D01*
X020243Y011762D01*
X020357Y011762D01*
X020463Y011805D01*
X020518Y011860D01*
X020468Y011811D02*
X022822Y011811D01*
X022828Y011909D02*
X022921Y011909D01*
X022926Y012008D02*
X023019Y012008D01*
X022684Y012303D02*
X020443Y012303D01*
X020157Y012303D02*
X015100Y012303D01*
X015100Y012205D02*
X020052Y012205D01*
X020012Y012106D02*
X015100Y012106D01*
X015100Y012008D02*
X020012Y012008D01*
X020046Y011909D02*
X015100Y011909D01*
X015100Y011811D02*
X020132Y011811D01*
X019850Y012500D02*
X022710Y012500D01*
X022710Y012402D02*
X015100Y012402D01*
X015100Y012500D02*
X019550Y012500D01*
X019537Y012505D02*
X019643Y012462D01*
X019757Y012462D01*
X019863Y012505D01*
X019938Y012580D01*
X020570Y012580D01*
X022370Y014380D01*
X022470Y014480D01*
X022470Y015112D01*
X022545Y015187D01*
X022588Y015293D01*
X022588Y015407D01*
X022545Y015513D01*
X022463Y015595D01*
X022357Y015638D01*
X022329Y015638D01*
X022512Y015821D01*
X022512Y015793D01*
X022555Y015687D01*
X022637Y015605D01*
X022743Y015562D01*
X022857Y015562D01*
X022963Y015605D01*
X023034Y015676D01*
X023130Y015580D01*
X023230Y015480D01*
X025830Y015480D01*
X027612Y013698D01*
X027612Y013593D01*
X027655Y013487D01*
X027737Y013405D01*
X027843Y013362D01*
X027957Y013362D01*
X028063Y013405D01*
X028145Y013487D01*
X028188Y013593D01*
X028188Y013707D01*
X028145Y013813D01*
X028063Y013895D01*
X027957Y013938D01*
X027852Y013938D01*
X025970Y015820D01*
X023921Y015820D01*
X024060Y015959D01*
X024060Y015980D01*
X026330Y015980D01*
X028612Y013698D01*
X028612Y013593D01*
X028655Y013487D01*
X028737Y013405D01*
X028843Y013362D01*
X028957Y013362D01*
X029063Y013405D01*
X029145Y013487D01*
X029188Y013593D01*
X029188Y013707D01*
X029145Y013813D01*
X029063Y013895D01*
X028957Y013938D01*
X028852Y013938D01*
X026470Y016320D01*
X024060Y016320D01*
X024060Y016341D01*
X023791Y016610D01*
X023409Y016610D01*
X023140Y016341D01*
X023140Y016020D01*
X023038Y016020D01*
X022963Y016095D01*
X022857Y016138D01*
X022829Y016138D01*
X023395Y016705D01*
X023409Y016690D01*
X023791Y016690D01*
X024060Y016959D01*
X024060Y016980D01*
X030230Y016980D01*
X033512Y013698D01*
X033512Y013593D01*
X033555Y013487D01*
X033637Y013405D01*
X033743Y013362D01*
X033857Y013362D01*
X033963Y013405D01*
X034045Y013487D01*
X034088Y013593D01*
X034088Y013707D01*
X034045Y013813D01*
X033963Y013895D01*
X033857Y013938D01*
X033752Y013938D01*
X030370Y017320D01*
X024060Y017320D01*
X024060Y017341D01*
X023791Y017610D01*
X023409Y017610D01*
X023140Y017341D01*
X023140Y016959D01*
X023155Y016945D01*
X021330Y015120D01*
X021330Y014920D01*
X020730Y014920D01*
X020630Y014820D01*
X020430Y014620D01*
X020430Y014488D01*
X020355Y014413D01*
X020338Y014370D01*
X020313Y014395D01*
X020207Y014438D01*
X020093Y014438D01*
X019987Y014395D01*
X019912Y014320D01*
X019570Y014320D01*
X018788Y015102D01*
X018788Y015207D01*
X018745Y015313D01*
X018663Y015395D01*
X018557Y015438D01*
X018443Y015438D01*
X018337Y015395D01*
X018255Y015313D01*
X018212Y015207D01*
X018212Y015102D01*
X018188Y015079D01*
X018188Y015107D01*
X018145Y015213D01*
X018063Y015295D01*
X017957Y015338D01*
X017843Y015338D01*
X017737Y015295D01*
X017655Y015213D01*
X017612Y015107D01*
X017612Y014993D01*
X017630Y014948D01*
X017630Y014288D01*
X017555Y014213D01*
X017512Y014107D01*
X017512Y013993D01*
X017555Y013887D01*
X017637Y013805D01*
X017743Y013762D01*
X017771Y013762D01*
X017730Y013720D01*
X017730Y013188D01*
X017655Y013113D01*
X017612Y013007D01*
X017612Y012893D01*
X017655Y012787D01*
X017737Y012705D01*
X017843Y012662D01*
X017957Y012662D01*
X018063Y012705D01*
X018145Y012787D01*
X018188Y012893D01*
X018188Y013007D01*
X018145Y013113D01*
X018070Y013188D01*
X018070Y013580D01*
X018270Y013780D01*
X018370Y013880D01*
X018370Y014780D01*
X018452Y014862D01*
X018548Y014862D01*
X019430Y013980D01*
X019912Y013980D01*
X019987Y013905D01*
X020093Y013862D01*
X020207Y013862D01*
X020313Y013905D01*
X020395Y013987D01*
X020412Y014030D01*
X020437Y014005D01*
X020543Y013962D01*
X020657Y013962D01*
X020763Y014005D01*
X020845Y014087D01*
X020888Y014193D01*
X020888Y014307D01*
X020845Y014413D01*
X020774Y014484D01*
X020870Y014580D01*
X021412Y014580D01*
X021412Y014493D01*
X021455Y014387D01*
X021537Y014305D01*
X021643Y014262D01*
X021757Y014262D01*
X021781Y014271D01*
X020430Y012920D01*
X019938Y012920D01*
X019863Y012995D01*
X019757Y013038D01*
X019643Y013038D01*
X019537Y012995D01*
X019455Y012913D01*
X019412Y012807D01*
X019412Y012693D01*
X019455Y012587D01*
X019537Y012505D01*
X019451Y012599D02*
X015100Y012599D01*
X015100Y012697D02*
X017757Y012697D01*
X017652Y012796D02*
X015100Y012796D01*
X015100Y012894D02*
X017612Y012894D01*
X017612Y012993D02*
X015100Y012993D01*
X015100Y013091D02*
X017646Y013091D01*
X017730Y013190D02*
X015120Y013190D01*
X015100Y013169D02*
X018211Y016280D01*
X018562Y016280D01*
X018637Y016205D01*
X018743Y016162D01*
X018857Y016162D01*
X018963Y016205D01*
X019045Y016287D01*
X019088Y016393D01*
X019088Y016507D01*
X019045Y016613D01*
X018983Y016675D01*
X019045Y016737D01*
X019088Y016843D01*
X019088Y016957D01*
X019045Y017063D01*
X018963Y017145D01*
X018857Y017188D01*
X018743Y017188D01*
X018637Y017145D01*
X018562Y017070D01*
X018300Y017070D01*
X018230Y017070D01*
X018230Y017070D01*
X018230Y017070D01*
X018180Y017020D01*
X015100Y013955D01*
X015100Y016150D01*
X014144Y016150D01*
X014174Y016180D01*
X015870Y016180D01*
X015970Y016280D01*
X017570Y017880D01*
X017970Y017880D01*
X018252Y018162D01*
X018357Y018162D01*
X018463Y018205D01*
X018545Y018287D01*
X018588Y018393D01*
X018588Y018507D01*
X018545Y018613D01*
X018478Y018680D01*
X018812Y018680D01*
X018812Y018593D01*
X018855Y018487D01*
X018937Y018405D01*
X019043Y018362D01*
X019157Y018362D01*
X019263Y018405D01*
X019345Y018487D01*
X019388Y018593D01*
X019388Y018707D01*
X019345Y018813D01*
X019263Y018895D01*
X019157Y018938D01*
X019052Y018938D01*
X018970Y019020D01*
X017830Y019020D01*
X017730Y018920D01*
X015630Y016820D01*
X011183Y016820D01*
X010513Y016150D01*
X009100Y016150D01*
X009100Y018528D01*
X009473Y018901D01*
X009540Y019062D01*
X009540Y020738D01*
X009473Y020899D01*
X009349Y021023D01*
X008740Y021632D01*
X008740Y023393D01*
X009409Y024210D01*
X025020Y024210D01*
X024930Y024120D01*
X024830Y024020D01*
X021638Y024020D01*
X021563Y024095D01*
X021457Y024138D01*
X021343Y024138D01*
X021237Y024095D01*
X021155Y024013D01*
X021112Y023907D01*
X021112Y023793D01*
X021155Y023687D01*
X021202Y023640D01*
X018262Y023640D01*
X018247Y023645D01*
X018185Y023640D01*
X018122Y023640D01*
X018108Y023634D01*
X018093Y023633D01*
X018037Y023605D01*
X017979Y023581D01*
X017968Y023570D01*
X017954Y023563D01*
X017914Y023515D01*
X017869Y023471D01*
X017863Y023457D01*
X017314Y022815D01*
X017210Y022712D01*
X017210Y022612D01*
X017205Y022597D01*
X017210Y022535D01*
X017210Y022388D01*
X017280Y022318D01*
X017287Y022304D01*
X017335Y022264D01*
X017438Y022160D01*
X017538Y022160D01*
X017553Y022155D01*
X017615Y022160D01*
X017762Y022160D01*
X017832Y022230D01*
X017846Y022237D01*
X017886Y022285D01*
X017990Y022388D01*
X017990Y022406D01*
X018379Y022860D01*
X020810Y022860D01*
X020810Y019972D01*
X020869Y019829D01*
X021055Y019643D01*
X020424Y019013D01*
X020337Y018926D01*
X020290Y018812D01*
X020290Y017391D01*
X020210Y017311D01*
X020140Y017141D01*
X020140Y016958D01*
X020149Y016937D01*
X019352Y016140D01*
X019238Y016140D01*
X019010Y015912D01*
X019010Y015588D01*
X019238Y015360D01*
X019562Y015360D01*
X019790Y015588D01*
X019790Y015702D01*
X020678Y016590D01*
X020691Y016590D01*
X020861Y016660D01*
X020990Y016789D01*
X021060Y016958D01*
X021060Y017141D01*
X020990Y017311D01*
X020910Y017391D01*
X020910Y018622D01*
X021648Y019360D01*
X021662Y019360D01*
X021721Y019419D01*
X021831Y019529D01*
X021890Y019588D01*
X021890Y019912D01*
X021831Y019971D01*
X021590Y020212D01*
X021590Y022838D01*
X021651Y022777D01*
X021812Y022710D01*
X022502Y022710D01*
X022622Y022660D01*
X022778Y022660D01*
X022898Y022710D01*
X023389Y022710D01*
X023409Y022690D01*
X023688Y022690D01*
X024558Y021820D01*
X023038Y021820D01*
X022963Y021895D01*
X022857Y021938D01*
X022743Y021938D01*
X022637Y021895D01*
X022555Y021813D01*
X022512Y021707D01*
X022512Y021593D01*
X022555Y021487D01*
X022637Y021405D01*
X022743Y021362D01*
X022857Y021362D01*
X022963Y021405D01*
X023038Y021480D01*
X023279Y021480D01*
X023140Y021341D01*
X023140Y021320D01*
X022633Y021320D01*
X022595Y021413D01*
X022513Y021495D01*
X022407Y021538D01*
X022293Y021538D01*
X022187Y021495D01*
X022105Y021413D01*
X022062Y021307D01*
X022062Y021193D01*
X022105Y021087D01*
X022187Y021005D01*
X022293Y020962D01*
X022407Y020962D01*
X022452Y020980D01*
X023140Y020980D01*
X023140Y020959D01*
X023305Y020795D01*
X023230Y020720D01*
X023130Y020620D01*
X022738Y020620D01*
X022663Y020695D01*
X022557Y020738D01*
X022443Y020738D01*
X022337Y020695D01*
X022255Y020613D01*
X022212Y020507D01*
X022212Y020393D01*
X022255Y020287D01*
X022337Y020205D01*
X022443Y020162D01*
X022557Y020162D01*
X022663Y020205D01*
X022738Y020280D01*
X023140Y020280D01*
X023140Y019959D01*
X023409Y019690D01*
X023791Y019690D01*
X024060Y019959D01*
X024060Y020341D01*
X023921Y020480D01*
X024370Y020480D01*
X024752Y020862D01*
X024857Y020862D01*
X024963Y020905D01*
X025045Y020987D01*
X025088Y021093D01*
X025088Y021207D01*
X025056Y021286D01*
X025137Y021205D01*
X025243Y021162D01*
X025357Y021162D01*
X025463Y021205D01*
X025545Y021287D01*
X025588Y021393D01*
X025588Y021507D01*
X025545Y021613D01*
X025463Y021695D01*
X025426Y021710D01*
X025668Y021710D01*
X028427Y018951D01*
X028427Y018951D01*
X028551Y018827D01*
X028712Y018760D01*
X036538Y018760D01*
X036699Y018827D01*
X037582Y019710D01*
X038188Y019710D01*
X038349Y019777D01*
X038473Y019901D01*
X038540Y020062D01*
X038540Y020238D01*
X038473Y020399D01*
X038349Y020523D01*
X038188Y020590D01*
X037312Y020590D01*
X037151Y020523D01*
X037027Y020399D01*
X036268Y019640D01*
X028982Y019640D01*
X026223Y022399D01*
X026123Y022499D01*
X026327Y022583D01*
X026539Y022795D01*
X026654Y023073D01*
X026654Y023373D01*
X026539Y023651D01*
X026327Y023863D01*
X026287Y023880D01*
X033230Y023880D01*
X034730Y022380D01*
X034830Y022280D01*
X036820Y022280D01*
X037318Y022777D01*
X037355Y022687D01*
X037437Y022605D01*
X037450Y022600D01*
X037437Y022595D01*
X037355Y022513D01*
X037312Y022407D01*
X037312Y022293D01*
X037355Y022187D01*
X037437Y022105D01*
X037450Y022100D01*
X037437Y022095D01*
X037355Y022013D01*
X037312Y021907D01*
X037312Y021793D01*
X037355Y021687D01*
X037437Y021605D01*
X037543Y021562D01*
X037657Y021562D01*
X037763Y021605D01*
X037838Y021680D01*
X045722Y021680D01*
X045655Y021613D01*
X045612Y021507D01*
X045612Y021420D01*
X044638Y021420D01*
X044563Y021495D01*
X044457Y021538D01*
X044343Y021538D01*
X044237Y021495D01*
X044155Y021413D01*
X044112Y021307D01*
X044112Y021193D01*
X044155Y021087D01*
X044237Y021005D01*
X044343Y020962D01*
X044457Y020962D01*
X044563Y021005D01*
X044638Y021080D01*
X045770Y021080D01*
X045852Y021162D01*
X045957Y021162D01*
X046063Y021205D01*
X046145Y021287D01*
X046188Y021393D01*
X046188Y021507D01*
X046145Y021613D01*
X046078Y021680D01*
X046130Y021680D01*
X046730Y021080D01*
X046830Y020980D01*
X048670Y020980D01*
X048933Y021243D01*
X049012Y021210D01*
X049188Y021210D01*
X049349Y021277D01*
X049473Y021401D01*
X049540Y021562D01*
X049650Y021562D01*
X049650Y021464D02*
X049499Y021464D01*
X049540Y021562D02*
X049540Y021738D01*
X049473Y021899D01*
X049349Y022023D01*
X049188Y022090D01*
X049012Y022090D01*
X048851Y022023D01*
X048727Y021899D01*
X048660Y021738D01*
X048660Y021562D01*
X046728Y021562D01*
X046630Y021661D02*
X048660Y021661D01*
X048669Y021759D02*
X046531Y021759D01*
X046433Y021858D02*
X048710Y021858D01*
X048784Y021956D02*
X046334Y021956D01*
X046310Y021980D02*
X048670Y021980D01*
X048770Y022080D01*
X048933Y022243D01*
X049012Y022210D01*
X049188Y022210D01*
X049349Y022277D01*
X049473Y022401D01*
X049540Y022562D01*
X049540Y022738D01*
X049473Y022899D01*
X049349Y023023D01*
X049188Y023090D01*
X049012Y023090D01*
X048851Y023023D01*
X048727Y022899D01*
X048660Y022738D01*
X048660Y022562D01*
X048693Y022483D01*
X048530Y022320D01*
X048427Y022320D01*
X048494Y022387D01*
X048564Y022558D01*
X048564Y022742D01*
X048494Y022913D01*
X048363Y023044D01*
X048192Y023114D01*
X048008Y023114D01*
X047915Y023076D01*
X047670Y023320D01*
X047427Y023320D01*
X047494Y023387D01*
X047564Y023558D01*
X047564Y023742D01*
X047494Y023913D01*
X047363Y024044D01*
X047192Y024114D01*
X047008Y024114D01*
X046837Y024044D01*
X046706Y023913D01*
X046636Y023742D01*
X046636Y023558D01*
X046706Y023387D01*
X046801Y023292D01*
X046730Y023220D01*
X046030Y022520D01*
X045978Y022520D01*
X046045Y022587D01*
X046088Y022693D01*
X046088Y022807D01*
X046045Y022913D01*
X045963Y022995D01*
X045857Y023038D01*
X045752Y023038D01*
X045670Y023120D01*
X038470Y023120D01*
X037870Y023720D01*
X037430Y023720D01*
X037330Y023620D01*
X037284Y023574D01*
X037263Y023595D01*
X037157Y023638D01*
X037043Y023638D01*
X036937Y023595D01*
X036855Y023513D01*
X036812Y023407D01*
X036812Y023293D01*
X036855Y023187D01*
X036937Y023105D01*
X037043Y023062D01*
X037121Y023062D01*
X036680Y022620D01*
X035915Y022620D01*
X036091Y022795D01*
X036206Y023073D01*
X036206Y023373D01*
X036091Y023651D01*
X035878Y023863D01*
X035601Y023978D01*
X035300Y023978D01*
X035023Y023863D01*
X034810Y023651D01*
X034695Y023373D01*
X034695Y023073D01*
X034810Y022795D01*
X034986Y022620D01*
X034970Y022620D01*
X033380Y024210D01*
X036347Y024210D01*
X036380Y024202D01*
X036434Y024210D01*
X036488Y024210D01*
X036519Y024223D01*
X036553Y024228D01*
X036599Y024256D01*
X036649Y024277D01*
X036674Y024301D01*
X036703Y024319D01*
X036735Y024363D01*
X036773Y024401D01*
X036786Y024433D01*
X037723Y025710D01*
X038288Y025710D01*
X038449Y025777D01*
X038573Y025901D01*
X038640Y026062D01*
X038640Y026238D01*
X038573Y026399D01*
X038449Y026523D01*
X038288Y026590D01*
X037553Y026590D01*
X037520Y026598D01*
X037466Y026590D01*
X037412Y026590D01*
X037381Y026577D01*
X037347Y026572D01*
X037301Y026544D01*
X037251Y026523D01*
X037226Y026499D01*
X037197Y026481D01*
X037165Y026437D01*
X037127Y026399D01*
X037114Y026367D01*
X036177Y025090D01*
X009265Y025090D01*
X009243Y025097D01*
X009178Y025090D01*
X009112Y025090D01*
X009092Y025081D01*
X009069Y025079D01*
X009011Y025048D01*
X008951Y025023D01*
X008935Y025007D01*
X008915Y024996D01*
X008873Y024946D01*
X008827Y024899D01*
X008818Y024878D01*
X008350Y024306D01*
X008350Y027700D01*
X049650Y027700D01*
X049650Y003100D01*
X015100Y003100D01*
X015100Y013169D01*
X015219Y013288D02*
X017730Y013288D01*
X017730Y013387D02*
X015317Y013387D01*
X015416Y013485D02*
X017730Y013485D01*
X017730Y013584D02*
X015514Y013584D01*
X015613Y013682D02*
X017730Y013682D01*
X017697Y013781D02*
X015711Y013781D01*
X015810Y013879D02*
X017563Y013879D01*
X017518Y013978D02*
X015908Y013978D01*
X016007Y014076D02*
X017512Y014076D01*
X017539Y014175D02*
X016105Y014175D01*
X016204Y014273D02*
X017615Y014273D01*
X017630Y014372D02*
X016302Y014372D01*
X016401Y014470D02*
X017630Y014470D01*
X017630Y014569D02*
X016499Y014569D01*
X016598Y014667D02*
X017630Y014667D01*
X017630Y014766D02*
X016696Y014766D01*
X016795Y014864D02*
X017630Y014864D01*
X017624Y014963D02*
X016893Y014963D01*
X016992Y015061D02*
X017612Y015061D01*
X017633Y015160D02*
X017090Y015160D01*
X017189Y015258D02*
X017700Y015258D01*
X017484Y015554D02*
X019045Y015554D01*
X019010Y015652D02*
X017583Y015652D01*
X017681Y015751D02*
X019010Y015751D01*
X019010Y015849D02*
X017780Y015849D01*
X017878Y015948D02*
X019046Y015948D01*
X019144Y016046D02*
X017977Y016046D01*
X018075Y016145D02*
X019356Y016145D01*
X019455Y016243D02*
X019001Y016243D01*
X019067Y016342D02*
X019553Y016342D01*
X019652Y016440D02*
X019088Y016440D01*
X019076Y016539D02*
X019750Y016539D01*
X019849Y016637D02*
X019021Y016637D01*
X019043Y016736D02*
X019947Y016736D01*
X020046Y016834D02*
X019085Y016834D01*
X019088Y016933D02*
X020144Y016933D01*
X020140Y017031D02*
X019058Y017031D01*
X018978Y017130D02*
X020140Y017130D01*
X020176Y017228D02*
X016918Y017228D01*
X016820Y017130D02*
X018622Y017130D01*
X018191Y017031D02*
X016721Y017031D01*
X016623Y016933D02*
X018092Y016933D01*
X017993Y016834D02*
X016524Y016834D01*
X016426Y016736D02*
X017894Y016736D01*
X017795Y016637D02*
X016327Y016637D01*
X016229Y016539D02*
X017696Y016539D01*
X017597Y016440D02*
X016130Y016440D01*
X016032Y016342D02*
X017498Y016342D01*
X017399Y016243D02*
X015933Y016243D01*
X015644Y016834D02*
X009100Y016834D01*
X009100Y016736D02*
X011099Y016736D01*
X011000Y016637D02*
X009100Y016637D01*
X009100Y016539D02*
X010902Y016539D01*
X010803Y016440D02*
X009100Y016440D01*
X009100Y016342D02*
X010705Y016342D01*
X010606Y016243D02*
X009100Y016243D01*
X009100Y016933D02*
X015742Y016933D01*
X015841Y017031D02*
X009100Y017031D01*
X009100Y017130D02*
X015939Y017130D01*
X016038Y017228D02*
X009100Y017228D01*
X009100Y017327D02*
X016136Y017327D01*
X016235Y017425D02*
X009100Y017425D01*
X009100Y017524D02*
X016333Y017524D01*
X016432Y017622D02*
X009100Y017622D01*
X009100Y017721D02*
X016530Y017721D01*
X016629Y017819D02*
X009100Y017819D01*
X009100Y017918D02*
X015281Y017918D01*
X015338Y017860D02*
X015110Y018088D01*
X015110Y018412D01*
X015338Y018640D01*
X015662Y018640D01*
X015890Y018412D01*
X015890Y018088D01*
X015662Y017860D01*
X015338Y017860D01*
X015182Y018016D02*
X009100Y018016D01*
X009100Y018115D02*
X015110Y018115D01*
X015110Y018213D02*
X009100Y018213D01*
X009100Y018312D02*
X015110Y018312D01*
X015110Y018410D02*
X009100Y018410D01*
X009100Y018509D02*
X015207Y018509D01*
X015305Y018607D02*
X009179Y018607D01*
X009278Y018706D02*
X017515Y018706D01*
X017614Y018804D02*
X009376Y018804D01*
X009474Y018903D02*
X017712Y018903D01*
X017811Y019001D02*
X009515Y019001D01*
X009540Y019100D02*
X020511Y019100D01*
X020610Y019198D02*
X009540Y019198D01*
X009540Y019297D02*
X011402Y019297D01*
X011438Y019260D02*
X011762Y019260D01*
X011990Y019488D01*
X011990Y019812D01*
X011762Y020040D01*
X011438Y020040D01*
X011210Y019812D01*
X011210Y019488D01*
X011438Y019260D01*
X011303Y019395D02*
X009540Y019395D01*
X009540Y019494D02*
X011210Y019494D01*
X011210Y019592D02*
X009540Y019592D01*
X009540Y019691D02*
X011210Y019691D01*
X011210Y019789D02*
X009540Y019789D01*
X009540Y019888D02*
X011286Y019888D01*
X011385Y019986D02*
X009540Y019986D01*
X009540Y020085D02*
X018458Y020085D01*
X018455Y020087D02*
X018537Y020005D01*
X018643Y019962D01*
X018757Y019962D01*
X018863Y020005D01*
X018945Y020087D01*
X018988Y020193D01*
X018988Y020307D01*
X018945Y020413D01*
X018863Y020495D01*
X018757Y020538D01*
X018643Y020538D01*
X018639Y020537D01*
X018066Y021110D01*
X016332Y021110D01*
X016290Y021211D01*
X016161Y021340D01*
X015991Y021410D01*
X015808Y021410D01*
X015639Y021340D01*
X015510Y021211D01*
X015440Y021041D01*
X015440Y020858D01*
X015510Y020689D01*
X015639Y020560D01*
X015808Y020490D01*
X015991Y020490D01*
X016161Y020560D01*
X016290Y020689D01*
X016332Y020790D01*
X017934Y020790D01*
X018413Y020311D01*
X018412Y020307D01*
X018412Y020193D01*
X018455Y020087D01*
X018416Y020183D02*
X009540Y020183D01*
X009540Y020282D02*
X018412Y020282D01*
X018344Y020380D02*
X009540Y020380D01*
X009540Y020479D02*
X018245Y020479D01*
X018147Y020577D02*
X016178Y020577D01*
X016276Y020676D02*
X018048Y020676D01*
X017950Y020774D02*
X016325Y020774D01*
X016308Y021168D02*
X018374Y021168D01*
X018355Y021187D02*
X018437Y021105D01*
X018543Y021062D01*
X018657Y021062D01*
X018763Y021105D01*
X018845Y021187D01*
X018888Y021293D01*
X018888Y021407D01*
X018845Y021513D01*
X018763Y021595D01*
X018657Y021638D01*
X018543Y021638D01*
X018539Y021637D01*
X018066Y022110D01*
X016332Y022110D01*
X016290Y022211D01*
X016161Y022340D01*
X015991Y022410D01*
X015808Y022410D01*
X015639Y022340D01*
X015510Y022211D01*
X015440Y022041D01*
X015440Y021858D01*
X015510Y021689D01*
X015639Y021560D01*
X015808Y021490D01*
X015991Y021490D01*
X016161Y021560D01*
X016290Y021689D01*
X016332Y021790D01*
X017934Y021790D01*
X018313Y021411D01*
X018312Y021407D01*
X018312Y021293D01*
X018355Y021187D01*
X018322Y021267D02*
X016234Y021267D01*
X016100Y021365D02*
X018312Y021365D01*
X018260Y021464D02*
X008909Y021464D01*
X008810Y021562D02*
X015637Y021562D01*
X015539Y021661D02*
X008740Y021661D01*
X008740Y021759D02*
X015481Y021759D01*
X015440Y021858D02*
X008740Y021858D01*
X008740Y021956D02*
X015440Y021956D01*
X015445Y022055D02*
X008740Y022055D01*
X008740Y022153D02*
X015486Y022153D01*
X015551Y022252D02*
X008740Y022252D01*
X008740Y022350D02*
X015664Y022350D01*
X015900Y021950D02*
X018000Y021950D01*
X018600Y021350D01*
X018865Y021464D02*
X020810Y021464D01*
X020810Y021562D02*
X018796Y021562D01*
X018888Y021365D02*
X020810Y021365D01*
X020810Y021267D02*
X018878Y021267D01*
X018826Y021168D02*
X020810Y021168D01*
X020810Y021070D02*
X018677Y021070D01*
X018523Y021070D02*
X018107Y021070D01*
X018205Y020971D02*
X020810Y020971D01*
X020810Y020873D02*
X018304Y020873D01*
X018402Y020774D02*
X020810Y020774D01*
X020810Y020676D02*
X018501Y020676D01*
X018599Y020577D02*
X020810Y020577D01*
X020810Y020479D02*
X018879Y020479D01*
X018958Y020380D02*
X020810Y020380D01*
X020810Y020282D02*
X018988Y020282D01*
X018984Y020183D02*
X020810Y020183D01*
X020810Y020085D02*
X018942Y020085D01*
X018816Y019986D02*
X020810Y019986D01*
X020845Y019888D02*
X011914Y019888D01*
X011990Y019789D02*
X020909Y019789D01*
X021008Y019691D02*
X011990Y019691D01*
X011990Y019592D02*
X021004Y019592D01*
X020905Y019494D02*
X011990Y019494D01*
X011897Y019395D02*
X020807Y019395D01*
X020708Y019297D02*
X011798Y019297D01*
X011815Y019986D02*
X018584Y019986D01*
X018700Y020250D02*
X018000Y020950D01*
X015900Y020950D01*
X015475Y020774D02*
X009525Y020774D01*
X009540Y020676D02*
X015524Y020676D01*
X015622Y020577D02*
X009540Y020577D01*
X009484Y020873D02*
X015440Y020873D01*
X015440Y020971D02*
X009401Y020971D01*
X009303Y021070D02*
X015452Y021070D01*
X015492Y021168D02*
X009204Y021168D01*
X009106Y021267D02*
X015566Y021267D01*
X015700Y021365D02*
X009007Y021365D01*
X008740Y022449D02*
X017210Y022449D01*
X017209Y022547D02*
X008740Y022547D01*
X008740Y022646D02*
X017210Y022646D01*
X017243Y022744D02*
X008740Y022744D01*
X008740Y022843D02*
X017337Y022843D01*
X017422Y022941D02*
X008740Y022941D01*
X008740Y023040D02*
X017506Y023040D01*
X017590Y023138D02*
X008740Y023138D01*
X008740Y023237D02*
X017675Y023237D01*
X017759Y023335D02*
X011837Y023335D01*
X011762Y023260D02*
X011990Y023488D01*
X011990Y023812D01*
X011762Y024040D01*
X011438Y024040D01*
X011210Y023812D01*
X011210Y023488D01*
X011438Y023260D01*
X011762Y023260D01*
X011935Y023434D02*
X017844Y023434D01*
X017928Y023532D02*
X011990Y023532D01*
X011990Y023631D02*
X018088Y023631D01*
X018364Y022843D02*
X020810Y022843D01*
X020810Y022744D02*
X018280Y022744D01*
X018196Y022646D02*
X020810Y022646D01*
X020810Y022547D02*
X018111Y022547D01*
X018027Y022449D02*
X020810Y022449D01*
X020810Y022350D02*
X017952Y022350D01*
X017858Y022252D02*
X020810Y022252D01*
X020810Y022153D02*
X016314Y022153D01*
X016249Y022252D02*
X017347Y022252D01*
X017248Y022350D02*
X016136Y022350D01*
X016319Y021759D02*
X017965Y021759D01*
X018063Y021661D02*
X016261Y021661D01*
X016163Y021562D02*
X018162Y021562D01*
X018417Y021759D02*
X020810Y021759D01*
X020810Y021661D02*
X018516Y021661D01*
X018319Y021858D02*
X020810Y021858D01*
X020810Y021956D02*
X018220Y021956D01*
X018122Y022055D02*
X020810Y022055D01*
X021590Y022055D02*
X024323Y022055D01*
X024225Y022153D02*
X021590Y022153D01*
X021590Y022252D02*
X024126Y022252D01*
X024028Y022350D02*
X021590Y022350D01*
X021590Y022449D02*
X023929Y022449D01*
X023831Y022547D02*
X021590Y022547D01*
X021590Y022646D02*
X023732Y022646D01*
X024422Y021956D02*
X021590Y021956D01*
X021590Y021858D02*
X022600Y021858D01*
X022533Y021759D02*
X021590Y021759D01*
X021590Y021661D02*
X022512Y021661D01*
X022524Y021562D02*
X021590Y021562D01*
X021590Y021464D02*
X022156Y021464D01*
X022085Y021365D02*
X021590Y021365D01*
X021590Y021267D02*
X022062Y021267D01*
X022072Y021168D02*
X021590Y021168D01*
X021590Y021070D02*
X021712Y021070D01*
X021737Y021095D02*
X021655Y021013D01*
X021612Y020907D01*
X021612Y020793D01*
X021655Y020687D01*
X021730Y020612D01*
X021730Y020180D01*
X022830Y019080D01*
X022930Y018980D01*
X023140Y018980D01*
X023140Y018959D01*
X023409Y018690D01*
X023791Y018690D01*
X024060Y018959D01*
X024060Y019341D01*
X023791Y019610D01*
X023409Y019610D01*
X023140Y019341D01*
X023140Y019320D01*
X023070Y019320D01*
X022070Y020320D01*
X022070Y020612D01*
X022145Y020687D01*
X022188Y020793D01*
X022188Y020907D01*
X022145Y021013D01*
X022063Y021095D01*
X021957Y021138D01*
X021843Y021138D01*
X021737Y021095D01*
X021638Y020971D02*
X021590Y020971D01*
X021590Y020873D02*
X021612Y020873D01*
X021619Y020774D02*
X021590Y020774D01*
X021590Y020676D02*
X021667Y020676D01*
X021730Y020577D02*
X021590Y020577D01*
X021590Y020479D02*
X021730Y020479D01*
X021730Y020380D02*
X021590Y020380D01*
X021590Y020282D02*
X021730Y020282D01*
X021730Y020183D02*
X021618Y020183D01*
X021717Y020085D02*
X021825Y020085D01*
X021815Y019986D02*
X021924Y019986D01*
X021831Y019971D02*
X021831Y019971D01*
X021890Y019888D02*
X022022Y019888D01*
X022121Y019789D02*
X021890Y019789D01*
X021890Y019691D02*
X022219Y019691D01*
X022318Y019592D02*
X021890Y019592D01*
X021831Y019529D02*
X021831Y019529D01*
X021795Y019494D02*
X022416Y019494D01*
X022515Y019395D02*
X021697Y019395D01*
X021721Y019419D02*
X021721Y019419D01*
X021585Y019297D02*
X022613Y019297D01*
X022712Y019198D02*
X021486Y019198D01*
X021388Y019100D02*
X022810Y019100D01*
X022909Y019001D02*
X021289Y019001D01*
X021191Y018903D02*
X023197Y018903D01*
X023295Y018804D02*
X021092Y018804D01*
X020994Y018706D02*
X023394Y018706D01*
X023409Y018610D02*
X023140Y018341D01*
X023140Y017959D01*
X023409Y017690D01*
X023791Y017690D01*
X024060Y017959D01*
X024060Y018341D01*
X023791Y018610D01*
X023409Y018610D01*
X023407Y018607D02*
X020910Y018607D01*
X020910Y018509D02*
X023308Y018509D01*
X023210Y018410D02*
X020910Y018410D01*
X020910Y018312D02*
X023140Y018312D01*
X023140Y018213D02*
X020910Y018213D01*
X020910Y018115D02*
X023140Y018115D01*
X023140Y018016D02*
X020910Y018016D01*
X020910Y017918D02*
X023182Y017918D01*
X023280Y017819D02*
X020910Y017819D01*
X020910Y017721D02*
X023379Y017721D01*
X023323Y017524D02*
X020910Y017524D01*
X020910Y017622D02*
X041910Y017622D01*
X041910Y017712D02*
X041910Y017388D01*
X042138Y017160D01*
X042462Y017160D01*
X042690Y017388D01*
X042690Y017712D01*
X042462Y017940D01*
X042138Y017940D01*
X041910Y017712D01*
X041919Y017721D02*
X023821Y017721D01*
X023920Y017819D02*
X042017Y017819D01*
X042116Y017918D02*
X024018Y017918D01*
X024060Y018016D02*
X049650Y018016D01*
X049650Y017918D02*
X042484Y017918D01*
X042583Y017819D02*
X049650Y017819D01*
X049650Y017721D02*
X042681Y017721D01*
X042690Y017622D02*
X049650Y017622D01*
X049650Y017524D02*
X042690Y017524D01*
X042690Y017425D02*
X049650Y017425D01*
X049650Y017327D02*
X042628Y017327D01*
X042530Y017228D02*
X049650Y017228D01*
X049650Y017130D02*
X030561Y017130D01*
X030462Y017228D02*
X042070Y017228D01*
X041972Y017327D02*
X024060Y017327D01*
X023975Y017425D02*
X041910Y017425D01*
X041910Y017524D02*
X023877Y017524D01*
X023224Y017425D02*
X020910Y017425D01*
X020974Y017327D02*
X023140Y017327D01*
X023140Y017228D02*
X021024Y017228D01*
X021060Y017130D02*
X023140Y017130D01*
X023140Y017031D02*
X021060Y017031D01*
X021049Y016933D02*
X023142Y016933D01*
X023044Y016834D02*
X021008Y016834D01*
X020936Y016736D02*
X022945Y016736D01*
X022847Y016637D02*
X020805Y016637D01*
X020627Y016539D02*
X022748Y016539D01*
X022650Y016440D02*
X020528Y016440D01*
X020430Y016342D02*
X022551Y016342D01*
X022453Y016243D02*
X020331Y016243D01*
X020233Y016145D02*
X022354Y016145D01*
X022256Y016046D02*
X020134Y016046D01*
X020036Y015948D02*
X022157Y015948D01*
X022059Y015849D02*
X019937Y015849D01*
X019839Y015751D02*
X021960Y015751D01*
X021862Y015652D02*
X019790Y015652D01*
X019755Y015554D02*
X021763Y015554D01*
X021665Y015455D02*
X019657Y015455D01*
X019143Y015455D02*
X017386Y015455D01*
X017287Y015357D02*
X018299Y015357D01*
X018233Y015258D02*
X018100Y015258D01*
X018167Y015160D02*
X018212Y015160D01*
X018701Y015357D02*
X021566Y015357D01*
X021468Y015258D02*
X018767Y015258D01*
X018788Y015160D02*
X021369Y015160D01*
X021330Y015061D02*
X018829Y015061D01*
X018928Y014963D02*
X021330Y014963D01*
X021412Y014569D02*
X020859Y014569D01*
X020788Y014470D02*
X021421Y014470D01*
X021471Y014372D02*
X020862Y014372D01*
X020888Y014273D02*
X021615Y014273D01*
X021684Y014175D02*
X020881Y014175D01*
X020834Y014076D02*
X021586Y014076D01*
X021487Y013978D02*
X020696Y013978D01*
X020504Y013978D02*
X020385Y013978D01*
X020250Y013879D02*
X021389Y013879D01*
X021290Y013781D02*
X018271Y013781D01*
X018369Y013879D02*
X020050Y013879D01*
X019915Y013978D02*
X018370Y013978D01*
X018370Y014076D02*
X019334Y014076D01*
X019235Y014175D02*
X018370Y014175D01*
X018370Y014273D02*
X019137Y014273D01*
X019038Y014372D02*
X018370Y014372D01*
X018370Y014470D02*
X018940Y014470D01*
X018841Y014569D02*
X018370Y014569D01*
X018370Y014667D02*
X018743Y014667D01*
X018644Y014766D02*
X018370Y014766D01*
X019026Y014864D02*
X020674Y014864D01*
X020575Y014766D02*
X019125Y014766D01*
X019223Y014667D02*
X020477Y014667D01*
X020430Y014569D02*
X019322Y014569D01*
X019420Y014470D02*
X020412Y014470D01*
X020338Y014372D02*
X020336Y014372D01*
X019964Y014372D02*
X019519Y014372D01*
X018172Y013682D02*
X021192Y013682D01*
X021093Y013584D02*
X018074Y013584D01*
X018070Y013485D02*
X020995Y013485D01*
X020896Y013387D02*
X018070Y013387D01*
X018070Y013288D02*
X020798Y013288D01*
X020699Y013190D02*
X018070Y013190D01*
X018154Y013091D02*
X020601Y013091D01*
X020502Y012993D02*
X019865Y012993D01*
X019535Y012993D02*
X018188Y012993D01*
X018188Y012894D02*
X019447Y012894D01*
X019412Y012796D02*
X018148Y012796D01*
X018043Y012697D02*
X019412Y012697D01*
X020589Y012599D02*
X022710Y012599D01*
X022795Y012697D02*
X020687Y012697D01*
X020786Y012796D02*
X022894Y012796D01*
X023306Y012796D02*
X042480Y012796D01*
X042480Y012803D02*
X042480Y012497D01*
X042697Y012280D01*
X043003Y012280D01*
X043220Y012497D01*
X043220Y012803D01*
X043003Y013020D01*
X042697Y013020D01*
X042480Y012803D01*
X042480Y012697D02*
X026291Y012697D01*
X026390Y012599D02*
X042480Y012599D01*
X042480Y012500D02*
X026488Y012500D01*
X026587Y012402D02*
X042575Y012402D01*
X042674Y012303D02*
X026685Y012303D01*
X026784Y012205D02*
X048293Y012205D01*
X048311Y012186D02*
X048499Y012109D01*
X048701Y012109D01*
X048889Y012186D01*
X049032Y012330D01*
X049110Y012517D01*
X049110Y012720D01*
X049032Y012907D01*
X048889Y013051D01*
X048701Y013129D01*
X048499Y013129D01*
X048311Y013051D01*
X048168Y012907D01*
X048090Y012720D01*
X048090Y012517D01*
X048168Y012330D01*
X048311Y012186D01*
X048194Y012303D02*
X046133Y012303D01*
X046132Y012302D02*
X046248Y012418D01*
X046310Y012568D01*
X046310Y012732D01*
X046248Y012882D01*
X046132Y012998D01*
X045982Y013060D01*
X045218Y013060D01*
X045068Y012998D01*
X044952Y012882D01*
X044890Y012732D01*
X044890Y012568D01*
X044952Y012418D01*
X045068Y012302D01*
X045218Y012240D01*
X045982Y012240D01*
X046132Y012302D01*
X046231Y012402D02*
X048138Y012402D01*
X048097Y012500D02*
X046282Y012500D01*
X046310Y012599D02*
X048090Y012599D01*
X048090Y012697D02*
X046310Y012697D01*
X046284Y012796D02*
X048121Y012796D01*
X048162Y012894D02*
X046236Y012894D01*
X046137Y012993D02*
X048253Y012993D01*
X048408Y013091D02*
X043970Y013091D01*
X043970Y012997D02*
X043970Y013303D01*
X043753Y013520D01*
X043447Y013520D01*
X043230Y013303D01*
X043230Y012997D01*
X043447Y012780D01*
X043753Y012780D01*
X043970Y012997D01*
X043966Y012993D02*
X045063Y012993D01*
X044964Y012894D02*
X043867Y012894D01*
X043769Y012796D02*
X044916Y012796D01*
X044890Y012697D02*
X043220Y012697D01*
X043220Y012599D02*
X044890Y012599D01*
X044918Y012500D02*
X043220Y012500D01*
X043125Y012402D02*
X044969Y012402D01*
X045067Y012303D02*
X043026Y012303D01*
X043220Y012796D02*
X043431Y012796D01*
X043333Y012894D02*
X043129Y012894D01*
X043031Y012993D02*
X043234Y012993D01*
X043230Y013091D02*
X021081Y013091D01*
X020983Y012993D02*
X042669Y012993D01*
X042571Y012894D02*
X020884Y012894D01*
X021180Y013190D02*
X043230Y013190D01*
X043230Y013288D02*
X021278Y013288D01*
X021377Y013387D02*
X027782Y013387D01*
X027657Y013485D02*
X021475Y013485D01*
X021574Y013584D02*
X027615Y013584D01*
X027612Y013682D02*
X021672Y013682D01*
X021771Y013781D02*
X027529Y013781D01*
X027431Y013879D02*
X021869Y013879D01*
X021968Y013978D02*
X027332Y013978D01*
X027234Y014076D02*
X022066Y014076D01*
X022165Y014175D02*
X027135Y014175D01*
X027037Y014273D02*
X022263Y014273D01*
X022362Y014372D02*
X026938Y014372D01*
X026840Y014470D02*
X022460Y014470D01*
X022470Y014569D02*
X026741Y014569D01*
X026643Y014667D02*
X022470Y014667D01*
X022470Y014766D02*
X026544Y014766D01*
X026446Y014864D02*
X022470Y014864D01*
X022470Y014963D02*
X026347Y014963D01*
X026249Y015061D02*
X022470Y015061D01*
X022517Y015160D02*
X026150Y015160D01*
X026052Y015258D02*
X022574Y015258D01*
X022588Y015357D02*
X025953Y015357D01*
X025855Y015455D02*
X022569Y015455D01*
X022504Y015554D02*
X023156Y015554D01*
X023058Y015652D02*
X023010Y015652D01*
X023012Y016046D02*
X023140Y016046D01*
X023140Y016145D02*
X022835Y016145D01*
X022933Y016243D02*
X023140Y016243D01*
X023141Y016342D02*
X023032Y016342D01*
X023130Y016440D02*
X023239Y016440D01*
X023229Y016539D02*
X023338Y016539D01*
X023327Y016637D02*
X030573Y016637D01*
X030671Y016539D02*
X023862Y016539D01*
X023961Y016440D02*
X030770Y016440D01*
X030868Y016342D02*
X024059Y016342D01*
X024048Y015948D02*
X026362Y015948D01*
X026461Y015849D02*
X023950Y015849D01*
X023836Y016736D02*
X030474Y016736D01*
X030376Y016834D02*
X023935Y016834D01*
X024033Y016933D02*
X030277Y016933D01*
X030659Y017031D02*
X049650Y017031D01*
X049650Y016933D02*
X030758Y016933D01*
X030856Y016834D02*
X049650Y016834D01*
X049650Y016736D02*
X030955Y016736D01*
X031053Y016637D02*
X049650Y016637D01*
X049650Y016539D02*
X031152Y016539D01*
X031250Y016440D02*
X049650Y016440D01*
X049650Y016342D02*
X031349Y016342D01*
X031447Y016243D02*
X049650Y016243D01*
X049650Y016145D02*
X031546Y016145D01*
X031644Y016046D02*
X049650Y016046D01*
X049650Y015948D02*
X031743Y015948D01*
X031841Y015849D02*
X049650Y015849D01*
X049650Y015751D02*
X031940Y015751D01*
X032038Y015652D02*
X049650Y015652D01*
X049650Y015554D02*
X046319Y015554D01*
X046282Y015590D02*
X045918Y015590D01*
X045660Y015332D01*
X045660Y014968D01*
X045918Y014710D01*
X046282Y014710D01*
X046540Y014968D01*
X046540Y015332D01*
X046282Y015590D01*
X046417Y015455D02*
X049650Y015455D01*
X049650Y015357D02*
X046516Y015357D01*
X046540Y015258D02*
X049650Y015258D01*
X049650Y015160D02*
X046540Y015160D01*
X046540Y015061D02*
X049650Y015061D01*
X049650Y014963D02*
X046535Y014963D01*
X046436Y014864D02*
X049650Y014864D01*
X049650Y014766D02*
X046338Y014766D01*
X045862Y014766D02*
X043338Y014766D01*
X043282Y014710D02*
X043540Y014968D01*
X043540Y015332D01*
X043282Y015590D01*
X042918Y015590D01*
X042660Y015332D01*
X042660Y014968D01*
X042918Y014710D01*
X043282Y014710D01*
X043436Y014864D02*
X045764Y014864D01*
X045665Y014963D02*
X043535Y014963D01*
X043540Y015061D02*
X045660Y015061D01*
X045660Y015160D02*
X043540Y015160D01*
X043540Y015258D02*
X045660Y015258D01*
X045684Y015357D02*
X043516Y015357D01*
X043417Y015455D02*
X045783Y015455D01*
X045881Y015554D02*
X043319Y015554D01*
X042881Y015554D02*
X032137Y015554D01*
X032235Y015455D02*
X042783Y015455D01*
X042684Y015357D02*
X032334Y015357D01*
X032432Y015258D02*
X042660Y015258D01*
X042660Y015160D02*
X032531Y015160D01*
X032629Y015061D02*
X042660Y015061D01*
X042665Y014963D02*
X032728Y014963D01*
X032826Y014864D02*
X042764Y014864D01*
X042862Y014766D02*
X032925Y014766D01*
X033023Y014667D02*
X049650Y014667D01*
X049650Y014569D02*
X033122Y014569D01*
X033220Y014470D02*
X049650Y014470D01*
X049650Y014372D02*
X033319Y014372D01*
X033417Y014273D02*
X049650Y014273D01*
X049650Y014175D02*
X033516Y014175D01*
X033614Y014076D02*
X049650Y014076D01*
X049650Y013978D02*
X046152Y013978D01*
X046132Y013998D02*
X045982Y014060D01*
X045218Y014060D01*
X045068Y013998D01*
X044952Y013882D01*
X044890Y013732D01*
X044890Y013568D01*
X044952Y013418D01*
X045068Y013302D01*
X045218Y013240D01*
X045982Y013240D01*
X046132Y013302D01*
X046248Y013418D01*
X046310Y013568D01*
X046310Y013732D01*
X046248Y013882D01*
X046132Y013998D01*
X046249Y013879D02*
X049650Y013879D01*
X049650Y013781D02*
X046290Y013781D01*
X046310Y013682D02*
X049650Y013682D01*
X049650Y013584D02*
X046310Y013584D01*
X046275Y013485D02*
X049650Y013485D01*
X049650Y013387D02*
X046216Y013387D01*
X046097Y013288D02*
X049650Y013288D01*
X049650Y013190D02*
X043970Y013190D01*
X043970Y013288D02*
X045102Y013288D01*
X044984Y013387D02*
X043887Y013387D01*
X043788Y013485D02*
X044925Y013485D01*
X044890Y013584D02*
X034085Y013584D01*
X034088Y013682D02*
X044890Y013682D01*
X044910Y013781D02*
X034058Y013781D01*
X033979Y013879D02*
X044951Y013879D01*
X045048Y013978D02*
X033713Y013978D01*
X033429Y013781D02*
X029158Y013781D01*
X029188Y013682D02*
X033512Y013682D01*
X033515Y013584D02*
X029185Y013584D01*
X029143Y013485D02*
X033557Y013485D01*
X033682Y013387D02*
X029018Y013387D01*
X028782Y013387D02*
X028018Y013387D01*
X028143Y013485D02*
X028657Y013485D01*
X028615Y013584D02*
X028185Y013584D01*
X028188Y013682D02*
X028612Y013682D01*
X028529Y013781D02*
X028158Y013781D01*
X028079Y013879D02*
X028431Y013879D01*
X028332Y013978D02*
X027813Y013978D01*
X027714Y014076D02*
X028234Y014076D01*
X028135Y014175D02*
X027616Y014175D01*
X027517Y014273D02*
X028037Y014273D01*
X027938Y014372D02*
X027419Y014372D01*
X027320Y014470D02*
X027840Y014470D01*
X027741Y014569D02*
X027222Y014569D01*
X027123Y014667D02*
X027643Y014667D01*
X027544Y014766D02*
X027025Y014766D01*
X026926Y014864D02*
X027446Y014864D01*
X027347Y014963D02*
X026828Y014963D01*
X026729Y015061D02*
X027249Y015061D01*
X027150Y015160D02*
X026631Y015160D01*
X026532Y015258D02*
X027052Y015258D01*
X026953Y015357D02*
X026434Y015357D01*
X026335Y015455D02*
X026855Y015455D01*
X026756Y015554D02*
X026237Y015554D01*
X026138Y015652D02*
X026658Y015652D01*
X026559Y015751D02*
X026040Y015751D01*
X026744Y016046D02*
X031164Y016046D01*
X031262Y015948D02*
X026843Y015948D01*
X026941Y015849D02*
X031361Y015849D01*
X031459Y015751D02*
X027040Y015751D01*
X027138Y015652D02*
X031558Y015652D01*
X031656Y015554D02*
X027237Y015554D01*
X027335Y015455D02*
X031755Y015455D01*
X031853Y015357D02*
X027434Y015357D01*
X027532Y015258D02*
X031952Y015258D01*
X032050Y015160D02*
X027631Y015160D01*
X027729Y015061D02*
X032149Y015061D01*
X032247Y014963D02*
X027828Y014963D01*
X027926Y014864D02*
X032346Y014864D01*
X032444Y014766D02*
X028025Y014766D01*
X028123Y014667D02*
X032543Y014667D01*
X032641Y014569D02*
X028222Y014569D01*
X028320Y014470D02*
X032740Y014470D01*
X032838Y014372D02*
X028419Y014372D01*
X028517Y014273D02*
X032937Y014273D01*
X033035Y014175D02*
X028616Y014175D01*
X028714Y014076D02*
X033134Y014076D01*
X033232Y013978D02*
X028813Y013978D01*
X029079Y013879D02*
X033331Y013879D01*
X033918Y013387D02*
X043313Y013387D01*
X043412Y013485D02*
X034043Y013485D01*
X031065Y016145D02*
X026646Y016145D01*
X026547Y016243D02*
X030967Y016243D01*
X028606Y018804D02*
X023905Y018804D01*
X024003Y018903D02*
X028475Y018903D01*
X028377Y019001D02*
X024060Y019001D01*
X024060Y019100D02*
X028278Y019100D01*
X028180Y019198D02*
X024060Y019198D01*
X024060Y019297D02*
X028081Y019297D01*
X027983Y019395D02*
X024005Y019395D01*
X023907Y019494D02*
X027884Y019494D01*
X027786Y019592D02*
X023808Y019592D01*
X023791Y019691D02*
X027687Y019691D01*
X027589Y019789D02*
X023890Y019789D01*
X023988Y019888D02*
X027490Y019888D01*
X027392Y019986D02*
X024060Y019986D01*
X024060Y020085D02*
X027293Y020085D01*
X027195Y020183D02*
X024060Y020183D01*
X024060Y020282D02*
X027096Y020282D01*
X026998Y020380D02*
X024020Y020380D01*
X023922Y020479D02*
X026899Y020479D01*
X026801Y020577D02*
X024467Y020577D01*
X024566Y020676D02*
X026702Y020676D01*
X026604Y020774D02*
X024664Y020774D01*
X024884Y020873D02*
X026505Y020873D01*
X026407Y020971D02*
X025029Y020971D01*
X025079Y021070D02*
X026308Y021070D01*
X026210Y021168D02*
X025373Y021168D01*
X025227Y021168D02*
X025088Y021168D01*
X025076Y021267D02*
X025064Y021267D01*
X025524Y021267D02*
X026111Y021267D01*
X026013Y021365D02*
X025577Y021365D01*
X025588Y021464D02*
X025914Y021464D01*
X025816Y021562D02*
X025566Y021562D01*
X025497Y021661D02*
X025717Y021661D01*
X026371Y022252D02*
X037329Y022252D01*
X037312Y022350D02*
X036890Y022350D01*
X036989Y022449D02*
X037329Y022449D01*
X037389Y022547D02*
X037087Y022547D01*
X037186Y022646D02*
X037397Y022646D01*
X037332Y022744D02*
X037284Y022744D01*
X037001Y022941D02*
X036151Y022941D01*
X036192Y023040D02*
X037099Y023040D01*
X036904Y023138D02*
X036206Y023138D01*
X036206Y023237D02*
X036835Y023237D01*
X036812Y023335D02*
X036206Y023335D01*
X036181Y023434D02*
X036822Y023434D01*
X036874Y023532D02*
X036140Y023532D01*
X036099Y023631D02*
X037024Y023631D01*
X037176Y023631D02*
X037340Y023631D01*
X037960Y023631D02*
X041910Y023631D01*
X041910Y023712D02*
X041910Y023388D01*
X042138Y023160D01*
X042462Y023160D01*
X042690Y023388D01*
X042690Y023712D01*
X042462Y023940D01*
X042138Y023940D01*
X041910Y023712D01*
X041928Y023729D02*
X036012Y023729D01*
X035914Y023828D02*
X042026Y023828D01*
X042125Y023926D02*
X035727Y023926D01*
X035174Y023926D02*
X033664Y023926D01*
X033566Y024025D02*
X046818Y024025D01*
X046719Y023926D02*
X042475Y023926D01*
X042574Y023828D02*
X046671Y023828D01*
X046636Y023729D02*
X042672Y023729D01*
X042690Y023631D02*
X046636Y023631D01*
X046646Y023532D02*
X042690Y023532D01*
X042690Y023434D02*
X046687Y023434D01*
X046758Y023335D02*
X042637Y023335D01*
X042538Y023237D02*
X046746Y023237D01*
X046648Y023138D02*
X038452Y023138D01*
X038354Y023237D02*
X042062Y023237D01*
X041963Y023335D02*
X038255Y023335D01*
X038157Y023434D02*
X041910Y023434D01*
X041910Y023532D02*
X038058Y023532D01*
X036902Y022843D02*
X036110Y022843D01*
X036039Y022744D02*
X036804Y022744D01*
X036705Y022646D02*
X035941Y022646D01*
X034960Y022646D02*
X034945Y022646D01*
X034862Y022744D02*
X034846Y022744D01*
X034791Y022843D02*
X034748Y022843D01*
X034750Y022941D02*
X034649Y022941D01*
X034709Y023040D02*
X034551Y023040D01*
X034452Y023138D02*
X034695Y023138D01*
X034695Y023237D02*
X034354Y023237D01*
X034255Y023335D02*
X034695Y023335D01*
X034720Y023434D02*
X034157Y023434D01*
X034058Y023532D02*
X034761Y023532D01*
X034802Y023631D02*
X033960Y023631D01*
X033861Y023729D02*
X034888Y023729D01*
X034987Y023828D02*
X033763Y023828D01*
X033479Y023631D02*
X026548Y023631D01*
X026589Y023532D02*
X033578Y023532D01*
X033676Y023434D02*
X026629Y023434D01*
X026654Y023335D02*
X033775Y023335D01*
X033873Y023237D02*
X026654Y023237D01*
X026654Y023138D02*
X033972Y023138D01*
X034070Y023040D02*
X026640Y023040D01*
X026600Y022941D02*
X034169Y022941D01*
X034267Y022843D02*
X026559Y022843D01*
X026488Y022744D02*
X034366Y022744D01*
X034464Y022646D02*
X026389Y022646D01*
X026240Y022547D02*
X034563Y022547D01*
X034661Y022449D02*
X026174Y022449D01*
X026272Y022350D02*
X034760Y022350D01*
X033381Y023729D02*
X026461Y023729D01*
X026363Y023828D02*
X033282Y023828D01*
X033467Y024123D02*
X049650Y024123D01*
X049650Y024025D02*
X048382Y024025D01*
X048363Y024044D02*
X048192Y024114D01*
X048008Y024114D01*
X047837Y024044D01*
X047706Y023913D01*
X047636Y023742D01*
X047636Y023558D01*
X047706Y023387D01*
X047837Y023256D01*
X048008Y023186D01*
X048192Y023186D01*
X048363Y023256D01*
X048494Y023387D01*
X048564Y023558D01*
X048564Y023742D01*
X048494Y023913D01*
X048363Y024044D01*
X048481Y023926D02*
X049650Y023926D01*
X049650Y023828D02*
X048529Y023828D01*
X048564Y023729D02*
X049650Y023729D01*
X049650Y023631D02*
X048564Y023631D01*
X048554Y023532D02*
X049650Y023532D01*
X049650Y023434D02*
X048513Y023434D01*
X048442Y023335D02*
X049650Y023335D01*
X049650Y023237D02*
X048315Y023237D01*
X048367Y023040D02*
X048891Y023040D01*
X048769Y022941D02*
X048466Y022941D01*
X048523Y022843D02*
X048704Y022843D01*
X048663Y022744D02*
X048564Y022744D01*
X048564Y022646D02*
X048660Y022646D01*
X048666Y022547D02*
X048560Y022547D01*
X048519Y022449D02*
X048658Y022449D01*
X048560Y022350D02*
X048457Y022350D01*
X048745Y022055D02*
X048927Y022055D01*
X048843Y022153D02*
X049650Y022153D01*
X049650Y022055D02*
X049273Y022055D01*
X049416Y021956D02*
X049650Y021956D01*
X049650Y021858D02*
X049490Y021858D01*
X049531Y021759D02*
X049650Y021759D01*
X049650Y021661D02*
X049540Y021661D01*
X049437Y021365D02*
X049650Y021365D01*
X049650Y021267D02*
X049324Y021267D01*
X049650Y021168D02*
X048858Y021168D01*
X048760Y021070D02*
X049650Y021070D01*
X049650Y020971D02*
X044480Y020971D01*
X044320Y020971D02*
X042740Y020971D01*
X042740Y020968D02*
X042482Y020710D01*
X042118Y020710D01*
X041860Y020968D01*
X041860Y021332D01*
X042118Y021590D01*
X042482Y021590D01*
X042740Y021332D01*
X042740Y020968D01*
X042740Y021070D02*
X044173Y021070D01*
X044122Y021168D02*
X042740Y021168D01*
X042740Y021267D02*
X044112Y021267D01*
X044135Y021365D02*
X042707Y021365D01*
X042609Y021464D02*
X044206Y021464D01*
X044594Y021464D02*
X045612Y021464D01*
X045634Y021562D02*
X042510Y021562D01*
X042090Y021562D02*
X037659Y021562D01*
X037541Y021562D02*
X027060Y021562D01*
X026962Y021661D02*
X037382Y021661D01*
X037325Y021759D02*
X026863Y021759D01*
X026765Y021858D02*
X037312Y021858D01*
X037332Y021956D02*
X026666Y021956D01*
X026568Y022055D02*
X037397Y022055D01*
X037389Y022153D02*
X026469Y022153D01*
X027159Y021464D02*
X041991Y021464D01*
X041893Y021365D02*
X027257Y021365D01*
X027356Y021267D02*
X041860Y021267D01*
X041860Y021168D02*
X027454Y021168D01*
X027553Y021070D02*
X041860Y021070D01*
X041860Y020971D02*
X027651Y020971D01*
X027750Y020873D02*
X041955Y020873D01*
X042054Y020774D02*
X027848Y020774D01*
X027947Y020676D02*
X049650Y020676D01*
X049650Y020774D02*
X042546Y020774D01*
X042645Y020873D02*
X049650Y020873D01*
X049650Y020577D02*
X042495Y020577D01*
X042482Y020590D02*
X042118Y020590D01*
X041860Y020332D01*
X041860Y019968D01*
X042118Y019710D01*
X042482Y019710D01*
X042740Y019968D01*
X042740Y020332D01*
X042482Y020590D01*
X042594Y020479D02*
X043477Y020479D01*
X043538Y020540D02*
X043310Y020312D01*
X043310Y019988D01*
X043538Y019760D01*
X043862Y019760D01*
X044090Y019988D01*
X044090Y020312D01*
X043862Y020540D01*
X043538Y020540D01*
X043379Y020380D02*
X042692Y020380D01*
X042740Y020282D02*
X043310Y020282D01*
X043310Y020183D02*
X042740Y020183D01*
X042740Y020085D02*
X043310Y020085D01*
X043312Y019986D02*
X042740Y019986D01*
X042660Y019888D02*
X043411Y019888D01*
X043509Y019789D02*
X042561Y019789D01*
X042039Y019789D02*
X039561Y019789D01*
X039482Y019710D02*
X039740Y019968D01*
X039740Y020332D01*
X039482Y020590D01*
X039118Y020590D01*
X038860Y020332D01*
X038860Y019968D01*
X039118Y019710D01*
X039482Y019710D01*
X039660Y019888D02*
X041940Y019888D01*
X041860Y019986D02*
X039740Y019986D01*
X039740Y020085D02*
X041860Y020085D01*
X041860Y020183D02*
X039740Y020183D01*
X039740Y020282D02*
X041860Y020282D01*
X041908Y020380D02*
X039692Y020380D01*
X039594Y020479D02*
X042006Y020479D01*
X042105Y020577D02*
X039495Y020577D01*
X039105Y020577D02*
X038219Y020577D01*
X038394Y020479D02*
X039006Y020479D01*
X038908Y020380D02*
X038481Y020380D01*
X038522Y020282D02*
X038860Y020282D01*
X038860Y020183D02*
X038540Y020183D01*
X038540Y020085D02*
X038860Y020085D01*
X038860Y019986D02*
X038508Y019986D01*
X038460Y019888D02*
X038940Y019888D01*
X039039Y019789D02*
X038361Y019789D01*
X037563Y019691D02*
X048090Y019691D01*
X048090Y019720D02*
X048090Y019517D01*
X048168Y019330D01*
X048311Y019186D01*
X048499Y019109D01*
X048701Y019109D01*
X048889Y019186D01*
X049032Y019330D01*
X049110Y019517D01*
X049110Y019720D01*
X049032Y019907D01*
X048889Y020051D01*
X048701Y020129D01*
X048499Y020129D01*
X048311Y020051D01*
X048168Y019907D01*
X048090Y019720D01*
X048119Y019789D02*
X043891Y019789D01*
X043989Y019888D02*
X048159Y019888D01*
X048246Y019986D02*
X044088Y019986D01*
X044090Y020085D02*
X048392Y020085D01*
X048808Y020085D02*
X049650Y020085D01*
X049650Y020183D02*
X044090Y020183D01*
X044090Y020282D02*
X049650Y020282D01*
X049650Y020380D02*
X044021Y020380D01*
X043923Y020479D02*
X049650Y020479D01*
X049650Y019986D02*
X048954Y019986D01*
X049041Y019888D02*
X049650Y019888D01*
X049650Y019789D02*
X049081Y019789D01*
X049110Y019691D02*
X049650Y019691D01*
X049650Y019592D02*
X049110Y019592D01*
X049100Y019494D02*
X049650Y019494D01*
X049650Y019395D02*
X049059Y019395D01*
X048999Y019297D02*
X049650Y019297D01*
X049650Y019198D02*
X048901Y019198D01*
X048299Y019198D02*
X037070Y019198D01*
X036972Y019100D02*
X049650Y019100D01*
X049650Y019001D02*
X036873Y019001D01*
X036775Y018903D02*
X043501Y018903D01*
X043538Y018940D02*
X043310Y018712D01*
X043310Y018388D01*
X043538Y018160D01*
X043862Y018160D01*
X044090Y018388D01*
X044090Y018712D01*
X043862Y018940D01*
X043538Y018940D01*
X043402Y018804D02*
X036644Y018804D01*
X037169Y019297D02*
X048201Y019297D01*
X048141Y019395D02*
X037267Y019395D01*
X037366Y019494D02*
X048100Y019494D01*
X048090Y019592D02*
X037464Y019592D01*
X036811Y020183D02*
X028439Y020183D01*
X028341Y020282D02*
X036909Y020282D01*
X037008Y020380D02*
X028242Y020380D01*
X028144Y020479D02*
X037106Y020479D01*
X037281Y020577D02*
X028045Y020577D01*
X028538Y020085D02*
X036712Y020085D01*
X036614Y019986D02*
X028636Y019986D01*
X028735Y019888D02*
X036515Y019888D01*
X036417Y019789D02*
X028833Y019789D01*
X028932Y019691D02*
X036318Y019691D01*
X037818Y021661D02*
X045703Y021661D01*
X046097Y021661D02*
X046149Y021661D01*
X046166Y021562D02*
X046248Y021562D01*
X046188Y021464D02*
X046346Y021464D01*
X046445Y021365D02*
X046177Y021365D01*
X046124Y021267D02*
X046543Y021267D01*
X046642Y021168D02*
X045973Y021168D01*
X046740Y021070D02*
X044627Y021070D01*
X046310Y021980D02*
X046970Y021320D01*
X048530Y021320D01*
X048693Y021483D01*
X048660Y021562D01*
X048673Y021464D02*
X046827Y021464D01*
X046925Y021365D02*
X048575Y021365D01*
X048770Y022080D02*
X048770Y022080D01*
X049288Y022252D02*
X049650Y022252D01*
X049650Y022350D02*
X049422Y022350D01*
X049493Y022449D02*
X049650Y022449D01*
X049650Y022547D02*
X049534Y022547D01*
X049540Y022646D02*
X049650Y022646D01*
X049650Y022744D02*
X049537Y022744D01*
X049496Y022843D02*
X049650Y022843D01*
X049650Y022941D02*
X049431Y022941D01*
X049309Y023040D02*
X049650Y023040D01*
X049650Y023138D02*
X047852Y023138D01*
X047885Y023237D02*
X047754Y023237D01*
X047758Y023335D02*
X047442Y023335D01*
X047513Y023434D02*
X047687Y023434D01*
X047646Y023532D02*
X047554Y023532D01*
X047564Y023631D02*
X047636Y023631D01*
X047636Y023729D02*
X047564Y023729D01*
X047529Y023828D02*
X047671Y023828D01*
X047719Y023926D02*
X047481Y023926D01*
X047382Y024025D02*
X047818Y024025D01*
X046549Y023040D02*
X045751Y023040D01*
X046017Y022941D02*
X046451Y022941D01*
X046352Y022843D02*
X046074Y022843D01*
X046088Y022744D02*
X046254Y022744D01*
X046155Y022646D02*
X046069Y022646D01*
X046057Y022547D02*
X046005Y022547D01*
X044090Y024388D02*
X043862Y024160D01*
X043538Y024160D01*
X043310Y024388D01*
X043310Y024712D01*
X043538Y024940D01*
X043862Y024940D01*
X044090Y024712D01*
X044090Y024388D01*
X044090Y024419D02*
X049650Y024419D01*
X049650Y024517D02*
X044090Y024517D01*
X044090Y024616D02*
X049650Y024616D01*
X049650Y024714D02*
X044087Y024714D01*
X043989Y024813D02*
X049650Y024813D01*
X049650Y024911D02*
X043890Y024911D01*
X043510Y024911D02*
X037137Y024911D01*
X037065Y024813D02*
X043411Y024813D01*
X043313Y024714D02*
X036993Y024714D01*
X036920Y024616D02*
X043310Y024616D01*
X043310Y024517D02*
X036848Y024517D01*
X036780Y024419D02*
X043310Y024419D01*
X043378Y024320D02*
X036704Y024320D01*
X036515Y024222D02*
X043477Y024222D01*
X043923Y024222D02*
X049650Y024222D01*
X049650Y024320D02*
X044022Y024320D01*
X042482Y025710D02*
X042118Y025710D01*
X041860Y025968D01*
X041860Y026332D01*
X042118Y026590D01*
X042482Y026590D01*
X042740Y026332D01*
X042740Y025968D01*
X042482Y025710D01*
X042570Y025798D02*
X043501Y025798D01*
X043538Y025760D02*
X043862Y025760D01*
X044090Y025988D01*
X044090Y026312D01*
X043862Y026540D01*
X043538Y026540D01*
X043310Y026312D01*
X043310Y025988D01*
X043538Y025760D01*
X043402Y025896D02*
X042668Y025896D01*
X042740Y025995D02*
X043310Y025995D01*
X043310Y026093D02*
X042740Y026093D01*
X042740Y026192D02*
X043310Y026192D01*
X043310Y026290D02*
X042740Y026290D01*
X042684Y026389D02*
X043387Y026389D01*
X043486Y026487D02*
X042585Y026487D01*
X042487Y026586D02*
X049650Y026586D01*
X049650Y026684D02*
X008350Y026684D01*
X008350Y026586D02*
X037402Y026586D01*
X037207Y026487D02*
X008350Y026487D01*
X008350Y026389D02*
X037123Y026389D01*
X037057Y026290D02*
X008350Y026290D01*
X008350Y026192D02*
X036985Y026192D01*
X036913Y026093D02*
X008350Y026093D01*
X008350Y025995D02*
X036840Y025995D01*
X036768Y025896D02*
X008350Y025896D01*
X008350Y025798D02*
X036696Y025798D01*
X036624Y025699D02*
X008350Y025699D01*
X008350Y025601D02*
X036551Y025601D01*
X036479Y025502D02*
X008350Y025502D01*
X008350Y025404D02*
X036407Y025404D01*
X036335Y025305D02*
X008350Y025305D01*
X008350Y025207D02*
X036263Y025207D01*
X036190Y025108D02*
X008350Y025108D01*
X008350Y025010D02*
X008937Y025010D01*
X008839Y024911D02*
X008350Y024911D01*
X008350Y024813D02*
X008764Y024813D01*
X008684Y024714D02*
X008350Y024714D01*
X008350Y024616D02*
X008603Y024616D01*
X008523Y024517D02*
X008350Y024517D01*
X008350Y024419D02*
X008442Y024419D01*
X008362Y024320D02*
X008350Y024320D01*
X009015Y023729D02*
X011210Y023729D01*
X011210Y023631D02*
X008934Y023631D01*
X008854Y023532D02*
X011210Y023532D01*
X011265Y023434D02*
X008773Y023434D01*
X008740Y023335D02*
X011363Y023335D01*
X011226Y023828D02*
X009096Y023828D01*
X009176Y023926D02*
X011325Y023926D01*
X011423Y024025D02*
X009257Y024025D01*
X009337Y024123D02*
X021306Y024123D01*
X021167Y024025D02*
X011777Y024025D01*
X011875Y023926D02*
X021119Y023926D01*
X021112Y023828D02*
X011974Y023828D01*
X011990Y023729D02*
X021138Y023729D01*
X021494Y024123D02*
X024933Y024123D01*
X024930Y024120D02*
X024930Y024120D01*
X024834Y024025D02*
X021633Y024025D01*
X021590Y022744D02*
X021730Y022744D01*
X023000Y021858D02*
X024520Y021858D01*
X023263Y021464D02*
X023021Y021464D01*
X023165Y021365D02*
X022866Y021365D01*
X022734Y021365D02*
X022615Y021365D01*
X022579Y021464D02*
X022544Y021464D01*
X022430Y020971D02*
X023140Y020971D01*
X023227Y020873D02*
X022188Y020873D01*
X022181Y020774D02*
X023284Y020774D01*
X023185Y020676D02*
X022682Y020676D01*
X022318Y020676D02*
X022133Y020676D01*
X022070Y020577D02*
X022240Y020577D01*
X022212Y020479D02*
X022070Y020479D01*
X022070Y020380D02*
X022217Y020380D01*
X022261Y020282D02*
X022109Y020282D01*
X022207Y020183D02*
X022391Y020183D01*
X022306Y020085D02*
X023140Y020085D01*
X023140Y020183D02*
X022609Y020183D01*
X022404Y019986D02*
X023140Y019986D01*
X023212Y019888D02*
X022503Y019888D01*
X022601Y019789D02*
X023310Y019789D01*
X023409Y019691D02*
X022700Y019691D01*
X022798Y019592D02*
X023392Y019592D01*
X023293Y019494D02*
X022897Y019494D01*
X022995Y019395D02*
X023195Y019395D01*
X023806Y018706D02*
X043310Y018706D01*
X043310Y018607D02*
X023793Y018607D01*
X023892Y018509D02*
X043310Y018509D01*
X043310Y018410D02*
X023990Y018410D01*
X024060Y018312D02*
X043387Y018312D01*
X043485Y018213D02*
X024060Y018213D01*
X024060Y018115D02*
X049650Y018115D01*
X049650Y018213D02*
X043915Y018213D01*
X044013Y018312D02*
X049650Y018312D01*
X049650Y018410D02*
X044090Y018410D01*
X044090Y018509D02*
X049650Y018509D01*
X049650Y018607D02*
X044090Y018607D01*
X044090Y018706D02*
X049650Y018706D01*
X049650Y018804D02*
X043998Y018804D01*
X043899Y018903D02*
X049650Y018903D01*
X049650Y013091D02*
X048792Y013091D01*
X048947Y012993D02*
X049650Y012993D01*
X049650Y012894D02*
X049038Y012894D01*
X049079Y012796D02*
X049650Y012796D01*
X049650Y012697D02*
X049110Y012697D01*
X049110Y012599D02*
X049650Y012599D01*
X049650Y012500D02*
X049103Y012500D01*
X049062Y012402D02*
X049650Y012402D01*
X049650Y012303D02*
X049006Y012303D01*
X048907Y012205D02*
X049650Y012205D01*
X049650Y012106D02*
X026882Y012106D01*
X026981Y012008D02*
X028236Y012008D01*
X028964Y012008D02*
X049650Y012008D01*
X049650Y011909D02*
X029124Y011909D01*
X029194Y011811D02*
X049650Y011811D01*
X049650Y011712D02*
X029230Y011712D01*
X029230Y011614D02*
X049650Y011614D01*
X049650Y011515D02*
X029205Y011515D01*
X029150Y011417D02*
X049650Y011417D01*
X049650Y011318D02*
X029025Y011318D01*
X028934Y011020D02*
X029070Y010964D01*
X029174Y010860D01*
X029230Y010724D01*
X029230Y010576D01*
X029174Y010440D01*
X029070Y010336D01*
X028934Y010280D01*
X028266Y010280D01*
X028130Y010336D01*
X028026Y010440D01*
X027970Y010576D01*
X027970Y010724D01*
X028026Y010860D01*
X028130Y010964D01*
X028266Y011020D01*
X028934Y011020D01*
X029109Y010924D02*
X048090Y010924D01*
X048090Y010826D02*
X029188Y010826D01*
X029229Y010727D02*
X048090Y010727D01*
X048090Y010629D02*
X029230Y010629D01*
X029211Y010530D02*
X048090Y010530D01*
X048090Y010432D02*
X029165Y010432D01*
X029062Y010333D02*
X048090Y010333D01*
X048090Y010235D02*
X024060Y010235D01*
X024060Y010241D02*
X023990Y010411D01*
X023861Y010540D01*
X023691Y010610D01*
X023508Y010610D01*
X023339Y010540D01*
X023210Y010411D01*
X023140Y010241D01*
X023140Y010058D01*
X023210Y009889D01*
X023339Y009760D01*
X023508Y009690D01*
X023691Y009690D01*
X023861Y009760D01*
X023990Y009889D01*
X024060Y010058D01*
X024060Y010241D01*
X024022Y010333D02*
X025138Y010333D01*
X025130Y010336D02*
X025266Y010280D01*
X025934Y010280D01*
X026070Y010336D01*
X026174Y010440D01*
X026230Y010576D01*
X026230Y010724D01*
X026174Y010860D01*
X026070Y010964D01*
X025934Y011020D01*
X025266Y011020D01*
X025130Y010964D01*
X025026Y010860D01*
X024970Y010724D01*
X024970Y010576D01*
X025026Y010440D01*
X025130Y010336D01*
X025035Y010432D02*
X023969Y010432D01*
X023871Y010530D02*
X024989Y010530D01*
X024970Y010629D02*
X015100Y010629D01*
X015100Y010727D02*
X024971Y010727D01*
X025012Y010826D02*
X016827Y010826D01*
X016926Y010924D02*
X025091Y010924D01*
X025266Y011280D02*
X025934Y011280D01*
X026070Y011336D01*
X026174Y011440D01*
X026230Y011576D01*
X026230Y011724D01*
X026174Y011860D01*
X026070Y011964D01*
X025934Y012020D01*
X025266Y012020D01*
X025130Y011964D01*
X025026Y011860D01*
X024970Y011724D01*
X024970Y011576D01*
X025026Y011440D01*
X025130Y011336D01*
X025266Y011280D01*
X025175Y011318D02*
X023206Y011318D01*
X023108Y011220D02*
X049650Y011220D01*
X049650Y011121D02*
X049085Y011121D01*
X049110Y011096D02*
X049046Y011160D01*
X048154Y011160D01*
X048090Y011096D01*
X048090Y010204D01*
X048154Y010140D01*
X049046Y010140D01*
X049110Y010204D01*
X049110Y011096D01*
X049110Y011023D02*
X049650Y011023D01*
X049650Y010924D02*
X049110Y010924D01*
X049110Y010826D02*
X049650Y010826D01*
X049650Y010727D02*
X049110Y010727D01*
X049110Y010629D02*
X049650Y010629D01*
X049650Y010530D02*
X049110Y010530D01*
X049110Y010432D02*
X049650Y010432D01*
X049650Y010333D02*
X049110Y010333D01*
X049110Y010235D02*
X049650Y010235D01*
X049650Y010136D02*
X024060Y010136D01*
X024051Y010038D02*
X042865Y010038D01*
X042918Y010090D02*
X042660Y009832D01*
X042660Y009468D01*
X042918Y009210D01*
X043282Y009210D01*
X043540Y009468D01*
X043540Y009832D01*
X043282Y010090D01*
X042918Y010090D01*
X042767Y009939D02*
X024011Y009939D01*
X023941Y009841D02*
X042668Y009841D01*
X042660Y009742D02*
X023817Y009742D01*
X023383Y009742D02*
X015100Y009742D01*
X015100Y009644D02*
X042660Y009644D01*
X042660Y009545D02*
X015100Y009545D01*
X015100Y009447D02*
X042681Y009447D01*
X042780Y009348D02*
X015100Y009348D01*
X015100Y009250D02*
X042878Y009250D01*
X043322Y009250D02*
X045878Y009250D01*
X045918Y009210D02*
X045660Y009468D01*
X045660Y009832D01*
X045918Y010090D01*
X046282Y010090D01*
X046540Y009832D01*
X046540Y009468D01*
X046282Y009210D01*
X045918Y009210D01*
X045780Y009348D02*
X043420Y009348D01*
X043519Y009447D02*
X045681Y009447D01*
X045660Y009545D02*
X043540Y009545D01*
X043540Y009644D02*
X045660Y009644D01*
X045660Y009742D02*
X043540Y009742D01*
X043532Y009841D02*
X045668Y009841D01*
X045767Y009939D02*
X043433Y009939D01*
X043335Y010038D02*
X045865Y010038D01*
X046335Y010038D02*
X049650Y010038D01*
X049650Y009939D02*
X046433Y009939D01*
X046532Y009841D02*
X049650Y009841D01*
X049650Y009742D02*
X046540Y009742D01*
X046540Y009644D02*
X049650Y009644D01*
X049650Y009545D02*
X046540Y009545D01*
X046519Y009447D02*
X049650Y009447D01*
X049650Y009348D02*
X046420Y009348D01*
X046322Y009250D02*
X049650Y009250D01*
X049650Y009151D02*
X015100Y009151D01*
X015100Y009053D02*
X049650Y009053D01*
X049650Y008954D02*
X015100Y008954D01*
X015100Y008856D02*
X049650Y008856D01*
X049650Y008757D02*
X015100Y008757D01*
X015100Y008659D02*
X049650Y008659D01*
X049650Y008560D02*
X046312Y008560D01*
X046282Y008590D02*
X045918Y008590D01*
X045660Y008332D01*
X045660Y007968D01*
X045918Y007710D01*
X046282Y007710D01*
X046540Y007968D01*
X046540Y008332D01*
X046282Y008590D01*
X046411Y008462D02*
X049650Y008462D01*
X049650Y008363D02*
X046509Y008363D01*
X046540Y008265D02*
X049650Y008265D01*
X049650Y008166D02*
X046540Y008166D01*
X046540Y008068D02*
X049650Y008068D01*
X049650Y007969D02*
X046540Y007969D01*
X046443Y007871D02*
X049650Y007871D01*
X049650Y007772D02*
X046344Y007772D01*
X045856Y007772D02*
X043344Y007772D01*
X043282Y007710D02*
X043540Y007968D01*
X043540Y008332D01*
X043282Y008590D01*
X042918Y008590D01*
X042660Y008332D01*
X042660Y007968D01*
X042918Y007710D01*
X043282Y007710D01*
X043443Y007871D02*
X045757Y007871D01*
X045660Y007969D02*
X043540Y007969D01*
X043540Y008068D02*
X045660Y008068D01*
X045660Y008166D02*
X043540Y008166D01*
X043540Y008265D02*
X045660Y008265D01*
X045691Y008363D02*
X043509Y008363D01*
X043411Y008462D02*
X045789Y008462D01*
X045888Y008560D02*
X043312Y008560D01*
X042888Y008560D02*
X015100Y008560D01*
X015100Y008462D02*
X042789Y008462D01*
X042691Y008363D02*
X015100Y008363D01*
X015100Y008265D02*
X042660Y008265D01*
X042660Y008166D02*
X039947Y008166D01*
X039946Y008167D02*
X039721Y008260D01*
X039479Y008260D01*
X039254Y008167D01*
X039083Y007996D01*
X038990Y007771D01*
X038990Y007529D01*
X039083Y007304D01*
X039254Y007133D01*
X039479Y007040D01*
X039721Y007040D01*
X039946Y007133D01*
X040117Y007304D01*
X040210Y007529D01*
X040210Y007771D01*
X040117Y007996D01*
X039946Y008167D01*
X040045Y008068D02*
X042660Y008068D01*
X042660Y007969D02*
X040128Y007969D01*
X040169Y007871D02*
X042757Y007871D01*
X042856Y007772D02*
X040210Y007772D01*
X040210Y007674D02*
X048366Y007674D01*
X048311Y007651D02*
X048168Y007507D01*
X048090Y007320D01*
X048090Y007117D01*
X048168Y006930D01*
X048311Y006786D01*
X048499Y006709D01*
X048701Y006709D01*
X048889Y006786D01*
X049032Y006930D01*
X049110Y007117D01*
X049110Y007320D01*
X049032Y007507D01*
X048889Y007651D01*
X048701Y007729D01*
X048499Y007729D01*
X048311Y007651D01*
X048235Y007575D02*
X040210Y007575D01*
X040188Y007477D02*
X048155Y007477D01*
X048114Y007378D02*
X040148Y007378D01*
X040092Y007280D02*
X048090Y007280D01*
X048090Y007181D02*
X039994Y007181D01*
X039824Y007083D02*
X048104Y007083D01*
X048145Y006984D02*
X015100Y006984D01*
X015100Y006886D02*
X048212Y006886D01*
X048310Y006787D02*
X024583Y006787D01*
X024616Y006773D02*
X024346Y006885D01*
X024054Y006885D01*
X023784Y006773D01*
X023577Y006566D01*
X023465Y006296D01*
X023465Y006004D01*
X023577Y005734D01*
X023784Y005527D01*
X024054Y005415D01*
X024346Y005415D01*
X024616Y005527D01*
X024823Y005734D01*
X024935Y006004D01*
X024935Y006296D01*
X024823Y006566D01*
X024616Y006773D01*
X024701Y006689D02*
X049650Y006689D01*
X049650Y006787D02*
X048890Y006787D01*
X048988Y006886D02*
X049650Y006886D01*
X049650Y006984D02*
X049055Y006984D01*
X049096Y007083D02*
X049650Y007083D01*
X049650Y007181D02*
X049110Y007181D01*
X049110Y007280D02*
X049650Y007280D01*
X049650Y007378D02*
X049086Y007378D01*
X049045Y007477D02*
X049650Y007477D01*
X049650Y007575D02*
X048965Y007575D01*
X048834Y007674D02*
X049650Y007674D01*
X049650Y006590D02*
X024799Y006590D01*
X024854Y006492D02*
X045062Y006492D01*
X045068Y006498D02*
X044952Y006382D01*
X044890Y006232D01*
X044890Y006068D01*
X044952Y005918D01*
X045068Y005802D01*
X045218Y005740D01*
X045982Y005740D01*
X046132Y005802D01*
X046248Y005918D01*
X046310Y006068D01*
X046310Y006232D01*
X046248Y006382D01*
X046132Y006498D01*
X045982Y006560D01*
X045218Y006560D01*
X045068Y006498D01*
X044963Y006393D02*
X024895Y006393D01*
X024935Y006295D02*
X044916Y006295D01*
X044890Y006196D02*
X024935Y006196D01*
X024935Y006098D02*
X044890Y006098D01*
X044919Y005999D02*
X043774Y005999D01*
X043753Y006020D02*
X043447Y006020D01*
X043230Y005803D01*
X043230Y005497D01*
X043447Y005280D01*
X043753Y005280D01*
X043970Y005497D01*
X043970Y005803D01*
X043753Y006020D01*
X043873Y005901D02*
X044970Y005901D01*
X045069Y005802D02*
X043970Y005802D01*
X043970Y005704D02*
X048098Y005704D01*
X048090Y005696D02*
X048090Y004804D01*
X048154Y004740D01*
X049046Y004740D01*
X049110Y004804D01*
X049110Y005696D01*
X049046Y005760D01*
X048154Y005760D01*
X048090Y005696D01*
X048090Y005605D02*
X043970Y005605D01*
X043970Y005507D02*
X045089Y005507D01*
X045068Y005498D02*
X044952Y005382D01*
X044890Y005232D01*
X044890Y005068D01*
X044952Y004918D01*
X045068Y004802D01*
X045218Y004740D01*
X045982Y004740D01*
X046132Y004802D01*
X046248Y004918D01*
X046310Y005068D01*
X046310Y005232D01*
X046248Y005382D01*
X046132Y005498D01*
X045982Y005560D01*
X045218Y005560D01*
X045068Y005498D01*
X044978Y005408D02*
X043881Y005408D01*
X043783Y005310D02*
X044922Y005310D01*
X044890Y005211D02*
X043220Y005211D01*
X043220Y005303D02*
X043003Y005520D01*
X042697Y005520D01*
X042480Y005303D01*
X042480Y004997D01*
X042697Y004780D01*
X043003Y004780D01*
X043220Y004997D01*
X043220Y005303D01*
X043214Y005310D02*
X043417Y005310D01*
X043319Y005408D02*
X043115Y005408D01*
X043017Y005507D02*
X043230Y005507D01*
X043230Y005605D02*
X024694Y005605D01*
X024793Y005704D02*
X043230Y005704D01*
X043230Y005802D02*
X024851Y005802D01*
X024892Y005901D02*
X043327Y005901D01*
X043426Y005999D02*
X024933Y005999D01*
X024567Y005507D02*
X042683Y005507D01*
X042585Y005408D02*
X015100Y005408D01*
X015100Y005310D02*
X042486Y005310D01*
X042480Y005211D02*
X015100Y005211D01*
X015100Y005113D02*
X042480Y005113D01*
X042480Y005014D02*
X015100Y005014D01*
X015100Y004916D02*
X042561Y004916D01*
X042660Y004817D02*
X015100Y004817D01*
X015100Y004719D02*
X049650Y004719D01*
X049650Y004817D02*
X049110Y004817D01*
X049110Y004916D02*
X049650Y004916D01*
X049650Y005014D02*
X049110Y005014D01*
X049110Y005113D02*
X049650Y005113D01*
X049650Y005211D02*
X049110Y005211D01*
X049110Y005310D02*
X049650Y005310D01*
X049650Y005408D02*
X049110Y005408D01*
X049110Y005507D02*
X049650Y005507D01*
X049650Y005605D02*
X049110Y005605D01*
X049102Y005704D02*
X049650Y005704D01*
X049650Y005802D02*
X046131Y005802D01*
X046230Y005901D02*
X049650Y005901D01*
X049650Y005999D02*
X046281Y005999D01*
X046310Y006098D02*
X049650Y006098D01*
X049650Y006196D02*
X046310Y006196D01*
X046284Y006295D02*
X049650Y006295D01*
X049650Y006393D02*
X046237Y006393D01*
X046138Y006492D02*
X049650Y006492D01*
X048090Y005507D02*
X046111Y005507D01*
X046222Y005408D02*
X048090Y005408D01*
X048090Y005310D02*
X046278Y005310D01*
X046310Y005211D02*
X048090Y005211D01*
X048090Y005113D02*
X046310Y005113D01*
X046287Y005014D02*
X048090Y005014D01*
X048090Y004916D02*
X046245Y004916D01*
X046147Y004817D02*
X048090Y004817D01*
X049650Y004620D02*
X015100Y004620D01*
X015100Y004522D02*
X049650Y004522D01*
X049650Y004423D02*
X015100Y004423D01*
X015100Y004325D02*
X049650Y004325D01*
X049650Y004226D02*
X015100Y004226D01*
X015100Y004128D02*
X049650Y004128D01*
X049650Y004029D02*
X015100Y004029D01*
X015100Y003931D02*
X049650Y003931D01*
X049650Y003832D02*
X015100Y003832D01*
X015100Y003734D02*
X049650Y003734D01*
X049650Y003635D02*
X015100Y003635D01*
X015100Y003537D02*
X049650Y003537D01*
X049650Y003438D02*
X015100Y003438D01*
X015100Y003340D02*
X049650Y003340D01*
X049650Y003241D02*
X015100Y003241D01*
X015100Y003143D02*
X049650Y003143D01*
X045053Y004817D02*
X043040Y004817D01*
X043139Y004916D02*
X044955Y004916D01*
X044913Y005014D02*
X043220Y005014D01*
X043220Y005113D02*
X044890Y005113D01*
X039376Y007083D02*
X015100Y007083D01*
X015100Y007181D02*
X039206Y007181D01*
X039108Y007280D02*
X015100Y007280D01*
X015100Y007378D02*
X039052Y007378D01*
X039012Y007477D02*
X015100Y007477D01*
X015100Y007575D02*
X038990Y007575D01*
X038990Y007674D02*
X015100Y007674D01*
X015100Y007772D02*
X038990Y007772D01*
X039031Y007871D02*
X015100Y007871D01*
X015100Y007969D02*
X039072Y007969D01*
X039155Y008068D02*
X015100Y008068D01*
X015100Y008166D02*
X039253Y008166D01*
X048090Y011023D02*
X016990Y011023D01*
X017009Y011121D02*
X048115Y011121D01*
X028175Y011318D02*
X026025Y011318D01*
X026150Y011417D02*
X026695Y011417D01*
X026597Y011515D02*
X026205Y011515D01*
X026230Y011614D02*
X026498Y011614D01*
X026400Y011712D02*
X026230Y011712D01*
X026194Y011811D02*
X026301Y011811D01*
X026203Y011909D02*
X026124Y011909D01*
X026104Y012008D02*
X025964Y012008D01*
X026006Y012106D02*
X023994Y012106D01*
X023896Y012008D02*
X025236Y012008D01*
X025076Y011909D02*
X023797Y011909D01*
X023699Y011811D02*
X025006Y011811D01*
X024970Y011712D02*
X023600Y011712D01*
X023502Y011614D02*
X024970Y011614D01*
X024995Y011515D02*
X023403Y011515D01*
X023305Y011417D02*
X025050Y011417D01*
X026109Y010924D02*
X028091Y010924D01*
X028012Y010826D02*
X026188Y010826D01*
X026229Y010727D02*
X027971Y010727D01*
X027970Y010629D02*
X026230Y010629D01*
X026211Y010530D02*
X027989Y010530D01*
X028035Y010432D02*
X026165Y010432D01*
X026062Y010333D02*
X028138Y010333D01*
X023329Y010530D02*
X015100Y010530D01*
X015100Y010432D02*
X023231Y010432D01*
X023178Y010333D02*
X015100Y010333D01*
X015100Y010235D02*
X023140Y010235D01*
X023140Y010136D02*
X015100Y010136D01*
X015100Y010038D02*
X023149Y010038D01*
X023189Y009939D02*
X015100Y009939D01*
X015100Y009841D02*
X023259Y009841D01*
X023490Y012500D02*
X023512Y012500D01*
X023490Y012599D02*
X023610Y012599D01*
X023709Y012697D02*
X023405Y012697D01*
X022590Y015652D02*
X022342Y015652D01*
X022441Y015751D02*
X022529Y015751D01*
X020226Y017327D02*
X017017Y017327D01*
X017115Y017425D02*
X020290Y017425D01*
X020290Y017524D02*
X017214Y017524D01*
X017312Y017622D02*
X020290Y017622D01*
X020290Y017721D02*
X017411Y017721D01*
X017509Y017819D02*
X020290Y017819D01*
X020290Y017918D02*
X018008Y017918D01*
X018106Y018016D02*
X020290Y018016D01*
X020290Y018115D02*
X018205Y018115D01*
X018471Y018213D02*
X020290Y018213D01*
X020290Y018312D02*
X018555Y018312D01*
X018588Y018410D02*
X018932Y018410D01*
X018846Y018509D02*
X018588Y018509D01*
X018547Y018607D02*
X018812Y018607D01*
X018989Y019001D02*
X020413Y019001D01*
X020328Y018903D02*
X019244Y018903D01*
X019348Y018804D02*
X020290Y018804D01*
X020290Y018706D02*
X019388Y018706D01*
X019388Y018607D02*
X020290Y018607D01*
X020290Y018509D02*
X019354Y018509D01*
X019268Y018410D02*
X020290Y018410D01*
X017417Y018607D02*
X015695Y018607D01*
X015793Y018509D02*
X017318Y018509D01*
X017220Y018410D02*
X015890Y018410D01*
X015890Y018312D02*
X017121Y018312D01*
X017023Y018213D02*
X015890Y018213D01*
X015890Y018115D02*
X016924Y018115D01*
X016826Y018016D02*
X015818Y018016D01*
X015719Y017918D02*
X016727Y017918D01*
X017300Y016145D02*
X015100Y016145D01*
X015100Y016046D02*
X017201Y016046D01*
X017102Y015948D02*
X015100Y015948D01*
X015100Y015849D02*
X017003Y015849D01*
X016904Y015751D02*
X015100Y015751D01*
X015100Y015652D02*
X016805Y015652D01*
X016706Y015554D02*
X015100Y015554D01*
X015100Y015455D02*
X016607Y015455D01*
X016508Y015357D02*
X015100Y015357D01*
X015100Y015258D02*
X016409Y015258D01*
X016310Y015160D02*
X015100Y015160D01*
X015100Y015061D02*
X016211Y015061D01*
X016112Y014963D02*
X015100Y014963D01*
X015100Y014864D02*
X016013Y014864D01*
X015915Y014766D02*
X015100Y014766D01*
X015100Y014667D02*
X015816Y014667D01*
X015717Y014569D02*
X015100Y014569D01*
X015100Y014470D02*
X015618Y014470D01*
X015519Y014372D02*
X015100Y014372D01*
X015100Y014273D02*
X015420Y014273D01*
X015321Y014175D02*
X015100Y014175D01*
X015100Y014076D02*
X015222Y014076D01*
X015123Y013978D02*
X015100Y013978D01*
X018174Y016243D02*
X018599Y016243D01*
X016724Y011712D02*
X015100Y011712D01*
X015100Y011614D02*
X016625Y011614D01*
X016413Y011515D02*
X015100Y011515D01*
X015100Y011417D02*
X016315Y011417D01*
X016216Y011318D02*
X015100Y011318D01*
X015100Y011220D02*
X016210Y011220D01*
X016210Y011121D02*
X015100Y011121D01*
X015100Y011023D02*
X016210Y011023D01*
X016274Y010924D02*
X015100Y010924D01*
X015100Y010826D02*
X016373Y010826D01*
X015100Y006787D02*
X018617Y006787D01*
X018584Y006773D02*
X018377Y006566D01*
X018265Y006296D01*
X018265Y006004D01*
X018377Y005734D01*
X018584Y005527D01*
X018854Y005415D01*
X019146Y005415D01*
X019416Y005527D01*
X019623Y005734D01*
X019735Y006004D01*
X019735Y006296D01*
X019623Y006566D01*
X019416Y006773D01*
X019146Y006885D01*
X018854Y006885D01*
X018584Y006773D01*
X018499Y006689D02*
X015100Y006689D01*
X015100Y006590D02*
X018401Y006590D01*
X018346Y006492D02*
X015100Y006492D01*
X015100Y006393D02*
X018305Y006393D01*
X018265Y006295D02*
X015100Y006295D01*
X015100Y006196D02*
X018265Y006196D01*
X018265Y006098D02*
X015100Y006098D01*
X015100Y005999D02*
X018267Y005999D01*
X018308Y005901D02*
X015100Y005901D01*
X015100Y005802D02*
X018349Y005802D01*
X018407Y005704D02*
X015100Y005704D01*
X015100Y005605D02*
X018506Y005605D01*
X018633Y005507D02*
X015100Y005507D01*
X019367Y005507D02*
X023833Y005507D01*
X023706Y005605D02*
X019494Y005605D01*
X019593Y005704D02*
X023607Y005704D01*
X023549Y005802D02*
X019651Y005802D01*
X019692Y005901D02*
X023508Y005901D01*
X023467Y005999D02*
X019733Y005999D01*
X019735Y006098D02*
X023465Y006098D01*
X023465Y006196D02*
X019735Y006196D01*
X019735Y006295D02*
X023465Y006295D01*
X023505Y006393D02*
X019695Y006393D01*
X019654Y006492D02*
X023546Y006492D01*
X023601Y006590D02*
X019599Y006590D01*
X019501Y006689D02*
X023699Y006689D01*
X023817Y006787D02*
X019383Y006787D01*
X022162Y020971D02*
X022270Y020971D01*
X022123Y021070D02*
X022088Y021070D01*
X008350Y026783D02*
X042045Y026783D01*
X042118Y026710D02*
X042482Y026710D01*
X042740Y026968D01*
X042740Y027332D01*
X042482Y027590D01*
X042118Y027590D01*
X041860Y027332D01*
X041860Y026968D01*
X042118Y026710D01*
X042113Y026586D02*
X039487Y026586D01*
X039482Y026590D02*
X039118Y026590D01*
X038860Y026332D01*
X038860Y025968D01*
X039118Y025710D01*
X039482Y025710D01*
X039740Y025968D01*
X039740Y026332D01*
X039482Y026590D01*
X039585Y026487D02*
X042015Y026487D01*
X041916Y026389D02*
X039684Y026389D01*
X039740Y026290D02*
X041860Y026290D01*
X041860Y026192D02*
X039740Y026192D01*
X039740Y026093D02*
X041860Y026093D01*
X041860Y025995D02*
X039740Y025995D01*
X039668Y025896D02*
X041932Y025896D01*
X042030Y025798D02*
X039570Y025798D01*
X039030Y025798D02*
X038470Y025798D01*
X038568Y025896D02*
X038932Y025896D01*
X038860Y025995D02*
X038612Y025995D01*
X038640Y026093D02*
X038860Y026093D01*
X038860Y026192D02*
X038640Y026192D01*
X038618Y026290D02*
X038860Y026290D01*
X038916Y026389D02*
X038577Y026389D01*
X038485Y026487D02*
X039015Y026487D01*
X039113Y026586D02*
X038298Y026586D01*
X037715Y025699D02*
X049650Y025699D01*
X049650Y025601D02*
X037643Y025601D01*
X037570Y025502D02*
X049650Y025502D01*
X049650Y025404D02*
X037498Y025404D01*
X037426Y025305D02*
X049650Y025305D01*
X049650Y025207D02*
X037354Y025207D01*
X037282Y025108D02*
X049650Y025108D01*
X049650Y025010D02*
X037209Y025010D01*
X041860Y026980D02*
X008350Y026980D01*
X008350Y027078D02*
X041860Y027078D01*
X041860Y027177D02*
X008350Y027177D01*
X008350Y027275D02*
X041860Y027275D01*
X041901Y027374D02*
X008350Y027374D01*
X008350Y027472D02*
X042000Y027472D01*
X042098Y027571D02*
X008350Y027571D01*
X008350Y027669D02*
X049650Y027669D01*
X049650Y027571D02*
X042502Y027571D01*
X042600Y027472D02*
X049650Y027472D01*
X049650Y027374D02*
X042699Y027374D01*
X042740Y027275D02*
X049650Y027275D01*
X049650Y027177D02*
X042740Y027177D01*
X042740Y027078D02*
X049650Y027078D01*
X049650Y026980D02*
X042740Y026980D01*
X042653Y026881D02*
X049650Y026881D01*
X049650Y026783D02*
X042555Y026783D01*
X041947Y026881D02*
X008350Y026881D01*
X043899Y025798D02*
X049650Y025798D01*
X049650Y025896D02*
X043998Y025896D01*
X044090Y025995D02*
X049650Y025995D01*
X049650Y026093D02*
X044090Y026093D01*
X044090Y026192D02*
X049650Y026192D01*
X049650Y026290D02*
X044090Y026290D01*
X044013Y026389D02*
X049650Y026389D01*
X049650Y026487D02*
X043914Y026487D01*
D30*
X048100Y026650D03*
X012100Y026650D03*
X002100Y004650D03*
X032100Y004650D03*
D31*
X028800Y019200D02*
X036450Y019200D01*
X037400Y020150D01*
X038100Y020150D01*
X036400Y024650D02*
X009200Y024650D01*
X008300Y023550D01*
X008300Y021450D01*
X009100Y020650D01*
X009100Y019150D01*
X005200Y015250D01*
X005200Y006554D01*
X005935Y005819D01*
X005900Y005785D01*
X005900Y004250D01*
X025850Y022150D02*
X028800Y019200D01*
X025850Y022150D02*
X024850Y022150D01*
X023850Y023150D01*
X023600Y023150D01*
X022800Y023150D01*
X021900Y023150D01*
X036400Y024650D02*
X037500Y026150D01*
X038200Y026150D01*
D32*
X022800Y023150D02*
X022700Y023050D01*
X021900Y023150D02*
X021800Y023250D01*
X021200Y023250D01*
X021200Y020050D01*
X021500Y019750D01*
X017600Y022550D02*
X018200Y023250D01*
X021200Y023250D01*
D33*
X021500Y019750D02*
X021500Y019650D01*
X020600Y018750D01*
X020600Y017050D01*
X020600Y016950D01*
X019400Y015750D01*
X022900Y011450D02*
X023900Y012450D01*
X026100Y012450D01*
X026900Y011650D01*
X028600Y011650D01*
X022900Y011450D02*
X016900Y011450D01*
X016600Y011150D01*
D34*
X017900Y012950D03*
X017800Y014050D03*
X017900Y015050D03*
X018500Y015150D03*
X018800Y016450D03*
X018800Y016900D03*
X018300Y018450D03*
X019100Y018650D03*
X018700Y020250D03*
X018600Y021350D03*
X021900Y020850D03*
X022500Y020450D03*
X022350Y021250D03*
X022800Y021650D03*
X024800Y021150D03*
X025300Y021450D03*
X021400Y023850D03*
X022800Y015850D03*
X022300Y015350D03*
X021700Y014550D03*
X020600Y014250D03*
X020150Y014150D03*
X019700Y012750D03*
X020300Y012050D03*
X027900Y013650D03*
X028900Y013650D03*
X033800Y013650D03*
X044400Y021250D03*
X045900Y021450D03*
X045800Y022750D03*
X041500Y022650D03*
X037600Y022850D03*
X037600Y022350D03*
X037600Y021850D03*
X037100Y023350D03*
D35*
X037300Y023350D01*
X037500Y023550D01*
X037800Y023550D01*
X038400Y022950D01*
X045600Y022950D01*
X045800Y022750D01*
X046100Y022350D02*
X046900Y023150D01*
X047600Y023150D01*
X048100Y022650D01*
X048600Y022150D02*
X049100Y022650D01*
X048600Y022150D02*
X038000Y022150D01*
X037800Y022350D01*
X037600Y022350D01*
X037600Y021850D02*
X046200Y021850D01*
X046900Y021150D01*
X048600Y021150D01*
X049100Y021650D01*
X046100Y022350D02*
X038200Y022350D01*
X037700Y022850D01*
X037600Y022850D01*
X037550Y023250D02*
X036750Y022450D01*
X034900Y022450D01*
X033300Y024050D01*
X025100Y024050D01*
X024900Y023850D01*
X021400Y023850D01*
X022800Y021650D02*
X025100Y021650D01*
X025300Y021450D01*
X024800Y021150D02*
X024300Y020650D01*
X023400Y020650D01*
X023200Y020450D01*
X022500Y020450D01*
X021900Y020250D02*
X023000Y019150D01*
X023600Y019150D01*
X021900Y020250D02*
X021900Y020850D01*
X022350Y021250D02*
X022450Y021150D01*
X023600Y021150D01*
X019100Y018650D02*
X018900Y018850D01*
X017900Y018850D01*
X015700Y016650D01*
X011254Y016650D01*
X009084Y014481D01*
X012234Y014481D02*
X014103Y016350D01*
X015800Y016350D01*
X017500Y018050D01*
X017900Y018050D01*
X018300Y018450D01*
X018300Y016900D02*
X007600Y006250D01*
X007153Y006250D01*
X006722Y005819D01*
X007509Y005819D02*
X018140Y016450D01*
X018800Y016450D01*
X018800Y016900D02*
X018300Y016900D01*
X018500Y015150D02*
X019500Y014150D01*
X020150Y014150D01*
X020600Y014250D02*
X020600Y014550D01*
X020800Y014750D01*
X021500Y014750D01*
X021500Y015050D01*
X023600Y017150D01*
X030300Y017150D01*
X033800Y013650D01*
X028900Y013650D02*
X026400Y016150D01*
X023600Y016150D01*
X023100Y015850D02*
X023300Y015650D01*
X025900Y015650D01*
X027900Y013650D01*
X023100Y015850D02*
X022800Y015850D01*
X022300Y015350D02*
X022300Y014550D01*
X020500Y012750D01*
X019700Y012750D01*
X017900Y012950D02*
X017900Y013650D01*
X018200Y013950D01*
X018200Y014850D01*
X018500Y015150D01*
X017900Y015050D02*
X017800Y014950D01*
X017800Y014050D01*
X021500Y014750D02*
X021700Y014550D01*
X037550Y023250D02*
X037700Y023250D01*
X038300Y022650D01*
X041500Y022650D01*
X044400Y021250D02*
X045700Y021250D01*
X045900Y021450D01*
M02*
