G75*
%MOIN*%
%OFA0B0*%
%FSLAX25Y25*%
%IPPOS*%
%LPD*%
%AMOC8*
5,1,8,0,0,1.08239X$1,22.5*
%
%ADD10C,0.00000*%
%ADD11OC8,0.05600*%
%ADD12C,0.10000*%
%ADD13OC8,0.10000*%
%ADD14OC8,0.07000*%
%ADD15C,0.07000*%
%ADD16C,0.05200*%
%ADD17R,0.08000X0.08000*%
%ADD18C,0.08000*%
%ADD19OC8,0.06600*%
%ADD20R,0.04724X0.01181*%
%ADD21R,0.01181X0.04724*%
%ADD22R,0.08268X0.22047*%
%ADD23R,0.01969X0.02362*%
%ADD24R,0.02362X0.01969*%
%ADD25C,0.05600*%
%ADD26R,0.05600X0.05600*%
%ADD27R,0.15600X0.15600*%
%ADD28C,0.12500*%
%ADD29R,0.04724X0.04724*%
%ADD30R,0.03937X0.03150*%
%ADD31C,0.01102*%
%ADD32R,0.02756X0.00984*%
%ADD33R,0.08465X0.06693*%
%ADD34R,0.09843X0.07480*%
%ADD35R,0.01378X0.02756*%
%ADD36R,0.09252X0.06220*%
%ADD37R,0.05118X0.07480*%
%ADD38R,0.03543X0.07087*%
%ADD39R,0.05512X0.07874*%
%ADD40R,0.04331X0.07087*%
%ADD41C,0.07087*%
%ADD42C,0.06000*%
%ADD43OC8,0.05200*%
%ADD44C,0.06600*%
%ADD45R,0.04134X0.03937*%
%ADD46R,0.08661X0.04134*%
%ADD47C,0.01600*%
%ADD48C,0.03962*%
%ADD49C,0.01200*%
%ADD50C,0.01000*%
%ADD51C,0.03200*%
%ADD52C,0.04000*%
%ADD53C,0.20000*%
%ADD54C,0.06600*%
%ADD55C,0.02400*%
%ADD56C,0.03569*%
%ADD57C,0.01100*%
%ADD58C,0.00900*%
%ADD59R,0.03962X0.03962*%
D10*
X0001000Y0026500D02*
X0001000Y0281500D01*
X0501000Y0281500D01*
X0501000Y0026500D01*
X0001000Y0026500D01*
X0255941Y0232232D02*
X0255943Y0232342D01*
X0255949Y0232452D01*
X0255959Y0232562D01*
X0255973Y0232671D01*
X0255991Y0232780D01*
X0256012Y0232888D01*
X0256038Y0232995D01*
X0256067Y0233101D01*
X0256101Y0233206D01*
X0256138Y0233310D01*
X0256179Y0233412D01*
X0256223Y0233513D01*
X0256271Y0233612D01*
X0256323Y0233710D01*
X0256378Y0233805D01*
X0256436Y0233898D01*
X0256498Y0233989D01*
X0256563Y0234078D01*
X0256631Y0234165D01*
X0256703Y0234249D01*
X0256777Y0234330D01*
X0256854Y0234409D01*
X0256934Y0234485D01*
X0257017Y0234557D01*
X0257102Y0234627D01*
X0257190Y0234694D01*
X0257280Y0234757D01*
X0257372Y0234817D01*
X0257466Y0234874D01*
X0257563Y0234928D01*
X0257661Y0234977D01*
X0257761Y0235024D01*
X0257863Y0235066D01*
X0257966Y0235105D01*
X0258070Y0235140D01*
X0258176Y0235172D01*
X0258282Y0235199D01*
X0258390Y0235223D01*
X0258498Y0235243D01*
X0258607Y0235259D01*
X0258717Y0235271D01*
X0258827Y0235279D01*
X0258937Y0235283D01*
X0259047Y0235283D01*
X0259157Y0235279D01*
X0259267Y0235271D01*
X0259377Y0235259D01*
X0259486Y0235243D01*
X0259594Y0235223D01*
X0259702Y0235199D01*
X0259808Y0235172D01*
X0259914Y0235140D01*
X0260018Y0235105D01*
X0260121Y0235066D01*
X0260223Y0235024D01*
X0260323Y0234977D01*
X0260421Y0234928D01*
X0260517Y0234874D01*
X0260612Y0234817D01*
X0260704Y0234757D01*
X0260794Y0234694D01*
X0260882Y0234627D01*
X0260967Y0234557D01*
X0261050Y0234485D01*
X0261130Y0234409D01*
X0261207Y0234330D01*
X0261281Y0234249D01*
X0261353Y0234165D01*
X0261421Y0234078D01*
X0261486Y0233989D01*
X0261548Y0233898D01*
X0261606Y0233805D01*
X0261661Y0233710D01*
X0261713Y0233612D01*
X0261761Y0233513D01*
X0261805Y0233412D01*
X0261846Y0233310D01*
X0261883Y0233206D01*
X0261917Y0233101D01*
X0261946Y0232995D01*
X0261972Y0232888D01*
X0261993Y0232780D01*
X0262011Y0232671D01*
X0262025Y0232562D01*
X0262035Y0232452D01*
X0262041Y0232342D01*
X0262043Y0232232D01*
X0262041Y0232122D01*
X0262035Y0232012D01*
X0262025Y0231902D01*
X0262011Y0231793D01*
X0261993Y0231684D01*
X0261972Y0231576D01*
X0261946Y0231469D01*
X0261917Y0231363D01*
X0261883Y0231258D01*
X0261846Y0231154D01*
X0261805Y0231052D01*
X0261761Y0230951D01*
X0261713Y0230852D01*
X0261661Y0230754D01*
X0261606Y0230659D01*
X0261548Y0230566D01*
X0261486Y0230475D01*
X0261421Y0230386D01*
X0261353Y0230299D01*
X0261281Y0230215D01*
X0261207Y0230134D01*
X0261130Y0230055D01*
X0261050Y0229979D01*
X0260967Y0229907D01*
X0260882Y0229837D01*
X0260794Y0229770D01*
X0260704Y0229707D01*
X0260612Y0229647D01*
X0260518Y0229590D01*
X0260421Y0229536D01*
X0260323Y0229487D01*
X0260223Y0229440D01*
X0260121Y0229398D01*
X0260018Y0229359D01*
X0259914Y0229324D01*
X0259808Y0229292D01*
X0259702Y0229265D01*
X0259594Y0229241D01*
X0259486Y0229221D01*
X0259377Y0229205D01*
X0259267Y0229193D01*
X0259157Y0229185D01*
X0259047Y0229181D01*
X0258937Y0229181D01*
X0258827Y0229185D01*
X0258717Y0229193D01*
X0258607Y0229205D01*
X0258498Y0229221D01*
X0258390Y0229241D01*
X0258282Y0229265D01*
X0258176Y0229292D01*
X0258070Y0229324D01*
X0257966Y0229359D01*
X0257863Y0229398D01*
X0257761Y0229440D01*
X0257661Y0229487D01*
X0257563Y0229536D01*
X0257466Y0229590D01*
X0257372Y0229647D01*
X0257280Y0229707D01*
X0257190Y0229770D01*
X0257102Y0229837D01*
X0257017Y0229907D01*
X0256934Y0229979D01*
X0256854Y0230055D01*
X0256777Y0230134D01*
X0256703Y0230215D01*
X0256631Y0230299D01*
X0256563Y0230386D01*
X0256498Y0230475D01*
X0256436Y0230566D01*
X0256378Y0230659D01*
X0256323Y0230754D01*
X0256271Y0230852D01*
X0256223Y0230951D01*
X0256179Y0231052D01*
X0256138Y0231154D01*
X0256101Y0231258D01*
X0256067Y0231363D01*
X0256038Y0231469D01*
X0256012Y0231576D01*
X0255991Y0231684D01*
X0255973Y0231793D01*
X0255959Y0231902D01*
X0255949Y0232012D01*
X0255943Y0232122D01*
X0255941Y0232232D01*
X0351453Y0232232D02*
X0351455Y0232342D01*
X0351461Y0232452D01*
X0351471Y0232562D01*
X0351485Y0232671D01*
X0351503Y0232780D01*
X0351524Y0232888D01*
X0351550Y0232995D01*
X0351579Y0233101D01*
X0351613Y0233206D01*
X0351650Y0233310D01*
X0351691Y0233412D01*
X0351735Y0233513D01*
X0351783Y0233612D01*
X0351835Y0233710D01*
X0351890Y0233805D01*
X0351948Y0233898D01*
X0352010Y0233989D01*
X0352075Y0234078D01*
X0352143Y0234165D01*
X0352215Y0234249D01*
X0352289Y0234330D01*
X0352366Y0234409D01*
X0352446Y0234485D01*
X0352529Y0234557D01*
X0352614Y0234627D01*
X0352702Y0234694D01*
X0352792Y0234757D01*
X0352884Y0234817D01*
X0352978Y0234874D01*
X0353075Y0234928D01*
X0353173Y0234977D01*
X0353273Y0235024D01*
X0353375Y0235066D01*
X0353478Y0235105D01*
X0353582Y0235140D01*
X0353688Y0235172D01*
X0353794Y0235199D01*
X0353902Y0235223D01*
X0354010Y0235243D01*
X0354119Y0235259D01*
X0354229Y0235271D01*
X0354339Y0235279D01*
X0354449Y0235283D01*
X0354559Y0235283D01*
X0354669Y0235279D01*
X0354779Y0235271D01*
X0354889Y0235259D01*
X0354998Y0235243D01*
X0355106Y0235223D01*
X0355214Y0235199D01*
X0355320Y0235172D01*
X0355426Y0235140D01*
X0355530Y0235105D01*
X0355633Y0235066D01*
X0355735Y0235024D01*
X0355835Y0234977D01*
X0355933Y0234928D01*
X0356029Y0234874D01*
X0356124Y0234817D01*
X0356216Y0234757D01*
X0356306Y0234694D01*
X0356394Y0234627D01*
X0356479Y0234557D01*
X0356562Y0234485D01*
X0356642Y0234409D01*
X0356719Y0234330D01*
X0356793Y0234249D01*
X0356865Y0234165D01*
X0356933Y0234078D01*
X0356998Y0233989D01*
X0357060Y0233898D01*
X0357118Y0233805D01*
X0357173Y0233710D01*
X0357225Y0233612D01*
X0357273Y0233513D01*
X0357317Y0233412D01*
X0357358Y0233310D01*
X0357395Y0233206D01*
X0357429Y0233101D01*
X0357458Y0232995D01*
X0357484Y0232888D01*
X0357505Y0232780D01*
X0357523Y0232671D01*
X0357537Y0232562D01*
X0357547Y0232452D01*
X0357553Y0232342D01*
X0357555Y0232232D01*
X0357553Y0232122D01*
X0357547Y0232012D01*
X0357537Y0231902D01*
X0357523Y0231793D01*
X0357505Y0231684D01*
X0357484Y0231576D01*
X0357458Y0231469D01*
X0357429Y0231363D01*
X0357395Y0231258D01*
X0357358Y0231154D01*
X0357317Y0231052D01*
X0357273Y0230951D01*
X0357225Y0230852D01*
X0357173Y0230754D01*
X0357118Y0230659D01*
X0357060Y0230566D01*
X0356998Y0230475D01*
X0356933Y0230386D01*
X0356865Y0230299D01*
X0356793Y0230215D01*
X0356719Y0230134D01*
X0356642Y0230055D01*
X0356562Y0229979D01*
X0356479Y0229907D01*
X0356394Y0229837D01*
X0356306Y0229770D01*
X0356216Y0229707D01*
X0356124Y0229647D01*
X0356030Y0229590D01*
X0355933Y0229536D01*
X0355835Y0229487D01*
X0355735Y0229440D01*
X0355633Y0229398D01*
X0355530Y0229359D01*
X0355426Y0229324D01*
X0355320Y0229292D01*
X0355214Y0229265D01*
X0355106Y0229241D01*
X0354998Y0229221D01*
X0354889Y0229205D01*
X0354779Y0229193D01*
X0354669Y0229185D01*
X0354559Y0229181D01*
X0354449Y0229181D01*
X0354339Y0229185D01*
X0354229Y0229193D01*
X0354119Y0229205D01*
X0354010Y0229221D01*
X0353902Y0229241D01*
X0353794Y0229265D01*
X0353688Y0229292D01*
X0353582Y0229324D01*
X0353478Y0229359D01*
X0353375Y0229398D01*
X0353273Y0229440D01*
X0353173Y0229487D01*
X0353075Y0229536D01*
X0352978Y0229590D01*
X0352884Y0229647D01*
X0352792Y0229707D01*
X0352702Y0229770D01*
X0352614Y0229837D01*
X0352529Y0229907D01*
X0352446Y0229979D01*
X0352366Y0230055D01*
X0352289Y0230134D01*
X0352215Y0230215D01*
X0352143Y0230299D01*
X0352075Y0230386D01*
X0352010Y0230475D01*
X0351948Y0230566D01*
X0351890Y0230659D01*
X0351835Y0230754D01*
X0351783Y0230852D01*
X0351735Y0230951D01*
X0351691Y0231052D01*
X0351650Y0231154D01*
X0351613Y0231258D01*
X0351579Y0231363D01*
X0351550Y0231469D01*
X0351524Y0231576D01*
X0351503Y0231684D01*
X0351485Y0231793D01*
X0351471Y0231902D01*
X0351461Y0232012D01*
X0351455Y0232122D01*
X0351453Y0232232D01*
D11*
X0382000Y0211500D03*
X0382000Y0201500D03*
X0423000Y0185500D03*
X0437000Y0185500D03*
X0437000Y0175500D03*
X0423000Y0175500D03*
X0437000Y0201500D03*
X0437000Y0211500D03*
X0437000Y0235500D03*
X0423000Y0235500D03*
X0423000Y0245500D03*
X0437000Y0245500D03*
X0437000Y0261500D03*
X0437000Y0271500D03*
X0382000Y0271500D03*
X0382000Y0261500D03*
X0223000Y0231500D03*
X0223000Y0221500D03*
X0186000Y0225500D03*
X0176000Y0225500D03*
X0215000Y0197500D03*
X0215000Y0187500D03*
X0194000Y0157500D03*
X0184000Y0157500D03*
X0155000Y0183500D03*
X0145000Y0183500D03*
X0116000Y0196500D03*
X0116000Y0206500D03*
X0091000Y0206500D03*
X0091000Y0216500D03*
X0116000Y0226500D03*
X0116000Y0236500D03*
X0231000Y0134500D03*
X0231000Y0124500D03*
X0166000Y0111500D03*
X0166000Y0101500D03*
X0069000Y0042500D03*
X0059000Y0042500D03*
D12*
X0396000Y0076500D03*
D13*
X0396000Y0056500D03*
D14*
X0226000Y0101500D03*
X0236000Y0161500D03*
X0236000Y0171500D03*
X0236000Y0181500D03*
X0236000Y0191500D03*
X0236000Y0201500D03*
X0236000Y0211500D03*
X0236000Y0221500D03*
X0236000Y0231500D03*
X0216000Y0170500D03*
D15*
X0206000Y0170500D03*
X0159000Y0209500D03*
X0159000Y0219500D03*
X0236000Y0101500D03*
D16*
X0253400Y0106500D02*
X0258600Y0106500D01*
X0258600Y0116500D02*
X0253400Y0116500D01*
X0283400Y0116500D02*
X0288600Y0116500D01*
X0288600Y0106500D02*
X0283400Y0106500D01*
D17*
X0486000Y0106500D03*
X0486000Y0052500D03*
X0486000Y0176500D03*
D18*
X0486000Y0196185D03*
X0486000Y0126185D03*
X0486000Y0072185D03*
D19*
X0461000Y0081500D03*
X0461000Y0096500D03*
X0431000Y0096500D03*
X0431000Y0081500D03*
X0431000Y0151500D03*
X0461000Y0151500D03*
X0423000Y0201500D03*
X0423000Y0211500D03*
X0393000Y0211500D03*
X0393000Y0201500D03*
X0393000Y0261500D03*
X0393000Y0271500D03*
X0423000Y0271500D03*
X0423000Y0261500D03*
X0075000Y0191500D03*
X0045000Y0191500D03*
D20*
X0164268Y0190516D03*
X0164268Y0192484D03*
X0164268Y0194453D03*
X0164268Y0196421D03*
X0164268Y0198390D03*
X0164268Y0200358D03*
X0164268Y0202327D03*
X0164268Y0188547D03*
X0164268Y0186579D03*
X0164268Y0184610D03*
X0164268Y0182642D03*
X0164268Y0180673D03*
X0197732Y0180673D03*
X0197732Y0182642D03*
X0197732Y0184610D03*
X0197732Y0186579D03*
X0197732Y0188547D03*
X0197732Y0190516D03*
X0197732Y0192484D03*
X0197732Y0194453D03*
X0197732Y0196421D03*
X0197732Y0198390D03*
X0197732Y0200358D03*
X0197732Y0202327D03*
D21*
X0191827Y0208232D03*
X0189858Y0208232D03*
X0187890Y0208232D03*
X0185921Y0208232D03*
X0183953Y0208232D03*
X0181984Y0208232D03*
X0180016Y0208232D03*
X0178047Y0208232D03*
X0176079Y0208232D03*
X0174110Y0208232D03*
X0172142Y0208232D03*
X0170173Y0208232D03*
X0170173Y0174768D03*
X0172142Y0174768D03*
X0174110Y0174768D03*
X0176079Y0174768D03*
X0178047Y0174768D03*
X0180016Y0174768D03*
X0181984Y0174768D03*
X0183953Y0174768D03*
X0185921Y0174768D03*
X0187890Y0174768D03*
X0189858Y0174768D03*
X0191827Y0174768D03*
D22*
X0136000Y0197799D03*
X0136000Y0235201D03*
D23*
X0175291Y0137406D03*
X0175291Y0131500D03*
X0175291Y0125594D03*
X0186709Y0125594D03*
X0186709Y0131500D03*
X0186709Y0137406D03*
D24*
X0181000Y0125594D03*
D25*
X0130213Y0144807D03*
X0122339Y0144807D03*
X0114465Y0144807D03*
X0106591Y0144807D03*
X0098717Y0144807D03*
X0090843Y0144807D03*
X0082969Y0144807D03*
X0075094Y0144807D03*
X0067220Y0144807D03*
X0059346Y0144807D03*
X0067220Y0058193D03*
X0075094Y0058193D03*
X0082969Y0058193D03*
X0090843Y0058193D03*
X0098717Y0058193D03*
X0106591Y0058193D03*
X0114465Y0058193D03*
X0122339Y0058193D03*
X0130213Y0058193D03*
D26*
X0059346Y0058193D03*
D27*
X0216000Y0061500D03*
D28*
X0190000Y0061500D03*
X0242000Y0061500D03*
D29*
X0068874Y0218626D03*
X0068874Y0226500D03*
X0061000Y0226500D03*
X0053126Y0226500D03*
X0053126Y0218626D03*
X0061000Y0218626D03*
X0061000Y0234374D03*
X0053126Y0234374D03*
X0068874Y0234374D03*
D30*
X0079110Y0236500D03*
X0079110Y0241500D03*
X0079110Y0246500D03*
X0079110Y0251500D03*
X0042890Y0251500D03*
X0042890Y0246500D03*
X0042890Y0241500D03*
X0042890Y0236500D03*
X0042890Y0231500D03*
X0042890Y0226500D03*
X0042890Y0221500D03*
X0042890Y0216500D03*
X0042890Y0211500D03*
X0042890Y0206500D03*
X0042890Y0201500D03*
X0079110Y0201500D03*
X0079110Y0206500D03*
X0079110Y0211500D03*
X0079110Y0216500D03*
X0079110Y0221500D03*
X0079110Y0226500D03*
X0079110Y0231500D03*
D31*
X0402063Y0234571D02*
X0402063Y0236815D01*
X0404031Y0236815D02*
X0404031Y0234571D01*
X0406000Y0234571D02*
X0406000Y0236815D01*
X0407969Y0236815D02*
X0407969Y0234571D01*
X0409937Y0234571D02*
X0409937Y0236815D01*
X0409937Y0246185D02*
X0409937Y0248429D01*
X0407969Y0248429D02*
X0407969Y0246185D01*
X0406000Y0246185D02*
X0406000Y0248429D01*
X0404031Y0248429D02*
X0404031Y0246185D01*
X0402063Y0246185D02*
X0402063Y0248429D01*
X0402063Y0188429D02*
X0402063Y0186185D01*
X0404031Y0186185D02*
X0404031Y0188429D01*
X0406000Y0188429D02*
X0406000Y0186185D01*
X0407969Y0186185D02*
X0407969Y0188429D01*
X0409937Y0188429D02*
X0409937Y0186185D01*
X0409937Y0176815D02*
X0409937Y0174571D01*
X0407969Y0174571D02*
X0407969Y0176815D01*
X0406000Y0176815D02*
X0406000Y0174571D01*
X0404031Y0174571D02*
X0404031Y0176815D01*
X0402063Y0176815D02*
X0402063Y0174571D01*
D32*
X0400390Y0179138D03*
X0400390Y0180713D03*
X0400390Y0182287D03*
X0400390Y0183862D03*
X0411610Y0183862D03*
X0411610Y0182287D03*
X0411610Y0180713D03*
X0411610Y0179138D03*
X0411610Y0239138D03*
X0411610Y0240713D03*
X0411610Y0242287D03*
X0411610Y0243862D03*
X0400390Y0243862D03*
X0400390Y0242287D03*
X0400390Y0240713D03*
X0400390Y0239138D03*
D33*
X0406000Y0241500D03*
X0406000Y0181500D03*
D34*
X0386000Y0189374D03*
X0386000Y0173626D03*
X0386000Y0233626D03*
X0386000Y0249374D03*
D35*
X0209839Y0137307D03*
X0207280Y0137307D03*
X0204720Y0137307D03*
X0202161Y0137307D03*
X0202161Y0125693D03*
X0204720Y0125693D03*
X0207280Y0125693D03*
X0209839Y0125693D03*
D36*
X0206000Y0131500D03*
D37*
X0206827Y0107799D03*
X0206827Y0095201D03*
X0185173Y0095201D03*
X0185173Y0107799D03*
D38*
X0269504Y0136563D03*
X0279346Y0136563D03*
X0289189Y0136563D03*
X0296079Y0136563D03*
X0301984Y0136563D03*
X0308874Y0136563D03*
X0318717Y0136563D03*
X0328559Y0136563D03*
X0338087Y0136563D03*
X0344780Y0136563D03*
D39*
X0247929Y0219240D03*
X0364071Y0223768D03*
D40*
X0357181Y0136563D03*
D41*
X0471000Y0216500D03*
X0481000Y0216500D03*
X0481000Y0226500D03*
X0471000Y0226500D03*
X0471000Y0236500D03*
X0481000Y0236500D03*
D42*
X0459000Y0136500D02*
X0453000Y0136500D01*
X0453000Y0126500D02*
X0459000Y0126500D01*
X0459000Y0116500D02*
X0453000Y0116500D01*
X0453000Y0061500D02*
X0459000Y0061500D01*
X0459000Y0051500D02*
X0453000Y0051500D01*
X0453000Y0041500D02*
X0459000Y0041500D01*
D43*
X0436000Y0046500D03*
X0428500Y0051500D03*
X0436000Y0056500D03*
X0436000Y0121500D03*
X0428500Y0126500D03*
X0436000Y0131500D03*
D44*
X0491000Y0216500D03*
X0491000Y0226500D03*
X0491000Y0236500D03*
D45*
X0035906Y0251500D03*
D46*
X0029606Y0257406D03*
X0029606Y0245594D03*
D47*
X0025500Y0245496D02*
X0040482Y0245496D01*
X0040500Y0245500D02*
X0033500Y0244000D01*
X0025500Y0244000D01*
X0025500Y0247000D01*
X0034000Y0247000D01*
X0041000Y0247500D01*
X0044500Y0247500D01*
X0044500Y0245500D01*
X0040500Y0245500D01*
X0044000Y0245500D02*
X0044000Y0247500D01*
X0047000Y0247500D01*
X0047000Y0256000D01*
X0025500Y0256000D01*
X0025500Y0259000D01*
X0049500Y0259000D01*
X0049500Y0245500D01*
X0044000Y0245500D01*
X0044000Y0247095D02*
X0049500Y0247095D01*
X0049500Y0248693D02*
X0047000Y0248693D01*
X0047000Y0250292D02*
X0049500Y0250292D01*
X0049500Y0251890D02*
X0047000Y0251890D01*
X0047000Y0253489D02*
X0049500Y0253489D01*
X0049500Y0255087D02*
X0047000Y0255087D01*
X0049500Y0256686D02*
X0025500Y0256686D01*
X0025500Y0258284D02*
X0049500Y0258284D01*
X0044500Y0253000D02*
X0034000Y0253000D01*
X0034000Y0250000D01*
X0044500Y0250000D01*
X0044500Y0253000D01*
X0044500Y0251890D02*
X0034000Y0251890D01*
X0034000Y0250292D02*
X0044500Y0250292D01*
X0044500Y0247095D02*
X0035324Y0247095D01*
X0209000Y0181500D02*
X0213000Y0179500D01*
X0218000Y0179500D01*
X0225000Y0186500D01*
X0246000Y0186500D02*
X0267000Y0165500D01*
X0277000Y0165500D01*
X0204720Y0125693D02*
X0204720Y0122220D01*
X0203000Y0120500D01*
D48*
X0195000Y0135000D03*
X0166000Y0138000D03*
X0161000Y0134000D03*
X0156000Y0130000D03*
X0154000Y0149000D03*
X0159000Y0154000D03*
X0164000Y0158000D03*
X0145000Y0171000D03*
X0138000Y0171000D03*
X0131000Y0171000D03*
X0124000Y0171000D03*
X0170000Y0186500D03*
X0188000Y0180000D03*
X0205000Y0198500D03*
X0291000Y0227000D03*
X0301000Y0227000D03*
X0311000Y0227000D03*
X0321000Y0227000D03*
X0316000Y0201000D03*
X0306000Y0201000D03*
X0296000Y0201000D03*
X0326000Y0201000D03*
X0336000Y0201000D03*
X0346000Y0201000D03*
X0346000Y0181000D03*
X0336000Y0181000D03*
X0326000Y0181000D03*
X0316000Y0181000D03*
X0306000Y0181000D03*
X0296000Y0181000D03*
X0386000Y0152000D03*
X0406000Y0181500D03*
X0345000Y0127000D03*
X0326000Y0127000D03*
X0326000Y0106000D03*
X0346000Y0106000D03*
X0166000Y0042000D03*
X0406000Y0241500D03*
X0466000Y0252000D03*
X0466000Y0262000D03*
X0326000Y0261000D03*
X0306000Y0261000D03*
X0286000Y0261000D03*
X0221000Y0256000D03*
X0161000Y0256000D03*
X0048000Y0257500D03*
X0048000Y0247000D03*
D49*
X0049000Y0247026D02*
X0075742Y0247026D01*
X0075742Y0245828D02*
X0049000Y0245828D01*
X0049000Y0244629D02*
X0075742Y0244629D01*
X0075742Y0244345D02*
X0076087Y0244000D01*
X0075742Y0243655D01*
X0075742Y0239345D01*
X0076087Y0239000D01*
X0075742Y0238655D01*
X0075742Y0234345D01*
X0076087Y0234000D01*
X0075742Y0233655D01*
X0075742Y0229345D01*
X0076087Y0229000D01*
X0075742Y0228655D01*
X0075742Y0228500D01*
X0075172Y0228500D01*
X0074172Y0227500D01*
X0073000Y0226328D01*
X0073000Y0206500D01*
X0060828Y0206500D01*
X0051000Y0216328D01*
X0051000Y0223328D01*
X0049000Y0225328D01*
X0049000Y0276900D01*
X0379000Y0276900D01*
X0379000Y0264440D01*
X0377800Y0263240D01*
X0377800Y0259760D01*
X0379000Y0258560D01*
X0379000Y0229820D01*
X0378799Y0230304D01*
X0377904Y0231199D01*
X0376733Y0231684D01*
X0375467Y0231684D01*
X0374296Y0231199D01*
X0373401Y0230304D01*
X0372916Y0229133D01*
X0372916Y0228188D01*
X0371186Y0226500D01*
X0371172Y0226500D01*
X0370595Y0225923D01*
X0370010Y0225353D01*
X0370010Y0225339D01*
X0370000Y0225328D01*
X0370000Y0224512D01*
X0369990Y0223696D01*
X0370000Y0223686D01*
X0370000Y0223328D01*
X0368227Y0221555D01*
X0368227Y0228285D01*
X0367407Y0229105D01*
X0361490Y0229105D01*
X0362155Y0230710D01*
X0362155Y0233754D01*
X0361616Y0235055D01*
X0365172Y0231500D01*
X0368497Y0231500D01*
X0369196Y0230801D01*
X0370367Y0230316D01*
X0371633Y0230316D01*
X0372804Y0230801D01*
X0373699Y0231696D01*
X0374184Y0232867D01*
X0374184Y0234133D01*
X0373699Y0235304D01*
X0372804Y0236199D01*
X0371633Y0236684D01*
X0370367Y0236684D01*
X0369196Y0236199D01*
X0368497Y0235500D01*
X0366828Y0235500D01*
X0360000Y0242328D01*
X0358828Y0243500D01*
X0350172Y0243500D01*
X0349000Y0242328D01*
X0323176Y0216505D01*
X0255817Y0216886D01*
X0255104Y0217599D01*
X0253933Y0218084D01*
X0252667Y0218084D01*
X0252085Y0217843D01*
X0252085Y0223757D01*
X0251265Y0224577D01*
X0244593Y0224577D01*
X0243773Y0223757D01*
X0243773Y0214723D01*
X0244593Y0213903D01*
X0246000Y0213903D01*
X0245601Y0213504D01*
X0245116Y0212333D01*
X0245116Y0212213D01*
X0238828Y0218500D01*
X0232172Y0218500D01*
X0231073Y0217402D01*
X0230699Y0218304D01*
X0229804Y0219199D01*
X0228633Y0219684D01*
X0227367Y0219684D01*
X0226196Y0219199D01*
X0225497Y0218500D01*
X0218942Y0218500D01*
X0219381Y0218939D01*
X0219381Y0224061D01*
X0218561Y0224881D01*
X0213439Y0224881D01*
X0212619Y0224061D01*
X0212619Y0223500D01*
X0204942Y0223500D01*
X0204561Y0223881D01*
X0202209Y0223881D01*
X0213644Y0235316D01*
X0214633Y0235316D01*
X0215804Y0235801D01*
X0216699Y0236696D01*
X0217184Y0237867D01*
X0217184Y0239133D01*
X0216699Y0240304D01*
X0215804Y0241199D01*
X0214633Y0241684D01*
X0213367Y0241684D01*
X0212196Y0241199D01*
X0211301Y0240304D01*
X0210816Y0239133D01*
X0210816Y0238144D01*
X0194172Y0221500D01*
X0182172Y0221500D01*
X0181000Y0220328D01*
X0174079Y0213407D01*
X0174079Y0211994D01*
X0172940Y0211994D01*
X0172173Y0211228D01*
X0172173Y0218845D01*
X0174628Y0221300D01*
X0177740Y0221300D01*
X0180200Y0223760D01*
X0180200Y0227240D01*
X0177740Y0229700D01*
X0174260Y0229700D01*
X0171800Y0227240D01*
X0171800Y0224128D01*
X0168173Y0220502D01*
X0168173Y0207404D01*
X0168183Y0207394D01*
X0168183Y0205290D01*
X0169003Y0204470D01*
X0171344Y0204470D01*
X0172142Y0205268D01*
X0172940Y0204470D01*
X0176902Y0204470D01*
X0175679Y0202881D01*
X0173039Y0202881D01*
X0172219Y0202061D01*
X0172219Y0196939D01*
X0173039Y0196119D01*
X0178161Y0196119D01*
X0178800Y0196758D01*
X0179439Y0196119D01*
X0183752Y0196119D01*
X0177584Y0189913D01*
X0177000Y0189328D01*
X0177000Y0189325D01*
X0176997Y0189322D01*
X0177000Y0188498D01*
X0177000Y0182672D01*
X0181142Y0178530D01*
X0169003Y0178530D01*
X0168183Y0177710D01*
X0168183Y0176500D01*
X0161828Y0176500D01*
X0164002Y0178673D01*
X0165096Y0178673D01*
X0165106Y0178683D01*
X0167210Y0178683D01*
X0168030Y0179503D01*
X0168030Y0185781D01*
X0167232Y0186579D01*
X0168030Y0187377D01*
X0168030Y0203497D01*
X0167210Y0204317D01*
X0161326Y0204317D01*
X0160506Y0203497D01*
X0160506Y0196453D01*
X0156876Y0196453D01*
X0148000Y0205328D01*
X0148000Y0226029D01*
X0141534Y0232495D01*
X0141534Y0246804D01*
X0140714Y0247624D01*
X0131286Y0247624D01*
X0130466Y0246804D01*
X0130466Y0238500D01*
X0119940Y0238500D01*
X0117740Y0240700D01*
X0114260Y0240700D01*
X0111800Y0238240D01*
X0111800Y0234760D01*
X0114260Y0232300D01*
X0117740Y0232300D01*
X0119940Y0234500D01*
X0130466Y0234500D01*
X0130466Y0223597D01*
X0131286Y0222777D01*
X0140714Y0222777D01*
X0141534Y0223597D01*
X0141534Y0226839D01*
X0144000Y0224372D01*
X0144000Y0203672D01*
X0145172Y0202500D01*
X0153187Y0194484D01*
X0142143Y0194484D01*
X0141534Y0195094D01*
X0141534Y0209403D01*
X0140714Y0210223D01*
X0131286Y0210223D01*
X0130466Y0209403D01*
X0130466Y0198500D01*
X0119940Y0198500D01*
X0117740Y0200700D01*
X0114260Y0200700D01*
X0111800Y0198240D01*
X0111800Y0194760D01*
X0114260Y0192300D01*
X0117740Y0192300D01*
X0119940Y0194500D01*
X0130466Y0194500D01*
X0130466Y0186196D01*
X0131286Y0185376D01*
X0140714Y0185376D01*
X0141534Y0186196D01*
X0141534Y0190484D01*
X0158156Y0190484D01*
X0155372Y0187700D01*
X0153260Y0187700D01*
X0150800Y0185240D01*
X0150800Y0181760D01*
X0152060Y0180500D01*
X0091000Y0180500D01*
X0091000Y0202300D01*
X0092740Y0202300D01*
X0095200Y0204760D01*
X0095200Y0208240D01*
X0092740Y0210700D01*
X0091043Y0210700D01*
X0087699Y0214043D01*
X0086597Y0214500D01*
X0082479Y0214500D01*
X0082479Y0218655D01*
X0082133Y0219000D01*
X0082479Y0219345D01*
X0082479Y0223655D01*
X0082133Y0224000D01*
X0082479Y0224345D01*
X0082479Y0228655D01*
X0082133Y0229000D01*
X0082479Y0229345D01*
X0082479Y0233655D01*
X0082133Y0234000D01*
X0082479Y0234345D01*
X0082479Y0238655D01*
X0082133Y0239000D01*
X0082479Y0239345D01*
X0082479Y0243655D01*
X0082133Y0244000D01*
X0082479Y0244345D01*
X0082479Y0248655D01*
X0082133Y0249000D01*
X0082479Y0249345D01*
X0082479Y0253655D01*
X0081659Y0254475D01*
X0076562Y0254475D01*
X0075742Y0253655D01*
X0075742Y0249345D01*
X0076087Y0249000D01*
X0075742Y0248655D01*
X0075742Y0244345D01*
X0075742Y0243431D02*
X0049000Y0243431D01*
X0049000Y0242232D02*
X0075742Y0242232D01*
X0075742Y0241034D02*
X0049000Y0241034D01*
X0049000Y0239835D02*
X0075742Y0239835D01*
X0075742Y0238637D02*
X0049000Y0238637D01*
X0049000Y0237438D02*
X0075742Y0237438D01*
X0075742Y0236239D02*
X0049000Y0236239D01*
X0049000Y0235041D02*
X0075742Y0235041D01*
X0075930Y0233842D02*
X0049000Y0233842D01*
X0049000Y0232644D02*
X0075742Y0232644D01*
X0075742Y0231445D02*
X0049000Y0231445D01*
X0049000Y0230247D02*
X0075742Y0230247D01*
X0076039Y0229048D02*
X0049000Y0229048D01*
X0049000Y0227850D02*
X0074521Y0227850D01*
X0073323Y0226651D02*
X0049000Y0226651D01*
X0049000Y0225453D02*
X0073000Y0225453D01*
X0073000Y0224254D02*
X0050074Y0224254D01*
X0051000Y0223056D02*
X0073000Y0223056D01*
X0073000Y0221857D02*
X0051000Y0221857D01*
X0051000Y0220659D02*
X0073000Y0220659D01*
X0073000Y0219460D02*
X0051000Y0219460D01*
X0051000Y0218262D02*
X0073000Y0218262D01*
X0073000Y0217063D02*
X0051000Y0217063D01*
X0051464Y0215865D02*
X0073000Y0215865D01*
X0073000Y0214666D02*
X0052662Y0214666D01*
X0053861Y0213468D02*
X0073000Y0213468D01*
X0073000Y0212269D02*
X0055059Y0212269D01*
X0056258Y0211071D02*
X0073000Y0211071D01*
X0073000Y0209872D02*
X0057456Y0209872D01*
X0058655Y0208674D02*
X0073000Y0208674D01*
X0073000Y0207475D02*
X0059853Y0207475D01*
X0065000Y0196500D02*
X0045000Y0216500D01*
X0042890Y0216500D01*
X0049000Y0215500D02*
X0049000Y0222500D01*
X0045000Y0226500D01*
X0042890Y0226500D01*
X0049000Y0215500D02*
X0067000Y0197500D01*
X0067000Y0192500D01*
X0081000Y0178500D01*
X0157000Y0178500D01*
X0161142Y0182642D01*
X0164268Y0182642D01*
X0164268Y0180673D02*
X0163173Y0180673D01*
X0159000Y0176500D01*
X0080000Y0176500D01*
X0065000Y0191500D01*
X0065000Y0196500D01*
X0063000Y0195500D02*
X0047000Y0211500D01*
X0042890Y0211500D01*
X0042890Y0206500D02*
X0045000Y0206500D01*
X0047000Y0204500D01*
X0047000Y0193500D01*
X0045000Y0191500D01*
X0063000Y0190500D02*
X0063000Y0195500D01*
X0063000Y0190500D02*
X0079000Y0174500D01*
X0169906Y0174500D01*
X0170173Y0174768D01*
X0172142Y0174768D02*
X0172142Y0151642D01*
X0170800Y0150500D01*
X0168845Y0151145D02*
X0151000Y0151145D01*
X0151000Y0149947D02*
X0168749Y0149947D01*
X0168740Y0149835D02*
X0168900Y0149647D01*
X0168900Y0125398D01*
X0168774Y0125264D01*
X0168828Y0123608D01*
X0172609Y0120063D01*
X0173172Y0119500D01*
X0173209Y0119500D01*
X0173236Y0119474D01*
X0174032Y0119500D01*
X0183443Y0119500D01*
X0186956Y0123013D01*
X0187836Y0123013D01*
X0181923Y0117100D01*
X0168483Y0117100D01*
X0167527Y0116704D01*
X0166796Y0115973D01*
X0166796Y0115973D01*
X0166523Y0115700D01*
X0164260Y0115700D01*
X0161800Y0113240D01*
X0161800Y0109760D01*
X0164260Y0107300D01*
X0167740Y0107300D01*
X0170200Y0109760D01*
X0170200Y0111900D01*
X0181214Y0111900D01*
X0181214Y0103479D01*
X0182034Y0102659D01*
X0188312Y0102659D01*
X0189132Y0103479D01*
X0189132Y0112119D01*
X0188312Y0112939D01*
X0185116Y0112939D01*
X0185204Y0113027D01*
X0193204Y0121027D01*
X0193600Y0121983D01*
X0193600Y0128017D01*
X0193204Y0128973D01*
X0192473Y0129704D01*
X0189309Y0132868D01*
X0189309Y0137923D01*
X0189093Y0138444D01*
X0189093Y0139167D01*
X0188273Y0139987D01*
X0187271Y0139987D01*
X0187226Y0140005D01*
X0186191Y0140005D01*
X0186146Y0139987D01*
X0185145Y0139987D01*
X0184324Y0139167D01*
X0184324Y0138444D01*
X0184109Y0137923D01*
X0184109Y0130983D01*
X0184324Y0130462D01*
X0184324Y0129739D01*
X0185145Y0128919D01*
X0185904Y0128919D01*
X0186647Y0128176D01*
X0185145Y0128176D01*
X0184324Y0127355D01*
X0184324Y0126039D01*
X0181786Y0123500D01*
X0177342Y0123500D01*
X0177676Y0123833D01*
X0177676Y0125150D01*
X0178841Y0126316D01*
X0179633Y0126316D01*
X0180804Y0126801D01*
X0181699Y0127696D01*
X0182184Y0128867D01*
X0182184Y0130133D01*
X0181699Y0131304D01*
X0180804Y0132199D01*
X0179633Y0132684D01*
X0178367Y0132684D01*
X0177676Y0132398D01*
X0177676Y0133261D01*
X0177291Y0133645D01*
X0177291Y0134037D01*
X0176504Y0134824D01*
X0176855Y0134824D01*
X0177676Y0135645D01*
X0177676Y0136961D01*
X0178230Y0137516D01*
X0178633Y0137516D01*
X0179804Y0138001D01*
X0180699Y0138896D01*
X0181184Y0140067D01*
X0181184Y0141333D01*
X0180699Y0142504D01*
X0179804Y0143399D01*
X0179561Y0143500D01*
X0198997Y0143500D01*
X0198801Y0143304D01*
X0198316Y0142133D01*
X0198316Y0140867D01*
X0198801Y0139696D01*
X0199696Y0138801D01*
X0200867Y0138316D01*
X0202133Y0138316D01*
X0202432Y0138439D01*
X0202631Y0138240D01*
X0202631Y0136010D01*
X0200794Y0136010D01*
X0199974Y0135190D01*
X0199974Y0128641D01*
X0199699Y0129304D01*
X0198804Y0130199D01*
X0197633Y0130684D01*
X0196367Y0130684D01*
X0195196Y0130199D01*
X0194301Y0129304D01*
X0193816Y0128133D01*
X0193816Y0126867D01*
X0194301Y0125696D01*
X0195196Y0124801D01*
X0196367Y0124316D01*
X0197356Y0124316D01*
X0197979Y0123693D01*
X0200115Y0123693D01*
X0200893Y0122915D01*
X0200912Y0122915D01*
X0200301Y0122304D01*
X0199816Y0121133D01*
X0199816Y0119867D01*
X0200301Y0118696D01*
X0201196Y0117801D01*
X0202367Y0117316D01*
X0203633Y0117316D01*
X0204804Y0117801D01*
X0205280Y0118276D01*
X0205280Y0112939D01*
X0203688Y0112939D01*
X0202868Y0112119D01*
X0202868Y0103479D01*
X0203688Y0102659D01*
X0209966Y0102659D01*
X0210000Y0102693D01*
X0210000Y0101202D01*
X0209138Y0100341D01*
X0203688Y0100341D01*
X0202868Y0099521D01*
X0202868Y0090881D01*
X0203688Y0090061D01*
X0209966Y0090061D01*
X0210786Y0090881D01*
X0210786Y0096331D01*
X0214000Y0099546D01*
X0214000Y0114328D01*
X0212828Y0115500D01*
X0211839Y0116490D01*
X0211839Y0123646D01*
X0211928Y0123735D01*
X0211928Y0127651D01*
X0211897Y0127681D01*
X0212026Y0127810D01*
X0212026Y0135190D01*
X0211897Y0135319D01*
X0211928Y0135349D01*
X0211928Y0136568D01*
X0212000Y0136640D01*
X0212000Y0140500D01*
X0225828Y0140500D01*
X0227000Y0141672D01*
X0238828Y0153500D01*
X0299172Y0153500D01*
X0311165Y0141506D01*
X0306522Y0141506D01*
X0305702Y0140686D01*
X0305702Y0132440D01*
X0305874Y0132268D01*
X0305874Y0121200D01*
X0285065Y0121200D01*
X0283375Y0120500D01*
X0282604Y0120500D01*
X0281134Y0119891D01*
X0280009Y0118766D01*
X0279400Y0117296D01*
X0279400Y0115704D01*
X0280009Y0114234D01*
X0281134Y0113109D01*
X0282604Y0112500D01*
X0283375Y0112500D01*
X0285065Y0111800D01*
X0357935Y0111800D01*
X0359662Y0112516D01*
X0360984Y0113838D01*
X0371984Y0124838D01*
X0372700Y0126565D01*
X0372700Y0193553D01*
X0375947Y0196800D01*
X0379000Y0196800D01*
X0379000Y0031100D01*
X0151000Y0031100D01*
X0151000Y0161500D01*
X0091000Y0161500D01*
X0091000Y0172500D01*
X0168183Y0172500D01*
X0168183Y0171826D01*
X0169003Y0171006D01*
X0170142Y0171006D01*
X0170142Y0152566D01*
X0168873Y0151486D01*
X0168740Y0149835D01*
X0168900Y0148748D02*
X0151000Y0148748D01*
X0151000Y0147550D02*
X0168900Y0147550D01*
X0168900Y0146351D02*
X0151000Y0146351D01*
X0151000Y0145153D02*
X0168900Y0145153D01*
X0168900Y0143954D02*
X0151000Y0143954D01*
X0151000Y0142756D02*
X0168900Y0142756D01*
X0168900Y0141557D02*
X0151000Y0141557D01*
X0151000Y0140359D02*
X0168900Y0140359D01*
X0168900Y0139160D02*
X0151000Y0139160D01*
X0151000Y0137962D02*
X0168900Y0137962D01*
X0168900Y0136763D02*
X0151000Y0136763D01*
X0151000Y0135565D02*
X0168900Y0135565D01*
X0168900Y0134366D02*
X0151000Y0134366D01*
X0151000Y0133168D02*
X0168900Y0133168D01*
X0168900Y0131969D02*
X0151000Y0131969D01*
X0151000Y0130770D02*
X0168900Y0130770D01*
X0168900Y0129572D02*
X0151000Y0129572D01*
X0151000Y0128373D02*
X0168900Y0128373D01*
X0168900Y0127175D02*
X0151000Y0127175D01*
X0151000Y0125976D02*
X0168900Y0125976D01*
X0168790Y0124778D02*
X0151000Y0124778D01*
X0151000Y0123579D02*
X0168858Y0123579D01*
X0170136Y0122381D02*
X0151000Y0122381D01*
X0151000Y0121182D02*
X0171415Y0121182D01*
X0172688Y0119984D02*
X0151000Y0119984D01*
X0151000Y0118785D02*
X0183608Y0118785D01*
X0183926Y0119984D02*
X0184807Y0119984D01*
X0185125Y0121182D02*
X0186005Y0121182D01*
X0186323Y0122381D02*
X0187204Y0122381D01*
X0186709Y0125594D02*
X0182614Y0121500D01*
X0174000Y0121500D01*
X0170800Y0124500D01*
X0175291Y0125594D02*
X0179000Y0129303D01*
X0179000Y0129500D01*
X0181920Y0130770D02*
X0184197Y0130770D01*
X0184109Y0131969D02*
X0181034Y0131969D01*
X0182184Y0129572D02*
X0184491Y0129572D01*
X0186450Y0128373D02*
X0181980Y0128373D01*
X0181178Y0127175D02*
X0184324Y0127175D01*
X0184262Y0125976D02*
X0178502Y0125976D01*
X0177676Y0124778D02*
X0183064Y0124778D01*
X0181865Y0123579D02*
X0177422Y0123579D01*
X0182410Y0117587D02*
X0151000Y0117587D01*
X0151000Y0116388D02*
X0167211Y0116388D01*
X0163750Y0115190D02*
X0151000Y0115190D01*
X0151000Y0113991D02*
X0162552Y0113991D01*
X0161800Y0112793D02*
X0151000Y0112793D01*
X0151000Y0111594D02*
X0161800Y0111594D01*
X0161800Y0110396D02*
X0151000Y0110396D01*
X0151000Y0109197D02*
X0162363Y0109197D01*
X0163562Y0107999D02*
X0151000Y0107999D01*
X0151000Y0106800D02*
X0181214Y0106800D01*
X0181214Y0105602D02*
X0151000Y0105602D01*
X0151000Y0104403D02*
X0181214Y0104403D01*
X0181489Y0103205D02*
X0151000Y0103205D01*
X0151000Y0102006D02*
X0210000Y0102006D01*
X0209605Y0100808D02*
X0151000Y0100808D01*
X0151000Y0099609D02*
X0181303Y0099609D01*
X0181214Y0099521D02*
X0182034Y0100341D01*
X0188312Y0100341D01*
X0189132Y0099521D01*
X0189132Y0090881D01*
X0188312Y0090061D01*
X0182034Y0090061D01*
X0181214Y0090881D01*
X0181214Y0099521D01*
X0181214Y0098411D02*
X0151000Y0098411D01*
X0151000Y0097212D02*
X0181214Y0097212D01*
X0181214Y0096014D02*
X0151000Y0096014D01*
X0151000Y0094815D02*
X0181214Y0094815D01*
X0181214Y0093617D02*
X0151000Y0093617D01*
X0151000Y0092418D02*
X0181214Y0092418D01*
X0181214Y0091220D02*
X0151000Y0091220D01*
X0151000Y0090021D02*
X0265278Y0090021D01*
X0264080Y0088823D02*
X0151000Y0088823D01*
X0151000Y0087624D02*
X0262881Y0087624D01*
X0261683Y0086426D02*
X0151000Y0086426D01*
X0151000Y0085227D02*
X0260484Y0085227D01*
X0259286Y0084029D02*
X0151000Y0084029D01*
X0151000Y0082830D02*
X0258087Y0082830D01*
X0256889Y0081632D02*
X0151000Y0081632D01*
X0151000Y0080433D02*
X0255690Y0080433D01*
X0254492Y0079234D02*
X0151000Y0079234D01*
X0151000Y0078036D02*
X0253293Y0078036D01*
X0252095Y0076837D02*
X0151000Y0076837D01*
X0151000Y0075639D02*
X0250896Y0075639D01*
X0249698Y0074440D02*
X0151000Y0074440D01*
X0151000Y0073242D02*
X0248499Y0073242D01*
X0247301Y0072043D02*
X0151000Y0072043D01*
X0151000Y0070845D02*
X0246102Y0070845D01*
X0244904Y0069646D02*
X0151000Y0069646D01*
X0151000Y0068448D02*
X0186783Y0068448D01*
X0185667Y0067985D02*
X0183515Y0065833D01*
X0182350Y0063022D01*
X0182350Y0059978D01*
X0183515Y0057167D01*
X0185667Y0055015D01*
X0188478Y0053850D01*
X0191522Y0053850D01*
X0194333Y0055015D01*
X0196485Y0057167D01*
X0197650Y0059978D01*
X0197650Y0063022D01*
X0196485Y0065833D01*
X0194333Y0067985D01*
X0191522Y0069150D01*
X0188478Y0069150D01*
X0185667Y0067985D01*
X0184931Y0067249D02*
X0151000Y0067249D01*
X0151000Y0066051D02*
X0183732Y0066051D01*
X0183108Y0064852D02*
X0151000Y0064852D01*
X0151000Y0063654D02*
X0182612Y0063654D01*
X0182350Y0062455D02*
X0151000Y0062455D01*
X0151000Y0061257D02*
X0182350Y0061257D01*
X0182350Y0060058D02*
X0151000Y0060058D01*
X0151000Y0058860D02*
X0182813Y0058860D01*
X0183310Y0057661D02*
X0151000Y0057661D01*
X0151000Y0056463D02*
X0184218Y0056463D01*
X0185417Y0055264D02*
X0151000Y0055264D01*
X0151000Y0054066D02*
X0187957Y0054066D01*
X0192043Y0054066D02*
X0239957Y0054066D01*
X0240478Y0053850D02*
X0243522Y0053850D01*
X0246333Y0055015D01*
X0248485Y0057167D01*
X0249650Y0059978D01*
X0249650Y0063022D01*
X0248805Y0065062D01*
X0286243Y0102500D01*
X0289396Y0102500D01*
X0290866Y0103109D01*
X0291991Y0104234D01*
X0292600Y0105704D01*
X0292600Y0107296D01*
X0291991Y0108766D01*
X0290866Y0109891D01*
X0289396Y0110500D01*
X0282604Y0110500D01*
X0281134Y0109891D01*
X0280009Y0108766D01*
X0279400Y0107296D01*
X0279400Y0105704D01*
X0279857Y0104600D01*
X0244148Y0068891D01*
X0243522Y0069150D01*
X0240478Y0069150D01*
X0237667Y0067985D01*
X0235515Y0065833D01*
X0234350Y0063022D01*
X0234350Y0059978D01*
X0235515Y0057167D01*
X0237667Y0055015D01*
X0240478Y0053850D01*
X0237417Y0055264D02*
X0194583Y0055264D01*
X0195782Y0056463D02*
X0236218Y0056463D01*
X0235310Y0057661D02*
X0196690Y0057661D01*
X0197187Y0058860D02*
X0234813Y0058860D01*
X0234350Y0060058D02*
X0197650Y0060058D01*
X0197650Y0061257D02*
X0234350Y0061257D01*
X0234350Y0062455D02*
X0197650Y0062455D01*
X0197388Y0063654D02*
X0234612Y0063654D01*
X0235108Y0064852D02*
X0196892Y0064852D01*
X0196268Y0066051D02*
X0235732Y0066051D01*
X0236931Y0067249D02*
X0195069Y0067249D01*
X0193217Y0068448D02*
X0238783Y0068448D01*
X0248892Y0064852D02*
X0379000Y0064852D01*
X0379000Y0063654D02*
X0249388Y0063654D01*
X0249650Y0062455D02*
X0379000Y0062455D01*
X0379000Y0061257D02*
X0249650Y0061257D01*
X0249650Y0060058D02*
X0379000Y0060058D01*
X0379000Y0058860D02*
X0249187Y0058860D01*
X0248690Y0057661D02*
X0379000Y0057661D01*
X0379000Y0056463D02*
X0247782Y0056463D01*
X0246583Y0055264D02*
X0379000Y0055264D01*
X0379000Y0054066D02*
X0244043Y0054066D01*
X0249794Y0066051D02*
X0379000Y0066051D01*
X0379000Y0067249D02*
X0250992Y0067249D01*
X0252191Y0068448D02*
X0379000Y0068448D01*
X0379000Y0069646D02*
X0253389Y0069646D01*
X0254588Y0070845D02*
X0379000Y0070845D01*
X0379000Y0072043D02*
X0255786Y0072043D01*
X0256985Y0073242D02*
X0379000Y0073242D01*
X0379000Y0074440D02*
X0258183Y0074440D01*
X0259382Y0075639D02*
X0379000Y0075639D01*
X0379000Y0076837D02*
X0260580Y0076837D01*
X0261779Y0078036D02*
X0379000Y0078036D01*
X0379000Y0079234D02*
X0262977Y0079234D01*
X0264176Y0080433D02*
X0379000Y0080433D01*
X0379000Y0081632D02*
X0265374Y0081632D01*
X0266573Y0082830D02*
X0379000Y0082830D01*
X0379000Y0084029D02*
X0267771Y0084029D01*
X0268970Y0085227D02*
X0379000Y0085227D01*
X0379000Y0086426D02*
X0270168Y0086426D01*
X0271367Y0087624D02*
X0379000Y0087624D01*
X0379000Y0088823D02*
X0272565Y0088823D01*
X0273764Y0090021D02*
X0379000Y0090021D01*
X0379000Y0091220D02*
X0274962Y0091220D01*
X0276161Y0092418D02*
X0379000Y0092418D01*
X0379000Y0093617D02*
X0277359Y0093617D01*
X0278558Y0094815D02*
X0379000Y0094815D01*
X0379000Y0096014D02*
X0279756Y0096014D01*
X0280955Y0097212D02*
X0379000Y0097212D01*
X0379000Y0098411D02*
X0282153Y0098411D01*
X0283352Y0099609D02*
X0379000Y0099609D01*
X0379000Y0100808D02*
X0284550Y0100808D01*
X0285749Y0102006D02*
X0379000Y0102006D01*
X0379000Y0103205D02*
X0290962Y0103205D01*
X0292061Y0104403D02*
X0379000Y0104403D01*
X0379000Y0105602D02*
X0292557Y0105602D01*
X0292600Y0106800D02*
X0379000Y0106800D01*
X0379000Y0107999D02*
X0292309Y0107999D01*
X0291560Y0109197D02*
X0379000Y0109197D01*
X0379000Y0110396D02*
X0289647Y0110396D01*
X0282353Y0110396D02*
X0259647Y0110396D01*
X0259400Y0110498D02*
X0259400Y0112502D01*
X0260866Y0113109D01*
X0261991Y0114234D01*
X0262600Y0115704D01*
X0262600Y0117296D01*
X0261991Y0118766D01*
X0260866Y0119891D01*
X0259396Y0120500D01*
X0252604Y0120500D01*
X0251134Y0119891D01*
X0250009Y0118766D01*
X0249400Y0117296D01*
X0249400Y0115704D01*
X0250009Y0114234D01*
X0251134Y0113109D01*
X0252600Y0112502D01*
X0252600Y0110498D01*
X0251156Y0109900D01*
X0242408Y0109900D01*
X0234400Y0117908D01*
X0234400Y0121960D01*
X0235200Y0122760D01*
X0235200Y0126240D01*
X0232740Y0128700D01*
X0229260Y0128700D01*
X0226800Y0126240D01*
X0226800Y0122760D01*
X0227600Y0121960D01*
X0227600Y0115824D01*
X0228118Y0114574D01*
X0236192Y0106500D01*
X0236092Y0106400D01*
X0235025Y0106400D01*
X0233224Y0105654D01*
X0231846Y0104276D01*
X0231100Y0102475D01*
X0231100Y0100525D01*
X0231846Y0098724D01*
X0233224Y0097346D01*
X0235025Y0096600D01*
X0236975Y0096600D01*
X0238776Y0097346D01*
X0240154Y0098724D01*
X0240900Y0100525D01*
X0240900Y0101592D01*
X0242408Y0103100D01*
X0251156Y0103100D01*
X0252604Y0102500D01*
X0259396Y0102500D01*
X0260866Y0103109D01*
X0261991Y0104234D01*
X0262600Y0105704D01*
X0262600Y0107296D01*
X0261991Y0108766D01*
X0260866Y0109891D01*
X0259400Y0110498D01*
X0259400Y0111594D02*
X0379000Y0111594D01*
X0379000Y0112793D02*
X0359940Y0112793D01*
X0361138Y0113991D02*
X0379000Y0113991D01*
X0379000Y0115190D02*
X0362337Y0115190D01*
X0363535Y0116388D02*
X0379000Y0116388D01*
X0379000Y0117587D02*
X0364734Y0117587D01*
X0365932Y0118785D02*
X0379000Y0118785D01*
X0379000Y0119984D02*
X0367131Y0119984D01*
X0368329Y0121182D02*
X0379000Y0121182D01*
X0379000Y0122381D02*
X0369528Y0122381D01*
X0370726Y0123579D02*
X0379000Y0123579D01*
X0379000Y0124778D02*
X0371925Y0124778D01*
X0372456Y0125976D02*
X0379000Y0125976D01*
X0379000Y0127175D02*
X0372700Y0127175D01*
X0372700Y0128373D02*
X0379000Y0128373D01*
X0379000Y0129572D02*
X0372700Y0129572D01*
X0372700Y0130770D02*
X0379000Y0130770D01*
X0379000Y0131969D02*
X0372700Y0131969D01*
X0372700Y0133168D02*
X0379000Y0133168D01*
X0379000Y0134366D02*
X0372700Y0134366D01*
X0372700Y0135565D02*
X0379000Y0135565D01*
X0379000Y0136763D02*
X0372700Y0136763D01*
X0372700Y0137962D02*
X0379000Y0137962D01*
X0379000Y0139160D02*
X0372700Y0139160D01*
X0372700Y0140359D02*
X0379000Y0140359D01*
X0379000Y0141557D02*
X0372700Y0141557D01*
X0372700Y0142756D02*
X0379000Y0142756D01*
X0379000Y0143954D02*
X0372700Y0143954D01*
X0372700Y0145153D02*
X0379000Y0145153D01*
X0379000Y0146351D02*
X0372700Y0146351D01*
X0372700Y0147550D02*
X0379000Y0147550D01*
X0379000Y0148748D02*
X0372700Y0148748D01*
X0372700Y0149947D02*
X0379000Y0149947D01*
X0379000Y0151145D02*
X0372700Y0151145D01*
X0372700Y0152344D02*
X0379000Y0152344D01*
X0379000Y0153542D02*
X0372700Y0153542D01*
X0372700Y0154741D02*
X0379000Y0154741D01*
X0379000Y0155939D02*
X0372700Y0155939D01*
X0372700Y0157138D02*
X0379000Y0157138D01*
X0379000Y0158336D02*
X0372700Y0158336D01*
X0372700Y0159535D02*
X0379000Y0159535D01*
X0379000Y0160733D02*
X0372700Y0160733D01*
X0372700Y0161932D02*
X0379000Y0161932D01*
X0379000Y0163130D02*
X0372700Y0163130D01*
X0372700Y0164329D02*
X0379000Y0164329D01*
X0379000Y0165527D02*
X0372700Y0165527D01*
X0372700Y0166726D02*
X0379000Y0166726D01*
X0379000Y0167924D02*
X0372700Y0167924D01*
X0372700Y0169123D02*
X0379000Y0169123D01*
X0379000Y0170321D02*
X0372700Y0170321D01*
X0372700Y0171520D02*
X0379000Y0171520D01*
X0379000Y0172718D02*
X0372700Y0172718D01*
X0372700Y0173917D02*
X0379000Y0173917D01*
X0379000Y0175115D02*
X0372700Y0175115D01*
X0372700Y0176314D02*
X0379000Y0176314D01*
X0379000Y0177512D02*
X0372700Y0177512D01*
X0372700Y0178711D02*
X0379000Y0178711D01*
X0379000Y0179909D02*
X0372700Y0179909D01*
X0372700Y0181108D02*
X0379000Y0181108D01*
X0379000Y0182306D02*
X0372700Y0182306D01*
X0372700Y0183505D02*
X0379000Y0183505D01*
X0379000Y0184703D02*
X0372700Y0184703D01*
X0372700Y0185902D02*
X0379000Y0185902D01*
X0379000Y0187101D02*
X0372700Y0187101D01*
X0372700Y0188299D02*
X0379000Y0188299D01*
X0379000Y0189498D02*
X0372700Y0189498D01*
X0372700Y0190696D02*
X0379000Y0190696D01*
X0379000Y0191895D02*
X0372700Y0191895D01*
X0372700Y0193093D02*
X0379000Y0193093D01*
X0379000Y0194292D02*
X0373438Y0194292D01*
X0374637Y0195490D02*
X0379000Y0195490D01*
X0379000Y0196689D02*
X0375835Y0196689D01*
X0379000Y0199000D02*
X0379000Y0204100D01*
X0395000Y0204100D01*
X0404000Y0195500D01*
X0404000Y0190500D01*
X0397000Y0190500D01*
X0389000Y0199000D01*
X0379000Y0199000D01*
X0379000Y0199086D02*
X0400248Y0199086D01*
X0401502Y0197887D02*
X0390047Y0197887D01*
X0391175Y0196689D02*
X0402756Y0196689D01*
X0404000Y0195490D02*
X0392303Y0195490D01*
X0393431Y0194292D02*
X0404000Y0194292D01*
X0404000Y0193093D02*
X0394559Y0193093D01*
X0395687Y0191895D02*
X0404000Y0191895D01*
X0404000Y0190696D02*
X0396815Y0190696D01*
X0395000Y0188500D02*
X0391000Y0192500D01*
X0390000Y0192500D01*
X0390000Y0186500D01*
X0402000Y0186500D01*
X0402000Y0188500D01*
X0395000Y0188500D01*
X0394002Y0189498D02*
X0390000Y0189498D01*
X0390000Y0190696D02*
X0392804Y0190696D01*
X0391605Y0191895D02*
X0390000Y0191895D01*
X0390000Y0188299D02*
X0402000Y0188299D01*
X0402000Y0187101D02*
X0390000Y0187101D01*
X0390000Y0176500D02*
X0390000Y0170500D01*
X0398000Y0170500D01*
X0402000Y0174500D01*
X0402000Y0176500D01*
X0390000Y0176500D01*
X0390000Y0176314D02*
X0402000Y0176314D01*
X0402000Y0175115D02*
X0390000Y0175115D01*
X0390000Y0173917D02*
X0401417Y0173917D01*
X0400218Y0172718D02*
X0390000Y0172718D01*
X0390000Y0171520D02*
X0399020Y0171520D01*
X0400821Y0170321D02*
X0407179Y0170321D01*
X0408377Y0169123D02*
X0400377Y0169123D01*
X0400000Y0169500D02*
X0418000Y0151500D01*
X0422000Y0155500D01*
X0404000Y0173500D01*
X0400000Y0169500D01*
X0401576Y0167924D02*
X0409576Y0167924D01*
X0410774Y0166726D02*
X0402774Y0166726D01*
X0403973Y0165527D02*
X0411973Y0165527D01*
X0413171Y0164329D02*
X0405171Y0164329D01*
X0406370Y0163130D02*
X0414370Y0163130D01*
X0415568Y0161932D02*
X0407568Y0161932D01*
X0408767Y0160733D02*
X0416767Y0160733D01*
X0417965Y0159535D02*
X0409965Y0159535D01*
X0411164Y0158336D02*
X0419164Y0158336D01*
X0420362Y0157138D02*
X0412362Y0157138D01*
X0413561Y0155939D02*
X0421561Y0155939D01*
X0421241Y0154741D02*
X0414759Y0154741D01*
X0415958Y0153542D02*
X0420042Y0153542D01*
X0419500Y0154000D02*
X0404031Y0169469D01*
X0404031Y0175693D01*
X0406000Y0175693D01*
X0404782Y0172718D02*
X0403218Y0172718D01*
X0402020Y0171520D02*
X0405980Y0171520D01*
X0406000Y0181500D02*
X0407969Y0183469D01*
X0407969Y0187307D01*
X0409937Y0187307D02*
X0416807Y0187307D01*
X0419100Y0190000D01*
X0433100Y0190000D01*
X0437000Y0185500D01*
X0437000Y0201500D02*
X0423000Y0201500D01*
X0411000Y0201500D01*
X0406000Y0196500D01*
X0406000Y0187307D01*
X0404031Y0187307D02*
X0404031Y0190469D01*
X0404031Y0199531D01*
X0421000Y0216500D01*
X0440000Y0216500D01*
X0444000Y0212500D01*
X0459000Y0214500D02*
X0459000Y0220500D01*
X0454000Y0225500D01*
X0454000Y0228500D01*
X0462000Y0236500D01*
X0471000Y0236500D01*
X0481000Y0236500D01*
X0471000Y0226500D02*
X0470000Y0227500D01*
X0458000Y0227500D01*
X0437000Y0245500D02*
X0433000Y0250000D01*
X0420000Y0250000D01*
X0417807Y0247307D01*
X0409937Y0247307D01*
X0407969Y0247307D02*
X0407969Y0243469D01*
X0406000Y0241500D01*
X0402000Y0236500D02*
X0402000Y0234500D01*
X0398000Y0230500D01*
X0390000Y0230500D01*
X0390000Y0236500D01*
X0402000Y0236500D01*
X0402000Y0236239D02*
X0390000Y0236239D01*
X0390000Y0235041D02*
X0402000Y0235041D01*
X0401342Y0233842D02*
X0390000Y0233842D01*
X0390000Y0232644D02*
X0400144Y0232644D01*
X0398945Y0231445D02*
X0390000Y0231445D01*
X0400000Y0229500D02*
X0400000Y0228500D01*
X0409000Y0219500D01*
X0417000Y0220500D01*
X0413543Y0223957D01*
X0413196Y0224101D01*
X0412368Y0224929D01*
X0412073Y0224944D01*
X0410961Y0226172D01*
X0410965Y0226248D01*
X0405313Y0231900D01*
X0405172Y0231900D01*
X0404000Y0233072D01*
X0404000Y0233500D01*
X0400000Y0229500D01*
X0400000Y0229048D02*
X0408165Y0229048D01*
X0409363Y0227850D02*
X0400650Y0227850D01*
X0401849Y0226651D02*
X0410562Y0226651D01*
X0411612Y0225453D02*
X0403047Y0225453D01*
X0404031Y0225469D02*
X0408000Y0221500D01*
X0409000Y0221500D01*
X0419000Y0221500D01*
X0416841Y0220659D02*
X0407841Y0220659D01*
X0406643Y0221857D02*
X0415643Y0221857D01*
X0414444Y0223056D02*
X0405444Y0223056D01*
X0404246Y0224254D02*
X0413042Y0224254D01*
X0413000Y0226900D02*
X0415000Y0226800D01*
X0406966Y0230247D02*
X0400747Y0230247D01*
X0401945Y0231445D02*
X0405768Y0231445D01*
X0404428Y0232644D02*
X0403144Y0232644D01*
X0406000Y0233900D02*
X0406000Y0235693D01*
X0404031Y0235693D02*
X0404031Y0225469D01*
X0423000Y0211500D02*
X0423000Y0201500D01*
X0404031Y0190469D02*
X0393000Y0201500D01*
X0395231Y0203880D02*
X0379000Y0203880D01*
X0379000Y0202681D02*
X0396485Y0202681D01*
X0397739Y0201483D02*
X0379000Y0201483D01*
X0379000Y0200284D02*
X0398993Y0200284D01*
X0379000Y0206200D02*
X0373065Y0206200D01*
X0371338Y0205484D01*
X0365338Y0199484D01*
X0364016Y0198162D01*
X0363300Y0196435D01*
X0363300Y0129447D01*
X0355053Y0121200D01*
X0311874Y0121200D01*
X0311874Y0132268D01*
X0312046Y0132440D01*
X0312046Y0140626D01*
X0315545Y0137127D01*
X0315545Y0132440D01*
X0316365Y0131620D01*
X0321068Y0131620D01*
X0321888Y0132440D01*
X0321888Y0140686D01*
X0321068Y0141506D01*
X0316822Y0141506D01*
X0300828Y0157500D01*
X0242828Y0157500D01*
X0244000Y0158672D01*
X0244000Y0174328D01*
X0242828Y0175500D01*
X0239879Y0178449D01*
X0240900Y0179470D01*
X0240900Y0183530D01*
X0239930Y0184500D01*
X0244889Y0184500D01*
X0266089Y0163300D01*
X0273619Y0163300D01*
X0273619Y0162939D01*
X0274439Y0162119D01*
X0279561Y0162119D01*
X0280381Y0162939D01*
X0280381Y0168061D01*
X0279561Y0168881D01*
X0274439Y0168881D01*
X0273619Y0168061D01*
X0273619Y0167700D01*
X0267911Y0167700D01*
X0246911Y0188700D01*
X0245089Y0188700D01*
X0244889Y0188500D01*
X0239930Y0188500D01*
X0240900Y0189470D01*
X0240900Y0193530D01*
X0238030Y0196400D01*
X0233970Y0196400D01*
X0231100Y0193530D01*
X0231100Y0189470D01*
X0232070Y0188500D01*
X0226111Y0188500D01*
X0226033Y0188578D01*
X0233969Y0196602D01*
X0233970Y0196600D01*
X0238030Y0196600D01*
X0240900Y0199470D01*
X0240900Y0203530D01*
X0239930Y0204500D01*
X0364828Y0204500D01*
X0375644Y0215316D01*
X0376633Y0215316D01*
X0377804Y0215801D01*
X0378699Y0216696D01*
X0379000Y0217422D01*
X0379000Y0206200D01*
X0379000Y0206277D02*
X0366605Y0206277D01*
X0367804Y0207475D02*
X0379000Y0207475D01*
X0379000Y0208674D02*
X0369002Y0208674D01*
X0370201Y0209872D02*
X0379000Y0209872D01*
X0379000Y0211071D02*
X0371399Y0211071D01*
X0372598Y0212269D02*
X0379000Y0212269D01*
X0379000Y0213468D02*
X0373796Y0213468D01*
X0374995Y0214666D02*
X0379000Y0214666D01*
X0379000Y0215865D02*
X0377868Y0215865D01*
X0378852Y0217063D02*
X0379000Y0217063D01*
X0376000Y0218500D02*
X0364000Y0206500D01*
X0234000Y0206500D01*
X0231000Y0203500D01*
X0231000Y0199500D01*
X0229000Y0200500D02*
X0229000Y0212500D01*
X0233000Y0216500D01*
X0238000Y0216500D01*
X0246000Y0208500D01*
X0361000Y0208500D01*
X0376000Y0223500D01*
X0372000Y0224500D02*
X0376100Y0228500D01*
X0374890Y0231445D02*
X0373449Y0231445D01*
X0373377Y0230247D02*
X0361963Y0230247D01*
X0362155Y0231445D02*
X0368551Y0231445D01*
X0367463Y0229048D02*
X0372916Y0229048D01*
X0372570Y0227850D02*
X0368227Y0227850D01*
X0368227Y0226651D02*
X0371341Y0226651D01*
X0370113Y0225453D02*
X0368227Y0225453D01*
X0368227Y0224254D02*
X0369997Y0224254D01*
X0369727Y0223056D02*
X0368227Y0223056D01*
X0368227Y0221857D02*
X0368529Y0221857D01*
X0372000Y0222500D02*
X0372000Y0224500D01*
X0372000Y0222500D02*
X0361000Y0211500D01*
X0248300Y0211700D01*
X0245116Y0212269D02*
X0245059Y0212269D01*
X0245586Y0213468D02*
X0243861Y0213468D01*
X0243830Y0214666D02*
X0242662Y0214666D01*
X0243773Y0215865D02*
X0241464Y0215865D01*
X0240265Y0217063D02*
X0243773Y0217063D01*
X0243773Y0218262D02*
X0239067Y0218262D01*
X0243773Y0219460D02*
X0229174Y0219460D01*
X0230717Y0218262D02*
X0231933Y0218262D01*
X0228000Y0216500D02*
X0183000Y0216500D01*
X0178047Y0211547D01*
X0178047Y0208232D01*
X0176079Y0208232D02*
X0176079Y0212579D01*
X0183000Y0219500D01*
X0195000Y0219500D01*
X0214000Y0238500D01*
X0216243Y0236239D02*
X0233810Y0236239D01*
X0233970Y0236400D02*
X0231100Y0233530D01*
X0231100Y0229470D01*
X0233970Y0226600D01*
X0238030Y0226600D01*
X0240900Y0229470D01*
X0240900Y0233530D01*
X0238030Y0236400D01*
X0233970Y0236400D01*
X0232611Y0235041D02*
X0225399Y0235041D01*
X0224740Y0235700D02*
X0221260Y0235700D01*
X0218800Y0233240D01*
X0218800Y0229760D01*
X0221260Y0227300D01*
X0224740Y0227300D01*
X0227200Y0229760D01*
X0227200Y0233240D01*
X0224740Y0235700D01*
X0226597Y0233842D02*
X0231413Y0233842D01*
X0231100Y0232644D02*
X0227200Y0232644D01*
X0227200Y0231445D02*
X0231100Y0231445D01*
X0231100Y0230247D02*
X0227200Y0230247D01*
X0226488Y0229048D02*
X0231522Y0229048D01*
X0232720Y0227850D02*
X0225290Y0227850D01*
X0220710Y0227850D02*
X0206178Y0227850D01*
X0204980Y0226651D02*
X0233919Y0226651D01*
X0238081Y0226651D02*
X0253753Y0226651D01*
X0254658Y0225746D02*
X0257470Y0224581D01*
X0260514Y0224581D01*
X0263326Y0225746D01*
X0265478Y0227898D01*
X0266643Y0230710D01*
X0266643Y0233754D01*
X0265478Y0236566D01*
X0263326Y0238719D01*
X0260514Y0239883D01*
X0257470Y0239883D01*
X0254658Y0238719D01*
X0252506Y0236566D01*
X0251341Y0233754D01*
X0251341Y0230710D01*
X0252506Y0227898D01*
X0254658Y0225746D01*
X0255366Y0225453D02*
X0203781Y0225453D01*
X0202583Y0224254D02*
X0212812Y0224254D01*
X0216000Y0221500D02*
X0203000Y0221500D01*
X0202000Y0220500D01*
X0195727Y0223056D02*
X0179496Y0223056D01*
X0180200Y0224254D02*
X0196926Y0224254D01*
X0198124Y0225453D02*
X0180200Y0225453D01*
X0180200Y0226651D02*
X0199323Y0226651D01*
X0200521Y0227850D02*
X0179590Y0227850D01*
X0178391Y0229048D02*
X0201720Y0229048D01*
X0202919Y0230247D02*
X0143782Y0230247D01*
X0142584Y0231445D02*
X0204117Y0231445D01*
X0205316Y0232644D02*
X0141534Y0232644D01*
X0141534Y0233842D02*
X0206514Y0233842D01*
X0207713Y0235041D02*
X0141534Y0235041D01*
X0141534Y0236239D02*
X0208911Y0236239D01*
X0210110Y0237438D02*
X0141534Y0237438D01*
X0141534Y0238637D02*
X0210816Y0238637D01*
X0211106Y0239835D02*
X0141534Y0239835D01*
X0141534Y0241034D02*
X0212030Y0241034D01*
X0215970Y0241034D02*
X0347705Y0241034D01*
X0348904Y0242232D02*
X0141534Y0242232D01*
X0141534Y0243431D02*
X0350102Y0243431D01*
X0349000Y0242328D02*
X0349000Y0242328D01*
X0351000Y0241500D02*
X0324000Y0214500D01*
X0253300Y0214900D01*
X0255640Y0217063D02*
X0323735Y0217063D01*
X0324933Y0218262D02*
X0252085Y0218262D01*
X0252085Y0219460D02*
X0326132Y0219460D01*
X0327330Y0220659D02*
X0252085Y0220659D01*
X0252085Y0221857D02*
X0328529Y0221857D01*
X0329727Y0223056D02*
X0252085Y0223056D01*
X0251588Y0224254D02*
X0330926Y0224254D01*
X0332124Y0225453D02*
X0262619Y0225453D01*
X0264232Y0226651D02*
X0333323Y0226651D01*
X0334521Y0227850D02*
X0265430Y0227850D01*
X0265955Y0229048D02*
X0335720Y0229048D01*
X0336919Y0230247D02*
X0266451Y0230247D01*
X0266643Y0231445D02*
X0338117Y0231445D01*
X0339316Y0232644D02*
X0266643Y0232644D01*
X0266607Y0233842D02*
X0340514Y0233842D01*
X0341713Y0235041D02*
X0266110Y0235041D01*
X0265614Y0236239D02*
X0342911Y0236239D01*
X0344110Y0237438D02*
X0264607Y0237438D01*
X0263408Y0238637D02*
X0345308Y0238637D01*
X0346507Y0239835D02*
X0260631Y0239835D01*
X0257353Y0239835D02*
X0216894Y0239835D01*
X0217184Y0238637D02*
X0254576Y0238637D01*
X0253377Y0237438D02*
X0217007Y0237438D01*
X0220601Y0235041D02*
X0213369Y0235041D01*
X0212171Y0233842D02*
X0219403Y0233842D01*
X0218800Y0232644D02*
X0210972Y0232644D01*
X0209774Y0231445D02*
X0218800Y0231445D01*
X0218800Y0230247D02*
X0208575Y0230247D01*
X0207377Y0229048D02*
X0219512Y0229048D01*
X0219188Y0224254D02*
X0244271Y0224254D01*
X0243773Y0223056D02*
X0219381Y0223056D01*
X0219381Y0221857D02*
X0243773Y0221857D01*
X0243773Y0220659D02*
X0219381Y0220659D01*
X0219381Y0219460D02*
X0226826Y0219460D01*
X0223500Y0212500D02*
X0191000Y0212500D01*
X0189900Y0211400D01*
X0192094Y0208500D02*
X0219000Y0208500D01*
X0225000Y0204500D02*
X0195000Y0204600D01*
X0179000Y0188500D01*
X0179000Y0183500D01*
X0184000Y0178500D01*
X0184000Y0174815D01*
X0183953Y0174768D01*
X0185921Y0174768D02*
X0185921Y0171421D01*
X0185000Y0170500D01*
X0185000Y0167500D01*
X0188000Y0164500D01*
X0185121Y0163130D02*
X0180047Y0163130D01*
X0180047Y0161932D02*
X0186065Y0161932D01*
X0186196Y0161801D02*
X0187367Y0161316D01*
X0188633Y0161316D01*
X0189804Y0161801D01*
X0189827Y0161824D01*
X0189827Y0159266D01*
X0189800Y0159240D01*
X0189800Y0155760D01*
X0192260Y0153300D01*
X0195740Y0153300D01*
X0198200Y0155760D01*
X0198200Y0159240D01*
X0195740Y0161700D01*
X0193827Y0161700D01*
X0193827Y0175596D01*
X0193817Y0175606D01*
X0193817Y0177710D01*
X0192997Y0178530D01*
X0190656Y0178530D01*
X0189858Y0177732D01*
X0189060Y0178530D01*
X0186000Y0178530D01*
X0186000Y0179328D01*
X0184828Y0180500D01*
X0183902Y0181427D01*
X0184804Y0181801D01*
X0185503Y0182500D01*
X0187455Y0182500D01*
X0189313Y0180642D01*
X0193970Y0180642D01*
X0193970Y0179503D01*
X0194790Y0178683D01*
X0195732Y0178683D01*
X0195732Y0167939D01*
X0211000Y0152672D01*
X0212172Y0151500D01*
X0220497Y0151500D01*
X0188184Y0151500D01*
X0188184Y0152133D01*
X0187699Y0153304D01*
X0186804Y0154199D01*
X0185633Y0154684D01*
X0184367Y0154684D01*
X0183196Y0154199D01*
X0183163Y0154166D01*
X0180047Y0157281D01*
X0180047Y0171006D01*
X0183000Y0171006D01*
X0183000Y0166672D01*
X0184816Y0164856D01*
X0184816Y0163867D01*
X0185301Y0162696D01*
X0186196Y0161801D01*
X0184816Y0164329D02*
X0180047Y0164329D01*
X0180047Y0165527D02*
X0184144Y0165527D01*
X0183000Y0166726D02*
X0180047Y0166726D01*
X0180047Y0167924D02*
X0183000Y0167924D01*
X0183000Y0169123D02*
X0180047Y0169123D01*
X0180047Y0170321D02*
X0183000Y0170321D01*
X0187890Y0169610D02*
X0188200Y0169000D01*
X0187890Y0169610D02*
X0187890Y0174768D01*
X0189858Y0174768D02*
X0189858Y0178142D01*
X0188000Y0180000D01*
X0188847Y0181108D02*
X0184220Y0181108D01*
X0185310Y0182306D02*
X0187649Y0182306D01*
X0188283Y0184500D02*
X0190142Y0182642D01*
X0197732Y0182642D01*
X0197732Y0184610D02*
X0192890Y0184610D01*
X0191000Y0186500D01*
X0188283Y0184500D02*
X0183000Y0184500D01*
X0185419Y0179909D02*
X0193970Y0179909D01*
X0194762Y0178711D02*
X0186000Y0178711D01*
X0180961Y0178711D02*
X0167238Y0178711D01*
X0168030Y0179909D02*
X0179762Y0179909D01*
X0178564Y0181108D02*
X0168030Y0181108D01*
X0168030Y0182306D02*
X0177365Y0182306D01*
X0177000Y0183505D02*
X0168030Y0183505D01*
X0168030Y0184703D02*
X0177000Y0184703D01*
X0177000Y0185902D02*
X0167909Y0185902D01*
X0167754Y0187101D02*
X0177000Y0187101D01*
X0177000Y0188299D02*
X0168030Y0188299D01*
X0168030Y0189498D02*
X0177169Y0189498D01*
X0178363Y0190696D02*
X0168030Y0190696D01*
X0168030Y0191895D02*
X0179554Y0191895D01*
X0180745Y0193093D02*
X0168030Y0193093D01*
X0168030Y0194292D02*
X0181936Y0194292D01*
X0183127Y0195490D02*
X0168030Y0195490D01*
X0168030Y0196689D02*
X0172469Y0196689D01*
X0172219Y0197887D02*
X0168030Y0197887D01*
X0168030Y0199086D02*
X0172219Y0199086D01*
X0172219Y0200284D02*
X0168030Y0200284D01*
X0168030Y0201483D02*
X0172219Y0201483D01*
X0172839Y0202681D02*
X0168030Y0202681D01*
X0167647Y0203880D02*
X0176447Y0203880D01*
X0180000Y0205217D02*
X0180016Y0208232D01*
X0181984Y0208232D02*
X0182000Y0208217D01*
X0182000Y0199500D01*
X0178869Y0196689D02*
X0178731Y0196689D01*
X0175600Y0199500D02*
X0180000Y0205217D01*
X0172332Y0205078D02*
X0171952Y0205078D01*
X0172142Y0208232D02*
X0172142Y0212642D01*
X0186000Y0225500D01*
X0178297Y0221857D02*
X0194529Y0221857D01*
X0181330Y0220659D02*
X0173987Y0220659D01*
X0172789Y0219460D02*
X0180132Y0219460D01*
X0178933Y0218262D02*
X0172173Y0218262D01*
X0172173Y0217063D02*
X0177735Y0217063D01*
X0176536Y0215865D02*
X0172173Y0215865D01*
X0172173Y0214666D02*
X0175338Y0214666D01*
X0174139Y0213468D02*
X0172173Y0213468D01*
X0172173Y0212269D02*
X0174079Y0212269D01*
X0170173Y0208232D02*
X0170173Y0219673D01*
X0176000Y0225500D01*
X0171800Y0225453D02*
X0148000Y0225453D01*
X0148000Y0224254D02*
X0157674Y0224254D01*
X0158025Y0224400D02*
X0156224Y0223654D01*
X0154846Y0222276D01*
X0154100Y0220475D01*
X0154100Y0218525D01*
X0154846Y0216724D01*
X0156224Y0215346D01*
X0158025Y0214600D01*
X0159975Y0214600D01*
X0161776Y0215346D01*
X0163154Y0216724D01*
X0163900Y0218525D01*
X0163900Y0220475D01*
X0163154Y0222276D01*
X0161776Y0223654D01*
X0159975Y0224400D01*
X0158025Y0224400D01*
X0160326Y0224254D02*
X0171800Y0224254D01*
X0170727Y0223056D02*
X0162374Y0223056D01*
X0163327Y0221857D02*
X0169529Y0221857D01*
X0168330Y0220659D02*
X0163824Y0220659D01*
X0163900Y0219460D02*
X0168173Y0219460D01*
X0168173Y0218262D02*
X0163791Y0218262D01*
X0163294Y0217063D02*
X0168173Y0217063D01*
X0168173Y0215865D02*
X0162294Y0215865D01*
X0161776Y0213654D02*
X0159975Y0214400D01*
X0158025Y0214400D01*
X0156224Y0213654D01*
X0154846Y0212276D01*
X0154100Y0210475D01*
X0154100Y0208525D01*
X0154846Y0206724D01*
X0156224Y0205346D01*
X0158025Y0204600D01*
X0159975Y0204600D01*
X0161776Y0205346D01*
X0163154Y0206724D01*
X0163900Y0208525D01*
X0163900Y0210475D01*
X0163154Y0212276D01*
X0161776Y0213654D01*
X0161962Y0213468D02*
X0168173Y0213468D01*
X0168173Y0214666D02*
X0160135Y0214666D01*
X0157865Y0214666D02*
X0148000Y0214666D01*
X0148000Y0213468D02*
X0156038Y0213468D01*
X0154843Y0212269D02*
X0148000Y0212269D01*
X0148000Y0211071D02*
X0154347Y0211071D01*
X0154100Y0209872D02*
X0148000Y0209872D01*
X0148000Y0208674D02*
X0154100Y0208674D01*
X0154535Y0207475D02*
X0148000Y0207475D01*
X0148000Y0206277D02*
X0155294Y0206277D01*
X0156871Y0205078D02*
X0148250Y0205078D01*
X0149449Y0203880D02*
X0160888Y0203880D01*
X0161129Y0205078D02*
X0168395Y0205078D01*
X0168183Y0206277D02*
X0162706Y0206277D01*
X0163465Y0207475D02*
X0168173Y0207475D01*
X0168173Y0208674D02*
X0163900Y0208674D01*
X0163900Y0209872D02*
X0168173Y0209872D01*
X0168173Y0211071D02*
X0163653Y0211071D01*
X0163157Y0212269D02*
X0168173Y0212269D01*
X0155706Y0215865D02*
X0148000Y0215865D01*
X0148000Y0217063D02*
X0154706Y0217063D01*
X0154209Y0218262D02*
X0148000Y0218262D01*
X0148000Y0219460D02*
X0154100Y0219460D01*
X0154176Y0220659D02*
X0148000Y0220659D01*
X0148000Y0221857D02*
X0154673Y0221857D01*
X0155626Y0223056D02*
X0148000Y0223056D01*
X0146000Y0225201D02*
X0136000Y0235201D01*
X0134701Y0236500D01*
X0116000Y0236500D01*
X0111800Y0236239D02*
X0082479Y0236239D01*
X0082479Y0235041D02*
X0111800Y0235041D01*
X0112718Y0233842D02*
X0082291Y0233842D01*
X0082479Y0232644D02*
X0113916Y0232644D01*
X0118084Y0232644D02*
X0130466Y0232644D01*
X0130466Y0233842D02*
X0119282Y0233842D01*
X0119803Y0238637D02*
X0130466Y0238637D01*
X0130466Y0239835D02*
X0118605Y0239835D01*
X0113395Y0239835D02*
X0082479Y0239835D01*
X0082479Y0238637D02*
X0112197Y0238637D01*
X0111800Y0237438D02*
X0082479Y0237438D01*
X0082479Y0241034D02*
X0130466Y0241034D01*
X0130466Y0242232D02*
X0082479Y0242232D01*
X0082479Y0243431D02*
X0130466Y0243431D01*
X0130466Y0244629D02*
X0082479Y0244629D01*
X0082479Y0245828D02*
X0130466Y0245828D01*
X0130688Y0247026D02*
X0082479Y0247026D01*
X0082479Y0248225D02*
X0379000Y0248225D01*
X0379000Y0249423D02*
X0082479Y0249423D01*
X0082479Y0250622D02*
X0379000Y0250622D01*
X0379000Y0251820D02*
X0082479Y0251820D01*
X0082479Y0253019D02*
X0379000Y0253019D01*
X0379000Y0254217D02*
X0081916Y0254217D01*
X0076304Y0254217D02*
X0049000Y0254217D01*
X0049000Y0253019D02*
X0075742Y0253019D01*
X0075742Y0251820D02*
X0049000Y0251820D01*
X0049000Y0250622D02*
X0075742Y0250622D01*
X0075742Y0249423D02*
X0049000Y0249423D01*
X0049000Y0248225D02*
X0075742Y0248225D01*
X0082479Y0231445D02*
X0130466Y0231445D01*
X0130466Y0230247D02*
X0082479Y0230247D01*
X0082182Y0229048D02*
X0130466Y0229048D01*
X0130466Y0227850D02*
X0082479Y0227850D01*
X0082479Y0226651D02*
X0130466Y0226651D01*
X0130466Y0225453D02*
X0082479Y0225453D01*
X0082388Y0224254D02*
X0130466Y0224254D01*
X0131008Y0223056D02*
X0082479Y0223056D01*
X0082479Y0221857D02*
X0144000Y0221857D01*
X0144000Y0220659D02*
X0082479Y0220659D01*
X0082479Y0219460D02*
X0144000Y0219460D01*
X0144000Y0218262D02*
X0082479Y0218262D01*
X0082479Y0217063D02*
X0144000Y0217063D01*
X0144000Y0215865D02*
X0082479Y0215865D01*
X0082479Y0214666D02*
X0144000Y0214666D01*
X0144000Y0213468D02*
X0088275Y0213468D01*
X0089473Y0212269D02*
X0144000Y0212269D01*
X0144000Y0211071D02*
X0090672Y0211071D01*
X0093567Y0209872D02*
X0130936Y0209872D01*
X0130466Y0208674D02*
X0094766Y0208674D01*
X0095200Y0207475D02*
X0130466Y0207475D01*
X0130466Y0206277D02*
X0095200Y0206277D01*
X0095200Y0205078D02*
X0130466Y0205078D01*
X0130466Y0203880D02*
X0094319Y0203880D01*
X0093121Y0202681D02*
X0130466Y0202681D01*
X0130466Y0201483D02*
X0091000Y0201483D01*
X0091000Y0200284D02*
X0113844Y0200284D01*
X0112646Y0199086D02*
X0091000Y0199086D01*
X0091000Y0197887D02*
X0111800Y0197887D01*
X0111800Y0196689D02*
X0091000Y0196689D01*
X0091000Y0195490D02*
X0111800Y0195490D01*
X0112269Y0194292D02*
X0091000Y0194292D01*
X0091000Y0193093D02*
X0113467Y0193093D01*
X0116000Y0196500D02*
X0134701Y0196500D01*
X0136000Y0197799D01*
X0141315Y0192484D01*
X0164268Y0192484D01*
X0164268Y0194453D02*
X0156047Y0194453D01*
X0146000Y0204500D01*
X0146000Y0225201D01*
X0147378Y0226651D02*
X0171800Y0226651D01*
X0172410Y0227850D02*
X0146179Y0227850D01*
X0144981Y0229048D02*
X0173609Y0229048D01*
X0144000Y0224254D02*
X0141534Y0224254D01*
X0141534Y0225453D02*
X0142919Y0225453D01*
X0141721Y0226651D02*
X0141534Y0226651D01*
X0140992Y0223056D02*
X0144000Y0223056D01*
X0144000Y0209872D02*
X0141064Y0209872D01*
X0141534Y0208674D02*
X0144000Y0208674D01*
X0144000Y0207475D02*
X0141534Y0207475D01*
X0141534Y0206277D02*
X0144000Y0206277D01*
X0144000Y0205078D02*
X0141534Y0205078D01*
X0141534Y0203880D02*
X0144000Y0203880D01*
X0144990Y0202681D02*
X0141534Y0202681D01*
X0141534Y0201483D02*
X0146189Y0201483D01*
X0147387Y0200284D02*
X0141534Y0200284D01*
X0141534Y0199086D02*
X0148586Y0199086D01*
X0149784Y0197887D02*
X0141534Y0197887D01*
X0141534Y0196689D02*
X0150983Y0196689D01*
X0152181Y0195490D02*
X0141534Y0195490D01*
X0141534Y0189498D02*
X0157169Y0189498D01*
X0155971Y0188299D02*
X0141534Y0188299D01*
X0141534Y0187101D02*
X0152661Y0187101D01*
X0151462Y0185902D02*
X0141240Y0185902D01*
X0150800Y0184703D02*
X0091000Y0184703D01*
X0091000Y0183505D02*
X0150800Y0183505D01*
X0150800Y0182306D02*
X0091000Y0182306D01*
X0091000Y0181108D02*
X0151452Y0181108D01*
X0155000Y0183500D02*
X0155000Y0184500D01*
X0159047Y0188547D01*
X0164268Y0188547D01*
X0164268Y0186579D02*
X0169921Y0186579D01*
X0170000Y0186500D01*
X0168183Y0177512D02*
X0162841Y0177512D01*
X0168488Y0171520D02*
X0091000Y0171520D01*
X0091000Y0170321D02*
X0170142Y0170321D01*
X0170142Y0169123D02*
X0091000Y0169123D01*
X0091000Y0167924D02*
X0170142Y0167924D01*
X0170142Y0166726D02*
X0091000Y0166726D01*
X0091000Y0165527D02*
X0170142Y0165527D01*
X0170142Y0164329D02*
X0091000Y0164329D01*
X0091000Y0163130D02*
X0170142Y0163130D01*
X0170142Y0161932D02*
X0091000Y0161932D01*
X0091000Y0185902D02*
X0130760Y0185902D01*
X0130466Y0187101D02*
X0091000Y0187101D01*
X0091000Y0188299D02*
X0130466Y0188299D01*
X0130466Y0189498D02*
X0091000Y0189498D01*
X0091000Y0190696D02*
X0130466Y0190696D01*
X0130466Y0191895D02*
X0091000Y0191895D01*
X0075000Y0191500D02*
X0075000Y0225500D01*
X0076000Y0226500D01*
X0079110Y0226500D01*
X0118156Y0200284D02*
X0130466Y0200284D01*
X0130466Y0199086D02*
X0119354Y0199086D01*
X0119731Y0194292D02*
X0130466Y0194292D01*
X0130466Y0193093D02*
X0118533Y0193093D01*
X0150647Y0202681D02*
X0160506Y0202681D01*
X0160506Y0201483D02*
X0151846Y0201483D01*
X0153044Y0200284D02*
X0160506Y0200284D01*
X0160506Y0199086D02*
X0154243Y0199086D01*
X0155441Y0197887D02*
X0160506Y0197887D01*
X0160506Y0196689D02*
X0156640Y0196689D01*
X0178047Y0174768D02*
X0178047Y0156453D01*
X0184000Y0150500D01*
X0185000Y0151500D01*
X0184000Y0150500D02*
X0185000Y0149500D01*
X0224000Y0149500D01*
X0236000Y0161500D01*
X0242000Y0159500D02*
X0238000Y0155500D01*
X0300000Y0155500D01*
X0318937Y0136563D01*
X0319000Y0136500D01*
X0318937Y0136563D02*
X0318717Y0136563D01*
X0321888Y0136763D02*
X0334816Y0136763D01*
X0334816Y0137133D02*
X0334816Y0135867D01*
X0334915Y0135627D01*
X0334915Y0132440D01*
X0335735Y0131620D01*
X0340438Y0131620D01*
X0341258Y0132440D01*
X0341258Y0140686D01*
X0340438Y0141506D01*
X0335735Y0141506D01*
X0334915Y0140686D01*
X0334915Y0137373D01*
X0334816Y0137133D01*
X0334915Y0137962D02*
X0321888Y0137962D01*
X0321888Y0139160D02*
X0334915Y0139160D01*
X0334915Y0140359D02*
X0321888Y0140359D01*
X0316771Y0141557D02*
X0363300Y0141557D01*
X0363300Y0140359D02*
X0360746Y0140359D01*
X0360746Y0140686D02*
X0359926Y0141506D01*
X0354436Y0141506D01*
X0353616Y0140686D01*
X0353616Y0132440D01*
X0354436Y0131620D01*
X0359926Y0131620D01*
X0360746Y0132440D01*
X0360746Y0140686D01*
X0360746Y0139160D02*
X0363300Y0139160D01*
X0363300Y0137962D02*
X0360746Y0137962D01*
X0360746Y0136763D02*
X0363300Y0136763D01*
X0363300Y0135565D02*
X0360746Y0135565D01*
X0360746Y0134366D02*
X0363300Y0134366D01*
X0363300Y0133168D02*
X0360746Y0133168D01*
X0360276Y0131969D02*
X0363300Y0131969D01*
X0363300Y0130770D02*
X0311874Y0130770D01*
X0311874Y0129572D02*
X0363300Y0129572D01*
X0362227Y0128373D02*
X0311874Y0128373D01*
X0311874Y0127175D02*
X0361028Y0127175D01*
X0359830Y0125976D02*
X0311874Y0125976D01*
X0311874Y0124778D02*
X0358631Y0124778D01*
X0357433Y0123579D02*
X0311874Y0123579D01*
X0311874Y0122381D02*
X0356234Y0122381D01*
X0354087Y0131969D02*
X0347480Y0131969D01*
X0347131Y0131620D02*
X0347951Y0132440D01*
X0347951Y0140686D01*
X0347131Y0141506D01*
X0342428Y0141506D01*
X0341608Y0140686D01*
X0341608Y0132440D01*
X0342428Y0131620D01*
X0347131Y0131620D01*
X0347951Y0133168D02*
X0353616Y0133168D01*
X0353616Y0134366D02*
X0347951Y0134366D01*
X0347951Y0135565D02*
X0353616Y0135565D01*
X0353616Y0136763D02*
X0347951Y0136763D01*
X0347951Y0137962D02*
X0353616Y0137962D01*
X0353616Y0139160D02*
X0347951Y0139160D01*
X0347951Y0140359D02*
X0353616Y0140359D01*
X0363300Y0142756D02*
X0315573Y0142756D01*
X0314374Y0143954D02*
X0363300Y0143954D01*
X0363300Y0145153D02*
X0313176Y0145153D01*
X0311977Y0146351D02*
X0363300Y0146351D01*
X0363300Y0147550D02*
X0310779Y0147550D01*
X0309580Y0148748D02*
X0363300Y0148748D01*
X0363300Y0149947D02*
X0308382Y0149947D01*
X0307183Y0151145D02*
X0363300Y0151145D01*
X0363300Y0152344D02*
X0305985Y0152344D01*
X0304786Y0153542D02*
X0363300Y0153542D01*
X0363300Y0154741D02*
X0303588Y0154741D01*
X0302389Y0155939D02*
X0363300Y0155939D01*
X0363300Y0157138D02*
X0301191Y0157138D01*
X0300328Y0152344D02*
X0237672Y0152344D01*
X0236474Y0151145D02*
X0301526Y0151145D01*
X0302725Y0149947D02*
X0235275Y0149947D01*
X0234077Y0148748D02*
X0303923Y0148748D01*
X0305122Y0147550D02*
X0232878Y0147550D01*
X0231680Y0146351D02*
X0306320Y0146351D01*
X0307519Y0145153D02*
X0230481Y0145153D01*
X0229283Y0143954D02*
X0308717Y0143954D01*
X0309916Y0142756D02*
X0228084Y0142756D01*
X0226886Y0141557D02*
X0311114Y0141557D01*
X0312046Y0140359D02*
X0312313Y0140359D01*
X0312046Y0139160D02*
X0313512Y0139160D01*
X0314710Y0137962D02*
X0312046Y0137962D01*
X0312046Y0136763D02*
X0315545Y0136763D01*
X0315545Y0135565D02*
X0312046Y0135565D01*
X0312046Y0134366D02*
X0315545Y0134366D01*
X0315545Y0133168D02*
X0312046Y0133168D01*
X0311874Y0131969D02*
X0316016Y0131969D01*
X0321417Y0131969D02*
X0335386Y0131969D01*
X0334915Y0133168D02*
X0321888Y0133168D01*
X0321888Y0134366D02*
X0334915Y0134366D01*
X0334915Y0135565D02*
X0321888Y0135565D01*
X0338000Y0136500D02*
X0338063Y0136563D01*
X0338087Y0136563D01*
X0341258Y0136763D02*
X0341608Y0136763D01*
X0341608Y0135565D02*
X0341258Y0135565D01*
X0341258Y0134366D02*
X0341608Y0134366D01*
X0341608Y0133168D02*
X0341258Y0133168D01*
X0340787Y0131969D02*
X0342079Y0131969D01*
X0341608Y0137962D02*
X0341258Y0137962D01*
X0341258Y0139160D02*
X0341608Y0139160D01*
X0341608Y0140359D02*
X0341258Y0140359D01*
X0363300Y0158336D02*
X0243665Y0158336D01*
X0244000Y0159535D02*
X0363300Y0159535D01*
X0363300Y0160733D02*
X0244000Y0160733D01*
X0244000Y0161932D02*
X0363300Y0161932D01*
X0363300Y0163130D02*
X0280381Y0163130D01*
X0280381Y0164329D02*
X0363300Y0164329D01*
X0363300Y0165527D02*
X0280381Y0165527D01*
X0280381Y0166726D02*
X0363300Y0166726D01*
X0363300Y0167924D02*
X0280381Y0167924D01*
X0273619Y0167924D02*
X0267687Y0167924D01*
X0266488Y0169123D02*
X0363300Y0169123D01*
X0363300Y0170321D02*
X0265290Y0170321D01*
X0264091Y0171520D02*
X0363300Y0171520D01*
X0363300Y0172718D02*
X0262893Y0172718D01*
X0261694Y0173917D02*
X0363300Y0173917D01*
X0363300Y0175115D02*
X0260496Y0175115D01*
X0259297Y0176314D02*
X0363300Y0176314D01*
X0363300Y0177512D02*
X0258099Y0177512D01*
X0256900Y0178711D02*
X0363300Y0178711D01*
X0363300Y0179909D02*
X0255702Y0179909D01*
X0254503Y0181108D02*
X0363300Y0181108D01*
X0363300Y0182306D02*
X0253305Y0182306D01*
X0252106Y0183505D02*
X0363300Y0183505D01*
X0363300Y0184703D02*
X0250908Y0184703D01*
X0249709Y0185902D02*
X0363300Y0185902D01*
X0363300Y0187101D02*
X0248511Y0187101D01*
X0247312Y0188299D02*
X0363300Y0188299D01*
X0363300Y0189498D02*
X0240900Y0189498D01*
X0240900Y0190696D02*
X0363300Y0190696D01*
X0363300Y0191895D02*
X0240900Y0191895D01*
X0240900Y0193093D02*
X0363300Y0193093D01*
X0363300Y0194292D02*
X0240138Y0194292D01*
X0238940Y0195490D02*
X0363300Y0195490D01*
X0363405Y0196689D02*
X0238118Y0196689D01*
X0239317Y0197887D02*
X0363902Y0197887D01*
X0364939Y0199086D02*
X0240515Y0199086D01*
X0240900Y0200284D02*
X0366137Y0200284D01*
X0367336Y0201483D02*
X0240900Y0201483D01*
X0240900Y0202681D02*
X0368534Y0202681D01*
X0369733Y0203880D02*
X0240550Y0203880D01*
X0236000Y0201500D02*
X0218000Y0183300D01*
X0213000Y0183300D01*
X0213713Y0185300D02*
X0217165Y0185300D01*
X0221665Y0189850D01*
X0214016Y0189850D01*
X0214016Y0189687D01*
X0212844Y0188516D01*
X0210619Y0188516D01*
X0213713Y0185300D01*
X0213133Y0185902D02*
X0217760Y0185902D01*
X0218946Y0187101D02*
X0211981Y0187101D01*
X0210828Y0188299D02*
X0220131Y0188299D01*
X0221317Y0189498D02*
X0213826Y0189498D01*
X0212016Y0190516D02*
X0197732Y0190516D01*
X0197732Y0192484D02*
X0210984Y0192484D01*
X0212000Y0193300D01*
X0210281Y0194484D02*
X0201494Y0194484D01*
X0201494Y0199560D01*
X0200728Y0200327D01*
X0209345Y0200327D01*
X0210800Y0198872D01*
X0210800Y0195760D01*
X0211276Y0195284D01*
X0210281Y0194484D01*
X0211070Y0195490D02*
X0201494Y0195490D01*
X0201494Y0196689D02*
X0210800Y0196689D01*
X0210800Y0197887D02*
X0201494Y0197887D01*
X0201494Y0199086D02*
X0210586Y0199086D01*
X0209387Y0200284D02*
X0200771Y0200284D01*
X0203142Y0200358D02*
X0205000Y0198500D01*
X0203142Y0200358D02*
X0197732Y0200358D01*
X0197732Y0202327D02*
X0210173Y0202327D01*
X0215000Y0197500D01*
X0207953Y0188547D02*
X0197732Y0188547D01*
X0197732Y0186579D02*
X0201921Y0186579D01*
X0206800Y0176400D01*
X0218000Y0176500D01*
X0228000Y0166500D01*
X0228000Y0158500D01*
X0225730Y0160733D02*
X0208595Y0160733D01*
X0209794Y0159535D02*
X0224982Y0159535D01*
X0224816Y0159133D02*
X0224816Y0157867D01*
X0225301Y0156696D01*
X0226196Y0155801D01*
X0227098Y0155427D01*
X0226073Y0154402D01*
X0225699Y0155304D01*
X0224804Y0156199D01*
X0223633Y0156684D01*
X0222367Y0156684D01*
X0221196Y0156199D01*
X0220497Y0155500D01*
X0213828Y0155500D01*
X0199732Y0169596D01*
X0199732Y0178683D01*
X0200674Y0178683D01*
X0201494Y0179503D01*
X0201494Y0182842D01*
X0204804Y0175937D01*
X0204807Y0175554D01*
X0204982Y0175382D01*
X0203224Y0174654D01*
X0201846Y0173276D01*
X0201100Y0171475D01*
X0201100Y0169525D01*
X0201846Y0167724D01*
X0203224Y0166346D01*
X0205025Y0165600D01*
X0206975Y0165600D01*
X0208776Y0166346D01*
X0210154Y0167724D01*
X0210900Y0169525D01*
X0210900Y0171475D01*
X0210154Y0173276D01*
X0209010Y0174420D01*
X0217179Y0174493D01*
X0226000Y0165672D01*
X0226000Y0161003D01*
X0225301Y0160304D01*
X0224816Y0159133D01*
X0224816Y0158336D02*
X0210992Y0158336D01*
X0212191Y0157138D02*
X0225118Y0157138D01*
X0225064Y0155939D02*
X0226058Y0155939D01*
X0225933Y0154741D02*
X0226412Y0154741D01*
X0223000Y0153500D02*
X0213000Y0153500D01*
X0197732Y0168768D01*
X0197732Y0180673D01*
X0200703Y0178711D02*
X0203474Y0178711D01*
X0202900Y0179909D02*
X0201494Y0179909D01*
X0201494Y0181108D02*
X0202326Y0181108D01*
X0201751Y0182306D02*
X0201494Y0182306D01*
X0199732Y0177512D02*
X0204049Y0177512D01*
X0204623Y0176314D02*
X0199732Y0176314D01*
X0199732Y0175115D02*
X0204338Y0175115D01*
X0202487Y0173917D02*
X0199732Y0173917D01*
X0199732Y0172718D02*
X0201615Y0172718D01*
X0201119Y0171520D02*
X0199732Y0171520D01*
X0199732Y0170321D02*
X0201100Y0170321D01*
X0201267Y0169123D02*
X0200206Y0169123D01*
X0201404Y0167924D02*
X0201763Y0167924D01*
X0202603Y0166726D02*
X0202845Y0166726D01*
X0203801Y0165527D02*
X0226000Y0165527D01*
X0226000Y0164329D02*
X0205000Y0164329D01*
X0206198Y0163130D02*
X0226000Y0163130D01*
X0226000Y0161932D02*
X0207397Y0161932D01*
X0204137Y0159535D02*
X0197905Y0159535D01*
X0198200Y0158336D02*
X0205335Y0158336D01*
X0206534Y0157138D02*
X0198200Y0157138D01*
X0198200Y0155939D02*
X0207732Y0155939D01*
X0208931Y0154741D02*
X0197180Y0154741D01*
X0195982Y0153542D02*
X0210129Y0153542D01*
X0211328Y0152344D02*
X0188097Y0152344D01*
X0187461Y0153542D02*
X0192018Y0153542D01*
X0190820Y0154741D02*
X0182588Y0154741D01*
X0181389Y0155939D02*
X0189800Y0155939D01*
X0189800Y0157138D02*
X0180191Y0157138D01*
X0180047Y0158336D02*
X0189800Y0158336D01*
X0189827Y0159535D02*
X0180047Y0159535D01*
X0180047Y0160733D02*
X0189827Y0160733D01*
X0191827Y0159673D02*
X0194000Y0157500D01*
X0191827Y0159673D02*
X0191827Y0174768D01*
X0193827Y0175115D02*
X0195732Y0175115D01*
X0195732Y0173917D02*
X0193827Y0173917D01*
X0193827Y0172718D02*
X0195732Y0172718D01*
X0195732Y0171520D02*
X0193827Y0171520D01*
X0193827Y0170321D02*
X0195732Y0170321D01*
X0195732Y0169123D02*
X0193827Y0169123D01*
X0193827Y0167924D02*
X0195747Y0167924D01*
X0196946Y0166726D02*
X0193827Y0166726D01*
X0193827Y0165527D02*
X0198144Y0165527D01*
X0199343Y0164329D02*
X0193827Y0164329D01*
X0193827Y0163130D02*
X0200541Y0163130D01*
X0201740Y0161932D02*
X0193827Y0161932D01*
X0196706Y0160733D02*
X0202938Y0160733D01*
X0209155Y0166726D02*
X0224946Y0166726D01*
X0223747Y0167924D02*
X0210237Y0167924D01*
X0210733Y0169123D02*
X0222549Y0169123D01*
X0221350Y0170321D02*
X0210900Y0170321D01*
X0210881Y0171520D02*
X0220152Y0171520D01*
X0218953Y0172718D02*
X0210385Y0172718D01*
X0209513Y0173917D02*
X0217755Y0173917D01*
X0236000Y0179500D02*
X0242000Y0173500D01*
X0242000Y0159500D01*
X0244000Y0163130D02*
X0273619Y0163130D01*
X0265060Y0164329D02*
X0244000Y0164329D01*
X0244000Y0165527D02*
X0263861Y0165527D01*
X0262663Y0166726D02*
X0244000Y0166726D01*
X0244000Y0167924D02*
X0261464Y0167924D01*
X0260266Y0169123D02*
X0244000Y0169123D01*
X0244000Y0170321D02*
X0259067Y0170321D01*
X0257869Y0171520D02*
X0244000Y0171520D01*
X0244000Y0172718D02*
X0256670Y0172718D01*
X0255472Y0173917D02*
X0244000Y0173917D01*
X0243213Y0175115D02*
X0254273Y0175115D01*
X0253075Y0176314D02*
X0242014Y0176314D01*
X0240816Y0177512D02*
X0251876Y0177512D01*
X0250678Y0178711D02*
X0240141Y0178711D01*
X0240900Y0179909D02*
X0249479Y0179909D01*
X0248281Y0181108D02*
X0240900Y0181108D01*
X0240900Y0182306D02*
X0247082Y0182306D01*
X0245884Y0183505D02*
X0240900Y0183505D01*
X0236000Y0181500D02*
X0236000Y0179500D01*
X0246000Y0186500D02*
X0225000Y0186500D01*
X0226942Y0189498D02*
X0231100Y0189498D01*
X0231100Y0190696D02*
X0228128Y0190696D01*
X0229313Y0191895D02*
X0231100Y0191895D01*
X0231100Y0193093D02*
X0230498Y0193093D01*
X0231684Y0194292D02*
X0231862Y0194292D01*
X0232869Y0195490D02*
X0233060Y0195490D01*
X0195732Y0177512D02*
X0193817Y0177512D01*
X0193817Y0176314D02*
X0195732Y0176314D01*
X0170142Y0160733D02*
X0151000Y0160733D01*
X0151000Y0159535D02*
X0170142Y0159535D01*
X0170142Y0158336D02*
X0151000Y0158336D01*
X0151000Y0157138D02*
X0170142Y0157138D01*
X0170142Y0155939D02*
X0151000Y0155939D01*
X0151000Y0154741D02*
X0170142Y0154741D01*
X0170142Y0153542D02*
X0151000Y0153542D01*
X0151000Y0152344D02*
X0169881Y0152344D01*
X0174110Y0150390D02*
X0179000Y0145500D01*
X0208000Y0145500D01*
X0210000Y0143500D01*
X0210000Y0142500D01*
X0225000Y0142500D01*
X0238000Y0155500D01*
X0220936Y0155939D02*
X0213389Y0155939D01*
X0220497Y0151500D02*
X0220497Y0151500D01*
X0217000Y0145700D02*
X0215000Y0147500D01*
X0184000Y0147500D01*
X0180000Y0151500D01*
X0179000Y0150500D01*
X0180000Y0151500D02*
X0176079Y0155421D01*
X0180448Y0142756D02*
X0198573Y0142756D01*
X0198316Y0141557D02*
X0181092Y0141557D01*
X0181184Y0140359D02*
X0198526Y0140359D01*
X0199337Y0139160D02*
X0189093Y0139160D01*
X0189293Y0137962D02*
X0202631Y0137962D01*
X0202631Y0136763D02*
X0189309Y0136763D01*
X0189309Y0135565D02*
X0200348Y0135565D01*
X0199974Y0134366D02*
X0189309Y0134366D01*
X0189309Y0133168D02*
X0199974Y0133168D01*
X0199974Y0131969D02*
X0190208Y0131969D01*
X0191406Y0130770D02*
X0199974Y0130770D01*
X0199974Y0129572D02*
X0199431Y0129572D01*
X0197000Y0127500D02*
X0198807Y0125693D01*
X0202161Y0125693D01*
X0200228Y0123579D02*
X0193600Y0123579D01*
X0193600Y0122381D02*
X0200378Y0122381D01*
X0199836Y0121182D02*
X0193268Y0121182D01*
X0192161Y0119984D02*
X0199816Y0119984D01*
X0200264Y0118785D02*
X0190962Y0118785D01*
X0189764Y0117587D02*
X0201712Y0117587D01*
X0204288Y0117587D02*
X0205280Y0117587D01*
X0205280Y0116388D02*
X0188565Y0116388D01*
X0187367Y0115190D02*
X0205280Y0115190D01*
X0205280Y0113991D02*
X0186168Y0113991D01*
X0188459Y0112793D02*
X0203541Y0112793D01*
X0202868Y0111594D02*
X0189132Y0111594D01*
X0189132Y0110396D02*
X0202868Y0110396D01*
X0202868Y0109197D02*
X0189132Y0109197D01*
X0189132Y0107999D02*
X0202868Y0107999D01*
X0202868Y0106800D02*
X0189132Y0106800D01*
X0189132Y0105602D02*
X0202868Y0105602D01*
X0202868Y0104403D02*
X0189132Y0104403D01*
X0188858Y0103205D02*
X0203142Y0103205D01*
X0206827Y0107799D02*
X0207280Y0108252D01*
X0207280Y0125693D01*
X0209839Y0125693D02*
X0209839Y0115661D01*
X0212000Y0113500D01*
X0212000Y0100374D01*
X0206827Y0095201D01*
X0210786Y0094815D02*
X0270073Y0094815D01*
X0271271Y0096014D02*
X0210786Y0096014D01*
X0211667Y0097212D02*
X0233547Y0097212D01*
X0232160Y0098411D02*
X0212865Y0098411D01*
X0214000Y0099609D02*
X0231479Y0099609D01*
X0231100Y0100808D02*
X0214000Y0100808D01*
X0214000Y0102006D02*
X0231100Y0102006D01*
X0231402Y0103205D02*
X0214000Y0103205D01*
X0214000Y0104403D02*
X0231974Y0104403D01*
X0233172Y0105602D02*
X0214000Y0105602D01*
X0214000Y0106800D02*
X0235891Y0106800D01*
X0234693Y0107999D02*
X0214000Y0107999D01*
X0214000Y0109197D02*
X0233494Y0109197D01*
X0232296Y0110396D02*
X0214000Y0110396D01*
X0214000Y0111594D02*
X0231097Y0111594D01*
X0229899Y0112793D02*
X0214000Y0112793D01*
X0214000Y0113991D02*
X0228700Y0113991D01*
X0227863Y0115190D02*
X0213139Y0115190D01*
X0211940Y0116388D02*
X0227600Y0116388D01*
X0227600Y0117587D02*
X0211839Y0117587D01*
X0211839Y0118785D02*
X0227600Y0118785D01*
X0227600Y0119984D02*
X0211839Y0119984D01*
X0211839Y0121182D02*
X0227600Y0121182D01*
X0227179Y0122381D02*
X0211839Y0122381D01*
X0211839Y0123579D02*
X0226800Y0123579D01*
X0226800Y0124778D02*
X0211928Y0124778D01*
X0211928Y0125976D02*
X0226800Y0125976D01*
X0227735Y0127175D02*
X0211928Y0127175D01*
X0212026Y0128373D02*
X0228934Y0128373D01*
X0233066Y0128373D02*
X0305874Y0128373D01*
X0305874Y0127175D02*
X0234265Y0127175D01*
X0235200Y0125976D02*
X0305874Y0125976D01*
X0305874Y0124778D02*
X0235200Y0124778D01*
X0235200Y0123579D02*
X0305874Y0123579D01*
X0305874Y0122381D02*
X0234821Y0122381D01*
X0234400Y0121182D02*
X0285023Y0121182D01*
X0281358Y0119984D02*
X0260642Y0119984D01*
X0261971Y0118785D02*
X0280029Y0118785D01*
X0279521Y0117587D02*
X0262479Y0117587D01*
X0262600Y0116388D02*
X0279400Y0116388D01*
X0279613Y0115190D02*
X0262387Y0115190D01*
X0261748Y0113991D02*
X0280252Y0113991D01*
X0281897Y0112793D02*
X0260103Y0112793D01*
X0261560Y0109197D02*
X0280440Y0109197D01*
X0279691Y0107999D02*
X0262309Y0107999D01*
X0262600Y0106800D02*
X0279400Y0106800D01*
X0279442Y0105602D02*
X0262557Y0105602D01*
X0262061Y0104403D02*
X0279661Y0104403D01*
X0278462Y0103205D02*
X0260962Y0103205D01*
X0252353Y0110396D02*
X0241913Y0110396D01*
X0240714Y0111594D02*
X0252600Y0111594D01*
X0251897Y0112793D02*
X0239515Y0112793D01*
X0238317Y0113991D02*
X0250252Y0113991D01*
X0249613Y0115190D02*
X0237118Y0115190D01*
X0235920Y0116388D02*
X0249400Y0116388D01*
X0249521Y0117587D02*
X0234721Y0117587D01*
X0234400Y0118785D02*
X0250029Y0118785D01*
X0251358Y0119984D02*
X0234400Y0119984D01*
X0212026Y0129572D02*
X0305874Y0129572D01*
X0305874Y0130770D02*
X0212026Y0130770D01*
X0212026Y0131969D02*
X0266803Y0131969D01*
X0267152Y0131620D02*
X0271855Y0131620D01*
X0272676Y0132440D01*
X0272676Y0140686D01*
X0271855Y0141506D01*
X0267152Y0141506D01*
X0266332Y0140686D01*
X0266332Y0132440D01*
X0267152Y0131620D01*
X0266332Y0133168D02*
X0212026Y0133168D01*
X0212026Y0134366D02*
X0266332Y0134366D01*
X0266332Y0135565D02*
X0211928Y0135565D01*
X0212000Y0136763D02*
X0266332Y0136763D01*
X0266332Y0137962D02*
X0212000Y0137962D01*
X0212000Y0139160D02*
X0266332Y0139160D01*
X0266332Y0140359D02*
X0212000Y0140359D01*
X0210000Y0142500D02*
X0210000Y0137469D01*
X0209839Y0137307D01*
X0207280Y0137307D02*
X0207280Y0141220D01*
X0206200Y0142300D01*
X0204820Y0138880D02*
X0202100Y0141600D01*
X0201500Y0141500D01*
X0204820Y0138880D02*
X0204720Y0137307D01*
X0194569Y0129572D02*
X0192605Y0129572D01*
X0193452Y0128373D02*
X0193915Y0128373D01*
X0193816Y0127175D02*
X0193600Y0127175D01*
X0193600Y0125976D02*
X0194184Y0125976D01*
X0193600Y0124778D02*
X0195251Y0124778D01*
X0184109Y0133168D02*
X0177676Y0133168D01*
X0176962Y0134366D02*
X0184109Y0134366D01*
X0184109Y0135565D02*
X0177596Y0135565D01*
X0177676Y0136763D02*
X0184109Y0136763D01*
X0184125Y0137962D02*
X0179710Y0137962D01*
X0180809Y0139160D02*
X0184324Y0139160D01*
X0178000Y0140114D02*
X0175291Y0137406D01*
X0178000Y0140114D02*
X0178000Y0140700D01*
X0175291Y0133209D02*
X0175291Y0131500D01*
X0170200Y0111594D02*
X0181214Y0111594D01*
X0181214Y0110396D02*
X0170200Y0110396D01*
X0169637Y0109197D02*
X0181214Y0109197D01*
X0181214Y0107999D02*
X0168438Y0107999D01*
X0189044Y0099609D02*
X0202956Y0099609D01*
X0202868Y0098411D02*
X0189132Y0098411D01*
X0189132Y0097212D02*
X0202868Y0097212D01*
X0202868Y0096014D02*
X0189132Y0096014D01*
X0189132Y0094815D02*
X0202868Y0094815D01*
X0202868Y0093617D02*
X0189132Y0093617D01*
X0189132Y0092418D02*
X0202868Y0092418D01*
X0202868Y0091220D02*
X0189132Y0091220D01*
X0210786Y0091220D02*
X0266477Y0091220D01*
X0267675Y0092418D02*
X0210786Y0092418D01*
X0210786Y0093617D02*
X0268874Y0093617D01*
X0272470Y0097212D02*
X0238453Y0097212D01*
X0239840Y0098411D02*
X0273668Y0098411D01*
X0274867Y0099609D02*
X0240521Y0099609D01*
X0240900Y0100808D02*
X0276065Y0100808D01*
X0277264Y0102006D02*
X0241315Y0102006D01*
X0272205Y0131969D02*
X0276646Y0131969D01*
X0276995Y0131620D02*
X0281698Y0131620D01*
X0282518Y0132440D01*
X0282518Y0140686D01*
X0281698Y0141506D01*
X0276995Y0141506D01*
X0276175Y0140686D01*
X0276175Y0138000D01*
X0275816Y0137133D01*
X0275816Y0135867D01*
X0276175Y0135000D01*
X0276175Y0132440D01*
X0276995Y0131620D01*
X0276175Y0133168D02*
X0272676Y0133168D01*
X0272676Y0134366D02*
X0276175Y0134366D01*
X0275941Y0135565D02*
X0272676Y0135565D01*
X0272676Y0136763D02*
X0275816Y0136763D01*
X0276159Y0137962D02*
X0272676Y0137962D01*
X0272676Y0139160D02*
X0276175Y0139160D01*
X0276175Y0140359D02*
X0272676Y0140359D01*
X0279000Y0136500D02*
X0279283Y0136500D01*
X0279346Y0136563D01*
X0282518Y0136763D02*
X0285816Y0136763D01*
X0285816Y0137133D02*
X0285816Y0135867D01*
X0286017Y0135380D01*
X0286017Y0132440D01*
X0286837Y0131620D01*
X0291541Y0131620D01*
X0292361Y0132440D01*
X0292361Y0140686D01*
X0291541Y0141506D01*
X0286837Y0141506D01*
X0286017Y0140686D01*
X0286017Y0137620D01*
X0285816Y0137133D01*
X0286017Y0137962D02*
X0282518Y0137962D01*
X0282518Y0139160D02*
X0286017Y0139160D01*
X0286017Y0140359D02*
X0282518Y0140359D01*
X0289000Y0136500D02*
X0289063Y0136563D01*
X0289189Y0136563D01*
X0292361Y0136763D02*
X0298813Y0136763D01*
X0298813Y0135565D02*
X0292361Y0135565D01*
X0292361Y0134366D02*
X0298813Y0134366D01*
X0298813Y0133168D02*
X0292361Y0133168D01*
X0291890Y0131969D02*
X0299283Y0131969D01*
X0299633Y0131620D02*
X0304336Y0131620D01*
X0305156Y0132440D01*
X0305156Y0140686D01*
X0304336Y0141506D01*
X0299633Y0141506D01*
X0298813Y0140686D01*
X0298813Y0132440D01*
X0299633Y0131620D01*
X0304685Y0131969D02*
X0305874Y0131969D01*
X0305702Y0133168D02*
X0305156Y0133168D01*
X0305156Y0134366D02*
X0305702Y0134366D01*
X0305702Y0135565D02*
X0305156Y0135565D01*
X0305156Y0136763D02*
X0305702Y0136763D01*
X0305702Y0137962D02*
X0305156Y0137962D01*
X0305156Y0139160D02*
X0305702Y0139160D01*
X0305702Y0140359D02*
X0305156Y0140359D01*
X0298813Y0140359D02*
X0292361Y0140359D01*
X0292361Y0139160D02*
X0298813Y0139160D01*
X0298813Y0137962D02*
X0292361Y0137962D01*
X0285941Y0135565D02*
X0282518Y0135565D01*
X0282518Y0134366D02*
X0286017Y0134366D01*
X0286017Y0133168D02*
X0282518Y0133168D01*
X0282047Y0131969D02*
X0286488Y0131969D01*
X0365407Y0205078D02*
X0370931Y0205078D01*
X0378823Y0230247D02*
X0379000Y0230247D01*
X0379000Y0231445D02*
X0377310Y0231445D01*
X0379000Y0232644D02*
X0374092Y0232644D01*
X0374184Y0233842D02*
X0379000Y0233842D01*
X0379000Y0235041D02*
X0373808Y0235041D01*
X0372707Y0236239D02*
X0379000Y0236239D01*
X0379000Y0237438D02*
X0364890Y0237438D01*
X0363692Y0238637D02*
X0379000Y0238637D01*
X0379000Y0239835D02*
X0362493Y0239835D01*
X0361295Y0241034D02*
X0379000Y0241034D01*
X0379000Y0242232D02*
X0360096Y0242232D01*
X0358898Y0243431D02*
X0379000Y0243431D01*
X0379000Y0244629D02*
X0141534Y0244629D01*
X0141534Y0245828D02*
X0379000Y0245828D01*
X0379000Y0247026D02*
X0141312Y0247026D01*
X0191827Y0208232D02*
X0192094Y0208500D01*
X0239280Y0227850D02*
X0252554Y0227850D01*
X0252029Y0229048D02*
X0240478Y0229048D01*
X0240900Y0230247D02*
X0251533Y0230247D01*
X0251341Y0231445D02*
X0240900Y0231445D01*
X0240900Y0232644D02*
X0251341Y0232644D01*
X0251378Y0233842D02*
X0240587Y0233842D01*
X0239389Y0235041D02*
X0251874Y0235041D01*
X0252370Y0236239D02*
X0238190Y0236239D01*
X0351000Y0241500D02*
X0358000Y0241500D01*
X0366000Y0233500D01*
X0371000Y0233500D01*
X0369293Y0236239D02*
X0366089Y0236239D01*
X0362829Y0233842D02*
X0362119Y0233842D01*
X0362155Y0232644D02*
X0364028Y0232644D01*
X0361631Y0235041D02*
X0361622Y0235041D01*
X0390000Y0246500D02*
X0390000Y0252500D01*
X0393000Y0252500D01*
X0397000Y0248500D01*
X0402000Y0248500D01*
X0402000Y0246500D01*
X0390000Y0246500D01*
X0390000Y0247026D02*
X0402000Y0247026D01*
X0402000Y0248225D02*
X0390000Y0248225D01*
X0390000Y0249423D02*
X0396077Y0249423D01*
X0394878Y0250622D02*
X0390000Y0250622D01*
X0390000Y0251820D02*
X0393680Y0251820D01*
X0395283Y0254217D02*
X0404000Y0254217D01*
X0404000Y0253019D02*
X0396481Y0253019D01*
X0397680Y0251820D02*
X0403980Y0251820D01*
X0404031Y0251469D02*
X0394000Y0261500D01*
X0393000Y0261500D01*
X0395695Y0263805D02*
X0379000Y0263805D01*
X0378366Y0263805D02*
X0049000Y0263805D01*
X0049000Y0262607D02*
X0377800Y0262607D01*
X0377800Y0261408D02*
X0049000Y0261408D01*
X0049000Y0260210D02*
X0377800Y0260210D01*
X0379000Y0260210D02*
X0399290Y0260210D01*
X0398092Y0261408D02*
X0379000Y0261408D01*
X0379000Y0262607D02*
X0396893Y0262607D01*
X0395000Y0264500D02*
X0404000Y0255500D01*
X0404000Y0252267D01*
X0403959Y0252222D01*
X0404000Y0251448D01*
X0404000Y0250500D01*
X0399000Y0250500D01*
X0391000Y0258500D01*
X0379000Y0258500D01*
X0379000Y0264500D01*
X0395000Y0264500D01*
X0391687Y0257813D02*
X0401687Y0257813D01*
X0400489Y0259011D02*
X0379000Y0259011D01*
X0378549Y0259011D02*
X0049000Y0259011D01*
X0049000Y0257813D02*
X0379000Y0257813D01*
X0379000Y0256614D02*
X0049000Y0256614D01*
X0049000Y0255416D02*
X0379000Y0255416D01*
X0379000Y0265004D02*
X0049000Y0265004D01*
X0049000Y0266202D02*
X0379000Y0266202D01*
X0379000Y0267401D02*
X0049000Y0267401D01*
X0049000Y0268599D02*
X0379000Y0268599D01*
X0379000Y0269798D02*
X0049000Y0269798D01*
X0049000Y0270996D02*
X0379000Y0270996D01*
X0379000Y0272195D02*
X0049000Y0272195D01*
X0049000Y0273393D02*
X0379000Y0273393D01*
X0379000Y0274592D02*
X0049000Y0274592D01*
X0049000Y0275790D02*
X0379000Y0275790D01*
X0392886Y0256614D02*
X0402886Y0256614D01*
X0404000Y0255416D02*
X0394084Y0255416D01*
X0398878Y0250622D02*
X0404000Y0250622D01*
X0404031Y0251469D02*
X0404031Y0247307D01*
X0406000Y0251500D02*
X0415000Y0261500D01*
X0423000Y0261500D01*
X0437000Y0261500D01*
X0423000Y0261500D02*
X0423000Y0271500D01*
X0418844Y0152344D02*
X0417156Y0152344D01*
X0431000Y0151500D02*
X0431000Y0136500D01*
X0436000Y0131500D01*
X0451000Y0131500D01*
X0456000Y0136500D01*
X0461000Y0151500D02*
X0482000Y0151500D01*
X0495000Y0138500D01*
X0495000Y0115500D01*
X0486000Y0106500D01*
X0461000Y0096500D02*
X0461000Y0081500D01*
X0456000Y0061500D02*
X0451000Y0056500D01*
X0436000Y0056500D01*
X0431000Y0061500D01*
X0431000Y0081500D01*
X0379000Y0052867D02*
X0151000Y0052867D01*
X0151000Y0051669D02*
X0379000Y0051669D01*
X0379000Y0050470D02*
X0151000Y0050470D01*
X0151000Y0049272D02*
X0379000Y0049272D01*
X0379000Y0048073D02*
X0151000Y0048073D01*
X0151000Y0046875D02*
X0379000Y0046875D01*
X0379000Y0045676D02*
X0151000Y0045676D01*
X0151000Y0044478D02*
X0379000Y0044478D01*
X0379000Y0043279D02*
X0151000Y0043279D01*
X0151000Y0042081D02*
X0379000Y0042081D01*
X0379000Y0040882D02*
X0151000Y0040882D01*
X0151000Y0039684D02*
X0379000Y0039684D01*
X0379000Y0038485D02*
X0151000Y0038485D01*
X0151000Y0037287D02*
X0379000Y0037287D01*
X0379000Y0036088D02*
X0151000Y0036088D01*
X0151000Y0034890D02*
X0379000Y0034890D01*
X0379000Y0033691D02*
X0151000Y0033691D01*
X0151000Y0032493D02*
X0379000Y0032493D01*
X0379000Y0031294D02*
X0151000Y0031294D01*
D50*
X0170800Y0124500D02*
X0170800Y0150500D01*
X0172800Y0149380D02*
X0174110Y0150390D01*
X0174110Y0174768D01*
X0176079Y0174768D02*
X0176079Y0155421D01*
X0172800Y0149380D02*
X0172800Y0135600D01*
X0175291Y0133209D01*
X0213000Y0183300D02*
X0207953Y0188547D01*
X0223000Y0191700D02*
X0231000Y0199500D01*
X0189900Y0208374D02*
X0189858Y0208232D01*
X0189900Y0208374D02*
X0189900Y0211400D01*
X0187890Y0208232D02*
X0188000Y0208122D01*
X0188000Y0203500D01*
X0187000Y0202500D01*
X0185921Y0208232D02*
X0186000Y0208311D01*
X0186000Y0213300D01*
X0379000Y0213222D02*
X0415035Y0213222D01*
X0416033Y0214220D02*
X0379000Y0214220D01*
X0379000Y0215219D02*
X0417032Y0215219D01*
X0418030Y0216217D02*
X0379000Y0216217D01*
X0379000Y0217216D02*
X0408284Y0217216D01*
X0409000Y0216500D02*
X0418313Y0216500D01*
X0402156Y0200343D01*
X0396000Y0206500D01*
X0379000Y0206500D01*
X0379000Y0217683D01*
X0379084Y0217886D01*
X0379084Y0219113D01*
X0379000Y0219317D01*
X0379000Y0222683D01*
X0379084Y0222886D01*
X0379084Y0224113D01*
X0379000Y0224317D01*
X0379000Y0227442D01*
X0379184Y0227886D01*
X0379184Y0228500D01*
X0397000Y0228500D01*
X0409000Y0216500D01*
X0407286Y0218214D02*
X0379084Y0218214D01*
X0379043Y0219213D02*
X0406287Y0219213D01*
X0405289Y0220211D02*
X0379000Y0220211D01*
X0379000Y0221210D02*
X0404290Y0221210D01*
X0403292Y0222208D02*
X0379000Y0222208D01*
X0379084Y0223207D02*
X0402293Y0223207D01*
X0401295Y0224205D02*
X0379046Y0224205D01*
X0379000Y0225204D02*
X0400296Y0225204D01*
X0399298Y0226202D02*
X0379000Y0226202D01*
X0379000Y0227201D02*
X0398299Y0227201D01*
X0397301Y0228199D02*
X0379184Y0228199D01*
X0379000Y0238500D02*
X0379000Y0244500D01*
X0380374Y0244500D01*
X0380540Y0244334D01*
X0391460Y0244334D01*
X0391626Y0244500D01*
X0401130Y0244500D01*
X0401296Y0244334D01*
X0402830Y0244334D01*
X0402996Y0244500D01*
X0403099Y0244500D01*
X0403265Y0244334D01*
X0404798Y0244334D01*
X0404964Y0244500D01*
X0405000Y0244500D01*
X0405034Y0244534D01*
X0405233Y0244334D01*
X0406767Y0244334D01*
X0407851Y0245418D01*
X0407851Y0249196D01*
X0407850Y0249197D01*
X0407850Y0250715D01*
X0415846Y0259600D01*
X0418400Y0259600D01*
X0418400Y0259595D01*
X0421095Y0256900D01*
X0424905Y0256900D01*
X0427600Y0259595D01*
X0427600Y0259600D01*
X0433102Y0259600D01*
X0435302Y0257400D01*
X0438698Y0257400D01*
X0441100Y0259802D01*
X0441100Y0263198D01*
X0438698Y0265600D01*
X0435302Y0265600D01*
X0433102Y0263400D01*
X0427600Y0263400D01*
X0427600Y0263405D01*
X0424905Y0266100D01*
X0424900Y0266100D01*
X0424900Y0266900D01*
X0424905Y0266900D01*
X0427600Y0269595D01*
X0427600Y0273405D01*
X0424905Y0276100D01*
X0421095Y0276100D01*
X0418400Y0273405D01*
X0418400Y0269595D01*
X0421095Y0266900D01*
X0421100Y0266900D01*
X0421100Y0266100D01*
X0421095Y0266100D01*
X0418400Y0263405D01*
X0418400Y0263400D01*
X0415729Y0263400D01*
X0415686Y0263439D01*
X0414950Y0263400D01*
X0414213Y0263400D01*
X0414172Y0263359D01*
X0414114Y0263356D01*
X0413621Y0262808D01*
X0413100Y0262287D01*
X0413100Y0262229D01*
X0406000Y0254340D01*
X0406000Y0256500D01*
X0396000Y0266500D01*
X0379000Y0266500D01*
X0379000Y0277000D01*
X0496500Y0277000D01*
X0496500Y0139687D01*
X0495787Y0140400D01*
X0482787Y0153400D01*
X0465600Y0153400D01*
X0465600Y0153405D01*
X0462905Y0156100D01*
X0459095Y0156100D01*
X0456400Y0153405D01*
X0456400Y0149595D01*
X0459095Y0146900D01*
X0462905Y0146900D01*
X0465600Y0149595D01*
X0465600Y0149600D01*
X0481213Y0149600D01*
X0493100Y0137713D01*
X0493100Y0116287D01*
X0488613Y0111800D01*
X0481462Y0111800D01*
X0480700Y0111038D01*
X0480700Y0107705D01*
X0474095Y0101100D01*
X0459095Y0101100D01*
X0458394Y0100400D01*
X0457100Y0099106D01*
X0456400Y0098405D01*
X0456400Y0094595D01*
X0457100Y0093894D01*
X0458394Y0092600D01*
X0458394Y0092600D01*
X0459095Y0091900D01*
X0459100Y0091900D01*
X0459100Y0086100D01*
X0459095Y0086100D01*
X0456400Y0083405D01*
X0456400Y0079595D01*
X0459095Y0076900D01*
X0462905Y0076900D01*
X0465600Y0079595D01*
X0465600Y0083405D01*
X0462905Y0086100D01*
X0462900Y0086100D01*
X0462900Y0091900D01*
X0475095Y0091900D01*
X0481400Y0085595D01*
X0481400Y0074929D01*
X0480700Y0073239D01*
X0480700Y0071131D01*
X0481507Y0069183D01*
X0482998Y0067692D01*
X0484946Y0066885D01*
X0487054Y0066885D01*
X0489002Y0067692D01*
X0490493Y0069183D01*
X0491300Y0071131D01*
X0491300Y0073239D01*
X0490600Y0074929D01*
X0490600Y0088415D01*
X0489900Y0090106D01*
X0488606Y0091400D01*
X0483005Y0097000D01*
X0487205Y0101200D01*
X0490538Y0101200D01*
X0491300Y0101962D01*
X0491300Y0109113D01*
X0496500Y0114313D01*
X0496500Y0031000D01*
X0379000Y0031000D01*
X0379000Y0168500D01*
X0397000Y0168500D01*
X0413400Y0152100D01*
X0413400Y0110405D01*
X0392100Y0089106D01*
X0391400Y0087415D01*
X0391400Y0080810D01*
X0390659Y0080069D01*
X0389700Y0077753D01*
X0389700Y0075247D01*
X0390659Y0072931D01*
X0392431Y0071159D01*
X0394747Y0070200D01*
X0397253Y0070200D01*
X0399569Y0071159D01*
X0401341Y0072931D01*
X0402300Y0075247D01*
X0402300Y0077753D01*
X0401341Y0080069D01*
X0400600Y0080810D01*
X0400600Y0084595D01*
X0418500Y0102495D01*
X0426400Y0094595D01*
X0426400Y0094595D01*
X0429095Y0091900D01*
X0432905Y0091900D01*
X0435600Y0094595D01*
X0435600Y0098405D01*
X0432905Y0101100D01*
X0422600Y0111405D01*
X0422600Y0150595D01*
X0423400Y0151394D01*
X0429905Y0157900D01*
X0443915Y0157900D01*
X0445606Y0158600D01*
X0446900Y0159894D01*
X0476400Y0189394D01*
X0478590Y0191585D01*
X0483256Y0191585D01*
X0484946Y0190885D01*
X0487054Y0190885D01*
X0489002Y0191692D01*
X0490493Y0193183D01*
X0491300Y0195131D01*
X0491300Y0197239D01*
X0490493Y0199187D01*
X0489002Y0200678D01*
X0487054Y0201485D01*
X0484946Y0201485D01*
X0483256Y0200785D01*
X0475770Y0200785D01*
X0474079Y0200085D01*
X0471581Y0197586D01*
X0457302Y0211865D01*
X0458386Y0211416D01*
X0459613Y0211416D01*
X0460747Y0211885D01*
X0461615Y0212753D01*
X0462084Y0213886D01*
X0462084Y0215113D01*
X0461615Y0216247D01*
X0460900Y0216962D01*
X0460900Y0221287D01*
X0457771Y0224416D01*
X0458613Y0224416D01*
X0459747Y0224885D01*
X0460462Y0225600D01*
X0466157Y0225600D01*
X0466157Y0225537D01*
X0466894Y0223756D01*
X0468256Y0222394D01*
X0470037Y0221657D01*
X0471963Y0221657D01*
X0473744Y0222394D01*
X0475106Y0223756D01*
X0475843Y0225537D01*
X0475843Y0227463D01*
X0475106Y0229244D01*
X0473744Y0230606D01*
X0471963Y0231343D01*
X0470037Y0231343D01*
X0468256Y0230606D01*
X0467051Y0229400D01*
X0460462Y0229400D01*
X0459747Y0230115D01*
X0458725Y0230538D01*
X0462787Y0234600D01*
X0466545Y0234600D01*
X0466894Y0233756D01*
X0468256Y0232394D01*
X0470037Y0231657D01*
X0471963Y0231657D01*
X0473744Y0232394D01*
X0475106Y0233756D01*
X0475455Y0234600D01*
X0476545Y0234600D01*
X0476894Y0233756D01*
X0478256Y0232394D01*
X0480037Y0231657D01*
X0481963Y0231657D01*
X0483744Y0232394D01*
X0485106Y0233756D01*
X0485843Y0235537D01*
X0485843Y0237463D01*
X0485106Y0239244D01*
X0483744Y0240606D01*
X0481963Y0241343D01*
X0480037Y0241343D01*
X0478256Y0240606D01*
X0476894Y0239244D01*
X0476545Y0238400D01*
X0475455Y0238400D01*
X0475106Y0239244D01*
X0473744Y0240606D01*
X0471963Y0241343D01*
X0470037Y0241343D01*
X0468256Y0240606D01*
X0466894Y0239244D01*
X0466545Y0238400D01*
X0461213Y0238400D01*
X0460100Y0237287D01*
X0452100Y0229287D01*
X0452100Y0224713D01*
X0453213Y0223600D01*
X0457100Y0219713D01*
X0457100Y0216962D01*
X0456385Y0216247D01*
X0455916Y0215113D01*
X0455916Y0213886D01*
X0456365Y0212802D01*
X0446798Y0222369D01*
X0445869Y0223298D01*
X0444656Y0223800D01*
X0426300Y0223800D01*
X0426300Y0233002D01*
X0427100Y0233802D01*
X0427100Y0237198D01*
X0424698Y0239600D01*
X0421302Y0239600D01*
X0418900Y0237198D01*
X0418900Y0233802D01*
X0419700Y0233002D01*
X0419700Y0223800D01*
X0418700Y0223800D01*
X0417531Y0224969D01*
X0417615Y0225053D01*
X0418084Y0226186D01*
X0418084Y0227413D01*
X0417615Y0228547D01*
X0416747Y0229415D01*
X0415613Y0229884D01*
X0414386Y0229884D01*
X0413253Y0229415D01*
X0413169Y0229331D01*
X0407900Y0234600D01*
X0407900Y0236480D01*
X0407851Y0236529D01*
X0407851Y0237582D01*
X0406767Y0238666D01*
X0405233Y0238666D01*
X0405016Y0238449D01*
X0404798Y0238666D01*
X0403265Y0238666D01*
X0403099Y0238500D01*
X0402996Y0238500D01*
X0402830Y0238666D01*
X0401296Y0238666D01*
X0401130Y0238500D01*
X0391626Y0238500D01*
X0391460Y0238666D01*
X0380540Y0238666D01*
X0380374Y0238500D01*
X0379000Y0238500D01*
X0379000Y0239183D02*
X0420885Y0239183D01*
X0419886Y0238184D02*
X0407249Y0238184D01*
X0407851Y0237186D02*
X0418900Y0237186D01*
X0418900Y0236187D02*
X0407900Y0236187D01*
X0407900Y0235189D02*
X0418900Y0235189D01*
X0418900Y0234190D02*
X0408310Y0234190D01*
X0409308Y0233192D02*
X0419510Y0233192D01*
X0419700Y0232193D02*
X0410307Y0232193D01*
X0411305Y0231195D02*
X0419700Y0231195D01*
X0419700Y0230196D02*
X0412304Y0230196D01*
X0413000Y0226900D02*
X0406000Y0233900D01*
X0409170Y0244334D02*
X0410704Y0244334D01*
X0411777Y0245407D01*
X0417131Y0245407D01*
X0417218Y0245337D01*
X0417904Y0245407D01*
X0418594Y0245407D01*
X0418673Y0245486D01*
X0418783Y0245497D01*
X0419219Y0246032D01*
X0419707Y0246520D01*
X0419707Y0246631D01*
X0420903Y0248100D01*
X0432147Y0248100D01*
X0432926Y0247224D01*
X0432900Y0247198D01*
X0432900Y0243802D01*
X0435302Y0241400D01*
X0438698Y0241400D01*
X0441100Y0243802D01*
X0441100Y0247198D01*
X0438698Y0249600D01*
X0435898Y0249600D01*
X0434900Y0250722D01*
X0434900Y0250787D01*
X0434383Y0251304D01*
X0433897Y0251850D01*
X0433833Y0251854D01*
X0433787Y0251900D01*
X0433056Y0251900D01*
X0432326Y0251943D01*
X0432278Y0251900D01*
X0420676Y0251900D01*
X0420589Y0251970D01*
X0419903Y0251900D01*
X0419213Y0251900D01*
X0419134Y0251821D01*
X0419024Y0251810D01*
X0418588Y0251275D01*
X0418100Y0250787D01*
X0418100Y0250676D01*
X0416904Y0249207D01*
X0411777Y0249207D01*
X0410704Y0250280D01*
X0409170Y0250280D01*
X0408086Y0249196D01*
X0408086Y0248143D01*
X0408037Y0248094D01*
X0408037Y0246520D01*
X0408086Y0246471D01*
X0408086Y0245418D01*
X0409170Y0244334D01*
X0408330Y0245174D02*
X0407607Y0245174D01*
X0407851Y0246172D02*
X0408086Y0246172D01*
X0408037Y0247171D02*
X0407851Y0247171D01*
X0407851Y0248170D02*
X0408086Y0248170D01*
X0408086Y0249168D02*
X0407851Y0249168D01*
X0407850Y0250167D02*
X0409056Y0250167D01*
X0408255Y0251165D02*
X0418478Y0251165D01*
X0417685Y0250167D02*
X0410818Y0250167D01*
X0409153Y0252164D02*
X0496500Y0252164D01*
X0496500Y0253162D02*
X0410052Y0253162D01*
X0410951Y0254161D02*
X0496500Y0254161D01*
X0496500Y0255159D02*
X0411849Y0255159D01*
X0412748Y0256158D02*
X0496500Y0256158D01*
X0496500Y0257156D02*
X0425161Y0257156D01*
X0426160Y0258155D02*
X0434547Y0258155D01*
X0433549Y0259153D02*
X0427159Y0259153D01*
X0420838Y0257156D02*
X0413647Y0257156D01*
X0414545Y0258155D02*
X0419840Y0258155D01*
X0418841Y0259153D02*
X0415444Y0259153D01*
X0413028Y0262149D02*
X0400351Y0262149D01*
X0399353Y0263147D02*
X0413926Y0263147D01*
X0412129Y0261150D02*
X0401350Y0261150D01*
X0402348Y0260152D02*
X0411230Y0260152D01*
X0410332Y0259153D02*
X0403347Y0259153D01*
X0404345Y0258155D02*
X0409433Y0258155D01*
X0408534Y0257156D02*
X0405344Y0257156D01*
X0406000Y0256158D02*
X0407636Y0256158D01*
X0406737Y0255159D02*
X0406000Y0255159D01*
X0398354Y0264146D02*
X0419140Y0264146D01*
X0420139Y0265144D02*
X0397356Y0265144D01*
X0396357Y0266143D02*
X0421100Y0266143D01*
X0420853Y0267141D02*
X0379000Y0267141D01*
X0379000Y0268140D02*
X0419855Y0268140D01*
X0418856Y0269138D02*
X0379000Y0269138D01*
X0379000Y0270137D02*
X0418400Y0270137D01*
X0418400Y0271135D02*
X0379000Y0271135D01*
X0379000Y0272134D02*
X0418400Y0272134D01*
X0418400Y0273132D02*
X0379000Y0273132D01*
X0379000Y0274131D02*
X0419125Y0274131D01*
X0420124Y0275129D02*
X0379000Y0275129D01*
X0379000Y0276128D02*
X0496500Y0276128D01*
X0496500Y0275129D02*
X0425876Y0275129D01*
X0426875Y0274131D02*
X0496500Y0274131D01*
X0496500Y0273132D02*
X0427600Y0273132D01*
X0427600Y0272134D02*
X0496500Y0272134D01*
X0496500Y0271135D02*
X0427600Y0271135D01*
X0427600Y0270137D02*
X0496500Y0270137D01*
X0496500Y0269138D02*
X0427144Y0269138D01*
X0426145Y0268140D02*
X0496500Y0268140D01*
X0496500Y0267141D02*
X0425147Y0267141D01*
X0424900Y0266143D02*
X0496500Y0266143D01*
X0496500Y0265144D02*
X0439154Y0265144D01*
X0440153Y0264146D02*
X0496500Y0264146D01*
X0496500Y0263147D02*
X0441100Y0263147D01*
X0441100Y0262149D02*
X0496500Y0262149D01*
X0496500Y0261150D02*
X0441100Y0261150D01*
X0441100Y0260152D02*
X0496500Y0260152D01*
X0496500Y0259153D02*
X0440451Y0259153D01*
X0439453Y0258155D02*
X0496500Y0258155D01*
X0496500Y0251165D02*
X0434522Y0251165D01*
X0435394Y0250167D02*
X0496500Y0250167D01*
X0496500Y0249168D02*
X0439130Y0249168D01*
X0440129Y0248170D02*
X0496500Y0248170D01*
X0496500Y0247171D02*
X0441100Y0247171D01*
X0441100Y0246172D02*
X0496500Y0246172D01*
X0496500Y0245174D02*
X0441100Y0245174D01*
X0441100Y0244175D02*
X0496500Y0244175D01*
X0496500Y0243177D02*
X0440475Y0243177D01*
X0439477Y0242178D02*
X0496500Y0242178D01*
X0496500Y0241180D02*
X0482358Y0241180D01*
X0484168Y0240181D02*
X0496500Y0240181D01*
X0496500Y0239183D02*
X0485131Y0239183D01*
X0485545Y0238184D02*
X0496500Y0238184D01*
X0496500Y0237186D02*
X0485843Y0237186D01*
X0485843Y0236187D02*
X0496500Y0236187D01*
X0496500Y0235189D02*
X0485699Y0235189D01*
X0485286Y0234190D02*
X0496500Y0234190D01*
X0496500Y0233192D02*
X0484541Y0233192D01*
X0483259Y0232193D02*
X0496500Y0232193D01*
X0496500Y0231195D02*
X0482322Y0231195D01*
X0481963Y0231343D02*
X0480037Y0231343D01*
X0478256Y0230606D01*
X0476894Y0229244D01*
X0476157Y0227463D01*
X0476157Y0225537D01*
X0476894Y0223756D01*
X0478256Y0222394D01*
X0480037Y0221657D01*
X0481963Y0221657D01*
X0483744Y0222394D01*
X0485106Y0223756D01*
X0485843Y0225537D01*
X0485843Y0227463D01*
X0485106Y0229244D01*
X0483744Y0230606D01*
X0481963Y0231343D01*
X0479678Y0231195D02*
X0472322Y0231195D01*
X0473259Y0232193D02*
X0478741Y0232193D01*
X0477459Y0233192D02*
X0474541Y0233192D01*
X0475286Y0234190D02*
X0476714Y0234190D01*
X0476869Y0239183D02*
X0475131Y0239183D01*
X0474168Y0240181D02*
X0477832Y0240181D01*
X0479642Y0241180D02*
X0472358Y0241180D01*
X0469642Y0241180D02*
X0379000Y0241180D01*
X0379000Y0242178D02*
X0434523Y0242178D01*
X0433525Y0243177D02*
X0379000Y0243177D01*
X0379000Y0244175D02*
X0432900Y0244175D01*
X0432900Y0245174D02*
X0411544Y0245174D01*
X0419359Y0246172D02*
X0432900Y0246172D01*
X0432900Y0247171D02*
X0420147Y0247171D01*
X0425115Y0239183D02*
X0466869Y0239183D01*
X0467832Y0240181D02*
X0379000Y0240181D01*
X0416964Y0229198D02*
X0419700Y0229198D01*
X0419700Y0228199D02*
X0417759Y0228199D01*
X0418084Y0227201D02*
X0419700Y0227201D01*
X0419700Y0226202D02*
X0418084Y0226202D01*
X0417677Y0225204D02*
X0419700Y0225204D01*
X0419700Y0224205D02*
X0418295Y0224205D01*
X0426300Y0224205D02*
X0452608Y0224205D01*
X0452100Y0225204D02*
X0426300Y0225204D01*
X0426300Y0226202D02*
X0452100Y0226202D01*
X0452100Y0227201D02*
X0426300Y0227201D01*
X0426300Y0228199D02*
X0452100Y0228199D01*
X0452100Y0229198D02*
X0426300Y0229198D01*
X0426300Y0230196D02*
X0453009Y0230196D01*
X0454008Y0231195D02*
X0426300Y0231195D01*
X0426300Y0232193D02*
X0455006Y0232193D01*
X0456005Y0233192D02*
X0426490Y0233192D01*
X0427100Y0234190D02*
X0457003Y0234190D01*
X0458002Y0235189D02*
X0427100Y0235189D01*
X0427100Y0236187D02*
X0459000Y0236187D01*
X0459999Y0237186D02*
X0427100Y0237186D01*
X0426114Y0238184D02*
X0460997Y0238184D01*
X0462377Y0234190D02*
X0466714Y0234190D01*
X0467459Y0233192D02*
X0461379Y0233192D01*
X0460380Y0232193D02*
X0468741Y0232193D01*
X0469678Y0231195D02*
X0459382Y0231195D01*
X0459550Y0230196D02*
X0467847Y0230196D01*
X0466295Y0225204D02*
X0460066Y0225204D01*
X0458980Y0223207D02*
X0467444Y0223207D01*
X0466708Y0224205D02*
X0457982Y0224205D01*
X0459979Y0222208D02*
X0468705Y0222208D01*
X0473295Y0222208D02*
X0478705Y0222208D01*
X0477444Y0223207D02*
X0474556Y0223207D01*
X0475292Y0224205D02*
X0476708Y0224205D01*
X0476295Y0225204D02*
X0475705Y0225204D01*
X0475843Y0226202D02*
X0476157Y0226202D01*
X0476157Y0227201D02*
X0475843Y0227201D01*
X0475538Y0228199D02*
X0476462Y0228199D01*
X0476875Y0229198D02*
X0475125Y0229198D01*
X0474153Y0230196D02*
X0477847Y0230196D01*
X0484153Y0230196D02*
X0488191Y0230196D01*
X0488394Y0230400D02*
X0487100Y0229106D01*
X0486400Y0227415D01*
X0486400Y0225585D01*
X0487100Y0223894D01*
X0488394Y0222600D01*
X0490085Y0221900D01*
X0491915Y0221900D01*
X0493606Y0222600D01*
X0494900Y0223894D01*
X0495600Y0225585D01*
X0495600Y0227415D01*
X0494900Y0229106D01*
X0493606Y0230400D01*
X0491915Y0231100D01*
X0490085Y0231100D01*
X0488394Y0230400D01*
X0487192Y0229198D02*
X0485125Y0229198D01*
X0485538Y0228199D02*
X0486725Y0228199D01*
X0486400Y0227201D02*
X0485843Y0227201D01*
X0485843Y0226202D02*
X0486400Y0226202D01*
X0486558Y0225204D02*
X0485705Y0225204D01*
X0485292Y0224205D02*
X0486972Y0224205D01*
X0487788Y0223207D02*
X0484556Y0223207D01*
X0483295Y0222208D02*
X0489341Y0222208D01*
X0490085Y0221100D02*
X0488394Y0220400D01*
X0487100Y0219106D01*
X0486400Y0217415D01*
X0486400Y0215585D01*
X0487100Y0213894D01*
X0488394Y0212600D01*
X0490085Y0211900D01*
X0491915Y0211900D01*
X0493606Y0212600D01*
X0494900Y0213894D01*
X0495600Y0215585D01*
X0495600Y0217415D01*
X0494900Y0219106D01*
X0493606Y0220400D01*
X0491915Y0221100D01*
X0490085Y0221100D01*
X0488206Y0220211D02*
X0460900Y0220211D01*
X0460900Y0219213D02*
X0487207Y0219213D01*
X0486731Y0218214D02*
X0460900Y0218214D01*
X0460900Y0217216D02*
X0486400Y0217216D01*
X0486400Y0216217D02*
X0461627Y0216217D01*
X0462041Y0215219D02*
X0486552Y0215219D01*
X0486965Y0214220D02*
X0462084Y0214220D01*
X0461809Y0213222D02*
X0487773Y0213222D01*
X0489305Y0212223D02*
X0461085Y0212223D01*
X0458941Y0210226D02*
X0496500Y0210226D01*
X0496500Y0209228D02*
X0459939Y0209228D01*
X0460938Y0208229D02*
X0496500Y0208229D01*
X0496500Y0207231D02*
X0461936Y0207231D01*
X0462935Y0206232D02*
X0496500Y0206232D01*
X0496500Y0205234D02*
X0463933Y0205234D01*
X0464932Y0204235D02*
X0496500Y0204235D01*
X0496500Y0203237D02*
X0465930Y0203237D01*
X0466929Y0202238D02*
X0496500Y0202238D01*
X0496500Y0201239D02*
X0487647Y0201239D01*
X0489439Y0200241D02*
X0496500Y0200241D01*
X0496500Y0199242D02*
X0490438Y0199242D01*
X0490884Y0198244D02*
X0496500Y0198244D01*
X0496500Y0197245D02*
X0491297Y0197245D01*
X0491300Y0196247D02*
X0496500Y0196247D01*
X0496500Y0195248D02*
X0491300Y0195248D01*
X0490935Y0194250D02*
X0496500Y0194250D01*
X0496500Y0193251D02*
X0490522Y0193251D01*
X0489563Y0192253D02*
X0496500Y0192253D01*
X0496500Y0191254D02*
X0487946Y0191254D01*
X0484054Y0191254D02*
X0478260Y0191254D01*
X0477261Y0190256D02*
X0496500Y0190256D01*
X0496500Y0189257D02*
X0476263Y0189257D01*
X0476400Y0189394D02*
X0476400Y0189394D01*
X0475264Y0188259D02*
X0496500Y0188259D01*
X0496500Y0187260D02*
X0474266Y0187260D01*
X0473267Y0186262D02*
X0496500Y0186262D01*
X0496500Y0185263D02*
X0472269Y0185263D01*
X0471270Y0184265D02*
X0496500Y0184265D01*
X0496500Y0183266D02*
X0470272Y0183266D01*
X0469273Y0182268D02*
X0496500Y0182268D01*
X0496500Y0181269D02*
X0468275Y0181269D01*
X0467276Y0180271D02*
X0496500Y0180271D01*
X0496500Y0179272D02*
X0466278Y0179272D01*
X0465279Y0178274D02*
X0496500Y0178274D01*
X0496500Y0177275D02*
X0464281Y0177275D01*
X0463282Y0176277D02*
X0496500Y0176277D01*
X0496500Y0175278D02*
X0462284Y0175278D01*
X0461285Y0174280D02*
X0496500Y0174280D01*
X0496500Y0173281D02*
X0460287Y0173281D01*
X0459288Y0172283D02*
X0496500Y0172283D01*
X0496500Y0171284D02*
X0458290Y0171284D01*
X0457291Y0170286D02*
X0496500Y0170286D01*
X0496500Y0169287D02*
X0456292Y0169287D01*
X0455294Y0168289D02*
X0496500Y0168289D01*
X0496500Y0167290D02*
X0454295Y0167290D01*
X0453297Y0166292D02*
X0496500Y0166292D01*
X0496500Y0165293D02*
X0452298Y0165293D01*
X0451300Y0164295D02*
X0496500Y0164295D01*
X0496500Y0163296D02*
X0450301Y0163296D01*
X0449303Y0162298D02*
X0496500Y0162298D01*
X0496500Y0161299D02*
X0448304Y0161299D01*
X0447306Y0160301D02*
X0496500Y0160301D01*
X0496500Y0159302D02*
X0446307Y0159302D01*
X0446900Y0159894D02*
X0446900Y0159894D01*
X0444889Y0158303D02*
X0496500Y0158303D01*
X0496500Y0157305D02*
X0429310Y0157305D01*
X0429095Y0156100D02*
X0426400Y0153405D01*
X0426400Y0149595D01*
X0429095Y0146900D01*
X0429100Y0146900D01*
X0429100Y0135713D01*
X0432100Y0132713D01*
X0432100Y0129885D01*
X0434385Y0127600D01*
X0437615Y0127600D01*
X0439615Y0129600D01*
X0450019Y0129600D01*
X0449355Y0128936D01*
X0448700Y0127355D01*
X0448700Y0125645D01*
X0449355Y0124064D01*
X0450564Y0122855D01*
X0452145Y0122200D01*
X0454361Y0122200D01*
X0455085Y0121900D01*
X0482790Y0121900D01*
X0482998Y0121692D01*
X0484946Y0120885D01*
X0487054Y0120885D01*
X0489002Y0121692D01*
X0490493Y0123183D01*
X0491300Y0125131D01*
X0491300Y0127239D01*
X0490493Y0129187D01*
X0489002Y0130678D01*
X0487054Y0131485D01*
X0484946Y0131485D01*
X0484016Y0131100D01*
X0455085Y0131100D01*
X0454361Y0130800D01*
X0452987Y0130800D01*
X0454387Y0132200D01*
X0459855Y0132200D01*
X0461436Y0132855D01*
X0462645Y0134064D01*
X0463300Y0135645D01*
X0463300Y0137355D01*
X0462645Y0138936D01*
X0461436Y0140145D01*
X0459855Y0140800D01*
X0452145Y0140800D01*
X0450564Y0140145D01*
X0449355Y0138936D01*
X0448700Y0137355D01*
X0448700Y0135645D01*
X0449355Y0134064D01*
X0450019Y0133400D01*
X0439615Y0133400D01*
X0437615Y0135400D01*
X0434787Y0135400D01*
X0432900Y0137287D01*
X0432900Y0146900D01*
X0432905Y0146900D01*
X0435600Y0149595D01*
X0435600Y0153405D01*
X0432905Y0156100D01*
X0429095Y0156100D01*
X0428312Y0156306D02*
X0496500Y0156306D01*
X0496500Y0155308D02*
X0463697Y0155308D01*
X0464696Y0154309D02*
X0496500Y0154309D01*
X0496500Y0153311D02*
X0482876Y0153311D01*
X0483875Y0152312D02*
X0496500Y0152312D01*
X0496500Y0151314D02*
X0484873Y0151314D01*
X0485872Y0150315D02*
X0496500Y0150315D01*
X0496500Y0149317D02*
X0486870Y0149317D01*
X0487869Y0148318D02*
X0496500Y0148318D01*
X0496500Y0147320D02*
X0488867Y0147320D01*
X0489866Y0146321D02*
X0496500Y0146321D01*
X0496500Y0145323D02*
X0490864Y0145323D01*
X0491863Y0144324D02*
X0496500Y0144324D01*
X0496500Y0143326D02*
X0492861Y0143326D01*
X0493860Y0142327D02*
X0496500Y0142327D01*
X0496500Y0141329D02*
X0494858Y0141329D01*
X0495857Y0140330D02*
X0496500Y0140330D01*
X0492480Y0138333D02*
X0462895Y0138333D01*
X0463300Y0137335D02*
X0493100Y0137335D01*
X0493100Y0136336D02*
X0463300Y0136336D01*
X0463173Y0135338D02*
X0493100Y0135338D01*
X0493100Y0134339D02*
X0462759Y0134339D01*
X0461922Y0133341D02*
X0493100Y0133341D01*
X0493100Y0132342D02*
X0460199Y0132342D01*
X0453531Y0131344D02*
X0484605Y0131344D01*
X0487395Y0131344D02*
X0493100Y0131344D01*
X0493100Y0130345D02*
X0489335Y0130345D01*
X0490334Y0129347D02*
X0493100Y0129347D01*
X0493100Y0128348D02*
X0490841Y0128348D01*
X0491254Y0127350D02*
X0493100Y0127350D01*
X0493100Y0126351D02*
X0491300Y0126351D01*
X0491300Y0125353D02*
X0493100Y0125353D01*
X0493100Y0124354D02*
X0490978Y0124354D01*
X0490565Y0123356D02*
X0493100Y0123356D01*
X0493100Y0122357D02*
X0489667Y0122357D01*
X0488197Y0121359D02*
X0493100Y0121359D01*
X0493100Y0120360D02*
X0422600Y0120360D01*
X0422600Y0119362D02*
X0493100Y0119362D01*
X0493100Y0118363D02*
X0422600Y0118363D01*
X0422600Y0117365D02*
X0493100Y0117365D01*
X0493100Y0116366D02*
X0422600Y0116366D01*
X0422600Y0115368D02*
X0492181Y0115368D01*
X0491182Y0114369D02*
X0422600Y0114369D01*
X0422600Y0113370D02*
X0490183Y0113370D01*
X0489185Y0112372D02*
X0422600Y0112372D01*
X0422632Y0111373D02*
X0481035Y0111373D01*
X0480700Y0110375D02*
X0423630Y0110375D01*
X0424629Y0109376D02*
X0480700Y0109376D01*
X0480700Y0108378D02*
X0425627Y0108378D01*
X0426626Y0107379D02*
X0480374Y0107379D01*
X0479376Y0106381D02*
X0427624Y0106381D01*
X0428623Y0105382D02*
X0478377Y0105382D01*
X0477379Y0104384D02*
X0429621Y0104384D01*
X0430620Y0103385D02*
X0476380Y0103385D01*
X0475381Y0102387D02*
X0431619Y0102387D01*
X0432617Y0101388D02*
X0474383Y0101388D01*
X0483400Y0097394D02*
X0496500Y0097394D01*
X0496500Y0096396D02*
X0483610Y0096396D01*
X0484608Y0095397D02*
X0496500Y0095397D01*
X0496500Y0094399D02*
X0485607Y0094399D01*
X0486605Y0093400D02*
X0496500Y0093400D01*
X0496500Y0092402D02*
X0487604Y0092402D01*
X0488602Y0091403D02*
X0496500Y0091403D01*
X0496500Y0090405D02*
X0489601Y0090405D01*
X0490189Y0089406D02*
X0496500Y0089406D01*
X0496500Y0088408D02*
X0490600Y0088408D01*
X0490600Y0087409D02*
X0496500Y0087409D01*
X0496500Y0086411D02*
X0490600Y0086411D01*
X0490600Y0085412D02*
X0496500Y0085412D01*
X0496500Y0084414D02*
X0490600Y0084414D01*
X0490600Y0083415D02*
X0496500Y0083415D01*
X0496500Y0082417D02*
X0490600Y0082417D01*
X0490600Y0081418D02*
X0496500Y0081418D01*
X0496500Y0080420D02*
X0490600Y0080420D01*
X0490600Y0079421D02*
X0496500Y0079421D01*
X0496500Y0078423D02*
X0490600Y0078423D01*
X0490600Y0077424D02*
X0496500Y0077424D01*
X0496500Y0076426D02*
X0490600Y0076426D01*
X0490600Y0075427D02*
X0496500Y0075427D01*
X0496500Y0074429D02*
X0490807Y0074429D01*
X0491221Y0073430D02*
X0496500Y0073430D01*
X0496500Y0072432D02*
X0491300Y0072432D01*
X0491300Y0071433D02*
X0496500Y0071433D01*
X0496500Y0070434D02*
X0491012Y0070434D01*
X0490598Y0069436D02*
X0496500Y0069436D01*
X0496500Y0068437D02*
X0489748Y0068437D01*
X0488392Y0067439D02*
X0496500Y0067439D01*
X0496500Y0066440D02*
X0432900Y0066440D01*
X0432900Y0065442D02*
X0451280Y0065442D01*
X0450564Y0065145D02*
X0449355Y0063936D01*
X0448700Y0062355D01*
X0448700Y0060645D01*
X0449355Y0059064D01*
X0450019Y0058400D01*
X0439615Y0058400D01*
X0437615Y0060400D01*
X0434787Y0060400D01*
X0432900Y0062287D01*
X0432900Y0076900D01*
X0432905Y0076900D01*
X0435600Y0079595D01*
X0435600Y0083405D01*
X0432905Y0086100D01*
X0429095Y0086100D01*
X0426400Y0083405D01*
X0426400Y0079595D01*
X0429095Y0076900D01*
X0429100Y0076900D01*
X0429100Y0060713D01*
X0432100Y0057713D01*
X0432100Y0054885D01*
X0434385Y0052600D01*
X0437615Y0052600D01*
X0439615Y0054600D01*
X0450019Y0054600D01*
X0449355Y0053936D01*
X0448700Y0052355D01*
X0448700Y0050645D01*
X0449355Y0049064D01*
X0450564Y0047855D01*
X0452145Y0047200D01*
X0454361Y0047200D01*
X0455085Y0046900D01*
X0485915Y0046900D01*
X0486639Y0047200D01*
X0490538Y0047200D01*
X0491300Y0047962D01*
X0491300Y0057038D01*
X0490538Y0057800D01*
X0481462Y0057800D01*
X0480700Y0057038D01*
X0480700Y0056100D01*
X0455085Y0056100D01*
X0454361Y0055800D01*
X0452987Y0055800D01*
X0454387Y0057200D01*
X0459855Y0057200D01*
X0461436Y0057855D01*
X0462645Y0059064D01*
X0463300Y0060645D01*
X0463300Y0062355D01*
X0462645Y0063936D01*
X0461436Y0065145D01*
X0459855Y0065800D01*
X0452145Y0065800D01*
X0450564Y0065145D01*
X0449862Y0064443D02*
X0432900Y0064443D01*
X0432900Y0063445D02*
X0449151Y0063445D01*
X0448738Y0062446D02*
X0432900Y0062446D01*
X0433739Y0061448D02*
X0448700Y0061448D01*
X0448781Y0060449D02*
X0434738Y0060449D01*
X0431361Y0058452D02*
X0379000Y0058452D01*
X0379000Y0057454D02*
X0432100Y0057454D01*
X0432100Y0056455D02*
X0379000Y0056455D01*
X0379000Y0055457D02*
X0432100Y0055457D01*
X0432526Y0054458D02*
X0431057Y0054458D01*
X0430115Y0055400D02*
X0432400Y0053115D01*
X0432400Y0049885D01*
X0430115Y0047600D01*
X0426885Y0047600D01*
X0424600Y0049885D01*
X0424600Y0053115D01*
X0426885Y0055400D01*
X0430115Y0055400D01*
X0432056Y0053460D02*
X0433525Y0053460D01*
X0432400Y0052461D02*
X0448744Y0052461D01*
X0448700Y0051463D02*
X0432400Y0051463D01*
X0432400Y0050464D02*
X0448775Y0050464D01*
X0449188Y0049466D02*
X0431981Y0049466D01*
X0430983Y0048467D02*
X0449952Y0048467D01*
X0451496Y0047469D02*
X0379000Y0047469D01*
X0379000Y0048467D02*
X0426017Y0048467D01*
X0425019Y0049466D02*
X0379000Y0049466D01*
X0379000Y0050464D02*
X0424600Y0050464D01*
X0424600Y0051463D02*
X0379000Y0051463D01*
X0379000Y0052461D02*
X0424600Y0052461D01*
X0424944Y0053460D02*
X0379000Y0053460D01*
X0379000Y0054458D02*
X0425943Y0054458D01*
X0430362Y0059451D02*
X0379000Y0059451D01*
X0379000Y0060449D02*
X0429364Y0060449D01*
X0429100Y0061448D02*
X0379000Y0061448D01*
X0379000Y0062446D02*
X0429100Y0062446D01*
X0429100Y0063445D02*
X0379000Y0063445D01*
X0379000Y0064443D02*
X0429100Y0064443D01*
X0429100Y0065442D02*
X0379000Y0065442D01*
X0379000Y0066440D02*
X0429100Y0066440D01*
X0429100Y0067439D02*
X0379000Y0067439D01*
X0379000Y0068437D02*
X0429100Y0068437D01*
X0429100Y0069436D02*
X0379000Y0069436D01*
X0379000Y0070434D02*
X0394181Y0070434D01*
X0392157Y0071433D02*
X0379000Y0071433D01*
X0379000Y0072432D02*
X0391159Y0072432D01*
X0390453Y0073430D02*
X0379000Y0073430D01*
X0379000Y0074429D02*
X0390039Y0074429D01*
X0389700Y0075427D02*
X0379000Y0075427D01*
X0379000Y0076426D02*
X0389700Y0076426D01*
X0389700Y0077424D02*
X0379000Y0077424D01*
X0379000Y0078423D02*
X0389977Y0078423D01*
X0390391Y0079421D02*
X0379000Y0079421D01*
X0379000Y0080420D02*
X0391010Y0080420D01*
X0391400Y0081418D02*
X0379000Y0081418D01*
X0379000Y0082417D02*
X0391400Y0082417D01*
X0391400Y0083415D02*
X0379000Y0083415D01*
X0379000Y0084414D02*
X0391400Y0084414D01*
X0391400Y0085412D02*
X0379000Y0085412D01*
X0379000Y0086411D02*
X0391400Y0086411D01*
X0391400Y0087409D02*
X0379000Y0087409D01*
X0379000Y0088408D02*
X0391811Y0088408D01*
X0392401Y0089406D02*
X0379000Y0089406D01*
X0379000Y0090405D02*
X0393399Y0090405D01*
X0394398Y0091403D02*
X0379000Y0091403D01*
X0379000Y0092402D02*
X0395396Y0092402D01*
X0396395Y0093400D02*
X0379000Y0093400D01*
X0379000Y0094399D02*
X0397393Y0094399D01*
X0398392Y0095397D02*
X0379000Y0095397D01*
X0379000Y0096396D02*
X0399390Y0096396D01*
X0400389Y0097394D02*
X0379000Y0097394D01*
X0379000Y0098393D02*
X0401387Y0098393D01*
X0402386Y0099391D02*
X0379000Y0099391D01*
X0379000Y0100390D02*
X0403384Y0100390D01*
X0404383Y0101388D02*
X0379000Y0101388D01*
X0379000Y0102387D02*
X0405381Y0102387D01*
X0406380Y0103385D02*
X0379000Y0103385D01*
X0379000Y0104384D02*
X0407379Y0104384D01*
X0408377Y0105382D02*
X0379000Y0105382D01*
X0379000Y0106381D02*
X0409376Y0106381D01*
X0410374Y0107379D02*
X0379000Y0107379D01*
X0379000Y0108378D02*
X0411373Y0108378D01*
X0412371Y0109376D02*
X0379000Y0109376D01*
X0379000Y0110375D02*
X0413370Y0110375D01*
X0413400Y0111373D02*
X0379000Y0111373D01*
X0379000Y0112372D02*
X0413400Y0112372D01*
X0413400Y0113370D02*
X0379000Y0113370D01*
X0379000Y0114369D02*
X0413400Y0114369D01*
X0413400Y0115368D02*
X0379000Y0115368D01*
X0379000Y0116366D02*
X0413400Y0116366D01*
X0413400Y0117365D02*
X0379000Y0117365D01*
X0379000Y0118363D02*
X0413400Y0118363D01*
X0413400Y0119362D02*
X0379000Y0119362D01*
X0379000Y0120360D02*
X0413400Y0120360D01*
X0413400Y0121359D02*
X0379000Y0121359D01*
X0379000Y0122357D02*
X0413400Y0122357D01*
X0413400Y0123356D02*
X0379000Y0123356D01*
X0379000Y0124354D02*
X0413400Y0124354D01*
X0413400Y0125353D02*
X0379000Y0125353D01*
X0379000Y0126351D02*
X0413400Y0126351D01*
X0413400Y0127350D02*
X0379000Y0127350D01*
X0379000Y0128348D02*
X0413400Y0128348D01*
X0413400Y0129347D02*
X0379000Y0129347D01*
X0379000Y0130345D02*
X0413400Y0130345D01*
X0413400Y0131344D02*
X0379000Y0131344D01*
X0379000Y0132342D02*
X0413400Y0132342D01*
X0413400Y0133341D02*
X0379000Y0133341D01*
X0379000Y0134339D02*
X0413400Y0134339D01*
X0413400Y0135338D02*
X0379000Y0135338D01*
X0379000Y0136336D02*
X0413400Y0136336D01*
X0413400Y0137335D02*
X0379000Y0137335D01*
X0379000Y0138333D02*
X0413400Y0138333D01*
X0413400Y0139332D02*
X0379000Y0139332D01*
X0379000Y0140330D02*
X0413400Y0140330D01*
X0413400Y0141329D02*
X0379000Y0141329D01*
X0379000Y0142327D02*
X0413400Y0142327D01*
X0413400Y0143326D02*
X0379000Y0143326D01*
X0379000Y0144324D02*
X0413400Y0144324D01*
X0413400Y0145323D02*
X0379000Y0145323D01*
X0379000Y0146321D02*
X0413400Y0146321D01*
X0413400Y0147320D02*
X0379000Y0147320D01*
X0379000Y0148318D02*
X0413400Y0148318D01*
X0413400Y0149317D02*
X0379000Y0149317D01*
X0379000Y0150315D02*
X0413400Y0150315D01*
X0413400Y0151314D02*
X0379000Y0151314D01*
X0379000Y0152312D02*
X0413188Y0152312D01*
X0412189Y0153311D02*
X0379000Y0153311D01*
X0379000Y0154309D02*
X0411191Y0154309D01*
X0410192Y0155308D02*
X0379000Y0155308D01*
X0379000Y0156306D02*
X0409194Y0156306D01*
X0408195Y0157305D02*
X0379000Y0157305D01*
X0379000Y0158303D02*
X0407196Y0158303D01*
X0406198Y0159302D02*
X0379000Y0159302D01*
X0379000Y0160301D02*
X0405199Y0160301D01*
X0404201Y0161299D02*
X0379000Y0161299D01*
X0379000Y0162298D02*
X0403202Y0162298D01*
X0402204Y0163296D02*
X0379000Y0163296D01*
X0379000Y0164295D02*
X0401205Y0164295D01*
X0400207Y0165293D02*
X0379000Y0165293D01*
X0379000Y0166292D02*
X0399208Y0166292D01*
X0398210Y0167290D02*
X0379000Y0167290D01*
X0379000Y0168289D02*
X0397211Y0168289D01*
X0407774Y0173726D02*
X0407851Y0173804D01*
X0407851Y0174857D01*
X0407900Y0174906D01*
X0407900Y0176480D01*
X0407851Y0176529D01*
X0407851Y0177582D01*
X0406767Y0178666D01*
X0405233Y0178666D01*
X0405016Y0178449D01*
X0404798Y0178666D01*
X0403265Y0178666D01*
X0403049Y0178451D01*
X0403000Y0178500D01*
X0402996Y0178500D01*
X0402830Y0178666D01*
X0401296Y0178666D01*
X0401130Y0178500D01*
X0391626Y0178500D01*
X0391460Y0178666D01*
X0380540Y0178666D01*
X0380374Y0178500D01*
X0379000Y0178500D01*
X0379000Y0183500D01*
X0406000Y0183500D01*
X0406000Y0184334D01*
X0406767Y0184334D01*
X0407851Y0185418D01*
X0407851Y0186471D01*
X0407900Y0186520D01*
X0407900Y0195713D01*
X0411787Y0199600D01*
X0418400Y0199600D01*
X0418400Y0199595D01*
X0421095Y0196900D01*
X0424905Y0196900D01*
X0427600Y0199595D01*
X0427600Y0199600D01*
X0433102Y0199600D01*
X0435302Y0197400D01*
X0438698Y0197400D01*
X0441100Y0199802D01*
X0441100Y0203198D01*
X0438698Y0205600D01*
X0435302Y0205600D01*
X0433102Y0203400D01*
X0427600Y0203400D01*
X0427600Y0203405D01*
X0424905Y0206100D01*
X0424900Y0206100D01*
X0424900Y0206900D01*
X0424905Y0206900D01*
X0427600Y0209595D01*
X0427600Y0213405D01*
X0426405Y0214600D01*
X0439213Y0214600D01*
X0440916Y0212897D01*
X0440916Y0211886D01*
X0441385Y0210753D01*
X0442253Y0209885D01*
X0443386Y0209416D01*
X0444613Y0209416D01*
X0445747Y0209885D01*
X0446615Y0210753D01*
X0447084Y0211886D01*
X0447084Y0212749D01*
X0466914Y0192919D01*
X0441095Y0167100D01*
X0428067Y0167100D01*
X0426300Y0168867D01*
X0426300Y0173002D01*
X0427100Y0173802D01*
X0427100Y0177198D01*
X0424698Y0179600D01*
X0421302Y0179600D01*
X0418900Y0177198D01*
X0418900Y0173802D01*
X0419700Y0173002D01*
X0419700Y0166844D01*
X0420202Y0165631D01*
X0421131Y0164702D01*
X0422414Y0163419D01*
X0420247Y0161253D01*
X0407774Y0173726D01*
X0407851Y0174280D02*
X0418900Y0174280D01*
X0418900Y0175278D02*
X0407900Y0175278D01*
X0407900Y0176277D02*
X0418900Y0176277D01*
X0418977Y0177275D02*
X0407851Y0177275D01*
X0407159Y0178274D02*
X0419975Y0178274D01*
X0420974Y0179272D02*
X0379000Y0179272D01*
X0379000Y0180271D02*
X0454265Y0180271D01*
X0453267Y0179272D02*
X0425026Y0179272D01*
X0426025Y0178274D02*
X0452268Y0178274D01*
X0451270Y0177275D02*
X0427023Y0177275D01*
X0427100Y0176277D02*
X0450271Y0176277D01*
X0449273Y0175278D02*
X0427100Y0175278D01*
X0427100Y0174280D02*
X0448274Y0174280D01*
X0447276Y0173281D02*
X0426579Y0173281D01*
X0426300Y0172283D02*
X0446277Y0172283D01*
X0445279Y0171284D02*
X0426300Y0171284D01*
X0426300Y0170286D02*
X0444280Y0170286D01*
X0443282Y0169287D02*
X0426300Y0169287D01*
X0426878Y0168289D02*
X0442283Y0168289D01*
X0441285Y0167290D02*
X0427877Y0167290D01*
X0422291Y0163296D02*
X0418204Y0163296D01*
X0419202Y0162298D02*
X0421292Y0162298D01*
X0420294Y0161299D02*
X0420201Y0161299D01*
X0421539Y0164295D02*
X0417205Y0164295D01*
X0416207Y0165293D02*
X0420540Y0165293D01*
X0419929Y0166292D02*
X0415208Y0166292D01*
X0414210Y0167290D02*
X0419700Y0167290D01*
X0419700Y0168289D02*
X0413211Y0168289D01*
X0412213Y0169287D02*
X0419700Y0169287D01*
X0419700Y0170286D02*
X0411214Y0170286D01*
X0410216Y0171284D02*
X0419700Y0171284D01*
X0419700Y0172283D02*
X0409217Y0172283D01*
X0408219Y0173281D02*
X0419421Y0173281D01*
X0410704Y0184334D02*
X0411777Y0185407D01*
X0416108Y0185407D01*
X0416175Y0185350D01*
X0416883Y0185407D01*
X0417594Y0185407D01*
X0417656Y0185469D01*
X0417744Y0185476D01*
X0418204Y0186017D01*
X0418707Y0186520D01*
X0418707Y0186608D01*
X0419978Y0188100D01*
X0432232Y0188100D01*
X0432961Y0187259D01*
X0432900Y0187198D01*
X0432900Y0183802D01*
X0435302Y0181400D01*
X0438698Y0181400D01*
X0441100Y0183802D01*
X0441100Y0187198D01*
X0438698Y0189600D01*
X0435961Y0189600D01*
X0435000Y0190709D01*
X0435000Y0190787D01*
X0434491Y0191295D01*
X0434020Y0191839D01*
X0433942Y0191845D01*
X0433887Y0191900D01*
X0433168Y0191900D01*
X0432450Y0191951D01*
X0432391Y0191900D01*
X0419799Y0191900D01*
X0419733Y0191957D01*
X0419024Y0191900D01*
X0418313Y0191900D01*
X0418251Y0191838D01*
X0418164Y0191831D01*
X0417703Y0191290D01*
X0417200Y0190787D01*
X0417200Y0190699D01*
X0415929Y0189207D01*
X0411777Y0189207D01*
X0410704Y0190280D01*
X0409170Y0190280D01*
X0408086Y0189196D01*
X0408086Y0188143D01*
X0408037Y0188094D01*
X0408037Y0186520D01*
X0408086Y0186471D01*
X0408086Y0185418D01*
X0409170Y0184334D01*
X0410704Y0184334D01*
X0411633Y0185263D02*
X0432900Y0185263D01*
X0432900Y0184265D02*
X0406000Y0184265D01*
X0407696Y0185263D02*
X0408241Y0185263D01*
X0408086Y0186262D02*
X0407851Y0186262D01*
X0407900Y0187260D02*
X0408037Y0187260D01*
X0408086Y0188259D02*
X0407900Y0188259D01*
X0407900Y0189257D02*
X0408147Y0189257D01*
X0407900Y0190256D02*
X0409146Y0190256D01*
X0410728Y0190256D02*
X0416822Y0190256D01*
X0417667Y0191254D02*
X0407900Y0191254D01*
X0407900Y0192253D02*
X0466248Y0192253D01*
X0466582Y0193251D02*
X0407900Y0193251D01*
X0407900Y0194250D02*
X0465583Y0194250D01*
X0464585Y0195248D02*
X0407900Y0195248D01*
X0408434Y0196247D02*
X0463586Y0196247D01*
X0462588Y0197245D02*
X0425251Y0197245D01*
X0426249Y0198244D02*
X0434458Y0198244D01*
X0433459Y0199242D02*
X0427248Y0199242D01*
X0420749Y0197245D02*
X0409432Y0197245D01*
X0410431Y0198244D02*
X0419751Y0198244D01*
X0418752Y0199242D02*
X0411429Y0199242D01*
X0404051Y0202238D02*
X0400262Y0202238D01*
X0399263Y0203237D02*
X0405050Y0203237D01*
X0406048Y0204235D02*
X0398265Y0204235D01*
X0397266Y0205234D02*
X0407047Y0205234D01*
X0408045Y0206232D02*
X0396268Y0206232D01*
X0401261Y0201239D02*
X0403052Y0201239D01*
X0409044Y0207231D02*
X0379000Y0207231D01*
X0379000Y0208229D02*
X0410042Y0208229D01*
X0411041Y0209228D02*
X0379000Y0209228D01*
X0379000Y0210226D02*
X0412039Y0210226D01*
X0413038Y0211225D02*
X0379000Y0211225D01*
X0379000Y0212223D02*
X0414036Y0212223D01*
X0425236Y0207231D02*
X0452603Y0207231D01*
X0451604Y0208229D02*
X0426234Y0208229D01*
X0427233Y0209228D02*
X0450606Y0209228D01*
X0449607Y0210226D02*
X0446088Y0210226D01*
X0446810Y0211225D02*
X0448609Y0211225D01*
X0447610Y0212223D02*
X0447084Y0212223D01*
X0441912Y0210226D02*
X0427600Y0210226D01*
X0427600Y0211225D02*
X0441190Y0211225D01*
X0440916Y0212223D02*
X0427600Y0212223D01*
X0427600Y0213222D02*
X0440591Y0213222D01*
X0439593Y0214220D02*
X0426785Y0214220D01*
X0424900Y0206232D02*
X0453601Y0206232D01*
X0454600Y0205234D02*
X0439065Y0205234D01*
X0440063Y0204235D02*
X0455598Y0204235D01*
X0456597Y0203237D02*
X0441062Y0203237D01*
X0441100Y0202238D02*
X0457595Y0202238D01*
X0458594Y0201239D02*
X0441100Y0201239D01*
X0441100Y0200241D02*
X0459592Y0200241D01*
X0460591Y0199242D02*
X0440541Y0199242D01*
X0439542Y0198244D02*
X0461589Y0198244D01*
X0467927Y0201239D02*
X0484353Y0201239D01*
X0474457Y0200241D02*
X0468926Y0200241D01*
X0469924Y0199242D02*
X0473237Y0199242D01*
X0472239Y0198244D02*
X0470923Y0198244D01*
X0465249Y0191254D02*
X0434533Y0191254D01*
X0435393Y0190256D02*
X0464250Y0190256D01*
X0463252Y0189257D02*
X0439041Y0189257D01*
X0440039Y0188259D02*
X0462253Y0188259D01*
X0461255Y0187260D02*
X0441038Y0187260D01*
X0441100Y0186262D02*
X0460256Y0186262D01*
X0459258Y0185263D02*
X0441100Y0185263D01*
X0441100Y0184265D02*
X0458259Y0184265D01*
X0457261Y0183266D02*
X0440565Y0183266D01*
X0439566Y0182268D02*
X0456262Y0182268D01*
X0455264Y0181269D02*
X0379000Y0181269D01*
X0379000Y0182268D02*
X0434434Y0182268D01*
X0433435Y0183266D02*
X0379000Y0183266D01*
X0411727Y0189257D02*
X0415972Y0189257D01*
X0419263Y0187260D02*
X0432960Y0187260D01*
X0432900Y0186262D02*
X0418449Y0186262D01*
X0426770Y0204235D02*
X0433937Y0204235D01*
X0434935Y0205234D02*
X0425772Y0205234D01*
X0448956Y0220211D02*
X0456602Y0220211D01*
X0457100Y0219213D02*
X0449954Y0219213D01*
X0450953Y0218214D02*
X0457100Y0218214D01*
X0457100Y0217216D02*
X0451951Y0217216D01*
X0452950Y0216217D02*
X0456373Y0216217D01*
X0455959Y0215219D02*
X0453948Y0215219D01*
X0454947Y0214220D02*
X0455916Y0214220D01*
X0455945Y0213222D02*
X0456191Y0213222D01*
X0457942Y0211225D02*
X0496500Y0211225D01*
X0496500Y0212223D02*
X0492695Y0212223D01*
X0494227Y0213222D02*
X0496500Y0213222D01*
X0496500Y0214220D02*
X0495035Y0214220D01*
X0495448Y0215219D02*
X0496500Y0215219D01*
X0496500Y0216217D02*
X0495600Y0216217D01*
X0495600Y0217216D02*
X0496500Y0217216D01*
X0496500Y0218214D02*
X0495269Y0218214D01*
X0494793Y0219213D02*
X0496500Y0219213D01*
X0496500Y0220211D02*
X0493794Y0220211D01*
X0492659Y0222208D02*
X0496500Y0222208D01*
X0496500Y0221210D02*
X0460900Y0221210D01*
X0455603Y0221210D02*
X0447957Y0221210D01*
X0446959Y0222208D02*
X0454605Y0222208D01*
X0453606Y0223207D02*
X0445960Y0223207D01*
X0494212Y0223207D02*
X0496500Y0223207D01*
X0496500Y0224205D02*
X0495028Y0224205D01*
X0495442Y0225204D02*
X0496500Y0225204D01*
X0496500Y0226202D02*
X0495600Y0226202D01*
X0495600Y0227201D02*
X0496500Y0227201D01*
X0496500Y0228199D02*
X0495275Y0228199D01*
X0494808Y0229198D02*
X0496500Y0229198D01*
X0496500Y0230196D02*
X0493809Y0230196D01*
X0434846Y0265144D02*
X0425861Y0265144D01*
X0426860Y0264146D02*
X0433847Y0264146D01*
X0433697Y0155308D02*
X0458303Y0155308D01*
X0457304Y0154309D02*
X0434696Y0154309D01*
X0435600Y0153311D02*
X0456400Y0153311D01*
X0456400Y0152312D02*
X0435600Y0152312D01*
X0435600Y0151314D02*
X0456400Y0151314D01*
X0456400Y0150315D02*
X0435600Y0150315D01*
X0435322Y0149317D02*
X0456678Y0149317D01*
X0457676Y0148318D02*
X0434324Y0148318D01*
X0433325Y0147320D02*
X0458675Y0147320D01*
X0463325Y0147320D02*
X0483493Y0147320D01*
X0482495Y0148318D02*
X0464324Y0148318D01*
X0465322Y0149317D02*
X0481496Y0149317D01*
X0484492Y0146321D02*
X0432900Y0146321D01*
X0432900Y0145323D02*
X0485490Y0145323D01*
X0486489Y0144324D02*
X0432900Y0144324D01*
X0432900Y0143326D02*
X0487487Y0143326D01*
X0488486Y0142327D02*
X0432900Y0142327D01*
X0432900Y0141329D02*
X0489484Y0141329D01*
X0490483Y0140330D02*
X0460989Y0140330D01*
X0462249Y0139332D02*
X0491481Y0139332D01*
X0483803Y0121359D02*
X0422600Y0121359D01*
X0422600Y0122357D02*
X0451765Y0122357D01*
X0450063Y0123356D02*
X0430871Y0123356D01*
X0430115Y0122600D02*
X0432400Y0124885D01*
X0432400Y0128115D01*
X0430115Y0130400D01*
X0426885Y0130400D01*
X0424600Y0128115D01*
X0424600Y0124885D01*
X0426885Y0122600D01*
X0430115Y0122600D01*
X0431870Y0124354D02*
X0449235Y0124354D01*
X0448821Y0125353D02*
X0432400Y0125353D01*
X0432400Y0126351D02*
X0448700Y0126351D01*
X0448700Y0127350D02*
X0432400Y0127350D01*
X0432167Y0128348D02*
X0433636Y0128348D01*
X0432638Y0129347D02*
X0431169Y0129347D01*
X0432100Y0130345D02*
X0430170Y0130345D01*
X0432100Y0131344D02*
X0422600Y0131344D01*
X0422600Y0132342D02*
X0432100Y0132342D01*
X0431472Y0133341D02*
X0422600Y0133341D01*
X0422600Y0134339D02*
X0430474Y0134339D01*
X0429475Y0135338D02*
X0422600Y0135338D01*
X0422600Y0136336D02*
X0429100Y0136336D01*
X0429100Y0137335D02*
X0422600Y0137335D01*
X0422600Y0138333D02*
X0429100Y0138333D01*
X0429100Y0139332D02*
X0422600Y0139332D01*
X0422600Y0140330D02*
X0429100Y0140330D01*
X0429100Y0141329D02*
X0422600Y0141329D01*
X0422600Y0142327D02*
X0429100Y0142327D01*
X0429100Y0143326D02*
X0422600Y0143326D01*
X0422600Y0144324D02*
X0429100Y0144324D01*
X0429100Y0145323D02*
X0422600Y0145323D01*
X0422600Y0146321D02*
X0429100Y0146321D01*
X0428675Y0147320D02*
X0422600Y0147320D01*
X0422600Y0148318D02*
X0427676Y0148318D01*
X0426678Y0149317D02*
X0422600Y0149317D01*
X0422600Y0150315D02*
X0426400Y0150315D01*
X0426400Y0151314D02*
X0423319Y0151314D01*
X0424318Y0152312D02*
X0426400Y0152312D01*
X0426400Y0153311D02*
X0425316Y0153311D01*
X0426315Y0154309D02*
X0427304Y0154309D01*
X0427313Y0155308D02*
X0428303Y0155308D01*
X0432900Y0140330D02*
X0451011Y0140330D01*
X0449751Y0139332D02*
X0432900Y0139332D01*
X0432900Y0138333D02*
X0449105Y0138333D01*
X0448700Y0137335D02*
X0432900Y0137335D01*
X0433851Y0136336D02*
X0448700Y0136336D01*
X0448827Y0135338D02*
X0437678Y0135338D01*
X0438676Y0134339D02*
X0449241Y0134339D01*
X0449766Y0129347D02*
X0439362Y0129347D01*
X0438364Y0128348D02*
X0449111Y0128348D01*
X0426830Y0130345D02*
X0422600Y0130345D01*
X0422600Y0129347D02*
X0425831Y0129347D01*
X0424833Y0128348D02*
X0422600Y0128348D01*
X0422600Y0127350D02*
X0424600Y0127350D01*
X0424600Y0126351D02*
X0422600Y0126351D01*
X0422600Y0125353D02*
X0424600Y0125353D01*
X0425130Y0124354D02*
X0422600Y0124354D01*
X0422600Y0123356D02*
X0426129Y0123356D01*
X0418608Y0102387D02*
X0418392Y0102387D01*
X0417394Y0101388D02*
X0419606Y0101388D01*
X0420605Y0100390D02*
X0416395Y0100390D01*
X0415397Y0099391D02*
X0421603Y0099391D01*
X0422602Y0098393D02*
X0414398Y0098393D01*
X0413400Y0097394D02*
X0423600Y0097394D01*
X0424599Y0096396D02*
X0412401Y0096396D01*
X0411403Y0095397D02*
X0425597Y0095397D01*
X0426596Y0094399D02*
X0410404Y0094399D01*
X0409406Y0093400D02*
X0427594Y0093400D01*
X0428593Y0092402D02*
X0408407Y0092402D01*
X0407409Y0091403D02*
X0459100Y0091403D01*
X0459100Y0090405D02*
X0406410Y0090405D01*
X0405412Y0089406D02*
X0459100Y0089406D01*
X0459100Y0088408D02*
X0404413Y0088408D01*
X0403415Y0087409D02*
X0459100Y0087409D01*
X0459100Y0086411D02*
X0402416Y0086411D01*
X0401418Y0085412D02*
X0428407Y0085412D01*
X0427408Y0084414D02*
X0400600Y0084414D01*
X0400600Y0083415D02*
X0426410Y0083415D01*
X0426400Y0082417D02*
X0400600Y0082417D01*
X0400600Y0081418D02*
X0426400Y0081418D01*
X0426400Y0080420D02*
X0400990Y0080420D01*
X0401609Y0079421D02*
X0426574Y0079421D01*
X0427572Y0078423D02*
X0402023Y0078423D01*
X0402300Y0077424D02*
X0428571Y0077424D01*
X0429100Y0076426D02*
X0402300Y0076426D01*
X0402300Y0075427D02*
X0429100Y0075427D01*
X0429100Y0074429D02*
X0401961Y0074429D01*
X0401547Y0073430D02*
X0429100Y0073430D01*
X0429100Y0072432D02*
X0400841Y0072432D01*
X0399843Y0071433D02*
X0429100Y0071433D01*
X0429100Y0070434D02*
X0397819Y0070434D01*
X0432900Y0070434D02*
X0480988Y0070434D01*
X0480700Y0071433D02*
X0432900Y0071433D01*
X0432900Y0072432D02*
X0480700Y0072432D01*
X0480779Y0073430D02*
X0432900Y0073430D01*
X0432900Y0074429D02*
X0481193Y0074429D01*
X0481400Y0075427D02*
X0432900Y0075427D01*
X0432900Y0076426D02*
X0481400Y0076426D01*
X0481400Y0077424D02*
X0463429Y0077424D01*
X0464428Y0078423D02*
X0481400Y0078423D01*
X0481400Y0079421D02*
X0465426Y0079421D01*
X0465600Y0080420D02*
X0481400Y0080420D01*
X0481400Y0081418D02*
X0465600Y0081418D01*
X0465600Y0082417D02*
X0481400Y0082417D01*
X0481400Y0083415D02*
X0465590Y0083415D01*
X0464592Y0084414D02*
X0481400Y0084414D01*
X0481400Y0085412D02*
X0463593Y0085412D01*
X0462900Y0086411D02*
X0480584Y0086411D01*
X0479585Y0087409D02*
X0462900Y0087409D01*
X0462900Y0088408D02*
X0478587Y0088408D01*
X0477588Y0089406D02*
X0462900Y0089406D01*
X0462900Y0090405D02*
X0476590Y0090405D01*
X0475591Y0091403D02*
X0462900Y0091403D01*
X0458593Y0092402D02*
X0433407Y0092402D01*
X0434406Y0093400D02*
X0457594Y0093400D01*
X0457100Y0093894D02*
X0457100Y0093894D01*
X0456596Y0094399D02*
X0435404Y0094399D01*
X0435600Y0095397D02*
X0456400Y0095397D01*
X0456400Y0096396D02*
X0435600Y0096396D01*
X0435600Y0097394D02*
X0456400Y0097394D01*
X0456400Y0098393D02*
X0435600Y0098393D01*
X0434614Y0099391D02*
X0457386Y0099391D01*
X0457100Y0099106D02*
X0457100Y0099106D01*
X0458384Y0100390D02*
X0433616Y0100390D01*
X0432905Y0101100D02*
X0432905Y0101100D01*
X0458394Y0100400D02*
X0458394Y0100400D01*
X0458407Y0085412D02*
X0433593Y0085412D01*
X0434592Y0084414D02*
X0457408Y0084414D01*
X0456410Y0083415D02*
X0435590Y0083415D01*
X0435600Y0082417D02*
X0456400Y0082417D01*
X0456400Y0081418D02*
X0435600Y0081418D01*
X0435600Y0080420D02*
X0456400Y0080420D01*
X0456574Y0079421D02*
X0435426Y0079421D01*
X0434428Y0078423D02*
X0457572Y0078423D01*
X0458571Y0077424D02*
X0433429Y0077424D01*
X0432900Y0069436D02*
X0481402Y0069436D01*
X0482252Y0068437D02*
X0432900Y0068437D01*
X0432900Y0067439D02*
X0483608Y0067439D01*
X0496500Y0065442D02*
X0460720Y0065442D01*
X0462138Y0064443D02*
X0496500Y0064443D01*
X0496500Y0063445D02*
X0462849Y0063445D01*
X0463262Y0062446D02*
X0496500Y0062446D01*
X0496500Y0061448D02*
X0463300Y0061448D01*
X0463219Y0060449D02*
X0496500Y0060449D01*
X0496500Y0059451D02*
X0462805Y0059451D01*
X0462033Y0058452D02*
X0496500Y0058452D01*
X0496500Y0057454D02*
X0490885Y0057454D01*
X0491300Y0056455D02*
X0496500Y0056455D01*
X0496500Y0055457D02*
X0491300Y0055457D01*
X0491300Y0054458D02*
X0496500Y0054458D01*
X0496500Y0053460D02*
X0491300Y0053460D01*
X0491300Y0052461D02*
X0496500Y0052461D01*
X0496500Y0051463D02*
X0491300Y0051463D01*
X0491300Y0050464D02*
X0496500Y0050464D01*
X0496500Y0049466D02*
X0491300Y0049466D01*
X0491300Y0048467D02*
X0496500Y0048467D01*
X0496500Y0047469D02*
X0490807Y0047469D01*
X0496500Y0046470D02*
X0379000Y0046470D01*
X0379000Y0045472D02*
X0496500Y0045472D01*
X0496500Y0044473D02*
X0379000Y0044473D01*
X0379000Y0043475D02*
X0496500Y0043475D01*
X0496500Y0042476D02*
X0379000Y0042476D01*
X0379000Y0041478D02*
X0496500Y0041478D01*
X0496500Y0040479D02*
X0379000Y0040479D01*
X0379000Y0039481D02*
X0496500Y0039481D01*
X0496500Y0038482D02*
X0379000Y0038482D01*
X0379000Y0037484D02*
X0496500Y0037484D01*
X0496500Y0036485D02*
X0379000Y0036485D01*
X0379000Y0035487D02*
X0496500Y0035487D01*
X0496500Y0034488D02*
X0379000Y0034488D01*
X0379000Y0033490D02*
X0496500Y0033490D01*
X0496500Y0032491D02*
X0379000Y0032491D01*
X0379000Y0031493D02*
X0496500Y0031493D01*
X0480700Y0056455D02*
X0453642Y0056455D01*
X0449967Y0058452D02*
X0439563Y0058452D01*
X0438565Y0059451D02*
X0449194Y0059451D01*
X0449877Y0054458D02*
X0439474Y0054458D01*
X0438475Y0053460D02*
X0449158Y0053460D01*
X0460468Y0057454D02*
X0481115Y0057454D01*
X0484398Y0098393D02*
X0496500Y0098393D01*
X0496500Y0099391D02*
X0485397Y0099391D01*
X0486395Y0100390D02*
X0496500Y0100390D01*
X0496500Y0101388D02*
X0490727Y0101388D01*
X0491300Y0102387D02*
X0496500Y0102387D01*
X0496500Y0103385D02*
X0491300Y0103385D01*
X0491300Y0104384D02*
X0496500Y0104384D01*
X0496500Y0105382D02*
X0491300Y0105382D01*
X0491300Y0106381D02*
X0496500Y0106381D01*
X0496500Y0107379D02*
X0491300Y0107379D01*
X0491300Y0108378D02*
X0496500Y0108378D01*
X0496500Y0109376D02*
X0491563Y0109376D01*
X0492562Y0110375D02*
X0496500Y0110375D01*
X0496500Y0111373D02*
X0493560Y0111373D01*
X0494559Y0112372D02*
X0496500Y0112372D01*
X0496500Y0113370D02*
X0495557Y0113370D01*
D51*
X0308874Y0117374D02*
X0308000Y0116500D01*
X0308874Y0117374D02*
X0308874Y0136563D01*
X0286000Y0106500D02*
X0242000Y0062500D01*
X0242000Y0061500D01*
X0091000Y0206500D02*
X0086000Y0211500D01*
X0079110Y0211500D01*
X0053126Y0234374D02*
X0050252Y0231500D01*
X0042890Y0231500D01*
X0042890Y0236500D02*
X0051000Y0236500D01*
X0053126Y0234374D01*
D52*
X0231000Y0124500D02*
X0231000Y0116500D01*
X0241000Y0106500D01*
X0236000Y0101500D01*
X0241000Y0106500D02*
X0256000Y0106500D01*
X0256000Y0116500D01*
X0166000Y0053500D02*
X0161307Y0058193D01*
X0130213Y0058193D01*
X0130000Y0057980D01*
X0130000Y0050500D01*
X0122000Y0042500D01*
X0069000Y0042500D01*
X0166000Y0042000D02*
X0166000Y0053500D01*
X0423000Y0167500D02*
X0423000Y0175500D01*
X0423000Y0167500D02*
X0428000Y0162500D01*
X0472500Y0192000D02*
X0444000Y0220500D01*
X0423000Y0220500D01*
X0423000Y0235500D01*
X0409000Y0221500D02*
X0410000Y0220500D01*
X0423000Y0220500D01*
X0472500Y0192000D02*
X0477000Y0195500D01*
D53*
X0481000Y0266500D03*
X0121000Y0266500D03*
X0021000Y0046500D03*
X0321000Y0046500D03*
D54*
X0396000Y0076500D02*
X0396000Y0086500D01*
X0418500Y0109000D01*
X0431000Y0096500D01*
X0418500Y0109000D02*
X0418000Y0109500D01*
X0418000Y0152500D01*
X0419500Y0154000D01*
X0428000Y0162500D01*
X0443000Y0162500D01*
X0472500Y0192000D01*
X0476685Y0196185D01*
X0486000Y0196185D01*
X0382000Y0201500D02*
X0374000Y0201500D01*
X0368000Y0195500D01*
X0368000Y0127500D01*
X0357000Y0116500D01*
X0308000Y0116500D01*
X0286000Y0116500D01*
X0456000Y0126500D02*
X0485685Y0126500D01*
X0486000Y0126185D01*
X0486000Y0106500D02*
X0476500Y0097000D01*
X0486000Y0087500D01*
X0486000Y0072185D01*
X0486000Y0052500D02*
X0485000Y0051500D01*
X0456000Y0051500D01*
X0461000Y0096500D02*
X0476000Y0096500D01*
X0476500Y0097000D01*
D55*
X0191000Y0122500D02*
X0183000Y0114500D01*
X0169000Y0114500D01*
X0166000Y0111500D01*
X0191000Y0122500D02*
X0191000Y0127500D01*
X0187000Y0131500D01*
X0186709Y0131500D01*
X0186709Y0137406D01*
D56*
X0178000Y0140700D03*
X0179000Y0150500D03*
X0185000Y0151500D03*
X0188000Y0164500D03*
X0188200Y0169000D03*
X0183000Y0184500D03*
X0191000Y0186500D03*
X0187000Y0202500D03*
X0186000Y0213300D03*
X0219000Y0208500D03*
X0225000Y0204500D03*
X0223500Y0212500D03*
X0228000Y0216500D03*
X0248300Y0211700D03*
X0253300Y0214900D03*
X0214000Y0238500D03*
X0228000Y0158500D03*
X0223000Y0153500D03*
X0217000Y0145700D03*
X0206200Y0142300D03*
X0201500Y0141500D03*
X0197000Y0127500D03*
X0203000Y0120500D03*
X0179000Y0129500D03*
X0279000Y0136500D03*
X0289000Y0136500D03*
X0338000Y0136500D03*
X0444000Y0212500D03*
X0459000Y0214500D03*
X0458000Y0227500D03*
X0415000Y0226800D03*
X0376100Y0228500D03*
X0376000Y0223500D03*
X0376000Y0218500D03*
X0371000Y0233500D03*
D57*
X0406000Y0247307D02*
X0406000Y0251500D01*
D58*
X0229000Y0200500D02*
X0221000Y0193300D01*
X0212000Y0193300D01*
X0213000Y0191700D02*
X0223000Y0191700D01*
X0213000Y0191700D02*
X0212016Y0190516D01*
D59*
X0209000Y0181500D03*
X0182000Y0199500D03*
X0175600Y0199500D03*
X0202000Y0220500D03*
X0216000Y0221500D03*
X0277000Y0165500D03*
M02*
