G75*
%MOIN*%
%OFA0B0*%
%FSLAX25Y25*%
%IPPOS*%
%LPD*%
%AMOC8*
5,1,8,0,0,1.08239X$1,22.5*
%
%ADD10C,0.01600*%
%ADD11C,0.00600*%
%ADD12C,0.01000*%
%ADD13C,0.00500*%
%ADD14R,0.10000X0.02500*%
%ADD15C,0.00700*%
%ADD16R,0.02000X0.08000*%
%ADD17R,0.02500X0.02000*%
%ADD18C,0.00800*%
%ADD19C,0.00100*%
%ADD20R,0.01500X0.02000*%
%ADD21C,0.00400*%
%ADD22C,0.02000*%
%ADD23R,0.03000X0.42000*%
%ADD24R,0.02000X0.07500*%
%ADD25R,0.02000X0.03000*%
D10*
X0256000Y0036500D02*
X0256000Y0096500D01*
X0396000Y0096500D01*
X0396000Y0091500D01*
X0396000Y0041500D02*
X0396000Y0036500D01*
X0256000Y0036500D01*
D11*
X0172000Y0098000D02*
X0172000Y0115000D01*
X0171998Y0115060D01*
X0171993Y0115121D01*
X0171984Y0115180D01*
X0171971Y0115239D01*
X0171955Y0115298D01*
X0171935Y0115355D01*
X0171912Y0115410D01*
X0171885Y0115465D01*
X0171856Y0115517D01*
X0171823Y0115568D01*
X0171787Y0115617D01*
X0171749Y0115663D01*
X0171707Y0115707D01*
X0171663Y0115749D01*
X0171617Y0115787D01*
X0171568Y0115823D01*
X0171517Y0115856D01*
X0171465Y0115885D01*
X0171410Y0115912D01*
X0171355Y0115935D01*
X0171298Y0115955D01*
X0171239Y0115971D01*
X0171180Y0115984D01*
X0171121Y0115993D01*
X0171060Y0115998D01*
X0171000Y0116000D01*
X0161000Y0116000D01*
X0160940Y0115998D01*
X0160879Y0115993D01*
X0160820Y0115984D01*
X0160761Y0115971D01*
X0160702Y0115955D01*
X0160645Y0115935D01*
X0160590Y0115912D01*
X0160535Y0115885D01*
X0160483Y0115856D01*
X0160432Y0115823D01*
X0160383Y0115787D01*
X0160337Y0115749D01*
X0160293Y0115707D01*
X0160251Y0115663D01*
X0160213Y0115617D01*
X0160177Y0115568D01*
X0160144Y0115517D01*
X0160115Y0115465D01*
X0160088Y0115410D01*
X0160065Y0115355D01*
X0160045Y0115298D01*
X0160029Y0115239D01*
X0160016Y0115180D01*
X0160007Y0115121D01*
X0160002Y0115060D01*
X0160000Y0115000D01*
X0160000Y0098000D01*
X0160002Y0097940D01*
X0160007Y0097879D01*
X0160016Y0097820D01*
X0160029Y0097761D01*
X0160045Y0097702D01*
X0160065Y0097645D01*
X0160088Y0097590D01*
X0160115Y0097535D01*
X0160144Y0097483D01*
X0160177Y0097432D01*
X0160213Y0097383D01*
X0160251Y0097337D01*
X0160293Y0097293D01*
X0160337Y0097251D01*
X0160383Y0097213D01*
X0160432Y0097177D01*
X0160483Y0097144D01*
X0160535Y0097115D01*
X0160590Y0097088D01*
X0160645Y0097065D01*
X0160702Y0097045D01*
X0160761Y0097029D01*
X0160820Y0097016D01*
X0160879Y0097007D01*
X0160940Y0097002D01*
X0161000Y0097000D01*
X0171000Y0097000D01*
X0171060Y0097002D01*
X0171121Y0097007D01*
X0171180Y0097016D01*
X0171239Y0097029D01*
X0171298Y0097045D01*
X0171355Y0097065D01*
X0171410Y0097088D01*
X0171465Y0097115D01*
X0171517Y0097144D01*
X0171568Y0097177D01*
X0171617Y0097213D01*
X0171663Y0097251D01*
X0171707Y0097293D01*
X0171749Y0097337D01*
X0171787Y0097383D01*
X0171823Y0097432D01*
X0171856Y0097483D01*
X0171885Y0097535D01*
X0171912Y0097590D01*
X0171935Y0097645D01*
X0171955Y0097702D01*
X0171971Y0097761D01*
X0171984Y0097820D01*
X0171993Y0097879D01*
X0171998Y0097940D01*
X0172000Y0098000D01*
X0166000Y0105000D02*
X0166000Y0105500D01*
X0166000Y0107500D02*
X0166000Y0108000D01*
X0225000Y0121000D02*
X0225000Y0138000D01*
X0225002Y0138060D01*
X0225007Y0138121D01*
X0225016Y0138180D01*
X0225029Y0138239D01*
X0225045Y0138298D01*
X0225065Y0138355D01*
X0225088Y0138410D01*
X0225115Y0138465D01*
X0225144Y0138517D01*
X0225177Y0138568D01*
X0225213Y0138617D01*
X0225251Y0138663D01*
X0225293Y0138707D01*
X0225337Y0138749D01*
X0225383Y0138787D01*
X0225432Y0138823D01*
X0225483Y0138856D01*
X0225535Y0138885D01*
X0225590Y0138912D01*
X0225645Y0138935D01*
X0225702Y0138955D01*
X0225761Y0138971D01*
X0225820Y0138984D01*
X0225879Y0138993D01*
X0225940Y0138998D01*
X0226000Y0139000D01*
X0236000Y0139000D01*
X0236060Y0138998D01*
X0236121Y0138993D01*
X0236180Y0138984D01*
X0236239Y0138971D01*
X0236298Y0138955D01*
X0236355Y0138935D01*
X0236410Y0138912D01*
X0236465Y0138885D01*
X0236517Y0138856D01*
X0236568Y0138823D01*
X0236617Y0138787D01*
X0236663Y0138749D01*
X0236707Y0138707D01*
X0236749Y0138663D01*
X0236787Y0138617D01*
X0236823Y0138568D01*
X0236856Y0138517D01*
X0236885Y0138465D01*
X0236912Y0138410D01*
X0236935Y0138355D01*
X0236955Y0138298D01*
X0236971Y0138239D01*
X0236984Y0138180D01*
X0236993Y0138121D01*
X0236998Y0138060D01*
X0237000Y0138000D01*
X0237000Y0121000D01*
X0236998Y0120940D01*
X0236993Y0120879D01*
X0236984Y0120820D01*
X0236971Y0120761D01*
X0236955Y0120702D01*
X0236935Y0120645D01*
X0236912Y0120590D01*
X0236885Y0120535D01*
X0236856Y0120483D01*
X0236823Y0120432D01*
X0236787Y0120383D01*
X0236749Y0120337D01*
X0236707Y0120293D01*
X0236663Y0120251D01*
X0236617Y0120213D01*
X0236568Y0120177D01*
X0236517Y0120144D01*
X0236465Y0120115D01*
X0236410Y0120088D01*
X0236355Y0120065D01*
X0236298Y0120045D01*
X0236239Y0120029D01*
X0236180Y0120016D01*
X0236121Y0120007D01*
X0236060Y0120002D01*
X0236000Y0120000D01*
X0226000Y0120000D01*
X0225940Y0120002D01*
X0225879Y0120007D01*
X0225820Y0120016D01*
X0225761Y0120029D01*
X0225702Y0120045D01*
X0225645Y0120065D01*
X0225590Y0120088D01*
X0225535Y0120115D01*
X0225483Y0120144D01*
X0225432Y0120177D01*
X0225383Y0120213D01*
X0225337Y0120251D01*
X0225293Y0120293D01*
X0225251Y0120337D01*
X0225213Y0120383D01*
X0225177Y0120432D01*
X0225144Y0120483D01*
X0225115Y0120535D01*
X0225088Y0120590D01*
X0225065Y0120645D01*
X0225045Y0120702D01*
X0225029Y0120761D01*
X0225016Y0120820D01*
X0225007Y0120879D01*
X0225002Y0120940D01*
X0225000Y0121000D01*
X0231000Y0128000D02*
X0231000Y0128500D01*
X0231000Y0130500D02*
X0231000Y0131000D01*
X0262000Y0119500D02*
X0262000Y0113500D01*
X0262002Y0113440D01*
X0262007Y0113379D01*
X0262016Y0113320D01*
X0262029Y0113261D01*
X0262045Y0113202D01*
X0262065Y0113145D01*
X0262088Y0113090D01*
X0262115Y0113035D01*
X0262144Y0112983D01*
X0262177Y0112932D01*
X0262213Y0112883D01*
X0262251Y0112837D01*
X0262293Y0112793D01*
X0262337Y0112751D01*
X0262383Y0112713D01*
X0262432Y0112677D01*
X0262483Y0112644D01*
X0262535Y0112615D01*
X0262590Y0112588D01*
X0262645Y0112565D01*
X0262702Y0112545D01*
X0262761Y0112529D01*
X0262820Y0112516D01*
X0262879Y0112507D01*
X0262940Y0112502D01*
X0263000Y0112500D01*
X0279000Y0112500D01*
X0279060Y0112502D01*
X0279121Y0112507D01*
X0279180Y0112516D01*
X0279239Y0112529D01*
X0279298Y0112545D01*
X0279355Y0112565D01*
X0279410Y0112588D01*
X0279465Y0112615D01*
X0279517Y0112644D01*
X0279568Y0112677D01*
X0279617Y0112713D01*
X0279663Y0112751D01*
X0279707Y0112793D01*
X0279749Y0112837D01*
X0279787Y0112883D01*
X0279823Y0112932D01*
X0279856Y0112983D01*
X0279885Y0113035D01*
X0279912Y0113090D01*
X0279935Y0113145D01*
X0279955Y0113202D01*
X0279971Y0113261D01*
X0279984Y0113320D01*
X0279993Y0113379D01*
X0279998Y0113440D01*
X0280000Y0113500D01*
X0280000Y0119500D01*
X0279998Y0119560D01*
X0279993Y0119621D01*
X0279984Y0119680D01*
X0279971Y0119739D01*
X0279955Y0119798D01*
X0279935Y0119855D01*
X0279912Y0119910D01*
X0279885Y0119965D01*
X0279856Y0120017D01*
X0279823Y0120068D01*
X0279787Y0120117D01*
X0279749Y0120163D01*
X0279707Y0120207D01*
X0279663Y0120249D01*
X0279617Y0120287D01*
X0279568Y0120323D01*
X0279517Y0120356D01*
X0279465Y0120385D01*
X0279410Y0120412D01*
X0279355Y0120435D01*
X0279298Y0120455D01*
X0279239Y0120471D01*
X0279180Y0120484D01*
X0279121Y0120493D01*
X0279060Y0120498D01*
X0279000Y0120500D01*
X0263000Y0120500D01*
X0262940Y0120498D01*
X0262879Y0120493D01*
X0262820Y0120484D01*
X0262761Y0120471D01*
X0262702Y0120455D01*
X0262645Y0120435D01*
X0262590Y0120412D01*
X0262535Y0120385D01*
X0262483Y0120356D01*
X0262432Y0120323D01*
X0262383Y0120287D01*
X0262337Y0120249D01*
X0262293Y0120207D01*
X0262251Y0120163D01*
X0262213Y0120117D01*
X0262177Y0120068D01*
X0262144Y0120017D01*
X0262115Y0119965D01*
X0262088Y0119910D01*
X0262065Y0119855D01*
X0262045Y0119798D01*
X0262029Y0119739D01*
X0262016Y0119680D01*
X0262007Y0119621D01*
X0262002Y0119560D01*
X0262000Y0119500D01*
X0268500Y0116500D02*
X0271000Y0116500D01*
X0271000Y0114000D01*
X0271000Y0116500D02*
X0271000Y0119000D01*
X0271000Y0116500D02*
X0275000Y0119000D01*
X0275000Y0114000D01*
X0271000Y0116500D01*
X0277000Y0116500D01*
X0279000Y0110500D02*
X0263000Y0110500D01*
X0262940Y0110498D01*
X0262879Y0110493D01*
X0262820Y0110484D01*
X0262761Y0110471D01*
X0262702Y0110455D01*
X0262645Y0110435D01*
X0262590Y0110412D01*
X0262535Y0110385D01*
X0262483Y0110356D01*
X0262432Y0110323D01*
X0262383Y0110287D01*
X0262337Y0110249D01*
X0262293Y0110207D01*
X0262251Y0110163D01*
X0262213Y0110117D01*
X0262177Y0110068D01*
X0262144Y0110017D01*
X0262115Y0109965D01*
X0262088Y0109910D01*
X0262065Y0109855D01*
X0262045Y0109798D01*
X0262029Y0109739D01*
X0262016Y0109680D01*
X0262007Y0109621D01*
X0262002Y0109560D01*
X0262000Y0109500D01*
X0262000Y0103500D01*
X0262002Y0103440D01*
X0262007Y0103379D01*
X0262016Y0103320D01*
X0262029Y0103261D01*
X0262045Y0103202D01*
X0262065Y0103145D01*
X0262088Y0103090D01*
X0262115Y0103035D01*
X0262144Y0102983D01*
X0262177Y0102932D01*
X0262213Y0102883D01*
X0262251Y0102837D01*
X0262293Y0102793D01*
X0262337Y0102751D01*
X0262383Y0102713D01*
X0262432Y0102677D01*
X0262483Y0102644D01*
X0262535Y0102615D01*
X0262590Y0102588D01*
X0262645Y0102565D01*
X0262702Y0102545D01*
X0262761Y0102529D01*
X0262820Y0102516D01*
X0262879Y0102507D01*
X0262940Y0102502D01*
X0263000Y0102500D01*
X0279000Y0102500D01*
X0279060Y0102502D01*
X0279121Y0102507D01*
X0279180Y0102516D01*
X0279239Y0102529D01*
X0279298Y0102545D01*
X0279355Y0102565D01*
X0279410Y0102588D01*
X0279465Y0102615D01*
X0279517Y0102644D01*
X0279568Y0102677D01*
X0279617Y0102713D01*
X0279663Y0102751D01*
X0279707Y0102793D01*
X0279749Y0102837D01*
X0279787Y0102883D01*
X0279823Y0102932D01*
X0279856Y0102983D01*
X0279885Y0103035D01*
X0279912Y0103090D01*
X0279935Y0103145D01*
X0279955Y0103202D01*
X0279971Y0103261D01*
X0279984Y0103320D01*
X0279993Y0103379D01*
X0279998Y0103440D01*
X0280000Y0103500D01*
X0280000Y0109500D01*
X0279998Y0109560D01*
X0279993Y0109621D01*
X0279984Y0109680D01*
X0279971Y0109739D01*
X0279955Y0109798D01*
X0279935Y0109855D01*
X0279912Y0109910D01*
X0279885Y0109965D01*
X0279856Y0110017D01*
X0279823Y0110068D01*
X0279787Y0110117D01*
X0279749Y0110163D01*
X0279707Y0110207D01*
X0279663Y0110249D01*
X0279617Y0110287D01*
X0279568Y0110323D01*
X0279517Y0110356D01*
X0279465Y0110385D01*
X0279410Y0110412D01*
X0279355Y0110435D01*
X0279298Y0110455D01*
X0279239Y0110471D01*
X0279180Y0110484D01*
X0279121Y0110493D01*
X0279060Y0110498D01*
X0279000Y0110500D01*
X0275000Y0109000D02*
X0271000Y0106500D01*
X0271000Y0104000D01*
X0271000Y0106500D02*
X0268500Y0106500D01*
X0271000Y0106500D02*
X0271000Y0109000D01*
X0271000Y0106500D02*
X0277000Y0106500D01*
X0275000Y0109000D02*
X0275000Y0104000D01*
X0271000Y0106500D01*
X0241500Y0101500D02*
X0239500Y0101500D01*
X0240500Y0102500D02*
X0240500Y0100500D01*
X0220000Y0101500D02*
X0220003Y0101770D01*
X0220013Y0102040D01*
X0220030Y0102309D01*
X0220053Y0102578D01*
X0220083Y0102847D01*
X0220119Y0103114D01*
X0220162Y0103381D01*
X0220211Y0103646D01*
X0220267Y0103910D01*
X0220330Y0104173D01*
X0220398Y0104434D01*
X0220474Y0104693D01*
X0220555Y0104950D01*
X0220643Y0105206D01*
X0220737Y0105459D01*
X0220837Y0105710D01*
X0220944Y0105958D01*
X0221056Y0106203D01*
X0221175Y0106446D01*
X0221299Y0106685D01*
X0221429Y0106922D01*
X0221565Y0107155D01*
X0221707Y0107385D01*
X0221854Y0107611D01*
X0222007Y0107834D01*
X0222165Y0108053D01*
X0222328Y0108268D01*
X0222497Y0108478D01*
X0222671Y0108685D01*
X0222850Y0108887D01*
X0223033Y0109085D01*
X0223222Y0109278D01*
X0223415Y0109467D01*
X0223613Y0109650D01*
X0223815Y0109829D01*
X0224022Y0110003D01*
X0224232Y0110172D01*
X0224447Y0110335D01*
X0224666Y0110493D01*
X0224889Y0110646D01*
X0225115Y0110793D01*
X0225345Y0110935D01*
X0225578Y0111071D01*
X0225815Y0111201D01*
X0226054Y0111325D01*
X0226297Y0111444D01*
X0226542Y0111556D01*
X0226790Y0111663D01*
X0227041Y0111763D01*
X0227294Y0111857D01*
X0227550Y0111945D01*
X0227807Y0112026D01*
X0228066Y0112102D01*
X0228327Y0112170D01*
X0228590Y0112233D01*
X0228854Y0112289D01*
X0229119Y0112338D01*
X0229386Y0112381D01*
X0229653Y0112417D01*
X0229922Y0112447D01*
X0230191Y0112470D01*
X0230460Y0112487D01*
X0230730Y0112497D01*
X0231000Y0112500D01*
X0231270Y0112497D01*
X0231540Y0112487D01*
X0231809Y0112470D01*
X0232078Y0112447D01*
X0232347Y0112417D01*
X0232614Y0112381D01*
X0232881Y0112338D01*
X0233146Y0112289D01*
X0233410Y0112233D01*
X0233673Y0112170D01*
X0233934Y0112102D01*
X0234193Y0112026D01*
X0234450Y0111945D01*
X0234706Y0111857D01*
X0234959Y0111763D01*
X0235210Y0111663D01*
X0235458Y0111556D01*
X0235703Y0111444D01*
X0235946Y0111325D01*
X0236185Y0111201D01*
X0236422Y0111071D01*
X0236655Y0110935D01*
X0236885Y0110793D01*
X0237111Y0110646D01*
X0237334Y0110493D01*
X0237553Y0110335D01*
X0237768Y0110172D01*
X0237978Y0110003D01*
X0238185Y0109829D01*
X0238387Y0109650D01*
X0238585Y0109467D01*
X0238778Y0109278D01*
X0238967Y0109085D01*
X0239150Y0108887D01*
X0239329Y0108685D01*
X0239503Y0108478D01*
X0239672Y0108268D01*
X0239835Y0108053D01*
X0239993Y0107834D01*
X0240146Y0107611D01*
X0240293Y0107385D01*
X0240435Y0107155D01*
X0240571Y0106922D01*
X0240701Y0106685D01*
X0240825Y0106446D01*
X0240944Y0106203D01*
X0241056Y0105958D01*
X0241163Y0105710D01*
X0241263Y0105459D01*
X0241357Y0105206D01*
X0241445Y0104950D01*
X0241526Y0104693D01*
X0241602Y0104434D01*
X0241670Y0104173D01*
X0241733Y0103910D01*
X0241789Y0103646D01*
X0241838Y0103381D01*
X0241881Y0103114D01*
X0241917Y0102847D01*
X0241947Y0102578D01*
X0241970Y0102309D01*
X0241987Y0102040D01*
X0241997Y0101770D01*
X0242000Y0101500D01*
X0241997Y0101230D01*
X0241987Y0100960D01*
X0241970Y0100691D01*
X0241947Y0100422D01*
X0241917Y0100153D01*
X0241881Y0099886D01*
X0241838Y0099619D01*
X0241789Y0099354D01*
X0241733Y0099090D01*
X0241670Y0098827D01*
X0241602Y0098566D01*
X0241526Y0098307D01*
X0241445Y0098050D01*
X0241357Y0097794D01*
X0241263Y0097541D01*
X0241163Y0097290D01*
X0241056Y0097042D01*
X0240944Y0096797D01*
X0240825Y0096554D01*
X0240701Y0096315D01*
X0240571Y0096078D01*
X0240435Y0095845D01*
X0240293Y0095615D01*
X0240146Y0095389D01*
X0239993Y0095166D01*
X0239835Y0094947D01*
X0239672Y0094732D01*
X0239503Y0094522D01*
X0239329Y0094315D01*
X0239150Y0094113D01*
X0238967Y0093915D01*
X0238778Y0093722D01*
X0238585Y0093533D01*
X0238387Y0093350D01*
X0238185Y0093171D01*
X0237978Y0092997D01*
X0237768Y0092828D01*
X0237553Y0092665D01*
X0237334Y0092507D01*
X0237111Y0092354D01*
X0236885Y0092207D01*
X0236655Y0092065D01*
X0236422Y0091929D01*
X0236185Y0091799D01*
X0235946Y0091675D01*
X0235703Y0091556D01*
X0235458Y0091444D01*
X0235210Y0091337D01*
X0234959Y0091237D01*
X0234706Y0091143D01*
X0234450Y0091055D01*
X0234193Y0090974D01*
X0233934Y0090898D01*
X0233673Y0090830D01*
X0233410Y0090767D01*
X0233146Y0090711D01*
X0232881Y0090662D01*
X0232614Y0090619D01*
X0232347Y0090583D01*
X0232078Y0090553D01*
X0231809Y0090530D01*
X0231540Y0090513D01*
X0231270Y0090503D01*
X0231000Y0090500D01*
X0230730Y0090503D01*
X0230460Y0090513D01*
X0230191Y0090530D01*
X0229922Y0090553D01*
X0229653Y0090583D01*
X0229386Y0090619D01*
X0229119Y0090662D01*
X0228854Y0090711D01*
X0228590Y0090767D01*
X0228327Y0090830D01*
X0228066Y0090898D01*
X0227807Y0090974D01*
X0227550Y0091055D01*
X0227294Y0091143D01*
X0227041Y0091237D01*
X0226790Y0091337D01*
X0226542Y0091444D01*
X0226297Y0091556D01*
X0226054Y0091675D01*
X0225815Y0091799D01*
X0225578Y0091929D01*
X0225345Y0092065D01*
X0225115Y0092207D01*
X0224889Y0092354D01*
X0224666Y0092507D01*
X0224447Y0092665D01*
X0224232Y0092828D01*
X0224022Y0092997D01*
X0223815Y0093171D01*
X0223613Y0093350D01*
X0223415Y0093533D01*
X0223222Y0093722D01*
X0223033Y0093915D01*
X0222850Y0094113D01*
X0222671Y0094315D01*
X0222497Y0094522D01*
X0222328Y0094732D01*
X0222165Y0094947D01*
X0222007Y0095166D01*
X0221854Y0095389D01*
X0221707Y0095615D01*
X0221565Y0095845D01*
X0221429Y0096078D01*
X0221299Y0096315D01*
X0221175Y0096554D01*
X0221056Y0096797D01*
X0220944Y0097042D01*
X0220837Y0097290D01*
X0220737Y0097541D01*
X0220643Y0097794D01*
X0220555Y0098050D01*
X0220474Y0098307D01*
X0220398Y0098566D01*
X0220330Y0098827D01*
X0220267Y0099090D01*
X0220211Y0099354D01*
X0220162Y0099619D01*
X0220119Y0099886D01*
X0220083Y0100153D01*
X0220053Y0100422D01*
X0220030Y0100691D01*
X0220013Y0100960D01*
X0220003Y0101230D01*
X0220000Y0101500D01*
X0197500Y0151500D02*
X0180500Y0151500D01*
X0180440Y0151502D01*
X0180379Y0151507D01*
X0180320Y0151516D01*
X0180261Y0151529D01*
X0180202Y0151545D01*
X0180145Y0151565D01*
X0180090Y0151588D01*
X0180035Y0151615D01*
X0179983Y0151644D01*
X0179932Y0151677D01*
X0179883Y0151713D01*
X0179837Y0151751D01*
X0179793Y0151793D01*
X0179751Y0151837D01*
X0179713Y0151883D01*
X0179677Y0151932D01*
X0179644Y0151983D01*
X0179615Y0152035D01*
X0179588Y0152090D01*
X0179565Y0152145D01*
X0179545Y0152202D01*
X0179529Y0152261D01*
X0179516Y0152320D01*
X0179507Y0152379D01*
X0179502Y0152440D01*
X0179500Y0152500D01*
X0179500Y0162500D01*
X0179502Y0162560D01*
X0179507Y0162621D01*
X0179516Y0162680D01*
X0179529Y0162739D01*
X0179545Y0162798D01*
X0179565Y0162855D01*
X0179588Y0162910D01*
X0179615Y0162965D01*
X0179644Y0163017D01*
X0179677Y0163068D01*
X0179713Y0163117D01*
X0179751Y0163163D01*
X0179793Y0163207D01*
X0179837Y0163249D01*
X0179883Y0163287D01*
X0179932Y0163323D01*
X0179983Y0163356D01*
X0180035Y0163385D01*
X0180090Y0163412D01*
X0180145Y0163435D01*
X0180202Y0163455D01*
X0180261Y0163471D01*
X0180320Y0163484D01*
X0180379Y0163493D01*
X0180440Y0163498D01*
X0180500Y0163500D01*
X0197500Y0163500D01*
X0197560Y0163498D01*
X0197621Y0163493D01*
X0197680Y0163484D01*
X0197739Y0163471D01*
X0197798Y0163455D01*
X0197855Y0163435D01*
X0197910Y0163412D01*
X0197965Y0163385D01*
X0198017Y0163356D01*
X0198068Y0163323D01*
X0198117Y0163287D01*
X0198163Y0163249D01*
X0198207Y0163207D01*
X0198249Y0163163D01*
X0198287Y0163117D01*
X0198323Y0163068D01*
X0198356Y0163017D01*
X0198385Y0162965D01*
X0198412Y0162910D01*
X0198435Y0162855D01*
X0198455Y0162798D01*
X0198471Y0162739D01*
X0198484Y0162680D01*
X0198493Y0162621D01*
X0198498Y0162560D01*
X0198500Y0162500D01*
X0198500Y0152500D01*
X0198498Y0152440D01*
X0198493Y0152379D01*
X0198484Y0152320D01*
X0198471Y0152261D01*
X0198455Y0152202D01*
X0198435Y0152145D01*
X0198412Y0152090D01*
X0198385Y0152035D01*
X0198356Y0151983D01*
X0198323Y0151932D01*
X0198287Y0151883D01*
X0198249Y0151837D01*
X0198207Y0151793D01*
X0198163Y0151751D01*
X0198117Y0151713D01*
X0198068Y0151677D01*
X0198017Y0151644D01*
X0197965Y0151615D01*
X0197910Y0151588D01*
X0197855Y0151565D01*
X0197798Y0151545D01*
X0197739Y0151529D01*
X0197680Y0151516D01*
X0197621Y0151507D01*
X0197560Y0151502D01*
X0197500Y0151500D01*
X0190500Y0157500D02*
X0190000Y0157500D01*
X0188000Y0157500D02*
X0187500Y0157500D01*
X0201500Y0169500D02*
X0201500Y0171500D01*
X0202500Y0170500D02*
X0200500Y0170500D01*
X0200000Y0170500D02*
X0200003Y0170770D01*
X0200013Y0171040D01*
X0200030Y0171309D01*
X0200053Y0171578D01*
X0200083Y0171847D01*
X0200119Y0172114D01*
X0200162Y0172381D01*
X0200211Y0172646D01*
X0200267Y0172910D01*
X0200330Y0173173D01*
X0200398Y0173434D01*
X0200474Y0173693D01*
X0200555Y0173950D01*
X0200643Y0174206D01*
X0200737Y0174459D01*
X0200837Y0174710D01*
X0200944Y0174958D01*
X0201056Y0175203D01*
X0201175Y0175446D01*
X0201299Y0175685D01*
X0201429Y0175922D01*
X0201565Y0176155D01*
X0201707Y0176385D01*
X0201854Y0176611D01*
X0202007Y0176834D01*
X0202165Y0177053D01*
X0202328Y0177268D01*
X0202497Y0177478D01*
X0202671Y0177685D01*
X0202850Y0177887D01*
X0203033Y0178085D01*
X0203222Y0178278D01*
X0203415Y0178467D01*
X0203613Y0178650D01*
X0203815Y0178829D01*
X0204022Y0179003D01*
X0204232Y0179172D01*
X0204447Y0179335D01*
X0204666Y0179493D01*
X0204889Y0179646D01*
X0205115Y0179793D01*
X0205345Y0179935D01*
X0205578Y0180071D01*
X0205815Y0180201D01*
X0206054Y0180325D01*
X0206297Y0180444D01*
X0206542Y0180556D01*
X0206790Y0180663D01*
X0207041Y0180763D01*
X0207294Y0180857D01*
X0207550Y0180945D01*
X0207807Y0181026D01*
X0208066Y0181102D01*
X0208327Y0181170D01*
X0208590Y0181233D01*
X0208854Y0181289D01*
X0209119Y0181338D01*
X0209386Y0181381D01*
X0209653Y0181417D01*
X0209922Y0181447D01*
X0210191Y0181470D01*
X0210460Y0181487D01*
X0210730Y0181497D01*
X0211000Y0181500D01*
X0211270Y0181497D01*
X0211540Y0181487D01*
X0211809Y0181470D01*
X0212078Y0181447D01*
X0212347Y0181417D01*
X0212614Y0181381D01*
X0212881Y0181338D01*
X0213146Y0181289D01*
X0213410Y0181233D01*
X0213673Y0181170D01*
X0213934Y0181102D01*
X0214193Y0181026D01*
X0214450Y0180945D01*
X0214706Y0180857D01*
X0214959Y0180763D01*
X0215210Y0180663D01*
X0215458Y0180556D01*
X0215703Y0180444D01*
X0215946Y0180325D01*
X0216185Y0180201D01*
X0216422Y0180071D01*
X0216655Y0179935D01*
X0216885Y0179793D01*
X0217111Y0179646D01*
X0217334Y0179493D01*
X0217553Y0179335D01*
X0217768Y0179172D01*
X0217978Y0179003D01*
X0218185Y0178829D01*
X0218387Y0178650D01*
X0218585Y0178467D01*
X0218778Y0178278D01*
X0218967Y0178085D01*
X0219150Y0177887D01*
X0219329Y0177685D01*
X0219503Y0177478D01*
X0219672Y0177268D01*
X0219835Y0177053D01*
X0219993Y0176834D01*
X0220146Y0176611D01*
X0220293Y0176385D01*
X0220435Y0176155D01*
X0220571Y0175922D01*
X0220701Y0175685D01*
X0220825Y0175446D01*
X0220944Y0175203D01*
X0221056Y0174958D01*
X0221163Y0174710D01*
X0221263Y0174459D01*
X0221357Y0174206D01*
X0221445Y0173950D01*
X0221526Y0173693D01*
X0221602Y0173434D01*
X0221670Y0173173D01*
X0221733Y0172910D01*
X0221789Y0172646D01*
X0221838Y0172381D01*
X0221881Y0172114D01*
X0221917Y0171847D01*
X0221947Y0171578D01*
X0221970Y0171309D01*
X0221987Y0171040D01*
X0221997Y0170770D01*
X0222000Y0170500D01*
X0221997Y0170230D01*
X0221987Y0169960D01*
X0221970Y0169691D01*
X0221947Y0169422D01*
X0221917Y0169153D01*
X0221881Y0168886D01*
X0221838Y0168619D01*
X0221789Y0168354D01*
X0221733Y0168090D01*
X0221670Y0167827D01*
X0221602Y0167566D01*
X0221526Y0167307D01*
X0221445Y0167050D01*
X0221357Y0166794D01*
X0221263Y0166541D01*
X0221163Y0166290D01*
X0221056Y0166042D01*
X0220944Y0165797D01*
X0220825Y0165554D01*
X0220701Y0165315D01*
X0220571Y0165078D01*
X0220435Y0164845D01*
X0220293Y0164615D01*
X0220146Y0164389D01*
X0219993Y0164166D01*
X0219835Y0163947D01*
X0219672Y0163732D01*
X0219503Y0163522D01*
X0219329Y0163315D01*
X0219150Y0163113D01*
X0218967Y0162915D01*
X0218778Y0162722D01*
X0218585Y0162533D01*
X0218387Y0162350D01*
X0218185Y0162171D01*
X0217978Y0161997D01*
X0217768Y0161828D01*
X0217553Y0161665D01*
X0217334Y0161507D01*
X0217111Y0161354D01*
X0216885Y0161207D01*
X0216655Y0161065D01*
X0216422Y0160929D01*
X0216185Y0160799D01*
X0215946Y0160675D01*
X0215703Y0160556D01*
X0215458Y0160444D01*
X0215210Y0160337D01*
X0214959Y0160237D01*
X0214706Y0160143D01*
X0214450Y0160055D01*
X0214193Y0159974D01*
X0213934Y0159898D01*
X0213673Y0159830D01*
X0213410Y0159767D01*
X0213146Y0159711D01*
X0212881Y0159662D01*
X0212614Y0159619D01*
X0212347Y0159583D01*
X0212078Y0159553D01*
X0211809Y0159530D01*
X0211540Y0159513D01*
X0211270Y0159503D01*
X0211000Y0159500D01*
X0210730Y0159503D01*
X0210460Y0159513D01*
X0210191Y0159530D01*
X0209922Y0159553D01*
X0209653Y0159583D01*
X0209386Y0159619D01*
X0209119Y0159662D01*
X0208854Y0159711D01*
X0208590Y0159767D01*
X0208327Y0159830D01*
X0208066Y0159898D01*
X0207807Y0159974D01*
X0207550Y0160055D01*
X0207294Y0160143D01*
X0207041Y0160237D01*
X0206790Y0160337D01*
X0206542Y0160444D01*
X0206297Y0160556D01*
X0206054Y0160675D01*
X0205815Y0160799D01*
X0205578Y0160929D01*
X0205345Y0161065D01*
X0205115Y0161207D01*
X0204889Y0161354D01*
X0204666Y0161507D01*
X0204447Y0161665D01*
X0204232Y0161828D01*
X0204022Y0161997D01*
X0203815Y0162171D01*
X0203613Y0162350D01*
X0203415Y0162533D01*
X0203222Y0162722D01*
X0203033Y0162915D01*
X0202850Y0163113D01*
X0202671Y0163315D01*
X0202497Y0163522D01*
X0202328Y0163732D01*
X0202165Y0163947D01*
X0202007Y0164166D01*
X0201854Y0164389D01*
X0201707Y0164615D01*
X0201565Y0164845D01*
X0201429Y0165078D01*
X0201299Y0165315D01*
X0201175Y0165554D01*
X0201056Y0165797D01*
X0200944Y0166042D01*
X0200837Y0166290D01*
X0200737Y0166541D01*
X0200643Y0166794D01*
X0200555Y0167050D01*
X0200474Y0167307D01*
X0200398Y0167566D01*
X0200330Y0167827D01*
X0200267Y0168090D01*
X0200211Y0168354D01*
X0200162Y0168619D01*
X0200119Y0168886D01*
X0200083Y0169153D01*
X0200053Y0169422D01*
X0200030Y0169691D01*
X0200013Y0169960D01*
X0200003Y0170230D01*
X0200000Y0170500D01*
X0210000Y0183000D02*
X0220000Y0183000D01*
X0220060Y0183002D01*
X0220121Y0183007D01*
X0220180Y0183016D01*
X0220239Y0183029D01*
X0220298Y0183045D01*
X0220355Y0183065D01*
X0220410Y0183088D01*
X0220465Y0183115D01*
X0220517Y0183144D01*
X0220568Y0183177D01*
X0220617Y0183213D01*
X0220663Y0183251D01*
X0220707Y0183293D01*
X0220749Y0183337D01*
X0220787Y0183383D01*
X0220823Y0183432D01*
X0220856Y0183483D01*
X0220885Y0183535D01*
X0220912Y0183590D01*
X0220935Y0183645D01*
X0220955Y0183702D01*
X0220971Y0183761D01*
X0220984Y0183820D01*
X0220993Y0183879D01*
X0220998Y0183940D01*
X0221000Y0184000D01*
X0221000Y0201000D01*
X0220998Y0201060D01*
X0220993Y0201121D01*
X0220984Y0201180D01*
X0220971Y0201239D01*
X0220955Y0201298D01*
X0220935Y0201355D01*
X0220912Y0201410D01*
X0220885Y0201465D01*
X0220856Y0201517D01*
X0220823Y0201568D01*
X0220787Y0201617D01*
X0220749Y0201663D01*
X0220707Y0201707D01*
X0220663Y0201749D01*
X0220617Y0201787D01*
X0220568Y0201823D01*
X0220517Y0201856D01*
X0220465Y0201885D01*
X0220410Y0201912D01*
X0220355Y0201935D01*
X0220298Y0201955D01*
X0220239Y0201971D01*
X0220180Y0201984D01*
X0220121Y0201993D01*
X0220060Y0201998D01*
X0220000Y0202000D01*
X0210000Y0202000D01*
X0209940Y0201998D01*
X0209879Y0201993D01*
X0209820Y0201984D01*
X0209761Y0201971D01*
X0209702Y0201955D01*
X0209645Y0201935D01*
X0209590Y0201912D01*
X0209535Y0201885D01*
X0209483Y0201856D01*
X0209432Y0201823D01*
X0209383Y0201787D01*
X0209337Y0201749D01*
X0209293Y0201707D01*
X0209251Y0201663D01*
X0209213Y0201617D01*
X0209177Y0201568D01*
X0209144Y0201517D01*
X0209115Y0201465D01*
X0209088Y0201410D01*
X0209065Y0201355D01*
X0209045Y0201298D01*
X0209029Y0201239D01*
X0209016Y0201180D01*
X0209007Y0201121D01*
X0209002Y0201060D01*
X0209000Y0201000D01*
X0209000Y0184000D01*
X0209002Y0183940D01*
X0209007Y0183879D01*
X0209016Y0183820D01*
X0209029Y0183761D01*
X0209045Y0183702D01*
X0209065Y0183645D01*
X0209088Y0183590D01*
X0209115Y0183535D01*
X0209144Y0183483D01*
X0209177Y0183432D01*
X0209213Y0183383D01*
X0209251Y0183337D01*
X0209293Y0183293D01*
X0209337Y0183251D01*
X0209383Y0183213D01*
X0209432Y0183177D01*
X0209483Y0183144D01*
X0209535Y0183115D01*
X0209590Y0183088D01*
X0209645Y0183065D01*
X0209702Y0183045D01*
X0209761Y0183029D01*
X0209820Y0183016D01*
X0209879Y0183007D01*
X0209940Y0183002D01*
X0210000Y0183000D01*
X0215000Y0191000D02*
X0215000Y0191500D01*
X0215000Y0193500D02*
X0215000Y0194000D01*
X0218000Y0217000D02*
X0228000Y0217000D01*
X0228060Y0217002D01*
X0228121Y0217007D01*
X0228180Y0217016D01*
X0228239Y0217029D01*
X0228298Y0217045D01*
X0228355Y0217065D01*
X0228410Y0217088D01*
X0228465Y0217115D01*
X0228517Y0217144D01*
X0228568Y0217177D01*
X0228617Y0217213D01*
X0228663Y0217251D01*
X0228707Y0217293D01*
X0228749Y0217337D01*
X0228787Y0217383D01*
X0228823Y0217432D01*
X0228856Y0217483D01*
X0228885Y0217535D01*
X0228912Y0217590D01*
X0228935Y0217645D01*
X0228955Y0217702D01*
X0228971Y0217761D01*
X0228984Y0217820D01*
X0228993Y0217879D01*
X0228998Y0217940D01*
X0229000Y0218000D01*
X0229000Y0235000D01*
X0228998Y0235060D01*
X0228993Y0235121D01*
X0228984Y0235180D01*
X0228971Y0235239D01*
X0228955Y0235298D01*
X0228935Y0235355D01*
X0228912Y0235410D01*
X0228885Y0235465D01*
X0228856Y0235517D01*
X0228823Y0235568D01*
X0228787Y0235617D01*
X0228749Y0235663D01*
X0228707Y0235707D01*
X0228663Y0235749D01*
X0228617Y0235787D01*
X0228568Y0235823D01*
X0228517Y0235856D01*
X0228465Y0235885D01*
X0228410Y0235912D01*
X0228355Y0235935D01*
X0228298Y0235955D01*
X0228239Y0235971D01*
X0228180Y0235984D01*
X0228121Y0235993D01*
X0228060Y0235998D01*
X0228000Y0236000D01*
X0218000Y0236000D01*
X0217940Y0235998D01*
X0217879Y0235993D01*
X0217820Y0235984D01*
X0217761Y0235971D01*
X0217702Y0235955D01*
X0217645Y0235935D01*
X0217590Y0235912D01*
X0217535Y0235885D01*
X0217483Y0235856D01*
X0217432Y0235823D01*
X0217383Y0235787D01*
X0217337Y0235749D01*
X0217293Y0235707D01*
X0217251Y0235663D01*
X0217213Y0235617D01*
X0217177Y0235568D01*
X0217144Y0235517D01*
X0217115Y0235465D01*
X0217088Y0235410D01*
X0217065Y0235355D01*
X0217045Y0235298D01*
X0217029Y0235239D01*
X0217016Y0235180D01*
X0217007Y0235121D01*
X0217002Y0235060D01*
X0217000Y0235000D01*
X0217000Y0218000D01*
X0217002Y0217940D01*
X0217007Y0217879D01*
X0217016Y0217820D01*
X0217029Y0217761D01*
X0217045Y0217702D01*
X0217065Y0217645D01*
X0217088Y0217590D01*
X0217115Y0217535D01*
X0217144Y0217483D01*
X0217177Y0217432D01*
X0217213Y0217383D01*
X0217251Y0217337D01*
X0217293Y0217293D01*
X0217337Y0217251D01*
X0217383Y0217213D01*
X0217432Y0217177D01*
X0217483Y0217144D01*
X0217535Y0217115D01*
X0217590Y0217088D01*
X0217645Y0217065D01*
X0217702Y0217045D01*
X0217761Y0217029D01*
X0217820Y0217016D01*
X0217879Y0217007D01*
X0217940Y0217002D01*
X0218000Y0217000D01*
X0223000Y0225000D02*
X0223000Y0225500D01*
X0223000Y0227500D02*
X0223000Y0228000D01*
X0190500Y0230500D02*
X0190500Y0220500D01*
X0190498Y0220440D01*
X0190493Y0220379D01*
X0190484Y0220320D01*
X0190471Y0220261D01*
X0190455Y0220202D01*
X0190435Y0220145D01*
X0190412Y0220090D01*
X0190385Y0220035D01*
X0190356Y0219983D01*
X0190323Y0219932D01*
X0190287Y0219883D01*
X0190249Y0219837D01*
X0190207Y0219793D01*
X0190163Y0219751D01*
X0190117Y0219713D01*
X0190068Y0219677D01*
X0190017Y0219644D01*
X0189965Y0219615D01*
X0189910Y0219588D01*
X0189855Y0219565D01*
X0189798Y0219545D01*
X0189739Y0219529D01*
X0189680Y0219516D01*
X0189621Y0219507D01*
X0189560Y0219502D01*
X0189500Y0219500D01*
X0172500Y0219500D01*
X0172440Y0219502D01*
X0172379Y0219507D01*
X0172320Y0219516D01*
X0172261Y0219529D01*
X0172202Y0219545D01*
X0172145Y0219565D01*
X0172090Y0219588D01*
X0172035Y0219615D01*
X0171983Y0219644D01*
X0171932Y0219677D01*
X0171883Y0219713D01*
X0171837Y0219751D01*
X0171793Y0219793D01*
X0171751Y0219837D01*
X0171713Y0219883D01*
X0171677Y0219932D01*
X0171644Y0219983D01*
X0171615Y0220035D01*
X0171588Y0220090D01*
X0171565Y0220145D01*
X0171545Y0220202D01*
X0171529Y0220261D01*
X0171516Y0220320D01*
X0171507Y0220379D01*
X0171502Y0220440D01*
X0171500Y0220500D01*
X0171500Y0230500D01*
X0171502Y0230560D01*
X0171507Y0230621D01*
X0171516Y0230680D01*
X0171529Y0230739D01*
X0171545Y0230798D01*
X0171565Y0230855D01*
X0171588Y0230910D01*
X0171615Y0230965D01*
X0171644Y0231017D01*
X0171677Y0231068D01*
X0171713Y0231117D01*
X0171751Y0231163D01*
X0171793Y0231207D01*
X0171837Y0231249D01*
X0171883Y0231287D01*
X0171932Y0231323D01*
X0171983Y0231356D01*
X0172035Y0231385D01*
X0172090Y0231412D01*
X0172145Y0231435D01*
X0172202Y0231455D01*
X0172261Y0231471D01*
X0172320Y0231484D01*
X0172379Y0231493D01*
X0172440Y0231498D01*
X0172500Y0231500D01*
X0189500Y0231500D01*
X0189560Y0231498D01*
X0189621Y0231493D01*
X0189680Y0231484D01*
X0189739Y0231471D01*
X0189798Y0231455D01*
X0189855Y0231435D01*
X0189910Y0231412D01*
X0189965Y0231385D01*
X0190017Y0231356D01*
X0190068Y0231323D01*
X0190117Y0231287D01*
X0190163Y0231249D01*
X0190207Y0231207D01*
X0190249Y0231163D01*
X0190287Y0231117D01*
X0190323Y0231068D01*
X0190356Y0231017D01*
X0190385Y0230965D01*
X0190412Y0230910D01*
X0190435Y0230855D01*
X0190455Y0230798D01*
X0190471Y0230739D01*
X0190484Y0230680D01*
X0190493Y0230621D01*
X0190498Y0230560D01*
X0190500Y0230500D01*
X0182500Y0225500D02*
X0182000Y0225500D01*
X0180000Y0225500D02*
X0179500Y0225500D01*
X0122000Y0223000D02*
X0122000Y0240000D01*
X0121998Y0240060D01*
X0121993Y0240121D01*
X0121984Y0240180D01*
X0121971Y0240239D01*
X0121955Y0240298D01*
X0121935Y0240355D01*
X0121912Y0240410D01*
X0121885Y0240465D01*
X0121856Y0240517D01*
X0121823Y0240568D01*
X0121787Y0240617D01*
X0121749Y0240663D01*
X0121707Y0240707D01*
X0121663Y0240749D01*
X0121617Y0240787D01*
X0121568Y0240823D01*
X0121517Y0240856D01*
X0121465Y0240885D01*
X0121410Y0240912D01*
X0121355Y0240935D01*
X0121298Y0240955D01*
X0121239Y0240971D01*
X0121180Y0240984D01*
X0121121Y0240993D01*
X0121060Y0240998D01*
X0121000Y0241000D01*
X0111000Y0241000D01*
X0110940Y0240998D01*
X0110879Y0240993D01*
X0110820Y0240984D01*
X0110761Y0240971D01*
X0110702Y0240955D01*
X0110645Y0240935D01*
X0110590Y0240912D01*
X0110535Y0240885D01*
X0110483Y0240856D01*
X0110432Y0240823D01*
X0110383Y0240787D01*
X0110337Y0240749D01*
X0110293Y0240707D01*
X0110251Y0240663D01*
X0110213Y0240617D01*
X0110177Y0240568D01*
X0110144Y0240517D01*
X0110115Y0240465D01*
X0110088Y0240410D01*
X0110065Y0240355D01*
X0110045Y0240298D01*
X0110029Y0240239D01*
X0110016Y0240180D01*
X0110007Y0240121D01*
X0110002Y0240060D01*
X0110000Y0240000D01*
X0110000Y0223000D01*
X0110002Y0222940D01*
X0110007Y0222879D01*
X0110016Y0222820D01*
X0110029Y0222761D01*
X0110045Y0222702D01*
X0110065Y0222645D01*
X0110088Y0222590D01*
X0110115Y0222535D01*
X0110144Y0222483D01*
X0110177Y0222432D01*
X0110213Y0222383D01*
X0110251Y0222337D01*
X0110293Y0222293D01*
X0110337Y0222251D01*
X0110383Y0222213D01*
X0110432Y0222177D01*
X0110483Y0222144D01*
X0110535Y0222115D01*
X0110590Y0222088D01*
X0110645Y0222065D01*
X0110702Y0222045D01*
X0110761Y0222029D01*
X0110820Y0222016D01*
X0110879Y0222007D01*
X0110940Y0222002D01*
X0111000Y0222000D01*
X0121000Y0222000D01*
X0121060Y0222002D01*
X0121121Y0222007D01*
X0121180Y0222016D01*
X0121239Y0222029D01*
X0121298Y0222045D01*
X0121355Y0222065D01*
X0121410Y0222088D01*
X0121465Y0222115D01*
X0121517Y0222144D01*
X0121568Y0222177D01*
X0121617Y0222213D01*
X0121663Y0222251D01*
X0121707Y0222293D01*
X0121749Y0222337D01*
X0121787Y0222383D01*
X0121823Y0222432D01*
X0121856Y0222483D01*
X0121885Y0222535D01*
X0121912Y0222590D01*
X0121935Y0222645D01*
X0121955Y0222702D01*
X0121971Y0222761D01*
X0121984Y0222820D01*
X0121993Y0222879D01*
X0121998Y0222940D01*
X0122000Y0223000D01*
X0116000Y0230000D02*
X0116000Y0230500D01*
X0116000Y0232500D02*
X0116000Y0233000D01*
X0097000Y0220000D02*
X0097000Y0203000D01*
X0096998Y0202940D01*
X0096993Y0202879D01*
X0096984Y0202820D01*
X0096971Y0202761D01*
X0096955Y0202702D01*
X0096935Y0202645D01*
X0096912Y0202590D01*
X0096885Y0202535D01*
X0096856Y0202483D01*
X0096823Y0202432D01*
X0096787Y0202383D01*
X0096749Y0202337D01*
X0096707Y0202293D01*
X0096663Y0202251D01*
X0096617Y0202213D01*
X0096568Y0202177D01*
X0096517Y0202144D01*
X0096465Y0202115D01*
X0096410Y0202088D01*
X0096355Y0202065D01*
X0096298Y0202045D01*
X0096239Y0202029D01*
X0096180Y0202016D01*
X0096121Y0202007D01*
X0096060Y0202002D01*
X0096000Y0202000D01*
X0086000Y0202000D01*
X0085940Y0202002D01*
X0085879Y0202007D01*
X0085820Y0202016D01*
X0085761Y0202029D01*
X0085702Y0202045D01*
X0085645Y0202065D01*
X0085590Y0202088D01*
X0085535Y0202115D01*
X0085483Y0202144D01*
X0085432Y0202177D01*
X0085383Y0202213D01*
X0085337Y0202251D01*
X0085293Y0202293D01*
X0085251Y0202337D01*
X0085213Y0202383D01*
X0085177Y0202432D01*
X0085144Y0202483D01*
X0085115Y0202535D01*
X0085088Y0202590D01*
X0085065Y0202645D01*
X0085045Y0202702D01*
X0085029Y0202761D01*
X0085016Y0202820D01*
X0085007Y0202879D01*
X0085002Y0202940D01*
X0085000Y0203000D01*
X0085000Y0220000D01*
X0085002Y0220060D01*
X0085007Y0220121D01*
X0085016Y0220180D01*
X0085029Y0220239D01*
X0085045Y0220298D01*
X0085065Y0220355D01*
X0085088Y0220410D01*
X0085115Y0220465D01*
X0085144Y0220517D01*
X0085177Y0220568D01*
X0085213Y0220617D01*
X0085251Y0220663D01*
X0085293Y0220707D01*
X0085337Y0220749D01*
X0085383Y0220787D01*
X0085432Y0220823D01*
X0085483Y0220856D01*
X0085535Y0220885D01*
X0085590Y0220912D01*
X0085645Y0220935D01*
X0085702Y0220955D01*
X0085761Y0220971D01*
X0085820Y0220984D01*
X0085879Y0220993D01*
X0085940Y0220998D01*
X0086000Y0221000D01*
X0096000Y0221000D01*
X0096060Y0220998D01*
X0096121Y0220993D01*
X0096180Y0220984D01*
X0096239Y0220971D01*
X0096298Y0220955D01*
X0096355Y0220935D01*
X0096410Y0220912D01*
X0096465Y0220885D01*
X0096517Y0220856D01*
X0096568Y0220823D01*
X0096617Y0220787D01*
X0096663Y0220749D01*
X0096707Y0220707D01*
X0096749Y0220663D01*
X0096787Y0220617D01*
X0096823Y0220568D01*
X0096856Y0220517D01*
X0096885Y0220465D01*
X0096912Y0220410D01*
X0096935Y0220355D01*
X0096955Y0220298D01*
X0096971Y0220239D01*
X0096984Y0220180D01*
X0096993Y0220121D01*
X0096998Y0220060D01*
X0097000Y0220000D01*
X0091000Y0213000D02*
X0091000Y0212500D01*
X0091000Y0210500D02*
X0091000Y0210000D01*
X0110000Y0210000D02*
X0110000Y0193000D01*
X0110002Y0192940D01*
X0110007Y0192879D01*
X0110016Y0192820D01*
X0110029Y0192761D01*
X0110045Y0192702D01*
X0110065Y0192645D01*
X0110088Y0192590D01*
X0110115Y0192535D01*
X0110144Y0192483D01*
X0110177Y0192432D01*
X0110213Y0192383D01*
X0110251Y0192337D01*
X0110293Y0192293D01*
X0110337Y0192251D01*
X0110383Y0192213D01*
X0110432Y0192177D01*
X0110483Y0192144D01*
X0110535Y0192115D01*
X0110590Y0192088D01*
X0110645Y0192065D01*
X0110702Y0192045D01*
X0110761Y0192029D01*
X0110820Y0192016D01*
X0110879Y0192007D01*
X0110940Y0192002D01*
X0111000Y0192000D01*
X0121000Y0192000D01*
X0121060Y0192002D01*
X0121121Y0192007D01*
X0121180Y0192016D01*
X0121239Y0192029D01*
X0121298Y0192045D01*
X0121355Y0192065D01*
X0121410Y0192088D01*
X0121465Y0192115D01*
X0121517Y0192144D01*
X0121568Y0192177D01*
X0121617Y0192213D01*
X0121663Y0192251D01*
X0121707Y0192293D01*
X0121749Y0192337D01*
X0121787Y0192383D01*
X0121823Y0192432D01*
X0121856Y0192483D01*
X0121885Y0192535D01*
X0121912Y0192590D01*
X0121935Y0192645D01*
X0121955Y0192702D01*
X0121971Y0192761D01*
X0121984Y0192820D01*
X0121993Y0192879D01*
X0121998Y0192940D01*
X0122000Y0193000D01*
X0122000Y0210000D01*
X0121998Y0210060D01*
X0121993Y0210121D01*
X0121984Y0210180D01*
X0121971Y0210239D01*
X0121955Y0210298D01*
X0121935Y0210355D01*
X0121912Y0210410D01*
X0121885Y0210465D01*
X0121856Y0210517D01*
X0121823Y0210568D01*
X0121787Y0210617D01*
X0121749Y0210663D01*
X0121707Y0210707D01*
X0121663Y0210749D01*
X0121617Y0210787D01*
X0121568Y0210823D01*
X0121517Y0210856D01*
X0121465Y0210885D01*
X0121410Y0210912D01*
X0121355Y0210935D01*
X0121298Y0210955D01*
X0121239Y0210971D01*
X0121180Y0210984D01*
X0121121Y0210993D01*
X0121060Y0210998D01*
X0121000Y0211000D01*
X0111000Y0211000D01*
X0110940Y0210998D01*
X0110879Y0210993D01*
X0110820Y0210984D01*
X0110761Y0210971D01*
X0110702Y0210955D01*
X0110645Y0210935D01*
X0110590Y0210912D01*
X0110535Y0210885D01*
X0110483Y0210856D01*
X0110432Y0210823D01*
X0110383Y0210787D01*
X0110337Y0210749D01*
X0110293Y0210707D01*
X0110251Y0210663D01*
X0110213Y0210617D01*
X0110177Y0210568D01*
X0110144Y0210517D01*
X0110115Y0210465D01*
X0110088Y0210410D01*
X0110065Y0210355D01*
X0110045Y0210298D01*
X0110029Y0210239D01*
X0110016Y0210180D01*
X0110007Y0210121D01*
X0110002Y0210060D01*
X0110000Y0210000D01*
X0116000Y0203000D02*
X0116000Y0202500D01*
X0116000Y0200500D02*
X0116000Y0200000D01*
X0140500Y0188500D02*
X0140500Y0178500D01*
X0140502Y0178440D01*
X0140507Y0178379D01*
X0140516Y0178320D01*
X0140529Y0178261D01*
X0140545Y0178202D01*
X0140565Y0178145D01*
X0140588Y0178090D01*
X0140615Y0178035D01*
X0140644Y0177983D01*
X0140677Y0177932D01*
X0140713Y0177883D01*
X0140751Y0177837D01*
X0140793Y0177793D01*
X0140837Y0177751D01*
X0140883Y0177713D01*
X0140932Y0177677D01*
X0140983Y0177644D01*
X0141035Y0177615D01*
X0141090Y0177588D01*
X0141145Y0177565D01*
X0141202Y0177545D01*
X0141261Y0177529D01*
X0141320Y0177516D01*
X0141379Y0177507D01*
X0141440Y0177502D01*
X0141500Y0177500D01*
X0158500Y0177500D01*
X0158560Y0177502D01*
X0158621Y0177507D01*
X0158680Y0177516D01*
X0158739Y0177529D01*
X0158798Y0177545D01*
X0158855Y0177565D01*
X0158910Y0177588D01*
X0158965Y0177615D01*
X0159017Y0177644D01*
X0159068Y0177677D01*
X0159117Y0177713D01*
X0159163Y0177751D01*
X0159207Y0177793D01*
X0159249Y0177837D01*
X0159287Y0177883D01*
X0159323Y0177932D01*
X0159356Y0177983D01*
X0159385Y0178035D01*
X0159412Y0178090D01*
X0159435Y0178145D01*
X0159455Y0178202D01*
X0159471Y0178261D01*
X0159484Y0178320D01*
X0159493Y0178379D01*
X0159498Y0178440D01*
X0159500Y0178500D01*
X0159500Y0188500D01*
X0159498Y0188560D01*
X0159493Y0188621D01*
X0159484Y0188680D01*
X0159471Y0188739D01*
X0159455Y0188798D01*
X0159435Y0188855D01*
X0159412Y0188910D01*
X0159385Y0188965D01*
X0159356Y0189017D01*
X0159323Y0189068D01*
X0159287Y0189117D01*
X0159249Y0189163D01*
X0159207Y0189207D01*
X0159163Y0189249D01*
X0159117Y0189287D01*
X0159068Y0189323D01*
X0159017Y0189356D01*
X0158965Y0189385D01*
X0158910Y0189412D01*
X0158855Y0189435D01*
X0158798Y0189455D01*
X0158739Y0189471D01*
X0158680Y0189484D01*
X0158621Y0189493D01*
X0158560Y0189498D01*
X0158500Y0189500D01*
X0141500Y0189500D01*
X0141440Y0189498D01*
X0141379Y0189493D01*
X0141320Y0189484D01*
X0141261Y0189471D01*
X0141202Y0189455D01*
X0141145Y0189435D01*
X0141090Y0189412D01*
X0141035Y0189385D01*
X0140983Y0189356D01*
X0140932Y0189323D01*
X0140883Y0189287D01*
X0140837Y0189249D01*
X0140793Y0189207D01*
X0140751Y0189163D01*
X0140713Y0189117D01*
X0140677Y0189068D01*
X0140644Y0189017D01*
X0140615Y0188965D01*
X0140588Y0188910D01*
X0140565Y0188855D01*
X0140545Y0188798D01*
X0140529Y0188739D01*
X0140516Y0188680D01*
X0140507Y0188621D01*
X0140502Y0188560D01*
X0140500Y0188500D01*
X0148500Y0183500D02*
X0149000Y0183500D01*
X0151000Y0183500D02*
X0151500Y0183500D01*
X0070000Y0188500D02*
X0070000Y0194500D01*
X0069998Y0194560D01*
X0069993Y0194621D01*
X0069984Y0194680D01*
X0069971Y0194739D01*
X0069955Y0194798D01*
X0069935Y0194855D01*
X0069912Y0194910D01*
X0069885Y0194965D01*
X0069856Y0195017D01*
X0069823Y0195068D01*
X0069787Y0195117D01*
X0069749Y0195163D01*
X0069707Y0195207D01*
X0069663Y0195249D01*
X0069617Y0195287D01*
X0069568Y0195323D01*
X0069517Y0195356D01*
X0069465Y0195385D01*
X0069410Y0195412D01*
X0069355Y0195435D01*
X0069298Y0195455D01*
X0069239Y0195471D01*
X0069180Y0195484D01*
X0069121Y0195493D01*
X0069060Y0195498D01*
X0069000Y0195500D01*
X0067500Y0195500D01*
X0067000Y0195000D01*
X0053000Y0195000D01*
X0052500Y0195500D01*
X0051000Y0195500D01*
X0050940Y0195498D01*
X0050879Y0195493D01*
X0050820Y0195484D01*
X0050761Y0195471D01*
X0050702Y0195455D01*
X0050645Y0195435D01*
X0050590Y0195412D01*
X0050535Y0195385D01*
X0050483Y0195356D01*
X0050432Y0195323D01*
X0050383Y0195287D01*
X0050337Y0195249D01*
X0050293Y0195207D01*
X0050251Y0195163D01*
X0050213Y0195117D01*
X0050177Y0195068D01*
X0050144Y0195017D01*
X0050115Y0194965D01*
X0050088Y0194910D01*
X0050065Y0194855D01*
X0050045Y0194798D01*
X0050029Y0194739D01*
X0050016Y0194680D01*
X0050007Y0194621D01*
X0050002Y0194560D01*
X0050000Y0194500D01*
X0050000Y0188500D01*
X0050002Y0188440D01*
X0050007Y0188379D01*
X0050016Y0188320D01*
X0050029Y0188261D01*
X0050045Y0188202D01*
X0050065Y0188145D01*
X0050088Y0188090D01*
X0050115Y0188035D01*
X0050144Y0187983D01*
X0050177Y0187932D01*
X0050213Y0187883D01*
X0050251Y0187837D01*
X0050293Y0187793D01*
X0050337Y0187751D01*
X0050383Y0187713D01*
X0050432Y0187677D01*
X0050483Y0187644D01*
X0050535Y0187615D01*
X0050590Y0187588D01*
X0050645Y0187565D01*
X0050702Y0187545D01*
X0050761Y0187529D01*
X0050820Y0187516D01*
X0050879Y0187507D01*
X0050940Y0187502D01*
X0051000Y0187500D01*
X0052500Y0187500D01*
X0053000Y0188000D01*
X0067000Y0188000D01*
X0067500Y0187500D01*
X0069000Y0187500D01*
X0069060Y0187502D01*
X0069121Y0187507D01*
X0069180Y0187516D01*
X0069239Y0187529D01*
X0069298Y0187545D01*
X0069355Y0187565D01*
X0069410Y0187588D01*
X0069465Y0187615D01*
X0069517Y0187644D01*
X0069568Y0187677D01*
X0069617Y0187713D01*
X0069663Y0187751D01*
X0069707Y0187793D01*
X0069749Y0187837D01*
X0069787Y0187883D01*
X0069823Y0187932D01*
X0069856Y0187983D01*
X0069885Y0188035D01*
X0069912Y0188090D01*
X0069935Y0188145D01*
X0069955Y0188202D01*
X0069971Y0188261D01*
X0069984Y0188320D01*
X0069993Y0188379D01*
X0069998Y0188440D01*
X0070000Y0188500D01*
X0072500Y0048500D02*
X0055500Y0048500D01*
X0055440Y0048498D01*
X0055379Y0048493D01*
X0055320Y0048484D01*
X0055261Y0048471D01*
X0055202Y0048455D01*
X0055145Y0048435D01*
X0055090Y0048412D01*
X0055035Y0048385D01*
X0054983Y0048356D01*
X0054932Y0048323D01*
X0054883Y0048287D01*
X0054837Y0048249D01*
X0054793Y0048207D01*
X0054751Y0048163D01*
X0054713Y0048117D01*
X0054677Y0048068D01*
X0054644Y0048017D01*
X0054615Y0047965D01*
X0054588Y0047910D01*
X0054565Y0047855D01*
X0054545Y0047798D01*
X0054529Y0047739D01*
X0054516Y0047680D01*
X0054507Y0047621D01*
X0054502Y0047560D01*
X0054500Y0047500D01*
X0054500Y0037500D01*
X0054502Y0037440D01*
X0054507Y0037379D01*
X0054516Y0037320D01*
X0054529Y0037261D01*
X0054545Y0037202D01*
X0054565Y0037145D01*
X0054588Y0037090D01*
X0054615Y0037035D01*
X0054644Y0036983D01*
X0054677Y0036932D01*
X0054713Y0036883D01*
X0054751Y0036837D01*
X0054793Y0036793D01*
X0054837Y0036751D01*
X0054883Y0036713D01*
X0054932Y0036677D01*
X0054983Y0036644D01*
X0055035Y0036615D01*
X0055090Y0036588D01*
X0055145Y0036565D01*
X0055202Y0036545D01*
X0055261Y0036529D01*
X0055320Y0036516D01*
X0055379Y0036507D01*
X0055440Y0036502D01*
X0055500Y0036500D01*
X0072500Y0036500D01*
X0072560Y0036502D01*
X0072621Y0036507D01*
X0072680Y0036516D01*
X0072739Y0036529D01*
X0072798Y0036545D01*
X0072855Y0036565D01*
X0072910Y0036588D01*
X0072965Y0036615D01*
X0073017Y0036644D01*
X0073068Y0036677D01*
X0073117Y0036713D01*
X0073163Y0036751D01*
X0073207Y0036793D01*
X0073249Y0036837D01*
X0073287Y0036883D01*
X0073323Y0036932D01*
X0073356Y0036983D01*
X0073385Y0037035D01*
X0073412Y0037090D01*
X0073435Y0037145D01*
X0073455Y0037202D01*
X0073471Y0037261D01*
X0073484Y0037320D01*
X0073493Y0037379D01*
X0073498Y0037440D01*
X0073500Y0037500D01*
X0073500Y0047500D01*
X0073498Y0047560D01*
X0073493Y0047621D01*
X0073484Y0047680D01*
X0073471Y0047739D01*
X0073455Y0047798D01*
X0073435Y0047855D01*
X0073412Y0047910D01*
X0073385Y0047965D01*
X0073356Y0048017D01*
X0073323Y0048068D01*
X0073287Y0048117D01*
X0073249Y0048163D01*
X0073207Y0048207D01*
X0073163Y0048249D01*
X0073117Y0048287D01*
X0073068Y0048323D01*
X0073017Y0048356D01*
X0072965Y0048385D01*
X0072910Y0048412D01*
X0072855Y0048435D01*
X0072798Y0048455D01*
X0072739Y0048471D01*
X0072680Y0048484D01*
X0072621Y0048493D01*
X0072560Y0048498D01*
X0072500Y0048500D01*
X0065500Y0042500D02*
X0065000Y0042500D01*
X0063000Y0042500D02*
X0062500Y0042500D01*
X0376000Y0198000D02*
X0376000Y0215000D01*
X0376002Y0215060D01*
X0376007Y0215121D01*
X0376016Y0215180D01*
X0376029Y0215239D01*
X0376045Y0215298D01*
X0376065Y0215355D01*
X0376088Y0215410D01*
X0376115Y0215465D01*
X0376144Y0215517D01*
X0376177Y0215568D01*
X0376213Y0215617D01*
X0376251Y0215663D01*
X0376293Y0215707D01*
X0376337Y0215749D01*
X0376383Y0215787D01*
X0376432Y0215823D01*
X0376483Y0215856D01*
X0376535Y0215885D01*
X0376590Y0215912D01*
X0376645Y0215935D01*
X0376702Y0215955D01*
X0376761Y0215971D01*
X0376820Y0215984D01*
X0376879Y0215993D01*
X0376940Y0215998D01*
X0377000Y0216000D01*
X0387000Y0216000D01*
X0387060Y0215998D01*
X0387121Y0215993D01*
X0387180Y0215984D01*
X0387239Y0215971D01*
X0387298Y0215955D01*
X0387355Y0215935D01*
X0387410Y0215912D01*
X0387465Y0215885D01*
X0387517Y0215856D01*
X0387568Y0215823D01*
X0387617Y0215787D01*
X0387663Y0215749D01*
X0387707Y0215707D01*
X0387749Y0215663D01*
X0387787Y0215617D01*
X0387823Y0215568D01*
X0387856Y0215517D01*
X0387885Y0215465D01*
X0387912Y0215410D01*
X0387935Y0215355D01*
X0387955Y0215298D01*
X0387971Y0215239D01*
X0387984Y0215180D01*
X0387993Y0215121D01*
X0387998Y0215060D01*
X0388000Y0215000D01*
X0388000Y0198000D01*
X0387998Y0197940D01*
X0387993Y0197879D01*
X0387984Y0197820D01*
X0387971Y0197761D01*
X0387955Y0197702D01*
X0387935Y0197645D01*
X0387912Y0197590D01*
X0387885Y0197535D01*
X0387856Y0197483D01*
X0387823Y0197432D01*
X0387787Y0197383D01*
X0387749Y0197337D01*
X0387707Y0197293D01*
X0387663Y0197251D01*
X0387617Y0197213D01*
X0387568Y0197177D01*
X0387517Y0197144D01*
X0387465Y0197115D01*
X0387410Y0197088D01*
X0387355Y0197065D01*
X0387298Y0197045D01*
X0387239Y0197029D01*
X0387180Y0197016D01*
X0387121Y0197007D01*
X0387060Y0197002D01*
X0387000Y0197000D01*
X0377000Y0197000D01*
X0376940Y0197002D01*
X0376879Y0197007D01*
X0376820Y0197016D01*
X0376761Y0197029D01*
X0376702Y0197045D01*
X0376645Y0197065D01*
X0376590Y0197088D01*
X0376535Y0197115D01*
X0376483Y0197144D01*
X0376432Y0197177D01*
X0376383Y0197213D01*
X0376337Y0197251D01*
X0376293Y0197293D01*
X0376251Y0197337D01*
X0376213Y0197383D01*
X0376177Y0197432D01*
X0376144Y0197483D01*
X0376115Y0197535D01*
X0376088Y0197590D01*
X0376065Y0197645D01*
X0376045Y0197702D01*
X0376029Y0197761D01*
X0376016Y0197820D01*
X0376007Y0197879D01*
X0376002Y0197940D01*
X0376000Y0198000D01*
X0382000Y0205000D02*
X0382000Y0205500D01*
X0382000Y0207500D02*
X0382000Y0208000D01*
X0398000Y0208500D02*
X0398000Y0214500D01*
X0398002Y0214560D01*
X0398007Y0214621D01*
X0398016Y0214680D01*
X0398029Y0214739D01*
X0398045Y0214798D01*
X0398065Y0214855D01*
X0398088Y0214910D01*
X0398115Y0214965D01*
X0398144Y0215017D01*
X0398177Y0215068D01*
X0398213Y0215117D01*
X0398251Y0215163D01*
X0398293Y0215207D01*
X0398337Y0215249D01*
X0398383Y0215287D01*
X0398432Y0215323D01*
X0398483Y0215356D01*
X0398535Y0215385D01*
X0398590Y0215412D01*
X0398645Y0215435D01*
X0398702Y0215455D01*
X0398761Y0215471D01*
X0398820Y0215484D01*
X0398879Y0215493D01*
X0398940Y0215498D01*
X0399000Y0215500D01*
X0400500Y0215500D01*
X0401000Y0215000D01*
X0415000Y0215000D01*
X0415500Y0215500D01*
X0417000Y0215500D01*
X0417060Y0215498D01*
X0417121Y0215493D01*
X0417180Y0215484D01*
X0417239Y0215471D01*
X0417298Y0215455D01*
X0417355Y0215435D01*
X0417410Y0215412D01*
X0417465Y0215385D01*
X0417517Y0215356D01*
X0417568Y0215323D01*
X0417617Y0215287D01*
X0417663Y0215249D01*
X0417707Y0215207D01*
X0417749Y0215163D01*
X0417787Y0215117D01*
X0417823Y0215068D01*
X0417856Y0215017D01*
X0417885Y0214965D01*
X0417912Y0214910D01*
X0417935Y0214855D01*
X0417955Y0214798D01*
X0417971Y0214739D01*
X0417984Y0214680D01*
X0417993Y0214621D01*
X0417998Y0214560D01*
X0418000Y0214500D01*
X0418000Y0208500D01*
X0417998Y0208440D01*
X0417993Y0208379D01*
X0417984Y0208320D01*
X0417971Y0208261D01*
X0417955Y0208202D01*
X0417935Y0208145D01*
X0417912Y0208090D01*
X0417885Y0208035D01*
X0417856Y0207983D01*
X0417823Y0207932D01*
X0417787Y0207883D01*
X0417749Y0207837D01*
X0417707Y0207793D01*
X0417663Y0207751D01*
X0417617Y0207713D01*
X0417568Y0207677D01*
X0417517Y0207644D01*
X0417465Y0207615D01*
X0417410Y0207588D01*
X0417355Y0207565D01*
X0417298Y0207545D01*
X0417239Y0207529D01*
X0417180Y0207516D01*
X0417121Y0207507D01*
X0417060Y0207502D01*
X0417000Y0207500D01*
X0415500Y0207500D01*
X0415000Y0208000D01*
X0401000Y0208000D01*
X0400500Y0207500D01*
X0399000Y0207500D01*
X0398940Y0207502D01*
X0398879Y0207507D01*
X0398820Y0207516D01*
X0398761Y0207529D01*
X0398702Y0207545D01*
X0398645Y0207565D01*
X0398590Y0207588D01*
X0398535Y0207615D01*
X0398483Y0207644D01*
X0398432Y0207677D01*
X0398383Y0207713D01*
X0398337Y0207751D01*
X0398293Y0207793D01*
X0398251Y0207837D01*
X0398213Y0207883D01*
X0398177Y0207932D01*
X0398144Y0207983D01*
X0398115Y0208035D01*
X0398088Y0208090D01*
X0398065Y0208145D01*
X0398045Y0208202D01*
X0398029Y0208261D01*
X0398016Y0208320D01*
X0398007Y0208379D01*
X0398002Y0208440D01*
X0398000Y0208500D01*
X0399000Y0205500D02*
X0400500Y0205500D01*
X0401000Y0205000D01*
X0415000Y0205000D01*
X0415500Y0205500D01*
X0417000Y0205500D01*
X0417060Y0205498D01*
X0417121Y0205493D01*
X0417180Y0205484D01*
X0417239Y0205471D01*
X0417298Y0205455D01*
X0417355Y0205435D01*
X0417410Y0205412D01*
X0417465Y0205385D01*
X0417517Y0205356D01*
X0417568Y0205323D01*
X0417617Y0205287D01*
X0417663Y0205249D01*
X0417707Y0205207D01*
X0417749Y0205163D01*
X0417787Y0205117D01*
X0417823Y0205068D01*
X0417856Y0205017D01*
X0417885Y0204965D01*
X0417912Y0204910D01*
X0417935Y0204855D01*
X0417955Y0204798D01*
X0417971Y0204739D01*
X0417984Y0204680D01*
X0417993Y0204621D01*
X0417998Y0204560D01*
X0418000Y0204500D01*
X0418000Y0198500D01*
X0417998Y0198440D01*
X0417993Y0198379D01*
X0417984Y0198320D01*
X0417971Y0198261D01*
X0417955Y0198202D01*
X0417935Y0198145D01*
X0417912Y0198090D01*
X0417885Y0198035D01*
X0417856Y0197983D01*
X0417823Y0197932D01*
X0417787Y0197883D01*
X0417749Y0197837D01*
X0417707Y0197793D01*
X0417663Y0197751D01*
X0417617Y0197713D01*
X0417568Y0197677D01*
X0417517Y0197644D01*
X0417465Y0197615D01*
X0417410Y0197588D01*
X0417355Y0197565D01*
X0417298Y0197545D01*
X0417239Y0197529D01*
X0417180Y0197516D01*
X0417121Y0197507D01*
X0417060Y0197502D01*
X0417000Y0197500D01*
X0415500Y0197500D01*
X0415000Y0198000D01*
X0401000Y0198000D01*
X0400500Y0197500D01*
X0399000Y0197500D01*
X0398940Y0197502D01*
X0398879Y0197507D01*
X0398820Y0197516D01*
X0398761Y0197529D01*
X0398702Y0197545D01*
X0398645Y0197565D01*
X0398590Y0197588D01*
X0398535Y0197615D01*
X0398483Y0197644D01*
X0398432Y0197677D01*
X0398383Y0197713D01*
X0398337Y0197751D01*
X0398293Y0197793D01*
X0398251Y0197837D01*
X0398213Y0197883D01*
X0398177Y0197932D01*
X0398144Y0197983D01*
X0398115Y0198035D01*
X0398088Y0198090D01*
X0398065Y0198145D01*
X0398045Y0198202D01*
X0398029Y0198261D01*
X0398016Y0198320D01*
X0398007Y0198379D01*
X0398002Y0198440D01*
X0398000Y0198500D01*
X0398000Y0204500D01*
X0398002Y0204560D01*
X0398007Y0204621D01*
X0398016Y0204680D01*
X0398029Y0204739D01*
X0398045Y0204798D01*
X0398065Y0204855D01*
X0398088Y0204910D01*
X0398115Y0204965D01*
X0398144Y0205017D01*
X0398177Y0205068D01*
X0398213Y0205117D01*
X0398251Y0205163D01*
X0398293Y0205207D01*
X0398337Y0205249D01*
X0398383Y0205287D01*
X0398432Y0205323D01*
X0398483Y0205356D01*
X0398535Y0205385D01*
X0398590Y0205412D01*
X0398645Y0205435D01*
X0398702Y0205455D01*
X0398761Y0205471D01*
X0398820Y0205484D01*
X0398879Y0205493D01*
X0398940Y0205498D01*
X0399000Y0205500D01*
X0417000Y0189000D02*
X0417000Y0172000D01*
X0417002Y0171940D01*
X0417007Y0171879D01*
X0417016Y0171820D01*
X0417029Y0171761D01*
X0417045Y0171702D01*
X0417065Y0171645D01*
X0417088Y0171590D01*
X0417115Y0171535D01*
X0417144Y0171483D01*
X0417177Y0171432D01*
X0417213Y0171383D01*
X0417251Y0171337D01*
X0417293Y0171293D01*
X0417337Y0171251D01*
X0417383Y0171213D01*
X0417432Y0171177D01*
X0417483Y0171144D01*
X0417535Y0171115D01*
X0417590Y0171088D01*
X0417645Y0171065D01*
X0417702Y0171045D01*
X0417761Y0171029D01*
X0417820Y0171016D01*
X0417879Y0171007D01*
X0417940Y0171002D01*
X0418000Y0171000D01*
X0428000Y0171000D01*
X0428060Y0171002D01*
X0428121Y0171007D01*
X0428180Y0171016D01*
X0428239Y0171029D01*
X0428298Y0171045D01*
X0428355Y0171065D01*
X0428410Y0171088D01*
X0428465Y0171115D01*
X0428517Y0171144D01*
X0428568Y0171177D01*
X0428617Y0171213D01*
X0428663Y0171251D01*
X0428707Y0171293D01*
X0428749Y0171337D01*
X0428787Y0171383D01*
X0428823Y0171432D01*
X0428856Y0171483D01*
X0428885Y0171535D01*
X0428912Y0171590D01*
X0428935Y0171645D01*
X0428955Y0171702D01*
X0428971Y0171761D01*
X0428984Y0171820D01*
X0428993Y0171879D01*
X0428998Y0171940D01*
X0429000Y0172000D01*
X0429000Y0189000D01*
X0428998Y0189060D01*
X0428993Y0189121D01*
X0428984Y0189180D01*
X0428971Y0189239D01*
X0428955Y0189298D01*
X0428935Y0189355D01*
X0428912Y0189410D01*
X0428885Y0189465D01*
X0428856Y0189517D01*
X0428823Y0189568D01*
X0428787Y0189617D01*
X0428749Y0189663D01*
X0428707Y0189707D01*
X0428663Y0189749D01*
X0428617Y0189787D01*
X0428568Y0189823D01*
X0428517Y0189856D01*
X0428465Y0189885D01*
X0428410Y0189912D01*
X0428355Y0189935D01*
X0428298Y0189955D01*
X0428239Y0189971D01*
X0428180Y0189984D01*
X0428121Y0189993D01*
X0428060Y0189998D01*
X0428000Y0190000D01*
X0418000Y0190000D01*
X0417940Y0189998D01*
X0417879Y0189993D01*
X0417820Y0189984D01*
X0417761Y0189971D01*
X0417702Y0189955D01*
X0417645Y0189935D01*
X0417590Y0189912D01*
X0417535Y0189885D01*
X0417483Y0189856D01*
X0417432Y0189823D01*
X0417383Y0189787D01*
X0417337Y0189749D01*
X0417293Y0189707D01*
X0417251Y0189663D01*
X0417213Y0189617D01*
X0417177Y0189568D01*
X0417144Y0189517D01*
X0417115Y0189465D01*
X0417088Y0189410D01*
X0417065Y0189355D01*
X0417045Y0189298D01*
X0417029Y0189239D01*
X0417016Y0189180D01*
X0417007Y0189121D01*
X0417002Y0189060D01*
X0417000Y0189000D01*
X0423000Y0182000D02*
X0423000Y0181500D01*
X0423000Y0179500D02*
X0423000Y0179000D01*
X0437000Y0179000D02*
X0437000Y0179500D01*
X0437000Y0181500D02*
X0437000Y0182000D01*
X0431000Y0189000D02*
X0431002Y0189060D01*
X0431007Y0189121D01*
X0431016Y0189180D01*
X0431029Y0189239D01*
X0431045Y0189298D01*
X0431065Y0189355D01*
X0431088Y0189410D01*
X0431115Y0189465D01*
X0431144Y0189517D01*
X0431177Y0189568D01*
X0431213Y0189617D01*
X0431251Y0189663D01*
X0431293Y0189707D01*
X0431337Y0189749D01*
X0431383Y0189787D01*
X0431432Y0189823D01*
X0431483Y0189856D01*
X0431535Y0189885D01*
X0431590Y0189912D01*
X0431645Y0189935D01*
X0431702Y0189955D01*
X0431761Y0189971D01*
X0431820Y0189984D01*
X0431879Y0189993D01*
X0431940Y0189998D01*
X0432000Y0190000D01*
X0442000Y0190000D01*
X0442060Y0189998D01*
X0442121Y0189993D01*
X0442180Y0189984D01*
X0442239Y0189971D01*
X0442298Y0189955D01*
X0442355Y0189935D01*
X0442410Y0189912D01*
X0442465Y0189885D01*
X0442517Y0189856D01*
X0442568Y0189823D01*
X0442617Y0189787D01*
X0442663Y0189749D01*
X0442707Y0189707D01*
X0442749Y0189663D01*
X0442787Y0189617D01*
X0442823Y0189568D01*
X0442856Y0189517D01*
X0442885Y0189465D01*
X0442912Y0189410D01*
X0442935Y0189355D01*
X0442955Y0189298D01*
X0442971Y0189239D01*
X0442984Y0189180D01*
X0442993Y0189121D01*
X0442998Y0189060D01*
X0443000Y0189000D01*
X0443000Y0172000D01*
X0442998Y0171940D01*
X0442993Y0171879D01*
X0442984Y0171820D01*
X0442971Y0171761D01*
X0442955Y0171702D01*
X0442935Y0171645D01*
X0442912Y0171590D01*
X0442885Y0171535D01*
X0442856Y0171483D01*
X0442823Y0171432D01*
X0442787Y0171383D01*
X0442749Y0171337D01*
X0442707Y0171293D01*
X0442663Y0171251D01*
X0442617Y0171213D01*
X0442568Y0171177D01*
X0442517Y0171144D01*
X0442465Y0171115D01*
X0442410Y0171088D01*
X0442355Y0171065D01*
X0442298Y0171045D01*
X0442239Y0171029D01*
X0442180Y0171016D01*
X0442121Y0171007D01*
X0442060Y0171002D01*
X0442000Y0171000D01*
X0432000Y0171000D01*
X0431940Y0171002D01*
X0431879Y0171007D01*
X0431820Y0171016D01*
X0431761Y0171029D01*
X0431702Y0171045D01*
X0431645Y0171065D01*
X0431590Y0171088D01*
X0431535Y0171115D01*
X0431483Y0171144D01*
X0431432Y0171177D01*
X0431383Y0171213D01*
X0431337Y0171251D01*
X0431293Y0171293D01*
X0431251Y0171337D01*
X0431213Y0171383D01*
X0431177Y0171432D01*
X0431144Y0171483D01*
X0431115Y0171535D01*
X0431088Y0171590D01*
X0431065Y0171645D01*
X0431045Y0171702D01*
X0431029Y0171761D01*
X0431016Y0171820D01*
X0431007Y0171879D01*
X0431002Y0171940D01*
X0431000Y0172000D01*
X0431000Y0189000D01*
X0432000Y0197000D02*
X0442000Y0197000D01*
X0442060Y0197002D01*
X0442121Y0197007D01*
X0442180Y0197016D01*
X0442239Y0197029D01*
X0442298Y0197045D01*
X0442355Y0197065D01*
X0442410Y0197088D01*
X0442465Y0197115D01*
X0442517Y0197144D01*
X0442568Y0197177D01*
X0442617Y0197213D01*
X0442663Y0197251D01*
X0442707Y0197293D01*
X0442749Y0197337D01*
X0442787Y0197383D01*
X0442823Y0197432D01*
X0442856Y0197483D01*
X0442885Y0197535D01*
X0442912Y0197590D01*
X0442935Y0197645D01*
X0442955Y0197702D01*
X0442971Y0197761D01*
X0442984Y0197820D01*
X0442993Y0197879D01*
X0442998Y0197940D01*
X0443000Y0198000D01*
X0443000Y0215000D01*
X0442998Y0215060D01*
X0442993Y0215121D01*
X0442984Y0215180D01*
X0442971Y0215239D01*
X0442955Y0215298D01*
X0442935Y0215355D01*
X0442912Y0215410D01*
X0442885Y0215465D01*
X0442856Y0215517D01*
X0442823Y0215568D01*
X0442787Y0215617D01*
X0442749Y0215663D01*
X0442707Y0215707D01*
X0442663Y0215749D01*
X0442617Y0215787D01*
X0442568Y0215823D01*
X0442517Y0215856D01*
X0442465Y0215885D01*
X0442410Y0215912D01*
X0442355Y0215935D01*
X0442298Y0215955D01*
X0442239Y0215971D01*
X0442180Y0215984D01*
X0442121Y0215993D01*
X0442060Y0215998D01*
X0442000Y0216000D01*
X0432000Y0216000D01*
X0431940Y0215998D01*
X0431879Y0215993D01*
X0431820Y0215984D01*
X0431761Y0215971D01*
X0431702Y0215955D01*
X0431645Y0215935D01*
X0431590Y0215912D01*
X0431535Y0215885D01*
X0431483Y0215856D01*
X0431432Y0215823D01*
X0431383Y0215787D01*
X0431337Y0215749D01*
X0431293Y0215707D01*
X0431251Y0215663D01*
X0431213Y0215617D01*
X0431177Y0215568D01*
X0431144Y0215517D01*
X0431115Y0215465D01*
X0431088Y0215410D01*
X0431065Y0215355D01*
X0431045Y0215298D01*
X0431029Y0215239D01*
X0431016Y0215180D01*
X0431007Y0215121D01*
X0431002Y0215060D01*
X0431000Y0215000D01*
X0431000Y0198000D01*
X0431002Y0197940D01*
X0431007Y0197879D01*
X0431016Y0197820D01*
X0431029Y0197761D01*
X0431045Y0197702D01*
X0431065Y0197645D01*
X0431088Y0197590D01*
X0431115Y0197535D01*
X0431144Y0197483D01*
X0431177Y0197432D01*
X0431213Y0197383D01*
X0431251Y0197337D01*
X0431293Y0197293D01*
X0431337Y0197251D01*
X0431383Y0197213D01*
X0431432Y0197177D01*
X0431483Y0197144D01*
X0431535Y0197115D01*
X0431590Y0197088D01*
X0431645Y0197065D01*
X0431702Y0197045D01*
X0431761Y0197029D01*
X0431820Y0197016D01*
X0431879Y0197007D01*
X0431940Y0197002D01*
X0432000Y0197000D01*
X0437000Y0205000D02*
X0437000Y0205500D01*
X0437000Y0207500D02*
X0437000Y0208000D01*
X0442000Y0231000D02*
X0432000Y0231000D01*
X0431940Y0231002D01*
X0431879Y0231007D01*
X0431820Y0231016D01*
X0431761Y0231029D01*
X0431702Y0231045D01*
X0431645Y0231065D01*
X0431590Y0231088D01*
X0431535Y0231115D01*
X0431483Y0231144D01*
X0431432Y0231177D01*
X0431383Y0231213D01*
X0431337Y0231251D01*
X0431293Y0231293D01*
X0431251Y0231337D01*
X0431213Y0231383D01*
X0431177Y0231432D01*
X0431144Y0231483D01*
X0431115Y0231535D01*
X0431088Y0231590D01*
X0431065Y0231645D01*
X0431045Y0231702D01*
X0431029Y0231761D01*
X0431016Y0231820D01*
X0431007Y0231879D01*
X0431002Y0231940D01*
X0431000Y0232000D01*
X0431000Y0249000D01*
X0431002Y0249060D01*
X0431007Y0249121D01*
X0431016Y0249180D01*
X0431029Y0249239D01*
X0431045Y0249298D01*
X0431065Y0249355D01*
X0431088Y0249410D01*
X0431115Y0249465D01*
X0431144Y0249517D01*
X0431177Y0249568D01*
X0431213Y0249617D01*
X0431251Y0249663D01*
X0431293Y0249707D01*
X0431337Y0249749D01*
X0431383Y0249787D01*
X0431432Y0249823D01*
X0431483Y0249856D01*
X0431535Y0249885D01*
X0431590Y0249912D01*
X0431645Y0249935D01*
X0431702Y0249955D01*
X0431761Y0249971D01*
X0431820Y0249984D01*
X0431879Y0249993D01*
X0431940Y0249998D01*
X0432000Y0250000D01*
X0442000Y0250000D01*
X0442060Y0249998D01*
X0442121Y0249993D01*
X0442180Y0249984D01*
X0442239Y0249971D01*
X0442298Y0249955D01*
X0442355Y0249935D01*
X0442410Y0249912D01*
X0442465Y0249885D01*
X0442517Y0249856D01*
X0442568Y0249823D01*
X0442617Y0249787D01*
X0442663Y0249749D01*
X0442707Y0249707D01*
X0442749Y0249663D01*
X0442787Y0249617D01*
X0442823Y0249568D01*
X0442856Y0249517D01*
X0442885Y0249465D01*
X0442912Y0249410D01*
X0442935Y0249355D01*
X0442955Y0249298D01*
X0442971Y0249239D01*
X0442984Y0249180D01*
X0442993Y0249121D01*
X0442998Y0249060D01*
X0443000Y0249000D01*
X0443000Y0232000D01*
X0442998Y0231940D01*
X0442993Y0231879D01*
X0442984Y0231820D01*
X0442971Y0231761D01*
X0442955Y0231702D01*
X0442935Y0231645D01*
X0442912Y0231590D01*
X0442885Y0231535D01*
X0442856Y0231483D01*
X0442823Y0231432D01*
X0442787Y0231383D01*
X0442749Y0231337D01*
X0442707Y0231293D01*
X0442663Y0231251D01*
X0442617Y0231213D01*
X0442568Y0231177D01*
X0442517Y0231144D01*
X0442465Y0231115D01*
X0442410Y0231088D01*
X0442355Y0231065D01*
X0442298Y0231045D01*
X0442239Y0231029D01*
X0442180Y0231016D01*
X0442121Y0231007D01*
X0442060Y0231002D01*
X0442000Y0231000D01*
X0437000Y0239000D02*
X0437000Y0239500D01*
X0437000Y0241500D02*
X0437000Y0242000D01*
X0423000Y0242000D02*
X0423000Y0241500D01*
X0423000Y0239500D02*
X0423000Y0239000D01*
X0417000Y0232000D02*
X0417002Y0231940D01*
X0417007Y0231879D01*
X0417016Y0231820D01*
X0417029Y0231761D01*
X0417045Y0231702D01*
X0417065Y0231645D01*
X0417088Y0231590D01*
X0417115Y0231535D01*
X0417144Y0231483D01*
X0417177Y0231432D01*
X0417213Y0231383D01*
X0417251Y0231337D01*
X0417293Y0231293D01*
X0417337Y0231251D01*
X0417383Y0231213D01*
X0417432Y0231177D01*
X0417483Y0231144D01*
X0417535Y0231115D01*
X0417590Y0231088D01*
X0417645Y0231065D01*
X0417702Y0231045D01*
X0417761Y0231029D01*
X0417820Y0231016D01*
X0417879Y0231007D01*
X0417940Y0231002D01*
X0418000Y0231000D01*
X0428000Y0231000D01*
X0428060Y0231002D01*
X0428121Y0231007D01*
X0428180Y0231016D01*
X0428239Y0231029D01*
X0428298Y0231045D01*
X0428355Y0231065D01*
X0428410Y0231088D01*
X0428465Y0231115D01*
X0428517Y0231144D01*
X0428568Y0231177D01*
X0428617Y0231213D01*
X0428663Y0231251D01*
X0428707Y0231293D01*
X0428749Y0231337D01*
X0428787Y0231383D01*
X0428823Y0231432D01*
X0428856Y0231483D01*
X0428885Y0231535D01*
X0428912Y0231590D01*
X0428935Y0231645D01*
X0428955Y0231702D01*
X0428971Y0231761D01*
X0428984Y0231820D01*
X0428993Y0231879D01*
X0428998Y0231940D01*
X0429000Y0232000D01*
X0429000Y0249000D01*
X0428998Y0249060D01*
X0428993Y0249121D01*
X0428984Y0249180D01*
X0428971Y0249239D01*
X0428955Y0249298D01*
X0428935Y0249355D01*
X0428912Y0249410D01*
X0428885Y0249465D01*
X0428856Y0249517D01*
X0428823Y0249568D01*
X0428787Y0249617D01*
X0428749Y0249663D01*
X0428707Y0249707D01*
X0428663Y0249749D01*
X0428617Y0249787D01*
X0428568Y0249823D01*
X0428517Y0249856D01*
X0428465Y0249885D01*
X0428410Y0249912D01*
X0428355Y0249935D01*
X0428298Y0249955D01*
X0428239Y0249971D01*
X0428180Y0249984D01*
X0428121Y0249993D01*
X0428060Y0249998D01*
X0428000Y0250000D01*
X0418000Y0250000D01*
X0417940Y0249998D01*
X0417879Y0249993D01*
X0417820Y0249984D01*
X0417761Y0249971D01*
X0417702Y0249955D01*
X0417645Y0249935D01*
X0417590Y0249912D01*
X0417535Y0249885D01*
X0417483Y0249856D01*
X0417432Y0249823D01*
X0417383Y0249787D01*
X0417337Y0249749D01*
X0417293Y0249707D01*
X0417251Y0249663D01*
X0417213Y0249617D01*
X0417177Y0249568D01*
X0417144Y0249517D01*
X0417115Y0249465D01*
X0417088Y0249410D01*
X0417065Y0249355D01*
X0417045Y0249298D01*
X0417029Y0249239D01*
X0417016Y0249180D01*
X0417007Y0249121D01*
X0417002Y0249060D01*
X0417000Y0249000D01*
X0417000Y0232000D01*
X0417000Y0257500D02*
X0415500Y0257500D01*
X0415000Y0258000D01*
X0401000Y0258000D01*
X0400500Y0257500D01*
X0399000Y0257500D01*
X0398940Y0257502D01*
X0398879Y0257507D01*
X0398820Y0257516D01*
X0398761Y0257529D01*
X0398702Y0257545D01*
X0398645Y0257565D01*
X0398590Y0257588D01*
X0398535Y0257615D01*
X0398483Y0257644D01*
X0398432Y0257677D01*
X0398383Y0257713D01*
X0398337Y0257751D01*
X0398293Y0257793D01*
X0398251Y0257837D01*
X0398213Y0257883D01*
X0398177Y0257932D01*
X0398144Y0257983D01*
X0398115Y0258035D01*
X0398088Y0258090D01*
X0398065Y0258145D01*
X0398045Y0258202D01*
X0398029Y0258261D01*
X0398016Y0258320D01*
X0398007Y0258379D01*
X0398002Y0258440D01*
X0398000Y0258500D01*
X0398000Y0264500D01*
X0398002Y0264560D01*
X0398007Y0264621D01*
X0398016Y0264680D01*
X0398029Y0264739D01*
X0398045Y0264798D01*
X0398065Y0264855D01*
X0398088Y0264910D01*
X0398115Y0264965D01*
X0398144Y0265017D01*
X0398177Y0265068D01*
X0398213Y0265117D01*
X0398251Y0265163D01*
X0398293Y0265207D01*
X0398337Y0265249D01*
X0398383Y0265287D01*
X0398432Y0265323D01*
X0398483Y0265356D01*
X0398535Y0265385D01*
X0398590Y0265412D01*
X0398645Y0265435D01*
X0398702Y0265455D01*
X0398761Y0265471D01*
X0398820Y0265484D01*
X0398879Y0265493D01*
X0398940Y0265498D01*
X0399000Y0265500D01*
X0400500Y0265500D01*
X0401000Y0265000D01*
X0415000Y0265000D01*
X0415500Y0265500D01*
X0417000Y0265500D01*
X0417060Y0265498D01*
X0417121Y0265493D01*
X0417180Y0265484D01*
X0417239Y0265471D01*
X0417298Y0265455D01*
X0417355Y0265435D01*
X0417410Y0265412D01*
X0417465Y0265385D01*
X0417517Y0265356D01*
X0417568Y0265323D01*
X0417617Y0265287D01*
X0417663Y0265249D01*
X0417707Y0265207D01*
X0417749Y0265163D01*
X0417787Y0265117D01*
X0417823Y0265068D01*
X0417856Y0265017D01*
X0417885Y0264965D01*
X0417912Y0264910D01*
X0417935Y0264855D01*
X0417955Y0264798D01*
X0417971Y0264739D01*
X0417984Y0264680D01*
X0417993Y0264621D01*
X0417998Y0264560D01*
X0418000Y0264500D01*
X0418000Y0258500D01*
X0417998Y0258440D01*
X0417993Y0258379D01*
X0417984Y0258320D01*
X0417971Y0258261D01*
X0417955Y0258202D01*
X0417935Y0258145D01*
X0417912Y0258090D01*
X0417885Y0258035D01*
X0417856Y0257983D01*
X0417823Y0257932D01*
X0417787Y0257883D01*
X0417749Y0257837D01*
X0417707Y0257793D01*
X0417663Y0257751D01*
X0417617Y0257713D01*
X0417568Y0257677D01*
X0417517Y0257644D01*
X0417465Y0257615D01*
X0417410Y0257588D01*
X0417355Y0257565D01*
X0417298Y0257545D01*
X0417239Y0257529D01*
X0417180Y0257516D01*
X0417121Y0257507D01*
X0417060Y0257502D01*
X0417000Y0257500D01*
X0431000Y0258000D02*
X0431000Y0275000D01*
X0431002Y0275060D01*
X0431007Y0275121D01*
X0431016Y0275180D01*
X0431029Y0275239D01*
X0431045Y0275298D01*
X0431065Y0275355D01*
X0431088Y0275410D01*
X0431115Y0275465D01*
X0431144Y0275517D01*
X0431177Y0275568D01*
X0431213Y0275617D01*
X0431251Y0275663D01*
X0431293Y0275707D01*
X0431337Y0275749D01*
X0431383Y0275787D01*
X0431432Y0275823D01*
X0431483Y0275856D01*
X0431535Y0275885D01*
X0431590Y0275912D01*
X0431645Y0275935D01*
X0431702Y0275955D01*
X0431761Y0275971D01*
X0431820Y0275984D01*
X0431879Y0275993D01*
X0431940Y0275998D01*
X0432000Y0276000D01*
X0442000Y0276000D01*
X0442060Y0275998D01*
X0442121Y0275993D01*
X0442180Y0275984D01*
X0442239Y0275971D01*
X0442298Y0275955D01*
X0442355Y0275935D01*
X0442410Y0275912D01*
X0442465Y0275885D01*
X0442517Y0275856D01*
X0442568Y0275823D01*
X0442617Y0275787D01*
X0442663Y0275749D01*
X0442707Y0275707D01*
X0442749Y0275663D01*
X0442787Y0275617D01*
X0442823Y0275568D01*
X0442856Y0275517D01*
X0442885Y0275465D01*
X0442912Y0275410D01*
X0442935Y0275355D01*
X0442955Y0275298D01*
X0442971Y0275239D01*
X0442984Y0275180D01*
X0442993Y0275121D01*
X0442998Y0275060D01*
X0443000Y0275000D01*
X0443000Y0258000D01*
X0442998Y0257940D01*
X0442993Y0257879D01*
X0442984Y0257820D01*
X0442971Y0257761D01*
X0442955Y0257702D01*
X0442935Y0257645D01*
X0442912Y0257590D01*
X0442885Y0257535D01*
X0442856Y0257483D01*
X0442823Y0257432D01*
X0442787Y0257383D01*
X0442749Y0257337D01*
X0442707Y0257293D01*
X0442663Y0257251D01*
X0442617Y0257213D01*
X0442568Y0257177D01*
X0442517Y0257144D01*
X0442465Y0257115D01*
X0442410Y0257088D01*
X0442355Y0257065D01*
X0442298Y0257045D01*
X0442239Y0257029D01*
X0442180Y0257016D01*
X0442121Y0257007D01*
X0442060Y0257002D01*
X0442000Y0257000D01*
X0432000Y0257000D01*
X0431940Y0257002D01*
X0431879Y0257007D01*
X0431820Y0257016D01*
X0431761Y0257029D01*
X0431702Y0257045D01*
X0431645Y0257065D01*
X0431590Y0257088D01*
X0431535Y0257115D01*
X0431483Y0257144D01*
X0431432Y0257177D01*
X0431383Y0257213D01*
X0431337Y0257251D01*
X0431293Y0257293D01*
X0431251Y0257337D01*
X0431213Y0257383D01*
X0431177Y0257432D01*
X0431144Y0257483D01*
X0431115Y0257535D01*
X0431088Y0257590D01*
X0431065Y0257645D01*
X0431045Y0257702D01*
X0431029Y0257761D01*
X0431016Y0257820D01*
X0431007Y0257879D01*
X0431002Y0257940D01*
X0431000Y0258000D01*
X0437000Y0265000D02*
X0437000Y0265500D01*
X0437000Y0267500D02*
X0437000Y0268000D01*
X0418000Y0268500D02*
X0418000Y0274500D01*
X0417998Y0274560D01*
X0417993Y0274621D01*
X0417984Y0274680D01*
X0417971Y0274739D01*
X0417955Y0274798D01*
X0417935Y0274855D01*
X0417912Y0274910D01*
X0417885Y0274965D01*
X0417856Y0275017D01*
X0417823Y0275068D01*
X0417787Y0275117D01*
X0417749Y0275163D01*
X0417707Y0275207D01*
X0417663Y0275249D01*
X0417617Y0275287D01*
X0417568Y0275323D01*
X0417517Y0275356D01*
X0417465Y0275385D01*
X0417410Y0275412D01*
X0417355Y0275435D01*
X0417298Y0275455D01*
X0417239Y0275471D01*
X0417180Y0275484D01*
X0417121Y0275493D01*
X0417060Y0275498D01*
X0417000Y0275500D01*
X0415500Y0275500D01*
X0415000Y0275000D01*
X0401000Y0275000D01*
X0400500Y0275500D01*
X0399000Y0275500D01*
X0398940Y0275498D01*
X0398879Y0275493D01*
X0398820Y0275484D01*
X0398761Y0275471D01*
X0398702Y0275455D01*
X0398645Y0275435D01*
X0398590Y0275412D01*
X0398535Y0275385D01*
X0398483Y0275356D01*
X0398432Y0275323D01*
X0398383Y0275287D01*
X0398337Y0275249D01*
X0398293Y0275207D01*
X0398251Y0275163D01*
X0398213Y0275117D01*
X0398177Y0275068D01*
X0398144Y0275017D01*
X0398115Y0274965D01*
X0398088Y0274910D01*
X0398065Y0274855D01*
X0398045Y0274798D01*
X0398029Y0274739D01*
X0398016Y0274680D01*
X0398007Y0274621D01*
X0398002Y0274560D01*
X0398000Y0274500D01*
X0398000Y0268500D01*
X0398002Y0268440D01*
X0398007Y0268379D01*
X0398016Y0268320D01*
X0398029Y0268261D01*
X0398045Y0268202D01*
X0398065Y0268145D01*
X0398088Y0268090D01*
X0398115Y0268035D01*
X0398144Y0267983D01*
X0398177Y0267932D01*
X0398213Y0267883D01*
X0398251Y0267837D01*
X0398293Y0267793D01*
X0398337Y0267751D01*
X0398383Y0267713D01*
X0398432Y0267677D01*
X0398483Y0267644D01*
X0398535Y0267615D01*
X0398590Y0267588D01*
X0398645Y0267565D01*
X0398702Y0267545D01*
X0398761Y0267529D01*
X0398820Y0267516D01*
X0398879Y0267507D01*
X0398940Y0267502D01*
X0399000Y0267500D01*
X0400500Y0267500D01*
X0401000Y0268000D01*
X0415000Y0268000D01*
X0415500Y0267500D01*
X0417000Y0267500D01*
X0417060Y0267502D01*
X0417121Y0267507D01*
X0417180Y0267516D01*
X0417239Y0267529D01*
X0417298Y0267545D01*
X0417355Y0267565D01*
X0417410Y0267588D01*
X0417465Y0267615D01*
X0417517Y0267644D01*
X0417568Y0267677D01*
X0417617Y0267713D01*
X0417663Y0267751D01*
X0417707Y0267793D01*
X0417749Y0267837D01*
X0417787Y0267883D01*
X0417823Y0267932D01*
X0417856Y0267983D01*
X0417885Y0268035D01*
X0417912Y0268090D01*
X0417935Y0268145D01*
X0417955Y0268202D01*
X0417971Y0268261D01*
X0417984Y0268320D01*
X0417993Y0268379D01*
X0417998Y0268440D01*
X0418000Y0268500D01*
X0388000Y0275000D02*
X0388000Y0258000D01*
X0387998Y0257940D01*
X0387993Y0257879D01*
X0387984Y0257820D01*
X0387971Y0257761D01*
X0387955Y0257702D01*
X0387935Y0257645D01*
X0387912Y0257590D01*
X0387885Y0257535D01*
X0387856Y0257483D01*
X0387823Y0257432D01*
X0387787Y0257383D01*
X0387749Y0257337D01*
X0387707Y0257293D01*
X0387663Y0257251D01*
X0387617Y0257213D01*
X0387568Y0257177D01*
X0387517Y0257144D01*
X0387465Y0257115D01*
X0387410Y0257088D01*
X0387355Y0257065D01*
X0387298Y0257045D01*
X0387239Y0257029D01*
X0387180Y0257016D01*
X0387121Y0257007D01*
X0387060Y0257002D01*
X0387000Y0257000D01*
X0377000Y0257000D01*
X0376940Y0257002D01*
X0376879Y0257007D01*
X0376820Y0257016D01*
X0376761Y0257029D01*
X0376702Y0257045D01*
X0376645Y0257065D01*
X0376590Y0257088D01*
X0376535Y0257115D01*
X0376483Y0257144D01*
X0376432Y0257177D01*
X0376383Y0257213D01*
X0376337Y0257251D01*
X0376293Y0257293D01*
X0376251Y0257337D01*
X0376213Y0257383D01*
X0376177Y0257432D01*
X0376144Y0257483D01*
X0376115Y0257535D01*
X0376088Y0257590D01*
X0376065Y0257645D01*
X0376045Y0257702D01*
X0376029Y0257761D01*
X0376016Y0257820D01*
X0376007Y0257879D01*
X0376002Y0257940D01*
X0376000Y0258000D01*
X0376000Y0275000D01*
X0376002Y0275060D01*
X0376007Y0275121D01*
X0376016Y0275180D01*
X0376029Y0275239D01*
X0376045Y0275298D01*
X0376065Y0275355D01*
X0376088Y0275410D01*
X0376115Y0275465D01*
X0376144Y0275517D01*
X0376177Y0275568D01*
X0376213Y0275617D01*
X0376251Y0275663D01*
X0376293Y0275707D01*
X0376337Y0275749D01*
X0376383Y0275787D01*
X0376432Y0275823D01*
X0376483Y0275856D01*
X0376535Y0275885D01*
X0376590Y0275912D01*
X0376645Y0275935D01*
X0376702Y0275955D01*
X0376761Y0275971D01*
X0376820Y0275984D01*
X0376879Y0275993D01*
X0376940Y0275998D01*
X0377000Y0276000D01*
X0387000Y0276000D01*
X0387060Y0275998D01*
X0387121Y0275993D01*
X0387180Y0275984D01*
X0387239Y0275971D01*
X0387298Y0275955D01*
X0387355Y0275935D01*
X0387410Y0275912D01*
X0387465Y0275885D01*
X0387517Y0275856D01*
X0387568Y0275823D01*
X0387617Y0275787D01*
X0387663Y0275749D01*
X0387707Y0275707D01*
X0387749Y0275663D01*
X0387787Y0275617D01*
X0387823Y0275568D01*
X0387856Y0275517D01*
X0387885Y0275465D01*
X0387912Y0275410D01*
X0387935Y0275355D01*
X0387955Y0275298D01*
X0387971Y0275239D01*
X0387984Y0275180D01*
X0387993Y0275121D01*
X0387998Y0275060D01*
X0388000Y0275000D01*
X0382000Y0268000D02*
X0382000Y0267500D01*
X0382000Y0265500D02*
X0382000Y0265000D01*
X0437000Y0155500D02*
X0438500Y0155500D01*
X0439000Y0155000D01*
X0453000Y0155000D01*
X0453500Y0155500D01*
X0455000Y0155500D01*
X0455060Y0155498D01*
X0455121Y0155493D01*
X0455180Y0155484D01*
X0455239Y0155471D01*
X0455298Y0155455D01*
X0455355Y0155435D01*
X0455410Y0155412D01*
X0455465Y0155385D01*
X0455517Y0155356D01*
X0455568Y0155323D01*
X0455617Y0155287D01*
X0455663Y0155249D01*
X0455707Y0155207D01*
X0455749Y0155163D01*
X0455787Y0155117D01*
X0455823Y0155068D01*
X0455856Y0155017D01*
X0455885Y0154965D01*
X0455912Y0154910D01*
X0455935Y0154855D01*
X0455955Y0154798D01*
X0455971Y0154739D01*
X0455984Y0154680D01*
X0455993Y0154621D01*
X0455998Y0154560D01*
X0456000Y0154500D01*
X0456000Y0148500D01*
X0455998Y0148440D01*
X0455993Y0148379D01*
X0455984Y0148320D01*
X0455971Y0148261D01*
X0455955Y0148202D01*
X0455935Y0148145D01*
X0455912Y0148090D01*
X0455885Y0148035D01*
X0455856Y0147983D01*
X0455823Y0147932D01*
X0455787Y0147883D01*
X0455749Y0147837D01*
X0455707Y0147793D01*
X0455663Y0147751D01*
X0455617Y0147713D01*
X0455568Y0147677D01*
X0455517Y0147644D01*
X0455465Y0147615D01*
X0455410Y0147588D01*
X0455355Y0147565D01*
X0455298Y0147545D01*
X0455239Y0147529D01*
X0455180Y0147516D01*
X0455121Y0147507D01*
X0455060Y0147502D01*
X0455000Y0147500D01*
X0453500Y0147500D01*
X0453000Y0148000D01*
X0439000Y0148000D01*
X0438500Y0147500D01*
X0437000Y0147500D01*
X0436940Y0147502D01*
X0436879Y0147507D01*
X0436820Y0147516D01*
X0436761Y0147529D01*
X0436702Y0147545D01*
X0436645Y0147565D01*
X0436590Y0147588D01*
X0436535Y0147615D01*
X0436483Y0147644D01*
X0436432Y0147677D01*
X0436383Y0147713D01*
X0436337Y0147751D01*
X0436293Y0147793D01*
X0436251Y0147837D01*
X0436213Y0147883D01*
X0436177Y0147932D01*
X0436144Y0147983D01*
X0436115Y0148035D01*
X0436088Y0148090D01*
X0436065Y0148145D01*
X0436045Y0148202D01*
X0436029Y0148261D01*
X0436016Y0148320D01*
X0436007Y0148379D01*
X0436002Y0148440D01*
X0436000Y0148500D01*
X0436000Y0154500D01*
X0436002Y0154560D01*
X0436007Y0154621D01*
X0436016Y0154680D01*
X0436029Y0154739D01*
X0436045Y0154798D01*
X0436065Y0154855D01*
X0436088Y0154910D01*
X0436115Y0154965D01*
X0436144Y0155017D01*
X0436177Y0155068D01*
X0436213Y0155117D01*
X0436251Y0155163D01*
X0436293Y0155207D01*
X0436337Y0155249D01*
X0436383Y0155287D01*
X0436432Y0155323D01*
X0436483Y0155356D01*
X0436535Y0155385D01*
X0436590Y0155412D01*
X0436645Y0155435D01*
X0436702Y0155455D01*
X0436761Y0155471D01*
X0436820Y0155484D01*
X0436879Y0155493D01*
X0436940Y0155498D01*
X0437000Y0155500D01*
X0449000Y0145000D02*
X0450000Y0146000D01*
X0461500Y0146500D01*
X0449000Y0145000D02*
X0449000Y0108000D01*
X0450000Y0107000D01*
X0461500Y0106500D01*
X0455000Y0100500D02*
X0453500Y0100500D01*
X0453000Y0100000D01*
X0439000Y0100000D01*
X0438500Y0100500D01*
X0437000Y0100500D01*
X0436940Y0100498D01*
X0436879Y0100493D01*
X0436820Y0100484D01*
X0436761Y0100471D01*
X0436702Y0100455D01*
X0436645Y0100435D01*
X0436590Y0100412D01*
X0436535Y0100385D01*
X0436483Y0100356D01*
X0436432Y0100323D01*
X0436383Y0100287D01*
X0436337Y0100249D01*
X0436293Y0100207D01*
X0436251Y0100163D01*
X0436213Y0100117D01*
X0436177Y0100068D01*
X0436144Y0100017D01*
X0436115Y0099965D01*
X0436088Y0099910D01*
X0436065Y0099855D01*
X0436045Y0099798D01*
X0436029Y0099739D01*
X0436016Y0099680D01*
X0436007Y0099621D01*
X0436002Y0099560D01*
X0436000Y0099500D01*
X0436000Y0093500D01*
X0436002Y0093440D01*
X0436007Y0093379D01*
X0436016Y0093320D01*
X0436029Y0093261D01*
X0436045Y0093202D01*
X0436065Y0093145D01*
X0436088Y0093090D01*
X0436115Y0093035D01*
X0436144Y0092983D01*
X0436177Y0092932D01*
X0436213Y0092883D01*
X0436251Y0092837D01*
X0436293Y0092793D01*
X0436337Y0092751D01*
X0436383Y0092713D01*
X0436432Y0092677D01*
X0436483Y0092644D01*
X0436535Y0092615D01*
X0436590Y0092588D01*
X0436645Y0092565D01*
X0436702Y0092545D01*
X0436761Y0092529D01*
X0436820Y0092516D01*
X0436879Y0092507D01*
X0436940Y0092502D01*
X0437000Y0092500D01*
X0438500Y0092500D01*
X0439000Y0093000D01*
X0453000Y0093000D01*
X0453500Y0092500D01*
X0455000Y0092500D01*
X0455060Y0092502D01*
X0455121Y0092507D01*
X0455180Y0092516D01*
X0455239Y0092529D01*
X0455298Y0092545D01*
X0455355Y0092565D01*
X0455410Y0092588D01*
X0455465Y0092615D01*
X0455517Y0092644D01*
X0455568Y0092677D01*
X0455617Y0092713D01*
X0455663Y0092751D01*
X0455707Y0092793D01*
X0455749Y0092837D01*
X0455787Y0092883D01*
X0455823Y0092932D01*
X0455856Y0092983D01*
X0455885Y0093035D01*
X0455912Y0093090D01*
X0455935Y0093145D01*
X0455955Y0093202D01*
X0455971Y0093261D01*
X0455984Y0093320D01*
X0455993Y0093379D01*
X0455998Y0093440D01*
X0456000Y0093500D01*
X0456000Y0099500D01*
X0455998Y0099560D01*
X0455993Y0099621D01*
X0455984Y0099680D01*
X0455971Y0099739D01*
X0455955Y0099798D01*
X0455935Y0099855D01*
X0455912Y0099910D01*
X0455885Y0099965D01*
X0455856Y0100017D01*
X0455823Y0100068D01*
X0455787Y0100117D01*
X0455749Y0100163D01*
X0455707Y0100207D01*
X0455663Y0100249D01*
X0455617Y0100287D01*
X0455568Y0100323D01*
X0455517Y0100356D01*
X0455465Y0100385D01*
X0455410Y0100412D01*
X0455355Y0100435D01*
X0455298Y0100455D01*
X0455239Y0100471D01*
X0455180Y0100484D01*
X0455121Y0100493D01*
X0455060Y0100498D01*
X0455000Y0100500D01*
X0455000Y0085500D02*
X0453500Y0085500D01*
X0453000Y0085000D01*
X0439000Y0085000D01*
X0438500Y0085500D01*
X0437000Y0085500D01*
X0436940Y0085498D01*
X0436879Y0085493D01*
X0436820Y0085484D01*
X0436761Y0085471D01*
X0436702Y0085455D01*
X0436645Y0085435D01*
X0436590Y0085412D01*
X0436535Y0085385D01*
X0436483Y0085356D01*
X0436432Y0085323D01*
X0436383Y0085287D01*
X0436337Y0085249D01*
X0436293Y0085207D01*
X0436251Y0085163D01*
X0436213Y0085117D01*
X0436177Y0085068D01*
X0436144Y0085017D01*
X0436115Y0084965D01*
X0436088Y0084910D01*
X0436065Y0084855D01*
X0436045Y0084798D01*
X0436029Y0084739D01*
X0436016Y0084680D01*
X0436007Y0084621D01*
X0436002Y0084560D01*
X0436000Y0084500D01*
X0436000Y0078500D01*
X0436002Y0078440D01*
X0436007Y0078379D01*
X0436016Y0078320D01*
X0436029Y0078261D01*
X0436045Y0078202D01*
X0436065Y0078145D01*
X0436088Y0078090D01*
X0436115Y0078035D01*
X0436144Y0077983D01*
X0436177Y0077932D01*
X0436213Y0077883D01*
X0436251Y0077837D01*
X0436293Y0077793D01*
X0436337Y0077751D01*
X0436383Y0077713D01*
X0436432Y0077677D01*
X0436483Y0077644D01*
X0436535Y0077615D01*
X0436590Y0077588D01*
X0436645Y0077565D01*
X0436702Y0077545D01*
X0436761Y0077529D01*
X0436820Y0077516D01*
X0436879Y0077507D01*
X0436940Y0077502D01*
X0437000Y0077500D01*
X0438500Y0077500D01*
X0439000Y0078000D01*
X0453000Y0078000D01*
X0453500Y0077500D01*
X0455000Y0077500D01*
X0455060Y0077502D01*
X0455121Y0077507D01*
X0455180Y0077516D01*
X0455239Y0077529D01*
X0455298Y0077545D01*
X0455355Y0077565D01*
X0455410Y0077588D01*
X0455465Y0077615D01*
X0455517Y0077644D01*
X0455568Y0077677D01*
X0455617Y0077713D01*
X0455663Y0077751D01*
X0455707Y0077793D01*
X0455749Y0077837D01*
X0455787Y0077883D01*
X0455823Y0077932D01*
X0455856Y0077983D01*
X0455885Y0078035D01*
X0455912Y0078090D01*
X0455935Y0078145D01*
X0455955Y0078202D01*
X0455971Y0078261D01*
X0455984Y0078320D01*
X0455993Y0078379D01*
X0455998Y0078440D01*
X0456000Y0078500D01*
X0456000Y0084500D01*
X0455998Y0084560D01*
X0455993Y0084621D01*
X0455984Y0084680D01*
X0455971Y0084739D01*
X0455955Y0084798D01*
X0455935Y0084855D01*
X0455912Y0084910D01*
X0455885Y0084965D01*
X0455856Y0085017D01*
X0455823Y0085068D01*
X0455787Y0085117D01*
X0455749Y0085163D01*
X0455707Y0085207D01*
X0455663Y0085249D01*
X0455617Y0085287D01*
X0455568Y0085323D01*
X0455517Y0085356D01*
X0455465Y0085385D01*
X0455410Y0085412D01*
X0455355Y0085435D01*
X0455298Y0085455D01*
X0455239Y0085471D01*
X0455180Y0085484D01*
X0455121Y0085493D01*
X0455060Y0085498D01*
X0455000Y0085500D01*
X0450000Y0071000D02*
X0461500Y0071500D01*
X0450000Y0071000D02*
X0449000Y0070000D01*
X0449000Y0033000D01*
X0450000Y0032000D01*
X0461500Y0031500D01*
X0401000Y0067500D02*
X0401000Y0070000D01*
X0396000Y0070000D01*
X0391000Y0070000D01*
X0391000Y0067500D01*
X0401000Y0067500D01*
X0368500Y0066500D02*
X0368508Y0067175D01*
X0368533Y0067849D01*
X0368575Y0068523D01*
X0368632Y0069195D01*
X0368707Y0069866D01*
X0368798Y0070535D01*
X0368905Y0071201D01*
X0369028Y0071865D01*
X0369168Y0072525D01*
X0369324Y0073182D01*
X0369496Y0073835D01*
X0369684Y0074483D01*
X0369888Y0075126D01*
X0370108Y0075764D01*
X0370343Y0076397D01*
X0370593Y0077024D01*
X0370859Y0077644D01*
X0371140Y0078258D01*
X0371436Y0078864D01*
X0371747Y0079463D01*
X0372073Y0080055D01*
X0372412Y0080638D01*
X0372767Y0081212D01*
X0373135Y0081778D01*
X0373516Y0082335D01*
X0373912Y0082882D01*
X0374320Y0083419D01*
X0374742Y0083946D01*
X0375177Y0084462D01*
X0375624Y0084968D01*
X0376083Y0085462D01*
X0376555Y0085945D01*
X0377038Y0086417D01*
X0377532Y0086876D01*
X0378038Y0087323D01*
X0378554Y0087758D01*
X0379081Y0088180D01*
X0379618Y0088588D01*
X0380165Y0088984D01*
X0380722Y0089365D01*
X0381288Y0089733D01*
X0381862Y0090088D01*
X0382445Y0090427D01*
X0383037Y0090753D01*
X0383636Y0091064D01*
X0384242Y0091360D01*
X0384856Y0091641D01*
X0385476Y0091907D01*
X0386103Y0092157D01*
X0386736Y0092392D01*
X0387374Y0092612D01*
X0388017Y0092816D01*
X0388665Y0093004D01*
X0389318Y0093176D01*
X0389975Y0093332D01*
X0390635Y0093472D01*
X0391299Y0093595D01*
X0391965Y0093702D01*
X0392634Y0093793D01*
X0393305Y0093868D01*
X0393977Y0093925D01*
X0394651Y0093967D01*
X0395325Y0093992D01*
X0396000Y0094000D01*
X0396675Y0093992D01*
X0397349Y0093967D01*
X0398023Y0093925D01*
X0398695Y0093868D01*
X0399366Y0093793D01*
X0400035Y0093702D01*
X0400701Y0093595D01*
X0401365Y0093472D01*
X0402025Y0093332D01*
X0402682Y0093176D01*
X0403335Y0093004D01*
X0403983Y0092816D01*
X0404626Y0092612D01*
X0405264Y0092392D01*
X0405897Y0092157D01*
X0406524Y0091907D01*
X0407144Y0091641D01*
X0407758Y0091360D01*
X0408364Y0091064D01*
X0408963Y0090753D01*
X0409555Y0090427D01*
X0410138Y0090088D01*
X0410712Y0089733D01*
X0411278Y0089365D01*
X0411835Y0088984D01*
X0412382Y0088588D01*
X0412919Y0088180D01*
X0413446Y0087758D01*
X0413962Y0087323D01*
X0414468Y0086876D01*
X0414962Y0086417D01*
X0415445Y0085945D01*
X0415917Y0085462D01*
X0416376Y0084968D01*
X0416823Y0084462D01*
X0417258Y0083946D01*
X0417680Y0083419D01*
X0418088Y0082882D01*
X0418484Y0082335D01*
X0418865Y0081778D01*
X0419233Y0081212D01*
X0419588Y0080638D01*
X0419927Y0080055D01*
X0420253Y0079463D01*
X0420564Y0078864D01*
X0420860Y0078258D01*
X0421141Y0077644D01*
X0421407Y0077024D01*
X0421657Y0076397D01*
X0421892Y0075764D01*
X0422112Y0075126D01*
X0422316Y0074483D01*
X0422504Y0073835D01*
X0422676Y0073182D01*
X0422832Y0072525D01*
X0422972Y0071865D01*
X0423095Y0071201D01*
X0423202Y0070535D01*
X0423293Y0069866D01*
X0423368Y0069195D01*
X0423425Y0068523D01*
X0423467Y0067849D01*
X0423492Y0067175D01*
X0423500Y0066500D01*
X0423492Y0065825D01*
X0423467Y0065151D01*
X0423425Y0064477D01*
X0423368Y0063805D01*
X0423293Y0063134D01*
X0423202Y0062465D01*
X0423095Y0061799D01*
X0422972Y0061135D01*
X0422832Y0060475D01*
X0422676Y0059818D01*
X0422504Y0059165D01*
X0422316Y0058517D01*
X0422112Y0057874D01*
X0421892Y0057236D01*
X0421657Y0056603D01*
X0421407Y0055976D01*
X0421141Y0055356D01*
X0420860Y0054742D01*
X0420564Y0054136D01*
X0420253Y0053537D01*
X0419927Y0052945D01*
X0419588Y0052362D01*
X0419233Y0051788D01*
X0418865Y0051222D01*
X0418484Y0050665D01*
X0418088Y0050118D01*
X0417680Y0049581D01*
X0417258Y0049054D01*
X0416823Y0048538D01*
X0416376Y0048032D01*
X0415917Y0047538D01*
X0415445Y0047055D01*
X0414962Y0046583D01*
X0414468Y0046124D01*
X0413962Y0045677D01*
X0413446Y0045242D01*
X0412919Y0044820D01*
X0412382Y0044412D01*
X0411835Y0044016D01*
X0411278Y0043635D01*
X0410712Y0043267D01*
X0410138Y0042912D01*
X0409555Y0042573D01*
X0408963Y0042247D01*
X0408364Y0041936D01*
X0407758Y0041640D01*
X0407144Y0041359D01*
X0406524Y0041093D01*
X0405897Y0040843D01*
X0405264Y0040608D01*
X0404626Y0040388D01*
X0403983Y0040184D01*
X0403335Y0039996D01*
X0402682Y0039824D01*
X0402025Y0039668D01*
X0401365Y0039528D01*
X0400701Y0039405D01*
X0400035Y0039298D01*
X0399366Y0039207D01*
X0398695Y0039132D01*
X0398023Y0039075D01*
X0397349Y0039033D01*
X0396675Y0039008D01*
X0396000Y0039000D01*
X0395325Y0039008D01*
X0394651Y0039033D01*
X0393977Y0039075D01*
X0393305Y0039132D01*
X0392634Y0039207D01*
X0391965Y0039298D01*
X0391299Y0039405D01*
X0390635Y0039528D01*
X0389975Y0039668D01*
X0389318Y0039824D01*
X0388665Y0039996D01*
X0388017Y0040184D01*
X0387374Y0040388D01*
X0386736Y0040608D01*
X0386103Y0040843D01*
X0385476Y0041093D01*
X0384856Y0041359D01*
X0384242Y0041640D01*
X0383636Y0041936D01*
X0383037Y0042247D01*
X0382445Y0042573D01*
X0381862Y0042912D01*
X0381288Y0043267D01*
X0380722Y0043635D01*
X0380165Y0044016D01*
X0379618Y0044412D01*
X0379081Y0044820D01*
X0378554Y0045242D01*
X0378038Y0045677D01*
X0377532Y0046124D01*
X0377038Y0046583D01*
X0376555Y0047055D01*
X0376083Y0047538D01*
X0375624Y0048032D01*
X0375177Y0048538D01*
X0374742Y0049054D01*
X0374320Y0049581D01*
X0373912Y0050118D01*
X0373516Y0050665D01*
X0373135Y0051222D01*
X0372767Y0051788D01*
X0372412Y0052362D01*
X0372073Y0052945D01*
X0371747Y0053537D01*
X0371436Y0054136D01*
X0371140Y0054742D01*
X0370859Y0055356D01*
X0370593Y0055976D01*
X0370343Y0056603D01*
X0370108Y0057236D01*
X0369888Y0057874D01*
X0369684Y0058517D01*
X0369496Y0059165D01*
X0369324Y0059818D01*
X0369168Y0060475D01*
X0369028Y0061135D01*
X0368905Y0061799D01*
X0368798Y0062465D01*
X0368707Y0063134D01*
X0368632Y0063805D01*
X0368575Y0064477D01*
X0368533Y0065151D01*
X0368508Y0065825D01*
X0368500Y0066500D01*
X0396000Y0064000D02*
X0396000Y0062000D01*
X0396000Y0070000D02*
X0396000Y0071000D01*
X0396000Y0084000D02*
X0396000Y0089000D01*
X0393500Y0086500D02*
X0398500Y0086500D01*
D12*
X0362406Y0140126D02*
X0362406Y0161126D01*
X0362406Y0140126D02*
X0362055Y0140126D01*
X0420000Y0179500D02*
X0423000Y0179500D01*
X0426000Y0179500D01*
X0426000Y0181500D02*
X0423000Y0181500D01*
X0420000Y0181500D01*
X0434000Y0181500D02*
X0437000Y0181500D01*
X0440000Y0181500D01*
X0440000Y0179500D02*
X0437000Y0179500D01*
X0434000Y0179500D01*
X0434000Y0205500D02*
X0437000Y0205500D01*
X0440000Y0205500D01*
X0440000Y0207500D02*
X0437000Y0207500D01*
X0434000Y0207500D01*
X0385000Y0207500D02*
X0382000Y0207500D01*
X0379000Y0207500D01*
X0379000Y0205500D02*
X0382000Y0205500D01*
X0385000Y0205500D01*
X0362406Y0231094D02*
X0362406Y0254232D01*
X0358555Y0254232D01*
X0379000Y0265500D02*
X0382000Y0265500D01*
X0385000Y0265500D01*
X0385000Y0267500D02*
X0382000Y0267500D01*
X0379000Y0267500D01*
X0420000Y0241500D02*
X0423000Y0241500D01*
X0426000Y0241500D01*
X0426000Y0239500D02*
X0423000Y0239500D01*
X0420000Y0239500D01*
X0434000Y0239500D02*
X0437000Y0239500D01*
X0440000Y0239500D01*
X0440000Y0241500D02*
X0437000Y0241500D01*
X0434000Y0241500D01*
X0434000Y0265500D02*
X0437000Y0265500D01*
X0440000Y0265500D01*
X0440000Y0267500D02*
X0437000Y0267500D01*
X0434000Y0267500D01*
X0255213Y0254280D02*
X0249630Y0254232D01*
X0249630Y0226520D01*
X0226000Y0227500D02*
X0223000Y0227500D01*
X0220000Y0227500D01*
X0220000Y0225500D02*
X0223000Y0225500D01*
X0226000Y0225500D01*
X0182000Y0225500D02*
X0182000Y0222500D01*
X0180000Y0222500D02*
X0180000Y0225500D01*
X0180000Y0228500D01*
X0182000Y0228500D02*
X0182000Y0225500D01*
X0212000Y0193500D02*
X0215000Y0193500D01*
X0218000Y0193500D01*
X0218000Y0191500D02*
X0215000Y0191500D01*
X0212000Y0191500D01*
X0249236Y0161126D02*
X0249236Y0140126D01*
X0266555Y0140126D01*
X0234000Y0130500D02*
X0231000Y0130500D01*
X0228000Y0130500D01*
X0228000Y0128500D02*
X0231000Y0128500D01*
X0234000Y0128500D01*
X0190000Y0154500D02*
X0190000Y0157500D01*
X0190000Y0160500D01*
X0188000Y0160500D02*
X0188000Y0157500D01*
X0188000Y0154500D01*
X0151000Y0180500D02*
X0151000Y0183500D01*
X0151000Y0186500D01*
X0149000Y0186500D02*
X0149000Y0183500D01*
X0149000Y0180500D01*
X0119000Y0200500D02*
X0116000Y0200500D01*
X0113000Y0200500D01*
X0113000Y0202500D02*
X0116000Y0202500D01*
X0119000Y0202500D01*
X0094000Y0210500D02*
X0091000Y0210500D01*
X0088000Y0210500D01*
X0088000Y0212500D02*
X0091000Y0212500D01*
X0094000Y0212500D01*
X0113000Y0230500D02*
X0116000Y0230500D01*
X0119000Y0230500D01*
X0119000Y0232500D02*
X0116000Y0232500D01*
X0113000Y0232500D01*
X0163000Y0107500D02*
X0166000Y0107500D01*
X0169000Y0107500D01*
X0169000Y0105500D02*
X0166000Y0105500D01*
X0163000Y0105500D01*
X0065000Y0045500D02*
X0065000Y0042500D01*
X0065000Y0039500D01*
X0063000Y0039500D02*
X0063000Y0042500D01*
X0063000Y0045500D01*
D13*
X0056001Y0030750D02*
X0055250Y0030750D01*
X0055250Y0031501D01*
X0056001Y0031501D01*
X0056001Y0030750D01*
X0057552Y0030750D02*
X0060555Y0030750D01*
X0059053Y0030750D02*
X0059053Y0035254D01*
X0057552Y0033753D01*
X0062156Y0033753D02*
X0062156Y0031501D01*
X0062907Y0030750D01*
X0065158Y0030750D01*
X0065158Y0033753D01*
X0062856Y0050250D02*
X0059854Y0050250D01*
X0061355Y0050250D02*
X0061355Y0054754D01*
X0059854Y0053253D01*
X0058253Y0054003D02*
X0057502Y0054754D01*
X0056001Y0054754D01*
X0055250Y0054003D01*
X0055250Y0051001D01*
X0056001Y0050250D01*
X0057502Y0050250D01*
X0058253Y0051001D01*
X0053441Y0052287D02*
X0136118Y0052287D01*
X0136118Y0150713D01*
X0053441Y0150713D01*
X0027850Y0119217D01*
X0027850Y0081815D01*
X0053441Y0052287D01*
X0153746Y0098293D02*
X0154497Y0097542D01*
X0157499Y0097542D01*
X0158250Y0098293D01*
X0158250Y0099794D01*
X0157499Y0100545D01*
X0157499Y0102146D02*
X0158250Y0102897D01*
X0158250Y0104398D01*
X0157499Y0105149D01*
X0156749Y0105149D01*
X0155998Y0104398D01*
X0155998Y0102146D01*
X0157499Y0102146D01*
X0155998Y0102146D02*
X0154497Y0103647D01*
X0153746Y0105149D01*
X0154497Y0100545D02*
X0153746Y0099794D01*
X0153746Y0098293D01*
X0156999Y0110240D02*
X0156999Y0110991D01*
X0157750Y0110991D01*
X0157750Y0110240D01*
X0156999Y0110240D01*
X0157750Y0112542D02*
X0157750Y0115545D01*
X0157750Y0114043D02*
X0153246Y0114043D01*
X0154747Y0112542D01*
X0154747Y0117146D02*
X0156999Y0117146D01*
X0157750Y0117897D01*
X0157750Y0120149D01*
X0154747Y0120149D01*
X0171551Y0122051D02*
X0190449Y0122051D01*
X0190449Y0140949D01*
X0171551Y0140949D01*
X0171551Y0122051D01*
X0188087Y0123626D02*
X0188089Y0123682D01*
X0188095Y0123737D01*
X0188105Y0123791D01*
X0188118Y0123845D01*
X0188136Y0123898D01*
X0188157Y0123949D01*
X0188181Y0123999D01*
X0188209Y0124047D01*
X0188241Y0124093D01*
X0188275Y0124137D01*
X0188313Y0124178D01*
X0188353Y0124216D01*
X0188396Y0124251D01*
X0188441Y0124283D01*
X0188489Y0124312D01*
X0188538Y0124338D01*
X0188589Y0124360D01*
X0188641Y0124378D01*
X0188695Y0124392D01*
X0188750Y0124403D01*
X0188805Y0124410D01*
X0188860Y0124413D01*
X0188916Y0124412D01*
X0188971Y0124407D01*
X0189026Y0124398D01*
X0189080Y0124386D01*
X0189133Y0124369D01*
X0189185Y0124349D01*
X0189235Y0124325D01*
X0189283Y0124298D01*
X0189330Y0124268D01*
X0189374Y0124234D01*
X0189416Y0124197D01*
X0189454Y0124157D01*
X0189491Y0124115D01*
X0189524Y0124070D01*
X0189553Y0124024D01*
X0189580Y0123975D01*
X0189602Y0123924D01*
X0189622Y0123872D01*
X0189637Y0123818D01*
X0189649Y0123764D01*
X0189657Y0123709D01*
X0189661Y0123654D01*
X0189661Y0123598D01*
X0189657Y0123543D01*
X0189649Y0123488D01*
X0189637Y0123434D01*
X0189622Y0123380D01*
X0189602Y0123328D01*
X0189580Y0123277D01*
X0189553Y0123228D01*
X0189524Y0123182D01*
X0189491Y0123137D01*
X0189454Y0123095D01*
X0189416Y0123055D01*
X0189374Y0123018D01*
X0189330Y0122984D01*
X0189283Y0122954D01*
X0189235Y0122927D01*
X0189185Y0122903D01*
X0189133Y0122883D01*
X0189080Y0122866D01*
X0189026Y0122854D01*
X0188971Y0122845D01*
X0188916Y0122840D01*
X0188860Y0122839D01*
X0188805Y0122842D01*
X0188750Y0122849D01*
X0188695Y0122860D01*
X0188641Y0122874D01*
X0188589Y0122892D01*
X0188538Y0122914D01*
X0188489Y0122940D01*
X0188441Y0122969D01*
X0188396Y0123001D01*
X0188353Y0123036D01*
X0188313Y0123074D01*
X0188275Y0123115D01*
X0188241Y0123159D01*
X0188209Y0123205D01*
X0188181Y0123253D01*
X0188157Y0123303D01*
X0188136Y0123354D01*
X0188118Y0123407D01*
X0188105Y0123461D01*
X0188095Y0123515D01*
X0188089Y0123570D01*
X0188087Y0123626D01*
X0198913Y0123626D02*
X0213087Y0123626D01*
X0213087Y0139374D01*
X0198913Y0139374D01*
X0198913Y0123626D01*
X0212938Y0116503D02*
X0212938Y0113501D01*
X0213689Y0112750D01*
X0215190Y0112750D01*
X0215941Y0113501D01*
X0217542Y0112750D02*
X0220545Y0112750D01*
X0219043Y0112750D02*
X0219043Y0117254D01*
X0217542Y0115753D01*
X0215941Y0116503D02*
X0215190Y0117254D01*
X0213689Y0117254D01*
X0212938Y0116503D01*
X0213717Y0109374D02*
X0211748Y0109374D01*
X0210868Y0107406D02*
X0210870Y0107465D01*
X0210876Y0107523D01*
X0210886Y0107581D01*
X0210899Y0107638D01*
X0210917Y0107695D01*
X0210938Y0107750D01*
X0210963Y0107803D01*
X0210991Y0107854D01*
X0211022Y0107904D01*
X0211057Y0107951D01*
X0211095Y0107996D01*
X0211136Y0108039D01*
X0211180Y0108078D01*
X0211226Y0108114D01*
X0211274Y0108148D01*
X0211325Y0108178D01*
X0211378Y0108204D01*
X0211432Y0108227D01*
X0211487Y0108246D01*
X0211544Y0108262D01*
X0211602Y0108274D01*
X0211660Y0108282D01*
X0211719Y0108286D01*
X0211777Y0108286D01*
X0211836Y0108282D01*
X0211894Y0108274D01*
X0211952Y0108262D01*
X0212009Y0108246D01*
X0212064Y0108227D01*
X0212118Y0108204D01*
X0212171Y0108178D01*
X0212222Y0108148D01*
X0212270Y0108114D01*
X0212316Y0108078D01*
X0212360Y0108039D01*
X0212401Y0107996D01*
X0212439Y0107951D01*
X0212474Y0107904D01*
X0212505Y0107854D01*
X0212533Y0107803D01*
X0212558Y0107750D01*
X0212579Y0107695D01*
X0212597Y0107638D01*
X0212610Y0107581D01*
X0212620Y0107523D01*
X0212626Y0107465D01*
X0212628Y0107406D01*
X0212626Y0107347D01*
X0212620Y0107289D01*
X0212610Y0107231D01*
X0212597Y0107174D01*
X0212579Y0107117D01*
X0212558Y0107062D01*
X0212533Y0107009D01*
X0212505Y0106958D01*
X0212474Y0106908D01*
X0212439Y0106861D01*
X0212401Y0106816D01*
X0212360Y0106773D01*
X0212316Y0106734D01*
X0212270Y0106698D01*
X0212222Y0106664D01*
X0212171Y0106634D01*
X0212118Y0106608D01*
X0212064Y0106585D01*
X0212009Y0106566D01*
X0211952Y0106550D01*
X0211894Y0106538D01*
X0211836Y0106530D01*
X0211777Y0106526D01*
X0211719Y0106526D01*
X0211660Y0106530D01*
X0211602Y0106538D01*
X0211544Y0106550D01*
X0211487Y0106566D01*
X0211432Y0106585D01*
X0211378Y0106608D01*
X0211325Y0106634D01*
X0211274Y0106664D01*
X0211226Y0106698D01*
X0211180Y0106734D01*
X0211136Y0106773D01*
X0211095Y0106816D01*
X0211057Y0106861D01*
X0211022Y0106908D01*
X0210991Y0106958D01*
X0210963Y0107009D01*
X0210938Y0107062D01*
X0210917Y0107117D01*
X0210899Y0107174D01*
X0210886Y0107231D01*
X0210876Y0107289D01*
X0210870Y0107347D01*
X0210868Y0107406D01*
X0213717Y0109374D02*
X0213717Y0093626D01*
X0211748Y0093626D01*
X0200331Y0087720D02*
X0189780Y0076563D01*
X0189780Y0067563D01*
X0186260Y0067563D01*
X0186260Y0055043D01*
X0189780Y0055043D01*
X0189780Y0039311D01*
X0197000Y0039311D01*
X0204425Y0048161D01*
X0228000Y0048161D01*
X0237000Y0039311D01*
X0242220Y0039311D01*
X0242220Y0055043D01*
X0245740Y0055043D01*
X0245740Y0067957D01*
X0242220Y0067957D01*
X0242220Y0075957D01*
X0231063Y0087720D01*
X0200331Y0087720D01*
X0180252Y0093626D02*
X0178283Y0093626D01*
X0178283Y0109374D01*
X0180252Y0109374D01*
X0218746Y0125501D02*
X0219497Y0124750D01*
X0222499Y0124750D01*
X0223250Y0125501D01*
X0223250Y0127002D01*
X0222499Y0127753D01*
X0223250Y0129354D02*
X0223250Y0132356D01*
X0223250Y0130855D02*
X0218746Y0130855D01*
X0220247Y0129354D01*
X0219497Y0127753D02*
X0218746Y0127002D01*
X0218746Y0125501D01*
X0219497Y0133958D02*
X0218746Y0134708D01*
X0218746Y0136210D01*
X0219497Y0136960D01*
X0220247Y0136960D01*
X0220998Y0136210D01*
X0221749Y0136960D01*
X0222499Y0136960D01*
X0223250Y0136210D01*
X0223250Y0134708D01*
X0222499Y0133958D01*
X0220998Y0135459D02*
X0220998Y0136210D01*
X0211349Y0138193D02*
X0211351Y0138240D01*
X0211357Y0138286D01*
X0211366Y0138332D01*
X0211380Y0138376D01*
X0211397Y0138420D01*
X0211418Y0138461D01*
X0211442Y0138501D01*
X0211469Y0138539D01*
X0211500Y0138574D01*
X0211533Y0138607D01*
X0211569Y0138637D01*
X0211608Y0138663D01*
X0211648Y0138687D01*
X0211690Y0138706D01*
X0211734Y0138723D01*
X0211779Y0138735D01*
X0211825Y0138744D01*
X0211871Y0138749D01*
X0211918Y0138750D01*
X0211964Y0138747D01*
X0212010Y0138740D01*
X0212056Y0138729D01*
X0212100Y0138715D01*
X0212143Y0138697D01*
X0212184Y0138675D01*
X0212224Y0138650D01*
X0212261Y0138622D01*
X0212296Y0138591D01*
X0212328Y0138557D01*
X0212357Y0138520D01*
X0212382Y0138482D01*
X0212405Y0138441D01*
X0212424Y0138398D01*
X0212439Y0138354D01*
X0212451Y0138309D01*
X0212459Y0138263D01*
X0212463Y0138216D01*
X0212463Y0138170D01*
X0212459Y0138123D01*
X0212451Y0138077D01*
X0212439Y0138032D01*
X0212424Y0137988D01*
X0212405Y0137945D01*
X0212382Y0137904D01*
X0212357Y0137866D01*
X0212328Y0137829D01*
X0212296Y0137795D01*
X0212261Y0137764D01*
X0212224Y0137736D01*
X0212185Y0137711D01*
X0212143Y0137689D01*
X0212100Y0137671D01*
X0212056Y0137657D01*
X0212010Y0137646D01*
X0211964Y0137639D01*
X0211918Y0137636D01*
X0211871Y0137637D01*
X0211825Y0137642D01*
X0211779Y0137651D01*
X0211734Y0137663D01*
X0211690Y0137680D01*
X0211648Y0137699D01*
X0211608Y0137723D01*
X0211569Y0137749D01*
X0211533Y0137779D01*
X0211500Y0137812D01*
X0211469Y0137847D01*
X0211442Y0137885D01*
X0211418Y0137925D01*
X0211397Y0137966D01*
X0211380Y0138010D01*
X0211366Y0138054D01*
X0211357Y0138100D01*
X0211351Y0138146D01*
X0211349Y0138193D01*
X0196649Y0145750D02*
X0196649Y0148753D01*
X0193646Y0148753D02*
X0193646Y0146501D01*
X0194397Y0145750D01*
X0196649Y0145750D01*
X0192045Y0145750D02*
X0189042Y0145750D01*
X0190543Y0145750D02*
X0190543Y0150254D01*
X0189042Y0148753D01*
X0187491Y0146501D02*
X0187491Y0145750D01*
X0186740Y0145750D01*
X0186740Y0146501D01*
X0187491Y0146501D01*
X0176649Y0157001D02*
X0175898Y0156250D01*
X0174397Y0156250D01*
X0173646Y0157001D01*
X0173646Y0157751D01*
X0174397Y0158502D01*
X0175898Y0158502D01*
X0176649Y0157751D01*
X0176649Y0157001D01*
X0175898Y0158502D02*
X0176649Y0159253D01*
X0176649Y0160003D01*
X0175898Y0160754D01*
X0174397Y0160754D01*
X0173646Y0160003D01*
X0173646Y0159253D01*
X0174397Y0158502D01*
X0172045Y0160003D02*
X0171294Y0160754D01*
X0169793Y0160754D01*
X0169042Y0160003D01*
X0169042Y0157001D01*
X0169793Y0156250D01*
X0171294Y0156250D01*
X0172045Y0157001D01*
X0163649Y0164750D02*
X0163649Y0167002D01*
X0162898Y0167753D01*
X0160646Y0167753D01*
X0160646Y0164750D01*
X0159045Y0165501D02*
X0158294Y0164750D01*
X0156793Y0164750D01*
X0156042Y0165501D01*
X0159045Y0168503D01*
X0159045Y0165501D01*
X0159045Y0168503D02*
X0158294Y0169254D01*
X0156793Y0169254D01*
X0156042Y0168503D01*
X0156042Y0165501D01*
X0154441Y0164750D02*
X0151438Y0164750D01*
X0152939Y0164750D02*
X0152939Y0169254D01*
X0151438Y0167753D01*
X0150793Y0171250D02*
X0152294Y0171250D01*
X0153045Y0172001D01*
X0154646Y0172001D02*
X0155397Y0171250D01*
X0156898Y0171250D01*
X0157649Y0172001D01*
X0157649Y0173502D01*
X0156898Y0174253D01*
X0156147Y0174253D01*
X0154646Y0173502D01*
X0154646Y0175754D01*
X0157649Y0175754D01*
X0153045Y0175003D02*
X0152294Y0175754D01*
X0150793Y0175754D01*
X0150042Y0175003D01*
X0150042Y0172001D01*
X0150793Y0171250D01*
X0169189Y0179689D02*
X0169189Y0203311D01*
X0192811Y0203311D01*
X0192811Y0179689D01*
X0169189Y0179689D01*
X0145843Y0190909D02*
X0126157Y0190909D01*
X0126157Y0242091D01*
X0145843Y0242091D01*
X0145843Y0190909D01*
X0119251Y0183958D02*
X0114747Y0183958D01*
X0114747Y0186210D01*
X0115498Y0186960D01*
X0116999Y0186960D01*
X0117750Y0186210D01*
X0117750Y0183958D01*
X0116999Y0182356D02*
X0117750Y0181606D01*
X0117750Y0180105D01*
X0116999Y0179354D01*
X0116249Y0179354D01*
X0115498Y0180105D01*
X0115498Y0181606D01*
X0116249Y0182356D01*
X0116999Y0182356D01*
X0115498Y0181606D02*
X0114747Y0182356D01*
X0113997Y0182356D01*
X0113246Y0181606D01*
X0113246Y0180105D01*
X0113997Y0179354D01*
X0114747Y0179354D01*
X0115498Y0180105D01*
X0117750Y0177753D02*
X0117750Y0174750D01*
X0117750Y0176251D02*
X0113246Y0176251D01*
X0114747Y0174750D01*
X0115498Y0188562D02*
X0115498Y0190063D01*
X0113997Y0189312D02*
X0113246Y0190063D01*
X0113997Y0189312D02*
X0117750Y0189312D01*
X0108250Y0193501D02*
X0108250Y0195002D01*
X0107499Y0195753D01*
X0107499Y0197354D02*
X0108250Y0198105D01*
X0108250Y0199606D01*
X0107499Y0200356D01*
X0106749Y0200356D01*
X0105998Y0199606D01*
X0105998Y0198855D01*
X0105998Y0199606D02*
X0105247Y0200356D01*
X0104497Y0200356D01*
X0103746Y0199606D01*
X0103746Y0198105D01*
X0104497Y0197354D01*
X0104497Y0195753D02*
X0103746Y0195002D01*
X0103746Y0193501D01*
X0104497Y0192750D01*
X0107499Y0192750D01*
X0108250Y0193501D01*
X0093250Y0194002D02*
X0093250Y0192501D01*
X0092499Y0191750D01*
X0089497Y0191750D01*
X0088746Y0192501D01*
X0088746Y0194002D01*
X0089497Y0194753D01*
X0089497Y0196354D02*
X0088746Y0197105D01*
X0088746Y0198606D01*
X0089497Y0199356D01*
X0090247Y0199356D01*
X0093250Y0196354D01*
X0093250Y0199356D01*
X0092499Y0194753D02*
X0093250Y0194002D01*
X0080685Y0198941D02*
X0041315Y0198941D01*
X0046988Y0202878D02*
X0046990Y0202971D01*
X0046996Y0203065D01*
X0047006Y0203158D01*
X0047020Y0203250D01*
X0047037Y0203342D01*
X0047059Y0203433D01*
X0047084Y0203523D01*
X0047114Y0203611D01*
X0047147Y0203699D01*
X0047183Y0203785D01*
X0047224Y0203869D01*
X0047267Y0203951D01*
X0047315Y0204032D01*
X0047365Y0204111D01*
X0047419Y0204187D01*
X0047477Y0204261D01*
X0047537Y0204332D01*
X0047600Y0204401D01*
X0047666Y0204467D01*
X0047735Y0204530D01*
X0047806Y0204590D01*
X0047880Y0204648D01*
X0047956Y0204702D01*
X0048035Y0204752D01*
X0048116Y0204800D01*
X0048198Y0204843D01*
X0048282Y0204884D01*
X0048368Y0204920D01*
X0048456Y0204953D01*
X0048544Y0204983D01*
X0048634Y0205008D01*
X0048725Y0205030D01*
X0048817Y0205047D01*
X0048909Y0205061D01*
X0049002Y0205071D01*
X0049096Y0205077D01*
X0049189Y0205079D01*
X0049282Y0205077D01*
X0049376Y0205071D01*
X0049469Y0205061D01*
X0049561Y0205047D01*
X0049653Y0205030D01*
X0049744Y0205008D01*
X0049834Y0204983D01*
X0049922Y0204953D01*
X0050010Y0204920D01*
X0050096Y0204884D01*
X0050180Y0204843D01*
X0050262Y0204800D01*
X0050343Y0204752D01*
X0050422Y0204702D01*
X0050498Y0204648D01*
X0050572Y0204590D01*
X0050643Y0204530D01*
X0050712Y0204467D01*
X0050778Y0204401D01*
X0050841Y0204332D01*
X0050901Y0204261D01*
X0050959Y0204187D01*
X0051013Y0204111D01*
X0051063Y0204032D01*
X0051111Y0203951D01*
X0051154Y0203869D01*
X0051195Y0203785D01*
X0051231Y0203699D01*
X0051264Y0203611D01*
X0051294Y0203523D01*
X0051319Y0203433D01*
X0051341Y0203342D01*
X0051358Y0203250D01*
X0051372Y0203158D01*
X0051382Y0203065D01*
X0051388Y0202971D01*
X0051390Y0202878D01*
X0051388Y0202785D01*
X0051382Y0202691D01*
X0051372Y0202598D01*
X0051358Y0202506D01*
X0051341Y0202414D01*
X0051319Y0202323D01*
X0051294Y0202233D01*
X0051264Y0202145D01*
X0051231Y0202057D01*
X0051195Y0201971D01*
X0051154Y0201887D01*
X0051111Y0201805D01*
X0051063Y0201724D01*
X0051013Y0201645D01*
X0050959Y0201569D01*
X0050901Y0201495D01*
X0050841Y0201424D01*
X0050778Y0201355D01*
X0050712Y0201289D01*
X0050643Y0201226D01*
X0050572Y0201166D01*
X0050498Y0201108D01*
X0050422Y0201054D01*
X0050343Y0201004D01*
X0050262Y0200956D01*
X0050180Y0200913D01*
X0050096Y0200872D01*
X0050010Y0200836D01*
X0049922Y0200803D01*
X0049834Y0200773D01*
X0049744Y0200748D01*
X0049653Y0200726D01*
X0049561Y0200709D01*
X0049469Y0200695D01*
X0049376Y0200685D01*
X0049282Y0200679D01*
X0049189Y0200677D01*
X0049096Y0200679D01*
X0049002Y0200685D01*
X0048909Y0200695D01*
X0048817Y0200709D01*
X0048725Y0200726D01*
X0048634Y0200748D01*
X0048544Y0200773D01*
X0048456Y0200803D01*
X0048368Y0200836D01*
X0048282Y0200872D01*
X0048198Y0200913D01*
X0048116Y0200956D01*
X0048035Y0201004D01*
X0047956Y0201054D01*
X0047880Y0201108D01*
X0047806Y0201166D01*
X0047735Y0201226D01*
X0047666Y0201289D01*
X0047600Y0201355D01*
X0047537Y0201424D01*
X0047477Y0201495D01*
X0047419Y0201569D01*
X0047365Y0201645D01*
X0047315Y0201724D01*
X0047267Y0201805D01*
X0047224Y0201887D01*
X0047183Y0201971D01*
X0047147Y0202057D01*
X0047114Y0202145D01*
X0047084Y0202233D01*
X0047059Y0202323D01*
X0047037Y0202414D01*
X0047020Y0202506D01*
X0047006Y0202598D01*
X0046996Y0202691D01*
X0046990Y0202785D01*
X0046988Y0202878D01*
X0051068Y0185153D02*
X0052769Y0185153D01*
X0053336Y0184586D01*
X0053336Y0183451D01*
X0052769Y0182884D01*
X0051068Y0182884D01*
X0051068Y0181750D02*
X0051068Y0185153D01*
X0052202Y0182884D02*
X0053336Y0181750D01*
X0054659Y0181750D02*
X0056928Y0181750D01*
X0055793Y0181750D02*
X0055793Y0185153D01*
X0054659Y0184019D01*
X0061475Y0184019D02*
X0062610Y0185153D01*
X0062610Y0181750D01*
X0063744Y0181750D02*
X0061475Y0181750D01*
X0065066Y0182317D02*
X0067335Y0184586D01*
X0067335Y0182317D01*
X0066768Y0181750D01*
X0065634Y0181750D01*
X0065066Y0182317D01*
X0065066Y0184586D01*
X0065634Y0185153D01*
X0066768Y0185153D01*
X0067335Y0184586D01*
X0068657Y0185153D02*
X0068657Y0181750D01*
X0068657Y0182884D02*
X0070359Y0181750D01*
X0068657Y0182884D02*
X0070359Y0184019D01*
X0090999Y0223750D02*
X0090999Y0224501D01*
X0091750Y0224501D01*
X0091750Y0223750D01*
X0090999Y0223750D01*
X0091750Y0226052D02*
X0091750Y0229055D01*
X0091750Y0227553D02*
X0087246Y0227553D01*
X0088747Y0226052D01*
X0088747Y0230656D02*
X0090999Y0230656D01*
X0091750Y0231407D01*
X0091750Y0233658D01*
X0088747Y0233658D01*
X0103246Y0238370D02*
X0107750Y0238370D01*
X0107750Y0236869D02*
X0107750Y0239871D01*
X0106999Y0241473D02*
X0106249Y0241473D01*
X0105498Y0242223D01*
X0105498Y0243725D01*
X0106249Y0244475D01*
X0106999Y0244475D01*
X0107750Y0243725D01*
X0107750Y0242223D01*
X0106999Y0241473D01*
X0105498Y0242223D02*
X0104747Y0241473D01*
X0103997Y0241473D01*
X0103246Y0242223D01*
X0103246Y0243725D01*
X0103997Y0244475D01*
X0104747Y0244475D01*
X0105498Y0243725D01*
X0104747Y0246077D02*
X0104747Y0248329D01*
X0105498Y0249079D01*
X0106999Y0249079D01*
X0107750Y0248329D01*
X0107750Y0246077D01*
X0109251Y0246077D02*
X0104747Y0246077D01*
X0105498Y0250681D02*
X0105498Y0252182D01*
X0103997Y0251431D02*
X0103246Y0252182D01*
X0103997Y0251431D02*
X0107750Y0251431D01*
X0103246Y0238370D02*
X0104747Y0236869D01*
X0105998Y0231149D02*
X0105998Y0228146D01*
X0103746Y0230398D01*
X0108250Y0230398D01*
X0107499Y0226545D02*
X0108250Y0225794D01*
X0108250Y0224293D01*
X0107499Y0223542D01*
X0104497Y0223542D01*
X0103746Y0224293D01*
X0103746Y0225794D01*
X0104497Y0226545D01*
X0080685Y0254059D02*
X0064937Y0254059D01*
X0041315Y0254059D01*
X0172250Y0237003D02*
X0172250Y0234001D01*
X0173001Y0233250D01*
X0174502Y0233250D01*
X0175253Y0234001D01*
X0176854Y0234001D02*
X0176854Y0233250D01*
X0176854Y0234001D02*
X0179856Y0237003D01*
X0179856Y0237754D01*
X0176854Y0237754D01*
X0175253Y0237003D02*
X0174502Y0237754D01*
X0173001Y0237754D01*
X0172250Y0237003D01*
X0176053Y0218254D02*
X0176053Y0213750D01*
X0174552Y0213750D02*
X0177555Y0213750D01*
X0179156Y0214501D02*
X0179907Y0213750D01*
X0182158Y0213750D01*
X0182158Y0216753D01*
X0179156Y0216753D02*
X0179156Y0214501D01*
X0176053Y0218254D02*
X0174552Y0216753D01*
X0173001Y0214501D02*
X0173001Y0213750D01*
X0172250Y0213750D01*
X0172250Y0214501D01*
X0173001Y0214501D01*
X0170750Y0200358D02*
X0170752Y0200432D01*
X0170758Y0200506D01*
X0170768Y0200579D01*
X0170781Y0200652D01*
X0170799Y0200724D01*
X0170820Y0200795D01*
X0170846Y0200865D01*
X0170874Y0200933D01*
X0170907Y0201000D01*
X0170943Y0201065D01*
X0170982Y0201127D01*
X0171025Y0201188D01*
X0171070Y0201246D01*
X0171119Y0201302D01*
X0171171Y0201355D01*
X0171225Y0201406D01*
X0171282Y0201453D01*
X0171342Y0201497D01*
X0171404Y0201538D01*
X0171468Y0201576D01*
X0171533Y0201610D01*
X0171601Y0201640D01*
X0171670Y0201667D01*
X0171740Y0201691D01*
X0171812Y0201710D01*
X0171884Y0201726D01*
X0171957Y0201738D01*
X0172031Y0201746D01*
X0172105Y0201750D01*
X0172179Y0201750D01*
X0172253Y0201746D01*
X0172327Y0201738D01*
X0172400Y0201726D01*
X0172472Y0201710D01*
X0172544Y0201691D01*
X0172614Y0201667D01*
X0172683Y0201640D01*
X0172751Y0201610D01*
X0172816Y0201576D01*
X0172880Y0201538D01*
X0172942Y0201497D01*
X0173002Y0201453D01*
X0173059Y0201406D01*
X0173113Y0201355D01*
X0173165Y0201302D01*
X0173214Y0201246D01*
X0173259Y0201188D01*
X0173302Y0201127D01*
X0173341Y0201065D01*
X0173377Y0201000D01*
X0173410Y0200933D01*
X0173438Y0200865D01*
X0173464Y0200795D01*
X0173485Y0200724D01*
X0173503Y0200652D01*
X0173516Y0200579D01*
X0173526Y0200506D01*
X0173532Y0200432D01*
X0173534Y0200358D01*
X0173532Y0200284D01*
X0173526Y0200210D01*
X0173516Y0200137D01*
X0173503Y0200064D01*
X0173485Y0199992D01*
X0173464Y0199921D01*
X0173438Y0199851D01*
X0173410Y0199783D01*
X0173377Y0199716D01*
X0173341Y0199651D01*
X0173302Y0199589D01*
X0173259Y0199528D01*
X0173214Y0199470D01*
X0173165Y0199414D01*
X0173113Y0199361D01*
X0173059Y0199310D01*
X0173002Y0199263D01*
X0172942Y0199219D01*
X0172880Y0199178D01*
X0172816Y0199140D01*
X0172751Y0199106D01*
X0172683Y0199076D01*
X0172614Y0199049D01*
X0172544Y0199025D01*
X0172472Y0199006D01*
X0172400Y0198990D01*
X0172327Y0198978D01*
X0172253Y0198970D01*
X0172179Y0198966D01*
X0172105Y0198966D01*
X0172031Y0198970D01*
X0171957Y0198978D01*
X0171884Y0198990D01*
X0171812Y0199006D01*
X0171740Y0199025D01*
X0171670Y0199049D01*
X0171601Y0199076D01*
X0171533Y0199106D01*
X0171468Y0199140D01*
X0171404Y0199178D01*
X0171342Y0199219D01*
X0171282Y0199263D01*
X0171225Y0199310D01*
X0171171Y0199361D01*
X0171119Y0199414D01*
X0171070Y0199470D01*
X0171025Y0199528D01*
X0170982Y0199589D01*
X0170943Y0199651D01*
X0170907Y0199716D01*
X0170874Y0199783D01*
X0170846Y0199851D01*
X0170820Y0199921D01*
X0170799Y0199992D01*
X0170781Y0200064D01*
X0170768Y0200137D01*
X0170758Y0200210D01*
X0170752Y0200284D01*
X0170750Y0200358D01*
X0204747Y0193149D02*
X0207750Y0193149D01*
X0207750Y0190897D01*
X0206999Y0190146D01*
X0204747Y0190146D01*
X0207750Y0188545D02*
X0207750Y0185542D01*
X0207750Y0187043D02*
X0203246Y0187043D01*
X0204747Y0185542D01*
X0206999Y0183991D02*
X0207750Y0183991D01*
X0207750Y0183240D01*
X0206999Y0183240D01*
X0206999Y0183991D01*
X0222746Y0188689D02*
X0223497Y0187938D01*
X0226499Y0187938D01*
X0227250Y0188689D01*
X0227250Y0190190D01*
X0226499Y0190941D01*
X0227250Y0192542D02*
X0227250Y0195545D01*
X0227250Y0194043D02*
X0222746Y0194043D01*
X0224247Y0192542D01*
X0223497Y0190941D02*
X0222746Y0190190D01*
X0222746Y0188689D01*
X0223497Y0197146D02*
X0222746Y0197897D01*
X0222746Y0199398D01*
X0223497Y0200149D01*
X0226499Y0197146D01*
X0227250Y0197897D01*
X0227250Y0199398D01*
X0226499Y0200149D01*
X0223497Y0200149D01*
X0223497Y0197146D02*
X0226499Y0197146D01*
X0231497Y0221938D02*
X0234499Y0221938D01*
X0235250Y0222689D01*
X0235250Y0224190D01*
X0234499Y0224941D01*
X0235250Y0226542D02*
X0235250Y0229545D01*
X0235250Y0228043D02*
X0230746Y0228043D01*
X0232247Y0226542D01*
X0231497Y0224941D02*
X0230746Y0224190D01*
X0230746Y0222689D01*
X0231497Y0221938D01*
X0232247Y0231146D02*
X0230746Y0232647D01*
X0235250Y0232647D01*
X0235250Y0231146D02*
X0235250Y0234149D01*
X0215750Y0234149D02*
X0215750Y0231897D01*
X0214999Y0231146D01*
X0212747Y0231146D01*
X0212747Y0234149D02*
X0215750Y0234149D01*
X0215750Y0229545D02*
X0215750Y0226542D01*
X0215750Y0228043D02*
X0211246Y0228043D01*
X0212747Y0226542D01*
X0214999Y0224991D02*
X0215750Y0224991D01*
X0215750Y0224240D01*
X0214999Y0224240D01*
X0214999Y0224991D01*
X0242046Y0168159D02*
X0246550Y0168159D01*
X0246550Y0166658D02*
X0246550Y0169660D01*
X0243547Y0166658D02*
X0242046Y0168159D01*
X0242797Y0165056D02*
X0242046Y0164306D01*
X0242046Y0162054D01*
X0246550Y0162054D01*
X0245049Y0162054D02*
X0245049Y0164306D01*
X0244298Y0165056D01*
X0242797Y0165056D01*
X0242046Y0160453D02*
X0242046Y0158951D01*
X0242046Y0159702D02*
X0245799Y0159702D01*
X0246550Y0158951D01*
X0246550Y0158201D01*
X0245799Y0157450D01*
X0221262Y0151753D02*
X0221262Y0148750D01*
X0219010Y0148750D01*
X0218260Y0149501D01*
X0218260Y0151753D01*
X0216658Y0152503D02*
X0213656Y0149501D01*
X0213656Y0148750D01*
X0212105Y0148750D02*
X0211354Y0148750D01*
X0211354Y0149501D01*
X0212105Y0149501D01*
X0212105Y0148750D01*
X0209002Y0148750D02*
X0209002Y0153254D01*
X0206750Y0151002D01*
X0209753Y0151002D01*
X0210105Y0153750D02*
X0211606Y0153750D01*
X0212356Y0154501D01*
X0212356Y0157503D01*
X0211606Y0158254D01*
X0210105Y0158254D01*
X0209354Y0157503D01*
X0209354Y0156753D01*
X0210105Y0156002D01*
X0212356Y0156002D01*
X0213656Y0153254D02*
X0216658Y0153254D01*
X0216658Y0152503D01*
X0210105Y0153750D02*
X0209354Y0154501D01*
X0207753Y0154501D02*
X0207002Y0153750D01*
X0205501Y0153750D01*
X0204750Y0154501D01*
X0204750Y0157503D01*
X0205501Y0158254D01*
X0207002Y0158254D01*
X0207753Y0157503D01*
X0239747Y0134658D02*
X0242750Y0134658D01*
X0242750Y0132407D01*
X0241999Y0131656D01*
X0239747Y0131656D01*
X0242750Y0130055D02*
X0242750Y0127052D01*
X0242750Y0128553D02*
X0238246Y0128553D01*
X0239747Y0127052D01*
X0241999Y0125501D02*
X0242750Y0125501D01*
X0242750Y0124750D01*
X0241999Y0124750D01*
X0241999Y0125501D01*
X0225149Y0116503D02*
X0224398Y0117254D01*
X0222897Y0117254D01*
X0222146Y0116503D01*
X0225149Y0116503D02*
X0225149Y0115753D01*
X0222146Y0112750D01*
X0225149Y0112750D01*
X0242542Y0096753D02*
X0244043Y0098254D01*
X0244043Y0093750D01*
X0242542Y0093750D02*
X0245545Y0093750D01*
X0247146Y0094501D02*
X0247897Y0093750D01*
X0250149Y0093750D01*
X0250149Y0096753D01*
X0247146Y0096753D02*
X0247146Y0094501D01*
X0294250Y0103750D02*
X0296502Y0103750D01*
X0297253Y0104501D01*
X0297253Y0107503D01*
X0296502Y0108254D01*
X0294250Y0108254D01*
X0294250Y0103750D01*
X0298854Y0103750D02*
X0301856Y0103750D01*
X0300355Y0103750D02*
X0300355Y0108254D01*
X0298854Y0106753D01*
X0298854Y0113750D02*
X0301856Y0116753D01*
X0301856Y0117503D01*
X0301106Y0118254D01*
X0299605Y0118254D01*
X0298854Y0117503D01*
X0297253Y0117503D02*
X0296502Y0118254D01*
X0294250Y0118254D01*
X0294250Y0113750D01*
X0296502Y0113750D01*
X0297253Y0114501D01*
X0297253Y0117503D01*
X0298854Y0113750D02*
X0301856Y0113750D01*
X0375961Y0170476D02*
X0396039Y0170476D01*
X0396039Y0192524D01*
X0375961Y0192524D01*
X0375961Y0170476D01*
X0398126Y0173626D02*
X0413874Y0173626D01*
X0413874Y0189374D01*
X0398126Y0189374D01*
X0398126Y0173626D01*
X0399144Y0175201D02*
X0399146Y0175248D01*
X0399152Y0175294D01*
X0399161Y0175340D01*
X0399175Y0175384D01*
X0399192Y0175428D01*
X0399213Y0175469D01*
X0399237Y0175509D01*
X0399264Y0175547D01*
X0399295Y0175582D01*
X0399328Y0175615D01*
X0399364Y0175645D01*
X0399403Y0175671D01*
X0399443Y0175695D01*
X0399485Y0175714D01*
X0399529Y0175731D01*
X0399574Y0175743D01*
X0399620Y0175752D01*
X0399666Y0175757D01*
X0399713Y0175758D01*
X0399759Y0175755D01*
X0399805Y0175748D01*
X0399851Y0175737D01*
X0399895Y0175723D01*
X0399938Y0175705D01*
X0399979Y0175683D01*
X0400019Y0175658D01*
X0400056Y0175630D01*
X0400091Y0175599D01*
X0400123Y0175565D01*
X0400152Y0175528D01*
X0400177Y0175490D01*
X0400200Y0175449D01*
X0400219Y0175406D01*
X0400234Y0175362D01*
X0400246Y0175317D01*
X0400254Y0175271D01*
X0400258Y0175224D01*
X0400258Y0175178D01*
X0400254Y0175131D01*
X0400246Y0175085D01*
X0400234Y0175040D01*
X0400219Y0174996D01*
X0400200Y0174953D01*
X0400177Y0174912D01*
X0400152Y0174874D01*
X0400123Y0174837D01*
X0400091Y0174803D01*
X0400056Y0174772D01*
X0400019Y0174744D01*
X0399980Y0174719D01*
X0399938Y0174697D01*
X0399895Y0174679D01*
X0399851Y0174665D01*
X0399805Y0174654D01*
X0399759Y0174647D01*
X0399713Y0174644D01*
X0399666Y0174645D01*
X0399620Y0174650D01*
X0399574Y0174659D01*
X0399529Y0174671D01*
X0399485Y0174688D01*
X0399443Y0174707D01*
X0399403Y0174731D01*
X0399364Y0174757D01*
X0399328Y0174787D01*
X0399295Y0174820D01*
X0399264Y0174855D01*
X0399237Y0174893D01*
X0399213Y0174933D01*
X0399192Y0174974D01*
X0399175Y0175018D01*
X0399161Y0175062D01*
X0399152Y0175108D01*
X0399146Y0175154D01*
X0399144Y0175201D01*
X0410746Y0174002D02*
X0410746Y0172501D01*
X0411497Y0171750D01*
X0414499Y0171750D01*
X0415250Y0172501D01*
X0415250Y0174002D01*
X0414499Y0174753D01*
X0415250Y0176354D02*
X0415250Y0179356D01*
X0415250Y0177855D02*
X0410746Y0177855D01*
X0412247Y0176354D01*
X0411497Y0174753D02*
X0410746Y0174002D01*
X0410746Y0180958D02*
X0410746Y0183960D01*
X0411497Y0183960D01*
X0414499Y0180958D01*
X0415250Y0180958D01*
X0425246Y0182043D02*
X0426747Y0180542D01*
X0425246Y0182043D02*
X0429750Y0182043D01*
X0429750Y0180542D02*
X0429750Y0183545D01*
X0428999Y0185146D02*
X0426747Y0185146D01*
X0428999Y0185146D02*
X0429750Y0185897D01*
X0429750Y0188149D01*
X0426747Y0188149D01*
X0428999Y0178991D02*
X0429750Y0178991D01*
X0429750Y0178240D01*
X0428999Y0178240D01*
X0428999Y0178991D01*
X0444746Y0178043D02*
X0449250Y0178043D01*
X0449250Y0176542D02*
X0449250Y0179545D01*
X0448499Y0181146D02*
X0449250Y0181897D01*
X0449250Y0183398D01*
X0448499Y0184149D01*
X0445497Y0184149D01*
X0444746Y0183398D01*
X0444746Y0181897D01*
X0445497Y0181146D01*
X0446247Y0181146D01*
X0446998Y0181897D01*
X0446998Y0184149D01*
X0452747Y0180658D02*
X0455750Y0180658D01*
X0455750Y0178407D01*
X0454999Y0177656D01*
X0452747Y0177656D01*
X0455750Y0176055D02*
X0455750Y0173052D01*
X0455750Y0174553D02*
X0451246Y0174553D01*
X0452747Y0173052D01*
X0454999Y0171501D02*
X0455750Y0171501D01*
X0455750Y0170750D01*
X0454999Y0170750D01*
X0454999Y0171501D01*
X0449250Y0172689D02*
X0449250Y0174190D01*
X0448499Y0174941D01*
X0449250Y0172689D02*
X0448499Y0171938D01*
X0445497Y0171938D01*
X0444746Y0172689D01*
X0444746Y0174190D01*
X0445497Y0174941D01*
X0446247Y0176542D02*
X0444746Y0178043D01*
X0445110Y0161253D02*
X0442841Y0161253D01*
X0441519Y0160686D02*
X0441519Y0159551D01*
X0440951Y0158984D01*
X0439250Y0158984D01*
X0439250Y0157850D02*
X0439250Y0161253D01*
X0440951Y0161253D01*
X0441519Y0160686D01*
X0440384Y0158984D02*
X0441519Y0157850D01*
X0442841Y0157850D02*
X0442841Y0158417D01*
X0445110Y0160686D01*
X0445110Y0161253D01*
X0445634Y0153153D02*
X0446768Y0153153D01*
X0447335Y0152586D01*
X0445066Y0150317D01*
X0445634Y0149750D01*
X0446768Y0149750D01*
X0447335Y0150317D01*
X0447335Y0152586D01*
X0448657Y0153153D02*
X0448657Y0149750D01*
X0448657Y0150884D02*
X0450359Y0152019D01*
X0448657Y0150884D02*
X0450359Y0149750D01*
X0445066Y0150317D02*
X0445066Y0152586D01*
X0445634Y0153153D01*
X0442610Y0153153D02*
X0442610Y0149750D01*
X0443744Y0149750D02*
X0441475Y0149750D01*
X0441475Y0152019D02*
X0442610Y0153153D01*
X0443997Y0139149D02*
X0446999Y0136146D01*
X0447750Y0136897D01*
X0447750Y0138398D01*
X0446999Y0139149D01*
X0443997Y0139149D01*
X0443246Y0138398D01*
X0443246Y0136897D01*
X0443997Y0136146D01*
X0446999Y0136146D01*
X0445498Y0134545D02*
X0445498Y0131542D01*
X0443246Y0133794D01*
X0447750Y0133794D01*
X0442500Y0134746D02*
X0442500Y0118254D01*
X0443246Y0117730D02*
X0443246Y0119982D01*
X0443997Y0120733D01*
X0445498Y0120733D01*
X0446249Y0119982D01*
X0446249Y0117730D01*
X0447750Y0117730D02*
X0443246Y0117730D01*
X0443246Y0116162D02*
X0443246Y0114661D01*
X0443246Y0115412D02*
X0447750Y0115412D01*
X0447750Y0116162D02*
X0447750Y0114661D01*
X0446249Y0119232D02*
X0447750Y0120733D01*
X0447750Y0122334D02*
X0443246Y0122334D01*
X0443246Y0125337D01*
X0443246Y0126938D02*
X0445498Y0126938D01*
X0444747Y0128439D01*
X0444747Y0129190D01*
X0445498Y0129941D01*
X0446999Y0129941D01*
X0447750Y0129190D01*
X0447750Y0127689D01*
X0446999Y0126938D01*
X0445498Y0123836D02*
X0445498Y0122334D01*
X0443246Y0126938D02*
X0443246Y0129941D01*
X0437000Y0127627D02*
X0437000Y0125373D01*
X0442500Y0118254D02*
X0442301Y0118101D01*
X0442099Y0117953D01*
X0441894Y0117810D01*
X0441685Y0117672D01*
X0441473Y0117539D01*
X0441258Y0117411D01*
X0441040Y0117289D01*
X0440819Y0117171D01*
X0440595Y0117059D01*
X0440369Y0116952D01*
X0440140Y0116851D01*
X0439909Y0116755D01*
X0439675Y0116664D01*
X0439440Y0116579D01*
X0439202Y0116500D01*
X0438963Y0116427D01*
X0438722Y0116359D01*
X0438480Y0116297D01*
X0438236Y0116241D01*
X0437990Y0116190D01*
X0437744Y0116146D01*
X0437497Y0116107D01*
X0437249Y0116075D01*
X0437000Y0116048D01*
X0437000Y0117627D01*
X0422750Y0117854D02*
X0418246Y0117854D01*
X0422750Y0120856D01*
X0418246Y0120856D01*
X0418997Y0122458D02*
X0418246Y0123208D01*
X0418246Y0124710D01*
X0418997Y0125460D01*
X0419747Y0125460D01*
X0420498Y0124710D01*
X0421249Y0125460D01*
X0421999Y0125460D01*
X0422750Y0124710D01*
X0422750Y0123208D01*
X0421999Y0122458D01*
X0420498Y0123959D02*
X0420498Y0124710D01*
X0419747Y0127062D02*
X0420498Y0127812D01*
X0420498Y0130064D01*
X0418997Y0130064D02*
X0418246Y0129314D01*
X0418246Y0127812D01*
X0418997Y0127062D01*
X0419747Y0127062D01*
X0421999Y0127062D02*
X0422750Y0127812D01*
X0422750Y0129314D01*
X0421999Y0130064D01*
X0418997Y0130064D01*
X0418997Y0131666D02*
X0418246Y0132416D01*
X0418246Y0133918D01*
X0418997Y0134668D01*
X0421999Y0131666D01*
X0422750Y0132416D01*
X0422750Y0133918D01*
X0421999Y0134668D01*
X0418997Y0134668D01*
X0420498Y0136270D02*
X0420498Y0139272D01*
X0418246Y0138522D02*
X0420498Y0136270D01*
X0422750Y0138522D02*
X0418246Y0138522D01*
X0418997Y0131666D02*
X0421999Y0131666D01*
X0425967Y0123404D02*
X0426045Y0123160D01*
X0426130Y0122918D01*
X0426220Y0122679D01*
X0426316Y0122441D01*
X0426418Y0122206D01*
X0426526Y0121973D01*
X0426639Y0121743D01*
X0426758Y0121516D01*
X0426882Y0121292D01*
X0427012Y0121071D01*
X0427147Y0120854D01*
X0427288Y0120639D01*
X0427434Y0120428D01*
X0427584Y0120221D01*
X0427740Y0120018D01*
X0427901Y0119818D01*
X0428066Y0119622D01*
X0428236Y0119431D01*
X0428411Y0119243D01*
X0428591Y0119060D01*
X0428774Y0118882D01*
X0428963Y0118707D01*
X0429155Y0118538D01*
X0429351Y0118373D01*
X0429552Y0118213D01*
X0429756Y0118059D01*
X0429964Y0117909D01*
X0430175Y0117764D01*
X0430390Y0117624D01*
X0430608Y0117490D01*
X0430830Y0117361D01*
X0431054Y0117238D01*
X0431282Y0117120D01*
X0431512Y0117007D01*
X0431745Y0116901D01*
X0431981Y0116800D01*
X0432219Y0116704D01*
X0432459Y0116615D01*
X0432701Y0116532D01*
X0432946Y0116454D01*
X0433192Y0116383D01*
X0433440Y0116317D01*
X0433689Y0116258D01*
X0433939Y0116204D01*
X0434191Y0116157D01*
X0434444Y0116116D01*
X0434698Y0116081D01*
X0434953Y0116052D01*
X0435208Y0116030D01*
X0435464Y0116014D01*
X0435720Y0116004D01*
X0435976Y0116000D01*
X0436233Y0116003D01*
X0436489Y0116011D01*
X0436745Y0116026D01*
X0437000Y0116048D01*
X0422750Y0116253D02*
X0422750Y0113250D01*
X0419747Y0116253D01*
X0418997Y0116253D01*
X0418246Y0115502D01*
X0418246Y0114001D01*
X0418997Y0113250D01*
X0436250Y0105253D02*
X0438519Y0105253D01*
X0439841Y0105253D02*
X0439841Y0102417D01*
X0440408Y0101850D01*
X0441543Y0101850D01*
X0442110Y0102417D01*
X0442110Y0105253D01*
X0443432Y0104686D02*
X0443432Y0104119D01*
X0443999Y0103551D01*
X0445134Y0103551D01*
X0445701Y0102984D01*
X0445701Y0102417D01*
X0445134Y0101850D01*
X0443999Y0101850D01*
X0443432Y0102417D01*
X0443432Y0104686D02*
X0443999Y0105253D01*
X0445134Y0105253D01*
X0445701Y0104686D01*
X0447023Y0105253D02*
X0447023Y0101850D01*
X0449292Y0101850D01*
X0448158Y0103551D02*
X0447023Y0103551D01*
X0447023Y0105253D02*
X0449292Y0105253D01*
X0448734Y0098253D02*
X0447599Y0098253D01*
X0447032Y0097686D01*
X0447032Y0097119D01*
X0447599Y0096551D01*
X0448734Y0096551D01*
X0449301Y0095984D01*
X0449301Y0095417D01*
X0448734Y0094850D01*
X0447599Y0094850D01*
X0447032Y0095417D01*
X0445710Y0095417D02*
X0445710Y0098253D01*
X0443441Y0098253D02*
X0443441Y0095417D01*
X0444008Y0094850D01*
X0445143Y0094850D01*
X0445710Y0095417D01*
X0448734Y0098253D02*
X0449301Y0097686D01*
X0450623Y0098253D02*
X0450623Y0094850D01*
X0452892Y0094850D01*
X0451758Y0096551D02*
X0450623Y0096551D01*
X0450623Y0098253D02*
X0452892Y0098253D01*
X0442119Y0098253D02*
X0439850Y0098253D01*
X0439850Y0094850D01*
X0439850Y0096551D02*
X0440984Y0096551D01*
X0442110Y0090253D02*
X0440975Y0089686D01*
X0439841Y0088551D01*
X0441543Y0088551D01*
X0442110Y0087984D01*
X0442110Y0087417D01*
X0441543Y0086850D01*
X0440408Y0086850D01*
X0439841Y0087417D01*
X0439841Y0088551D01*
X0438519Y0088551D02*
X0437951Y0087984D01*
X0436250Y0087984D01*
X0436250Y0086850D02*
X0436250Y0090253D01*
X0437951Y0090253D01*
X0438519Y0089686D01*
X0438519Y0088551D01*
X0437384Y0087984D02*
X0438519Y0086850D01*
X0440984Y0083253D02*
X0440984Y0079850D01*
X0439850Y0079850D02*
X0442119Y0079850D01*
X0443441Y0080417D02*
X0445710Y0082686D01*
X0445710Y0080417D01*
X0445143Y0079850D01*
X0444008Y0079850D01*
X0443441Y0080417D01*
X0443441Y0082686D01*
X0444008Y0083253D01*
X0445143Y0083253D01*
X0445710Y0082686D01*
X0447032Y0083253D02*
X0447032Y0079850D01*
X0447032Y0080984D02*
X0448734Y0082119D01*
X0447032Y0080984D02*
X0448734Y0079850D01*
X0440984Y0083253D02*
X0439850Y0082119D01*
X0443997Y0064149D02*
X0446999Y0061146D01*
X0447750Y0061897D01*
X0447750Y0063398D01*
X0446999Y0064149D01*
X0443997Y0064149D01*
X0443246Y0063398D01*
X0443246Y0061897D01*
X0443997Y0061146D01*
X0446999Y0061146D01*
X0445498Y0059545D02*
X0445498Y0056542D01*
X0443246Y0058794D01*
X0447750Y0058794D01*
X0446999Y0054941D02*
X0447750Y0054190D01*
X0447750Y0052689D01*
X0446999Y0051938D01*
X0445498Y0051938D02*
X0444747Y0053439D01*
X0444747Y0054190D01*
X0445498Y0054941D01*
X0446999Y0054941D01*
X0445498Y0051938D02*
X0443246Y0051938D01*
X0443246Y0054941D01*
X0442500Y0059746D02*
X0442500Y0043254D01*
X0443246Y0042730D02*
X0443246Y0044982D01*
X0443997Y0045733D01*
X0445498Y0045733D01*
X0446249Y0044982D01*
X0446249Y0042730D01*
X0447750Y0042730D02*
X0443246Y0042730D01*
X0443246Y0041162D02*
X0443246Y0039661D01*
X0443246Y0040412D02*
X0447750Y0040412D01*
X0447750Y0041162D02*
X0447750Y0039661D01*
X0446249Y0044232D02*
X0447750Y0045733D01*
X0447750Y0047334D02*
X0443246Y0047334D01*
X0443246Y0050337D01*
X0445498Y0048836D02*
X0445498Y0047334D01*
X0437000Y0050373D02*
X0437000Y0052627D01*
X0442500Y0043254D02*
X0442301Y0043101D01*
X0442099Y0042953D01*
X0441894Y0042810D01*
X0441685Y0042672D01*
X0441473Y0042539D01*
X0441258Y0042411D01*
X0441040Y0042289D01*
X0440819Y0042171D01*
X0440595Y0042059D01*
X0440369Y0041952D01*
X0440140Y0041851D01*
X0439909Y0041755D01*
X0439675Y0041664D01*
X0439440Y0041579D01*
X0439202Y0041500D01*
X0438963Y0041427D01*
X0438722Y0041359D01*
X0438480Y0041297D01*
X0438236Y0041241D01*
X0437990Y0041190D01*
X0437744Y0041146D01*
X0437497Y0041107D01*
X0437249Y0041075D01*
X0437000Y0041048D01*
X0437000Y0042627D01*
X0437000Y0041048D02*
X0436745Y0041026D01*
X0436489Y0041011D01*
X0436233Y0041003D01*
X0435976Y0041000D01*
X0435720Y0041004D01*
X0435464Y0041014D01*
X0435208Y0041030D01*
X0434953Y0041052D01*
X0434698Y0041081D01*
X0434444Y0041116D01*
X0434191Y0041157D01*
X0433939Y0041204D01*
X0433689Y0041258D01*
X0433440Y0041317D01*
X0433192Y0041383D01*
X0432946Y0041454D01*
X0432701Y0041532D01*
X0432459Y0041615D01*
X0432219Y0041704D01*
X0431981Y0041800D01*
X0431745Y0041901D01*
X0431512Y0042007D01*
X0431282Y0042120D01*
X0431054Y0042238D01*
X0430830Y0042361D01*
X0430608Y0042490D01*
X0430390Y0042624D01*
X0430175Y0042764D01*
X0429964Y0042909D01*
X0429756Y0043059D01*
X0429552Y0043213D01*
X0429351Y0043373D01*
X0429155Y0043538D01*
X0428963Y0043707D01*
X0428774Y0043882D01*
X0428591Y0044060D01*
X0428411Y0044243D01*
X0428236Y0044431D01*
X0428066Y0044622D01*
X0427901Y0044818D01*
X0427740Y0045018D01*
X0427584Y0045221D01*
X0427434Y0045428D01*
X0427288Y0045639D01*
X0427147Y0045854D01*
X0427012Y0046071D01*
X0426882Y0046292D01*
X0426758Y0046516D01*
X0426639Y0046743D01*
X0426526Y0046973D01*
X0426418Y0047206D01*
X0426316Y0047441D01*
X0426220Y0047679D01*
X0426130Y0047918D01*
X0426045Y0048160D01*
X0425967Y0048404D01*
X0422750Y0049208D02*
X0421999Y0048458D01*
X0422750Y0049208D02*
X0422750Y0050710D01*
X0421999Y0051460D01*
X0421249Y0051460D01*
X0420498Y0050710D01*
X0420498Y0049959D01*
X0420498Y0050710D02*
X0419747Y0051460D01*
X0418997Y0051460D01*
X0418246Y0050710D01*
X0418246Y0049208D01*
X0418997Y0048458D01*
X0418246Y0046856D02*
X0422750Y0046856D01*
X0418246Y0043854D01*
X0422750Y0043854D01*
X0422750Y0042253D02*
X0422750Y0039250D01*
X0419747Y0042253D01*
X0418997Y0042253D01*
X0418246Y0041502D01*
X0418246Y0040001D01*
X0418997Y0039250D01*
X0425967Y0054596D02*
X0426045Y0054838D01*
X0426129Y0055078D01*
X0426218Y0055316D01*
X0426313Y0055552D01*
X0426415Y0055786D01*
X0426521Y0056017D01*
X0426634Y0056245D01*
X0426751Y0056471D01*
X0426874Y0056694D01*
X0427003Y0056913D01*
X0427137Y0057130D01*
X0427276Y0057343D01*
X0427420Y0057553D01*
X0427569Y0057759D01*
X0427723Y0057961D01*
X0427882Y0058160D01*
X0428046Y0058355D01*
X0428215Y0058546D01*
X0428388Y0058732D01*
X0428565Y0058915D01*
X0428747Y0059093D01*
X0428933Y0059266D01*
X0429124Y0059435D01*
X0429318Y0059599D01*
X0429516Y0059759D01*
X0429718Y0059914D01*
X0429924Y0060063D01*
X0430133Y0060208D01*
X0430346Y0060348D01*
X0430562Y0060482D01*
X0430782Y0060611D01*
X0431004Y0060735D01*
X0431229Y0060854D01*
X0431457Y0060966D01*
X0431688Y0061074D01*
X0431921Y0061175D01*
X0432157Y0061271D01*
X0432395Y0061362D01*
X0432635Y0061446D01*
X0432877Y0061525D01*
X0433121Y0061598D01*
X0433367Y0061664D01*
X0433614Y0061725D01*
X0433862Y0061780D01*
X0434112Y0061829D01*
X0434363Y0061872D01*
X0434615Y0061908D01*
X0434867Y0061939D01*
X0435121Y0061963D01*
X0435374Y0061981D01*
X0435629Y0061993D01*
X0435883Y0061999D01*
X0436138Y0061999D01*
X0436392Y0061993D01*
X0436646Y0061980D01*
X0436900Y0061961D01*
X0437153Y0061936D01*
X0437406Y0061905D01*
X0437658Y0061868D01*
X0437908Y0061825D01*
X0438158Y0061776D01*
X0438407Y0061720D01*
X0438654Y0061659D01*
X0438899Y0061592D01*
X0439143Y0061519D01*
X0439385Y0061440D01*
X0439624Y0061355D01*
X0439862Y0061264D01*
X0440098Y0061167D01*
X0440331Y0061065D01*
X0440561Y0060957D01*
X0440789Y0060844D01*
X0441014Y0060725D01*
X0441236Y0060601D01*
X0441455Y0060471D01*
X0441671Y0060337D01*
X0441884Y0060197D01*
X0442093Y0060051D01*
X0442298Y0059901D01*
X0442500Y0059746D01*
X0437000Y0060373D02*
X0437000Y0061952D01*
X0422750Y0059918D02*
X0422750Y0058416D01*
X0421999Y0057666D01*
X0418997Y0060668D01*
X0421999Y0060668D01*
X0422750Y0059918D01*
X0421999Y0057666D02*
X0418997Y0057666D01*
X0418246Y0058416D01*
X0418246Y0059918D01*
X0418997Y0060668D01*
X0420498Y0062270D02*
X0420498Y0065272D01*
X0418246Y0064522D02*
X0420498Y0062270D01*
X0422750Y0064522D02*
X0418246Y0064522D01*
X0418997Y0056064D02*
X0418246Y0055314D01*
X0418246Y0053812D01*
X0418997Y0053062D01*
X0419747Y0053062D01*
X0420498Y0053812D01*
X0420498Y0056064D01*
X0421999Y0056064D02*
X0418997Y0056064D01*
X0421999Y0056064D02*
X0422750Y0055314D01*
X0422750Y0053812D01*
X0421999Y0053062D01*
X0436250Y0101850D02*
X0436250Y0105253D01*
X0436250Y0103551D02*
X0437384Y0103551D01*
X0425967Y0129596D02*
X0426045Y0129838D01*
X0426129Y0130078D01*
X0426218Y0130316D01*
X0426313Y0130552D01*
X0426415Y0130786D01*
X0426521Y0131017D01*
X0426634Y0131245D01*
X0426751Y0131471D01*
X0426874Y0131694D01*
X0427003Y0131913D01*
X0427137Y0132130D01*
X0427276Y0132343D01*
X0427420Y0132553D01*
X0427569Y0132759D01*
X0427723Y0132961D01*
X0427882Y0133160D01*
X0428046Y0133355D01*
X0428215Y0133546D01*
X0428388Y0133732D01*
X0428565Y0133915D01*
X0428747Y0134093D01*
X0428933Y0134266D01*
X0429124Y0134435D01*
X0429318Y0134599D01*
X0429516Y0134759D01*
X0429718Y0134914D01*
X0429924Y0135063D01*
X0430133Y0135208D01*
X0430346Y0135348D01*
X0430562Y0135482D01*
X0430782Y0135611D01*
X0431004Y0135735D01*
X0431229Y0135854D01*
X0431457Y0135966D01*
X0431688Y0136074D01*
X0431921Y0136175D01*
X0432157Y0136271D01*
X0432395Y0136362D01*
X0432635Y0136446D01*
X0432877Y0136525D01*
X0433121Y0136598D01*
X0433367Y0136664D01*
X0433614Y0136725D01*
X0433862Y0136780D01*
X0434112Y0136829D01*
X0434363Y0136872D01*
X0434615Y0136908D01*
X0434867Y0136939D01*
X0435121Y0136963D01*
X0435374Y0136981D01*
X0435629Y0136993D01*
X0435883Y0136999D01*
X0436138Y0136999D01*
X0436392Y0136993D01*
X0436646Y0136980D01*
X0436900Y0136961D01*
X0437153Y0136936D01*
X0437406Y0136905D01*
X0437658Y0136868D01*
X0437908Y0136825D01*
X0438158Y0136776D01*
X0438407Y0136720D01*
X0438654Y0136659D01*
X0438899Y0136592D01*
X0439143Y0136519D01*
X0439385Y0136440D01*
X0439624Y0136355D01*
X0439862Y0136264D01*
X0440098Y0136167D01*
X0440331Y0136065D01*
X0440561Y0135957D01*
X0440789Y0135844D01*
X0441014Y0135725D01*
X0441236Y0135601D01*
X0441455Y0135471D01*
X0441671Y0135337D01*
X0441884Y0135197D01*
X0442093Y0135051D01*
X0442298Y0134901D01*
X0442500Y0134746D01*
X0437000Y0135373D02*
X0437000Y0136952D01*
X0404928Y0192750D02*
X0402659Y0192750D01*
X0404928Y0195019D01*
X0404928Y0195586D01*
X0404360Y0196153D01*
X0403226Y0196153D01*
X0402659Y0195586D01*
X0401336Y0195586D02*
X0401336Y0194451D01*
X0400769Y0193884D01*
X0399068Y0193884D01*
X0399068Y0192750D02*
X0399068Y0196153D01*
X0400769Y0196153D01*
X0401336Y0195586D01*
X0400202Y0193884D02*
X0401336Y0192750D01*
X0401451Y0199750D02*
X0400884Y0200317D01*
X0401451Y0199750D02*
X0402586Y0199750D01*
X0403153Y0200317D01*
X0403153Y0201451D01*
X0402586Y0202019D01*
X0402019Y0202019D01*
X0400884Y0201451D01*
X0400884Y0203153D01*
X0403153Y0203153D01*
X0404475Y0201451D02*
X0406177Y0201451D01*
X0406744Y0200884D01*
X0406744Y0200317D01*
X0406177Y0199750D01*
X0405042Y0199750D01*
X0404475Y0200317D01*
X0404475Y0201451D01*
X0405610Y0202586D01*
X0406744Y0203153D01*
X0408066Y0202586D02*
X0408634Y0203153D01*
X0409768Y0203153D01*
X0410335Y0202586D01*
X0408066Y0200317D01*
X0408634Y0199750D01*
X0409768Y0199750D01*
X0410335Y0200317D01*
X0410335Y0202586D01*
X0411657Y0203153D02*
X0411657Y0199750D01*
X0411657Y0200884D02*
X0413359Y0199750D01*
X0411657Y0200884D02*
X0413359Y0202019D01*
X0408066Y0202586D02*
X0408066Y0200317D01*
X0407143Y0209850D02*
X0406008Y0209850D01*
X0405441Y0210417D01*
X0407710Y0212686D01*
X0407710Y0210417D01*
X0407143Y0209850D01*
X0405441Y0210417D02*
X0405441Y0212686D01*
X0406008Y0213253D01*
X0407143Y0213253D01*
X0407710Y0212686D01*
X0409032Y0212686D02*
X0409599Y0213253D01*
X0410734Y0213253D01*
X0411301Y0212686D01*
X0409032Y0210417D01*
X0409599Y0209850D01*
X0410734Y0209850D01*
X0411301Y0210417D01*
X0411301Y0212686D01*
X0412623Y0213253D02*
X0412623Y0209850D01*
X0412623Y0210984D02*
X0414325Y0212119D01*
X0412623Y0210984D02*
X0414325Y0209850D01*
X0409032Y0210417D02*
X0409032Y0212686D01*
X0404119Y0209850D02*
X0401850Y0209850D01*
X0402984Y0209850D02*
X0402984Y0213253D01*
X0401850Y0212119D01*
X0402408Y0216850D02*
X0401841Y0217417D01*
X0402408Y0216850D02*
X0403543Y0216850D01*
X0404110Y0217417D01*
X0404110Y0217984D01*
X0403543Y0218551D01*
X0402975Y0218551D01*
X0403543Y0218551D02*
X0404110Y0219119D01*
X0404110Y0219686D01*
X0403543Y0220253D01*
X0402408Y0220253D01*
X0401841Y0219686D01*
X0400519Y0219686D02*
X0400519Y0218551D01*
X0399951Y0217984D01*
X0398250Y0217984D01*
X0398250Y0216850D02*
X0398250Y0220253D01*
X0399951Y0220253D01*
X0400519Y0219686D01*
X0399384Y0217984D02*
X0400519Y0216850D01*
X0384750Y0217750D02*
X0384750Y0218501D01*
X0383999Y0218501D01*
X0383999Y0217750D01*
X0384750Y0217750D01*
X0384750Y0220052D02*
X0384750Y0223055D01*
X0384750Y0221553D02*
X0380246Y0221553D01*
X0381747Y0220052D01*
X0381747Y0224656D02*
X0383999Y0224656D01*
X0384750Y0225407D01*
X0384750Y0227658D01*
X0381747Y0227658D01*
X0375961Y0230476D02*
X0396039Y0230476D01*
X0396039Y0252524D01*
X0375961Y0252524D01*
X0375961Y0230476D01*
X0398126Y0233626D02*
X0413874Y0233626D01*
X0413874Y0249374D01*
X0398126Y0249374D01*
X0398126Y0233626D01*
X0399144Y0235201D02*
X0399146Y0235248D01*
X0399152Y0235294D01*
X0399161Y0235340D01*
X0399175Y0235384D01*
X0399192Y0235428D01*
X0399213Y0235469D01*
X0399237Y0235509D01*
X0399264Y0235547D01*
X0399295Y0235582D01*
X0399328Y0235615D01*
X0399364Y0235645D01*
X0399403Y0235671D01*
X0399443Y0235695D01*
X0399485Y0235714D01*
X0399529Y0235731D01*
X0399574Y0235743D01*
X0399620Y0235752D01*
X0399666Y0235757D01*
X0399713Y0235758D01*
X0399759Y0235755D01*
X0399805Y0235748D01*
X0399851Y0235737D01*
X0399895Y0235723D01*
X0399938Y0235705D01*
X0399979Y0235683D01*
X0400019Y0235658D01*
X0400056Y0235630D01*
X0400091Y0235599D01*
X0400123Y0235565D01*
X0400152Y0235528D01*
X0400177Y0235490D01*
X0400200Y0235449D01*
X0400219Y0235406D01*
X0400234Y0235362D01*
X0400246Y0235317D01*
X0400254Y0235271D01*
X0400258Y0235224D01*
X0400258Y0235178D01*
X0400254Y0235131D01*
X0400246Y0235085D01*
X0400234Y0235040D01*
X0400219Y0234996D01*
X0400200Y0234953D01*
X0400177Y0234912D01*
X0400152Y0234874D01*
X0400123Y0234837D01*
X0400091Y0234803D01*
X0400056Y0234772D01*
X0400019Y0234744D01*
X0399980Y0234719D01*
X0399938Y0234697D01*
X0399895Y0234679D01*
X0399851Y0234665D01*
X0399805Y0234654D01*
X0399759Y0234647D01*
X0399713Y0234644D01*
X0399666Y0234645D01*
X0399620Y0234650D01*
X0399574Y0234659D01*
X0399529Y0234671D01*
X0399485Y0234688D01*
X0399443Y0234707D01*
X0399403Y0234731D01*
X0399364Y0234757D01*
X0399328Y0234787D01*
X0399295Y0234820D01*
X0399264Y0234855D01*
X0399237Y0234893D01*
X0399213Y0234933D01*
X0399192Y0234974D01*
X0399175Y0235018D01*
X0399161Y0235062D01*
X0399152Y0235108D01*
X0399146Y0235154D01*
X0399144Y0235201D01*
X0418746Y0229210D02*
X0419497Y0229960D01*
X0420247Y0229960D01*
X0420998Y0229210D01*
X0420998Y0227708D01*
X0420247Y0226958D01*
X0419497Y0226958D01*
X0418746Y0227708D01*
X0418746Y0229210D01*
X0420998Y0229210D02*
X0421749Y0229960D01*
X0422499Y0229960D01*
X0423250Y0229210D01*
X0423250Y0227708D01*
X0422499Y0226958D01*
X0421749Y0226958D01*
X0420998Y0227708D01*
X0423250Y0225356D02*
X0423250Y0222354D01*
X0424246Y0222553D02*
X0428750Y0222553D01*
X0428750Y0221052D02*
X0428750Y0224055D01*
X0427999Y0225656D02*
X0425747Y0225656D01*
X0427999Y0225656D02*
X0428750Y0226407D01*
X0428750Y0228658D01*
X0425747Y0228658D01*
X0423250Y0223855D02*
X0418746Y0223855D01*
X0420247Y0222354D01*
X0419497Y0220753D02*
X0418746Y0220002D01*
X0418746Y0218501D01*
X0419497Y0217750D01*
X0422499Y0217750D01*
X0423250Y0218501D01*
X0423250Y0220002D01*
X0422499Y0220753D01*
X0424246Y0222553D02*
X0425747Y0221052D01*
X0427999Y0219501D02*
X0428750Y0219501D01*
X0428750Y0218750D01*
X0427999Y0218750D01*
X0427999Y0219501D01*
X0445746Y0208210D02*
X0446497Y0208960D01*
X0449499Y0205958D01*
X0450250Y0206708D01*
X0450250Y0208210D01*
X0449499Y0208960D01*
X0446497Y0208960D01*
X0445746Y0208210D02*
X0445746Y0206708D01*
X0446497Y0205958D01*
X0449499Y0205958D01*
X0450250Y0204356D02*
X0450250Y0201354D01*
X0447247Y0204356D01*
X0446497Y0204356D01*
X0445746Y0203606D01*
X0445746Y0202105D01*
X0446497Y0201354D01*
X0446497Y0199753D02*
X0445746Y0199002D01*
X0445746Y0197501D01*
X0446497Y0196750D01*
X0449499Y0196750D01*
X0450250Y0197501D01*
X0450250Y0199002D01*
X0449499Y0199753D01*
X0452246Y0198251D02*
X0456750Y0198251D01*
X0456750Y0196750D02*
X0456750Y0199753D01*
X0455999Y0201354D02*
X0452997Y0201354D01*
X0452246Y0202105D01*
X0452246Y0203606D01*
X0452997Y0204356D01*
X0455999Y0201354D01*
X0456750Y0202105D01*
X0456750Y0203606D01*
X0455999Y0204356D01*
X0452997Y0204356D01*
X0453747Y0205958D02*
X0453747Y0208210D01*
X0454498Y0208960D01*
X0455999Y0208960D01*
X0456750Y0208210D01*
X0456750Y0205958D01*
X0458251Y0205958D02*
X0453747Y0205958D01*
X0454498Y0210562D02*
X0454498Y0212063D01*
X0452997Y0211312D02*
X0456750Y0211312D01*
X0452997Y0211312D02*
X0452246Y0212063D01*
X0452246Y0198251D02*
X0453747Y0196750D01*
X0454999Y0236240D02*
X0454999Y0236991D01*
X0455750Y0236991D01*
X0455750Y0236240D01*
X0454999Y0236240D01*
X0455750Y0238542D02*
X0455750Y0241545D01*
X0455750Y0240043D02*
X0451246Y0240043D01*
X0452747Y0238542D01*
X0449250Y0238190D02*
X0448499Y0238941D01*
X0449250Y0238190D02*
X0449250Y0236689D01*
X0448499Y0235938D01*
X0445497Y0235938D01*
X0444746Y0236689D01*
X0444746Y0238190D01*
X0445497Y0238941D01*
X0445497Y0240542D02*
X0444746Y0241293D01*
X0444746Y0242794D01*
X0445497Y0243545D01*
X0446247Y0243545D01*
X0449250Y0240542D01*
X0449250Y0243545D01*
X0449250Y0245146D02*
X0449250Y0248149D01*
X0449250Y0246647D02*
X0444746Y0246647D01*
X0446247Y0245146D01*
X0452747Y0246149D02*
X0455750Y0246149D01*
X0455750Y0243897D01*
X0454999Y0243146D01*
X0452747Y0243146D01*
X0452747Y0256750D02*
X0451246Y0258251D01*
X0455750Y0258251D01*
X0455750Y0256750D02*
X0455750Y0259753D01*
X0454999Y0261354D02*
X0451997Y0261354D01*
X0451246Y0262105D01*
X0451246Y0263606D01*
X0451997Y0264356D01*
X0454999Y0261354D01*
X0455750Y0262105D01*
X0455750Y0263606D01*
X0454999Y0264356D01*
X0451997Y0264356D01*
X0452747Y0265958D02*
X0452747Y0268210D01*
X0453498Y0268960D01*
X0454999Y0268960D01*
X0455750Y0268210D01*
X0455750Y0265958D01*
X0457251Y0265958D02*
X0452747Y0265958D01*
X0449250Y0265356D02*
X0449250Y0262354D01*
X0446247Y0265356D01*
X0445497Y0265356D01*
X0444746Y0264606D01*
X0444746Y0263105D01*
X0445497Y0262354D01*
X0445497Y0260753D02*
X0444746Y0260002D01*
X0444746Y0258501D01*
X0445497Y0257750D01*
X0448499Y0257750D01*
X0449250Y0258501D01*
X0449250Y0260002D01*
X0448499Y0260753D01*
X0449250Y0266958D02*
X0446247Y0269960D01*
X0445497Y0269960D01*
X0444746Y0269210D01*
X0444746Y0267708D01*
X0445497Y0266958D01*
X0449250Y0266958D02*
X0449250Y0269960D01*
X0451246Y0272063D02*
X0451997Y0271312D01*
X0455750Y0271312D01*
X0453498Y0270562D02*
X0453498Y0272063D01*
X0416928Y0254451D02*
X0414659Y0254451D01*
X0416360Y0256153D01*
X0416360Y0252750D01*
X0413336Y0252750D02*
X0412202Y0253884D01*
X0412769Y0253884D02*
X0411068Y0253884D01*
X0411068Y0252750D02*
X0411068Y0256153D01*
X0412769Y0256153D01*
X0413336Y0255586D01*
X0413336Y0254451D01*
X0412769Y0253884D01*
X0413359Y0259750D02*
X0411657Y0260884D01*
X0413359Y0262019D01*
X0411657Y0263153D02*
X0411657Y0259750D01*
X0410335Y0260317D02*
X0410335Y0262586D01*
X0408066Y0260317D01*
X0408634Y0259750D01*
X0409768Y0259750D01*
X0410335Y0260317D01*
X0408066Y0260317D02*
X0408066Y0262586D01*
X0408634Y0263153D01*
X0409768Y0263153D01*
X0410335Y0262586D01*
X0406744Y0263153D02*
X0405610Y0262586D01*
X0404475Y0261451D01*
X0406177Y0261451D01*
X0406744Y0260884D01*
X0406744Y0260317D01*
X0406177Y0259750D01*
X0405042Y0259750D01*
X0404475Y0260317D01*
X0404475Y0261451D01*
X0403153Y0261451D02*
X0403153Y0260317D01*
X0402586Y0259750D01*
X0401451Y0259750D01*
X0400884Y0260317D01*
X0400884Y0261451D02*
X0402019Y0262019D01*
X0402586Y0262019D01*
X0403153Y0261451D01*
X0403153Y0263153D02*
X0400884Y0263153D01*
X0400884Y0261451D01*
X0401850Y0269850D02*
X0404119Y0269850D01*
X0402984Y0269850D02*
X0402984Y0273253D01*
X0401850Y0272119D01*
X0405441Y0272686D02*
X0406008Y0273253D01*
X0407143Y0273253D01*
X0407710Y0272686D01*
X0405441Y0270417D01*
X0406008Y0269850D01*
X0407143Y0269850D01*
X0407710Y0270417D01*
X0407710Y0272686D01*
X0409032Y0272686D02*
X0409599Y0273253D01*
X0410734Y0273253D01*
X0411301Y0272686D01*
X0409032Y0270417D01*
X0409599Y0269850D01*
X0410734Y0269850D01*
X0411301Y0270417D01*
X0411301Y0272686D01*
X0412623Y0273253D02*
X0412623Y0269850D01*
X0412623Y0270984D02*
X0414325Y0272119D01*
X0412623Y0270984D02*
X0414325Y0269850D01*
X0409032Y0270417D02*
X0409032Y0272686D01*
X0405441Y0272686D02*
X0405441Y0270417D01*
X0397110Y0276417D02*
X0396543Y0275850D01*
X0395408Y0275850D01*
X0394841Y0276417D01*
X0394841Y0277551D02*
X0395975Y0278119D01*
X0396543Y0278119D01*
X0397110Y0277551D01*
X0397110Y0276417D01*
X0394841Y0277551D02*
X0394841Y0279253D01*
X0397110Y0279253D01*
X0393519Y0278686D02*
X0393519Y0277551D01*
X0392951Y0276984D01*
X0391250Y0276984D01*
X0391250Y0275850D02*
X0391250Y0279253D01*
X0392951Y0279253D01*
X0393519Y0278686D01*
X0392384Y0276984D02*
X0393519Y0275850D01*
X0373750Y0276658D02*
X0373750Y0274407D01*
X0372999Y0273656D01*
X0370747Y0273656D01*
X0370747Y0276658D02*
X0373750Y0276658D01*
X0373750Y0272055D02*
X0373750Y0269052D01*
X0373750Y0270553D02*
X0369246Y0270553D01*
X0370747Y0269052D01*
X0372999Y0267501D02*
X0373750Y0267501D01*
X0373750Y0266750D01*
X0372999Y0266750D01*
X0372999Y0267501D01*
X0373499Y0263960D02*
X0374250Y0263210D01*
X0374250Y0261708D01*
X0373499Y0260958D01*
X0371998Y0260958D02*
X0371247Y0262459D01*
X0371247Y0263210D01*
X0371998Y0263960D01*
X0373499Y0263960D01*
X0371998Y0260958D02*
X0369746Y0260958D01*
X0369746Y0263960D01*
X0369746Y0257855D02*
X0374250Y0257855D01*
X0374250Y0256354D02*
X0374250Y0259356D01*
X0371247Y0256354D02*
X0369746Y0257855D01*
X0370497Y0254753D02*
X0369746Y0254002D01*
X0369746Y0252501D01*
X0370497Y0251750D01*
X0373499Y0251750D01*
X0374250Y0252501D01*
X0374250Y0254002D01*
X0373499Y0254753D01*
X0371998Y0209960D02*
X0371998Y0206958D01*
X0369746Y0209210D01*
X0374250Y0209210D01*
X0374250Y0205356D02*
X0374250Y0202354D01*
X0374250Y0203855D02*
X0369746Y0203855D01*
X0371247Y0202354D01*
X0370497Y0200753D02*
X0369746Y0200002D01*
X0369746Y0198501D01*
X0370497Y0197750D01*
X0373499Y0197750D01*
X0374250Y0198501D01*
X0374250Y0200002D01*
X0373499Y0200753D01*
X0489046Y0243951D02*
X0489046Y0245453D01*
X0489046Y0244702D02*
X0492799Y0244702D01*
X0493550Y0243951D01*
X0493550Y0243201D01*
X0492799Y0242450D01*
X0492049Y0247054D02*
X0492049Y0249306D01*
X0491298Y0250056D01*
X0489797Y0250056D01*
X0489046Y0249306D01*
X0489046Y0247054D01*
X0493550Y0247054D01*
X0492799Y0251658D02*
X0493550Y0252408D01*
X0493550Y0253910D01*
X0492799Y0254660D01*
X0492049Y0254660D01*
X0491298Y0253910D01*
X0491298Y0253159D01*
X0491298Y0253910D02*
X0490547Y0254660D01*
X0489797Y0254660D01*
X0489046Y0253910D01*
X0489046Y0252408D01*
X0489797Y0251658D01*
D14*
X0396000Y0064250D03*
D15*
X0387150Y0064369D02*
X0387150Y0062267D01*
X0386099Y0061216D01*
X0381896Y0065420D01*
X0386099Y0065420D01*
X0387150Y0064369D01*
X0386099Y0061216D02*
X0381896Y0061216D01*
X0380845Y0062267D01*
X0380845Y0064369D01*
X0381896Y0065420D01*
X0381896Y0067662D02*
X0380845Y0068713D01*
X0380845Y0070815D01*
X0381896Y0071866D01*
X0386099Y0067662D01*
X0387150Y0068713D01*
X0387150Y0070815D01*
X0386099Y0071866D01*
X0381896Y0071866D01*
X0382946Y0074107D02*
X0386099Y0074107D01*
X0387150Y0075158D01*
X0387150Y0078311D01*
X0382946Y0078311D01*
X0383997Y0080553D02*
X0383997Y0082655D01*
X0381896Y0081604D02*
X0380845Y0082655D01*
X0381896Y0081604D02*
X0387150Y0081604D01*
X0386099Y0067662D02*
X0381896Y0067662D01*
X0381896Y0058975D02*
X0386099Y0054771D01*
X0387150Y0054771D01*
X0383997Y0052529D02*
X0383997Y0048325D01*
X0380845Y0051478D01*
X0387150Y0051478D01*
X0380845Y0054771D02*
X0380845Y0058975D01*
X0381896Y0058975D01*
X0406596Y0096413D02*
X0410799Y0096413D01*
X0411850Y0097464D01*
X0411850Y0099566D01*
X0410799Y0100617D01*
X0411850Y0102859D02*
X0411850Y0107063D01*
X0411850Y0104961D02*
X0405545Y0104961D01*
X0407646Y0102859D01*
X0406596Y0100617D02*
X0405545Y0099566D01*
X0405545Y0097464D01*
X0406596Y0096413D01*
X0408697Y0109304D02*
X0408697Y0112457D01*
X0409748Y0113508D01*
X0410799Y0113508D01*
X0411850Y0112457D01*
X0411850Y0110355D01*
X0410799Y0109304D01*
X0408697Y0109304D01*
X0406596Y0111406D01*
X0405545Y0113508D01*
D16*
X0264500Y0116500D03*
X0264500Y0106500D03*
D17*
X0260750Y0106500D03*
X0260750Y0116500D03*
X0281250Y0116500D03*
X0281250Y0106500D03*
D18*
X0469465Y0094295D02*
X0495055Y0094295D01*
X0495055Y0138390D01*
X0498992Y0138390D01*
X0498992Y0094295D01*
X0495055Y0094295D01*
X0495055Y0084390D02*
X0495055Y0040295D01*
X0469465Y0040295D01*
X0469465Y0084390D01*
X0495055Y0084390D01*
X0498992Y0084390D01*
X0498992Y0040295D01*
X0495055Y0040295D01*
X0469465Y0094295D02*
X0469465Y0138390D01*
X0495055Y0138390D01*
X0495055Y0164295D02*
X0469465Y0164295D01*
X0469465Y0208390D01*
X0495055Y0208390D01*
X0495055Y0164295D01*
X0498992Y0164295D01*
X0498992Y0208390D01*
X0495055Y0208390D01*
D19*
X0480950Y0179917D02*
X0479449Y0179917D01*
X0479949Y0179417D01*
X0479449Y0178916D01*
X0480950Y0178916D01*
X0480950Y0178444D02*
X0479449Y0178444D01*
X0479949Y0177943D01*
X0479449Y0177443D01*
X0480950Y0177443D01*
X0480700Y0176971D02*
X0480950Y0176720D01*
X0480950Y0176220D01*
X0480700Y0175970D01*
X0480199Y0175970D02*
X0479949Y0176470D01*
X0479949Y0176720D01*
X0480199Y0176971D01*
X0480700Y0176971D01*
X0480199Y0175970D02*
X0479449Y0175970D01*
X0479449Y0176971D01*
X0479699Y0175497D02*
X0479449Y0175247D01*
X0479449Y0174747D01*
X0479699Y0174497D01*
X0479699Y0174024D02*
X0480700Y0173023D01*
X0480950Y0173273D01*
X0480950Y0173774D01*
X0480700Y0174024D01*
X0479699Y0174024D01*
X0479449Y0173774D01*
X0479449Y0173273D01*
X0479699Y0173023D01*
X0480700Y0173023D01*
X0480950Y0172551D02*
X0479449Y0172551D01*
X0479949Y0172050D01*
X0479449Y0171550D01*
X0480950Y0171550D01*
X0480950Y0174497D02*
X0479949Y0175497D01*
X0479699Y0175497D01*
X0480950Y0175497D02*
X0480950Y0174497D01*
X0475950Y0174497D02*
X0474949Y0175497D01*
X0474699Y0175497D01*
X0474449Y0175247D01*
X0474449Y0174747D01*
X0474699Y0174497D01*
X0474699Y0174024D02*
X0475199Y0174024D01*
X0475450Y0173774D01*
X0475450Y0173023D01*
X0475950Y0173023D02*
X0474449Y0173023D01*
X0474449Y0173774D01*
X0474699Y0174024D01*
X0475950Y0174497D02*
X0475950Y0175497D01*
X0475700Y0172301D02*
X0474449Y0172301D01*
X0474449Y0172551D02*
X0474449Y0172050D01*
X0475700Y0172301D02*
X0475950Y0172050D01*
X0475950Y0171800D01*
X0475700Y0171550D01*
X0479449Y0109917D02*
X0480950Y0109917D01*
X0480950Y0108916D02*
X0479449Y0108916D01*
X0479949Y0109417D01*
X0479449Y0109917D01*
X0479449Y0108444D02*
X0480950Y0108444D01*
X0480950Y0107443D02*
X0479449Y0107443D01*
X0479949Y0107943D01*
X0479449Y0108444D01*
X0479449Y0106971D02*
X0479449Y0105970D01*
X0480199Y0105970D01*
X0479949Y0106470D01*
X0479949Y0106720D01*
X0480199Y0106971D01*
X0480700Y0106971D01*
X0480950Y0106720D01*
X0480950Y0106220D01*
X0480700Y0105970D01*
X0480950Y0105497D02*
X0480950Y0104497D01*
X0479949Y0105497D01*
X0479699Y0105497D01*
X0479449Y0105247D01*
X0479449Y0104747D01*
X0479699Y0104497D01*
X0479699Y0104024D02*
X0480700Y0103023D01*
X0480950Y0103273D01*
X0480950Y0103774D01*
X0480700Y0104024D01*
X0479699Y0104024D01*
X0479449Y0103774D01*
X0479449Y0103273D01*
X0479699Y0103023D01*
X0480700Y0103023D01*
X0480950Y0102551D02*
X0479449Y0102551D01*
X0479949Y0102050D01*
X0479449Y0101550D01*
X0480950Y0101550D01*
X0475950Y0101800D02*
X0475950Y0102050D01*
X0475700Y0102301D01*
X0474449Y0102301D01*
X0474449Y0102551D02*
X0474449Y0102050D01*
X0474449Y0103023D02*
X0474449Y0103774D01*
X0474699Y0104024D01*
X0475199Y0104024D01*
X0475450Y0103774D01*
X0475450Y0103023D01*
X0475950Y0103023D02*
X0474449Y0103023D01*
X0475199Y0104497D02*
X0474449Y0105247D01*
X0475950Y0105247D01*
X0475199Y0105497D02*
X0475199Y0104497D01*
X0475950Y0101800D02*
X0475700Y0101550D01*
X0479449Y0055917D02*
X0480950Y0055917D01*
X0480950Y0054916D02*
X0479449Y0054916D01*
X0479949Y0055417D01*
X0479449Y0055917D01*
X0479449Y0054444D02*
X0480950Y0054444D01*
X0480950Y0053443D02*
X0479449Y0053443D01*
X0479949Y0053943D01*
X0479449Y0054444D01*
X0479449Y0052971D02*
X0479449Y0051970D01*
X0480199Y0051970D01*
X0479949Y0052470D01*
X0479949Y0052720D01*
X0480199Y0052971D01*
X0480700Y0052971D01*
X0480950Y0052720D01*
X0480950Y0052220D01*
X0480700Y0051970D01*
X0480950Y0051497D02*
X0480950Y0050497D01*
X0479949Y0051497D01*
X0479699Y0051497D01*
X0479449Y0051247D01*
X0479449Y0050747D01*
X0479699Y0050497D01*
X0479699Y0050024D02*
X0480700Y0049023D01*
X0480950Y0049273D01*
X0480950Y0049774D01*
X0480700Y0050024D01*
X0479699Y0050024D01*
X0479449Y0049774D01*
X0479449Y0049273D01*
X0479699Y0049023D01*
X0480700Y0049023D01*
X0480950Y0048551D02*
X0479449Y0048551D01*
X0479949Y0048050D01*
X0479449Y0047550D01*
X0480950Y0047550D01*
X0475950Y0047800D02*
X0475950Y0048050D01*
X0475700Y0048301D01*
X0474449Y0048301D01*
X0474449Y0048551D02*
X0474449Y0048050D01*
X0474449Y0049023D02*
X0474449Y0049774D01*
X0474699Y0050024D01*
X0475199Y0050024D01*
X0475450Y0049774D01*
X0475450Y0049023D01*
X0475950Y0049023D02*
X0474449Y0049023D01*
X0474449Y0050497D02*
X0475199Y0050497D01*
X0474949Y0050997D01*
X0474949Y0051247D01*
X0475199Y0051497D01*
X0475700Y0051497D01*
X0475950Y0051247D01*
X0475950Y0050747D01*
X0475700Y0050497D01*
X0474449Y0050497D02*
X0474449Y0051497D01*
X0475950Y0047800D02*
X0475700Y0047550D01*
X0260005Y0142926D02*
X0259755Y0142676D01*
X0260005Y0142926D02*
X0260005Y0143427D01*
X0259755Y0143677D01*
X0259505Y0143677D01*
X0259254Y0143427D01*
X0259254Y0142926D01*
X0259004Y0142676D01*
X0258754Y0142676D01*
X0258504Y0142926D01*
X0258504Y0143427D01*
X0258754Y0143677D01*
X0258504Y0144149D02*
X0258504Y0144900D01*
X0258754Y0145150D01*
X0259755Y0145150D01*
X0260005Y0144900D01*
X0260005Y0144149D01*
X0258504Y0144149D01*
X0260255Y0145622D02*
X0260255Y0146623D01*
X0259755Y0147096D02*
X0260005Y0147346D01*
X0260005Y0147846D01*
X0259755Y0148097D01*
X0260005Y0148569D02*
X0259004Y0148569D01*
X0258504Y0149069D01*
X0259004Y0149570D01*
X0260005Y0149570D01*
X0260005Y0150042D02*
X0258504Y0150042D01*
X0258504Y0150793D01*
X0258754Y0151043D01*
X0259254Y0151043D01*
X0259505Y0150793D01*
X0259505Y0150042D01*
X0259505Y0150543D02*
X0260005Y0151043D01*
X0260005Y0151516D02*
X0260005Y0152266D01*
X0259755Y0152516D01*
X0258754Y0152516D01*
X0258504Y0152266D01*
X0258504Y0151516D01*
X0260005Y0151516D01*
X0260255Y0152989D02*
X0260255Y0153990D01*
X0259755Y0154462D02*
X0260005Y0154712D01*
X0260005Y0155213D01*
X0259755Y0155463D01*
X0259505Y0155463D01*
X0259254Y0155213D01*
X0259254Y0154712D01*
X0259004Y0154462D01*
X0258754Y0154462D01*
X0258504Y0154712D01*
X0258504Y0155213D01*
X0258754Y0155463D01*
X0258754Y0155935D02*
X0259755Y0155935D01*
X0260005Y0156185D01*
X0260005Y0156686D01*
X0259755Y0156936D01*
X0258754Y0156936D01*
X0258504Y0156686D01*
X0258504Y0156185D01*
X0258754Y0155935D01*
X0258754Y0157409D02*
X0259755Y0157409D01*
X0260005Y0157659D01*
X0260005Y0158159D01*
X0259755Y0158409D01*
X0260005Y0158882D02*
X0258504Y0158882D01*
X0258754Y0158409D02*
X0258504Y0158159D01*
X0258504Y0157659D01*
X0258754Y0157409D01*
X0259505Y0158882D02*
X0258504Y0159883D01*
X0258504Y0160355D02*
X0260005Y0160355D01*
X0260005Y0161356D01*
X0259254Y0160855D02*
X0259254Y0160355D01*
X0258504Y0160355D02*
X0258504Y0161356D01*
X0258504Y0161828D02*
X0258504Y0162829D01*
X0258504Y0162329D02*
X0260005Y0162329D01*
X0259254Y0163302D02*
X0259254Y0164302D01*
X0259755Y0164775D02*
X0260005Y0165025D01*
X0260005Y0165525D01*
X0259755Y0165776D01*
X0258504Y0165776D01*
X0258754Y0166248D02*
X0259755Y0166248D01*
X0260005Y0166498D01*
X0260005Y0166999D01*
X0259755Y0167249D01*
X0259755Y0167721D02*
X0260005Y0167971D01*
X0260005Y0168472D01*
X0259755Y0168722D01*
X0258754Y0168722D01*
X0258504Y0168472D01*
X0258504Y0167971D01*
X0258754Y0167721D01*
X0259755Y0167721D01*
X0258754Y0167249D02*
X0258504Y0166999D01*
X0258504Y0166498D01*
X0258754Y0166248D01*
X0258504Y0164775D02*
X0259755Y0164775D01*
X0260005Y0164052D02*
X0258504Y0164052D01*
X0259254Y0163302D01*
X0260005Y0159883D02*
X0259254Y0159132D01*
X0259254Y0149570D02*
X0259254Y0148569D01*
X0258754Y0148097D02*
X0258504Y0147846D01*
X0258504Y0147346D01*
X0258754Y0147096D01*
X0259755Y0147096D01*
X0255005Y0144900D02*
X0254755Y0145150D01*
X0253754Y0145150D01*
X0253504Y0144900D01*
X0253504Y0144149D01*
X0255005Y0144149D01*
X0255005Y0144900D01*
X0254755Y0143677D02*
X0255005Y0143427D01*
X0255005Y0142926D01*
X0254755Y0142676D01*
X0254254Y0142926D02*
X0254254Y0143427D01*
X0254505Y0143677D01*
X0254755Y0143677D01*
X0254254Y0142926D02*
X0254004Y0142676D01*
X0253754Y0142676D01*
X0253504Y0142926D01*
X0253504Y0143427D01*
X0253754Y0143677D01*
X0258504Y0169195D02*
X0260005Y0170195D01*
X0258504Y0170195D01*
X0258504Y0169195D02*
X0260005Y0169195D01*
D20*
X0397250Y0201500D03*
X0397250Y0211500D03*
X0418750Y0211500D03*
X0418750Y0201500D03*
X0435250Y0151500D03*
X0456750Y0151500D03*
X0456750Y0096500D03*
X0435250Y0096500D03*
X0435250Y0081500D03*
X0456750Y0081500D03*
X0418750Y0261500D03*
X0418750Y0271500D03*
X0397250Y0271500D03*
X0397250Y0261500D03*
X0070750Y0191500D03*
X0049250Y0191500D03*
D21*
X0139188Y0106770D02*
X0139188Y0103701D01*
X0143792Y0103701D01*
X0143792Y0106770D01*
X0141490Y0105235D02*
X0141490Y0103701D01*
X0139188Y0102166D02*
X0139188Y0099097D01*
X0143792Y0099097D01*
X0143792Y0102166D01*
X0141490Y0100631D02*
X0141490Y0099097D01*
X0140723Y0097562D02*
X0141490Y0096795D01*
X0141490Y0094493D01*
X0139188Y0094493D02*
X0139188Y0096795D01*
X0139956Y0097562D01*
X0140723Y0097562D01*
X0141490Y0096795D02*
X0142257Y0097562D01*
X0143025Y0097562D01*
X0143792Y0096795D01*
X0143792Y0094493D01*
X0139188Y0094493D01*
X0139188Y0092958D02*
X0143792Y0089889D01*
X0143792Y0092958D02*
X0139188Y0089889D01*
D22*
X0451400Y0069200D03*
X0451400Y0144200D03*
D23*
X0464500Y0126500D03*
X0464500Y0051500D03*
D24*
X0462000Y0034250D03*
X0462000Y0068750D03*
X0462000Y0109250D03*
X0462000Y0143750D03*
D25*
X0462000Y0131500D03*
X0462000Y0121500D03*
X0462000Y0056500D03*
X0462000Y0046500D03*
M02*
