G75*
%MOIN*%
%OFA0B0*%
%FSLAX24Y24*%
%IPPOS*%
%LPD*%
%AMOC8*
5,1,8,0,0,1.08239X$1,22.5*
%
%ADD10C,0.0000*%
%ADD11OC8,0.0560*%
%ADD12C,0.1000*%
%ADD13OC8,0.1000*%
%ADD14OC8,0.0700*%
%ADD15C,0.0700*%
%ADD16C,0.0520*%
%ADD17R,0.0800X0.0800*%
%ADD18C,0.0800*%
%ADD19OC8,0.0660*%
%ADD20R,0.0472X0.0118*%
%ADD21R,0.0118X0.0472*%
%ADD22R,0.0827X0.2205*%
%ADD23R,0.0197X0.0236*%
%ADD24R,0.0236X0.0197*%
%ADD25C,0.0560*%
%ADD26R,0.0560X0.0560*%
%ADD27R,0.1560X0.1560*%
%ADD28C,0.1250*%
%ADD29R,0.0472X0.0472*%
%ADD30R,0.0394X0.0315*%
%ADD31C,0.0110*%
%ADD32R,0.0276X0.0098*%
%ADD33R,0.0846X0.0669*%
%ADD34R,0.0984X0.0748*%
%ADD35R,0.0138X0.0276*%
%ADD36R,0.0925X0.0622*%
%ADD37R,0.0512X0.0748*%
%ADD38R,0.0354X0.0709*%
%ADD39R,0.0551X0.0787*%
%ADD40R,0.0433X0.0709*%
%ADD41C,0.0709*%
%ADD42C,0.0600*%
%ADD43OC8,0.0520*%
%ADD44C,0.0660*%
%ADD45R,0.0413X0.0394*%
%ADD46R,0.0866X0.0413*%
%ADD47C,0.0160*%
%ADD48C,0.0396*%
%ADD49C,0.0120*%
%ADD50C,0.0320*%
%ADD51C,0.0400*%
%ADD52C,0.2000*%
%ADD53C,0.0660*%
%ADD54C,0.0240*%
%ADD55C,0.0357*%
%ADD56C,0.0100*%
D10*
X000100Y002650D02*
X000100Y028150D01*
X050100Y028150D01*
X050100Y002650D01*
X000100Y002650D01*
X025594Y023223D02*
X025596Y023258D01*
X025602Y023292D01*
X025612Y023325D01*
X025625Y023358D01*
X025642Y023388D01*
X025663Y023416D01*
X025686Y023442D01*
X025713Y023465D01*
X025741Y023484D01*
X025772Y023500D01*
X025805Y023513D01*
X025838Y023522D01*
X025873Y023527D01*
X025908Y023528D01*
X025942Y023525D01*
X025977Y023518D01*
X026010Y023507D01*
X026041Y023493D01*
X026071Y023475D01*
X026099Y023454D01*
X026124Y023429D01*
X026146Y023402D01*
X026165Y023373D01*
X026180Y023342D01*
X026192Y023309D01*
X026200Y023275D01*
X026204Y023240D01*
X026204Y023206D01*
X026200Y023171D01*
X026192Y023137D01*
X026180Y023104D01*
X026165Y023073D01*
X026146Y023044D01*
X026124Y023017D01*
X026099Y022992D01*
X026071Y022971D01*
X026041Y022953D01*
X026010Y022939D01*
X025977Y022928D01*
X025942Y022921D01*
X025908Y022918D01*
X025873Y022919D01*
X025838Y022924D01*
X025805Y022933D01*
X025772Y022946D01*
X025741Y022962D01*
X025713Y022981D01*
X025686Y023004D01*
X025663Y023030D01*
X025642Y023058D01*
X025625Y023088D01*
X025612Y023121D01*
X025602Y023154D01*
X025596Y023188D01*
X025594Y023223D01*
X035145Y023223D02*
X035147Y023258D01*
X035153Y023292D01*
X035163Y023325D01*
X035176Y023358D01*
X035193Y023388D01*
X035214Y023416D01*
X035237Y023442D01*
X035264Y023465D01*
X035292Y023484D01*
X035323Y023500D01*
X035356Y023513D01*
X035389Y023522D01*
X035424Y023527D01*
X035459Y023528D01*
X035493Y023525D01*
X035528Y023518D01*
X035561Y023507D01*
X035592Y023493D01*
X035622Y023475D01*
X035650Y023454D01*
X035675Y023429D01*
X035697Y023402D01*
X035716Y023373D01*
X035731Y023342D01*
X035743Y023309D01*
X035751Y023275D01*
X035755Y023240D01*
X035755Y023206D01*
X035751Y023171D01*
X035743Y023137D01*
X035731Y023104D01*
X035716Y023073D01*
X035697Y023044D01*
X035675Y023017D01*
X035650Y022992D01*
X035622Y022971D01*
X035592Y022953D01*
X035561Y022939D01*
X035528Y022928D01*
X035493Y022921D01*
X035459Y022918D01*
X035424Y022919D01*
X035389Y022924D01*
X035356Y022933D01*
X035323Y022946D01*
X035292Y022962D01*
X035264Y022981D01*
X035237Y023004D01*
X035214Y023030D01*
X035193Y023058D01*
X035176Y023088D01*
X035163Y023121D01*
X035153Y023154D01*
X035147Y023188D01*
X035145Y023223D01*
D11*
X038100Y021150D03*
X038100Y020150D03*
X042300Y018550D03*
X043700Y018550D03*
X043700Y017550D03*
X042300Y017550D03*
X043700Y020150D03*
X043700Y021150D03*
X043700Y023550D03*
X042300Y023550D03*
X042300Y024550D03*
X043700Y024550D03*
X043700Y026150D03*
X043700Y027150D03*
X038200Y027150D03*
X038200Y026150D03*
X021900Y023150D03*
X021900Y022150D03*
X018600Y022550D03*
X017600Y022550D03*
X021500Y019750D03*
X021500Y018750D03*
X019400Y015750D03*
X018400Y015750D03*
X015500Y018250D03*
X014500Y018250D03*
X011600Y019650D03*
X011600Y020650D03*
X009100Y020650D03*
X009100Y021650D03*
X011600Y022650D03*
X011600Y023650D03*
X023100Y013450D03*
X023100Y012450D03*
X016600Y011150D03*
X016600Y010150D03*
X006900Y004250D03*
X005900Y004250D03*
D12*
X039600Y007650D03*
D13*
X039600Y005650D03*
D14*
X022600Y010150D03*
X023600Y016150D03*
X023600Y017150D03*
X023600Y018150D03*
X023600Y019150D03*
X023600Y020150D03*
X023600Y021150D03*
X023600Y022150D03*
X023600Y023150D03*
X021600Y017050D03*
D15*
X020600Y017050D03*
X015900Y020950D03*
X015900Y021950D03*
X023600Y010150D03*
D16*
X025340Y010650D02*
X025860Y010650D01*
X025860Y011650D02*
X025340Y011650D01*
X028340Y011650D02*
X028860Y011650D01*
X028860Y010650D02*
X028340Y010650D01*
D17*
X048600Y010650D03*
X048600Y005250D03*
X048600Y017650D03*
D18*
X048600Y019619D03*
X048600Y012619D03*
X048600Y007219D03*
D19*
X046100Y008150D03*
X046100Y009650D03*
X043100Y009650D03*
X043100Y008150D03*
X043100Y015150D03*
X046100Y015150D03*
X042300Y020150D03*
X042300Y021150D03*
X039300Y021150D03*
X039300Y020150D03*
X039300Y026150D03*
X039300Y027150D03*
X042300Y027150D03*
X042300Y026150D03*
X007500Y019150D03*
X004500Y019150D03*
D20*
X016427Y019052D03*
X016427Y019248D03*
X016427Y019445D03*
X016427Y019642D03*
X016427Y019839D03*
X016427Y020036D03*
X016427Y020233D03*
X016427Y018855D03*
X016427Y018658D03*
X016427Y018461D03*
X016427Y018264D03*
X016427Y018067D03*
X019773Y018067D03*
X019773Y018264D03*
X019773Y018461D03*
X019773Y018658D03*
X019773Y018855D03*
X019773Y019052D03*
X019773Y019248D03*
X019773Y019445D03*
X019773Y019642D03*
X019773Y019839D03*
X019773Y020036D03*
X019773Y020233D03*
D21*
X019183Y020823D03*
X018986Y020823D03*
X018789Y020823D03*
X018592Y020823D03*
X018395Y020823D03*
X018198Y020823D03*
X018002Y020823D03*
X017805Y020823D03*
X017608Y020823D03*
X017411Y020823D03*
X017214Y020823D03*
X017017Y020823D03*
X017017Y017477D03*
X017214Y017477D03*
X017411Y017477D03*
X017608Y017477D03*
X017805Y017477D03*
X018002Y017477D03*
X018198Y017477D03*
X018395Y017477D03*
X018592Y017477D03*
X018789Y017477D03*
X018986Y017477D03*
X019183Y017477D03*
D22*
X013600Y019780D03*
X013600Y023520D03*
D23*
X017529Y013741D03*
X017529Y013150D03*
X017529Y012559D03*
X018671Y012559D03*
X018671Y013150D03*
X018671Y013741D03*
D24*
X018100Y012559D03*
D25*
X013021Y014481D03*
X012234Y014481D03*
X011446Y014481D03*
X010659Y014481D03*
X009872Y014481D03*
X009084Y014481D03*
X008297Y014481D03*
X007509Y014481D03*
X006722Y014481D03*
X005935Y014481D03*
X006722Y005819D03*
X007509Y005819D03*
X008297Y005819D03*
X009084Y005819D03*
X009872Y005819D03*
X010659Y005819D03*
X011446Y005819D03*
X012234Y005819D03*
X013021Y005819D03*
D26*
X005935Y005819D03*
D27*
X021600Y006150D03*
D28*
X019000Y006150D03*
X024200Y006150D03*
D29*
X006887Y021863D03*
X006887Y022650D03*
X006100Y022650D03*
X005313Y022650D03*
X005313Y021863D03*
X006100Y021863D03*
X006100Y023437D03*
X005313Y023437D03*
X006887Y023437D03*
D30*
X007911Y023650D03*
X007911Y024150D03*
X007911Y024650D03*
X007911Y025150D03*
X004289Y025150D03*
X004289Y024650D03*
X004289Y024150D03*
X004289Y023650D03*
X004289Y023150D03*
X004289Y022650D03*
X004289Y022150D03*
X004289Y021650D03*
X004289Y021150D03*
X004289Y020650D03*
X004289Y020150D03*
X007911Y020150D03*
X007911Y020650D03*
X007911Y021150D03*
X007911Y021650D03*
X007911Y022150D03*
X007911Y022650D03*
X007911Y023150D03*
D31*
X040206Y023457D02*
X040206Y023681D01*
X040403Y023681D02*
X040403Y023457D01*
X040600Y023457D02*
X040600Y023681D01*
X040797Y023681D02*
X040797Y023457D01*
X040994Y023457D02*
X040994Y023681D01*
X040994Y024619D02*
X040994Y024843D01*
X040797Y024843D02*
X040797Y024619D01*
X040600Y024619D02*
X040600Y024843D01*
X040403Y024843D02*
X040403Y024619D01*
X040206Y024619D02*
X040206Y024843D01*
X040206Y018843D02*
X040206Y018619D01*
X040403Y018619D02*
X040403Y018843D01*
X040600Y018843D02*
X040600Y018619D01*
X040797Y018619D02*
X040797Y018843D01*
X040994Y018843D02*
X040994Y018619D01*
X040994Y017681D02*
X040994Y017457D01*
X040797Y017457D02*
X040797Y017681D01*
X040600Y017681D02*
X040600Y017457D01*
X040403Y017457D02*
X040403Y017681D01*
X040206Y017681D02*
X040206Y017457D01*
D32*
X040039Y017914D03*
X040039Y018071D03*
X040039Y018229D03*
X040039Y018386D03*
X041161Y018386D03*
X041161Y018229D03*
X041161Y018071D03*
X041161Y017914D03*
X041161Y023914D03*
X041161Y024071D03*
X041161Y024229D03*
X041161Y024386D03*
X040039Y024386D03*
X040039Y024229D03*
X040039Y024071D03*
X040039Y023914D03*
D33*
X040600Y024150D03*
X040600Y018150D03*
D34*
X038600Y018937D03*
X038600Y017363D03*
X038600Y023363D03*
X038600Y024937D03*
D35*
X020984Y013731D03*
X020728Y013731D03*
X020472Y013731D03*
X020216Y013731D03*
X020216Y012569D03*
X020472Y012569D03*
X020728Y012569D03*
X020984Y012569D03*
D36*
X020600Y013150D03*
D37*
X020683Y010780D03*
X020683Y009520D03*
X018517Y009520D03*
X018517Y010780D03*
D38*
X026950Y013656D03*
X027935Y013656D03*
X028919Y013656D03*
X029608Y013656D03*
X030198Y013656D03*
X030887Y013656D03*
X031872Y013656D03*
X032856Y013656D03*
X033809Y013656D03*
X034478Y013656D03*
D39*
X024793Y021924D03*
X036407Y022377D03*
D40*
X035718Y013656D03*
D41*
X047100Y021650D03*
X048100Y021650D03*
X048100Y022650D03*
X047100Y022650D03*
X047100Y023650D03*
X048100Y023650D03*
D42*
X045900Y013650D02*
X045300Y013650D01*
X045300Y012650D02*
X045900Y012650D01*
X045900Y011650D02*
X045300Y011650D01*
X045300Y006150D02*
X045900Y006150D01*
X045900Y005150D02*
X045300Y005150D01*
X045300Y004150D02*
X045900Y004150D01*
D43*
X043600Y004650D03*
X042850Y005150D03*
X043600Y005650D03*
X043600Y012150D03*
X042850Y012650D03*
X043600Y013150D03*
D44*
X049100Y021650D03*
X049100Y022650D03*
X049100Y023650D03*
D45*
X003591Y025150D03*
D46*
X002961Y025741D03*
X002961Y024559D03*
D47*
X002550Y024523D02*
X003924Y024523D01*
X004050Y024550D02*
X003350Y024400D01*
X002550Y024400D01*
X002550Y024700D01*
X003400Y024700D01*
X004100Y024750D01*
X004450Y024750D01*
X004450Y024550D01*
X004050Y024550D01*
X004400Y024550D02*
X004400Y024750D01*
X004700Y024750D01*
X004700Y025600D01*
X002550Y025600D01*
X002550Y025900D01*
X004950Y025900D01*
X004950Y024550D01*
X004400Y024550D01*
X004400Y024682D02*
X004950Y024682D01*
X004950Y024840D02*
X004700Y024840D01*
X004700Y024999D02*
X004950Y024999D01*
X004950Y025157D02*
X004700Y025157D01*
X004700Y025316D02*
X004950Y025316D01*
X004950Y025474D02*
X004700Y025474D01*
X004950Y025633D02*
X002550Y025633D01*
X002550Y025791D02*
X004950Y025791D01*
X004450Y025300D02*
X003400Y025300D01*
X003400Y025000D01*
X004450Y025000D01*
X004450Y025300D01*
X004450Y025157D02*
X003400Y025157D01*
X002550Y024682D02*
X004450Y024682D01*
X020472Y012569D02*
X020472Y012222D01*
X020300Y012050D01*
D48*
X019500Y013500D03*
X016600Y013800D03*
X016100Y013400D03*
X015600Y013000D03*
X015400Y014900D03*
X015900Y015400D03*
X016400Y015800D03*
X014500Y017100D03*
X013800Y017100D03*
X013100Y017100D03*
X012400Y017100D03*
X017000Y018650D03*
X018800Y018000D03*
X020500Y019850D03*
X029100Y022700D03*
X030100Y022700D03*
X031100Y022700D03*
X032100Y022700D03*
X031600Y020100D03*
X030600Y020100D03*
X029600Y020100D03*
X032600Y020100D03*
X033600Y020100D03*
X034600Y020100D03*
X034600Y018100D03*
X033600Y018100D03*
X032600Y018100D03*
X031600Y018100D03*
X030600Y018100D03*
X029600Y018100D03*
X038600Y015200D03*
X040600Y018150D03*
X034500Y012700D03*
X032600Y012700D03*
X032600Y010600D03*
X034600Y010600D03*
X016600Y004200D03*
X040600Y024150D03*
X046600Y025200D03*
X046600Y026200D03*
X032600Y026100D03*
X030600Y026100D03*
X028600Y026100D03*
X022100Y025600D03*
X016100Y025600D03*
X004800Y025750D03*
X004800Y024700D03*
D49*
X004900Y024691D02*
X007594Y024691D01*
X007594Y024573D02*
X004900Y024573D01*
X004900Y024454D02*
X007594Y024454D01*
X007594Y024443D02*
X007637Y024400D01*
X007594Y024357D01*
X007594Y023943D01*
X007637Y023900D01*
X007594Y023857D01*
X007594Y023443D01*
X007637Y023400D01*
X007594Y023357D01*
X007594Y022943D01*
X007637Y022900D01*
X007594Y022857D01*
X007594Y022830D01*
X007525Y022830D01*
X007425Y022730D01*
X007320Y022625D01*
X007320Y020650D01*
X006055Y020650D01*
X005080Y021625D01*
X005080Y022325D01*
X004900Y022505D01*
X004900Y027690D01*
X037900Y027690D01*
X049640Y027690D01*
X049640Y013965D01*
X049575Y014030D01*
X048275Y015330D01*
X046550Y015330D01*
X046550Y015336D01*
X046286Y015600D01*
X045914Y015600D01*
X045650Y015336D01*
X045650Y014964D01*
X045914Y014700D01*
X046286Y014700D01*
X046550Y014964D01*
X046550Y014970D01*
X048125Y014970D01*
X049320Y013775D01*
X049320Y011625D01*
X048865Y011170D01*
X048150Y011170D01*
X048080Y011100D01*
X048080Y010766D01*
X047414Y010100D01*
X045914Y010100D01*
X045845Y010031D01*
X045719Y009905D01*
X045650Y009836D01*
X045650Y009464D01*
X045719Y009395D01*
X045845Y009269D01*
X045914Y009200D01*
X045920Y009200D01*
X045920Y008600D01*
X045914Y008600D01*
X045650Y008336D01*
X045650Y007964D01*
X045914Y007700D01*
X046286Y007700D01*
X046550Y007964D01*
X046550Y008336D01*
X046286Y008600D01*
X046280Y008600D01*
X046280Y009200D01*
X047514Y009200D01*
X048150Y008564D01*
X048150Y007491D01*
X048080Y007322D01*
X048080Y007115D01*
X048159Y006924D01*
X048305Y006778D01*
X048497Y006699D01*
X048703Y006699D01*
X048895Y006778D01*
X049041Y006924D01*
X049120Y007115D01*
X049120Y007322D01*
X049050Y007491D01*
X049050Y008840D01*
X048981Y009005D01*
X048855Y009131D01*
X048286Y009700D01*
X048716Y010130D01*
X049050Y010130D01*
X049120Y010200D01*
X049120Y010915D01*
X049640Y011435D01*
X049640Y003110D01*
X037900Y003110D01*
X037900Y016850D01*
X039700Y016850D01*
X041350Y015200D01*
X041350Y011036D01*
X039219Y008905D01*
X039150Y008740D01*
X039150Y008077D01*
X039074Y008001D01*
X038980Y007773D01*
X038980Y007527D01*
X039074Y007299D01*
X039249Y007124D01*
X039477Y007030D01*
X039723Y007030D01*
X039951Y007124D01*
X040126Y007299D01*
X040220Y007527D01*
X040220Y007773D01*
X040126Y008001D01*
X040050Y008077D01*
X040050Y008464D01*
X041850Y010264D01*
X042845Y009269D01*
X042914Y009200D01*
X043286Y009200D01*
X043355Y009269D01*
X043481Y009395D01*
X043550Y009464D01*
X043550Y009836D01*
X043481Y009905D01*
X042250Y011136D01*
X042250Y015064D01*
X042331Y015145D01*
X042986Y015800D01*
X044390Y015800D01*
X044555Y015869D01*
X044681Y015995D01*
X047631Y018945D01*
X047855Y019169D01*
X048328Y019169D01*
X048497Y019099D01*
X048703Y019099D01*
X048895Y019178D01*
X049041Y019324D01*
X049120Y019515D01*
X049120Y019722D01*
X049041Y019913D01*
X048895Y020059D01*
X048703Y020139D01*
X048497Y020139D01*
X048328Y020069D01*
X047579Y020069D01*
X047414Y020000D01*
X047158Y019744D01*
X044671Y022231D01*
X044581Y022321D01*
X044464Y022370D01*
X042620Y022370D01*
X042620Y023304D01*
X042700Y023384D01*
X042700Y023716D01*
X042466Y023950D01*
X042134Y023950D01*
X041900Y023716D01*
X041900Y023384D01*
X041980Y023304D01*
X041980Y022370D01*
X041880Y022370D01*
X041758Y022492D01*
X041798Y022591D01*
X041798Y022709D01*
X041753Y022819D01*
X041669Y022903D01*
X041559Y022948D01*
X041441Y022948D01*
X041346Y022909D01*
X040780Y023475D01*
X040780Y023644D01*
X040775Y023649D01*
X040775Y023754D01*
X040673Y023857D01*
X040527Y023857D01*
X040502Y023831D01*
X040476Y023857D01*
X040331Y023857D01*
X040324Y023850D01*
X040285Y023850D01*
X040279Y023857D01*
X040134Y023857D01*
X040127Y023850D01*
X039148Y023850D01*
X039142Y023857D01*
X038058Y023857D01*
X038052Y023850D01*
X037900Y023850D01*
X037900Y024450D01*
X038052Y024450D01*
X038058Y024443D01*
X039142Y024443D01*
X039148Y024450D01*
X040127Y024450D01*
X040134Y024443D01*
X040279Y024443D01*
X040285Y024450D01*
X040324Y024450D01*
X040331Y024443D01*
X040476Y024443D01*
X040482Y024450D01*
X040500Y024450D01*
X040510Y024460D01*
X040527Y024443D01*
X040673Y024443D01*
X040775Y024546D01*
X040775Y024651D01*
X040780Y024656D01*
X040780Y025081D01*
X041580Y025970D01*
X041850Y025970D01*
X041850Y025964D01*
X042114Y025700D01*
X042486Y025700D01*
X042750Y025964D01*
X042750Y025970D01*
X043314Y025970D01*
X043534Y025750D01*
X043866Y025750D01*
X044100Y025984D01*
X044100Y026316D01*
X043866Y026550D01*
X043534Y026550D01*
X043314Y026330D01*
X042750Y026330D01*
X042750Y026336D01*
X042486Y026600D01*
X042480Y026600D01*
X042480Y026700D01*
X042486Y026700D01*
X042750Y026964D01*
X042750Y027336D01*
X042486Y027600D01*
X042114Y027600D01*
X041850Y027336D01*
X041850Y026964D01*
X042114Y026700D01*
X042120Y026700D01*
X042120Y026600D01*
X042114Y026600D01*
X041850Y026336D01*
X041850Y026330D01*
X041569Y026330D01*
X041565Y026334D01*
X041495Y026330D01*
X041425Y026330D01*
X041422Y026326D01*
X041416Y026326D01*
X041369Y026274D01*
X041320Y026225D01*
X041320Y026219D01*
X040600Y025419D01*
X040600Y025650D01*
X039600Y026650D01*
X037900Y026650D01*
X037900Y027690D01*
X037900Y026416D01*
X037800Y026316D01*
X037800Y025984D01*
X037900Y025884D01*
X037900Y020600D01*
X037310Y020600D01*
X037145Y020531D01*
X036545Y019931D01*
X036419Y019805D01*
X036350Y019640D01*
X036350Y012936D01*
X035514Y012100D01*
X031167Y012100D01*
X031167Y013235D01*
X031185Y013252D01*
X031185Y014060D01*
X031114Y014131D01*
X030661Y014131D01*
X030590Y014060D01*
X030590Y013252D01*
X030607Y013235D01*
X030607Y012100D01*
X028510Y012100D01*
X028345Y012031D01*
X028344Y012030D01*
X028264Y012030D01*
X028125Y011972D01*
X028018Y011865D01*
X027960Y011726D01*
X027960Y011574D01*
X028018Y011435D01*
X028125Y011328D01*
X028264Y011270D01*
X028344Y011270D01*
X028345Y011269D01*
X028510Y011200D01*
X035790Y011200D01*
X035955Y011269D01*
X036081Y011395D01*
X037181Y012495D01*
X037250Y012660D01*
X037250Y019364D01*
X037586Y019700D01*
X037900Y019700D01*
X037900Y003110D01*
X015100Y003110D01*
X015100Y016150D01*
X009100Y016150D01*
X009100Y017270D01*
X016838Y017270D01*
X016838Y017191D01*
X016909Y017121D01*
X017034Y017121D01*
X017034Y015239D01*
X017025Y015230D01*
X016920Y015125D01*
X016920Y012375D01*
X017220Y012075D01*
X017325Y011970D01*
X018336Y011970D01*
X018687Y012321D01*
X018819Y012321D01*
X018860Y012362D01*
X018860Y012349D01*
X018201Y011690D01*
X016852Y011690D01*
X016764Y011653D01*
X016697Y011586D01*
X016661Y011550D01*
X016434Y011550D01*
X016200Y011316D01*
X016200Y010984D01*
X016434Y010750D01*
X016766Y010750D01*
X017000Y010984D01*
X017000Y011210D01*
X018148Y011210D01*
X018141Y011204D01*
X018141Y010356D01*
X018212Y010286D01*
X018823Y010286D01*
X018893Y010356D01*
X018893Y011204D01*
X018823Y011274D01*
X018463Y011274D01*
X018503Y011314D01*
X019303Y012114D01*
X019340Y012202D01*
X019340Y012798D01*
X019303Y012886D01*
X019236Y012953D01*
X018911Y013279D01*
X018911Y013788D01*
X018889Y013840D01*
X018889Y013908D01*
X018819Y013979D01*
X018723Y013979D01*
X018719Y013981D01*
X018623Y013981D01*
X018619Y013979D01*
X018523Y013979D01*
X018452Y013908D01*
X018452Y013840D01*
X018431Y013788D01*
X018431Y013102D01*
X018452Y013050D01*
X018452Y012982D01*
X018523Y012912D01*
X018599Y012912D01*
X018713Y012798D01*
X018523Y012798D01*
X018452Y012727D01*
X018452Y012596D01*
X018187Y012330D01*
X017686Y012330D01*
X017748Y012392D01*
X017748Y012523D01*
X017876Y012652D01*
X017959Y012652D01*
X018069Y012697D01*
X018153Y012781D01*
X018198Y012891D01*
X018198Y013009D01*
X018153Y013119D01*
X018069Y013203D01*
X017959Y013248D01*
X017841Y013248D01*
X017748Y013210D01*
X017748Y013318D01*
X017709Y013356D01*
X017709Y013395D01*
X017602Y013502D01*
X017677Y013502D01*
X017748Y013573D01*
X017748Y013704D01*
X017795Y013752D01*
X017859Y013752D01*
X017969Y013797D01*
X018053Y013881D01*
X018098Y013991D01*
X018098Y014109D01*
X018053Y014219D01*
X017969Y014303D01*
X017859Y014348D01*
X017741Y014348D01*
X017631Y014303D01*
X017547Y014219D01*
X017502Y014109D01*
X017502Y013991D01*
X017507Y013979D01*
X017480Y013979D01*
X017480Y014715D01*
X017720Y014475D01*
X017825Y014370D01*
X019948Y014370D01*
X019897Y014319D01*
X019852Y014209D01*
X019852Y014091D01*
X019897Y013981D01*
X019981Y013897D01*
X020091Y013852D01*
X020209Y013852D01*
X020234Y013862D01*
X020283Y013812D01*
X020283Y013581D01*
X020088Y013581D01*
X020017Y013511D01*
X020017Y012789D01*
X020039Y012768D01*
X020027Y012757D01*
X020027Y012749D01*
X019998Y012749D01*
X019998Y012809D01*
X019953Y012919D01*
X019869Y013003D01*
X019759Y013048D01*
X019641Y013048D01*
X019531Y013003D01*
X019447Y012919D01*
X019402Y012809D01*
X019402Y012691D01*
X019447Y012581D01*
X019531Y012497D01*
X019641Y012452D01*
X019744Y012452D01*
X019806Y012389D01*
X020027Y012389D01*
X020027Y012382D01*
X020098Y012311D01*
X020151Y012311D01*
X020131Y012303D01*
X020047Y012219D01*
X020002Y012109D01*
X020002Y011991D01*
X020047Y011881D01*
X020131Y011797D01*
X020241Y011752D01*
X020359Y011752D01*
X020469Y011797D01*
X020548Y011876D01*
X020548Y011274D01*
X020377Y011274D01*
X020307Y011204D01*
X020307Y010356D01*
X020377Y010286D01*
X020988Y010286D01*
X021020Y010318D01*
X021020Y010112D01*
X020922Y010014D01*
X020377Y010014D01*
X020307Y009944D01*
X020307Y009096D01*
X020377Y009026D01*
X020988Y009026D01*
X021059Y009096D01*
X021059Y009641D01*
X021380Y009963D01*
X021380Y011425D01*
X021275Y011530D01*
X021164Y011641D01*
X021164Y012373D01*
X021173Y012382D01*
X021173Y012757D01*
X021161Y012768D01*
X021183Y012789D01*
X021183Y013511D01*
X021161Y013532D01*
X021173Y013543D01*
X021173Y013665D01*
X021180Y013672D01*
X021180Y014070D01*
X022575Y014070D01*
X022680Y014175D01*
X023875Y015370D01*
X029925Y015370D01*
X031574Y013721D01*
X031574Y013252D01*
X031645Y013182D01*
X032099Y013182D01*
X032169Y013252D01*
X032169Y014060D01*
X032099Y014131D01*
X031674Y014131D01*
X030180Y015625D01*
X030075Y015730D01*
X024235Y015730D01*
X024380Y015875D01*
X024380Y017425D01*
X024275Y017530D01*
X023960Y017845D01*
X024070Y017955D01*
X024070Y018345D01*
X023795Y018620D01*
X023405Y018620D01*
X023130Y018345D01*
X023130Y017955D01*
X023405Y017680D01*
X023615Y017680D01*
X023675Y017620D01*
X023405Y017620D01*
X023130Y017345D01*
X023130Y016955D01*
X023405Y016680D01*
X023795Y016680D01*
X024020Y016905D01*
X024020Y016395D01*
X023795Y016620D01*
X023405Y016620D01*
X023130Y016345D01*
X023130Y015955D01*
X023140Y015945D01*
X023098Y015903D01*
X023098Y015909D01*
X023053Y016019D01*
X022980Y016092D01*
X022980Y016725D01*
X022875Y016830D01*
X021875Y017830D01*
X021375Y017830D01*
X020530Y018675D01*
X020721Y018675D01*
X021120Y018275D01*
X021225Y018170D01*
X021875Y018170D01*
X023395Y019690D01*
X023405Y019680D01*
X023795Y019680D01*
X024070Y019955D01*
X024070Y020345D01*
X023945Y020470D01*
X036475Y020470D01*
X037556Y021552D01*
X037659Y021552D01*
X037769Y021597D01*
X037853Y021681D01*
X037898Y021791D01*
X037898Y021909D01*
X037853Y022019D01*
X037772Y022100D01*
X037853Y022181D01*
X037898Y022291D01*
X037898Y022409D01*
X037853Y022519D01*
X037772Y022600D01*
X037853Y022681D01*
X037898Y022791D01*
X037898Y022909D01*
X037853Y023019D01*
X037769Y023103D01*
X037659Y023148D01*
X037541Y023148D01*
X037431Y023103D01*
X037347Y023019D01*
X037302Y022909D01*
X037302Y022806D01*
X037020Y022525D01*
X037020Y022325D01*
X036803Y022107D01*
X036803Y022820D01*
X036732Y022890D01*
X036141Y022890D01*
X036216Y023071D01*
X036216Y023375D01*
X036142Y023554D01*
X036525Y023170D01*
X036858Y023170D01*
X036931Y023097D01*
X037041Y023052D01*
X037159Y023052D01*
X037269Y023097D01*
X037353Y023181D01*
X037398Y023291D01*
X037398Y023409D01*
X037353Y023519D01*
X037269Y023603D01*
X037159Y023648D01*
X037041Y023648D01*
X036931Y023603D01*
X036858Y023530D01*
X036675Y023530D01*
X035875Y024330D01*
X035025Y024330D01*
X032325Y021630D01*
X025542Y021630D01*
X025469Y021703D01*
X025359Y021748D01*
X025241Y021748D01*
X025189Y021727D01*
X025189Y022367D01*
X025118Y022438D01*
X024468Y022438D01*
X024397Y022367D01*
X024397Y021481D01*
X024468Y021410D01*
X024649Y021410D01*
X024631Y021403D01*
X024547Y021319D01*
X024502Y021209D01*
X024502Y021203D01*
X023875Y021830D01*
X023225Y021830D01*
X023120Y021725D01*
X023098Y021703D01*
X023098Y021709D01*
X023053Y021819D01*
X022969Y021903D01*
X022859Y021948D01*
X022741Y021948D01*
X022631Y021903D01*
X022558Y021830D01*
X019635Y021830D01*
X021356Y023552D01*
X021459Y023552D01*
X021569Y023597D01*
X021653Y023681D01*
X021698Y023791D01*
X021698Y023909D01*
X021653Y024019D01*
X021569Y024103D01*
X021459Y024148D01*
X021341Y024148D01*
X021231Y024103D01*
X021147Y024019D01*
X021102Y023909D01*
X021102Y023806D01*
X019425Y022130D01*
X018225Y022130D01*
X018120Y022025D01*
X017428Y021332D01*
X017428Y021179D01*
X017302Y021179D01*
X017232Y021109D01*
X017232Y020537D01*
X017302Y020467D01*
X018495Y020467D01*
X018447Y020419D01*
X018402Y020309D01*
X018402Y020191D01*
X018447Y020081D01*
X018531Y019997D01*
X018641Y019952D01*
X018747Y019952D01*
X017825Y019030D01*
X017720Y018925D01*
X017720Y018275D01*
X018162Y017833D01*
X016909Y017833D01*
X016838Y017763D01*
X016838Y017630D01*
X016135Y017630D01*
X016392Y017887D01*
X016501Y017887D01*
X016502Y017888D01*
X016713Y017888D01*
X016783Y017959D01*
X016783Y018570D01*
X016713Y018640D01*
X016141Y018640D01*
X016071Y018570D01*
X016071Y018444D01*
X016040Y018444D01*
X015900Y018305D01*
X015900Y018416D01*
X015810Y018506D01*
X015979Y018675D01*
X016501Y018675D01*
X016502Y018676D01*
X016713Y018676D01*
X016783Y018746D01*
X016783Y020341D01*
X016713Y020412D01*
X016141Y020412D01*
X016071Y020341D01*
X016071Y019625D01*
X015679Y019625D01*
X014780Y020525D01*
X014780Y022595D01*
X014133Y023241D01*
X014133Y024672D01*
X014063Y024742D01*
X013137Y024742D01*
X013067Y024672D01*
X013067Y023830D01*
X011986Y023830D01*
X011766Y024050D01*
X011434Y024050D01*
X011200Y023816D01*
X011200Y023484D01*
X011434Y023250D01*
X011766Y023250D01*
X011986Y023470D01*
X013067Y023470D01*
X013067Y022368D01*
X013137Y022298D01*
X014063Y022298D01*
X014133Y022368D01*
X014133Y022732D01*
X014420Y022446D01*
X014420Y020375D01*
X014525Y020270D01*
X015367Y019428D01*
X014206Y019428D01*
X014133Y019501D01*
X014133Y020932D01*
X014063Y021002D01*
X013137Y021002D01*
X013067Y020932D01*
X013067Y019830D01*
X011986Y019830D01*
X011766Y020050D01*
X011434Y020050D01*
X011200Y019816D01*
X011200Y019484D01*
X011434Y019250D01*
X011766Y019250D01*
X011986Y019470D01*
X013067Y019470D01*
X013067Y018628D01*
X013137Y018558D01*
X014063Y018558D01*
X014133Y018628D01*
X014133Y019068D01*
X016071Y019068D01*
X016071Y019035D01*
X015830Y019035D01*
X015445Y018650D01*
X015334Y018650D01*
X015100Y018416D01*
X015100Y018084D01*
X015154Y018030D01*
X009100Y018030D01*
X009100Y020250D01*
X009266Y020250D01*
X009500Y020484D01*
X009500Y020816D01*
X009266Y021050D01*
X009096Y021050D01*
X008759Y021387D01*
X008656Y021430D01*
X008215Y021430D01*
X008228Y021443D01*
X008228Y021857D01*
X008185Y021900D01*
X008228Y021943D01*
X008228Y022357D01*
X008185Y022400D01*
X008228Y022443D01*
X008228Y022857D01*
X008185Y022900D01*
X008228Y022943D01*
X008228Y023357D01*
X008185Y023400D01*
X008228Y023443D01*
X008228Y023857D01*
X008185Y023900D01*
X008228Y023943D01*
X008228Y024357D01*
X008185Y024400D01*
X008228Y024443D01*
X008228Y024857D01*
X008185Y024900D01*
X008228Y024943D01*
X008228Y025357D01*
X008158Y025427D01*
X007664Y025427D01*
X007594Y025357D01*
X007594Y024943D01*
X007637Y024900D01*
X007594Y024857D01*
X007594Y024443D01*
X007594Y024336D02*
X004900Y024336D01*
X004900Y024217D02*
X007594Y024217D01*
X007594Y024099D02*
X004900Y024099D01*
X004900Y023980D02*
X007594Y023980D01*
X007599Y023862D02*
X004900Y023862D01*
X004900Y023743D02*
X007594Y023743D01*
X007594Y023625D02*
X004900Y023625D01*
X004900Y023506D02*
X007594Y023506D01*
X007625Y023388D02*
X004900Y023388D01*
X004900Y023269D02*
X007594Y023269D01*
X007594Y023151D02*
X004900Y023151D01*
X004900Y023032D02*
X007594Y023032D01*
X007623Y022914D02*
X004900Y022914D01*
X004900Y022795D02*
X007490Y022795D01*
X007372Y022677D02*
X004900Y022677D01*
X004900Y022558D02*
X007320Y022558D01*
X007320Y022440D02*
X004965Y022440D01*
X005080Y022321D02*
X007320Y022321D01*
X007320Y022203D02*
X005080Y022203D01*
X005080Y022084D02*
X007320Y022084D01*
X007320Y021966D02*
X005080Y021966D01*
X005080Y021847D02*
X007320Y021847D01*
X007320Y021729D02*
X005080Y021729D01*
X005095Y021610D02*
X007320Y021610D01*
X007320Y021492D02*
X005213Y021492D01*
X005332Y021373D02*
X007320Y021373D01*
X007320Y021255D02*
X005450Y021255D01*
X005569Y021136D02*
X007320Y021136D01*
X007320Y021018D02*
X005687Y021018D01*
X005806Y020899D02*
X007320Y020899D01*
X007320Y020781D02*
X005924Y020781D01*
X006043Y020662D02*
X007320Y020662D01*
X008228Y021492D02*
X014420Y021492D01*
X014420Y021610D02*
X008228Y021610D01*
X008228Y021729D02*
X014420Y021729D01*
X014420Y021847D02*
X008228Y021847D01*
X008228Y021966D02*
X014420Y021966D01*
X014420Y022084D02*
X008228Y022084D01*
X008228Y022203D02*
X014420Y022203D01*
X014420Y022321D02*
X014086Y022321D01*
X014133Y022440D02*
X014420Y022440D01*
X014307Y022558D02*
X014133Y022558D01*
X014133Y022677D02*
X014189Y022677D01*
X014461Y022914D02*
X017398Y022914D01*
X017434Y022950D02*
X017200Y022716D01*
X017200Y022405D01*
X016837Y022042D01*
X016837Y020749D01*
X016838Y020748D01*
X016838Y020537D01*
X016909Y020467D01*
X017126Y020467D01*
X017196Y020537D01*
X017196Y020748D01*
X017197Y020749D01*
X017197Y021893D01*
X017455Y022150D01*
X017766Y022150D01*
X018000Y022384D01*
X018000Y022716D01*
X017766Y022950D01*
X017434Y022950D01*
X017279Y022795D02*
X014580Y022795D01*
X014698Y022677D02*
X017200Y022677D01*
X017200Y022558D02*
X014780Y022558D01*
X014780Y022440D02*
X017200Y022440D01*
X017116Y022321D02*
X016194Y022321D01*
X016166Y022348D02*
X015993Y022420D01*
X015807Y022420D01*
X015634Y022348D01*
X015502Y022216D01*
X015430Y022043D01*
X015430Y021857D01*
X015502Y021684D01*
X015634Y021552D01*
X015807Y021480D01*
X015993Y021480D01*
X016166Y021552D01*
X016298Y021684D01*
X016370Y021857D01*
X016370Y022043D01*
X016298Y022216D01*
X016166Y022348D01*
X016304Y022203D02*
X016998Y022203D01*
X016879Y022084D02*
X016353Y022084D01*
X016370Y021966D02*
X016837Y021966D01*
X016837Y021847D02*
X016366Y021847D01*
X016317Y021729D02*
X016837Y021729D01*
X016837Y021610D02*
X016225Y021610D01*
X016021Y021492D02*
X016837Y021492D01*
X016837Y021373D02*
X016107Y021373D01*
X016166Y021348D02*
X015993Y021420D01*
X015807Y021420D01*
X015634Y021348D01*
X015502Y021216D01*
X015430Y021043D01*
X015430Y020857D01*
X015502Y020684D01*
X015634Y020552D01*
X015807Y020480D01*
X015993Y020480D01*
X016166Y020552D01*
X016298Y020684D01*
X016370Y020857D01*
X016370Y021043D01*
X016298Y021216D01*
X016166Y021348D01*
X016260Y021255D02*
X016837Y021255D01*
X016837Y021136D02*
X016332Y021136D01*
X016370Y021018D02*
X016837Y021018D01*
X016837Y020899D02*
X016370Y020899D01*
X016339Y020781D02*
X016837Y020781D01*
X016838Y020662D02*
X016277Y020662D01*
X016147Y020544D02*
X016838Y020544D01*
X016783Y020307D02*
X018402Y020307D01*
X018403Y020188D02*
X016783Y020188D01*
X016783Y020070D02*
X018458Y020070D01*
X018628Y019833D02*
X016783Y019833D01*
X016783Y019951D02*
X018746Y019951D01*
X018509Y019714D02*
X016783Y019714D01*
X016783Y019596D02*
X018391Y019596D01*
X018272Y019477D02*
X016783Y019477D01*
X016783Y019359D02*
X018154Y019359D01*
X018035Y019240D02*
X016783Y019240D01*
X016783Y019122D02*
X017917Y019122D01*
X017825Y019030D02*
X017825Y019030D01*
X017798Y019003D02*
X016783Y019003D01*
X016783Y018885D02*
X017720Y018885D01*
X017720Y018766D02*
X016783Y018766D01*
X016992Y018658D02*
X016427Y018658D01*
X016427Y018855D02*
X015905Y018855D01*
X015500Y018450D01*
X015500Y018250D01*
X015213Y018529D02*
X009100Y018529D01*
X009100Y018411D02*
X015100Y018411D01*
X015100Y018292D02*
X009100Y018292D01*
X009100Y018174D02*
X015100Y018174D01*
X015129Y018055D02*
X009100Y018055D01*
X009100Y018648D02*
X013067Y018648D01*
X013067Y018766D02*
X009100Y018766D01*
X009100Y018885D02*
X013067Y018885D01*
X013067Y019003D02*
X009100Y019003D01*
X009100Y019122D02*
X013067Y019122D01*
X013067Y019240D02*
X009100Y019240D01*
X009100Y019359D02*
X011326Y019359D01*
X011207Y019477D02*
X009100Y019477D01*
X009100Y019596D02*
X011200Y019596D01*
X011200Y019714D02*
X009100Y019714D01*
X009100Y019833D02*
X011217Y019833D01*
X011335Y019951D02*
X009100Y019951D01*
X009100Y020070D02*
X013067Y020070D01*
X013067Y020188D02*
X009100Y020188D01*
X009322Y020307D02*
X013067Y020307D01*
X013067Y020425D02*
X009441Y020425D01*
X009500Y020544D02*
X013067Y020544D01*
X013067Y020662D02*
X009500Y020662D01*
X009500Y020781D02*
X013067Y020781D01*
X013067Y020899D02*
X009417Y020899D01*
X009298Y021018D02*
X014420Y021018D01*
X014420Y021136D02*
X009010Y021136D01*
X008891Y021255D02*
X014420Y021255D01*
X014420Y021373D02*
X008773Y021373D01*
X008228Y022321D02*
X013114Y022321D01*
X013067Y022440D02*
X008225Y022440D01*
X008228Y022558D02*
X013067Y022558D01*
X013067Y022677D02*
X008228Y022677D01*
X008228Y022795D02*
X013067Y022795D01*
X013067Y022914D02*
X008199Y022914D01*
X008228Y023032D02*
X013067Y023032D01*
X013067Y023151D02*
X008228Y023151D01*
X008228Y023269D02*
X011415Y023269D01*
X011297Y023388D02*
X008198Y023388D01*
X008228Y023506D02*
X011200Y023506D01*
X011200Y023625D02*
X008228Y023625D01*
X008228Y023743D02*
X011200Y023743D01*
X011246Y023862D02*
X008224Y023862D01*
X008228Y023980D02*
X011364Y023980D01*
X011600Y023650D02*
X013470Y023650D01*
X013600Y023520D01*
X014600Y022520D01*
X014600Y020450D01*
X015605Y019445D01*
X016427Y019445D01*
X016427Y019248D02*
X014131Y019248D01*
X013600Y019780D01*
X013470Y019650D01*
X011600Y019650D01*
X011874Y019359D02*
X013067Y019359D01*
X013067Y019833D02*
X011983Y019833D01*
X011865Y019951D02*
X013067Y019951D01*
X014133Y019951D02*
X014844Y019951D01*
X014726Y020070D02*
X014133Y020070D01*
X014133Y020188D02*
X014607Y020188D01*
X014489Y020307D02*
X014133Y020307D01*
X014133Y020425D02*
X014420Y020425D01*
X014420Y020544D02*
X014133Y020544D01*
X014133Y020662D02*
X014420Y020662D01*
X014420Y020781D02*
X014133Y020781D01*
X014133Y020899D02*
X014420Y020899D01*
X014780Y020899D02*
X015430Y020899D01*
X015430Y021018D02*
X014780Y021018D01*
X014780Y021136D02*
X015468Y021136D01*
X015540Y021255D02*
X014780Y021255D01*
X014780Y021373D02*
X015693Y021373D01*
X015779Y021492D02*
X014780Y021492D01*
X014780Y021610D02*
X015575Y021610D01*
X015483Y021729D02*
X014780Y021729D01*
X014780Y021847D02*
X015434Y021847D01*
X015430Y021966D02*
X014780Y021966D01*
X014780Y022084D02*
X015447Y022084D01*
X015496Y022203D02*
X014780Y022203D01*
X014780Y022321D02*
X015606Y022321D01*
X014343Y023032D02*
X020327Y023032D01*
X020209Y022914D02*
X017802Y022914D01*
X017921Y022795D02*
X020090Y022795D01*
X019972Y022677D02*
X018000Y022677D01*
X018000Y022558D02*
X019853Y022558D01*
X019735Y022440D02*
X018000Y022440D01*
X017937Y022321D02*
X019616Y022321D01*
X019498Y022203D02*
X017818Y022203D01*
X018061Y021966D02*
X017270Y021966D01*
X017197Y021847D02*
X017942Y021847D01*
X017824Y021729D02*
X017197Y021729D01*
X017197Y021610D02*
X017705Y021610D01*
X017587Y021492D02*
X017197Y021492D01*
X017197Y021373D02*
X017468Y021373D01*
X017428Y021255D02*
X017197Y021255D01*
X017214Y021264D02*
X018600Y022550D01*
X018179Y022084D02*
X017389Y022084D01*
X017017Y021967D02*
X017600Y022550D01*
X017017Y021967D02*
X017017Y020823D01*
X017197Y020781D02*
X017232Y020781D01*
X017214Y020823D02*
X017214Y021264D01*
X017197Y021136D02*
X017259Y021136D01*
X017232Y021018D02*
X017197Y021018D01*
X017197Y020899D02*
X017232Y020899D01*
X017232Y020662D02*
X017196Y020662D01*
X017196Y020544D02*
X017232Y020544D01*
X017608Y020823D02*
X017608Y021258D01*
X018300Y021950D01*
X019500Y021950D01*
X021400Y023850D01*
X021679Y023743D02*
X025337Y023743D01*
X025251Y023657D02*
X025466Y023872D01*
X025747Y023988D01*
X026051Y023988D01*
X026333Y023872D01*
X026548Y023657D01*
X026664Y023375D01*
X026664Y023071D01*
X026548Y022790D01*
X026333Y022575D01*
X026051Y022458D01*
X025747Y022458D01*
X025466Y022575D01*
X025251Y022790D01*
X025134Y023071D01*
X025134Y023375D01*
X025251Y023657D01*
X025237Y023625D02*
X021597Y023625D01*
X021690Y023506D02*
X021311Y023506D01*
X021192Y023388D02*
X021572Y023388D01*
X021500Y023316D02*
X021500Y022984D01*
X021734Y022750D01*
X022066Y022750D01*
X022300Y022984D01*
X022300Y023316D01*
X022066Y023550D01*
X021734Y023550D01*
X021500Y023316D01*
X021500Y023269D02*
X021074Y023269D01*
X020955Y023151D02*
X021500Y023151D01*
X021500Y023032D02*
X020837Y023032D01*
X020718Y022914D02*
X021571Y022914D01*
X021689Y022795D02*
X020600Y022795D01*
X020481Y022677D02*
X025364Y022677D01*
X025248Y022795D02*
X023910Y022795D01*
X023795Y022680D02*
X024070Y022955D01*
X024070Y023345D01*
X023795Y023620D01*
X023405Y023620D01*
X023130Y023345D01*
X023130Y022955D01*
X023405Y022680D01*
X023795Y022680D01*
X024028Y022914D02*
X025199Y022914D01*
X025150Y023032D02*
X024070Y023032D01*
X024070Y023151D02*
X025134Y023151D01*
X025134Y023269D02*
X024070Y023269D01*
X024027Y023388D02*
X025139Y023388D01*
X025188Y023506D02*
X023909Y023506D01*
X023291Y023506D02*
X022110Y023506D01*
X022228Y023388D02*
X023173Y023388D01*
X023130Y023269D02*
X022300Y023269D01*
X022300Y023151D02*
X023130Y023151D01*
X023130Y023032D02*
X022300Y023032D01*
X022229Y022914D02*
X023172Y022914D01*
X023290Y022795D02*
X022111Y022795D01*
X020920Y023625D02*
X014133Y023625D01*
X014133Y023743D02*
X021038Y023743D01*
X021102Y023862D02*
X014133Y023862D01*
X014133Y023980D02*
X021131Y023980D01*
X021227Y024099D02*
X014133Y024099D01*
X014133Y024217D02*
X034912Y024217D01*
X034794Y024099D02*
X021573Y024099D01*
X021669Y023980D02*
X025727Y023980D01*
X025455Y023862D02*
X021698Y023862D01*
X020801Y023506D02*
X014133Y023506D01*
X014133Y023388D02*
X020683Y023388D01*
X020564Y023269D02*
X014133Y023269D01*
X014224Y023151D02*
X020446Y023151D01*
X020363Y022558D02*
X025506Y022558D01*
X025189Y022321D02*
X033016Y022321D01*
X032898Y022203D02*
X025189Y022203D01*
X025189Y022084D02*
X032779Y022084D01*
X032661Y021966D02*
X025189Y021966D01*
X025189Y021847D02*
X032542Y021847D01*
X032424Y021729D02*
X025407Y021729D01*
X025193Y021729D02*
X025189Y021729D01*
X025300Y021450D02*
X032400Y021450D01*
X035100Y024150D01*
X035800Y024150D01*
X036600Y023350D01*
X037100Y023350D01*
X037217Y023625D02*
X037900Y023625D01*
X037900Y023743D02*
X036462Y023743D01*
X036580Y023625D02*
X036983Y023625D01*
X037358Y023506D02*
X037900Y023506D01*
X037900Y023388D02*
X037398Y023388D01*
X037389Y023269D02*
X037900Y023269D01*
X037900Y023151D02*
X037323Y023151D01*
X037360Y023032D02*
X036199Y023032D01*
X036216Y023151D02*
X036877Y023151D01*
X036803Y022795D02*
X037290Y022795D01*
X037303Y022914D02*
X036150Y022914D01*
X036216Y023269D02*
X036426Y023269D01*
X036308Y023388D02*
X036210Y023388D01*
X036189Y023506D02*
X036161Y023506D01*
X036343Y023862D02*
X037900Y023862D01*
X042046Y023862D01*
X041927Y023743D02*
X040775Y023743D01*
X040780Y023625D02*
X041900Y023625D01*
X041900Y023506D02*
X040780Y023506D01*
X040867Y023388D02*
X041900Y023388D01*
X041980Y023269D02*
X040986Y023269D01*
X041104Y023151D02*
X041980Y023151D01*
X041980Y023032D02*
X041223Y023032D01*
X041341Y022914D02*
X041356Y022914D01*
X041300Y022700D02*
X041450Y022700D01*
X041500Y022650D01*
X041300Y022700D02*
X040600Y023400D01*
X040600Y023569D01*
X040403Y023569D02*
X040403Y022547D01*
X040800Y022150D01*
X040900Y022150D01*
X041900Y022150D01*
X041700Y022050D02*
X040900Y021950D01*
X040000Y022850D01*
X040000Y022950D01*
X040400Y023350D01*
X040420Y023330D01*
X040420Y023325D01*
X040525Y023220D01*
X040525Y023220D01*
X041120Y022625D01*
X041225Y022520D01*
X041230Y022520D01*
X041231Y022519D01*
X041247Y022481D01*
X041331Y022397D01*
X041369Y022381D01*
X041700Y022050D01*
X041666Y022084D02*
X040766Y022084D01*
X040884Y021966D02*
X041024Y021966D01*
X040821Y021729D02*
X037900Y021729D01*
X037873Y021729D01*
X037898Y021847D02*
X037900Y021847D01*
X040703Y021847D01*
X040584Y021966D02*
X037900Y021966D01*
X037875Y021966D01*
X037900Y022084D02*
X040466Y022084D01*
X040347Y022203D02*
X037900Y022203D01*
X037862Y022203D01*
X037898Y022321D02*
X037900Y022321D01*
X040229Y022321D01*
X040110Y022440D02*
X037900Y022440D01*
X037886Y022440D01*
X037900Y022558D02*
X039992Y022558D01*
X039873Y022677D02*
X037900Y022677D01*
X037849Y022677D01*
X037814Y022558D02*
X037900Y022558D01*
X037900Y022795D02*
X039755Y022795D01*
X039700Y022850D02*
X040900Y021650D01*
X041845Y021650D01*
X040223Y020028D01*
X040223Y020027D01*
X039600Y020650D01*
X037900Y020650D01*
X037900Y022850D01*
X039700Y022850D01*
X039800Y023050D02*
X039000Y023050D01*
X039000Y023650D01*
X040200Y023650D01*
X040200Y023450D01*
X039800Y023050D01*
X039901Y023151D02*
X039000Y023151D01*
X039000Y023269D02*
X040019Y023269D01*
X040138Y023388D02*
X039000Y023388D01*
X039000Y023506D02*
X040200Y023506D01*
X040200Y023625D02*
X039000Y023625D01*
X037900Y023980D02*
X046759Y023980D01*
X046698Y023919D02*
X046831Y024052D01*
X047006Y024124D01*
X047194Y024124D01*
X047369Y024052D01*
X047502Y023919D01*
X047539Y023830D01*
X047661Y023830D01*
X047698Y023919D01*
X047831Y024052D01*
X048006Y024124D01*
X048194Y024124D01*
X048369Y024052D01*
X048502Y023919D01*
X048574Y023744D01*
X048574Y023556D01*
X048502Y023381D01*
X048369Y023248D01*
X048194Y023176D01*
X048006Y023176D01*
X047831Y023248D01*
X047698Y023381D01*
X047661Y023470D01*
X047539Y023470D01*
X047502Y023381D01*
X047369Y023248D01*
X047194Y023176D01*
X047006Y023176D01*
X046831Y023248D01*
X046698Y023381D01*
X046661Y023470D01*
X046275Y023470D01*
X045853Y023048D01*
X045859Y023048D01*
X045969Y023003D01*
X046042Y022930D01*
X046709Y022930D01*
X046831Y023052D01*
X047006Y023124D01*
X047194Y023124D01*
X047369Y023052D01*
X047502Y022919D01*
X047574Y022744D01*
X047574Y022556D01*
X047502Y022381D01*
X047369Y022248D01*
X047194Y022176D01*
X047006Y022176D01*
X046831Y022248D01*
X046698Y022381D01*
X046626Y022556D01*
X046626Y022570D01*
X046042Y022570D01*
X045969Y022497D01*
X045859Y022452D01*
X045753Y022452D01*
X046080Y022125D01*
X046080Y021692D01*
X046153Y021619D01*
X046198Y021509D01*
X046198Y021391D01*
X046153Y021281D01*
X046069Y021197D01*
X045959Y021152D01*
X045841Y021152D01*
X045731Y021197D01*
X045647Y021281D01*
X045602Y021391D01*
X045602Y021509D01*
X045647Y021619D01*
X045720Y021692D01*
X045720Y021975D01*
X045325Y022370D01*
X045220Y022475D01*
X045220Y022925D01*
X046020Y023725D01*
X046125Y023830D01*
X046661Y023830D01*
X046698Y023919D01*
X046674Y023862D02*
X042554Y023862D01*
X042673Y023743D02*
X046038Y023743D01*
X045920Y023625D02*
X042700Y023625D01*
X042700Y023506D02*
X045801Y023506D01*
X045683Y023388D02*
X042700Y023388D01*
X042620Y023269D02*
X045564Y023269D01*
X045446Y023151D02*
X042620Y023151D01*
X042620Y023032D02*
X045327Y023032D01*
X045220Y022914D02*
X042620Y022914D01*
X042620Y022795D02*
X045220Y022795D01*
X045220Y022677D02*
X042620Y022677D01*
X042620Y022558D02*
X045220Y022558D01*
X045256Y022440D02*
X042620Y022440D01*
X041980Y022440D02*
X041810Y022440D01*
X041785Y022558D02*
X041980Y022558D01*
X041980Y022677D02*
X041798Y022677D01*
X041763Y022795D02*
X041980Y022795D01*
X041980Y022914D02*
X041644Y022914D01*
X041187Y022558D02*
X040292Y022558D01*
X040410Y022440D02*
X041288Y022440D01*
X041429Y022321D02*
X040529Y022321D01*
X040647Y022203D02*
X041547Y022203D01*
X041120Y022625D02*
X041120Y022625D01*
X041069Y022677D02*
X040173Y022677D01*
X040055Y022795D02*
X040950Y022795D01*
X040832Y022914D02*
X040000Y022914D01*
X040082Y023032D02*
X040713Y023032D01*
X040595Y023151D02*
X040201Y023151D01*
X040319Y023269D02*
X040476Y023269D01*
X040600Y024150D02*
X040797Y024347D01*
X040797Y024731D01*
X040780Y024691D02*
X040814Y024691D01*
X040814Y024656D02*
X040819Y024651D01*
X040819Y024546D01*
X040921Y024443D01*
X041066Y024443D01*
X041169Y024546D01*
X041169Y024551D01*
X041855Y024551D01*
X042075Y024770D01*
X043225Y024770D01*
X043300Y024695D01*
X043300Y024384D01*
X043534Y024150D01*
X043866Y024150D01*
X044100Y024384D01*
X044100Y024716D01*
X043866Y024950D01*
X043555Y024950D01*
X043375Y025130D01*
X041925Y025130D01*
X041820Y025025D01*
X041706Y024911D01*
X041169Y024911D01*
X041169Y024915D01*
X041066Y025018D01*
X040921Y025018D01*
X040819Y024915D01*
X040819Y024810D01*
X040814Y024805D01*
X040814Y024656D01*
X040819Y024573D02*
X040775Y024573D01*
X040683Y024454D02*
X040911Y024454D01*
X041077Y024454D02*
X043300Y024454D01*
X043300Y024573D02*
X041877Y024573D01*
X041996Y024691D02*
X043300Y024691D01*
X043300Y024950D02*
X043700Y024550D01*
X044100Y024573D02*
X049640Y024573D01*
X049640Y024691D02*
X044100Y024691D01*
X044006Y024810D02*
X049640Y024810D01*
X049640Y024928D02*
X043888Y024928D01*
X043458Y025047D02*
X049640Y025047D01*
X049640Y025165D02*
X040856Y025165D01*
X040780Y025047D02*
X041842Y025047D01*
X041723Y024928D02*
X041156Y024928D01*
X040994Y024731D02*
X041781Y024731D01*
X042000Y024950D01*
X043300Y024950D01*
X043349Y024336D02*
X037900Y024336D01*
X014133Y024336D01*
X014133Y024454D02*
X037900Y024454D01*
X037900Y024573D02*
X014133Y024573D01*
X014114Y024691D02*
X037900Y024691D01*
X037900Y024810D02*
X008228Y024810D01*
X008228Y024691D02*
X013086Y024691D01*
X013067Y024573D02*
X008228Y024573D01*
X008228Y024454D02*
X013067Y024454D01*
X013067Y024336D02*
X008228Y024336D01*
X008228Y024217D02*
X013067Y024217D01*
X013067Y024099D02*
X008228Y024099D01*
X007594Y024810D02*
X004900Y024810D01*
X004900Y024928D02*
X007609Y024928D01*
X007594Y025047D02*
X004900Y025047D01*
X004900Y025165D02*
X007594Y025165D01*
X007594Y025284D02*
X004900Y025284D01*
X004900Y025402D02*
X007639Y025402D01*
X008183Y025402D02*
X037900Y025402D01*
X037900Y025284D02*
X008228Y025284D01*
X008228Y025165D02*
X037900Y025165D01*
X037900Y025047D02*
X008228Y025047D01*
X008213Y024928D02*
X037900Y024928D01*
X037900Y025521D02*
X004900Y025521D01*
X004900Y025639D02*
X037900Y025639D01*
X037900Y025758D02*
X004900Y025758D01*
X004900Y025876D02*
X037900Y025876D01*
X040074Y025876D01*
X040192Y025758D02*
X039192Y025758D01*
X039100Y025850D02*
X037900Y025850D01*
X037900Y026450D01*
X039500Y026450D01*
X040400Y025550D01*
X040400Y025050D01*
X039900Y025050D01*
X039100Y025850D01*
X039311Y025639D02*
X040311Y025639D01*
X040400Y025521D02*
X039429Y025521D01*
X039548Y025402D02*
X040400Y025402D01*
X040400Y025284D02*
X039666Y025284D01*
X039785Y025165D02*
X040400Y025165D01*
X040403Y025147D02*
X039400Y026150D01*
X039300Y026150D01*
X039600Y026350D02*
X037900Y026350D01*
X037834Y026350D02*
X004900Y026350D01*
X004900Y026232D02*
X037800Y026232D01*
X037900Y026232D02*
X039718Y026232D01*
X039837Y026113D02*
X037900Y026113D01*
X037800Y026113D02*
X004900Y026113D01*
X004900Y025995D02*
X037800Y025995D01*
X037900Y025995D02*
X039955Y025995D01*
X040137Y026113D02*
X041225Y026113D01*
X041327Y026232D02*
X040018Y026232D01*
X039900Y026350D02*
X041864Y026350D01*
X041982Y026469D02*
X039781Y026469D01*
X039663Y026587D02*
X042101Y026587D01*
X042108Y026706D02*
X037900Y026706D01*
X004900Y026706D01*
X004900Y026824D02*
X037900Y026824D01*
X041990Y026824D01*
X041871Y026943D02*
X037900Y026943D01*
X004900Y026943D01*
X004900Y027061D02*
X037900Y027061D01*
X041850Y027061D01*
X041850Y027180D02*
X037900Y027180D01*
X004900Y027180D01*
X004900Y027298D02*
X037900Y027298D01*
X041850Y027298D01*
X041930Y027417D02*
X037900Y027417D01*
X004900Y027417D01*
X004900Y027535D02*
X037900Y027535D01*
X042049Y027535D01*
X042300Y027150D02*
X042300Y026150D01*
X043700Y026150D01*
X043992Y025876D02*
X049640Y025876D01*
X049640Y025758D02*
X043873Y025758D01*
X044100Y025995D02*
X049640Y025995D01*
X049640Y026113D02*
X044100Y026113D01*
X044100Y026232D02*
X049640Y026232D01*
X049640Y026350D02*
X044066Y026350D01*
X043947Y026469D02*
X049640Y026469D01*
X049640Y026587D02*
X042499Y026587D01*
X042492Y026706D02*
X049640Y026706D01*
X049640Y026824D02*
X042610Y026824D01*
X042729Y026943D02*
X049640Y026943D01*
X049640Y027061D02*
X042750Y027061D01*
X042750Y027180D02*
X049640Y027180D01*
X049640Y027298D02*
X042750Y027298D01*
X042670Y027417D02*
X049640Y027417D01*
X049640Y027535D02*
X042551Y027535D01*
X042618Y026469D02*
X043453Y026469D01*
X043334Y026350D02*
X042736Y026350D01*
X042662Y025876D02*
X043408Y025876D01*
X043527Y025758D02*
X042544Y025758D01*
X042300Y026150D02*
X041500Y026150D01*
X040600Y025150D01*
X040600Y024731D01*
X040780Y024810D02*
X040818Y024810D01*
X040831Y024928D02*
X040780Y024928D01*
X040962Y025284D02*
X049640Y025284D01*
X049640Y025402D02*
X041069Y025402D01*
X041176Y025521D02*
X049640Y025521D01*
X049640Y025639D02*
X041282Y025639D01*
X041389Y025758D02*
X042056Y025758D01*
X041938Y025876D02*
X041496Y025876D01*
X041118Y025995D02*
X040255Y025995D01*
X040374Y025876D02*
X041011Y025876D01*
X040905Y025758D02*
X040492Y025758D01*
X040600Y025639D02*
X040798Y025639D01*
X040691Y025521D02*
X040600Y025521D01*
X040403Y025147D02*
X040403Y024731D01*
X040200Y024691D02*
X039000Y024691D01*
X039000Y024650D02*
X039000Y025250D01*
X039300Y025250D01*
X039700Y024850D01*
X040200Y024850D01*
X040200Y024650D01*
X039000Y024650D01*
X039000Y024810D02*
X040200Y024810D01*
X040504Y024454D02*
X040517Y024454D01*
X039622Y024928D02*
X039000Y024928D01*
X039000Y025047D02*
X039503Y025047D01*
X039385Y025165D02*
X039000Y025165D01*
X037900Y024217D02*
X043467Y024217D01*
X043933Y024217D02*
X049640Y024217D01*
X049640Y024099D02*
X048257Y024099D01*
X048441Y023980D02*
X049640Y023980D01*
X049640Y023862D02*
X048526Y023862D01*
X048574Y023743D02*
X049640Y023743D01*
X049640Y023625D02*
X048574Y023625D01*
X048554Y023506D02*
X049640Y023506D01*
X049640Y023388D02*
X048505Y023388D01*
X048390Y023269D02*
X049640Y023269D01*
X049640Y023151D02*
X045955Y023151D01*
X045899Y023032D02*
X046811Y023032D01*
X046810Y023269D02*
X046074Y023269D01*
X046192Y023388D02*
X046695Y023388D01*
X047100Y023650D02*
X046200Y023650D01*
X045400Y022850D01*
X045400Y022550D01*
X045900Y022050D01*
X045900Y021450D01*
X046127Y021255D02*
X048879Y021255D01*
X048845Y021269D02*
X049010Y021200D01*
X049190Y021200D01*
X049355Y021269D01*
X049481Y021395D01*
X049550Y021560D01*
X049550Y021740D01*
X049481Y021905D01*
X049355Y022031D01*
X049190Y022100D01*
X049010Y022100D01*
X048845Y022031D01*
X048719Y021905D01*
X048650Y021740D01*
X048650Y021560D01*
X048719Y021395D01*
X048845Y021269D01*
X048741Y021373D02*
X046191Y021373D01*
X046198Y021492D02*
X048679Y021492D01*
X048650Y021610D02*
X046157Y021610D01*
X046080Y021729D02*
X048650Y021729D01*
X048695Y021847D02*
X046080Y021847D01*
X046080Y021966D02*
X048779Y021966D01*
X048972Y022084D02*
X046080Y022084D01*
X046002Y022203D02*
X046941Y022203D01*
X046758Y022321D02*
X045884Y022321D01*
X045765Y022440D02*
X046674Y022440D01*
X046626Y022558D02*
X046030Y022558D01*
X045800Y022750D02*
X047000Y022750D01*
X047100Y022650D01*
X047442Y022321D02*
X047758Y022321D01*
X047698Y022381D02*
X047831Y022248D01*
X048006Y022176D01*
X048194Y022176D01*
X048369Y022248D01*
X048502Y022381D01*
X048574Y022556D01*
X048574Y022744D01*
X048502Y022919D01*
X048369Y023052D01*
X048194Y023124D01*
X048006Y023124D01*
X047831Y023052D01*
X047698Y022919D01*
X047626Y022744D01*
X047626Y022556D01*
X047698Y022381D01*
X047674Y022440D02*
X047526Y022440D01*
X047574Y022558D02*
X047626Y022558D01*
X047626Y022677D02*
X047574Y022677D01*
X047553Y022795D02*
X047647Y022795D01*
X047696Y022914D02*
X047504Y022914D01*
X047389Y023032D02*
X047811Y023032D01*
X047810Y023269D02*
X047390Y023269D01*
X047505Y023388D02*
X047695Y023388D01*
X047674Y023862D02*
X047526Y023862D01*
X047441Y023980D02*
X047759Y023980D01*
X047943Y024099D02*
X047257Y024099D01*
X046943Y024099D02*
X037900Y024099D01*
X036106Y024099D01*
X035988Y024217D02*
X037900Y024217D01*
X037900Y023980D02*
X036225Y023980D01*
X034675Y023980D02*
X026071Y023980D01*
X026343Y023862D02*
X034557Y023862D01*
X034438Y023743D02*
X026461Y023743D01*
X026561Y023625D02*
X034320Y023625D01*
X034201Y023506D02*
X026610Y023506D01*
X026659Y023388D02*
X034083Y023388D01*
X033964Y023269D02*
X026664Y023269D01*
X026664Y023151D02*
X033846Y023151D01*
X033727Y023032D02*
X026648Y023032D01*
X026599Y022914D02*
X033609Y022914D01*
X033490Y022795D02*
X026550Y022795D01*
X026435Y022677D02*
X033372Y022677D01*
X033253Y022558D02*
X026293Y022558D01*
X024397Y022321D02*
X020126Y022321D01*
X020244Y022440D02*
X033135Y022440D01*
X036100Y021150D02*
X037200Y022250D01*
X037200Y022450D01*
X037600Y022850D01*
X037840Y023032D02*
X037900Y023032D01*
X037897Y022914D02*
X037900Y022914D01*
X037898Y022795D02*
X037900Y022795D01*
X037172Y022677D02*
X036803Y022677D01*
X036803Y022558D02*
X037053Y022558D01*
X037020Y022440D02*
X036803Y022440D01*
X036803Y022321D02*
X037016Y022321D01*
X036898Y022203D02*
X036803Y022203D01*
X037600Y022350D02*
X036100Y020850D01*
X024600Y020850D01*
X023800Y021650D01*
X023300Y021650D01*
X022900Y021250D01*
X022900Y020050D01*
X022200Y019350D01*
X021200Y019350D01*
X021098Y019248D01*
X019773Y019248D01*
X019773Y019052D02*
X021202Y019052D01*
X021300Y019150D01*
X022300Y019150D01*
X023100Y019950D01*
X023100Y020350D01*
X023400Y020650D01*
X036400Y020650D01*
X037600Y021850D01*
X037788Y022084D02*
X037900Y022084D01*
X037900Y021610D02*
X041805Y021610D01*
X041687Y021492D02*
X037900Y021492D01*
X037496Y021492D01*
X037378Y021373D02*
X037900Y021373D01*
X041568Y021373D01*
X041450Y021255D02*
X037900Y021255D01*
X037259Y021255D01*
X037141Y021136D02*
X037900Y021136D01*
X041331Y021136D01*
X041213Y021018D02*
X037900Y021018D01*
X037022Y021018D01*
X036904Y020899D02*
X037900Y020899D01*
X041094Y020899D01*
X040976Y020781D02*
X037900Y020781D01*
X036785Y020781D01*
X036667Y020662D02*
X037900Y020662D01*
X040857Y020662D01*
X040739Y020544D02*
X039706Y020544D01*
X039825Y020425D02*
X040620Y020425D01*
X040502Y020307D02*
X039943Y020307D01*
X040062Y020188D02*
X040383Y020188D01*
X040265Y020070D02*
X040180Y020070D01*
X039999Y019951D02*
X037900Y019951D01*
X037900Y019850D02*
X037900Y020450D01*
X039500Y020450D01*
X040400Y019550D01*
X040400Y019050D01*
X039700Y019050D01*
X038900Y019850D01*
X037900Y019850D01*
X037900Y020070D02*
X039880Y020070D01*
X039762Y020188D02*
X037900Y020188D01*
X037900Y020307D02*
X039643Y020307D01*
X039525Y020425D02*
X037900Y020425D01*
X037174Y020544D02*
X036548Y020544D01*
X036802Y020188D02*
X024070Y020188D01*
X024070Y020070D02*
X036683Y020070D01*
X036565Y019951D02*
X024066Y019951D01*
X023947Y019833D02*
X036446Y019833D01*
X036381Y019714D02*
X023829Y019714D01*
X023795Y019620D02*
X023405Y019620D01*
X023130Y019345D01*
X023130Y018955D01*
X023405Y018680D01*
X023795Y018680D01*
X024070Y018955D01*
X024070Y019345D01*
X023795Y019620D01*
X023819Y019596D02*
X036350Y019596D01*
X036350Y019477D02*
X023938Y019477D01*
X024056Y019359D02*
X036350Y019359D01*
X036350Y019240D02*
X024070Y019240D01*
X024070Y019122D02*
X036350Y019122D01*
X036350Y019003D02*
X024070Y019003D01*
X023999Y018885D02*
X036350Y018885D01*
X036350Y018766D02*
X023881Y018766D01*
X023886Y018529D02*
X036350Y018529D01*
X036350Y018411D02*
X024004Y018411D01*
X024070Y018292D02*
X036350Y018292D01*
X036350Y018174D02*
X024070Y018174D01*
X024070Y018055D02*
X036350Y018055D01*
X036350Y017937D02*
X024051Y017937D01*
X023987Y017818D02*
X036350Y017818D01*
X036350Y017700D02*
X024105Y017700D01*
X024224Y017581D02*
X036350Y017581D01*
X036350Y017463D02*
X024342Y017463D01*
X024380Y017344D02*
X036350Y017344D01*
X036350Y017226D02*
X024380Y017226D01*
X024380Y017107D02*
X036350Y017107D01*
X036350Y016989D02*
X024380Y016989D01*
X024380Y016870D02*
X036350Y016870D01*
X036350Y016752D02*
X024380Y016752D01*
X024380Y016633D02*
X036350Y016633D01*
X036350Y016515D02*
X024380Y016515D01*
X024380Y016396D02*
X036350Y016396D01*
X036350Y016278D02*
X024380Y016278D01*
X024380Y016159D02*
X036350Y016159D01*
X036350Y016041D02*
X024380Y016041D01*
X024380Y015922D02*
X036350Y015922D01*
X036350Y015804D02*
X024308Y015804D01*
X024200Y015950D02*
X023800Y015550D01*
X030000Y015550D01*
X031894Y013656D01*
X031900Y013650D01*
X031894Y013656D02*
X031872Y013656D01*
X032169Y013671D02*
X033502Y013671D01*
X033502Y013709D02*
X033502Y013591D01*
X033511Y013567D01*
X033511Y013252D01*
X033582Y013182D01*
X034036Y013182D01*
X034106Y013252D01*
X034106Y014060D01*
X034036Y014131D01*
X033582Y014131D01*
X033511Y014060D01*
X033511Y013733D01*
X033502Y013709D01*
X033511Y013789D02*
X032169Y013789D01*
X032169Y013908D02*
X033511Y013908D01*
X033511Y014026D02*
X032169Y014026D01*
X031660Y014145D02*
X036350Y014145D01*
X036350Y014263D02*
X031542Y014263D01*
X031423Y014382D02*
X036350Y014382D01*
X036350Y014500D02*
X031305Y014500D01*
X031186Y014619D02*
X036350Y014619D01*
X036350Y014737D02*
X031068Y014737D01*
X030949Y014856D02*
X036350Y014856D01*
X036350Y014974D02*
X030831Y014974D01*
X030712Y015093D02*
X036350Y015093D01*
X036350Y015211D02*
X030594Y015211D01*
X030475Y015330D02*
X036350Y015330D01*
X036350Y015448D02*
X030357Y015448D01*
X030238Y015567D02*
X036350Y015567D01*
X036350Y015685D02*
X030120Y015685D01*
X030180Y015625D02*
X030180Y015625D01*
X029966Y015330D02*
X023834Y015330D01*
X023716Y015211D02*
X030084Y015211D01*
X030203Y015093D02*
X023597Y015093D01*
X023479Y014974D02*
X030321Y014974D01*
X030440Y014856D02*
X023360Y014856D01*
X023242Y014737D02*
X030558Y014737D01*
X030677Y014619D02*
X023123Y014619D01*
X023005Y014500D02*
X030795Y014500D01*
X030914Y014382D02*
X022886Y014382D01*
X022768Y014263D02*
X031032Y014263D01*
X031151Y014145D02*
X022649Y014145D01*
X022500Y014250D02*
X021000Y014250D01*
X021000Y013747D01*
X020984Y013731D01*
X021178Y013671D02*
X026653Y013671D01*
X026653Y013789D02*
X021180Y013789D01*
X021180Y013908D02*
X026653Y013908D01*
X026653Y014026D02*
X021180Y014026D01*
X021000Y014250D02*
X021000Y014350D01*
X020800Y014550D01*
X017900Y014550D01*
X017411Y015039D01*
X017300Y014928D01*
X017300Y013550D01*
X017529Y013321D01*
X017529Y013150D01*
X017748Y013315D02*
X018431Y013315D01*
X018431Y013197D02*
X018076Y013197D01*
X018170Y013078D02*
X018441Y013078D01*
X018475Y012960D02*
X018198Y012960D01*
X018178Y012841D02*
X018670Y012841D01*
X018452Y012723D02*
X018095Y012723D01*
X017900Y012930D02*
X017529Y012559D01*
X017748Y012486D02*
X018342Y012486D01*
X018452Y012604D02*
X017828Y012604D01*
X017723Y012367D02*
X018224Y012367D01*
X018261Y012150D02*
X018671Y012559D01*
X018614Y012249D02*
X018759Y012249D01*
X018641Y012130D02*
X018496Y012130D01*
X018522Y012012D02*
X018377Y012012D01*
X018404Y011893D02*
X015100Y011893D01*
X015100Y011775D02*
X018285Y011775D01*
X018608Y011419D02*
X020548Y011419D01*
X020548Y011301D02*
X018490Y011301D01*
X018727Y011538D02*
X020548Y011538D01*
X020548Y011656D02*
X018845Y011656D01*
X018964Y011775D02*
X020185Y011775D01*
X020042Y011893D02*
X019082Y011893D01*
X019201Y012012D02*
X020002Y012012D01*
X020010Y012130D02*
X019310Y012130D01*
X019340Y012249D02*
X020076Y012249D01*
X020042Y012367D02*
X019340Y012367D01*
X019340Y012486D02*
X019559Y012486D01*
X019437Y012604D02*
X019340Y012604D01*
X019340Y012723D02*
X019402Y012723D01*
X019415Y012841D02*
X019322Y012841D01*
X019230Y012960D02*
X019487Y012960D01*
X019700Y012750D02*
X019881Y012569D01*
X020216Y012569D01*
X020017Y012841D02*
X019985Y012841D01*
X020017Y012960D02*
X019913Y012960D01*
X020017Y013078D02*
X019111Y013078D01*
X018993Y013197D02*
X020017Y013197D01*
X020017Y013315D02*
X018911Y013315D01*
X018911Y013434D02*
X020017Y013434D01*
X020059Y013552D02*
X018911Y013552D01*
X018911Y013671D02*
X020283Y013671D01*
X020283Y013789D02*
X018911Y013789D01*
X018889Y013908D02*
X019970Y013908D01*
X019878Y014026D02*
X018098Y014026D01*
X018084Y014145D02*
X019852Y014145D01*
X019874Y014263D02*
X018009Y014263D01*
X017814Y014382D02*
X017480Y014382D01*
X017480Y014500D02*
X017695Y014500D01*
X017577Y014619D02*
X017480Y014619D01*
X017480Y014263D02*
X017591Y014263D01*
X017516Y014145D02*
X017480Y014145D01*
X017480Y014026D02*
X017502Y014026D01*
X017529Y013741D02*
X017800Y014011D01*
X017800Y014050D01*
X018064Y013908D02*
X018452Y013908D01*
X018431Y013789D02*
X017950Y013789D01*
X017748Y013671D02*
X018431Y013671D01*
X018431Y013552D02*
X017727Y013552D01*
X017671Y013434D02*
X018431Y013434D01*
X017900Y012950D02*
X017900Y012930D01*
X017400Y012150D02*
X017100Y012450D01*
X017100Y015050D01*
X017214Y015164D01*
X017214Y017477D01*
X017017Y017477D02*
X016991Y017450D01*
X007900Y017450D01*
X006300Y019050D01*
X006300Y019550D01*
X004700Y021150D01*
X004289Y021150D01*
X004289Y020650D02*
X004500Y020650D01*
X004700Y020450D01*
X004700Y019350D01*
X004500Y019150D01*
X006500Y019150D02*
X006500Y019650D01*
X004500Y021650D01*
X004289Y021650D01*
X004900Y021550D02*
X004900Y022250D01*
X004500Y022650D01*
X004289Y022650D01*
X004900Y021550D02*
X006700Y019750D01*
X006700Y019250D01*
X008100Y017850D01*
X015700Y017850D01*
X016114Y018264D01*
X016427Y018264D01*
X016427Y018067D02*
X016317Y018067D01*
X015900Y017650D01*
X008000Y017650D01*
X006500Y019150D01*
X007500Y019150D02*
X007500Y022550D01*
X007600Y022650D01*
X007911Y022650D01*
X011785Y023269D02*
X013067Y023269D01*
X013067Y023388D02*
X011903Y023388D01*
X011954Y023862D02*
X013067Y023862D01*
X013067Y023980D02*
X011836Y023980D01*
X014780Y020781D02*
X015461Y020781D01*
X015523Y020662D02*
X014780Y020662D01*
X014780Y020544D02*
X015653Y020544D01*
X016071Y020307D02*
X014998Y020307D01*
X014880Y020425D02*
X018453Y020425D01*
X018986Y020823D02*
X019000Y020837D01*
X019000Y021150D01*
X019100Y021250D01*
X022350Y021250D01*
X022800Y021650D02*
X018300Y021650D01*
X017805Y021155D01*
X017805Y020823D01*
X019183Y020823D02*
X019209Y020850D01*
X021900Y020850D01*
X022500Y020450D02*
X019500Y020450D01*
X017900Y018850D01*
X017900Y018350D01*
X018400Y017850D01*
X018400Y017481D01*
X018395Y017477D01*
X018592Y017477D02*
X018592Y017142D01*
X018500Y017050D01*
X018500Y016750D01*
X018800Y016450D01*
X019003Y016231D02*
X018969Y016197D01*
X018859Y016152D01*
X018741Y016152D01*
X018631Y016197D01*
X018547Y016281D01*
X018502Y016391D01*
X018502Y016494D01*
X018320Y016675D01*
X018320Y017121D01*
X017985Y017121D01*
X017985Y015720D01*
X018316Y015388D01*
X018331Y015403D01*
X018441Y015448D01*
X018559Y015448D01*
X018669Y015403D01*
X018753Y015319D01*
X018798Y015209D01*
X018798Y015130D01*
X022098Y015130D01*
X022058Y015170D01*
X021225Y015170D01*
X021120Y015275D01*
X019593Y016802D01*
X019593Y017888D01*
X019487Y017888D01*
X019417Y017959D01*
X019417Y018084D01*
X019089Y018084D01*
X018940Y018084D01*
X018754Y018270D01*
X018542Y018270D01*
X018469Y018197D01*
X018359Y018152D01*
X018353Y018152D01*
X018475Y018030D01*
X018580Y017925D01*
X018580Y017833D01*
X018898Y017833D01*
X018968Y017763D01*
X018968Y017552D01*
X018969Y017551D01*
X018969Y017153D01*
X018969Y017153D01*
X019003Y017119D01*
X019003Y017551D01*
X019004Y017552D01*
X019004Y017763D01*
X019074Y017833D01*
X019291Y017833D01*
X019362Y017763D01*
X019362Y017552D01*
X019363Y017551D01*
X019363Y016150D01*
X019566Y016150D01*
X019800Y015916D01*
X019800Y015584D01*
X019566Y015350D01*
X019234Y015350D01*
X019000Y015584D01*
X019000Y015916D01*
X019003Y015918D01*
X019003Y016231D01*
X019003Y016159D02*
X018877Y016159D01*
X018723Y016159D02*
X017985Y016159D01*
X017985Y016041D02*
X019003Y016041D01*
X019003Y015922D02*
X017985Y015922D01*
X017985Y015804D02*
X019000Y015804D01*
X019000Y015685D02*
X018020Y015685D01*
X018138Y015567D02*
X019018Y015567D01*
X019136Y015448D02*
X018560Y015448D01*
X018440Y015448D02*
X018257Y015448D01*
X018500Y015150D02*
X018400Y015050D01*
X018500Y014950D01*
X022400Y014950D01*
X023600Y016150D01*
X023130Y016159D02*
X022980Y016159D01*
X022980Y016278D02*
X023130Y016278D01*
X023181Y016396D02*
X022980Y016396D01*
X022980Y016515D02*
X023300Y016515D01*
X023334Y016752D02*
X022953Y016752D01*
X022980Y016633D02*
X024020Y016633D01*
X024020Y016515D02*
X023900Y016515D01*
X024019Y016396D02*
X024020Y016396D01*
X024020Y016752D02*
X023866Y016752D01*
X023985Y016870D02*
X024020Y016870D01*
X023215Y016870D02*
X022835Y016870D01*
X022716Y016989D02*
X023130Y016989D01*
X023130Y017107D02*
X022598Y017107D01*
X022479Y017226D02*
X023130Y017226D01*
X023130Y017344D02*
X022361Y017344D01*
X022242Y017463D02*
X023248Y017463D01*
X023366Y017581D02*
X022124Y017581D01*
X022005Y017700D02*
X023386Y017700D01*
X023267Y017818D02*
X021887Y017818D01*
X021800Y017650D02*
X022800Y016650D01*
X022800Y015850D01*
X022705Y015567D02*
X022506Y015567D01*
X022469Y015603D02*
X022359Y015648D01*
X022241Y015648D01*
X022131Y015603D01*
X022058Y015530D01*
X021375Y015530D01*
X019953Y016951D01*
X019953Y017888D01*
X020059Y017888D01*
X020129Y017959D01*
X020129Y018478D01*
X020218Y018478D01*
X021120Y017575D01*
X021225Y017470D01*
X021725Y017470D01*
X022620Y016575D01*
X022620Y016092D01*
X022547Y016019D01*
X022502Y015909D01*
X022502Y015791D01*
X022547Y015681D01*
X022631Y015597D01*
X022741Y015552D01*
X022747Y015552D01*
X022598Y015403D01*
X022598Y015409D01*
X022553Y015519D01*
X022469Y015603D01*
X022545Y015685D02*
X021220Y015685D01*
X021338Y015567D02*
X022094Y015567D01*
X022300Y015350D02*
X021300Y015350D01*
X019773Y016877D01*
X019773Y018067D01*
X019773Y018264D02*
X019014Y018264D01*
X018828Y018450D01*
X018300Y018450D01*
X018412Y018174D02*
X018850Y018174D01*
X018800Y018000D02*
X018986Y017814D01*
X018986Y017477D01*
X018969Y017463D02*
X019003Y017463D01*
X019004Y017581D02*
X018968Y017581D01*
X018968Y017700D02*
X019004Y017700D01*
X019059Y017818D02*
X018913Y017818D01*
X018789Y017477D02*
X018789Y016961D01*
X018800Y016900D01*
X018969Y017226D02*
X019003Y017226D01*
X019003Y017344D02*
X018969Y017344D01*
X019183Y017477D02*
X019183Y015967D01*
X019400Y015750D01*
X019675Y016041D02*
X020355Y016041D01*
X020236Y016159D02*
X019363Y016159D01*
X019363Y016278D02*
X020118Y016278D01*
X019999Y016396D02*
X019363Y016396D01*
X019363Y016515D02*
X019881Y016515D01*
X019762Y016633D02*
X019363Y016633D01*
X019363Y016752D02*
X019644Y016752D01*
X019593Y016870D02*
X019363Y016870D01*
X019363Y016989D02*
X019593Y016989D01*
X019593Y017107D02*
X019363Y017107D01*
X019363Y017226D02*
X019593Y017226D01*
X019593Y017344D02*
X019363Y017344D01*
X019363Y017463D02*
X019593Y017463D01*
X019593Y017581D02*
X019362Y017581D01*
X019362Y017700D02*
X019593Y017700D01*
X019593Y017818D02*
X019306Y017818D01*
X019439Y017937D02*
X018568Y017937D01*
X018450Y018055D02*
X019417Y018055D01*
X019289Y018461D02*
X019100Y018650D01*
X019289Y018461D02*
X019773Y018461D01*
X019773Y018658D02*
X020292Y018658D01*
X021300Y017650D01*
X021800Y017650D01*
X021733Y017463D02*
X020832Y017463D01*
X020866Y017448D02*
X020693Y017520D01*
X020507Y017520D01*
X020334Y017448D01*
X020202Y017316D01*
X020130Y017143D01*
X020130Y016957D01*
X020202Y016784D01*
X020334Y016652D01*
X020507Y016580D01*
X020693Y016580D01*
X020866Y016652D01*
X020998Y016784D01*
X021070Y016957D01*
X021070Y017143D01*
X020998Y017316D01*
X020866Y017448D01*
X020971Y017344D02*
X021851Y017344D01*
X021970Y017226D02*
X021036Y017226D01*
X021070Y017107D02*
X022088Y017107D01*
X022207Y016989D02*
X021070Y016989D01*
X021034Y016870D02*
X022325Y016870D01*
X022444Y016752D02*
X020966Y016752D01*
X020822Y016633D02*
X022562Y016633D01*
X022620Y016515D02*
X020390Y016515D01*
X020378Y016633D02*
X020272Y016633D01*
X020234Y016752D02*
X020153Y016752D01*
X020166Y016870D02*
X020035Y016870D01*
X019953Y016989D02*
X020130Y016989D01*
X020130Y017107D02*
X019953Y017107D01*
X019953Y017226D02*
X020164Y017226D01*
X020229Y017344D02*
X019953Y017344D01*
X019953Y017463D02*
X020368Y017463D01*
X019953Y017581D02*
X021114Y017581D01*
X020996Y017700D02*
X019953Y017700D01*
X019953Y017818D02*
X020877Y017818D01*
X020759Y017937D02*
X020107Y017937D01*
X020129Y018055D02*
X020640Y018055D01*
X020522Y018174D02*
X020129Y018174D01*
X020129Y018292D02*
X020403Y018292D01*
X020285Y018411D02*
X020129Y018411D01*
X020557Y018648D02*
X020748Y018648D01*
X020676Y018529D02*
X020866Y018529D01*
X020794Y018411D02*
X020985Y018411D01*
X020913Y018292D02*
X021103Y018292D01*
X021031Y018174D02*
X021222Y018174D01*
X021150Y018055D02*
X023130Y018055D01*
X023130Y018174D02*
X021878Y018174D01*
X021997Y018292D02*
X023130Y018292D01*
X023196Y018411D02*
X022115Y018411D01*
X022234Y018529D02*
X023314Y018529D01*
X023319Y018766D02*
X022471Y018766D01*
X022589Y018885D02*
X023201Y018885D01*
X023130Y019003D02*
X022708Y019003D01*
X022826Y019122D02*
X023130Y019122D01*
X023130Y019240D02*
X022945Y019240D01*
X023063Y019359D02*
X023144Y019359D01*
X023182Y019477D02*
X023262Y019477D01*
X023300Y019596D02*
X023381Y019596D01*
X023600Y020150D02*
X021800Y018350D01*
X021300Y018350D01*
X020795Y018855D01*
X019773Y018855D01*
X019417Y018885D02*
X019288Y018885D01*
X019269Y018903D02*
X019159Y018948D01*
X019041Y018948D01*
X018931Y018903D01*
X018847Y018819D01*
X018802Y018709D01*
X018802Y018630D01*
X018542Y018630D01*
X018469Y018703D01*
X018359Y018748D01*
X018241Y018748D01*
X018131Y018703D01*
X018080Y018652D01*
X018080Y018775D01*
X019423Y020118D01*
X019487Y020054D01*
X019698Y020054D01*
X019699Y020053D01*
X020943Y020053D01*
X021100Y019895D01*
X021100Y019584D01*
X021154Y019530D01*
X021125Y019530D01*
X021024Y019428D01*
X020129Y019428D01*
X020129Y019751D01*
X020129Y019948D01*
X020059Y020018D01*
X019487Y020018D01*
X019417Y019948D01*
X019417Y018641D01*
X019398Y018641D01*
X019398Y018709D01*
X019353Y018819D01*
X019269Y018903D01*
X019375Y018766D02*
X019417Y018766D01*
X019417Y018648D02*
X019398Y018648D01*
X019417Y019003D02*
X018308Y019003D01*
X018426Y019122D02*
X019417Y019122D01*
X019417Y019240D02*
X018545Y019240D01*
X018663Y019359D02*
X019417Y019359D01*
X019417Y019477D02*
X018782Y019477D01*
X018900Y019596D02*
X019417Y019596D01*
X019417Y019714D02*
X019019Y019714D01*
X019137Y019833D02*
X019417Y019833D01*
X019420Y019951D02*
X019256Y019951D01*
X019374Y020070D02*
X019471Y020070D01*
X019773Y020036D02*
X020314Y020036D01*
X020500Y019850D01*
X020129Y019833D02*
X021100Y019833D01*
X021100Y019714D02*
X020129Y019714D01*
X020129Y019596D02*
X021100Y019596D01*
X021072Y019477D02*
X020129Y019477D01*
X020126Y019951D02*
X021044Y019951D01*
X021017Y020233D02*
X021500Y019750D01*
X021017Y020233D02*
X019773Y020233D01*
X018912Y018885D02*
X018189Y018885D01*
X018080Y018766D02*
X018825Y018766D01*
X018802Y018648D02*
X018525Y018648D01*
X017720Y018648D02*
X015952Y018648D01*
X015834Y018529D02*
X016071Y018529D01*
X016006Y018411D02*
X015900Y018411D01*
X015561Y018766D02*
X014133Y018766D01*
X014133Y018648D02*
X015332Y018648D01*
X015680Y018885D02*
X014133Y018885D01*
X014133Y019003D02*
X015798Y019003D01*
X015318Y019477D02*
X014157Y019477D01*
X014133Y019596D02*
X015200Y019596D01*
X015081Y019714D02*
X014133Y019714D01*
X014133Y019833D02*
X014963Y019833D01*
X015235Y020070D02*
X016071Y020070D01*
X016071Y020188D02*
X015117Y020188D01*
X015354Y019951D02*
X016071Y019951D01*
X016071Y019833D02*
X015472Y019833D01*
X015591Y019714D02*
X016071Y019714D01*
X016783Y018529D02*
X017720Y018529D01*
X017720Y018411D02*
X016783Y018411D01*
X016783Y018292D02*
X017720Y018292D01*
X017822Y018174D02*
X016783Y018174D01*
X016783Y018055D02*
X017940Y018055D01*
X018059Y017937D02*
X016761Y017937D01*
X016894Y017818D02*
X016323Y017818D01*
X016204Y017700D02*
X016838Y017700D01*
X016838Y017226D02*
X009100Y017226D01*
X009100Y017107D02*
X017034Y017107D01*
X017034Y016989D02*
X009100Y016989D01*
X009100Y016870D02*
X017034Y016870D01*
X017034Y016752D02*
X009100Y016752D01*
X009100Y016633D02*
X017034Y016633D01*
X017034Y016515D02*
X009100Y016515D01*
X009100Y016396D02*
X017034Y016396D01*
X017034Y016278D02*
X009100Y016278D01*
X009100Y016159D02*
X017034Y016159D01*
X017034Y016041D02*
X015100Y016041D01*
X015100Y015922D02*
X017034Y015922D01*
X017034Y015804D02*
X015100Y015804D01*
X015100Y015685D02*
X017034Y015685D01*
X017034Y015567D02*
X015100Y015567D01*
X015100Y015448D02*
X017034Y015448D01*
X017034Y015330D02*
X015100Y015330D01*
X015100Y015211D02*
X017006Y015211D01*
X016920Y015093D02*
X015100Y015093D01*
X015100Y014974D02*
X016920Y014974D01*
X016920Y014856D02*
X015100Y014856D01*
X015100Y014737D02*
X016920Y014737D01*
X016920Y014619D02*
X015100Y014619D01*
X015100Y014500D02*
X016920Y014500D01*
X016920Y014382D02*
X015100Y014382D01*
X015100Y014263D02*
X016920Y014263D01*
X016920Y014145D02*
X015100Y014145D01*
X015100Y014026D02*
X016920Y014026D01*
X016920Y013908D02*
X015100Y013908D01*
X015100Y013789D02*
X016920Y013789D01*
X016920Y013671D02*
X015100Y013671D01*
X015100Y013552D02*
X016920Y013552D01*
X016920Y013434D02*
X015100Y013434D01*
X015100Y013315D02*
X016920Y013315D01*
X016920Y013197D02*
X015100Y013197D01*
X015100Y013078D02*
X016920Y013078D01*
X016920Y012960D02*
X015100Y012960D01*
X015100Y012841D02*
X016920Y012841D01*
X016920Y012723D02*
X015100Y012723D01*
X015100Y012604D02*
X016920Y012604D01*
X016920Y012486D02*
X015100Y012486D01*
X015100Y012367D02*
X016928Y012367D01*
X017047Y012249D02*
X015100Y012249D01*
X015100Y012130D02*
X017165Y012130D01*
X017284Y012012D02*
X015100Y012012D01*
X015100Y011656D02*
X016770Y011656D01*
X016697Y011586D02*
X016697Y011586D01*
X016422Y011538D02*
X015100Y011538D01*
X015100Y011419D02*
X016303Y011419D01*
X016200Y011301D02*
X015100Y011301D01*
X015100Y011182D02*
X016200Y011182D01*
X016200Y011064D02*
X015100Y011064D01*
X015100Y010945D02*
X016239Y010945D01*
X016358Y010827D02*
X015100Y010827D01*
X015100Y010708D02*
X018141Y010708D01*
X018141Y010590D02*
X015100Y010590D01*
X015100Y010471D02*
X018141Y010471D01*
X018145Y010353D02*
X015100Y010353D01*
X015100Y010234D02*
X021020Y010234D01*
X021020Y010116D02*
X015100Y010116D01*
X015100Y009997D02*
X018195Y009997D01*
X018212Y010014D02*
X018141Y009944D01*
X018141Y009096D01*
X018212Y009026D01*
X018823Y009026D01*
X018893Y009096D01*
X018893Y009944D01*
X018823Y010014D01*
X018212Y010014D01*
X018141Y009879D02*
X015100Y009879D01*
X015100Y009760D02*
X018141Y009760D01*
X018141Y009642D02*
X015100Y009642D01*
X015100Y009523D02*
X018141Y009523D01*
X018141Y009405D02*
X015100Y009405D01*
X015100Y009286D02*
X018141Y009286D01*
X018141Y009168D02*
X015100Y009168D01*
X015100Y009049D02*
X018189Y009049D01*
X018846Y009049D02*
X020354Y009049D01*
X020307Y009168D02*
X018893Y009168D01*
X018893Y009286D02*
X020307Y009286D01*
X020307Y009405D02*
X018893Y009405D01*
X018893Y009523D02*
X020307Y009523D01*
X020307Y009642D02*
X018893Y009642D01*
X018893Y009760D02*
X020307Y009760D01*
X020307Y009879D02*
X018893Y009879D01*
X018840Y009997D02*
X020360Y009997D01*
X020683Y009520D02*
X021200Y010037D01*
X021200Y011350D01*
X020984Y011566D01*
X020984Y012569D01*
X021173Y012604D02*
X022700Y012604D01*
X022700Y012616D02*
X022700Y012284D01*
X022780Y012204D01*
X022780Y011586D01*
X022829Y011469D01*
X022919Y011379D01*
X023647Y010650D01*
X023617Y010620D01*
X023507Y010620D01*
X023334Y010548D01*
X023202Y010416D01*
X023130Y010243D01*
X023130Y010057D01*
X023202Y009884D01*
X023334Y009752D01*
X023507Y009680D01*
X023693Y009680D01*
X023866Y009752D01*
X023998Y009884D01*
X024070Y010057D01*
X024070Y010167D01*
X024233Y010330D01*
X025123Y010330D01*
X025125Y010328D01*
X025264Y010270D01*
X025936Y010270D01*
X026075Y010328D01*
X026182Y010435D01*
X026240Y010574D01*
X026240Y010726D01*
X026182Y010865D01*
X026075Y010972D01*
X025936Y011030D01*
X025920Y011030D01*
X025920Y011270D01*
X025936Y011270D01*
X026075Y011328D01*
X026182Y011435D01*
X026240Y011574D01*
X026240Y011726D01*
X026182Y011865D01*
X026075Y011972D01*
X025936Y012030D01*
X025264Y012030D01*
X025125Y011972D01*
X025018Y011865D01*
X024960Y011726D01*
X024960Y011574D01*
X025018Y011435D01*
X025125Y011328D01*
X025264Y011270D01*
X025280Y011270D01*
X025280Y011030D01*
X025264Y011030D01*
X025125Y010972D01*
X025123Y010970D01*
X024233Y010970D01*
X023420Y011783D01*
X023420Y012204D01*
X023500Y012284D01*
X023500Y012616D01*
X023266Y012850D01*
X022934Y012850D01*
X022700Y012616D01*
X022700Y012486D02*
X021173Y012486D01*
X021164Y012367D02*
X022700Y012367D01*
X022736Y012249D02*
X021164Y012249D01*
X021164Y012130D02*
X022780Y012130D01*
X022780Y012012D02*
X021164Y012012D01*
X021164Y011893D02*
X022780Y011893D01*
X022780Y011775D02*
X021164Y011775D01*
X021164Y011656D02*
X022780Y011656D01*
X022800Y011538D02*
X021267Y011538D01*
X021380Y011419D02*
X022878Y011419D01*
X022919Y011379D02*
X022919Y011379D01*
X022997Y011301D02*
X021380Y011301D01*
X021380Y011182D02*
X023115Y011182D01*
X023234Y011064D02*
X021380Y011064D01*
X021380Y010945D02*
X023352Y010945D01*
X023471Y010827D02*
X021380Y010827D01*
X021380Y010708D02*
X023589Y010708D01*
X023433Y010590D02*
X021380Y010590D01*
X021380Y010471D02*
X023256Y010471D01*
X023175Y010353D02*
X021380Y010353D01*
X021380Y010234D02*
X023130Y010234D01*
X023130Y010116D02*
X021380Y010116D01*
X021380Y009997D02*
X023155Y009997D01*
X023207Y009879D02*
X021296Y009879D01*
X021177Y009760D02*
X023325Y009760D01*
X023875Y009760D02*
X027314Y009760D01*
X027196Y009642D02*
X021059Y009642D01*
X021059Y009523D02*
X027077Y009523D01*
X026959Y009405D02*
X021059Y009405D01*
X021059Y009286D02*
X026840Y009286D01*
X026722Y009168D02*
X021059Y009168D01*
X021011Y009049D02*
X026603Y009049D01*
X026485Y008931D02*
X015100Y008931D01*
X015100Y008812D02*
X026366Y008812D01*
X026248Y008694D02*
X015100Y008694D01*
X015100Y008575D02*
X026129Y008575D01*
X026011Y008457D02*
X015100Y008457D01*
X015100Y008338D02*
X025892Y008338D01*
X025774Y008220D02*
X015100Y008220D01*
X015100Y008101D02*
X025655Y008101D01*
X025537Y007983D02*
X015100Y007983D01*
X015100Y007864D02*
X025418Y007864D01*
X025300Y007746D02*
X015100Y007746D01*
X015100Y007627D02*
X025181Y007627D01*
X025063Y007509D02*
X015100Y007509D01*
X015100Y007390D02*
X024944Y007390D01*
X024826Y007272D02*
X015100Y007272D01*
X015100Y007153D02*
X024707Y007153D01*
X024589Y007035D02*
X015100Y007035D01*
X015100Y006916D02*
X024470Y006916D01*
X024419Y006865D02*
X024348Y006895D01*
X024052Y006895D01*
X023778Y006782D01*
X023568Y006572D01*
X023455Y006298D01*
X023455Y006002D01*
X023568Y005728D01*
X023778Y005518D01*
X024052Y005405D01*
X024348Y005405D01*
X024622Y005518D01*
X024832Y005728D01*
X024945Y006002D01*
X024945Y006298D01*
X024857Y006511D01*
X028616Y010270D01*
X028936Y010270D01*
X029075Y010328D01*
X029182Y010435D01*
X029240Y010574D01*
X029240Y010726D01*
X029182Y010865D01*
X029075Y010972D01*
X028936Y011030D01*
X028264Y011030D01*
X028125Y010972D01*
X028018Y010865D01*
X027960Y010726D01*
X027960Y010574D01*
X028009Y010455D01*
X024419Y006865D01*
X024906Y006561D02*
X037900Y006561D01*
X042920Y006561D01*
X042920Y006679D02*
X037900Y006679D01*
X025025Y006679D01*
X025143Y006798D02*
X037900Y006798D01*
X042920Y006798D01*
X042920Y006916D02*
X037900Y006916D01*
X025262Y006916D01*
X025380Y007035D02*
X037900Y007035D01*
X039466Y007035D01*
X039734Y007035D02*
X042920Y007035D01*
X042920Y007153D02*
X039980Y007153D01*
X040098Y007272D02*
X042920Y007272D01*
X042920Y007390D02*
X040163Y007390D01*
X040212Y007509D02*
X042920Y007509D01*
X042920Y007627D02*
X040220Y007627D01*
X040220Y007746D02*
X042868Y007746D01*
X042914Y007700D02*
X042920Y007700D01*
X042920Y006075D01*
X043220Y005775D01*
X043220Y005493D01*
X043443Y005270D01*
X043757Y005270D01*
X043957Y005470D01*
X045026Y005470D01*
X044944Y005388D01*
X044880Y005234D01*
X044880Y005066D01*
X044944Y004912D01*
X045062Y004794D01*
X045216Y004730D01*
X045438Y004730D01*
X045510Y004700D01*
X048590Y004700D01*
X048662Y004730D01*
X049050Y004730D01*
X049120Y004800D01*
X049120Y005700D01*
X049050Y005770D01*
X048150Y005770D01*
X048080Y005700D01*
X048080Y005600D01*
X045510Y005600D01*
X045438Y005570D01*
X045275Y005570D01*
X045435Y005730D01*
X045984Y005730D01*
X046138Y005794D01*
X046256Y005912D01*
X046320Y006066D01*
X046320Y006234D01*
X046256Y006388D01*
X046138Y006506D01*
X045984Y006570D01*
X045216Y006570D01*
X045062Y006506D01*
X044944Y006388D01*
X044880Y006234D01*
X044880Y006066D01*
X044944Y005912D01*
X045026Y005830D01*
X045025Y005830D01*
X043957Y005830D01*
X043757Y006030D01*
X043475Y006030D01*
X043280Y006225D01*
X043280Y007700D01*
X043286Y007700D01*
X043550Y007964D01*
X043550Y008336D01*
X043286Y008600D01*
X042914Y008600D01*
X042650Y008336D01*
X042650Y007964D01*
X042914Y007700D01*
X042750Y007864D02*
X040182Y007864D01*
X040133Y007983D02*
X042650Y007983D01*
X042650Y008101D02*
X040050Y008101D01*
X040050Y008220D02*
X042650Y008220D01*
X042652Y008338D02*
X040050Y008338D01*
X040050Y008457D02*
X042770Y008457D01*
X042889Y008575D02*
X040161Y008575D01*
X040280Y008694D02*
X045920Y008694D01*
X045920Y008812D02*
X040398Y008812D01*
X040517Y008931D02*
X045920Y008931D01*
X045920Y009049D02*
X040635Y009049D01*
X040754Y009168D02*
X045920Y009168D01*
X045845Y009269D02*
X045845Y009269D01*
X045828Y009286D02*
X043372Y009286D01*
X043355Y009269D02*
X043355Y009269D01*
X043481Y009395D02*
X043481Y009395D01*
X043491Y009405D02*
X045709Y009405D01*
X045719Y009395D02*
X045719Y009395D01*
X045650Y009523D02*
X043550Y009523D01*
X043550Y009642D02*
X045650Y009642D01*
X045650Y009760D02*
X043550Y009760D01*
X043508Y009879D02*
X045692Y009879D01*
X045719Y009905D02*
X045719Y009905D01*
X045811Y009997D02*
X043389Y009997D01*
X043481Y009905D02*
X043481Y009905D01*
X043271Y010116D02*
X047429Y010116D01*
X047548Y010234D02*
X043152Y010234D01*
X043034Y010353D02*
X047666Y010353D01*
X047785Y010471D02*
X042915Y010471D01*
X042797Y010590D02*
X047903Y010590D01*
X048022Y010708D02*
X042678Y010708D01*
X042560Y010827D02*
X048080Y010827D01*
X048080Y010945D02*
X042441Y010945D01*
X042323Y011064D02*
X048080Y011064D01*
X048600Y010650D02*
X049500Y011550D01*
X049500Y013850D01*
X048200Y015150D01*
X046100Y015150D01*
X046438Y015448D02*
X049640Y015448D01*
X049640Y015330D02*
X048275Y015330D01*
X048394Y015211D02*
X049640Y015211D01*
X049640Y015093D02*
X048512Y015093D01*
X048631Y014974D02*
X049640Y014974D01*
X049640Y014856D02*
X048749Y014856D01*
X048868Y014737D02*
X049640Y014737D01*
X049640Y014619D02*
X048986Y014619D01*
X049105Y014500D02*
X049640Y014500D01*
X049640Y014382D02*
X049223Y014382D01*
X049342Y014263D02*
X049640Y014263D01*
X049640Y014145D02*
X049460Y014145D01*
X049579Y014026D02*
X049640Y014026D01*
X049306Y013789D02*
X046297Y013789D01*
X046320Y013734D02*
X046256Y013888D01*
X046138Y014006D01*
X045984Y014070D01*
X045216Y014070D01*
X045062Y014006D01*
X044944Y013888D01*
X044880Y013734D01*
X044880Y013566D01*
X044944Y013412D01*
X045026Y013330D01*
X045025Y013330D01*
X043957Y013330D01*
X043757Y013530D01*
X043475Y013530D01*
X043280Y013725D01*
X043280Y014700D01*
X043286Y014700D01*
X043550Y014964D01*
X043550Y015336D01*
X043286Y015600D01*
X042914Y015600D01*
X042650Y015336D01*
X042650Y014964D01*
X042914Y014700D01*
X042920Y014700D01*
X042920Y013575D01*
X043025Y013470D01*
X043025Y013470D01*
X043220Y013275D01*
X043220Y012993D01*
X043443Y012770D01*
X043757Y012770D01*
X043957Y012970D01*
X045026Y012970D01*
X044944Y012888D01*
X044880Y012734D01*
X044880Y012566D01*
X044944Y012412D01*
X045062Y012294D01*
X045216Y012230D01*
X045438Y012230D01*
X045510Y012200D01*
X048283Y012200D01*
X048305Y012178D01*
X048497Y012099D01*
X048703Y012099D01*
X048895Y012178D01*
X049041Y012324D01*
X049120Y012515D01*
X049120Y012722D01*
X049041Y012913D01*
X048895Y013059D01*
X048703Y013139D01*
X048497Y013139D01*
X048404Y013100D01*
X045510Y013100D01*
X045438Y013070D01*
X045275Y013070D01*
X045435Y013230D01*
X045984Y013230D01*
X046138Y013294D01*
X046256Y013412D01*
X046320Y013566D01*
X046320Y013734D01*
X046320Y013671D02*
X049320Y013671D01*
X049320Y013552D02*
X046314Y013552D01*
X046265Y013434D02*
X049320Y013434D01*
X049320Y013315D02*
X046159Y013315D01*
X045457Y013078D02*
X045283Y013078D01*
X045401Y013197D02*
X049320Y013197D01*
X049320Y013078D02*
X048849Y013078D01*
X048994Y012960D02*
X049320Y012960D01*
X049320Y012841D02*
X049071Y012841D01*
X049120Y012723D02*
X049320Y012723D01*
X049320Y012604D02*
X049120Y012604D01*
X049108Y012486D02*
X049320Y012486D01*
X049320Y012367D02*
X049059Y012367D01*
X048965Y012249D02*
X049320Y012249D01*
X049320Y012130D02*
X048780Y012130D01*
X048420Y012130D02*
X042250Y012130D01*
X042250Y012012D02*
X049320Y012012D01*
X049320Y011893D02*
X042250Y011893D01*
X042250Y011775D02*
X049320Y011775D01*
X049320Y011656D02*
X042250Y011656D01*
X042250Y011538D02*
X049233Y011538D01*
X049114Y011419D02*
X042250Y011419D01*
X042250Y011301D02*
X048996Y011301D01*
X048877Y011182D02*
X042250Y011182D01*
X041350Y011182D02*
X037900Y011182D01*
X025920Y011182D01*
X025920Y011064D02*
X037900Y011064D01*
X041350Y011064D01*
X041259Y010945D02*
X037900Y010945D01*
X029102Y010945D01*
X029198Y010827D02*
X037900Y010827D01*
X041140Y010827D01*
X041022Y010708D02*
X037900Y010708D01*
X029240Y010708D01*
X029240Y010590D02*
X037900Y010590D01*
X040903Y010590D01*
X040785Y010471D02*
X037900Y010471D01*
X029197Y010471D01*
X029100Y010353D02*
X037900Y010353D01*
X040666Y010353D01*
X040548Y010234D02*
X037900Y010234D01*
X028580Y010234D01*
X028461Y010116D02*
X037900Y010116D01*
X040429Y010116D01*
X040311Y009997D02*
X037900Y009997D01*
X028343Y009997D01*
X028224Y009879D02*
X037900Y009879D01*
X040192Y009879D01*
X040074Y009760D02*
X037900Y009760D01*
X028106Y009760D01*
X027987Y009642D02*
X037900Y009642D01*
X039955Y009642D01*
X039837Y009523D02*
X037900Y009523D01*
X027869Y009523D01*
X027750Y009405D02*
X037900Y009405D01*
X039718Y009405D01*
X039600Y009286D02*
X037900Y009286D01*
X027632Y009286D01*
X027513Y009168D02*
X037900Y009168D01*
X039481Y009168D01*
X039363Y009049D02*
X037900Y009049D01*
X027395Y009049D01*
X027276Y008931D02*
X037900Y008931D01*
X039244Y008931D01*
X039180Y008812D02*
X037900Y008812D01*
X027158Y008812D01*
X027039Y008694D02*
X037900Y008694D01*
X039150Y008694D01*
X039150Y008575D02*
X037900Y008575D01*
X026921Y008575D01*
X026802Y008457D02*
X037900Y008457D01*
X039150Y008457D01*
X039150Y008338D02*
X037900Y008338D01*
X026684Y008338D01*
X026565Y008220D02*
X037900Y008220D01*
X039150Y008220D01*
X039150Y008101D02*
X037900Y008101D01*
X026447Y008101D01*
X026328Y007983D02*
X037900Y007983D01*
X039067Y007983D01*
X039018Y007864D02*
X037900Y007864D01*
X026210Y007864D01*
X026091Y007746D02*
X037900Y007746D01*
X038980Y007746D01*
X038980Y007627D02*
X037900Y007627D01*
X025973Y007627D01*
X025854Y007509D02*
X037900Y007509D01*
X038988Y007509D01*
X039037Y007390D02*
X037900Y007390D01*
X025736Y007390D01*
X025617Y007272D02*
X037900Y007272D01*
X039102Y007272D01*
X039220Y007153D02*
X037900Y007153D01*
X025499Y007153D01*
X024885Y006442D02*
X037900Y006442D01*
X042920Y006442D01*
X042920Y006324D02*
X037900Y006324D01*
X024935Y006324D01*
X024945Y006205D02*
X037900Y006205D01*
X042920Y006205D01*
X042920Y006087D02*
X037900Y006087D01*
X024945Y006087D01*
X024931Y005968D02*
X037900Y005968D01*
X043027Y005968D01*
X043146Y005850D02*
X037900Y005850D01*
X024882Y005850D01*
X024833Y005731D02*
X037900Y005731D01*
X043220Y005731D01*
X043220Y005613D02*
X037900Y005613D01*
X024716Y005613D01*
X024563Y005494D02*
X037900Y005494D01*
X042657Y005494D01*
X042693Y005530D02*
X042470Y005307D01*
X042470Y004993D01*
X042693Y004770D01*
X043007Y004770D01*
X043230Y004993D01*
X043230Y005307D01*
X043007Y005530D01*
X042693Y005530D01*
X042538Y005376D02*
X037900Y005376D01*
X015100Y005376D01*
X015100Y005494D02*
X018637Y005494D01*
X018578Y005518D02*
X018852Y005405D01*
X019148Y005405D01*
X019422Y005518D01*
X019632Y005728D01*
X019745Y006002D01*
X019745Y006298D01*
X019632Y006572D01*
X019422Y006782D01*
X019148Y006895D01*
X018852Y006895D01*
X018578Y006782D01*
X018368Y006572D01*
X018255Y006298D01*
X018255Y006002D01*
X018368Y005728D01*
X018578Y005518D01*
X018484Y005613D02*
X015100Y005613D01*
X015100Y005731D02*
X018367Y005731D01*
X018318Y005850D02*
X015100Y005850D01*
X015100Y005968D02*
X018269Y005968D01*
X018255Y006087D02*
X015100Y006087D01*
X015100Y006205D02*
X018255Y006205D01*
X018265Y006324D02*
X015100Y006324D01*
X015100Y006442D02*
X018315Y006442D01*
X018364Y006561D02*
X015100Y006561D01*
X015100Y006679D02*
X018475Y006679D01*
X018616Y006798D02*
X015100Y006798D01*
X015100Y005257D02*
X037900Y005257D01*
X042470Y005257D01*
X042470Y005139D02*
X037900Y005139D01*
X015100Y005139D01*
X015100Y005020D02*
X037900Y005020D01*
X042470Y005020D01*
X042561Y004902D02*
X037900Y004902D01*
X015100Y004902D01*
X015100Y004783D02*
X037900Y004783D01*
X042680Y004783D01*
X043020Y004783D02*
X045088Y004783D01*
X044955Y004902D02*
X043139Y004902D01*
X043230Y005020D02*
X044899Y005020D01*
X044880Y005139D02*
X043230Y005139D01*
X043230Y005257D02*
X044890Y005257D01*
X044939Y005376D02*
X043863Y005376D01*
X043600Y005650D02*
X045100Y005650D01*
X045600Y006150D01*
X045194Y006561D02*
X043280Y006561D01*
X043280Y006679D02*
X049640Y006679D01*
X049640Y006561D02*
X046006Y006561D01*
X046202Y006442D02*
X049640Y006442D01*
X049640Y006324D02*
X046283Y006324D01*
X046320Y006205D02*
X049640Y006205D01*
X049640Y006087D02*
X046320Y006087D01*
X046279Y005968D02*
X049640Y005968D01*
X049640Y005850D02*
X046193Y005850D01*
X045986Y005731D02*
X048111Y005731D01*
X048080Y005613D02*
X045317Y005613D01*
X045007Y005850D02*
X043938Y005850D01*
X043819Y005968D02*
X044921Y005968D01*
X044880Y006087D02*
X043418Y006087D01*
X043300Y006205D02*
X044880Y006205D01*
X044917Y006324D02*
X043280Y006324D01*
X043280Y006442D02*
X044998Y006442D01*
X043600Y005650D02*
X043100Y006150D01*
X043100Y008150D01*
X043430Y008457D02*
X045770Y008457D01*
X045889Y008575D02*
X043311Y008575D01*
X043548Y008338D02*
X045652Y008338D01*
X045650Y008220D02*
X043550Y008220D01*
X043550Y008101D02*
X045650Y008101D01*
X045650Y007983D02*
X043550Y007983D01*
X043450Y007864D02*
X045750Y007864D01*
X045868Y007746D02*
X043332Y007746D01*
X043280Y007627D02*
X048150Y007627D01*
X048150Y007509D02*
X043280Y007509D01*
X043280Y007390D02*
X048108Y007390D01*
X048080Y007272D02*
X043280Y007272D01*
X043280Y007153D02*
X048080Y007153D01*
X048113Y007035D02*
X043280Y007035D01*
X043280Y006916D02*
X048167Y006916D01*
X048286Y006798D02*
X043280Y006798D01*
X043220Y005494D02*
X043043Y005494D01*
X043162Y005376D02*
X043337Y005376D01*
X046332Y007746D02*
X048150Y007746D01*
X048150Y007864D02*
X046450Y007864D01*
X046550Y007983D02*
X048150Y007983D01*
X048150Y008101D02*
X046550Y008101D01*
X046550Y008220D02*
X048150Y008220D01*
X048150Y008338D02*
X046548Y008338D01*
X046430Y008457D02*
X048150Y008457D01*
X048139Y008575D02*
X046311Y008575D01*
X046280Y008694D02*
X048020Y008694D01*
X047902Y008812D02*
X046280Y008812D01*
X046280Y008931D02*
X047783Y008931D01*
X047665Y009049D02*
X046280Y009049D01*
X046280Y009168D02*
X047546Y009168D01*
X048345Y009642D02*
X049640Y009642D01*
X049640Y009760D02*
X048346Y009760D01*
X048465Y009879D02*
X049640Y009879D01*
X049640Y009997D02*
X048583Y009997D01*
X048702Y010116D02*
X049640Y010116D01*
X049640Y010234D02*
X049120Y010234D01*
X049120Y010353D02*
X049640Y010353D01*
X049640Y010471D02*
X049120Y010471D01*
X049120Y010590D02*
X049640Y010590D01*
X049640Y010708D02*
X049120Y010708D01*
X049120Y010827D02*
X049640Y010827D01*
X049640Y010945D02*
X049150Y010945D01*
X049268Y011064D02*
X049640Y011064D01*
X049640Y011182D02*
X049387Y011182D01*
X049505Y011301D02*
X049640Y011301D01*
X049640Y011419D02*
X049624Y011419D01*
X049640Y009523D02*
X048463Y009523D01*
X048582Y009405D02*
X049640Y009405D01*
X049640Y009286D02*
X048700Y009286D01*
X048819Y009168D02*
X049640Y009168D01*
X049640Y009049D02*
X048937Y009049D01*
X049012Y008931D02*
X049640Y008931D01*
X049640Y008812D02*
X049050Y008812D01*
X049050Y008694D02*
X049640Y008694D01*
X049640Y008575D02*
X049050Y008575D01*
X049050Y008457D02*
X049640Y008457D01*
X049640Y008338D02*
X049050Y008338D01*
X049050Y008220D02*
X049640Y008220D01*
X049640Y008101D02*
X049050Y008101D01*
X049050Y007983D02*
X049640Y007983D01*
X049640Y007864D02*
X049050Y007864D01*
X049050Y007746D02*
X049640Y007746D01*
X049640Y007627D02*
X049050Y007627D01*
X049050Y007509D02*
X049640Y007509D01*
X049640Y007390D02*
X049092Y007390D01*
X049120Y007272D02*
X049640Y007272D01*
X049640Y007153D02*
X049120Y007153D01*
X049087Y007035D02*
X049640Y007035D01*
X049640Y006916D02*
X049033Y006916D01*
X048914Y006798D02*
X049640Y006798D01*
X049640Y005731D02*
X049089Y005731D01*
X049120Y005613D02*
X049640Y005613D01*
X049640Y005494D02*
X049120Y005494D01*
X049120Y005376D02*
X049640Y005376D01*
X049640Y005257D02*
X049120Y005257D01*
X049120Y005139D02*
X049640Y005139D01*
X049640Y005020D02*
X049120Y005020D01*
X049120Y004902D02*
X049640Y004902D01*
X049640Y004783D02*
X049103Y004783D01*
X049640Y004665D02*
X037900Y004665D01*
X015100Y004665D01*
X015100Y004546D02*
X037900Y004546D01*
X049640Y004546D01*
X049640Y004428D02*
X037900Y004428D01*
X015100Y004428D01*
X015100Y004309D02*
X037900Y004309D01*
X049640Y004309D01*
X049640Y004191D02*
X037900Y004191D01*
X015100Y004191D01*
X015100Y004072D02*
X037900Y004072D01*
X049640Y004072D01*
X049640Y003954D02*
X037900Y003954D01*
X015100Y003954D01*
X015100Y003835D02*
X037900Y003835D01*
X049640Y003835D01*
X049640Y003717D02*
X037900Y003717D01*
X015100Y003717D01*
X015100Y003598D02*
X037900Y003598D01*
X049640Y003598D01*
X049640Y003480D02*
X037900Y003480D01*
X015100Y003480D01*
X015100Y003361D02*
X037900Y003361D01*
X049640Y003361D01*
X049640Y003243D02*
X037900Y003243D01*
X015100Y003243D01*
X015100Y003124D02*
X037900Y003124D01*
X049640Y003124D01*
X046100Y008150D02*
X046100Y009650D01*
X045845Y010031D02*
X045845Y010031D01*
X042845Y009269D02*
X042845Y009269D01*
X042828Y009286D02*
X040872Y009286D01*
X040991Y009405D02*
X042709Y009405D01*
X042591Y009523D02*
X041109Y009523D01*
X041228Y009642D02*
X042472Y009642D01*
X042354Y009760D02*
X041346Y009760D01*
X041465Y009879D02*
X042235Y009879D01*
X042117Y009997D02*
X041583Y009997D01*
X041702Y010116D02*
X041998Y010116D01*
X041880Y010234D02*
X041820Y010234D01*
X041350Y011301D02*
X037900Y011301D01*
X035987Y011301D01*
X036105Y011419D02*
X037900Y011419D01*
X041350Y011419D01*
X041350Y011538D02*
X037900Y011538D01*
X036224Y011538D01*
X036342Y011656D02*
X037900Y011656D01*
X041350Y011656D01*
X041350Y011775D02*
X037900Y011775D01*
X036461Y011775D01*
X036579Y011893D02*
X037900Y011893D01*
X041350Y011893D01*
X041350Y012012D02*
X037900Y012012D01*
X036698Y012012D01*
X036816Y012130D02*
X037900Y012130D01*
X041350Y012130D01*
X041350Y012249D02*
X037900Y012249D01*
X036935Y012249D01*
X037053Y012367D02*
X037900Y012367D01*
X041350Y012367D01*
X041350Y012486D02*
X037900Y012486D01*
X037172Y012486D01*
X037227Y012604D02*
X037900Y012604D01*
X041350Y012604D01*
X041350Y012723D02*
X037900Y012723D01*
X037250Y012723D01*
X037250Y012841D02*
X037900Y012841D01*
X041350Y012841D01*
X041350Y012960D02*
X037900Y012960D01*
X037250Y012960D01*
X037250Y013078D02*
X037900Y013078D01*
X041350Y013078D01*
X041350Y013197D02*
X037900Y013197D01*
X037250Y013197D01*
X037250Y013315D02*
X037900Y013315D01*
X041350Y013315D01*
X041350Y013434D02*
X037900Y013434D01*
X037250Y013434D01*
X037250Y013552D02*
X037900Y013552D01*
X041350Y013552D01*
X041350Y013671D02*
X037900Y013671D01*
X037250Y013671D01*
X037250Y013789D02*
X037900Y013789D01*
X041350Y013789D01*
X041350Y013908D02*
X037900Y013908D01*
X037250Y013908D01*
X037250Y014026D02*
X037900Y014026D01*
X041350Y014026D01*
X041350Y014145D02*
X037900Y014145D01*
X037250Y014145D01*
X037250Y014263D02*
X037900Y014263D01*
X041350Y014263D01*
X041350Y014382D02*
X037900Y014382D01*
X037250Y014382D01*
X037250Y014500D02*
X037900Y014500D01*
X041350Y014500D01*
X041350Y014619D02*
X037900Y014619D01*
X037250Y014619D01*
X037250Y014737D02*
X037900Y014737D01*
X041350Y014737D01*
X041350Y014856D02*
X037900Y014856D01*
X037250Y014856D01*
X037250Y014974D02*
X037900Y014974D01*
X041350Y014974D01*
X041350Y015093D02*
X037900Y015093D01*
X037250Y015093D01*
X037250Y015211D02*
X037900Y015211D01*
X041339Y015211D01*
X041220Y015330D02*
X037900Y015330D01*
X037250Y015330D01*
X037250Y015448D02*
X037900Y015448D01*
X041102Y015448D01*
X040983Y015567D02*
X037900Y015567D01*
X037250Y015567D01*
X037250Y015685D02*
X037900Y015685D01*
X040865Y015685D01*
X040746Y015804D02*
X037900Y015804D01*
X037250Y015804D01*
X037250Y015922D02*
X037900Y015922D01*
X040628Y015922D01*
X040509Y016041D02*
X037900Y016041D01*
X037250Y016041D01*
X037250Y016159D02*
X037900Y016159D01*
X040391Y016159D01*
X040272Y016278D02*
X037900Y016278D01*
X037250Y016278D01*
X037250Y016396D02*
X037900Y016396D01*
X040154Y016396D01*
X040035Y016515D02*
X037900Y016515D01*
X037250Y016515D01*
X037250Y016633D02*
X037900Y016633D01*
X039917Y016633D01*
X039798Y016752D02*
X037900Y016752D01*
X037250Y016752D01*
X037250Y016870D02*
X037900Y016870D01*
X037900Y016989D02*
X037250Y016989D01*
X037250Y017107D02*
X037900Y017107D01*
X037900Y017226D02*
X037250Y017226D01*
X037250Y017344D02*
X037900Y017344D01*
X037900Y017463D02*
X037250Y017463D01*
X037250Y017581D02*
X037900Y017581D01*
X037900Y017700D02*
X037250Y017700D01*
X037250Y017818D02*
X037900Y017818D01*
X037900Y017850D02*
X037900Y018350D01*
X040600Y018350D01*
X040600Y018443D01*
X040673Y018443D01*
X040775Y018546D01*
X040775Y018651D01*
X040780Y018656D01*
X040780Y019575D01*
X041175Y019970D01*
X041850Y019970D01*
X041850Y019964D01*
X042114Y019700D01*
X042486Y019700D01*
X042750Y019964D01*
X042750Y019970D01*
X043314Y019970D01*
X043534Y019750D01*
X043866Y019750D01*
X044100Y019984D01*
X044100Y020316D01*
X043866Y020550D01*
X043534Y020550D01*
X043314Y020330D01*
X042750Y020330D01*
X042750Y020336D01*
X042486Y020600D01*
X042480Y020600D01*
X042480Y020700D01*
X042486Y020700D01*
X042750Y020964D01*
X042750Y021336D01*
X042616Y021470D01*
X043925Y021470D01*
X044102Y021294D01*
X044102Y021191D01*
X044147Y021081D01*
X044231Y020997D01*
X044341Y020952D01*
X044459Y020952D01*
X044569Y020997D01*
X044653Y021081D01*
X044698Y021191D01*
X044698Y021299D01*
X046706Y019292D01*
X044114Y016700D01*
X042803Y016700D01*
X042620Y016883D01*
X042620Y017304D01*
X042700Y017384D01*
X042700Y017716D01*
X042466Y017950D01*
X042134Y017950D01*
X041900Y017716D01*
X041900Y017384D01*
X041980Y017304D01*
X041980Y016686D01*
X042029Y016569D01*
X042119Y016479D01*
X042256Y016342D01*
X042032Y016118D01*
X040770Y017380D01*
X040775Y017385D01*
X040775Y017490D01*
X040780Y017495D01*
X040780Y017644D01*
X040775Y017649D01*
X040775Y017754D01*
X040673Y017857D01*
X040527Y017857D01*
X040502Y017831D01*
X040476Y017857D01*
X040331Y017857D01*
X040312Y017838D01*
X040300Y017850D01*
X040285Y017850D01*
X040279Y017857D01*
X040134Y017857D01*
X040127Y017850D01*
X039148Y017850D01*
X039142Y017857D01*
X038058Y017857D01*
X038052Y017850D01*
X037900Y017850D01*
X037900Y017937D02*
X037250Y017937D01*
X037250Y018055D02*
X037900Y018055D01*
X045469Y018055D01*
X045587Y018174D02*
X043889Y018174D01*
X043866Y018150D02*
X044100Y018384D01*
X044100Y018716D01*
X043866Y018950D01*
X043555Y018950D01*
X043375Y019130D01*
X041825Y019130D01*
X041720Y019025D01*
X041606Y018911D01*
X041169Y018911D01*
X041169Y018915D01*
X041066Y019018D01*
X040921Y019018D01*
X040819Y018915D01*
X040819Y018810D01*
X040814Y018805D01*
X040814Y018656D01*
X040819Y018651D01*
X040819Y018546D01*
X040921Y018443D01*
X041066Y018443D01*
X041169Y018546D01*
X041169Y018551D01*
X041755Y018551D01*
X041975Y018770D01*
X043225Y018770D01*
X043300Y018695D01*
X043300Y018384D01*
X043534Y018150D01*
X043866Y018150D01*
X044008Y018292D02*
X045706Y018292D01*
X045824Y018411D02*
X044100Y018411D01*
X044100Y018529D02*
X045943Y018529D01*
X046061Y018648D02*
X044100Y018648D01*
X044050Y018766D02*
X046180Y018766D01*
X046298Y018885D02*
X043931Y018885D01*
X043700Y018550D02*
X043300Y018950D01*
X041900Y018950D01*
X041681Y018731D01*
X040994Y018731D01*
X040814Y018766D02*
X040780Y018766D01*
X040797Y018731D02*
X040797Y018347D01*
X040600Y018150D01*
X040600Y018411D02*
X043300Y018411D01*
X043300Y018529D02*
X041152Y018529D01*
X040836Y018529D02*
X040758Y018529D01*
X040775Y018648D02*
X040819Y018648D01*
X040600Y018731D02*
X040600Y019650D01*
X041100Y020150D01*
X042300Y020150D01*
X043700Y020150D01*
X043409Y020425D02*
X042661Y020425D01*
X042543Y020544D02*
X043528Y020544D01*
X043872Y020544D02*
X045454Y020544D01*
X045335Y020662D02*
X042480Y020662D01*
X042567Y020781D02*
X045217Y020781D01*
X045098Y020899D02*
X042685Y020899D01*
X042750Y021018D02*
X044210Y021018D01*
X044124Y021136D02*
X042750Y021136D01*
X042750Y021255D02*
X044102Y021255D01*
X044022Y021373D02*
X042713Y021373D01*
X042300Y021150D02*
X042300Y020150D01*
X042619Y019833D02*
X043452Y019833D01*
X043333Y019951D02*
X042737Y019951D01*
X042500Y019714D02*
X046283Y019714D01*
X046165Y019833D02*
X043948Y019833D01*
X044067Y019951D02*
X046046Y019951D01*
X045928Y020070D02*
X044100Y020070D01*
X044100Y020188D02*
X045809Y020188D01*
X045691Y020307D02*
X044100Y020307D01*
X043991Y020425D02*
X045572Y020425D01*
X046004Y020899D02*
X049640Y020899D01*
X049640Y020781D02*
X046122Y020781D01*
X046241Y020662D02*
X049640Y020662D01*
X049640Y020544D02*
X046359Y020544D01*
X046478Y020425D02*
X049640Y020425D01*
X049640Y020307D02*
X046596Y020307D01*
X046715Y020188D02*
X049640Y020188D01*
X049640Y020070D02*
X048870Y020070D01*
X049003Y019951D02*
X049640Y019951D01*
X049640Y019833D02*
X049074Y019833D01*
X049120Y019714D02*
X049640Y019714D01*
X049640Y019596D02*
X049120Y019596D01*
X049104Y019477D02*
X049640Y019477D01*
X049640Y019359D02*
X049055Y019359D01*
X048957Y019240D02*
X049640Y019240D01*
X049640Y019122D02*
X048759Y019122D01*
X048441Y019122D02*
X047808Y019122D01*
X047689Y019003D02*
X049640Y019003D01*
X049640Y018885D02*
X047571Y018885D01*
X047631Y018945D02*
X047631Y018945D01*
X047452Y018766D02*
X049640Y018766D01*
X049640Y018648D02*
X047334Y018648D01*
X047215Y018529D02*
X049640Y018529D01*
X049640Y018411D02*
X047097Y018411D01*
X046978Y018292D02*
X049640Y018292D01*
X049640Y018174D02*
X046860Y018174D01*
X046741Y018055D02*
X049640Y018055D01*
X049640Y017937D02*
X046623Y017937D01*
X046504Y017818D02*
X049640Y017818D01*
X049640Y017700D02*
X046386Y017700D01*
X046267Y017581D02*
X049640Y017581D01*
X049640Y017463D02*
X046149Y017463D01*
X046030Y017344D02*
X049640Y017344D01*
X049640Y017226D02*
X045912Y017226D01*
X045793Y017107D02*
X049640Y017107D01*
X049640Y016989D02*
X045675Y016989D01*
X045556Y016870D02*
X049640Y016870D01*
X049640Y016752D02*
X045438Y016752D01*
X045319Y016633D02*
X049640Y016633D01*
X049640Y016515D02*
X045201Y016515D01*
X045082Y016396D02*
X049640Y016396D01*
X049640Y016278D02*
X044964Y016278D01*
X044845Y016159D02*
X049640Y016159D01*
X049640Y016041D02*
X044727Y016041D01*
X044681Y015995D02*
X044681Y015995D01*
X044608Y015922D02*
X049640Y015922D01*
X049640Y015804D02*
X044398Y015804D01*
X043550Y015330D02*
X045650Y015330D01*
X045650Y015211D02*
X043550Y015211D01*
X043550Y015093D02*
X045650Y015093D01*
X045650Y014974D02*
X043550Y014974D01*
X043442Y014856D02*
X045758Y014856D01*
X045877Y014737D02*
X043323Y014737D01*
X043280Y014619D02*
X048477Y014619D01*
X048358Y014737D02*
X046323Y014737D01*
X046442Y014856D02*
X048240Y014856D01*
X048595Y014500D02*
X043280Y014500D01*
X043280Y014382D02*
X048714Y014382D01*
X048832Y014263D02*
X043280Y014263D01*
X043280Y014145D02*
X048951Y014145D01*
X049069Y014026D02*
X046090Y014026D01*
X046236Y013908D02*
X049188Y013908D01*
X049640Y015567D02*
X046320Y015567D01*
X045880Y015567D02*
X043320Y015567D01*
X043438Y015448D02*
X045762Y015448D01*
X045110Y014026D02*
X043280Y014026D01*
X043280Y013908D02*
X044964Y013908D01*
X044903Y013789D02*
X043280Y013789D01*
X043334Y013671D02*
X044880Y013671D01*
X044886Y013552D02*
X043453Y013552D01*
X043180Y013315D02*
X042250Y013315D01*
X042250Y013197D02*
X043220Y013197D01*
X043220Y013078D02*
X042250Y013078D01*
X042250Y012960D02*
X042622Y012960D01*
X042693Y013030D02*
X042470Y012807D01*
X042470Y012493D01*
X042693Y012270D01*
X043007Y012270D01*
X043230Y012493D01*
X043230Y012807D01*
X043007Y013030D01*
X042693Y013030D01*
X042504Y012841D02*
X042250Y012841D01*
X042250Y012723D02*
X042470Y012723D01*
X042470Y012604D02*
X042250Y012604D01*
X042250Y012486D02*
X042477Y012486D01*
X042596Y012367D02*
X042250Y012367D01*
X042250Y012249D02*
X045172Y012249D01*
X044989Y012367D02*
X043104Y012367D01*
X043223Y012486D02*
X044914Y012486D01*
X044880Y012604D02*
X043230Y012604D01*
X043230Y012723D02*
X044880Y012723D01*
X044925Y012841D02*
X043828Y012841D01*
X043947Y012960D02*
X045016Y012960D01*
X045100Y013150D02*
X045600Y013650D01*
X044935Y013434D02*
X043854Y013434D01*
X043600Y013150D02*
X045100Y013150D01*
X043600Y013150D02*
X043100Y013650D01*
X043100Y015150D01*
X042762Y015448D02*
X042634Y015448D01*
X042650Y015330D02*
X042516Y015330D01*
X042397Y015211D02*
X042650Y015211D01*
X042650Y015093D02*
X042279Y015093D01*
X042250Y014974D02*
X042650Y014974D01*
X042758Y014856D02*
X042250Y014856D01*
X042250Y014737D02*
X042877Y014737D01*
X042920Y014619D02*
X042250Y014619D01*
X042250Y014500D02*
X042920Y014500D01*
X042920Y014382D02*
X042250Y014382D01*
X042250Y014263D02*
X042920Y014263D01*
X042920Y014145D02*
X042250Y014145D01*
X042250Y014026D02*
X042920Y014026D01*
X042920Y013908D02*
X042250Y013908D01*
X042250Y013789D02*
X042920Y013789D01*
X042920Y013671D02*
X042250Y013671D01*
X042250Y013552D02*
X042943Y013552D01*
X043062Y013434D02*
X042250Y013434D01*
X043078Y012960D02*
X043253Y012960D01*
X043196Y012841D02*
X043372Y012841D01*
X041800Y015150D02*
X040000Y016950D01*
X040400Y017350D01*
X042200Y015550D01*
X041800Y015150D01*
X041739Y015211D02*
X041861Y015211D01*
X041980Y015330D02*
X041620Y015330D01*
X041502Y015448D02*
X042098Y015448D01*
X042183Y015567D02*
X041383Y015567D01*
X041265Y015685D02*
X042065Y015685D01*
X041946Y015804D02*
X041146Y015804D01*
X041028Y015922D02*
X041828Y015922D01*
X041709Y016041D02*
X040909Y016041D01*
X040791Y016159D02*
X041591Y016159D01*
X041472Y016278D02*
X040672Y016278D01*
X040554Y016396D02*
X041354Y016396D01*
X041235Y016515D02*
X040435Y016515D01*
X040317Y016633D02*
X041117Y016633D01*
X040998Y016752D02*
X040198Y016752D01*
X040080Y016870D02*
X040880Y016870D01*
X040761Y016989D02*
X040039Y016989D01*
X040157Y017107D02*
X040643Y017107D01*
X040524Y017226D02*
X040276Y017226D01*
X040394Y017344D02*
X040406Y017344D01*
X040403Y017569D02*
X040600Y017569D01*
X040780Y017581D02*
X041900Y017581D01*
X041900Y017463D02*
X040775Y017463D01*
X040806Y017344D02*
X041940Y017344D01*
X041980Y017226D02*
X040924Y017226D01*
X041043Y017107D02*
X041980Y017107D01*
X041980Y016989D02*
X041161Y016989D01*
X041280Y016870D02*
X041980Y016870D01*
X041980Y016752D02*
X041398Y016752D01*
X041517Y016633D02*
X042002Y016633D01*
X042083Y016515D02*
X041635Y016515D01*
X041754Y016396D02*
X042201Y016396D01*
X042191Y016278D02*
X041872Y016278D01*
X041991Y016159D02*
X042073Y016159D01*
X042751Y016752D02*
X044165Y016752D01*
X044284Y016870D02*
X042633Y016870D01*
X042620Y016989D02*
X044402Y016989D01*
X044521Y017107D02*
X042620Y017107D01*
X042620Y017226D02*
X044639Y017226D01*
X044758Y017344D02*
X042660Y017344D01*
X042700Y017463D02*
X044876Y017463D01*
X044995Y017581D02*
X042700Y017581D01*
X042700Y017700D02*
X045113Y017700D01*
X045232Y017818D02*
X042598Y017818D01*
X042479Y017937D02*
X045350Y017937D01*
X046417Y019003D02*
X043502Y019003D01*
X043383Y019122D02*
X046535Y019122D01*
X046654Y019240D02*
X040780Y019240D01*
X040780Y019122D02*
X041817Y019122D01*
X041698Y019003D02*
X041081Y019003D01*
X040906Y019003D02*
X040780Y019003D01*
X040780Y018885D02*
X040819Y018885D01*
X040403Y018731D02*
X040403Y019047D01*
X040403Y019953D01*
X042100Y021650D01*
X044000Y021650D01*
X044400Y021250D01*
X044676Y021136D02*
X044861Y021136D01*
X044743Y021255D02*
X044698Y021255D01*
X044590Y021018D02*
X044980Y021018D01*
X045411Y021492D02*
X045602Y021492D01*
X045609Y021373D02*
X045530Y021373D01*
X045648Y021255D02*
X045673Y021255D01*
X045767Y021136D02*
X049640Y021136D01*
X049640Y021018D02*
X045885Y021018D01*
X045643Y021610D02*
X045293Y021610D01*
X045174Y021729D02*
X045720Y021729D01*
X045720Y021847D02*
X045056Y021847D01*
X044937Y021966D02*
X045720Y021966D01*
X045611Y022084D02*
X044819Y022084D01*
X044700Y022203D02*
X045493Y022203D01*
X045374Y022321D02*
X044582Y022321D01*
X047259Y022203D02*
X047941Y022203D01*
X048259Y022203D02*
X049004Y022203D01*
X049010Y022200D02*
X049190Y022200D01*
X049355Y022269D01*
X049481Y022395D01*
X049550Y022560D01*
X049550Y022740D01*
X049481Y022905D01*
X049355Y023031D01*
X049190Y023100D01*
X049010Y023100D01*
X048845Y023031D01*
X048719Y022905D01*
X048650Y022740D01*
X048650Y022560D01*
X048719Y022395D01*
X048845Y022269D01*
X049010Y022200D01*
X049196Y022203D02*
X049640Y022203D01*
X049640Y022321D02*
X049407Y022321D01*
X049500Y022440D02*
X049640Y022440D01*
X049640Y022558D02*
X049549Y022558D01*
X049550Y022677D02*
X049640Y022677D01*
X049640Y022795D02*
X049527Y022795D01*
X049473Y022914D02*
X049640Y022914D01*
X049640Y023032D02*
X049354Y023032D01*
X048846Y023032D02*
X048389Y023032D01*
X048504Y022914D02*
X048727Y022914D01*
X048673Y022795D02*
X048553Y022795D01*
X048574Y022677D02*
X048650Y022677D01*
X048651Y022558D02*
X048574Y022558D01*
X048526Y022440D02*
X048700Y022440D01*
X048793Y022321D02*
X048442Y022321D01*
X049228Y022084D02*
X049640Y022084D01*
X049640Y021966D02*
X049421Y021966D01*
X049505Y021847D02*
X049640Y021847D01*
X049640Y021729D02*
X049550Y021729D01*
X049550Y021610D02*
X049640Y021610D01*
X049640Y021492D02*
X049521Y021492D01*
X049459Y021373D02*
X049640Y021373D01*
X049640Y021255D02*
X049321Y021255D01*
X048330Y020070D02*
X046833Y020070D01*
X046952Y019951D02*
X047365Y019951D01*
X047246Y019833D02*
X047070Y019833D01*
X046520Y019477D02*
X040780Y019477D01*
X040780Y019359D02*
X046639Y019359D01*
X046402Y019596D02*
X040800Y019596D01*
X040919Y019714D02*
X042100Y019714D01*
X041981Y019833D02*
X041037Y019833D01*
X041156Y019951D02*
X041863Y019951D01*
X040400Y019477D02*
X039273Y019477D01*
X039391Y019359D02*
X040400Y019359D01*
X040400Y019240D02*
X039510Y019240D01*
X039628Y019122D02*
X040400Y019122D01*
X040403Y019047D02*
X039300Y020150D01*
X038917Y019833D02*
X040117Y019833D01*
X040236Y019714D02*
X039036Y019714D01*
X039154Y019596D02*
X040354Y019596D01*
X040200Y018850D02*
X039500Y018850D01*
X039100Y019250D01*
X039000Y019250D01*
X039000Y018650D01*
X040200Y018650D01*
X040200Y018850D01*
X040200Y018766D02*
X039000Y018766D01*
X039000Y018885D02*
X039465Y018885D01*
X039347Y019003D02*
X039000Y019003D01*
X039000Y019122D02*
X039228Y019122D01*
X039110Y019240D02*
X039000Y019240D01*
X037900Y019240D02*
X037250Y019240D01*
X037250Y019122D02*
X037900Y019122D01*
X037900Y019003D02*
X037250Y019003D01*
X037250Y018885D02*
X037900Y018885D01*
X037900Y018766D02*
X037250Y018766D01*
X037250Y018648D02*
X037900Y018648D01*
X037900Y018529D02*
X037250Y018529D01*
X037250Y018411D02*
X037900Y018411D01*
X037900Y018292D02*
X043392Y018292D01*
X043511Y018174D02*
X037900Y018174D01*
X037250Y018174D01*
X037250Y018292D02*
X037900Y018292D01*
X037900Y017937D02*
X042121Y017937D01*
X042002Y017818D02*
X040711Y017818D01*
X040775Y017700D02*
X041900Y017700D01*
X041852Y018648D02*
X043300Y018648D01*
X043229Y018766D02*
X041971Y018766D01*
X040200Y017650D02*
X040200Y017450D01*
X039800Y017050D01*
X039000Y017050D01*
X039000Y017650D01*
X040200Y017650D01*
X040200Y017581D02*
X039000Y017581D01*
X039000Y017463D02*
X040200Y017463D01*
X040094Y017344D02*
X039000Y017344D01*
X039000Y017226D02*
X039976Y017226D01*
X039857Y017107D02*
X039000Y017107D01*
X040403Y016947D02*
X041950Y015400D01*
X042753Y015567D02*
X042880Y015567D01*
X042871Y015685D02*
X049640Y015685D01*
X040403Y016947D02*
X040403Y017569D01*
X037900Y019359D02*
X037250Y019359D01*
X037363Y019477D02*
X037900Y019477D01*
X037900Y019596D02*
X037482Y019596D01*
X036920Y020307D02*
X024070Y020307D01*
X023990Y020425D02*
X037039Y020425D01*
X036100Y021150D02*
X024800Y021150D01*
X024520Y021255D02*
X024450Y021255D01*
X024332Y021373D02*
X024601Y021373D01*
X024397Y021492D02*
X024213Y021492D01*
X024095Y021610D02*
X024397Y021610D01*
X024397Y021729D02*
X023976Y021729D01*
X024397Y021847D02*
X023025Y021847D01*
X023090Y021729D02*
X023124Y021729D01*
X022575Y021847D02*
X019652Y021847D01*
X019770Y021966D02*
X024397Y021966D01*
X024397Y022084D02*
X019889Y022084D01*
X020007Y022203D02*
X024397Y022203D01*
X022165Y018970D02*
X021375Y018970D01*
X021276Y018872D01*
X021033Y018872D01*
X021375Y018530D01*
X021725Y018530D01*
X022165Y018970D01*
X022080Y018885D02*
X021289Y018885D01*
X021139Y018766D02*
X021961Y018766D01*
X021843Y018648D02*
X021257Y018648D01*
X021268Y017937D02*
X023149Y017937D01*
X023600Y017950D02*
X024200Y017350D01*
X024200Y015950D01*
X023800Y015550D02*
X022500Y014250D01*
X021700Y014550D02*
X021500Y014750D01*
X018400Y014750D01*
X018000Y015150D01*
X017900Y015050D01*
X018000Y015150D02*
X017608Y015542D01*
X017608Y017477D01*
X017805Y017477D02*
X017805Y015645D01*
X018400Y015050D01*
X018798Y015211D02*
X021184Y015211D01*
X021066Y015330D02*
X018743Y015330D01*
X019664Y015448D02*
X020947Y015448D01*
X020829Y015567D02*
X019782Y015567D01*
X019800Y015685D02*
X020710Y015685D01*
X020592Y015804D02*
X019800Y015804D01*
X019794Y015922D02*
X020473Y015922D01*
X020746Y016159D02*
X022620Y016159D01*
X022620Y016278D02*
X020627Y016278D01*
X020509Y016396D02*
X022620Y016396D01*
X022568Y016041D02*
X020864Y016041D01*
X020983Y015922D02*
X022507Y015922D01*
X022502Y015804D02*
X021101Y015804D01*
X022582Y015448D02*
X022643Y015448D01*
X023093Y015922D02*
X023117Y015922D01*
X023130Y016041D02*
X023032Y016041D01*
X020728Y014122D02*
X020600Y014250D01*
X020728Y014122D02*
X020728Y013731D01*
X020472Y013731D02*
X020472Y013878D01*
X020200Y014150D01*
X020150Y014150D01*
X021173Y013552D02*
X026653Y013552D01*
X026653Y013434D02*
X021183Y013434D01*
X021183Y013315D02*
X026653Y013315D01*
X026653Y013252D02*
X026724Y013182D01*
X027177Y013182D01*
X027248Y013252D01*
X027248Y014060D01*
X027177Y014131D01*
X026724Y014131D01*
X026653Y014060D01*
X026653Y013252D01*
X026709Y013197D02*
X021183Y013197D01*
X021183Y013078D02*
X030607Y013078D01*
X030607Y012960D02*
X021183Y012960D01*
X021183Y012841D02*
X022925Y012841D01*
X022807Y012723D02*
X021173Y012723D01*
X020728Y012569D02*
X020728Y010825D01*
X020683Y010780D01*
X020307Y010827D02*
X018893Y010827D01*
X018893Y010945D02*
X020307Y010945D01*
X020307Y011064D02*
X018893Y011064D01*
X018893Y011182D02*
X020307Y011182D01*
X020307Y010708D02*
X018893Y010708D01*
X018893Y010590D02*
X020307Y010590D01*
X020307Y010471D02*
X018893Y010471D01*
X018890Y010353D02*
X020310Y010353D01*
X020415Y011775D02*
X020548Y011775D01*
X018261Y012150D02*
X017400Y012150D01*
X017000Y011182D02*
X018141Y011182D01*
X018141Y011064D02*
X017000Y011064D01*
X016961Y010945D02*
X018141Y010945D01*
X018141Y010827D02*
X016842Y010827D01*
X019384Y006798D02*
X023816Y006798D01*
X023675Y006679D02*
X019525Y006679D01*
X019636Y006561D02*
X023564Y006561D01*
X023515Y006442D02*
X019685Y006442D01*
X019735Y006324D02*
X023465Y006324D01*
X023455Y006205D02*
X019745Y006205D01*
X019745Y006087D02*
X023455Y006087D01*
X023469Y005968D02*
X019731Y005968D01*
X019682Y005850D02*
X023518Y005850D01*
X023567Y005731D02*
X019633Y005731D01*
X019516Y005613D02*
X023684Y005613D01*
X023837Y005494D02*
X019363Y005494D01*
X023993Y009879D02*
X027433Y009879D01*
X027551Y009997D02*
X024045Y009997D01*
X024070Y010116D02*
X027670Y010116D01*
X027788Y010234D02*
X024137Y010234D01*
X024139Y011064D02*
X025280Y011064D01*
X025280Y011182D02*
X024021Y011182D01*
X023902Y011301D02*
X025191Y011301D01*
X025034Y011419D02*
X023784Y011419D01*
X023665Y011538D02*
X024975Y011538D01*
X024960Y011656D02*
X023547Y011656D01*
X023428Y011775D02*
X024980Y011775D01*
X025046Y011893D02*
X023420Y011893D01*
X023420Y012012D02*
X025220Y012012D01*
X025980Y012012D02*
X028220Y012012D01*
X028046Y011893D02*
X026154Y011893D01*
X026220Y011775D02*
X027980Y011775D01*
X027960Y011656D02*
X026240Y011656D01*
X026225Y011538D02*
X027975Y011538D01*
X028034Y011419D02*
X026166Y011419D01*
X026009Y011301D02*
X028191Y011301D01*
X028098Y010945D02*
X026102Y010945D01*
X026198Y010827D02*
X028002Y010827D01*
X027960Y010708D02*
X026240Y010708D01*
X026240Y010590D02*
X027960Y010590D01*
X028003Y010471D02*
X026197Y010471D01*
X026100Y010353D02*
X027907Y010353D01*
X030607Y012130D02*
X023420Y012130D01*
X023464Y012249D02*
X030607Y012249D01*
X030607Y012367D02*
X023500Y012367D01*
X023500Y012486D02*
X030607Y012486D01*
X030607Y012604D02*
X023500Y012604D01*
X023393Y012723D02*
X030607Y012723D01*
X030607Y012841D02*
X023275Y012841D01*
X027192Y013197D02*
X027693Y013197D01*
X027708Y013182D02*
X028162Y013182D01*
X028232Y013252D01*
X028232Y014060D01*
X028162Y014131D01*
X027708Y014131D01*
X027637Y014060D01*
X027637Y013796D01*
X027602Y013709D01*
X027602Y013591D01*
X027637Y013504D01*
X027637Y013252D01*
X027708Y013182D01*
X027637Y013315D02*
X027248Y013315D01*
X027248Y013434D02*
X027637Y013434D01*
X027618Y013552D02*
X027248Y013552D01*
X027248Y013671D02*
X027602Y013671D01*
X027635Y013789D02*
X027248Y013789D01*
X027248Y013908D02*
X027637Y013908D01*
X027637Y014026D02*
X027248Y014026D01*
X027900Y013650D02*
X027928Y013650D01*
X027935Y013656D01*
X028232Y013671D02*
X028602Y013671D01*
X028602Y013709D02*
X028602Y013591D01*
X028622Y013542D01*
X028622Y013252D01*
X028692Y013182D01*
X029146Y013182D01*
X029216Y013252D01*
X029216Y014060D01*
X029146Y014131D01*
X028692Y014131D01*
X028622Y014060D01*
X028622Y013758D01*
X028602Y013709D01*
X028622Y013789D02*
X028232Y013789D01*
X028232Y013908D02*
X028622Y013908D01*
X028622Y014026D02*
X028232Y014026D01*
X028900Y013650D02*
X028906Y013656D01*
X028919Y013656D01*
X029216Y013671D02*
X029901Y013671D01*
X029901Y013789D02*
X029216Y013789D01*
X029216Y013908D02*
X029901Y013908D01*
X029901Y014026D02*
X029216Y014026D01*
X029901Y014060D02*
X029901Y013252D01*
X029972Y013182D01*
X030425Y013182D01*
X030496Y013252D01*
X030496Y014060D01*
X030425Y014131D01*
X029972Y014131D01*
X029901Y014060D01*
X030496Y014026D02*
X030590Y014026D01*
X030590Y013908D02*
X030496Y013908D01*
X030496Y013789D02*
X030590Y013789D01*
X030590Y013671D02*
X030496Y013671D01*
X030496Y013552D02*
X030590Y013552D01*
X030590Y013434D02*
X030496Y013434D01*
X030496Y013315D02*
X030590Y013315D01*
X030607Y013197D02*
X030440Y013197D01*
X029957Y013197D02*
X029160Y013197D01*
X029216Y013315D02*
X029901Y013315D01*
X029901Y013434D02*
X029216Y013434D01*
X029216Y013552D02*
X029901Y013552D01*
X028677Y013197D02*
X028176Y013197D01*
X028232Y013315D02*
X028622Y013315D01*
X028622Y013434D02*
X028232Y013434D01*
X028232Y013552D02*
X028618Y013552D01*
X031185Y013552D02*
X031574Y013552D01*
X031574Y013434D02*
X031185Y013434D01*
X031185Y013315D02*
X031574Y013315D01*
X031630Y013197D02*
X031167Y013197D01*
X031167Y013078D02*
X036350Y013078D01*
X036350Y012960D02*
X031167Y012960D01*
X031167Y012841D02*
X036255Y012841D01*
X036136Y012723D02*
X031167Y012723D01*
X031167Y012604D02*
X036018Y012604D01*
X035899Y012486D02*
X031167Y012486D01*
X031167Y012367D02*
X035781Y012367D01*
X035662Y012249D02*
X031167Y012249D01*
X031167Y012130D02*
X035544Y012130D01*
X035452Y013182D02*
X035984Y013182D01*
X036055Y013252D01*
X036055Y014060D01*
X035984Y014131D01*
X035452Y014131D01*
X035382Y014060D01*
X035382Y013252D01*
X035452Y013182D01*
X035437Y013197D02*
X034719Y013197D01*
X034705Y013182D02*
X034775Y013252D01*
X034775Y014060D01*
X034705Y014131D01*
X034251Y014131D01*
X034181Y014060D01*
X034181Y013252D01*
X034251Y013182D01*
X034705Y013182D01*
X034775Y013315D02*
X035382Y013315D01*
X035382Y013434D02*
X034775Y013434D01*
X034775Y013552D02*
X035382Y013552D01*
X035382Y013671D02*
X034775Y013671D01*
X034775Y013789D02*
X035382Y013789D01*
X035382Y013908D02*
X034775Y013908D01*
X034775Y014026D02*
X035382Y014026D01*
X036055Y014026D02*
X036350Y014026D01*
X036350Y013908D02*
X036055Y013908D01*
X036055Y013789D02*
X036350Y013789D01*
X036350Y013671D02*
X036055Y013671D01*
X036055Y013552D02*
X036350Y013552D01*
X036350Y013434D02*
X036055Y013434D01*
X036055Y013315D02*
X036350Y013315D01*
X036350Y013197D02*
X035999Y013197D01*
X034237Y013197D02*
X034050Y013197D01*
X034106Y013315D02*
X034181Y013315D01*
X034181Y013434D02*
X034106Y013434D01*
X034106Y013552D02*
X034181Y013552D01*
X034181Y013671D02*
X034106Y013671D01*
X034106Y013789D02*
X034181Y013789D01*
X034181Y013908D02*
X034106Y013908D01*
X034106Y014026D02*
X034181Y014026D01*
X033809Y013656D02*
X033806Y013656D01*
X033800Y013650D01*
X033511Y013552D02*
X032169Y013552D01*
X032169Y013434D02*
X033511Y013434D01*
X033511Y013315D02*
X032169Y013315D01*
X032113Y013197D02*
X033567Y013197D01*
X031574Y013671D02*
X031185Y013671D01*
X031185Y013789D02*
X031506Y013789D01*
X031388Y013908D02*
X031185Y013908D01*
X031185Y014026D02*
X031269Y014026D01*
X036350Y018648D02*
X022352Y018648D01*
X023600Y018150D02*
X023600Y017950D01*
X018481Y016515D02*
X017985Y016515D01*
X017985Y016633D02*
X018362Y016633D01*
X018320Y016752D02*
X017985Y016752D01*
X017985Y016870D02*
X018320Y016870D01*
X018320Y016989D02*
X017985Y016989D01*
X017985Y017107D02*
X018320Y017107D01*
X017411Y017477D02*
X017411Y015039D01*
X017985Y016278D02*
X018550Y016278D01*
X018502Y016396D02*
X017985Y016396D01*
X017000Y018650D02*
X016992Y018658D01*
X004900Y026469D02*
X037900Y026469D01*
X037900Y026587D02*
X004900Y026587D01*
X004900Y027654D02*
X037900Y027654D01*
X049640Y027654D01*
X049640Y024454D02*
X044100Y024454D01*
X044051Y024336D02*
X049640Y024336D01*
X048100Y023650D02*
X047100Y023650D01*
X037900Y021610D02*
X037782Y021610D01*
D50*
X030887Y013656D02*
X030887Y011737D01*
X030800Y011650D01*
X028600Y010650D02*
X024200Y006250D01*
X024200Y006150D01*
X009100Y020650D02*
X008600Y021150D01*
X007911Y021150D01*
X005313Y023437D02*
X005025Y023150D01*
X004289Y023150D01*
X004289Y023650D02*
X005100Y023650D01*
X005313Y023437D01*
D51*
X023100Y012450D02*
X023100Y011650D01*
X024100Y010650D01*
X023600Y010150D01*
X024100Y010650D02*
X025600Y010650D01*
X025600Y011650D01*
X016600Y005350D02*
X016131Y005819D01*
X013021Y005819D01*
X013000Y005798D01*
X013000Y005050D01*
X012200Y004250D01*
X006900Y004250D01*
X016600Y004200D02*
X016600Y005350D01*
X042300Y016750D02*
X042300Y017550D01*
X042300Y016750D02*
X042800Y016250D01*
X047250Y019200D02*
X044400Y022050D01*
X042300Y022050D01*
X042300Y023550D01*
X040900Y022150D02*
X041000Y022050D01*
X042300Y022050D01*
X047250Y019200D02*
X047700Y019550D01*
D52*
X048100Y026650D03*
X012100Y026650D03*
X002100Y004650D03*
X032100Y004650D03*
D53*
X039600Y007650D02*
X039600Y008650D01*
X041850Y010900D01*
X043100Y009650D01*
X041850Y010900D02*
X041800Y010950D01*
X041800Y015250D01*
X041950Y015400D01*
X042800Y016250D01*
X044300Y016250D01*
X047250Y019200D01*
X047669Y019619D01*
X048600Y019619D01*
X038100Y020150D02*
X037400Y020150D01*
X036800Y019550D01*
X036800Y012750D01*
X035700Y011650D01*
X030800Y011650D01*
X028600Y011650D01*
X045600Y012650D02*
X048569Y012650D01*
X048600Y012619D01*
X048600Y010650D02*
X047650Y009700D01*
X048600Y008750D01*
X048600Y007219D01*
X048600Y005250D02*
X048500Y005150D01*
X045600Y005150D01*
X046100Y009650D02*
X047600Y009650D01*
X047650Y009700D01*
D54*
X019100Y012250D02*
X018300Y011450D01*
X016900Y011450D01*
X016600Y011150D01*
X019100Y012250D02*
X019100Y012750D01*
X018700Y013150D01*
X018671Y013150D01*
X018671Y013741D01*
D55*
X017800Y014050D03*
X017900Y015050D03*
X018500Y015150D03*
X018800Y016450D03*
X018800Y016900D03*
X018300Y018450D03*
X019100Y018650D03*
X018700Y020250D03*
X018600Y021350D03*
X021900Y020850D03*
X022500Y020450D03*
X022350Y021250D03*
X022800Y021650D03*
X024800Y021150D03*
X025300Y021450D03*
X021400Y023850D03*
X022800Y015850D03*
X022300Y015350D03*
X021700Y014550D03*
X020600Y014250D03*
X020150Y014150D03*
X019700Y012750D03*
X020300Y012050D03*
X017900Y012950D03*
X027900Y013650D03*
X028900Y013650D03*
X033800Y013650D03*
X044400Y021250D03*
X045900Y021450D03*
X045800Y022750D03*
X041500Y022650D03*
X037600Y022850D03*
X037600Y022350D03*
X037600Y021850D03*
X037100Y023350D03*
D56*
X018800Y020812D02*
X018800Y020350D01*
X018700Y020250D01*
X018800Y020812D02*
X018789Y020823D01*
X018600Y020831D02*
X018600Y021350D01*
X018600Y020831D02*
X018592Y020823D01*
M02*
