G75*
%MOIN*%
%OFA0B0*%
%FSLAX24Y24*%
%IPPOS*%
%LPD*%
%AMOC8*
5,1,8,0,0,1.08239X$1,22.5*
%
%ADD10C,0.0160*%
%ADD11C,0.0060*%
%ADD12C,0.0100*%
%ADD13C,0.0050*%
%ADD14R,0.1000X0.0250*%
%ADD15C,0.0070*%
%ADD16R,0.0200X0.0800*%
%ADD17R,0.0250X0.0200*%
%ADD18C,0.0080*%
%ADD19C,0.0010*%
%ADD20R,0.0150X0.0200*%
%ADD21C,0.0040*%
%ADD22C,0.0200*%
%ADD23R,0.0300X0.4200*%
%ADD24R,0.0200X0.0750*%
%ADD25R,0.0200X0.0300*%
D10*
X025600Y003650D02*
X025600Y009650D01*
X039600Y009650D01*
X039600Y009150D01*
X039600Y004150D02*
X039600Y003650D01*
X025600Y003650D01*
D11*
X017200Y009800D02*
X017200Y011500D01*
X017198Y011517D01*
X017194Y011534D01*
X017187Y011550D01*
X017177Y011564D01*
X017164Y011577D01*
X017150Y011587D01*
X017134Y011594D01*
X017117Y011598D01*
X017100Y011600D01*
X016100Y011600D01*
X016083Y011598D01*
X016066Y011594D01*
X016050Y011587D01*
X016036Y011577D01*
X016023Y011564D01*
X016013Y011550D01*
X016006Y011534D01*
X016002Y011517D01*
X016000Y011500D01*
X016000Y009800D01*
X016002Y009783D01*
X016006Y009766D01*
X016013Y009750D01*
X016023Y009736D01*
X016036Y009723D01*
X016050Y009713D01*
X016066Y009706D01*
X016083Y009702D01*
X016100Y009700D01*
X017100Y009700D01*
X017117Y009702D01*
X017134Y009706D01*
X017150Y009713D01*
X017164Y009723D01*
X017177Y009736D01*
X017187Y009750D01*
X017194Y009766D01*
X017198Y009783D01*
X017200Y009800D01*
X016600Y010500D02*
X016600Y010550D01*
X016600Y010750D02*
X016600Y010800D01*
X022500Y012100D02*
X022500Y013800D01*
X022502Y013817D01*
X022506Y013834D01*
X022513Y013850D01*
X022523Y013864D01*
X022536Y013877D01*
X022550Y013887D01*
X022566Y013894D01*
X022583Y013898D01*
X022600Y013900D01*
X023600Y013900D01*
X023617Y013898D01*
X023634Y013894D01*
X023650Y013887D01*
X023664Y013877D01*
X023677Y013864D01*
X023687Y013850D01*
X023694Y013834D01*
X023698Y013817D01*
X023700Y013800D01*
X023700Y012100D01*
X023698Y012083D01*
X023694Y012066D01*
X023687Y012050D01*
X023677Y012036D01*
X023664Y012023D01*
X023650Y012013D01*
X023634Y012006D01*
X023617Y012002D01*
X023600Y012000D01*
X022600Y012000D01*
X022583Y012002D01*
X022566Y012006D01*
X022550Y012013D01*
X022536Y012023D01*
X022523Y012036D01*
X022513Y012050D01*
X022506Y012066D01*
X022502Y012083D01*
X022500Y012100D01*
X023100Y012800D02*
X023100Y012850D01*
X023100Y013050D02*
X023100Y013100D01*
X026200Y011950D02*
X026200Y011350D01*
X026202Y011333D01*
X026206Y011316D01*
X026213Y011300D01*
X026223Y011286D01*
X026236Y011273D01*
X026250Y011263D01*
X026266Y011256D01*
X026283Y011252D01*
X026300Y011250D01*
X027900Y011250D01*
X027917Y011252D01*
X027934Y011256D01*
X027950Y011263D01*
X027964Y011273D01*
X027977Y011286D01*
X027987Y011300D01*
X027994Y011316D01*
X027998Y011333D01*
X028000Y011350D01*
X028000Y011950D01*
X027998Y011967D01*
X027994Y011984D01*
X027987Y012000D01*
X027977Y012014D01*
X027964Y012027D01*
X027950Y012037D01*
X027934Y012044D01*
X027917Y012048D01*
X027900Y012050D01*
X026300Y012050D01*
X026283Y012048D01*
X026266Y012044D01*
X026250Y012037D01*
X026236Y012027D01*
X026223Y012014D01*
X026213Y012000D01*
X026206Y011984D01*
X026202Y011967D01*
X026200Y011950D01*
X026850Y011650D02*
X027100Y011650D01*
X027100Y011400D01*
X027100Y011650D02*
X027100Y011900D01*
X027100Y011650D02*
X027500Y011900D01*
X027500Y011400D01*
X027100Y011650D01*
X027700Y011650D01*
X027900Y011050D02*
X026300Y011050D01*
X026283Y011048D01*
X026266Y011044D01*
X026250Y011037D01*
X026236Y011027D01*
X026223Y011014D01*
X026213Y011000D01*
X026206Y010984D01*
X026202Y010967D01*
X026200Y010950D01*
X026200Y010350D01*
X026202Y010333D01*
X026206Y010316D01*
X026213Y010300D01*
X026223Y010286D01*
X026236Y010273D01*
X026250Y010263D01*
X026266Y010256D01*
X026283Y010252D01*
X026300Y010250D01*
X027900Y010250D01*
X027917Y010252D01*
X027934Y010256D01*
X027950Y010263D01*
X027964Y010273D01*
X027977Y010286D01*
X027987Y010300D01*
X027994Y010316D01*
X027998Y010333D01*
X028000Y010350D01*
X028000Y010950D01*
X027998Y010967D01*
X027994Y010984D01*
X027987Y011000D01*
X027977Y011014D01*
X027964Y011027D01*
X027950Y011037D01*
X027934Y011044D01*
X027917Y011048D01*
X027900Y011050D01*
X027500Y010900D02*
X027100Y010650D01*
X027100Y010400D01*
X027100Y010650D02*
X026850Y010650D01*
X027100Y010650D02*
X027100Y010900D01*
X027100Y010650D02*
X027700Y010650D01*
X027500Y010900D02*
X027500Y010400D01*
X027100Y010650D01*
X024150Y010150D02*
X023950Y010150D01*
X024050Y010250D02*
X024050Y010050D01*
X022000Y010150D02*
X022002Y010216D01*
X022008Y010281D01*
X022018Y010346D01*
X022031Y010411D01*
X022049Y010474D01*
X022070Y010537D01*
X022095Y010597D01*
X022124Y010657D01*
X022156Y010714D01*
X022191Y010770D01*
X022230Y010823D01*
X022272Y010874D01*
X022316Y010922D01*
X022364Y010967D01*
X022414Y011010D01*
X022467Y011049D01*
X022522Y011086D01*
X022579Y011119D01*
X022638Y011148D01*
X022698Y011174D01*
X022760Y011196D01*
X022823Y011215D01*
X022887Y011229D01*
X022952Y011240D01*
X023018Y011247D01*
X023084Y011250D01*
X023149Y011249D01*
X023215Y011244D01*
X023280Y011235D01*
X023345Y011222D01*
X023408Y011206D01*
X023471Y011186D01*
X023532Y011161D01*
X023592Y011134D01*
X023650Y011103D01*
X023706Y011068D01*
X023760Y011030D01*
X023811Y010989D01*
X023860Y010945D01*
X023906Y010898D01*
X023950Y010849D01*
X023990Y010797D01*
X024027Y010742D01*
X024061Y010686D01*
X024091Y010627D01*
X024118Y010567D01*
X024141Y010506D01*
X024160Y010443D01*
X024176Y010379D01*
X024188Y010314D01*
X024196Y010249D01*
X024200Y010183D01*
X024200Y010117D01*
X024196Y010051D01*
X024188Y009986D01*
X024176Y009921D01*
X024160Y009857D01*
X024141Y009794D01*
X024118Y009733D01*
X024091Y009673D01*
X024061Y009614D01*
X024027Y009558D01*
X023990Y009503D01*
X023950Y009451D01*
X023906Y009402D01*
X023860Y009355D01*
X023811Y009311D01*
X023760Y009270D01*
X023706Y009232D01*
X023650Y009197D01*
X023592Y009166D01*
X023532Y009139D01*
X023471Y009114D01*
X023408Y009094D01*
X023345Y009078D01*
X023280Y009065D01*
X023215Y009056D01*
X023149Y009051D01*
X023084Y009050D01*
X023018Y009053D01*
X022952Y009060D01*
X022887Y009071D01*
X022823Y009085D01*
X022760Y009104D01*
X022698Y009126D01*
X022638Y009152D01*
X022579Y009181D01*
X022522Y009214D01*
X022467Y009251D01*
X022414Y009290D01*
X022364Y009333D01*
X022316Y009378D01*
X022272Y009426D01*
X022230Y009477D01*
X022191Y009530D01*
X022156Y009586D01*
X022124Y009643D01*
X022095Y009703D01*
X022070Y009763D01*
X022049Y009826D01*
X022031Y009889D01*
X022018Y009954D01*
X022008Y010019D01*
X022002Y010084D01*
X022000Y010150D01*
X019750Y015150D02*
X018050Y015150D01*
X018033Y015152D01*
X018016Y015156D01*
X018000Y015163D01*
X017986Y015173D01*
X017973Y015186D01*
X017963Y015200D01*
X017956Y015216D01*
X017952Y015233D01*
X017950Y015250D01*
X017950Y016250D01*
X017952Y016267D01*
X017956Y016284D01*
X017963Y016300D01*
X017973Y016314D01*
X017986Y016327D01*
X018000Y016337D01*
X018016Y016344D01*
X018033Y016348D01*
X018050Y016350D01*
X019750Y016350D01*
X019767Y016348D01*
X019784Y016344D01*
X019800Y016337D01*
X019814Y016327D01*
X019827Y016314D01*
X019837Y016300D01*
X019844Y016284D01*
X019848Y016267D01*
X019850Y016250D01*
X019850Y015250D01*
X019848Y015233D01*
X019844Y015216D01*
X019837Y015200D01*
X019827Y015186D01*
X019814Y015173D01*
X019800Y015163D01*
X019784Y015156D01*
X019767Y015152D01*
X019750Y015150D01*
X019050Y015750D02*
X019000Y015750D01*
X018800Y015750D02*
X018750Y015750D01*
X020150Y016950D02*
X020150Y017150D01*
X020250Y017050D02*
X020050Y017050D01*
X020000Y017050D02*
X020002Y017116D01*
X020008Y017181D01*
X020018Y017246D01*
X020031Y017311D01*
X020049Y017374D01*
X020070Y017437D01*
X020095Y017497D01*
X020124Y017557D01*
X020156Y017614D01*
X020191Y017670D01*
X020230Y017723D01*
X020272Y017774D01*
X020316Y017822D01*
X020364Y017867D01*
X020414Y017910D01*
X020467Y017949D01*
X020522Y017986D01*
X020579Y018019D01*
X020638Y018048D01*
X020698Y018074D01*
X020760Y018096D01*
X020823Y018115D01*
X020887Y018129D01*
X020952Y018140D01*
X021018Y018147D01*
X021084Y018150D01*
X021149Y018149D01*
X021215Y018144D01*
X021280Y018135D01*
X021345Y018122D01*
X021408Y018106D01*
X021471Y018086D01*
X021532Y018061D01*
X021592Y018034D01*
X021650Y018003D01*
X021706Y017968D01*
X021760Y017930D01*
X021811Y017889D01*
X021860Y017845D01*
X021906Y017798D01*
X021950Y017749D01*
X021990Y017697D01*
X022027Y017642D01*
X022061Y017586D01*
X022091Y017527D01*
X022118Y017467D01*
X022141Y017406D01*
X022160Y017343D01*
X022176Y017279D01*
X022188Y017214D01*
X022196Y017149D01*
X022200Y017083D01*
X022200Y017017D01*
X022196Y016951D01*
X022188Y016886D01*
X022176Y016821D01*
X022160Y016757D01*
X022141Y016694D01*
X022118Y016633D01*
X022091Y016573D01*
X022061Y016514D01*
X022027Y016458D01*
X021990Y016403D01*
X021950Y016351D01*
X021906Y016302D01*
X021860Y016255D01*
X021811Y016211D01*
X021760Y016170D01*
X021706Y016132D01*
X021650Y016097D01*
X021592Y016066D01*
X021532Y016039D01*
X021471Y016014D01*
X021408Y015994D01*
X021345Y015978D01*
X021280Y015965D01*
X021215Y015956D01*
X021149Y015951D01*
X021084Y015950D01*
X021018Y015953D01*
X020952Y015960D01*
X020887Y015971D01*
X020823Y015985D01*
X020760Y016004D01*
X020698Y016026D01*
X020638Y016052D01*
X020579Y016081D01*
X020522Y016114D01*
X020467Y016151D01*
X020414Y016190D01*
X020364Y016233D01*
X020316Y016278D01*
X020272Y016326D01*
X020230Y016377D01*
X020191Y016430D01*
X020156Y016486D01*
X020124Y016543D01*
X020095Y016603D01*
X020070Y016663D01*
X020049Y016726D01*
X020031Y016789D01*
X020018Y016854D01*
X020008Y016919D01*
X020002Y016984D01*
X020000Y017050D01*
X021000Y018300D02*
X022000Y018300D01*
X022017Y018302D01*
X022034Y018306D01*
X022050Y018313D01*
X022064Y018323D01*
X022077Y018336D01*
X022087Y018350D01*
X022094Y018366D01*
X022098Y018383D01*
X022100Y018400D01*
X022100Y020100D01*
X022098Y020117D01*
X022094Y020134D01*
X022087Y020150D01*
X022077Y020164D01*
X022064Y020177D01*
X022050Y020187D01*
X022034Y020194D01*
X022017Y020198D01*
X022000Y020200D01*
X021000Y020200D01*
X020983Y020198D01*
X020966Y020194D01*
X020950Y020187D01*
X020936Y020177D01*
X020923Y020164D01*
X020913Y020150D01*
X020906Y020134D01*
X020902Y020117D01*
X020900Y020100D01*
X020900Y018400D01*
X020902Y018383D01*
X020906Y018366D01*
X020913Y018350D01*
X020923Y018336D01*
X020936Y018323D01*
X020950Y018313D01*
X020966Y018306D01*
X020983Y018302D01*
X021000Y018300D01*
X021500Y019100D02*
X021500Y019150D01*
X021500Y019350D02*
X021500Y019400D01*
X021400Y021700D02*
X022400Y021700D01*
X022417Y021702D01*
X022434Y021706D01*
X022450Y021713D01*
X022464Y021723D01*
X022477Y021736D01*
X022487Y021750D01*
X022494Y021766D01*
X022498Y021783D01*
X022500Y021800D01*
X022500Y023500D01*
X022498Y023517D01*
X022494Y023534D01*
X022487Y023550D01*
X022477Y023564D01*
X022464Y023577D01*
X022450Y023587D01*
X022434Y023594D01*
X022417Y023598D01*
X022400Y023600D01*
X021400Y023600D01*
X021383Y023598D01*
X021366Y023594D01*
X021350Y023587D01*
X021336Y023577D01*
X021323Y023564D01*
X021313Y023550D01*
X021306Y023534D01*
X021302Y023517D01*
X021300Y023500D01*
X021300Y021800D01*
X021302Y021783D01*
X021306Y021766D01*
X021313Y021750D01*
X021323Y021736D01*
X021336Y021723D01*
X021350Y021713D01*
X021366Y021706D01*
X021383Y021702D01*
X021400Y021700D01*
X021900Y022500D02*
X021900Y022550D01*
X021900Y022750D02*
X021900Y022800D01*
X019050Y023050D02*
X019050Y022050D01*
X019048Y022033D01*
X019044Y022016D01*
X019037Y022000D01*
X019027Y021986D01*
X019014Y021973D01*
X019000Y021963D01*
X018984Y021956D01*
X018967Y021952D01*
X018950Y021950D01*
X017250Y021950D01*
X017233Y021952D01*
X017216Y021956D01*
X017200Y021963D01*
X017186Y021973D01*
X017173Y021986D01*
X017163Y022000D01*
X017156Y022016D01*
X017152Y022033D01*
X017150Y022050D01*
X017150Y023050D01*
X017152Y023067D01*
X017156Y023084D01*
X017163Y023100D01*
X017173Y023114D01*
X017186Y023127D01*
X017200Y023137D01*
X017216Y023144D01*
X017233Y023148D01*
X017250Y023150D01*
X018950Y023150D01*
X018967Y023148D01*
X018984Y023144D01*
X019000Y023137D01*
X019014Y023127D01*
X019027Y023114D01*
X019037Y023100D01*
X019044Y023084D01*
X019048Y023067D01*
X019050Y023050D01*
X018250Y022550D02*
X018200Y022550D01*
X018000Y022550D02*
X017950Y022550D01*
X012200Y022300D02*
X012200Y024000D01*
X012198Y024017D01*
X012194Y024034D01*
X012187Y024050D01*
X012177Y024064D01*
X012164Y024077D01*
X012150Y024087D01*
X012134Y024094D01*
X012117Y024098D01*
X012100Y024100D01*
X011100Y024100D01*
X011083Y024098D01*
X011066Y024094D01*
X011050Y024087D01*
X011036Y024077D01*
X011023Y024064D01*
X011013Y024050D01*
X011006Y024034D01*
X011002Y024017D01*
X011000Y024000D01*
X011000Y022300D01*
X011002Y022283D01*
X011006Y022266D01*
X011013Y022250D01*
X011023Y022236D01*
X011036Y022223D01*
X011050Y022213D01*
X011066Y022206D01*
X011083Y022202D01*
X011100Y022200D01*
X012100Y022200D01*
X012117Y022202D01*
X012134Y022206D01*
X012150Y022213D01*
X012164Y022223D01*
X012177Y022236D01*
X012187Y022250D01*
X012194Y022266D01*
X012198Y022283D01*
X012200Y022300D01*
X011600Y023000D02*
X011600Y023050D01*
X011600Y023250D02*
X011600Y023300D01*
X009700Y022000D02*
X009700Y020300D01*
X009698Y020283D01*
X009694Y020266D01*
X009687Y020250D01*
X009677Y020236D01*
X009664Y020223D01*
X009650Y020213D01*
X009634Y020206D01*
X009617Y020202D01*
X009600Y020200D01*
X008600Y020200D01*
X008583Y020202D01*
X008566Y020206D01*
X008550Y020213D01*
X008536Y020223D01*
X008523Y020236D01*
X008513Y020250D01*
X008506Y020266D01*
X008502Y020283D01*
X008500Y020300D01*
X008500Y022000D01*
X008502Y022017D01*
X008506Y022034D01*
X008513Y022050D01*
X008523Y022064D01*
X008536Y022077D01*
X008550Y022087D01*
X008566Y022094D01*
X008583Y022098D01*
X008600Y022100D01*
X009600Y022100D01*
X009617Y022098D01*
X009634Y022094D01*
X009650Y022087D01*
X009664Y022077D01*
X009677Y022064D01*
X009687Y022050D01*
X009694Y022034D01*
X009698Y022017D01*
X009700Y022000D01*
X009100Y021300D02*
X009100Y021250D01*
X009100Y021050D02*
X009100Y021000D01*
X011000Y021000D02*
X011000Y019300D01*
X011002Y019283D01*
X011006Y019266D01*
X011013Y019250D01*
X011023Y019236D01*
X011036Y019223D01*
X011050Y019213D01*
X011066Y019206D01*
X011083Y019202D01*
X011100Y019200D01*
X012100Y019200D01*
X012117Y019202D01*
X012134Y019206D01*
X012150Y019213D01*
X012164Y019223D01*
X012177Y019236D01*
X012187Y019250D01*
X012194Y019266D01*
X012198Y019283D01*
X012200Y019300D01*
X012200Y021000D01*
X012198Y021017D01*
X012194Y021034D01*
X012187Y021050D01*
X012177Y021064D01*
X012164Y021077D01*
X012150Y021087D01*
X012134Y021094D01*
X012117Y021098D01*
X012100Y021100D01*
X011100Y021100D01*
X011083Y021098D01*
X011066Y021094D01*
X011050Y021087D01*
X011036Y021077D01*
X011023Y021064D01*
X011013Y021050D01*
X011006Y021034D01*
X011002Y021017D01*
X011000Y021000D01*
X011600Y020300D02*
X011600Y020250D01*
X011600Y020050D02*
X011600Y020000D01*
X014050Y018750D02*
X014050Y017750D01*
X014052Y017733D01*
X014056Y017716D01*
X014063Y017700D01*
X014073Y017686D01*
X014086Y017673D01*
X014100Y017663D01*
X014116Y017656D01*
X014133Y017652D01*
X014150Y017650D01*
X015850Y017650D01*
X015867Y017652D01*
X015884Y017656D01*
X015900Y017663D01*
X015914Y017673D01*
X015927Y017686D01*
X015937Y017700D01*
X015944Y017716D01*
X015948Y017733D01*
X015950Y017750D01*
X015950Y018750D01*
X015948Y018767D01*
X015944Y018784D01*
X015937Y018800D01*
X015927Y018814D01*
X015914Y018827D01*
X015900Y018837D01*
X015884Y018844D01*
X015867Y018848D01*
X015850Y018850D01*
X014150Y018850D01*
X014133Y018848D01*
X014116Y018844D01*
X014100Y018837D01*
X014086Y018827D01*
X014073Y018814D01*
X014063Y018800D01*
X014056Y018784D01*
X014052Y018767D01*
X014050Y018750D01*
X014850Y018250D02*
X014900Y018250D01*
X015100Y018250D02*
X015150Y018250D01*
X007000Y018850D02*
X007000Y019450D01*
X006998Y019467D01*
X006994Y019484D01*
X006987Y019500D01*
X006977Y019514D01*
X006964Y019527D01*
X006950Y019537D01*
X006934Y019544D01*
X006917Y019548D01*
X006900Y019550D01*
X006750Y019550D01*
X006700Y019500D01*
X005300Y019500D01*
X005250Y019550D01*
X005100Y019550D01*
X005083Y019548D01*
X005066Y019544D01*
X005050Y019537D01*
X005036Y019527D01*
X005023Y019514D01*
X005013Y019500D01*
X005006Y019484D01*
X005002Y019467D01*
X005000Y019450D01*
X005000Y018850D01*
X005002Y018833D01*
X005006Y018816D01*
X005013Y018800D01*
X005023Y018786D01*
X005036Y018773D01*
X005050Y018763D01*
X005066Y018756D01*
X005083Y018752D01*
X005100Y018750D01*
X005250Y018750D01*
X005300Y018800D01*
X006700Y018800D01*
X006750Y018750D01*
X006900Y018750D01*
X006917Y018752D01*
X006934Y018756D01*
X006950Y018763D01*
X006964Y018773D01*
X006977Y018786D01*
X006987Y018800D01*
X006994Y018816D01*
X006998Y018833D01*
X007000Y018850D01*
X007250Y004850D02*
X005550Y004850D01*
X005533Y004848D01*
X005516Y004844D01*
X005500Y004837D01*
X005486Y004827D01*
X005473Y004814D01*
X005463Y004800D01*
X005456Y004784D01*
X005452Y004767D01*
X005450Y004750D01*
X005450Y003750D01*
X005452Y003733D01*
X005456Y003716D01*
X005463Y003700D01*
X005473Y003686D01*
X005486Y003673D01*
X005500Y003663D01*
X005516Y003656D01*
X005533Y003652D01*
X005550Y003650D01*
X007250Y003650D01*
X007267Y003652D01*
X007284Y003656D01*
X007300Y003663D01*
X007314Y003673D01*
X007327Y003686D01*
X007337Y003700D01*
X007344Y003716D01*
X007348Y003733D01*
X007350Y003750D01*
X007350Y004750D01*
X007348Y004767D01*
X007344Y004784D01*
X007337Y004800D01*
X007327Y004814D01*
X007314Y004827D01*
X007300Y004837D01*
X007284Y004844D01*
X007267Y004848D01*
X007250Y004850D01*
X006550Y004250D02*
X006500Y004250D01*
X006300Y004250D02*
X006250Y004250D01*
X037500Y019800D02*
X037500Y021500D01*
X037502Y021517D01*
X037506Y021534D01*
X037513Y021550D01*
X037523Y021564D01*
X037536Y021577D01*
X037550Y021587D01*
X037566Y021594D01*
X037583Y021598D01*
X037600Y021600D01*
X038600Y021600D01*
X038617Y021598D01*
X038634Y021594D01*
X038650Y021587D01*
X038664Y021577D01*
X038677Y021564D01*
X038687Y021550D01*
X038694Y021534D01*
X038698Y021517D01*
X038700Y021500D01*
X038700Y019800D01*
X038698Y019783D01*
X038694Y019766D01*
X038687Y019750D01*
X038677Y019736D01*
X038664Y019723D01*
X038650Y019713D01*
X038634Y019706D01*
X038617Y019702D01*
X038600Y019700D01*
X037600Y019700D01*
X037583Y019702D01*
X037566Y019706D01*
X037550Y019713D01*
X037536Y019723D01*
X037523Y019736D01*
X037513Y019750D01*
X037506Y019766D01*
X037502Y019783D01*
X037500Y019800D01*
X038100Y020500D02*
X038100Y020550D01*
X038100Y020750D02*
X038100Y020800D01*
X039800Y020850D02*
X039800Y021450D01*
X039802Y021467D01*
X039806Y021484D01*
X039813Y021500D01*
X039823Y021514D01*
X039836Y021527D01*
X039850Y021537D01*
X039866Y021544D01*
X039883Y021548D01*
X039900Y021550D01*
X040050Y021550D01*
X040100Y021500D01*
X041500Y021500D01*
X041550Y021550D01*
X041700Y021550D01*
X041717Y021548D01*
X041734Y021544D01*
X041750Y021537D01*
X041764Y021527D01*
X041777Y021514D01*
X041787Y021500D01*
X041794Y021484D01*
X041798Y021467D01*
X041800Y021450D01*
X041800Y020850D01*
X041798Y020833D01*
X041794Y020816D01*
X041787Y020800D01*
X041777Y020786D01*
X041764Y020773D01*
X041750Y020763D01*
X041734Y020756D01*
X041717Y020752D01*
X041700Y020750D01*
X041550Y020750D01*
X041500Y020800D01*
X040100Y020800D01*
X040050Y020750D01*
X039900Y020750D01*
X039883Y020752D01*
X039866Y020756D01*
X039850Y020763D01*
X039836Y020773D01*
X039823Y020786D01*
X039813Y020800D01*
X039806Y020816D01*
X039802Y020833D01*
X039800Y020850D01*
X039900Y020550D02*
X040050Y020550D01*
X040100Y020500D01*
X041500Y020500D01*
X041550Y020550D01*
X041700Y020550D01*
X041717Y020548D01*
X041734Y020544D01*
X041750Y020537D01*
X041764Y020527D01*
X041777Y020514D01*
X041787Y020500D01*
X041794Y020484D01*
X041798Y020467D01*
X041800Y020450D01*
X041800Y019850D01*
X041798Y019833D01*
X041794Y019816D01*
X041787Y019800D01*
X041777Y019786D01*
X041764Y019773D01*
X041750Y019763D01*
X041734Y019756D01*
X041717Y019752D01*
X041700Y019750D01*
X041550Y019750D01*
X041500Y019800D01*
X040100Y019800D01*
X040050Y019750D01*
X039900Y019750D01*
X039883Y019752D01*
X039866Y019756D01*
X039850Y019763D01*
X039836Y019773D01*
X039823Y019786D01*
X039813Y019800D01*
X039806Y019816D01*
X039802Y019833D01*
X039800Y019850D01*
X039800Y020450D01*
X039802Y020467D01*
X039806Y020484D01*
X039813Y020500D01*
X039823Y020514D01*
X039836Y020527D01*
X039850Y020537D01*
X039866Y020544D01*
X039883Y020548D01*
X039900Y020550D01*
X041700Y018900D02*
X041700Y017200D01*
X041702Y017183D01*
X041706Y017166D01*
X041713Y017150D01*
X041723Y017136D01*
X041736Y017123D01*
X041750Y017113D01*
X041766Y017106D01*
X041783Y017102D01*
X041800Y017100D01*
X042800Y017100D01*
X042817Y017102D01*
X042834Y017106D01*
X042850Y017113D01*
X042864Y017123D01*
X042877Y017136D01*
X042887Y017150D01*
X042894Y017166D01*
X042898Y017183D01*
X042900Y017200D01*
X042900Y018900D01*
X042898Y018917D01*
X042894Y018934D01*
X042887Y018950D01*
X042877Y018964D01*
X042864Y018977D01*
X042850Y018987D01*
X042834Y018994D01*
X042817Y018998D01*
X042800Y019000D01*
X041800Y019000D01*
X041783Y018998D01*
X041766Y018994D01*
X041750Y018987D01*
X041736Y018977D01*
X041723Y018964D01*
X041713Y018950D01*
X041706Y018934D01*
X041702Y018917D01*
X041700Y018900D01*
X042300Y018200D02*
X042300Y018150D01*
X042300Y017950D02*
X042300Y017900D01*
X043700Y017900D02*
X043700Y017950D01*
X043700Y018150D02*
X043700Y018200D01*
X043100Y018900D02*
X043102Y018917D01*
X043106Y018934D01*
X043113Y018950D01*
X043123Y018964D01*
X043136Y018977D01*
X043150Y018987D01*
X043166Y018994D01*
X043183Y018998D01*
X043200Y019000D01*
X044200Y019000D01*
X044217Y018998D01*
X044234Y018994D01*
X044250Y018987D01*
X044264Y018977D01*
X044277Y018964D01*
X044287Y018950D01*
X044294Y018934D01*
X044298Y018917D01*
X044300Y018900D01*
X044300Y017200D01*
X044298Y017183D01*
X044294Y017166D01*
X044287Y017150D01*
X044277Y017136D01*
X044264Y017123D01*
X044250Y017113D01*
X044234Y017106D01*
X044217Y017102D01*
X044200Y017100D01*
X043200Y017100D01*
X043183Y017102D01*
X043166Y017106D01*
X043150Y017113D01*
X043136Y017123D01*
X043123Y017136D01*
X043113Y017150D01*
X043106Y017166D01*
X043102Y017183D01*
X043100Y017200D01*
X043100Y018900D01*
X043200Y019700D02*
X044200Y019700D01*
X044217Y019702D01*
X044234Y019706D01*
X044250Y019713D01*
X044264Y019723D01*
X044277Y019736D01*
X044287Y019750D01*
X044294Y019766D01*
X044298Y019783D01*
X044300Y019800D01*
X044300Y021500D01*
X044298Y021517D01*
X044294Y021534D01*
X044287Y021550D01*
X044277Y021564D01*
X044264Y021577D01*
X044250Y021587D01*
X044234Y021594D01*
X044217Y021598D01*
X044200Y021600D01*
X043200Y021600D01*
X043183Y021598D01*
X043166Y021594D01*
X043150Y021587D01*
X043136Y021577D01*
X043123Y021564D01*
X043113Y021550D01*
X043106Y021534D01*
X043102Y021517D01*
X043100Y021500D01*
X043100Y019800D01*
X043102Y019783D01*
X043106Y019766D01*
X043113Y019750D01*
X043123Y019736D01*
X043136Y019723D01*
X043150Y019713D01*
X043166Y019706D01*
X043183Y019702D01*
X043200Y019700D01*
X043700Y020500D02*
X043700Y020550D01*
X043700Y020750D02*
X043700Y020800D01*
X044200Y023100D02*
X043200Y023100D01*
X043183Y023102D01*
X043166Y023106D01*
X043150Y023113D01*
X043136Y023123D01*
X043123Y023136D01*
X043113Y023150D01*
X043106Y023166D01*
X043102Y023183D01*
X043100Y023200D01*
X043100Y024900D01*
X043102Y024917D01*
X043106Y024934D01*
X043113Y024950D01*
X043123Y024964D01*
X043136Y024977D01*
X043150Y024987D01*
X043166Y024994D01*
X043183Y024998D01*
X043200Y025000D01*
X044200Y025000D01*
X044217Y024998D01*
X044234Y024994D01*
X044250Y024987D01*
X044264Y024977D01*
X044277Y024964D01*
X044287Y024950D01*
X044294Y024934D01*
X044298Y024917D01*
X044300Y024900D01*
X044300Y023200D01*
X044298Y023183D01*
X044294Y023166D01*
X044287Y023150D01*
X044277Y023136D01*
X044264Y023123D01*
X044250Y023113D01*
X044234Y023106D01*
X044217Y023102D01*
X044200Y023100D01*
X043700Y023900D02*
X043700Y023950D01*
X043700Y024150D02*
X043700Y024200D01*
X042300Y024200D02*
X042300Y024150D01*
X042300Y023950D02*
X042300Y023900D01*
X041700Y023200D02*
X041702Y023183D01*
X041706Y023166D01*
X041713Y023150D01*
X041723Y023136D01*
X041736Y023123D01*
X041750Y023113D01*
X041766Y023106D01*
X041783Y023102D01*
X041800Y023100D01*
X042800Y023100D01*
X042817Y023102D01*
X042834Y023106D01*
X042850Y023113D01*
X042864Y023123D01*
X042877Y023136D01*
X042887Y023150D01*
X042894Y023166D01*
X042898Y023183D01*
X042900Y023200D01*
X042900Y024900D01*
X042898Y024917D01*
X042894Y024934D01*
X042887Y024950D01*
X042877Y024964D01*
X042864Y024977D01*
X042850Y024987D01*
X042834Y024994D01*
X042817Y024998D01*
X042800Y025000D01*
X041800Y025000D01*
X041783Y024998D01*
X041766Y024994D01*
X041750Y024987D01*
X041736Y024977D01*
X041723Y024964D01*
X041713Y024950D01*
X041706Y024934D01*
X041702Y024917D01*
X041700Y024900D01*
X041700Y023200D01*
X041700Y025750D02*
X041550Y025750D01*
X041500Y025800D01*
X040100Y025800D01*
X040050Y025750D01*
X039900Y025750D01*
X039883Y025752D01*
X039866Y025756D01*
X039850Y025763D01*
X039836Y025773D01*
X039823Y025786D01*
X039813Y025800D01*
X039806Y025816D01*
X039802Y025833D01*
X039800Y025850D01*
X039800Y026450D01*
X039802Y026467D01*
X039806Y026484D01*
X039813Y026500D01*
X039823Y026514D01*
X039836Y026527D01*
X039850Y026537D01*
X039866Y026544D01*
X039883Y026548D01*
X039900Y026550D01*
X040050Y026550D01*
X040100Y026500D01*
X041500Y026500D01*
X041550Y026550D01*
X041700Y026550D01*
X041717Y026548D01*
X041734Y026544D01*
X041750Y026537D01*
X041764Y026527D01*
X041777Y026514D01*
X041787Y026500D01*
X041794Y026484D01*
X041798Y026467D01*
X041800Y026450D01*
X041800Y025850D01*
X041798Y025833D01*
X041794Y025816D01*
X041787Y025800D01*
X041777Y025786D01*
X041764Y025773D01*
X041750Y025763D01*
X041734Y025756D01*
X041717Y025752D01*
X041700Y025750D01*
X043100Y025800D02*
X043100Y027500D01*
X043102Y027517D01*
X043106Y027534D01*
X043113Y027550D01*
X043123Y027564D01*
X043136Y027577D01*
X043150Y027587D01*
X043166Y027594D01*
X043183Y027598D01*
X043200Y027600D01*
X044200Y027600D01*
X044217Y027598D01*
X044234Y027594D01*
X044250Y027587D01*
X044264Y027577D01*
X044277Y027564D01*
X044287Y027550D01*
X044294Y027534D01*
X044298Y027517D01*
X044300Y027500D01*
X044300Y025800D01*
X044298Y025783D01*
X044294Y025766D01*
X044287Y025750D01*
X044277Y025736D01*
X044264Y025723D01*
X044250Y025713D01*
X044234Y025706D01*
X044217Y025702D01*
X044200Y025700D01*
X043200Y025700D01*
X043183Y025702D01*
X043166Y025706D01*
X043150Y025713D01*
X043136Y025723D01*
X043123Y025736D01*
X043113Y025750D01*
X043106Y025766D01*
X043102Y025783D01*
X043100Y025800D01*
X043700Y026500D02*
X043700Y026550D01*
X043700Y026750D02*
X043700Y026800D01*
X041800Y026850D02*
X041800Y027450D01*
X041798Y027467D01*
X041794Y027484D01*
X041787Y027500D01*
X041777Y027514D01*
X041764Y027527D01*
X041750Y027537D01*
X041734Y027544D01*
X041717Y027548D01*
X041700Y027550D01*
X041550Y027550D01*
X041500Y027500D01*
X040100Y027500D01*
X040050Y027550D01*
X039900Y027550D01*
X039883Y027548D01*
X039866Y027544D01*
X039850Y027537D01*
X039836Y027527D01*
X039823Y027514D01*
X039813Y027500D01*
X039806Y027484D01*
X039802Y027467D01*
X039800Y027450D01*
X039800Y026850D01*
X039802Y026833D01*
X039806Y026816D01*
X039813Y026800D01*
X039823Y026786D01*
X039836Y026773D01*
X039850Y026763D01*
X039866Y026756D01*
X039883Y026752D01*
X039900Y026750D01*
X040050Y026750D01*
X040100Y026800D01*
X041500Y026800D01*
X041550Y026750D01*
X041700Y026750D01*
X041717Y026752D01*
X041734Y026756D01*
X041750Y026763D01*
X041764Y026773D01*
X041777Y026786D01*
X041787Y026800D01*
X041794Y026816D01*
X041798Y026833D01*
X041800Y026850D01*
X038800Y027500D02*
X038800Y025800D01*
X038798Y025783D01*
X038794Y025766D01*
X038787Y025750D01*
X038777Y025736D01*
X038764Y025723D01*
X038750Y025713D01*
X038734Y025706D01*
X038717Y025702D01*
X038700Y025700D01*
X037700Y025700D01*
X037683Y025702D01*
X037666Y025706D01*
X037650Y025713D01*
X037636Y025723D01*
X037623Y025736D01*
X037613Y025750D01*
X037606Y025766D01*
X037602Y025783D01*
X037600Y025800D01*
X037600Y027500D01*
X037602Y027517D01*
X037606Y027534D01*
X037613Y027550D01*
X037623Y027564D01*
X037636Y027577D01*
X037650Y027587D01*
X037666Y027594D01*
X037683Y027598D01*
X037700Y027600D01*
X038700Y027600D01*
X038717Y027598D01*
X038734Y027594D01*
X038750Y027587D01*
X038764Y027577D01*
X038777Y027564D01*
X038787Y027550D01*
X038794Y027534D01*
X038798Y027517D01*
X038800Y027500D01*
X038200Y026800D02*
X038200Y026750D01*
X038200Y026550D02*
X038200Y026500D01*
X043700Y015550D02*
X043850Y015550D01*
X043900Y015500D01*
X045300Y015500D01*
X045350Y015550D01*
X045500Y015550D01*
X045517Y015548D01*
X045534Y015544D01*
X045550Y015537D01*
X045564Y015527D01*
X045577Y015514D01*
X045587Y015500D01*
X045594Y015484D01*
X045598Y015467D01*
X045600Y015450D01*
X045600Y014850D01*
X045598Y014833D01*
X045594Y014816D01*
X045587Y014800D01*
X045577Y014786D01*
X045564Y014773D01*
X045550Y014763D01*
X045534Y014756D01*
X045517Y014752D01*
X045500Y014750D01*
X045350Y014750D01*
X045300Y014800D01*
X043900Y014800D01*
X043850Y014750D01*
X043700Y014750D01*
X043683Y014752D01*
X043666Y014756D01*
X043650Y014763D01*
X043636Y014773D01*
X043623Y014786D01*
X043613Y014800D01*
X043606Y014816D01*
X043602Y014833D01*
X043600Y014850D01*
X043600Y015450D01*
X043602Y015467D01*
X043606Y015484D01*
X043613Y015500D01*
X043623Y015514D01*
X043636Y015527D01*
X043650Y015537D01*
X043666Y015544D01*
X043683Y015548D01*
X043700Y015550D01*
X044900Y014500D02*
X045000Y014600D01*
X046150Y014650D01*
X044900Y014500D02*
X044900Y010800D01*
X045000Y010700D01*
X046150Y010650D01*
X045500Y010050D02*
X045350Y010050D01*
X045300Y010000D01*
X043900Y010000D01*
X043850Y010050D01*
X043700Y010050D01*
X043683Y010048D01*
X043666Y010044D01*
X043650Y010037D01*
X043636Y010027D01*
X043623Y010014D01*
X043613Y010000D01*
X043606Y009984D01*
X043602Y009967D01*
X043600Y009950D01*
X043600Y009350D01*
X043602Y009333D01*
X043606Y009316D01*
X043613Y009300D01*
X043623Y009286D01*
X043636Y009273D01*
X043650Y009263D01*
X043666Y009256D01*
X043683Y009252D01*
X043700Y009250D01*
X043850Y009250D01*
X043900Y009300D01*
X045300Y009300D01*
X045350Y009250D01*
X045500Y009250D01*
X045517Y009252D01*
X045534Y009256D01*
X045550Y009263D01*
X045564Y009273D01*
X045577Y009286D01*
X045587Y009300D01*
X045594Y009316D01*
X045598Y009333D01*
X045600Y009350D01*
X045600Y009950D01*
X045598Y009967D01*
X045594Y009984D01*
X045587Y010000D01*
X045577Y010014D01*
X045564Y010027D01*
X045550Y010037D01*
X045534Y010044D01*
X045517Y010048D01*
X045500Y010050D01*
X045500Y008550D02*
X045350Y008550D01*
X045300Y008500D01*
X043900Y008500D01*
X043850Y008550D01*
X043700Y008550D01*
X043683Y008548D01*
X043666Y008544D01*
X043650Y008537D01*
X043636Y008527D01*
X043623Y008514D01*
X043613Y008500D01*
X043606Y008484D01*
X043602Y008467D01*
X043600Y008450D01*
X043600Y007850D01*
X043602Y007833D01*
X043606Y007816D01*
X043613Y007800D01*
X043623Y007786D01*
X043636Y007773D01*
X043650Y007763D01*
X043666Y007756D01*
X043683Y007752D01*
X043700Y007750D01*
X043850Y007750D01*
X043900Y007800D01*
X045300Y007800D01*
X045350Y007750D01*
X045500Y007750D01*
X045517Y007752D01*
X045534Y007756D01*
X045550Y007763D01*
X045564Y007773D01*
X045577Y007786D01*
X045587Y007800D01*
X045594Y007816D01*
X045598Y007833D01*
X045600Y007850D01*
X045600Y008450D01*
X045598Y008467D01*
X045594Y008484D01*
X045587Y008500D01*
X045577Y008514D01*
X045564Y008527D01*
X045550Y008537D01*
X045534Y008544D01*
X045517Y008548D01*
X045500Y008550D01*
X045000Y007100D02*
X046150Y007150D01*
X045000Y007100D02*
X044900Y007000D01*
X044900Y003300D01*
X045000Y003200D01*
X046150Y003150D01*
X040100Y006750D02*
X040100Y007000D01*
X039600Y007000D01*
X039100Y007000D01*
X039100Y006750D01*
X040100Y006750D01*
X036850Y006650D02*
X036852Y006755D01*
X036858Y006859D01*
X036868Y006963D01*
X036882Y007067D01*
X036900Y007170D01*
X036921Y007273D01*
X036947Y007374D01*
X036977Y007475D01*
X037010Y007574D01*
X037047Y007672D01*
X037088Y007769D01*
X037132Y007863D01*
X037180Y007956D01*
X037232Y008048D01*
X037287Y008137D01*
X037345Y008224D01*
X037406Y008308D01*
X037471Y008391D01*
X037539Y008471D01*
X037610Y008548D01*
X037683Y008622D01*
X037760Y008694D01*
X037839Y008762D01*
X037921Y008828D01*
X038005Y008890D01*
X038091Y008949D01*
X038180Y009005D01*
X038271Y009057D01*
X038363Y009106D01*
X038458Y009151D01*
X038554Y009193D01*
X038651Y009231D01*
X038750Y009265D01*
X038850Y009296D01*
X038952Y009322D01*
X039054Y009345D01*
X039157Y009364D01*
X039261Y009379D01*
X039365Y009390D01*
X039469Y009397D01*
X039574Y009400D01*
X039679Y009399D01*
X039783Y009394D01*
X039887Y009385D01*
X039991Y009372D01*
X040095Y009355D01*
X040197Y009334D01*
X040299Y009310D01*
X040400Y009281D01*
X040499Y009249D01*
X040598Y009213D01*
X040695Y009173D01*
X040790Y009129D01*
X040883Y009082D01*
X040975Y009032D01*
X041065Y008977D01*
X041152Y008920D01*
X041238Y008859D01*
X041320Y008795D01*
X041401Y008728D01*
X041479Y008658D01*
X041554Y008585D01*
X041626Y008509D01*
X041695Y008431D01*
X041762Y008350D01*
X041825Y008266D01*
X041885Y008181D01*
X041941Y008092D01*
X041995Y008002D01*
X042044Y007910D01*
X042090Y007816D01*
X042133Y007720D01*
X042172Y007623D01*
X042207Y007525D01*
X042239Y007425D01*
X042266Y007324D01*
X042290Y007222D01*
X042310Y007119D01*
X042326Y007015D01*
X042338Y006911D01*
X042346Y006807D01*
X042350Y006702D01*
X042350Y006598D01*
X042346Y006493D01*
X042338Y006389D01*
X042326Y006285D01*
X042310Y006181D01*
X042290Y006078D01*
X042266Y005976D01*
X042239Y005875D01*
X042207Y005775D01*
X042172Y005677D01*
X042133Y005580D01*
X042090Y005484D01*
X042044Y005390D01*
X041995Y005298D01*
X041941Y005208D01*
X041885Y005119D01*
X041825Y005034D01*
X041762Y004950D01*
X041695Y004869D01*
X041626Y004791D01*
X041554Y004715D01*
X041479Y004642D01*
X041401Y004572D01*
X041320Y004505D01*
X041238Y004441D01*
X041152Y004380D01*
X041065Y004323D01*
X040975Y004268D01*
X040883Y004218D01*
X040790Y004171D01*
X040695Y004127D01*
X040598Y004087D01*
X040499Y004051D01*
X040400Y004019D01*
X040299Y003990D01*
X040197Y003966D01*
X040095Y003945D01*
X039991Y003928D01*
X039887Y003915D01*
X039783Y003906D01*
X039679Y003901D01*
X039574Y003900D01*
X039469Y003903D01*
X039365Y003910D01*
X039261Y003921D01*
X039157Y003936D01*
X039054Y003955D01*
X038952Y003978D01*
X038850Y004004D01*
X038750Y004035D01*
X038651Y004069D01*
X038554Y004107D01*
X038458Y004149D01*
X038363Y004194D01*
X038271Y004243D01*
X038180Y004295D01*
X038091Y004351D01*
X038005Y004410D01*
X037921Y004472D01*
X037839Y004538D01*
X037760Y004606D01*
X037683Y004678D01*
X037610Y004752D01*
X037539Y004829D01*
X037471Y004909D01*
X037406Y004992D01*
X037345Y005076D01*
X037287Y005163D01*
X037232Y005252D01*
X037180Y005344D01*
X037132Y005437D01*
X037088Y005531D01*
X037047Y005628D01*
X037010Y005726D01*
X036977Y005825D01*
X036947Y005926D01*
X036921Y006027D01*
X036900Y006130D01*
X036882Y006233D01*
X036868Y006337D01*
X036858Y006441D01*
X036852Y006545D01*
X036850Y006650D01*
X039600Y006400D02*
X039600Y006200D01*
X039600Y007000D02*
X039600Y007100D01*
X039600Y008400D02*
X039600Y008900D01*
X039350Y008650D02*
X039850Y008650D01*
D12*
X036241Y014013D02*
X036241Y016113D01*
X036206Y014013D02*
X036241Y014013D01*
X042000Y017950D02*
X042300Y017950D01*
X042600Y017950D01*
X042600Y018150D02*
X042300Y018150D01*
X042000Y018150D01*
X043400Y018150D02*
X043700Y018150D01*
X044000Y018150D01*
X044000Y017950D02*
X043700Y017950D01*
X043400Y017950D01*
X043400Y020550D02*
X043700Y020550D01*
X044000Y020550D01*
X044000Y020750D02*
X043700Y020750D01*
X043400Y020750D01*
X038400Y020750D02*
X038100Y020750D01*
X037800Y020750D01*
X037800Y020550D02*
X038100Y020550D01*
X038400Y020550D01*
X036241Y023109D02*
X036241Y025423D01*
X035856Y025423D01*
X037900Y026550D02*
X038200Y026550D01*
X038500Y026550D01*
X038500Y026750D02*
X038200Y026750D01*
X037900Y026750D01*
X042000Y024150D02*
X042300Y024150D01*
X042600Y024150D01*
X042600Y023950D02*
X042300Y023950D01*
X042000Y023950D01*
X043400Y023950D02*
X043700Y023950D01*
X044000Y023950D01*
X044000Y024150D02*
X043700Y024150D01*
X043400Y024150D01*
X043400Y026550D02*
X043700Y026550D01*
X044000Y026550D01*
X044000Y026750D02*
X043700Y026750D01*
X043400Y026750D01*
X025521Y025428D02*
X024963Y025423D01*
X024963Y022652D01*
X022200Y022750D02*
X021900Y022750D01*
X021600Y022750D01*
X021600Y022550D02*
X021900Y022550D01*
X022200Y022550D01*
X018200Y022550D02*
X018200Y022250D01*
X018000Y022250D02*
X018000Y022550D01*
X018000Y022850D01*
X018200Y022850D02*
X018200Y022550D01*
X021200Y019350D02*
X021500Y019350D01*
X021800Y019350D01*
X021800Y019150D02*
X021500Y019150D01*
X021200Y019150D01*
X024924Y016113D02*
X024924Y014013D01*
X026656Y014013D01*
X023400Y013050D02*
X023100Y013050D01*
X022800Y013050D01*
X022800Y012850D02*
X023100Y012850D01*
X023400Y012850D01*
X019000Y015450D02*
X019000Y015750D01*
X019000Y016050D01*
X018800Y016050D02*
X018800Y015750D01*
X018800Y015450D01*
X015100Y017950D02*
X015100Y018250D01*
X015100Y018550D01*
X014900Y018550D02*
X014900Y018250D01*
X014900Y017950D01*
X011900Y020050D02*
X011600Y020050D01*
X011300Y020050D01*
X011300Y020250D02*
X011600Y020250D01*
X011900Y020250D01*
X009400Y021050D02*
X009100Y021050D01*
X008800Y021050D01*
X008800Y021250D02*
X009100Y021250D01*
X009400Y021250D01*
X011300Y023050D02*
X011600Y023050D01*
X011900Y023050D01*
X011900Y023250D02*
X011600Y023250D01*
X011300Y023250D01*
X016300Y010750D02*
X016600Y010750D01*
X016900Y010750D01*
X016900Y010550D02*
X016600Y010550D01*
X016300Y010550D01*
X006500Y004550D02*
X006500Y004250D01*
X006500Y003950D01*
X006300Y003950D02*
X006300Y004250D01*
X006300Y004550D01*
D13*
X005600Y003075D02*
X005525Y003075D01*
X005525Y003150D01*
X005600Y003150D01*
X005600Y003075D01*
X005755Y003075D02*
X006055Y003075D01*
X005905Y003075D02*
X005905Y003525D01*
X005755Y003375D01*
X006216Y003375D02*
X006216Y003150D01*
X006291Y003075D01*
X006516Y003075D01*
X006516Y003375D01*
X006286Y005025D02*
X005985Y005025D01*
X006136Y005025D02*
X006136Y005475D01*
X005985Y005325D01*
X005825Y005400D02*
X005750Y005475D01*
X005600Y005475D01*
X005525Y005400D01*
X005525Y005100D01*
X005600Y005025D01*
X005750Y005025D01*
X005825Y005100D01*
X005344Y005229D02*
X013612Y005229D01*
X013612Y015071D01*
X005344Y015071D01*
X002785Y011922D01*
X002785Y008181D01*
X005344Y005229D01*
X015375Y009829D02*
X015450Y009754D01*
X015750Y009754D01*
X015825Y009829D01*
X015825Y009979D01*
X015750Y010054D01*
X015750Y010215D02*
X015825Y010290D01*
X015825Y010440D01*
X015750Y010515D01*
X015675Y010515D01*
X015600Y010440D01*
X015600Y010215D01*
X015750Y010215D01*
X015600Y010215D02*
X015450Y010365D01*
X015375Y010515D01*
X015450Y010054D02*
X015375Y009979D01*
X015375Y009829D01*
X015700Y011024D02*
X015700Y011099D01*
X015775Y011099D01*
X015775Y011024D01*
X015700Y011024D01*
X015775Y011254D02*
X015775Y011554D01*
X015775Y011404D02*
X015325Y011404D01*
X015475Y011254D01*
X015475Y011715D02*
X015700Y011715D01*
X015775Y011790D01*
X015775Y012015D01*
X015475Y012015D01*
X017155Y012205D02*
X019045Y012205D01*
X019045Y014095D01*
X017155Y014095D01*
X017155Y012205D01*
X018808Y012363D02*
X018810Y012381D01*
X018816Y012397D01*
X018825Y012412D01*
X018838Y012425D01*
X018853Y012434D01*
X018869Y012440D01*
X018887Y012442D01*
X018905Y012440D01*
X018921Y012434D01*
X018936Y012425D01*
X018949Y012412D01*
X018958Y012397D01*
X018964Y012381D01*
X018966Y012363D01*
X018964Y012345D01*
X018958Y012329D01*
X018949Y012314D01*
X018936Y012301D01*
X018921Y012292D01*
X018905Y012286D01*
X018887Y012284D01*
X018869Y012286D01*
X018853Y012292D01*
X018838Y012301D01*
X018825Y012314D01*
X018816Y012329D01*
X018810Y012345D01*
X018808Y012363D01*
X019891Y012363D02*
X021309Y012363D01*
X021309Y013937D01*
X019891Y013937D01*
X019891Y012363D01*
X021294Y011650D02*
X021294Y011350D01*
X021369Y011275D01*
X021519Y011275D01*
X021594Y011350D01*
X021754Y011275D02*
X022054Y011275D01*
X021904Y011275D02*
X021904Y011725D01*
X021754Y011575D01*
X021594Y011650D02*
X021519Y011725D01*
X021369Y011725D01*
X021294Y011650D01*
X021372Y010937D02*
X021175Y010937D01*
X021087Y010741D02*
X021089Y010759D01*
X021095Y010777D01*
X021104Y010793D01*
X021116Y010806D01*
X021131Y010817D01*
X021148Y010825D01*
X021166Y010829D01*
X021184Y010829D01*
X021202Y010825D01*
X021219Y010817D01*
X021234Y010806D01*
X021246Y010793D01*
X021255Y010777D01*
X021261Y010759D01*
X021263Y010741D01*
X021261Y010723D01*
X021255Y010705D01*
X021246Y010689D01*
X021234Y010676D01*
X021219Y010665D01*
X021202Y010657D01*
X021184Y010653D01*
X021166Y010653D01*
X021148Y010657D01*
X021131Y010665D01*
X021116Y010676D01*
X021104Y010689D01*
X021095Y010705D01*
X021089Y010723D01*
X021087Y010741D01*
X021372Y010937D02*
X021372Y009363D01*
X021175Y009363D01*
X020033Y008772D02*
X018978Y007656D01*
X018978Y006756D01*
X018626Y006756D01*
X018626Y005504D01*
X018978Y005504D01*
X018978Y003931D01*
X019700Y003931D01*
X020443Y004816D01*
X022800Y004816D01*
X023700Y003931D01*
X024222Y003931D01*
X024222Y005504D01*
X024574Y005504D01*
X024574Y006796D01*
X024222Y006796D01*
X024222Y007596D01*
X023106Y008772D01*
X020033Y008772D01*
X018025Y009363D02*
X017828Y009363D01*
X017828Y010937D01*
X018025Y010937D01*
X021875Y012550D02*
X021950Y012475D01*
X022250Y012475D01*
X022325Y012550D01*
X022325Y012700D01*
X022250Y012775D01*
X022325Y012935D02*
X022325Y013236D01*
X022325Y013086D02*
X021875Y013086D01*
X022025Y012935D01*
X021950Y012775D02*
X021875Y012700D01*
X021875Y012550D01*
X021950Y013396D02*
X021875Y013471D01*
X021875Y013621D01*
X021950Y013696D01*
X022025Y013696D01*
X022100Y013621D01*
X022175Y013696D01*
X022250Y013696D01*
X022325Y013621D01*
X022325Y013471D01*
X022250Y013396D01*
X022100Y013546D02*
X022100Y013621D01*
X021135Y013819D02*
X021137Y013833D01*
X021143Y013847D01*
X021151Y013859D01*
X021163Y013867D01*
X021177Y013873D01*
X021191Y013875D01*
X021205Y013873D01*
X021219Y013867D01*
X021231Y013859D01*
X021239Y013847D01*
X021245Y013833D01*
X021247Y013819D01*
X021245Y013805D01*
X021239Y013791D01*
X021231Y013779D01*
X021219Y013771D01*
X021205Y013765D01*
X021191Y013763D01*
X021177Y013765D01*
X021163Y013771D01*
X021151Y013779D01*
X021143Y013791D01*
X021137Y013805D01*
X021135Y013819D01*
X019665Y014575D02*
X019665Y014875D01*
X019665Y014575D02*
X019440Y014575D01*
X019365Y014650D01*
X019365Y014875D01*
X019204Y014575D02*
X018904Y014575D01*
X019054Y014575D02*
X019054Y015025D01*
X018904Y014875D01*
X018749Y014650D02*
X018749Y014575D01*
X018674Y014575D01*
X018674Y014650D01*
X018749Y014650D01*
X017665Y015700D02*
X017590Y015625D01*
X017440Y015625D01*
X017365Y015700D01*
X017365Y015775D01*
X017440Y015850D01*
X017590Y015850D01*
X017665Y015775D01*
X017665Y015700D01*
X017590Y015850D02*
X017665Y015925D01*
X017665Y016000D01*
X017590Y016075D01*
X017440Y016075D01*
X017365Y016000D01*
X017365Y015925D01*
X017440Y015850D01*
X017204Y015700D02*
X017129Y015625D01*
X016979Y015625D01*
X016904Y015700D01*
X016904Y016000D01*
X016979Y016075D01*
X017129Y016075D01*
X017204Y016000D01*
X016365Y016375D02*
X016365Y016600D01*
X016290Y016675D01*
X016065Y016675D01*
X016065Y016375D01*
X015904Y016450D02*
X015829Y016375D01*
X015679Y016375D01*
X015604Y016450D01*
X015904Y016750D01*
X015904Y016450D01*
X015604Y016450D02*
X015604Y016750D01*
X015679Y016825D01*
X015829Y016825D01*
X015904Y016750D01*
X015690Y017025D02*
X015540Y017025D01*
X015465Y017100D01*
X015465Y017250D02*
X015615Y017325D01*
X015690Y017325D01*
X015765Y017250D01*
X015765Y017100D01*
X015690Y017025D01*
X015465Y017250D02*
X015465Y017475D01*
X015765Y017475D01*
X015304Y017400D02*
X015229Y017475D01*
X015079Y017475D01*
X015004Y017400D01*
X015004Y017100D01*
X015079Y017025D01*
X015229Y017025D01*
X015304Y017100D01*
X015294Y016825D02*
X015294Y016375D01*
X015144Y016375D02*
X015444Y016375D01*
X015144Y016675D02*
X015294Y016825D01*
X016919Y017969D02*
X016919Y020331D01*
X019281Y020331D01*
X019281Y017969D01*
X016919Y017969D01*
X014584Y019091D02*
X012616Y019091D01*
X012616Y024209D01*
X014584Y024209D01*
X014584Y019091D01*
X011925Y018396D02*
X011475Y018396D01*
X011475Y018621D01*
X011550Y018696D01*
X011700Y018696D01*
X011775Y018621D01*
X011775Y018396D01*
X011700Y018236D02*
X011775Y018161D01*
X011775Y018010D01*
X011700Y017935D01*
X011625Y017935D01*
X011550Y018010D01*
X011550Y018161D01*
X011625Y018236D01*
X011700Y018236D01*
X011550Y018161D02*
X011475Y018236D01*
X011400Y018236D01*
X011325Y018161D01*
X011325Y018010D01*
X011400Y017935D01*
X011475Y017935D01*
X011550Y018010D01*
X011775Y017775D02*
X011775Y017475D01*
X011775Y017625D02*
X011325Y017625D01*
X011475Y017475D01*
X011550Y018856D02*
X011550Y019006D01*
X011400Y018931D02*
X011325Y019006D01*
X011400Y018931D02*
X011775Y018931D01*
X010825Y019350D02*
X010825Y019500D01*
X010750Y019575D01*
X010750Y019735D02*
X010825Y019810D01*
X010825Y019961D01*
X010750Y020036D01*
X010675Y020036D01*
X010600Y019961D01*
X010600Y019886D01*
X010600Y019961D02*
X010525Y020036D01*
X010450Y020036D01*
X010375Y019961D01*
X010375Y019810D01*
X010450Y019735D01*
X010450Y019575D02*
X010375Y019500D01*
X010375Y019350D01*
X010450Y019275D01*
X010750Y019275D01*
X010825Y019350D01*
X009325Y019400D02*
X009325Y019250D01*
X009250Y019175D01*
X008950Y019175D01*
X008875Y019250D01*
X008875Y019400D01*
X008950Y019475D01*
X008950Y019635D02*
X008875Y019710D01*
X008875Y019861D01*
X008950Y019936D01*
X009025Y019936D01*
X009325Y019635D01*
X009325Y019936D01*
X009250Y019475D02*
X009325Y019400D01*
X008069Y019894D02*
X004131Y019894D01*
X004699Y020288D02*
X004701Y020317D01*
X004707Y020346D01*
X004716Y020374D01*
X004730Y020400D01*
X004746Y020424D01*
X004766Y020446D01*
X004789Y020465D01*
X004813Y020481D01*
X004840Y020493D01*
X004868Y020502D01*
X004897Y020507D01*
X004926Y020508D01*
X004956Y020505D01*
X004984Y020498D01*
X005012Y020488D01*
X005037Y020473D01*
X005061Y020456D01*
X005082Y020436D01*
X005100Y020413D01*
X005115Y020387D01*
X005127Y020360D01*
X005135Y020332D01*
X005139Y020303D01*
X005139Y020273D01*
X005135Y020244D01*
X005127Y020216D01*
X005115Y020189D01*
X005100Y020163D01*
X005082Y020140D01*
X005061Y020120D01*
X005037Y020103D01*
X005012Y020088D01*
X004984Y020078D01*
X004956Y020071D01*
X004926Y020068D01*
X004897Y020069D01*
X004868Y020074D01*
X004840Y020083D01*
X004813Y020095D01*
X004789Y020111D01*
X004766Y020130D01*
X004746Y020152D01*
X004730Y020176D01*
X004716Y020202D01*
X004707Y020230D01*
X004701Y020259D01*
X004699Y020288D01*
X005107Y018515D02*
X005277Y018515D01*
X005334Y018459D01*
X005334Y018345D01*
X005277Y018288D01*
X005107Y018288D01*
X005107Y018175D02*
X005107Y018515D01*
X005220Y018288D02*
X005334Y018175D01*
X005466Y018175D02*
X005693Y018175D01*
X005579Y018175D02*
X005579Y018515D01*
X005466Y018402D01*
X006148Y018402D02*
X006261Y018515D01*
X006261Y018175D01*
X006148Y018175D02*
X006374Y018175D01*
X006507Y018232D02*
X006563Y018175D01*
X006677Y018175D01*
X006733Y018232D01*
X006733Y018459D01*
X006507Y018232D01*
X006507Y018459D01*
X006563Y018515D01*
X006677Y018515D01*
X006733Y018459D01*
X006866Y018515D02*
X006866Y018175D01*
X006866Y018288D02*
X007036Y018175D01*
X006866Y018288D02*
X007036Y018402D01*
X009100Y022375D02*
X009100Y022450D01*
X009175Y022450D01*
X009175Y022375D01*
X009100Y022375D01*
X009175Y022605D02*
X009175Y022905D01*
X009175Y022755D02*
X008725Y022755D01*
X008875Y022605D01*
X008875Y023066D02*
X009100Y023066D01*
X009175Y023141D01*
X009175Y023366D01*
X008875Y023366D01*
X010325Y023837D02*
X010775Y023837D01*
X010775Y023687D02*
X010775Y023987D01*
X010700Y024147D02*
X010625Y024147D01*
X010550Y024222D01*
X010550Y024372D01*
X010625Y024448D01*
X010700Y024448D01*
X010775Y024372D01*
X010775Y024222D01*
X010700Y024147D01*
X010550Y024222D02*
X010475Y024147D01*
X010400Y024147D01*
X010325Y024222D01*
X010325Y024372D01*
X010400Y024448D01*
X010475Y024448D01*
X010550Y024372D01*
X010475Y024608D02*
X010475Y024833D01*
X010550Y024908D01*
X010700Y024908D01*
X010775Y024833D01*
X010775Y024608D01*
X010925Y024608D02*
X010475Y024608D01*
X010550Y025068D02*
X010550Y025218D01*
X010400Y025143D02*
X010325Y025218D01*
X010400Y025143D02*
X010775Y025143D01*
X010325Y023837D02*
X010475Y023687D01*
X010600Y023115D02*
X010600Y022815D01*
X010375Y023040D01*
X010825Y023040D01*
X010750Y022654D02*
X010825Y022579D01*
X010825Y022429D01*
X010750Y022354D01*
X010450Y022354D01*
X010375Y022429D01*
X010375Y022579D01*
X010450Y022654D01*
X008069Y025406D02*
X006494Y025406D01*
X004131Y025406D01*
X017225Y023700D02*
X017225Y023400D01*
X017300Y023325D01*
X017450Y023325D01*
X017525Y023400D01*
X017685Y023400D02*
X017685Y023325D01*
X017685Y023400D02*
X017986Y023700D01*
X017986Y023775D01*
X017685Y023775D01*
X017525Y023700D02*
X017450Y023775D01*
X017300Y023775D01*
X017225Y023700D01*
X017605Y021825D02*
X017605Y021375D01*
X017455Y021375D02*
X017755Y021375D01*
X017916Y021450D02*
X017991Y021375D01*
X018216Y021375D01*
X018216Y021675D01*
X017916Y021675D02*
X017916Y021450D01*
X017605Y021825D02*
X017455Y021675D01*
X017300Y021450D02*
X017300Y021375D01*
X017225Y021375D01*
X017225Y021450D01*
X017300Y021450D01*
X017075Y020036D02*
X017077Y020059D01*
X017083Y020081D01*
X017092Y020102D01*
X017104Y020121D01*
X017120Y020138D01*
X017138Y020152D01*
X017158Y020163D01*
X017180Y020171D01*
X017203Y020175D01*
X017225Y020175D01*
X017248Y020171D01*
X017270Y020163D01*
X017290Y020152D01*
X017308Y020138D01*
X017324Y020121D01*
X017336Y020102D01*
X017345Y020081D01*
X017351Y020059D01*
X017353Y020036D01*
X017351Y020013D01*
X017345Y019991D01*
X017336Y019970D01*
X017324Y019951D01*
X017308Y019934D01*
X017290Y019920D01*
X017270Y019909D01*
X017248Y019901D01*
X017225Y019897D01*
X017203Y019897D01*
X017180Y019901D01*
X017158Y019909D01*
X017138Y019920D01*
X017120Y019934D01*
X017104Y019951D01*
X017092Y019970D01*
X017083Y019991D01*
X017077Y020013D01*
X017075Y020036D01*
X020475Y019315D02*
X020775Y019315D01*
X020775Y019090D01*
X020700Y019015D01*
X020475Y019015D01*
X020775Y018854D02*
X020775Y018554D01*
X020775Y018704D02*
X020325Y018704D01*
X020475Y018554D01*
X020700Y018399D02*
X020775Y018399D01*
X020775Y018324D01*
X020700Y018324D01*
X020700Y018399D01*
X022275Y018869D02*
X022350Y018794D01*
X022650Y018794D01*
X022725Y018869D01*
X022725Y019019D01*
X022650Y019094D01*
X022725Y019254D02*
X022725Y019554D01*
X022725Y019404D02*
X022275Y019404D01*
X022425Y019254D01*
X022350Y019094D02*
X022275Y019019D01*
X022275Y018869D01*
X022350Y019715D02*
X022275Y019790D01*
X022275Y019940D01*
X022350Y020015D01*
X022650Y019715D01*
X022725Y019790D01*
X022725Y019940D01*
X022650Y020015D01*
X022350Y020015D01*
X022350Y019715D02*
X022650Y019715D01*
X022750Y022194D02*
X022675Y022269D01*
X022675Y022419D01*
X022750Y022494D01*
X022825Y022654D02*
X022675Y022804D01*
X023125Y022804D01*
X023125Y022654D02*
X023125Y022954D01*
X023125Y023115D02*
X023125Y023415D01*
X023125Y023265D02*
X022675Y023265D01*
X022825Y023115D01*
X023050Y022494D02*
X023125Y022419D01*
X023125Y022269D01*
X023050Y022194D01*
X022750Y022194D01*
X021175Y022424D02*
X021175Y022499D01*
X021100Y022499D01*
X021100Y022424D01*
X021175Y022424D01*
X021175Y022654D02*
X021175Y022954D01*
X021175Y022804D02*
X020725Y022804D01*
X020875Y022654D01*
X020875Y023115D02*
X021100Y023115D01*
X021175Y023190D01*
X021175Y023415D01*
X020875Y023415D01*
X024205Y016816D02*
X024655Y016816D01*
X024655Y016666D02*
X024655Y016966D01*
X024355Y016666D02*
X024205Y016816D01*
X024280Y016506D02*
X024205Y016431D01*
X024205Y016205D01*
X024655Y016205D01*
X024505Y016205D02*
X024505Y016431D01*
X024430Y016506D01*
X024280Y016506D01*
X024205Y016045D02*
X024205Y015895D01*
X024205Y015970D02*
X024580Y015970D01*
X024655Y015895D01*
X024655Y015820D01*
X024580Y015745D01*
X022126Y015175D02*
X022126Y014875D01*
X021901Y014875D01*
X021826Y014950D01*
X021826Y015175D01*
X021666Y015250D02*
X021366Y014950D01*
X021366Y014875D01*
X021210Y014875D02*
X021135Y014875D01*
X021135Y014950D01*
X021210Y014950D01*
X021210Y014875D01*
X020900Y014875D02*
X020900Y015325D01*
X020675Y015100D01*
X020975Y015100D01*
X021010Y015375D02*
X021161Y015375D01*
X021236Y015450D01*
X021236Y015750D01*
X021161Y015825D01*
X021010Y015825D01*
X020935Y015750D01*
X020935Y015675D01*
X021010Y015600D01*
X021236Y015600D01*
X021366Y015325D02*
X021666Y015325D01*
X021666Y015250D01*
X021010Y015375D02*
X020935Y015450D01*
X020775Y015450D02*
X020700Y015375D01*
X020550Y015375D01*
X020475Y015450D01*
X020475Y015750D01*
X020550Y015825D01*
X020700Y015825D01*
X020775Y015750D01*
X023975Y013466D02*
X024275Y013466D01*
X024275Y013241D01*
X024200Y013166D01*
X023975Y013166D01*
X024275Y013005D02*
X024275Y012705D01*
X024275Y012855D02*
X023825Y012855D01*
X023975Y012705D01*
X024200Y012550D02*
X024275Y012550D01*
X024275Y012475D01*
X024200Y012475D01*
X024200Y012550D01*
X022515Y011650D02*
X022440Y011725D01*
X022290Y011725D01*
X022215Y011650D01*
X022515Y011650D02*
X022515Y011575D01*
X022215Y011275D01*
X022515Y011275D01*
X024254Y009675D02*
X024404Y009825D01*
X024404Y009375D01*
X024254Y009375D02*
X024554Y009375D01*
X024715Y009450D02*
X024790Y009375D01*
X025015Y009375D01*
X025015Y009675D01*
X024715Y009675D02*
X024715Y009450D01*
X029425Y010375D02*
X029650Y010375D01*
X029725Y010450D01*
X029725Y010750D01*
X029650Y010825D01*
X029425Y010825D01*
X029425Y010375D01*
X029885Y010375D02*
X030186Y010375D01*
X030036Y010375D02*
X030036Y010825D01*
X029885Y010675D01*
X029885Y011375D02*
X030186Y011675D01*
X030186Y011750D01*
X030111Y011825D01*
X029960Y011825D01*
X029885Y011750D01*
X029725Y011750D02*
X029650Y011825D01*
X029425Y011825D01*
X029425Y011375D01*
X029650Y011375D01*
X029725Y011450D01*
X029725Y011750D01*
X029885Y011375D02*
X030186Y011375D01*
X037596Y017048D02*
X039604Y017048D01*
X039604Y019252D01*
X037596Y019252D01*
X037596Y017048D01*
X039813Y017363D02*
X041387Y017363D01*
X041387Y018937D01*
X039813Y018937D01*
X039813Y017363D01*
X039914Y017520D02*
X039916Y017534D01*
X039922Y017548D01*
X039930Y017560D01*
X039942Y017568D01*
X039956Y017574D01*
X039970Y017576D01*
X039984Y017574D01*
X039998Y017568D01*
X040010Y017560D01*
X040018Y017548D01*
X040024Y017534D01*
X040026Y017520D01*
X040024Y017506D01*
X040018Y017492D01*
X040010Y017480D01*
X039998Y017472D01*
X039984Y017466D01*
X039970Y017464D01*
X039956Y017466D01*
X039942Y017472D01*
X039930Y017480D01*
X039922Y017492D01*
X039916Y017506D01*
X039914Y017520D01*
X041075Y017400D02*
X041075Y017250D01*
X041150Y017175D01*
X041450Y017175D01*
X041525Y017250D01*
X041525Y017400D01*
X041450Y017475D01*
X041525Y017635D02*
X041525Y017936D01*
X041525Y017786D02*
X041075Y017786D01*
X041225Y017635D01*
X041150Y017475D02*
X041075Y017400D01*
X041075Y018096D02*
X041075Y018396D01*
X041150Y018396D01*
X041450Y018096D01*
X041525Y018096D01*
X042525Y018204D02*
X042675Y018054D01*
X042525Y018204D02*
X042975Y018204D01*
X042975Y018054D02*
X042975Y018354D01*
X042900Y018515D02*
X042675Y018515D01*
X042900Y018515D02*
X042975Y018590D01*
X042975Y018815D01*
X042675Y018815D01*
X042900Y017899D02*
X042975Y017899D01*
X042975Y017824D01*
X042900Y017824D01*
X042900Y017899D01*
X044475Y017804D02*
X044925Y017804D01*
X044925Y017654D02*
X044925Y017954D01*
X044850Y018115D02*
X044925Y018190D01*
X044925Y018340D01*
X044850Y018415D01*
X044550Y018415D01*
X044475Y018340D01*
X044475Y018190D01*
X044550Y018115D01*
X044625Y018115D01*
X044700Y018190D01*
X044700Y018415D01*
X045275Y018066D02*
X045575Y018066D01*
X045575Y017841D01*
X045500Y017766D01*
X045275Y017766D01*
X045575Y017605D02*
X045575Y017305D01*
X045575Y017455D02*
X045125Y017455D01*
X045275Y017305D01*
X045500Y017150D02*
X045575Y017150D01*
X045575Y017075D01*
X045500Y017075D01*
X045500Y017150D01*
X044925Y017269D02*
X044925Y017419D01*
X044850Y017494D01*
X044925Y017269D02*
X044850Y017194D01*
X044550Y017194D01*
X044475Y017269D01*
X044475Y017419D01*
X044550Y017494D01*
X044625Y017654D02*
X044475Y017804D01*
X044511Y016125D02*
X044284Y016125D01*
X044152Y016069D02*
X044152Y015955D01*
X044095Y015898D01*
X043925Y015898D01*
X043925Y015785D02*
X043925Y016125D01*
X044095Y016125D01*
X044152Y016069D01*
X044038Y015898D02*
X044152Y015785D01*
X044284Y015785D02*
X044284Y015842D01*
X044511Y016069D01*
X044511Y016125D01*
X044563Y015315D02*
X044677Y015315D01*
X044733Y015259D01*
X044507Y015032D01*
X044563Y014975D01*
X044677Y014975D01*
X044733Y015032D01*
X044733Y015259D01*
X044866Y015315D02*
X044866Y014975D01*
X044866Y015088D02*
X045036Y015202D01*
X044866Y015088D02*
X045036Y014975D01*
X044507Y015032D02*
X044507Y015259D01*
X044563Y015315D01*
X044261Y015315D02*
X044261Y014975D01*
X044148Y014975D02*
X044374Y014975D01*
X044148Y015202D02*
X044261Y015315D01*
X044400Y013915D02*
X044700Y013615D01*
X044775Y013690D01*
X044775Y013840D01*
X044700Y013915D01*
X044400Y013915D01*
X044325Y013840D01*
X044325Y013690D01*
X044400Y013615D01*
X044700Y013615D01*
X044550Y013454D02*
X044550Y013154D01*
X044325Y013379D01*
X044775Y013379D01*
X044250Y013475D02*
X044250Y011825D01*
X044325Y011773D02*
X044325Y011998D01*
X044400Y012073D01*
X044550Y012073D01*
X044625Y011998D01*
X044625Y011773D01*
X044775Y011773D02*
X044325Y011773D01*
X044325Y011616D02*
X044325Y011466D01*
X044325Y011541D02*
X044775Y011541D01*
X044775Y011466D02*
X044775Y011616D01*
X044625Y011923D02*
X044775Y012073D01*
X044775Y012233D02*
X044325Y012233D01*
X044325Y012534D01*
X044325Y012694D02*
X044550Y012694D01*
X044475Y012844D01*
X044475Y012919D01*
X044550Y012994D01*
X044700Y012994D01*
X044775Y012919D01*
X044775Y012769D01*
X044700Y012694D01*
X044550Y012384D02*
X044550Y012233D01*
X044325Y012694D02*
X044325Y012994D01*
X043700Y012763D02*
X043700Y012537D01*
X044250Y011825D02*
X044202Y011790D01*
X044152Y011757D01*
X044100Y011726D01*
X044046Y011699D01*
X043991Y011675D01*
X043934Y011655D01*
X043877Y011637D01*
X043819Y011623D01*
X043760Y011612D01*
X043700Y011605D01*
X043700Y011763D01*
X042275Y011785D02*
X041825Y011785D01*
X042275Y012086D01*
X041825Y012086D01*
X041900Y012246D02*
X041825Y012321D01*
X041825Y012471D01*
X041900Y012546D01*
X041975Y012546D01*
X042050Y012471D01*
X042125Y012546D01*
X042200Y012546D01*
X042275Y012471D01*
X042275Y012321D01*
X042200Y012246D01*
X042050Y012396D02*
X042050Y012471D01*
X041975Y012706D02*
X042050Y012781D01*
X042050Y013006D01*
X042200Y013006D02*
X041900Y013006D01*
X041825Y012931D01*
X041825Y012781D01*
X041900Y012706D01*
X041975Y012706D01*
X042200Y012706D02*
X042275Y012781D01*
X042275Y012931D01*
X042200Y013006D01*
X042200Y013167D02*
X041900Y013467D01*
X042200Y013467D01*
X042275Y013392D01*
X042275Y013242D01*
X042200Y013167D01*
X041900Y013167D01*
X041825Y013242D01*
X041825Y013392D01*
X041900Y013467D01*
X042050Y013627D02*
X042050Y013927D01*
X042275Y013852D02*
X041825Y013852D01*
X042050Y013627D01*
X043700Y013695D02*
X043700Y013537D01*
X044250Y013475D02*
X044199Y013512D01*
X044146Y013547D01*
X044090Y013579D01*
X044033Y013607D01*
X043974Y013631D01*
X043914Y013652D01*
X043853Y013669D01*
X043791Y013683D01*
X043728Y013692D01*
X043665Y013698D01*
X043601Y013700D01*
X043537Y013698D01*
X043474Y013692D01*
X043411Y013683D01*
X043349Y013670D01*
X043288Y013652D01*
X043228Y013632D01*
X043169Y013607D01*
X043112Y013580D01*
X043056Y013548D01*
X043003Y013514D01*
X042952Y013476D01*
X042903Y013435D01*
X042857Y013391D01*
X042813Y013345D01*
X042772Y013296D01*
X042735Y013245D01*
X042700Y013191D01*
X042669Y013136D01*
X042641Y013079D01*
X042617Y013020D01*
X042597Y012960D01*
X042597Y012340D02*
X042617Y012281D01*
X042640Y012224D01*
X042667Y012167D01*
X042698Y012113D01*
X042731Y012060D01*
X042768Y012010D01*
X042807Y011961D01*
X042850Y011916D01*
X042895Y011872D01*
X042942Y011832D01*
X042992Y011794D01*
X043044Y011759D01*
X043098Y011728D01*
X043153Y011700D01*
X043210Y011675D01*
X043269Y011654D01*
X043329Y011636D01*
X043390Y011621D01*
X043451Y011611D01*
X043513Y011604D01*
X043575Y011600D01*
X043638Y011601D01*
X043700Y011605D01*
X042275Y011625D02*
X042275Y011325D01*
X041975Y011625D01*
X041900Y011625D01*
X041825Y011550D01*
X041825Y011400D01*
X041900Y011325D01*
X043625Y010525D02*
X043852Y010525D01*
X043984Y010525D02*
X043984Y010242D01*
X044041Y010185D01*
X044154Y010185D01*
X044211Y010242D01*
X044211Y010525D01*
X044343Y010469D02*
X044343Y010412D01*
X044400Y010355D01*
X044513Y010355D01*
X044570Y010298D01*
X044570Y010242D01*
X044513Y010185D01*
X044400Y010185D01*
X044343Y010242D01*
X044343Y010469D02*
X044400Y010525D01*
X044513Y010525D01*
X044570Y010469D01*
X044702Y010525D02*
X044702Y010185D01*
X044929Y010185D01*
X044816Y010355D02*
X044702Y010355D01*
X044702Y010525D02*
X044929Y010525D01*
X044873Y009825D02*
X044760Y009825D01*
X044703Y009769D01*
X044703Y009712D01*
X044760Y009655D01*
X044873Y009655D01*
X044930Y009598D01*
X044930Y009542D01*
X044873Y009485D01*
X044760Y009485D01*
X044703Y009542D01*
X044571Y009542D02*
X044571Y009825D01*
X044344Y009825D02*
X044344Y009542D01*
X044401Y009485D01*
X044514Y009485D01*
X044571Y009542D01*
X044873Y009825D02*
X044930Y009769D01*
X045062Y009825D02*
X045062Y009485D01*
X045289Y009485D01*
X045176Y009655D02*
X045062Y009655D01*
X045062Y009825D02*
X045289Y009825D01*
X044212Y009825D02*
X043985Y009825D01*
X043985Y009485D01*
X043985Y009655D02*
X044098Y009655D01*
X044211Y009025D02*
X044098Y008969D01*
X043984Y008855D01*
X044154Y008855D01*
X044211Y008798D01*
X044211Y008742D01*
X044154Y008685D01*
X044041Y008685D01*
X043984Y008742D01*
X043984Y008855D01*
X043852Y008855D02*
X043795Y008798D01*
X043625Y008798D01*
X043625Y008685D02*
X043625Y009025D01*
X043795Y009025D01*
X043852Y008969D01*
X043852Y008855D01*
X043738Y008798D02*
X043852Y008685D01*
X044098Y008325D02*
X044098Y007985D01*
X043985Y007985D02*
X044212Y007985D01*
X044344Y008042D02*
X044571Y008269D01*
X044571Y008042D01*
X044514Y007985D01*
X044401Y007985D01*
X044344Y008042D01*
X044344Y008269D01*
X044401Y008325D01*
X044514Y008325D01*
X044571Y008269D01*
X044703Y008325D02*
X044703Y007985D01*
X044703Y008098D02*
X044873Y008212D01*
X044703Y008098D02*
X044873Y007985D01*
X044098Y008325D02*
X043985Y008212D01*
X044400Y006415D02*
X044700Y006115D01*
X044775Y006190D01*
X044775Y006340D01*
X044700Y006415D01*
X044400Y006415D01*
X044325Y006340D01*
X044325Y006190D01*
X044400Y006115D01*
X044700Y006115D01*
X044550Y005954D02*
X044550Y005654D01*
X044325Y005879D01*
X044775Y005879D01*
X044700Y005494D02*
X044775Y005419D01*
X044775Y005269D01*
X044700Y005194D01*
X044550Y005194D02*
X044475Y005344D01*
X044475Y005419D01*
X044550Y005494D01*
X044700Y005494D01*
X044550Y005194D02*
X044325Y005194D01*
X044325Y005494D01*
X044250Y005975D02*
X044250Y004325D01*
X044325Y004273D02*
X044325Y004498D01*
X044400Y004573D01*
X044550Y004573D01*
X044625Y004498D01*
X044625Y004273D01*
X044775Y004273D02*
X044325Y004273D01*
X044325Y004116D02*
X044325Y003966D01*
X044325Y004041D02*
X044775Y004041D01*
X044775Y003966D02*
X044775Y004116D01*
X044625Y004423D02*
X044775Y004573D01*
X044775Y004733D02*
X044325Y004733D01*
X044325Y005034D01*
X044550Y004884D02*
X044550Y004733D01*
X043700Y005037D02*
X043700Y005263D01*
X044250Y004325D02*
X044202Y004290D01*
X044152Y004257D01*
X044100Y004226D01*
X044046Y004199D01*
X043991Y004175D01*
X043934Y004155D01*
X043877Y004137D01*
X043819Y004123D01*
X043760Y004112D01*
X043700Y004105D01*
X043700Y004263D01*
X043700Y004105D02*
X043638Y004101D01*
X043575Y004100D01*
X043513Y004104D01*
X043451Y004111D01*
X043390Y004121D01*
X043329Y004136D01*
X043269Y004154D01*
X043210Y004175D01*
X043153Y004200D01*
X043098Y004228D01*
X043044Y004259D01*
X042992Y004294D01*
X042942Y004332D01*
X042895Y004372D01*
X042850Y004416D01*
X042807Y004461D01*
X042768Y004510D01*
X042731Y004560D01*
X042698Y004613D01*
X042667Y004667D01*
X042640Y004724D01*
X042617Y004781D01*
X042597Y004840D01*
X042275Y004921D02*
X042200Y004846D01*
X042275Y004921D02*
X042275Y005071D01*
X042200Y005146D01*
X042125Y005146D01*
X042050Y005071D01*
X042050Y004996D01*
X042050Y005071D02*
X041975Y005146D01*
X041900Y005146D01*
X041825Y005071D01*
X041825Y004921D01*
X041900Y004846D01*
X041825Y004686D02*
X042275Y004686D01*
X041825Y004385D01*
X042275Y004385D01*
X042275Y004225D02*
X042275Y003925D01*
X041975Y004225D01*
X041900Y004225D01*
X041825Y004150D01*
X041825Y004000D01*
X041900Y003925D01*
X042597Y005460D02*
X042617Y005520D01*
X042641Y005579D01*
X042669Y005636D01*
X042700Y005691D01*
X042735Y005745D01*
X042772Y005796D01*
X042813Y005845D01*
X042857Y005891D01*
X042903Y005935D01*
X042952Y005976D01*
X043003Y006014D01*
X043056Y006048D01*
X043112Y006080D01*
X043169Y006107D01*
X043228Y006132D01*
X043288Y006152D01*
X043349Y006170D01*
X043411Y006183D01*
X043474Y006192D01*
X043537Y006198D01*
X043601Y006200D01*
X043665Y006198D01*
X043728Y006192D01*
X043791Y006183D01*
X043853Y006169D01*
X043914Y006152D01*
X043974Y006131D01*
X044033Y006107D01*
X044090Y006079D01*
X044146Y006047D01*
X044199Y006012D01*
X044250Y005975D01*
X043700Y006037D02*
X043700Y006195D01*
X042275Y005992D02*
X042275Y005842D01*
X042200Y005767D01*
X041900Y006067D01*
X042200Y006067D01*
X042275Y005992D01*
X042200Y005767D02*
X041900Y005767D01*
X041825Y005842D01*
X041825Y005992D01*
X041900Y006067D01*
X042050Y006227D02*
X042050Y006527D01*
X042275Y006452D02*
X041825Y006452D01*
X042050Y006227D01*
X042050Y005606D02*
X042050Y005381D01*
X041975Y005306D01*
X041900Y005306D01*
X041825Y005381D01*
X041825Y005531D01*
X041900Y005606D01*
X042200Y005606D01*
X042275Y005531D01*
X042275Y005381D01*
X042200Y005306D01*
X043625Y010185D02*
X043625Y010525D01*
X043625Y010355D02*
X043738Y010355D01*
X040493Y019275D02*
X040266Y019275D01*
X040493Y019502D01*
X040493Y019559D01*
X040436Y019615D01*
X040323Y019615D01*
X040266Y019559D01*
X040134Y019559D02*
X040134Y019445D01*
X040077Y019388D01*
X039907Y019388D01*
X039907Y019275D02*
X039907Y019615D01*
X040077Y019615D01*
X040134Y019559D01*
X040020Y019388D02*
X040134Y019275D01*
X040145Y019975D02*
X040088Y020032D01*
X040145Y019975D02*
X040259Y019975D01*
X040315Y020032D01*
X040315Y020145D01*
X040259Y020202D01*
X040202Y020202D01*
X040088Y020145D01*
X040088Y020315D01*
X040315Y020315D01*
X040448Y020145D02*
X040618Y020145D01*
X040674Y020088D01*
X040674Y020032D01*
X040618Y019975D01*
X040504Y019975D01*
X040448Y020032D01*
X040448Y020145D01*
X040561Y020259D01*
X040674Y020315D01*
X040807Y020259D02*
X040863Y020315D01*
X040977Y020315D01*
X041033Y020259D01*
X040807Y020032D01*
X040863Y019975D01*
X040977Y019975D01*
X041033Y020032D01*
X041033Y020259D01*
X041166Y020315D02*
X041166Y019975D01*
X041166Y020088D02*
X041336Y019975D01*
X041166Y020088D02*
X041336Y020202D01*
X040807Y020259D02*
X040807Y020032D01*
X040714Y020985D02*
X040601Y020985D01*
X040544Y021042D01*
X040771Y021269D01*
X040771Y021042D01*
X040714Y020985D01*
X040544Y021042D02*
X040544Y021269D01*
X040601Y021325D01*
X040714Y021325D01*
X040771Y021269D01*
X040903Y021269D02*
X040960Y021325D01*
X041073Y021325D01*
X041130Y021269D01*
X040903Y021042D01*
X040960Y020985D01*
X041073Y020985D01*
X041130Y021042D01*
X041130Y021269D01*
X041262Y021325D02*
X041262Y020985D01*
X041262Y021098D02*
X041432Y021212D01*
X041262Y021098D02*
X041432Y020985D01*
X040903Y021042D02*
X040903Y021269D01*
X040412Y020985D02*
X040185Y020985D01*
X040298Y020985D02*
X040298Y021325D01*
X040185Y021212D01*
X040241Y021685D02*
X040184Y021742D01*
X040241Y021685D02*
X040354Y021685D01*
X040411Y021742D01*
X040411Y021798D01*
X040354Y021855D01*
X040298Y021855D01*
X040354Y021855D02*
X040411Y021912D01*
X040411Y021969D01*
X040354Y022025D01*
X040241Y022025D01*
X040184Y021969D01*
X040052Y021969D02*
X040052Y021855D01*
X039995Y021798D01*
X039825Y021798D01*
X039825Y021685D02*
X039825Y022025D01*
X039995Y022025D01*
X040052Y021969D01*
X039938Y021798D02*
X040052Y021685D01*
X038375Y021775D02*
X038375Y021850D01*
X038300Y021850D01*
X038300Y021775D01*
X038375Y021775D01*
X038375Y022005D02*
X038375Y022305D01*
X038375Y022155D02*
X037925Y022155D01*
X038075Y022005D01*
X038075Y022466D02*
X038300Y022466D01*
X038375Y022541D01*
X038375Y022766D01*
X038075Y022766D01*
X037596Y023048D02*
X039604Y023048D01*
X039604Y025252D01*
X037596Y025252D01*
X037596Y023048D01*
X039813Y023363D02*
X041387Y023363D01*
X041387Y024937D01*
X039813Y024937D01*
X039813Y023363D01*
X039914Y023520D02*
X039916Y023534D01*
X039922Y023548D01*
X039930Y023560D01*
X039942Y023568D01*
X039956Y023574D01*
X039970Y023576D01*
X039984Y023574D01*
X039998Y023568D01*
X040010Y023560D01*
X040018Y023548D01*
X040024Y023534D01*
X040026Y023520D01*
X040024Y023506D01*
X040018Y023492D01*
X040010Y023480D01*
X039998Y023472D01*
X039984Y023466D01*
X039970Y023464D01*
X039956Y023466D01*
X039942Y023472D01*
X039930Y023480D01*
X039922Y023492D01*
X039916Y023506D01*
X039914Y023520D01*
X041875Y022921D02*
X041950Y022996D01*
X042025Y022996D01*
X042100Y022921D01*
X042100Y022771D01*
X042025Y022696D01*
X041950Y022696D01*
X041875Y022771D01*
X041875Y022921D01*
X042100Y022921D02*
X042175Y022996D01*
X042250Y022996D01*
X042325Y022921D01*
X042325Y022771D01*
X042250Y022696D01*
X042175Y022696D01*
X042100Y022771D01*
X042325Y022536D02*
X042325Y022235D01*
X042425Y022255D02*
X042875Y022255D01*
X042875Y022105D02*
X042875Y022405D01*
X042800Y022566D02*
X042575Y022566D01*
X042800Y022566D02*
X042875Y022641D01*
X042875Y022866D01*
X042575Y022866D01*
X042325Y022386D02*
X041875Y022386D01*
X042025Y022235D01*
X041950Y022075D02*
X041875Y022000D01*
X041875Y021850D01*
X041950Y021775D01*
X042250Y021775D01*
X042325Y021850D01*
X042325Y022000D01*
X042250Y022075D01*
X042425Y022255D02*
X042575Y022105D01*
X042800Y021950D02*
X042875Y021950D01*
X042875Y021875D01*
X042800Y021875D01*
X042800Y021950D01*
X044575Y020821D02*
X044650Y020896D01*
X044950Y020596D01*
X045025Y020671D01*
X045025Y020821D01*
X044950Y020896D01*
X044650Y020896D01*
X044575Y020821D02*
X044575Y020671D01*
X044650Y020596D01*
X044950Y020596D01*
X045025Y020436D02*
X045025Y020135D01*
X044725Y020436D01*
X044650Y020436D01*
X044575Y020361D01*
X044575Y020210D01*
X044650Y020135D01*
X044650Y019975D02*
X044575Y019900D01*
X044575Y019750D01*
X044650Y019675D01*
X044950Y019675D01*
X045025Y019750D01*
X045025Y019900D01*
X044950Y019975D01*
X045225Y019825D02*
X045675Y019825D01*
X045675Y019675D02*
X045675Y019975D01*
X045600Y020135D02*
X045300Y020135D01*
X045225Y020210D01*
X045225Y020361D01*
X045300Y020436D01*
X045600Y020135D01*
X045675Y020210D01*
X045675Y020361D01*
X045600Y020436D01*
X045300Y020436D01*
X045375Y020596D02*
X045375Y020821D01*
X045450Y020896D01*
X045600Y020896D01*
X045675Y020821D01*
X045675Y020596D01*
X045825Y020596D02*
X045375Y020596D01*
X045450Y021056D02*
X045450Y021206D01*
X045300Y021131D02*
X045675Y021131D01*
X045300Y021131D02*
X045225Y021206D01*
X045225Y019825D02*
X045375Y019675D01*
X045500Y023624D02*
X045500Y023699D01*
X045575Y023699D01*
X045575Y023624D01*
X045500Y023624D01*
X045575Y023854D02*
X045575Y024154D01*
X045575Y024004D02*
X045125Y024004D01*
X045275Y023854D01*
X044925Y023819D02*
X044850Y023894D01*
X044925Y023819D02*
X044925Y023669D01*
X044850Y023594D01*
X044550Y023594D01*
X044475Y023669D01*
X044475Y023819D01*
X044550Y023894D01*
X044550Y024054D02*
X044475Y024129D01*
X044475Y024279D01*
X044550Y024354D01*
X044625Y024354D01*
X044925Y024054D01*
X044925Y024354D01*
X044925Y024515D02*
X044925Y024815D01*
X044925Y024665D02*
X044475Y024665D01*
X044625Y024515D01*
X045275Y024615D02*
X045575Y024615D01*
X045575Y024390D01*
X045500Y024315D01*
X045275Y024315D01*
X045275Y025675D02*
X045125Y025825D01*
X045575Y025825D01*
X045575Y025675D02*
X045575Y025975D01*
X045500Y026135D02*
X045200Y026135D01*
X045125Y026210D01*
X045125Y026361D01*
X045200Y026436D01*
X045500Y026135D01*
X045575Y026210D01*
X045575Y026361D01*
X045500Y026436D01*
X045200Y026436D01*
X045275Y026596D02*
X045275Y026821D01*
X045350Y026896D01*
X045500Y026896D01*
X045575Y026821D01*
X045575Y026596D01*
X045725Y026596D02*
X045275Y026596D01*
X044925Y026536D02*
X044925Y026235D01*
X044625Y026536D01*
X044550Y026536D01*
X044475Y026461D01*
X044475Y026310D01*
X044550Y026235D01*
X044550Y026075D02*
X044475Y026000D01*
X044475Y025850D01*
X044550Y025775D01*
X044850Y025775D01*
X044925Y025850D01*
X044925Y026000D01*
X044850Y026075D01*
X044925Y026696D02*
X044625Y026996D01*
X044550Y026996D01*
X044475Y026921D01*
X044475Y026771D01*
X044550Y026696D01*
X044925Y026696D02*
X044925Y026996D01*
X045125Y027206D02*
X045200Y027131D01*
X045575Y027131D01*
X045350Y027056D02*
X045350Y027206D01*
X041693Y025445D02*
X041466Y025445D01*
X041636Y025615D01*
X041636Y025275D01*
X041334Y025275D02*
X041220Y025388D01*
X041277Y025388D02*
X041107Y025388D01*
X041107Y025275D02*
X041107Y025615D01*
X041277Y025615D01*
X041334Y025559D01*
X041334Y025445D01*
X041277Y025388D01*
X041336Y025975D02*
X041166Y026088D01*
X041336Y026202D01*
X041166Y026315D02*
X041166Y025975D01*
X041033Y026032D02*
X041033Y026259D01*
X040807Y026032D01*
X040863Y025975D01*
X040977Y025975D01*
X041033Y026032D01*
X040807Y026032D02*
X040807Y026259D01*
X040863Y026315D01*
X040977Y026315D01*
X041033Y026259D01*
X040674Y026315D02*
X040561Y026259D01*
X040448Y026145D01*
X040618Y026145D01*
X040674Y026088D01*
X040674Y026032D01*
X040618Y025975D01*
X040504Y025975D01*
X040448Y026032D01*
X040448Y026145D01*
X040315Y026145D02*
X040315Y026032D01*
X040259Y025975D01*
X040145Y025975D01*
X040088Y026032D01*
X040088Y026145D02*
X040202Y026202D01*
X040259Y026202D01*
X040315Y026145D01*
X040315Y026315D02*
X040088Y026315D01*
X040088Y026145D01*
X040185Y026985D02*
X040412Y026985D01*
X040298Y026985D02*
X040298Y027325D01*
X040185Y027212D01*
X040544Y027269D02*
X040601Y027325D01*
X040714Y027325D01*
X040771Y027269D01*
X040544Y027042D01*
X040601Y026985D01*
X040714Y026985D01*
X040771Y027042D01*
X040771Y027269D01*
X040903Y027269D02*
X040960Y027325D01*
X041073Y027325D01*
X041130Y027269D01*
X040903Y027042D01*
X040960Y026985D01*
X041073Y026985D01*
X041130Y027042D01*
X041130Y027269D01*
X041262Y027325D02*
X041262Y026985D01*
X041262Y027098D02*
X041432Y027212D01*
X041262Y027098D02*
X041432Y026985D01*
X040903Y027042D02*
X040903Y027269D01*
X040544Y027269D02*
X040544Y027042D01*
X039711Y027642D02*
X039654Y027585D01*
X039541Y027585D01*
X039484Y027642D01*
X039484Y027755D02*
X039598Y027812D01*
X039654Y027812D01*
X039711Y027755D01*
X039711Y027642D01*
X039484Y027755D02*
X039484Y027925D01*
X039711Y027925D01*
X039352Y027869D02*
X039352Y027755D01*
X039295Y027698D01*
X039125Y027698D01*
X039125Y027585D02*
X039125Y027925D01*
X039295Y027925D01*
X039352Y027869D01*
X039238Y027698D02*
X039352Y027585D01*
X037375Y027666D02*
X037375Y027441D01*
X037300Y027366D01*
X037075Y027366D01*
X037075Y027666D02*
X037375Y027666D01*
X037375Y027205D02*
X037375Y026905D01*
X037375Y027055D02*
X036925Y027055D01*
X037075Y026905D01*
X037300Y026750D02*
X037375Y026750D01*
X037375Y026675D01*
X037300Y026675D01*
X037300Y026750D01*
X037350Y026396D02*
X037425Y026321D01*
X037425Y026171D01*
X037350Y026096D01*
X037200Y026096D02*
X037125Y026246D01*
X037125Y026321D01*
X037200Y026396D01*
X037350Y026396D01*
X037200Y026096D02*
X036975Y026096D01*
X036975Y026396D01*
X036975Y025786D02*
X037425Y025786D01*
X037425Y025936D02*
X037425Y025635D01*
X037350Y025475D02*
X037425Y025400D01*
X037425Y025250D01*
X037350Y025175D01*
X037050Y025175D01*
X036975Y025250D01*
X036975Y025400D01*
X037050Y025475D01*
X037125Y025635D02*
X036975Y025786D01*
X037100Y020996D02*
X037100Y020696D01*
X036875Y020921D01*
X037325Y020921D01*
X037325Y020536D02*
X037325Y020235D01*
X037325Y020386D02*
X036875Y020386D01*
X037025Y020235D01*
X036950Y020075D02*
X036875Y020000D01*
X036875Y019850D01*
X036950Y019775D01*
X037250Y019775D01*
X037325Y019850D01*
X037325Y020000D01*
X037250Y020075D01*
X048905Y024395D02*
X048905Y024545D01*
X048905Y024470D02*
X049280Y024470D01*
X049355Y024395D01*
X049355Y024320D01*
X049280Y024245D01*
X049355Y024705D02*
X048905Y024705D01*
X048905Y024931D01*
X048980Y025006D01*
X049130Y025006D01*
X049205Y024931D01*
X049205Y024705D01*
X049280Y025166D02*
X049355Y025241D01*
X049355Y025391D01*
X049280Y025466D01*
X049205Y025466D01*
X049130Y025391D01*
X049130Y025316D01*
X049130Y025391D02*
X049055Y025466D01*
X048980Y025466D01*
X048905Y025391D01*
X048905Y025241D01*
X048980Y025166D01*
D14*
X039600Y006425D03*
D15*
X038715Y006437D02*
X038715Y006227D01*
X038610Y006122D01*
X038190Y006542D01*
X038610Y006542D01*
X038715Y006437D01*
X038610Y006122D02*
X038190Y006122D01*
X038084Y006227D01*
X038084Y006437D01*
X038190Y006542D01*
X038190Y006766D02*
X038084Y006871D01*
X038084Y007081D01*
X038190Y007187D01*
X038610Y006766D01*
X038715Y006871D01*
X038715Y007081D01*
X038610Y007187D01*
X038190Y007187D01*
X038295Y007411D02*
X038610Y007411D01*
X038715Y007516D01*
X038715Y007831D01*
X038295Y007831D01*
X038400Y008055D02*
X038400Y008265D01*
X038190Y008160D02*
X038084Y008265D01*
X038190Y008160D02*
X038715Y008160D01*
X038610Y006766D02*
X038190Y006766D01*
X038190Y005897D02*
X038610Y005477D01*
X038715Y005477D01*
X038400Y005253D02*
X038400Y004833D01*
X038084Y005148D01*
X038715Y005148D01*
X038084Y005477D02*
X038084Y005897D01*
X038190Y005897D01*
X040660Y009641D02*
X041080Y009641D01*
X041185Y009746D01*
X041185Y009957D01*
X041080Y010062D01*
X041185Y010286D02*
X041185Y010706D01*
X041185Y010496D02*
X040554Y010496D01*
X040765Y010286D01*
X040660Y010062D02*
X040554Y009957D01*
X040554Y009746D01*
X040660Y009641D01*
X040870Y010930D02*
X040870Y011246D01*
X040975Y011351D01*
X041080Y011351D01*
X041185Y011246D01*
X041185Y011036D01*
X041080Y010930D01*
X040870Y010930D01*
X040660Y011141D01*
X040554Y011351D01*
D16*
X026450Y011650D03*
X026450Y010650D03*
D17*
X026075Y010650D03*
X026075Y011650D03*
X028125Y011650D03*
X028125Y010650D03*
D18*
X046946Y009430D02*
X049506Y009430D01*
X049506Y013839D01*
X049899Y013839D01*
X049899Y009430D01*
X049506Y009430D01*
X049506Y008439D02*
X049506Y004030D01*
X046946Y004030D01*
X046946Y008439D01*
X049506Y008439D01*
X049899Y008439D01*
X049899Y004030D01*
X049506Y004030D01*
X046946Y009430D02*
X046946Y013839D01*
X049506Y013839D01*
X049506Y016430D02*
X046946Y016430D01*
X046946Y020839D01*
X049506Y020839D01*
X049506Y016430D01*
X049899Y016430D01*
X049899Y020839D01*
X049506Y020839D01*
D19*
X048095Y017992D02*
X047945Y017992D01*
X047995Y017942D01*
X047945Y017892D01*
X048095Y017892D01*
X048095Y017844D02*
X047945Y017844D01*
X047995Y017794D01*
X047945Y017744D01*
X048095Y017744D01*
X048070Y017697D02*
X048095Y017672D01*
X048095Y017622D01*
X048070Y017597D01*
X048020Y017597D02*
X047995Y017647D01*
X047995Y017672D01*
X048020Y017697D01*
X048070Y017697D01*
X048020Y017597D02*
X047945Y017597D01*
X047945Y017697D01*
X047970Y017550D02*
X047945Y017525D01*
X047945Y017475D01*
X047970Y017450D01*
X047970Y017402D02*
X048070Y017302D01*
X048095Y017327D01*
X048095Y017377D01*
X048070Y017402D01*
X047970Y017402D01*
X047945Y017377D01*
X047945Y017327D01*
X047970Y017302D01*
X048070Y017302D01*
X048095Y017255D02*
X047945Y017255D01*
X047995Y017205D01*
X047945Y017155D01*
X048095Y017155D01*
X048095Y017450D02*
X047995Y017550D01*
X047970Y017550D01*
X048095Y017550D02*
X048095Y017450D01*
X047595Y017450D02*
X047495Y017550D01*
X047470Y017550D01*
X047445Y017525D01*
X047445Y017475D01*
X047470Y017450D01*
X047470Y017402D02*
X047520Y017402D01*
X047545Y017377D01*
X047545Y017302D01*
X047595Y017302D02*
X047445Y017302D01*
X047445Y017377D01*
X047470Y017402D01*
X047595Y017450D02*
X047595Y017550D01*
X047570Y017230D02*
X047445Y017230D01*
X047445Y017205D02*
X047445Y017255D01*
X047570Y017230D02*
X047595Y017205D01*
X047595Y017180D01*
X047570Y017155D01*
X047945Y010992D02*
X048095Y010992D01*
X048095Y010892D02*
X047945Y010892D01*
X047995Y010942D01*
X047945Y010992D01*
X047945Y010844D02*
X048095Y010844D01*
X048095Y010744D02*
X047945Y010744D01*
X047995Y010794D01*
X047945Y010844D01*
X047945Y010697D02*
X047945Y010597D01*
X048020Y010597D01*
X047995Y010647D01*
X047995Y010672D01*
X048020Y010697D01*
X048070Y010697D01*
X048095Y010672D01*
X048095Y010622D01*
X048070Y010597D01*
X048095Y010550D02*
X048095Y010450D01*
X047995Y010550D01*
X047970Y010550D01*
X047945Y010525D01*
X047945Y010475D01*
X047970Y010450D01*
X047970Y010402D02*
X048070Y010302D01*
X048095Y010327D01*
X048095Y010377D01*
X048070Y010402D01*
X047970Y010402D01*
X047945Y010377D01*
X047945Y010327D01*
X047970Y010302D01*
X048070Y010302D01*
X048095Y010255D02*
X047945Y010255D01*
X047995Y010205D01*
X047945Y010155D01*
X048095Y010155D01*
X047595Y010180D02*
X047595Y010205D01*
X047570Y010230D01*
X047445Y010230D01*
X047445Y010205D02*
X047445Y010255D01*
X047445Y010302D02*
X047445Y010377D01*
X047470Y010402D01*
X047520Y010402D01*
X047545Y010377D01*
X047545Y010302D01*
X047595Y010302D02*
X047445Y010302D01*
X047520Y010450D02*
X047445Y010525D01*
X047595Y010525D01*
X047520Y010550D02*
X047520Y010450D01*
X047595Y010180D02*
X047570Y010155D01*
X047945Y005592D02*
X048095Y005592D01*
X048095Y005492D02*
X047945Y005492D01*
X047995Y005542D01*
X047945Y005592D01*
X047945Y005444D02*
X048095Y005444D01*
X048095Y005344D02*
X047945Y005344D01*
X047995Y005394D01*
X047945Y005444D01*
X047945Y005297D02*
X047945Y005197D01*
X048020Y005197D01*
X047995Y005247D01*
X047995Y005272D01*
X048020Y005297D01*
X048070Y005297D01*
X048095Y005272D01*
X048095Y005222D01*
X048070Y005197D01*
X048095Y005150D02*
X048095Y005050D01*
X047995Y005150D01*
X047970Y005150D01*
X047945Y005125D01*
X047945Y005075D01*
X047970Y005050D01*
X047970Y005002D02*
X048070Y004902D01*
X048095Y004927D01*
X048095Y004977D01*
X048070Y005002D01*
X047970Y005002D01*
X047945Y004977D01*
X047945Y004927D01*
X047970Y004902D01*
X048070Y004902D01*
X048095Y004855D02*
X047945Y004855D01*
X047995Y004805D01*
X047945Y004755D01*
X048095Y004755D01*
X047595Y004780D02*
X047595Y004805D01*
X047570Y004830D01*
X047445Y004830D01*
X047445Y004805D02*
X047445Y004855D01*
X047445Y004902D02*
X047445Y004977D01*
X047470Y005002D01*
X047520Y005002D01*
X047545Y004977D01*
X047545Y004902D01*
X047595Y004902D02*
X047445Y004902D01*
X047445Y005050D02*
X047520Y005050D01*
X047495Y005100D01*
X047495Y005125D01*
X047520Y005150D01*
X047570Y005150D01*
X047595Y005125D01*
X047595Y005075D01*
X047570Y005050D01*
X047445Y005050D02*
X047445Y005150D01*
X047595Y004780D02*
X047570Y004755D01*
X026001Y014293D02*
X025975Y014268D01*
X026001Y014293D02*
X026001Y014343D01*
X025975Y014368D01*
X025950Y014368D01*
X025925Y014343D01*
X025925Y014293D01*
X025900Y014268D01*
X025875Y014268D01*
X025850Y014293D01*
X025850Y014343D01*
X025875Y014368D01*
X025850Y014415D02*
X025850Y014490D01*
X025875Y014515D01*
X025975Y014515D01*
X026001Y014490D01*
X026001Y014415D01*
X025850Y014415D01*
X026026Y014562D02*
X026026Y014662D01*
X025975Y014710D02*
X026001Y014735D01*
X026001Y014785D01*
X025975Y014810D01*
X026001Y014857D02*
X025900Y014857D01*
X025850Y014907D01*
X025900Y014957D01*
X026001Y014957D01*
X026001Y015004D02*
X025850Y015004D01*
X025850Y015079D01*
X025875Y015104D01*
X025925Y015104D01*
X025950Y015079D01*
X025950Y015004D01*
X025950Y015054D02*
X026001Y015104D01*
X026001Y015152D02*
X026001Y015227D01*
X025975Y015252D01*
X025875Y015252D01*
X025850Y015227D01*
X025850Y015152D01*
X026001Y015152D01*
X026026Y015299D02*
X026026Y015399D01*
X025975Y015446D02*
X026001Y015471D01*
X026001Y015521D01*
X025975Y015546D01*
X025950Y015546D01*
X025925Y015521D01*
X025925Y015471D01*
X025900Y015446D01*
X025875Y015446D01*
X025850Y015471D01*
X025850Y015521D01*
X025875Y015546D01*
X025875Y015594D02*
X025975Y015594D01*
X026001Y015619D01*
X026001Y015669D01*
X025975Y015694D01*
X025875Y015694D01*
X025850Y015669D01*
X025850Y015619D01*
X025875Y015594D01*
X025875Y015741D02*
X025975Y015741D01*
X026001Y015766D01*
X026001Y015816D01*
X025975Y015841D01*
X025950Y015888D02*
X025850Y015988D01*
X025850Y016036D02*
X026001Y016036D01*
X026001Y016136D01*
X025925Y016086D02*
X025925Y016036D01*
X025850Y016036D02*
X025850Y016136D01*
X025850Y016183D02*
X025850Y016283D01*
X025850Y016233D02*
X026001Y016233D01*
X025925Y016330D02*
X025925Y016430D01*
X025975Y016477D02*
X026001Y016502D01*
X026001Y016553D01*
X025975Y016578D01*
X025850Y016578D01*
X025875Y016625D02*
X025975Y016625D01*
X026001Y016650D01*
X026001Y016700D01*
X025975Y016725D01*
X025975Y016772D02*
X026001Y016797D01*
X026001Y016847D01*
X025975Y016872D01*
X025875Y016872D01*
X025850Y016847D01*
X025850Y016797D01*
X025875Y016772D01*
X025975Y016772D01*
X025875Y016725D02*
X025850Y016700D01*
X025850Y016650D01*
X025875Y016625D01*
X025850Y016477D02*
X025975Y016477D01*
X026001Y016405D02*
X025850Y016405D01*
X025925Y016330D01*
X026001Y015988D02*
X025925Y015913D01*
X025850Y015888D02*
X026001Y015888D01*
X025875Y015841D02*
X025850Y015816D01*
X025850Y015766D01*
X025875Y015741D01*
X025925Y014957D02*
X025925Y014857D01*
X025875Y014810D02*
X025850Y014785D01*
X025850Y014735D01*
X025875Y014710D01*
X025975Y014710D01*
X025501Y014490D02*
X025475Y014515D01*
X025375Y014515D01*
X025350Y014490D01*
X025350Y014415D01*
X025501Y014415D01*
X025501Y014490D01*
X025475Y014368D02*
X025501Y014343D01*
X025501Y014293D01*
X025475Y014268D01*
X025425Y014293D02*
X025425Y014343D01*
X025450Y014368D01*
X025475Y014368D01*
X025425Y014293D02*
X025400Y014268D01*
X025375Y014268D01*
X025350Y014293D01*
X025350Y014343D01*
X025375Y014368D01*
X025850Y016919D02*
X026001Y017020D01*
X025850Y017020D01*
X025850Y016919D02*
X026001Y016919D01*
D20*
X039725Y020150D03*
X039725Y021150D03*
X041875Y021150D03*
X041875Y020150D03*
X043525Y015150D03*
X045675Y015150D03*
X045675Y009650D03*
X043525Y009650D03*
X043525Y008150D03*
X045675Y008150D03*
X041875Y026150D03*
X041875Y027150D03*
X039725Y027150D03*
X039725Y026150D03*
X007075Y019150D03*
X004925Y019150D03*
D21*
X013919Y010677D02*
X013919Y010370D01*
X014379Y010370D01*
X014379Y010677D01*
X014149Y010524D02*
X014149Y010370D01*
X013919Y010217D02*
X013919Y009910D01*
X014379Y009910D01*
X014379Y010217D01*
X014149Y010063D02*
X014149Y009910D01*
X014072Y009756D02*
X014149Y009679D01*
X014149Y009449D01*
X013919Y009449D02*
X013919Y009679D01*
X013996Y009756D01*
X014072Y009756D01*
X014149Y009679D02*
X014226Y009756D01*
X014302Y009756D01*
X014379Y009679D01*
X014379Y009449D01*
X013919Y009449D01*
X013919Y009296D02*
X014379Y008989D01*
X014379Y009296D02*
X013919Y008989D01*
D22*
X045140Y006920D03*
X045140Y014420D03*
D23*
X046450Y012650D03*
X046450Y005150D03*
D24*
X046200Y003425D03*
X046200Y006875D03*
X046200Y010925D03*
X046200Y014375D03*
D25*
X046200Y013150D03*
X046200Y012150D03*
X046200Y005650D03*
X046200Y004650D03*
M02*
